  0
SECTION
  2
HEADER
  9
$ACADVER
  1
AC1009
  9
$INSBASE
 10
0.0
 20
0.0
 30
0.0
  9
$EXTMIN
 10
0.0
 20
0.0
 30
0.0
  9
$EXTMAX
 10
0.0
 20
0.0
 30
0.0
  0
ENDSEC
  0
SECTION
  2
TABLES
  0
TABLE
  2
VPORT
 70
1
  0
VPORT
  2
*ACTIVE
 70
0
 10
0.0
 20
0.0
 11
1.0
 21
1.0
 12
-5.0
 22
1.0
 13
0.0
 23
0.0
 14
0.1
 24
0.1
 15
0.1
 25
0.1
 16
0.0
 26
0.0
 36
1.0
 17
0.0
 27
0.0
 37
0.0
 40
10.0
 41
1.0
 42
50.0
 43
0.0
 44
0.0
 50
0.0
 51
0.0
 71
0
 72
100
 73
1
 74
1
 75
0
 76
0
 77
0
 78
0
  0
ENDTAB
  0
TABLE
  2
LTYPE
 70
8
  0
LTYPE
  2
CONTINUOUS
 70
0
  3
Solid line
 72
65
 73
0
 40
0.0
  0
LTYPE
  2
DOT
 70
0
  3
. . . . . . .
 72
65
 73
2
 40
0.25
 49
0.0
 49
-0.25
  0
LTYPE
  2
DASHED
 70
0
  3
__ __ __ __ __
 72
65
 73
2
 40
0.8
 49
0.5
 49
-0.3
  0
LTYPE
  2
DASHDOT
 70
0
  3
__ . __ . __ .
 72
65
 73
4
 40
1.0
 49
0.5
 49
-0.25
 49
0.0
 49
-0.25
  0
LTYPE
  2
DIVIDE
 70
0
  3
____ . . ____ . . 
 72
65
 73
6
 40
1.25
 49
0.5
 49
-0.25
 49
0.0
 49
-0.25
 49
0.0
 49
-0.25
  0
LTYPE
  2
BORDER
 70
0
  3
__ __ . __ __ . 
 72
65
 73
6
 40
1.75
 49
0.5
 49
-0.25
 49
0.5
 49
-0.25
 49
0.0
 49
-0.25
  0
LTYPE
  2
HIDDEN
 70
0
  3
__ __ __ __ __
 72
65
 73
2
 40
0.4
 49
0.25
 49
-0.25
  0
LTYPE
  2
CENTER
 70
0
  3
____ _ ____ _ __
 72
65
 73
4
 40
2.0
 49
1.25
 49
-0.25
 49
0.25
 49
-0.25
  0
ENDTAB
  0
TABLE
  2
LAYER
 70
1
  0
LAYER
  2
PYDXF
 70
64
 62
7
  6
continuous
  0
ENDTAB
  0
TABLE
  2
STYLE
 70
1
  0
STYLE
  2
STANDARD
 70
0
 40
0
 41
1.0
 50
0.0
 71
0
 42
1
 3
ARIAL.TTF
 4

  0
ENDTAB
  0
TABLE
  2
VIEW
 70
1
  0
VIEW
  2
BF_TOPVIEW
 70
0
 40
120.0
 10
0.0
 20
0.0
 41
200.0
 11
0.0
 21
0.0
 31
1.0
 12
0.0
 22
0.0
 32
0.0
 42
50.0
 43
0.0
 44
0.0
 50
0.0
 71
0
  0
ENDTAB
  0
ENDSEC
  0
SECTION
  2
BLOCKS
  0
ENDSEC
  0
SECTION
  2
ENTITIES
  0
LINE
  8
0
 10
-122.0
 20
-61.0
 30
0.0
 11
-122.0
 21
61.0
 31
0.0
  0
LINE
  8
0
 10
-122.0
 20
-61.0
 30
0.0
 11
122.0
 21
-61.0
 31
0.0
  0
LINE
  8
0
 10
122.0
 20
-61.0
 30
0.0
 11
122.0
 21
61.0
 31
0.0
  0
LINE
  8
0
 10
-122.0
 20
61.0
 30
0.0
 11
122.0
 21
61.0
 31
0.0
  0
LINE
  8
0
 10
107.50000762939453
 20
-11.041903495788574
 30
0.0
 11
113.5
 21
-11.041903495788574
 31
0.0
  0
LINE
  8
0
 10
113.5
 20
11.958098411560059
 30
0.0
 11
107.50000762939453
 21
11.958098411560059
 31
0.0
  0
LINE
  8
0
 10
107.50000762939453
 20
-11.041903495788574
 30
0.0
 11
107.50000762939453
 21
-9.041903495788574
 31
0.0
  0
LINE
  8
0
 10
113.5
 20
-11.041903495788574
 30
0.0
 11
113.5
 21
-9.041903495788574
 31
0.0
  0
LINE
  8
0
 10
99.0
 20
3.458099842071533
 30
0.0
 11
99.0
 21
-2.5419061183929443
 31
0.0
  0
LINE
  8
0
 10
122.0
 20
-2.541905164718628
 30
0.0
 11
122.0
 21
3.458101272583008
 31
0.0
  0
LINE
  8
0
 10
101.0
 20
9.958098411560059
 30
0.0
 11
101.0
 21
3.4581000804901123
 31
0.0
  0
LINE
  8
0
 10
101.0
 20
-2.5419061183929443
 30
0.0
 11
101.0
 21
-9.04190444946289
 31
0.0
  0
LINE
  8
0
 10
107.50000762939453
 20
11.958098411560059
 30
0.0
 11
107.50000762939453
 21
9.958098411560059
 31
0.0
  0
LINE
  8
0
 10
113.5
 20
11.958098411560059
 30
0.0
 11
113.5
 21
9.958098411560059
 31
0.0
  0
LINE
  8
0
 10
120.00000762939453
 20
9.958099365234375
 30
0.0
 11
120.00000762939453
 21
3.4581010341644287
 31
0.0
  0
LINE
  8
0
 10
120.00000762939453
 20
-2.541905164718628
 30
0.0
 11
120.00000762939453
 21
-9.041903495788574
 31
0.0
  0
LINE
  8
0
 10
113.5
 20
-9.041903495788574
 30
0.0
 11
120.00000762939453
 21
-9.041903495788574
 31
0.0
  0
LINE
  8
0
 10
113.5
 20
9.958098411560059
 30
0.0
 11
120.00000762939453
 21
9.958099365234375
 31
0.0
  0
LINE
  8
0
 10
101.0
 20
-9.04190444946289
 30
0.0
 11
107.50000762939453
 21
-9.041903495788574
 31
0.0
  0
LINE
  8
0
 10
101.0
 20
9.958098411560059
 30
0.0
 11
107.50000762939453
 21
9.958098411560059
 31
0.0
  0
LINE
  8
0
 10
99.0
 20
-2.5419061183929443
 30
0.0
 11
101.0
 21
-2.5419061183929443
 31
0.0
  0
LINE
  8
0
 10
99.0
 20
3.458099842071533
 30
0.0
 11
101.0
 21
3.4581000804901123
 31
0.0
  0
LINE
  8
0
 10
122.0
 20
-2.541905164718628
 30
0.0
 11
120.00000762939453
 21
-2.541905164718628
 31
0.0
  0
LINE
  8
0
 10
122.0
 20
3.458101272583008
 30
0.0
 11
120.00000762939453
 21
3.4581010341644287
 31
0.0
  0
LINE
  8
0
 10
-85.9000244140625
 20
1.5001482963562012
 30
0.0
 11
-85.9000244140625
 21
7.500147819519043
 31
0.0
  0
LINE
  8
0
 10
-85.9000244140625
 20
1.5001482963562012
 30
0.0
 11
-121.50001525878906
 21
1.5001468658447266
 31
0.0
  0
LINE
  8
0
 10
-121.50001525878906
 20
1.5001468658447266
 30
0.0
 11
-121.50001525878906
 21
15.50014591217041
 31
0.0
  0
LINE
  8
0
 10
-91.90001678466797
 20
11.500146865844727
 30
0.0
 11
-91.90001678466797
 21
5.500148296356201
 31
0.0
  0
LINE
  8
0
 10
-89.90001678466797
 20
5.500148296356201
 30
0.0
 11
-89.90001678466797
 21
7.500147819519043
 31
0.0
  0
LINE
  8
0
 10
-91.90001678466797
 20
5.500148296356201
 30
0.0
 11
-89.90001678466797
 21
5.500148296356201
 31
0.0
  0
LINE
  8
0
 10
-91.90001678466797
 20
11.500146865844727
 30
0.0
 11
-89.90001678466797
 21
11.500146865844727
 31
0.0
  0
LINE
  8
0
 10
-89.90001678466797
 20
11.500146865844727
 30
0.0
 11
-89.90001678466797
 21
9.500146865844727
 31
0.0
  0
LINE
  8
0
 10
-85.9000244140625
 20
7.500147819519043
 30
0.0
 11
-89.90001678466797
 21
7.500147819519043
 31
0.0
  0
LINE
  8
0
 10
-85.9000244140625
 20
9.500147819519043
 30
0.0
 11
-89.90001678466797
 21
9.500146865844727
 31
0.0
  0
LINE
  8
0
 10
-85.9000244140625
 20
15.50014591217041
 30
0.0
 11
-121.50001525878906
 21
15.50014591217041
 31
0.0
  0
LINE
  8
0
 10
-85.9000244140625
 20
15.50014591217041
 30
0.0
 11
-85.9000244140625
 21
9.500147819519043
 31
0.0
  0
LINE
  8
0
 10
-85.9000244140625
 20
16.000144958496094
 30
0.0
 11
-85.9000244140625
 21
22.000144958496094
 31
0.0
  0
LINE
  8
0
 10
-85.9000244140625
 20
16.000144958496094
 30
0.0
 11
-121.50001525878906
 21
16.000144958496094
 31
0.0
  0
LINE
  8
0
 10
-91.90001678466797
 20
26.000144958496094
 30
0.0
 11
-91.90001678466797
 21
20.000146865844727
 31
0.0
  0
LINE
  8
0
 10
-89.90001678466797
 20
20.000146865844727
 30
0.0
 11
-89.90001678466797
 21
22.000144958496094
 31
0.0
  0
LINE
  8
0
 10
-91.90001678466797
 20
20.000146865844727
 30
0.0
 11
-89.90001678466797
 21
20.000146865844727
 31
0.0
  0
LINE
  8
0
 10
-91.90001678466797
 20
26.000144958496094
 30
0.0
 11
-89.90001678466797
 21
26.000144958496094
 31
0.0
  0
LINE
  8
0
 10
-121.50001525878906
 20
16.000144958496094
 30
0.0
 11
-121.50001525878906
 21
30.000144958496094
 31
0.0
  0
LINE
  8
0
 10
-89.90001678466797
 20
26.000144958496094
 30
0.0
 11
-89.90001678466797
 21
24.000144958496094
 31
0.0
  0
LINE
  8
0
 10
-85.9000244140625
 20
22.000144958496094
 30
0.0
 11
-89.90001678466797
 21
22.000144958496094
 31
0.0
  0
LINE
  8
0
 10
-85.9000244140625
 20
24.000144958496094
 30
0.0
 11
-89.90001678466797
 21
24.000144958496094
 31
0.0
  0
LINE
  8
0
 10
-85.9000244140625
 20
30.000144958496094
 30
0.0
 11
-121.50001525878906
 21
30.000144958496094
 31
0.0
  0
LINE
  8
0
 10
-85.9000244140625
 20
30.000144958496094
 30
0.0
 11
-85.9000244140625
 21
24.000144958496094
 31
0.0
  0
LINE
  8
0
 10
-85.9000244140625
 20
30.50014305114746
 30
0.0
 11
-85.9000244140625
 21
36.500144958496094
 31
0.0
  0
LINE
  8
0
 10
-85.9000244140625
 20
30.50014305114746
 30
0.0
 11
-121.50001525878906
 21
30.50014305114746
 31
0.0
  0
LINE
  8
0
 10
-91.90001678466797
 20
40.500144958496094
 30
0.0
 11
-91.90001678466797
 21
34.50014114379883
 31
0.0
  0
LINE
  8
0
 10
-89.90001678466797
 20
34.50014114379883
 30
0.0
 11
-89.90001678466797
 21
36.500144958496094
 31
0.0
  0
LINE
  8
0
 10
-91.90001678466797
 20
34.50014114379883
 30
0.0
 11
-89.90001678466797
 21
34.50014114379883
 31
0.0
  0
LINE
  8
0
 10
-91.90001678466797
 20
40.500144958496094
 30
0.0
 11
-89.90001678466797
 21
40.500144958496094
 31
0.0
  0
LINE
  8
0
 10
-89.90001678466797
 20
40.500144958496094
 30
0.0
 11
-89.90001678466797
 21
38.50014114379883
 31
0.0
  0
LINE
  8
0
 10
-85.9000244140625
 20
36.500144958496094
 30
0.0
 11
-89.90001678466797
 21
36.500144958496094
 31
0.0
  0
LINE
  8
0
 10
-85.9000244140625
 20
38.50014114379883
 30
0.0
 11
-89.90001678466797
 21
38.50014114379883
 31
0.0
  0
LINE
  8
0
 10
-85.9000244140625
 20
44.50014114379883
 30
0.0
 11
-121.50001525878906
 21
44.50014114379883
 31
0.0
  0
LINE
  8
0
 10
-85.9000244140625
 20
44.50014114379883
 30
0.0
 11
-85.9000244140625
 21
38.50014114379883
 31
0.0
  0
LINE
  8
0
 10
-121.50001525878906
 20
30.50014305114746
 30
0.0
 11
-121.50001525878906
 21
44.50014114379883
 31
0.0
  0
LINE
  8
0
 10
-85.9000244140625
 20
45.00014114379883
 30
0.0
 11
-85.9000244140625
 21
51.00014114379883
 31
0.0
  0
LINE
  8
0
 10
-85.9000244140625
 20
45.00014114379883
 30
0.0
 11
-121.50001525878906
 21
45.00014114379883
 31
0.0
  0
LINE
  8
0
 10
-91.90001678466797
 20
55.00013732910156
 30
0.0
 11
-91.90001678466797
 21
49.00014114379883
 31
0.0
  0
LINE
  8
0
 10
-89.90001678466797
 20
49.00014114379883
 30
0.0
 11
-89.90001678466797
 21
51.00014114379883
 31
0.0
  0
LINE
  8
0
 10
-91.90001678466797
 20
49.00014114379883
 30
0.0
 11
-89.90001678466797
 21
49.00014114379883
 31
0.0
  0
LINE
  8
0
 10
-91.90001678466797
 20
55.00013732910156
 30
0.0
 11
-89.90001678466797
 21
55.00013732910156
 31
0.0
  0
LINE
  8
0
 10
-85.9000244140625
 20
59.00014114379883
 30
0.0
 11
-85.9000244140625
 21
53.00014114379883
 31
0.0
  0
LINE
  8
0
 10
-89.90001678466797
 20
55.00013732910156
 30
0.0
 11
-89.90001678466797
 21
53.00014114379883
 31
0.0
  0
LINE
  8
0
 10
-85.9000244140625
 20
51.00014114379883
 30
0.0
 11
-89.90001678466797
 21
51.00014114379883
 31
0.0
  0
LINE
  8
0
 10
-85.9000244140625
 20
53.00014114379883
 30
0.0
 11
-89.90001678466797
 21
53.00014114379883
 31
0.0
  0
LINE
  8
0
 10
-121.50001525878906
 20
45.00014114379883
 30
0.0
 11
-121.50001525878906
 21
59.00014114379883
 31
0.0
  0
LINE
  8
0
 10
-85.9000244140625
 20
59.00014114379883
 30
0.0
 11
-121.50001525878906
 21
59.00014114379883
 31
0.0
  0
LINE
  8
0
 10
-85.9000244140625
 20
-44.99995040893555
 30
0.0
 11
-85.9000244140625
 21
-50.99995040893555
 31
0.0
  0
LINE
  8
0
 10
-85.9000244140625
 20
-44.99995040893555
 30
0.0
 11
-121.50001525878906
 21
-44.99995040893555
 31
0.0
  0
LINE
  8
0
 10
-91.90001678466797
 20
-48.99995040893555
 30
0.0
 11
-91.90001678466797
 21
-54.99994659423828
 31
0.0
  0
LINE
  8
0
 10
-89.90001678466797
 20
-54.99994659423828
 30
0.0
 11
-89.90001678466797
 21
-52.99995040893555
 31
0.0
  0
LINE
  8
0
 10
-91.90001678466797
 20
-54.99994659423828
 30
0.0
 11
-89.90001678466797
 21
-54.99994659423828
 31
0.0
  0
LINE
  8
0
 10
-91.90001678466797
 20
-48.99995040893555
 30
0.0
 11
-89.90001678466797
 21
-48.99995040893555
 31
0.0
  0
LINE
  8
0
 10
-121.50001525878906
 20
-58.99995040893555
 30
0.0
 11
-121.50001525878906
 21
-44.99995040893555
 31
0.0
  0
LINE
  8
0
 10
-89.90001678466797
 20
-48.99995040893555
 30
0.0
 11
-89.90001678466797
 21
-50.99995040893555
 31
0.0
  0
LINE
  8
0
 10
-85.9000244140625
 20
-52.99995040893555
 30
0.0
 11
-89.90001678466797
 21
-52.99995040893555
 31
0.0
  0
LINE
  8
0
 10
-85.9000244140625
 20
-50.99995040893555
 30
0.0
 11
-89.90001678466797
 21
-50.99995040893555
 31
0.0
  0
LINE
  8
0
 10
-85.9000244140625
 20
-58.99995040893555
 30
0.0
 11
-121.50001525878906
 21
-58.99995040893555
 31
0.0
  0
LINE
  8
0
 10
-85.9000244140625
 20
-58.99995040893555
 30
0.0
 11
-85.9000244140625
 21
-52.99995040893555
 31
0.0
  0
LINE
  8
0
 10
-85.9000244140625
 20
-30.49995231628418
 30
0.0
 11
-85.9000244140625
 21
-36.49995422363281
 31
0.0
  0
LINE
  8
0
 10
-85.9000244140625
 20
-30.49995231628418
 30
0.0
 11
-121.50001525878906
 21
-30.49995231628418
 31
0.0
  0
LINE
  8
0
 10
-91.90001678466797
 20
-34.49995040893555
 30
0.0
 11
-91.90001678466797
 21
-40.49995422363281
 31
0.0
  0
LINE
  8
0
 10
-89.90001678466797
 20
-40.49995422363281
 30
0.0
 11
-89.90001678466797
 21
-38.49995040893555
 31
0.0
  0
LINE
  8
0
 10
-91.90001678466797
 20
-40.49995422363281
 30
0.0
 11
-89.90001678466797
 21
-40.49995422363281
 31
0.0
  0
LINE
  8
0
 10
-91.90001678466797
 20
-34.49995040893555
 30
0.0
 11
-89.90001678466797
 21
-34.49995040893555
 31
0.0
  0
LINE
  8
0
 10
-121.50001525878906
 20
-44.49995040893555
 30
0.0
 11
-121.50001525878906
 21
-30.49995231628418
 31
0.0
  0
LINE
  8
0
 10
-89.90001678466797
 20
-34.49995040893555
 30
0.0
 11
-89.90001678466797
 21
-36.49995422363281
 31
0.0
  0
LINE
  8
0
 10
-85.9000244140625
 20
-38.49995040893555
 30
0.0
 11
-89.90001678466797
 21
-38.49995040893555
 31
0.0
  0
LINE
  8
0
 10
-85.9000244140625
 20
-36.49995422363281
 30
0.0
 11
-89.90001678466797
 21
-36.49995422363281
 31
0.0
  0
LINE
  8
0
 10
-85.9000244140625
 20
-44.49995040893555
 30
0.0
 11
-121.50001525878906
 21
-44.49995040893555
 31
0.0
  0
LINE
  8
0
 10
-85.9000244140625
 20
-44.49995040893555
 30
0.0
 11
-85.9000244140625
 21
-38.49995040893555
 31
0.0
  0
LINE
  8
0
 10
-85.9000244140625
 20
-15.999955177307129
 30
0.0
 11
-85.9000244140625
 21
-21.999954223632812
 31
0.0
  0
LINE
  8
0
 10
-91.90001678466797
 20
-19.999954223632812
 30
0.0
 11
-91.90001678466797
 21
-25.999954223632812
 31
0.0
  0
LINE
  8
0
 10
-89.90001678466797
 20
-25.999954223632812
 30
0.0
 11
-89.90001678466797
 21
-23.999954223632812
 31
0.0
  0
LINE
  8
0
 10
-91.90001678466797
 20
-25.999954223632812
 30
0.0
 11
-89.90001678466797
 21
-25.999954223632812
 31
0.0
  0
LINE
  8
0
 10
-91.90001678466797
 20
-19.999954223632812
 30
0.0
 11
-89.90001678466797
 21
-19.999954223632812
 31
0.0
  0
LINE
  8
0
 10
-85.9000244140625
 20
-15.999955177307129
 30
0.0
 11
-121.50001525878906
 21
-15.999955177307129
 31
0.0
  0
LINE
  8
0
 10
-89.90001678466797
 20
-19.999954223632812
 30
0.0
 11
-89.90001678466797
 21
-21.999954223632812
 31
0.0
  0
LINE
  8
0
 10
-85.9000244140625
 20
-23.999954223632812
 30
0.0
 11
-89.90001678466797
 21
-23.999954223632812
 31
0.0
  0
LINE
  8
0
 10
-85.9000244140625
 20
-21.999954223632812
 30
0.0
 11
-89.90001678466797
 21
-21.999954223632812
 31
0.0
  0
LINE
  8
0
 10
-85.9000244140625
 20
-29.999954223632812
 30
0.0
 11
-121.50001525878906
 21
-29.999954223632812
 31
0.0
  0
LINE
  8
0
 10
-85.9000244140625
 20
-29.999954223632812
 30
0.0
 11
-85.9000244140625
 21
-23.999954223632812
 31
0.0
  0
LINE
  8
0
 10
-121.50001525878906
 20
-29.999954223632812
 30
0.0
 11
-121.50001525878906
 21
-15.999955177307129
 31
0.0
  0
LINE
  8
0
 10
-85.9000244140625
 20
-1.4999561309814453
 30
0.0
 11
-85.9000244140625
 21
-7.499955654144287
 31
0.0
  0
LINE
  8
0
 10
-85.9000244140625
 20
-1.4999561309814453
 30
0.0
 11
-121.50001525878906
 21
-1.49995756149292
 31
0.0
  0
LINE
  8
0
 10
-91.90001678466797
 20
-5.499956130981445
 30
0.0
 11
-91.90001678466797
 21
-11.499955177307129
 31
0.0
  0
LINE
  8
0
 10
-89.90001678466797
 20
-11.499955177307129
 30
0.0
 11
-89.90001678466797
 21
-9.499955177307129
 31
0.0
  0
LINE
  8
0
 10
-91.90001678466797
 20
-11.499955177307129
 30
0.0
 11
-89.90001678466797
 21
-11.499955177307129
 31
0.0
  0
LINE
  8
0
 10
-91.90001678466797
 20
-5.499956130981445
 30
0.0
 11
-89.90001678466797
 21
-5.499956130981445
 31
0.0
  0
LINE
  8
0
 10
-121.50001525878906
 20
-15.499955177307129
 30
0.0
 11
-121.50001525878906
 21
-1.49995756149292
 31
0.0
  0
LINE
  8
0
 10
-89.90001678466797
 20
-5.499956130981445
 30
0.0
 11
-89.90001678466797
 21
-7.499956130981445
 31
0.0
  0
LINE
  8
0
 10
-85.9000244140625
 20
-9.499955177307129
 30
0.0
 11
-89.90001678466797
 21
-9.499955177307129
 31
0.0
  0
LINE
  8
0
 10
-85.9000244140625
 20
-7.499955654144287
 30
0.0
 11
-89.90001678466797
 21
-7.499956130981445
 31
0.0
  0
LINE
  8
0
 10
-85.9000244140625
 20
-15.499955177307129
 30
0.0
 11
-121.50001525878906
 21
-15.499955177307129
 31
0.0
  0
LINE
  8
0
 10
-85.9000244140625
 20
-15.499955177307129
 30
0.0
 11
-85.9000244140625
 21
-9.499955177307129
 31
0.0
  0
LINE
  8
0
 10
-49.80002212524414
 20
1.5001482963562012
 30
0.0
 11
-49.80002212524414
 21
7.500147819519043
 31
0.0
  0
LINE
  8
0
 10
-49.80002212524414
 20
1.5001482963562012
 30
0.0
 11
-85.4000244140625
 21
1.5001468658447266
 31
0.0
  0
LINE
  8
0
 10
-49.80002212524414
 20
15.50014591217041
 30
0.0
 11
-49.80002212524414
 21
9.500147819519043
 31
0.0
  0
LINE
  8
0
 10
-55.80002212524414
 20
11.500146865844727
 30
0.0
 11
-55.80002212524414
 21
5.500148296356201
 31
0.0
  0
LINE
  8
0
 10
-53.80002212524414
 20
5.500148296356201
 30
0.0
 11
-53.80002212524414
 21
7.500147819519043
 31
0.0
  0
LINE
  8
0
 10
-55.80002212524414
 20
5.500148296356201
 30
0.0
 11
-53.80002212524414
 21
5.500148296356201
 31
0.0
  0
LINE
  8
0
 10
-55.80002212524414
 20
11.500146865844727
 30
0.0
 11
-53.80002212524414
 21
11.500146865844727
 31
0.0
  0
LINE
  8
0
 10
-49.80002212524414
 20
15.50014591217041
 30
0.0
 11
-85.4000244140625
 21
15.50014591217041
 31
0.0
  0
LINE
  8
0
 10
-53.80002212524414
 20
11.500146865844727
 30
0.0
 11
-53.80002212524414
 21
9.500146865844727
 31
0.0
  0
LINE
  8
0
 10
-49.80002212524414
 20
7.500147819519043
 30
0.0
 11
-53.80002212524414
 21
7.500147819519043
 31
0.0
  0
LINE
  8
0
 10
-49.80002212524414
 20
9.500147819519043
 30
0.0
 11
-53.80002212524414
 21
9.500146865844727
 31
0.0
  0
LINE
  8
0
 10
-85.4000244140625
 20
1.5001468658447266
 30
0.0
 11
-85.4000244140625
 21
15.50014591217041
 31
0.0
  0
LINE
  8
0
 10
-55.80002212524414
 20
26.000144958496094
 30
0.0
 11
-55.80002212524414
 21
20.000146865844727
 31
0.0
  0
LINE
  8
0
 10
-53.80002212524414
 20
20.000146865844727
 30
0.0
 11
-53.80002212524414
 21
22.000144958496094
 31
0.0
  0
LINE
  8
0
 10
-55.80002212524414
 20
20.000146865844727
 30
0.0
 11
-53.80002212524414
 21
20.000146865844727
 31
0.0
  0
LINE
  8
0
 10
-55.80002212524414
 20
26.000144958496094
 30
0.0
 11
-53.80002212524414
 21
26.000144958496094
 31
0.0
  0
LINE
  8
0
 10
-53.80002212524414
 20
26.000144958496094
 30
0.0
 11
-53.80002212524414
 21
24.000144958496094
 31
0.0
  0
LINE
  8
0
 10
-49.80002212524414
 20
22.000144958496094
 30
0.0
 11
-53.80002212524414
 21
22.000144958496094
 31
0.0
  0
LINE
  8
0
 10
-49.80002212524414
 20
24.000144958496094
 30
0.0
 11
-53.80002212524414
 21
24.000144958496094
 31
0.0
  0
LINE
  8
0
 10
-85.4000244140625
 20
16.000144958496094
 30
0.0
 11
-85.4000244140625
 21
30.000144958496094
 31
0.0
  0
LINE
  8
0
 10
-49.80002212524414
 20
16.000144958496094
 30
0.0
 11
-85.4000244140625
 21
16.000144958496094
 31
0.0
  0
LINE
  8
0
 10
-49.80002212524414
 20
16.000144958496094
 30
0.0
 11
-49.80002212524414
 21
22.000144958496094
 31
0.0
  0
LINE
  8
0
 10
-49.80002212524414
 20
30.000144958496094
 30
0.0
 11
-85.4000244140625
 21
30.000144958496094
 31
0.0
  0
LINE
  8
0
 10
-49.80002212524414
 20
30.000144958496094
 30
0.0
 11
-49.80002212524414
 21
24.000144958496094
 31
0.0
  0
LINE
  8
0
 10
-55.80002212524414
 20
40.500144958496094
 30
0.0
 11
-55.80002212524414
 21
34.50014114379883
 31
0.0
  0
LINE
  8
0
 10
-53.80002212524414
 20
34.50014114379883
 30
0.0
 11
-53.80002212524414
 21
36.500144958496094
 31
0.0
  0
LINE
  8
0
 10
-55.80002212524414
 20
34.50014114379883
 30
0.0
 11
-53.80002212524414
 21
34.50014114379883
 31
0.0
  0
LINE
  8
0
 10
-55.80002212524414
 20
40.500144958496094
 30
0.0
 11
-53.80002212524414
 21
40.500144958496094
 31
0.0
  0
LINE
  8
0
 10
-53.80002212524414
 20
40.500144958496094
 30
0.0
 11
-53.80002212524414
 21
38.50014114379883
 31
0.0
  0
LINE
  8
0
 10
-49.80002212524414
 20
36.500144958496094
 30
0.0
 11
-53.80002212524414
 21
36.500144958496094
 31
0.0
  0
LINE
  8
0
 10
-49.80002212524414
 20
38.50014114379883
 30
0.0
 11
-53.80002212524414
 21
38.50014114379883
 31
0.0
  0
LINE
  8
0
 10
-85.4000244140625
 20
30.50014305114746
 30
0.0
 11
-85.4000244140625
 21
44.50014114379883
 31
0.0
  0
LINE
  8
0
 10
-49.80002212524414
 20
30.50014305114746
 30
0.0
 11
-85.4000244140625
 21
30.50014305114746
 31
0.0
  0
LINE
  8
0
 10
-49.80002212524414
 20
30.50014305114746
 30
0.0
 11
-49.80002212524414
 21
36.500144958496094
 31
0.0
  0
LINE
  8
0
 10
-49.80002212524414
 20
44.50014114379883
 30
0.0
 11
-85.4000244140625
 21
44.50014114379883
 31
0.0
  0
LINE
  8
0
 10
-49.80002212524414
 20
44.50014114379883
 30
0.0
 11
-49.80002212524414
 21
38.50014114379883
 31
0.0
  0
LINE
  8
0
 10
-49.80002212524414
 20
59.00014114379883
 30
0.0
 11
-49.80002212524414
 21
53.00014114379883
 31
0.0
  0
LINE
  8
0
 10
-55.80002212524414
 20
55.00013732910156
 30
0.0
 11
-55.80002212524414
 21
49.00014114379883
 31
0.0
  0
LINE
  8
0
 10
-53.80002212524414
 20
49.00014114379883
 30
0.0
 11
-53.80002212524414
 21
51.00014114379883
 31
0.0
  0
LINE
  8
0
 10
-55.80002212524414
 20
49.00014114379883
 30
0.0
 11
-53.80002212524414
 21
49.00014114379883
 31
0.0
  0
LINE
  8
0
 10
-55.80002212524414
 20
55.00013732910156
 30
0.0
 11
-53.80002212524414
 21
55.00013732910156
 31
0.0
  0
LINE
  8
0
 10
-49.80002212524414
 20
59.00014114379883
 30
0.0
 11
-85.4000244140625
 21
59.00014114379883
 31
0.0
  0
LINE
  8
0
 10
-53.80002212524414
 20
55.00013732910156
 30
0.0
 11
-53.80002212524414
 21
53.00014114379883
 31
0.0
  0
LINE
  8
0
 10
-49.80002212524414
 20
51.00014114379883
 30
0.0
 11
-53.80002212524414
 21
51.00014114379883
 31
0.0
  0
LINE
  8
0
 10
-49.80002212524414
 20
53.00014114379883
 30
0.0
 11
-53.80002212524414
 21
53.00014114379883
 31
0.0
  0
LINE
  8
0
 10
-85.4000244140625
 20
45.00014114379883
 30
0.0
 11
-85.4000244140625
 21
59.00014114379883
 31
0.0
  0
LINE
  8
0
 10
-49.80002212524414
 20
45.00014114379883
 30
0.0
 11
-85.4000244140625
 21
45.00014114379883
 31
0.0
  0
LINE
  8
0
 10
-49.80002212524414
 20
45.00014114379883
 30
0.0
 11
-49.80002212524414
 21
51.00014114379883
 31
0.0
  0
LINE
  8
0
 10
-49.80002212524414
 20
-44.99995040893555
 30
0.0
 11
-49.80002212524414
 21
-50.99995040893555
 31
0.0
  0
LINE
  8
0
 10
-49.80002212524414
 20
-44.99995040893555
 30
0.0
 11
-85.4000244140625
 21
-44.99995040893555
 31
0.0
  0
LINE
  8
0
 10
-49.80002212524414
 20
-58.99995040893555
 30
0.0
 11
-49.80002212524414
 21
-52.99995040893555
 31
0.0
  0
LINE
  8
0
 10
-49.80002212524414
 20
-52.99995040893555
 30
0.0
 11
-53.80002212524414
 21
-52.99995040893555
 31
0.0
  0
LINE
  8
0
 10
-55.80002212524414
 20
-48.99995040893555
 30
0.0
 11
-55.80002212524414
 21
-54.99994659423828
 31
0.0
  0
LINE
  8
0
 10
-53.80002212524414
 20
-54.99994659423828
 30
0.0
 11
-53.80002212524414
 21
-52.99995040893555
 31
0.0
  0
LINE
  8
0
 10
-55.80002212524414
 20
-54.99994659423828
 30
0.0
 11
-53.80002212524414
 21
-54.99994659423828
 31
0.0
  0
LINE
  8
0
 10
-55.80002212524414
 20
-48.99995040893555
 30
0.0
 11
-53.80002212524414
 21
-48.99995040893555
 31
0.0
  0
LINE
  8
0
 10
-53.80002212524414
 20
-48.99995040893555
 30
0.0
 11
-53.80002212524414
 21
-50.99995040893555
 31
0.0
  0
LINE
  8
0
 10
-49.80002212524414
 20
-50.99995040893555
 30
0.0
 11
-53.80002212524414
 21
-50.99995040893555
 31
0.0
  0
LINE
  8
0
 10
-49.80002212524414
 20
-58.99995040893555
 30
0.0
 11
-85.4000244140625
 21
-58.99995040893555
 31
0.0
  0
LINE
  8
0
 10
-85.4000244140625
 20
-58.99995040893555
 30
0.0
 11
-85.4000244140625
 21
-44.99995040893555
 31
0.0
  0
LINE
  8
0
 10
-49.80002212524414
 20
-30.49995231628418
 30
0.0
 11
-49.80002212524414
 21
-36.49995422363281
 31
0.0
  0
LINE
  8
0
 10
-49.80002212524414
 20
-30.49995231628418
 30
0.0
 11
-85.4000244140625
 21
-30.49995231628418
 31
0.0
  0
LINE
  8
0
 10
-55.80002212524414
 20
-34.49995040893555
 30
0.0
 11
-55.80002212524414
 21
-40.49995422363281
 31
0.0
  0
LINE
  8
0
 10
-53.80002212524414
 20
-40.49995422363281
 30
0.0
 11
-53.80002212524414
 21
-38.49995040893555
 31
0.0
  0
LINE
  8
0
 10
-55.80002212524414
 20
-40.49995422363281
 30
0.0
 11
-53.80002212524414
 21
-40.49995422363281
 31
0.0
  0
LINE
  8
0
 10
-55.80002212524414
 20
-34.49995040893555
 30
0.0
 11
-53.80002212524414
 21
-34.49995040893555
 31
0.0
  0
LINE
  8
0
 10
-85.4000244140625
 20
-44.49995040893555
 30
0.0
 11
-85.4000244140625
 21
-30.49995231628418
 31
0.0
  0
LINE
  8
0
 10
-53.80002212524414
 20
-34.49995040893555
 30
0.0
 11
-53.80002212524414
 21
-36.49995422363281
 31
0.0
  0
LINE
  8
0
 10
-49.80002212524414
 20
-38.49995040893555
 30
0.0
 11
-53.80002212524414
 21
-38.49995040893555
 31
0.0
  0
LINE
  8
0
 10
-49.80002212524414
 20
-36.49995422363281
 30
0.0
 11
-53.80002212524414
 21
-36.49995422363281
 31
0.0
  0
LINE
  8
0
 10
-49.80002212524414
 20
-44.49995040893555
 30
0.0
 11
-85.4000244140625
 21
-44.49995040893555
 31
0.0
  0
LINE
  8
0
 10
-49.80002212524414
 20
-44.49995040893555
 30
0.0
 11
-49.80002212524414
 21
-38.49995040893555
 31
0.0
  0
LINE
  8
0
 10
-49.80002212524414
 20
-15.999955177307129
 30
0.0
 11
-49.80002212524414
 21
-21.999954223632812
 31
0.0
  0
LINE
  8
0
 10
-85.4000244140625
 20
-29.999954223632812
 30
0.0
 11
-85.4000244140625
 21
-15.999955177307129
 31
0.0
  0
LINE
  8
0
 10
-55.80002212524414
 20
-19.999954223632812
 30
0.0
 11
-55.80002212524414
 21
-25.999954223632812
 31
0.0
  0
LINE
  8
0
 10
-53.80002212524414
 20
-25.999954223632812
 30
0.0
 11
-53.80002212524414
 21
-23.999954223632812
 31
0.0
  0
LINE
  8
0
 10
-55.80002212524414
 20
-25.999954223632812
 30
0.0
 11
-53.80002212524414
 21
-25.999954223632812
 31
0.0
  0
LINE
  8
0
 10
-55.80002212524414
 20
-19.999954223632812
 30
0.0
 11
-53.80002212524414
 21
-19.999954223632812
 31
0.0
  0
LINE
  8
0
 10
-49.80002212524414
 20
-15.999955177307129
 30
0.0
 11
-85.4000244140625
 21
-15.999955177307129
 31
0.0
  0
LINE
  8
0
 10
-53.80002212524414
 20
-19.999954223632812
 30
0.0
 11
-53.80002212524414
 21
-21.999954223632812
 31
0.0
  0
LINE
  8
0
 10
-49.80002212524414
 20
-23.999954223632812
 30
0.0
 11
-53.80002212524414
 21
-23.999954223632812
 31
0.0
  0
LINE
  8
0
 10
-49.80002212524414
 20
-21.999954223632812
 30
0.0
 11
-53.80002212524414
 21
-21.999954223632812
 31
0.0
  0
LINE
  8
0
 10
-49.80002212524414
 20
-29.999954223632812
 30
0.0
 11
-85.4000244140625
 21
-29.999954223632812
 31
0.0
  0
LINE
  8
0
 10
-49.80002212524414
 20
-29.999954223632812
 30
0.0
 11
-49.80002212524414
 21
-23.999954223632812
 31
0.0
  0
LINE
  8
0
 10
-49.80002212524414
 20
-9.499955177307129
 30
0.0
 11
-53.80002212524414
 21
-9.499955177307129
 31
0.0
  0
LINE
  8
0
 10
-49.80002212524414
 20
-15.499955177307129
 30
0.0
 11
-49.80002212524414
 21
-9.499955177307129
 31
0.0
  0
LINE
  8
0
 10
-55.80002212524414
 20
-5.499956130981445
 30
0.0
 11
-55.80002212524414
 21
-11.499955177307129
 31
0.0
  0
LINE
  8
0
 10
-53.80002212524414
 20
-11.499955177307129
 30
0.0
 11
-53.80002212524414
 21
-9.499955177307129
 31
0.0
  0
LINE
  8
0
 10
-55.80002212524414
 20
-11.499955177307129
 30
0.0
 11
-53.80002212524414
 21
-11.499955177307129
 31
0.0
  0
LINE
  8
0
 10
-55.80002212524414
 20
-5.499956130981445
 30
0.0
 11
-53.80002212524414
 21
-5.499956130981445
 31
0.0
  0
LINE
  8
0
 10
-49.80002212524414
 20
-1.4999561309814453
 30
0.0
 11
-49.80002212524414
 21
-7.499955654144287
 31
0.0
  0
LINE
  8
0
 10
-53.80002212524414
 20
-5.499956130981445
 30
0.0
 11
-53.80002212524414
 21
-7.499956130981445
 31
0.0
  0
LINE
  8
0
 10
-49.80002212524414
 20
-1.4999561309814453
 30
0.0
 11
-85.4000244140625
 21
-1.49995756149292
 31
0.0
  0
LINE
  8
0
 10
-49.80002212524414
 20
-7.499955654144287
 30
0.0
 11
-53.80002212524414
 21
-7.499956130981445
 31
0.0
  0
LINE
  8
0
 10
-49.80002212524414
 20
-15.499955177307129
 30
0.0
 11
-85.4000244140625
 21
-15.499955177307129
 31
0.0
  0
LINE
  8
0
 10
-85.4000244140625
 20
-15.499955177307129
 30
0.0
 11
-85.4000244140625
 21
-1.49995756149292
 31
0.0
  0
LINE
  8
0
 10
-13.700023651123047
 20
-58.99995040893555
 30
0.0
 11
-13.700023651123047
 21
-52.99995040893555
 31
0.0
  0
LINE
  8
0
 10
-13.700023651123047
 20
-58.99995040893555
 30
0.0
 11
-49.30002212524414
 21
-58.99995040893555
 31
0.0
  0
LINE
  8
0
 10
-19.700023651123047
 20
-48.99995040893555
 30
0.0
 11
-19.700023651123047
 21
-54.99994659423828
 31
0.0
  0
LINE
  8
0
 10
-17.700021743774414
 20
-54.99994659423828
 30
0.0
 11
-17.700021743774414
 21
-52.99995040893555
 31
0.0
  0
LINE
  8
0
 10
-19.700023651123047
 20
-54.99994659423828
 30
0.0
 11
-17.700021743774414
 21
-54.99994659423828
 31
0.0
  0
LINE
  8
0
 10
-19.700023651123047
 20
-48.99995040893555
 30
0.0
 11
-17.700021743774414
 21
-48.99995040893555
 31
0.0
  0
LINE
  8
0
 10
-49.30002212524414
 20
-58.99995040893555
 30
0.0
 11
-49.30002212524414
 21
-44.99995040893555
 31
0.0
  0
LINE
  8
0
 10
-17.700021743774414
 20
-48.99995040893555
 30
0.0
 11
-17.700021743774414
 21
-50.99995040893555
 31
0.0
  0
LINE
  8
0
 10
-13.700023651123047
 20
-52.99995040893555
 30
0.0
 11
-17.700021743774414
 21
-52.99995040893555
 31
0.0
  0
LINE
  8
0
 10
-13.700023651123047
 20
-50.99995040893555
 30
0.0
 11
-17.700021743774414
 21
-50.99995040893555
 31
0.0
  0
LINE
  8
0
 10
-13.700023651123047
 20
-44.99995040893555
 30
0.0
 11
-49.30002212524414
 21
-44.99995040893555
 31
0.0
  0
LINE
  8
0
 10
-13.700023651123047
 20
-44.99995040893555
 30
0.0
 11
-13.700023651123047
 21
-50.99995040893555
 31
0.0
  0
LINE
  8
0
 10
-49.30002212524414
 20
-44.49995040893555
 30
0.0
 11
-49.30002212524414
 21
-30.49995231628418
 31
0.0
  0
LINE
  8
0
 10
-13.700023651123047
 20
-38.49995040893555
 30
0.0
 11
-17.700021743774414
 21
-38.49995040893555
 31
0.0
  0
LINE
  8
0
 10
-13.700023651123047
 20
-44.49995040893555
 30
0.0
 11
-13.700023651123047
 21
-38.49995040893555
 31
0.0
  0
LINE
  8
0
 10
-13.700023651123047
 20
-44.49995040893555
 30
0.0
 11
-49.30002212524414
 21
-44.49995040893555
 31
0.0
  0
LINE
  8
0
 10
-19.700023651123047
 20
-34.49995040893555
 30
0.0
 11
-19.700023651123047
 21
-40.49995422363281
 31
0.0
  0
LINE
  8
0
 10
-17.700021743774414
 20
-40.49995422363281
 30
0.0
 11
-17.700021743774414
 21
-38.49995040893555
 31
0.0
  0
LINE
  8
0
 10
-19.700023651123047
 20
-40.49995422363281
 30
0.0
 11
-17.700021743774414
 21
-40.49995422363281
 31
0.0
  0
LINE
  8
0
 10
-19.700023651123047
 20
-34.49995040893555
 30
0.0
 11
-17.700021743774414
 21
-34.49995040893555
 31
0.0
  0
LINE
  8
0
 10
-17.700021743774414
 20
-34.49995040893555
 30
0.0
 11
-17.700021743774414
 21
-36.49995422363281
 31
0.0
  0
LINE
  8
0
 10
-13.700023651123047
 20
-36.49995422363281
 30
0.0
 11
-17.700021743774414
 21
-36.49995422363281
 31
0.0
  0
LINE
  8
0
 10
-13.700023651123047
 20
-30.49995231628418
 30
0.0
 11
-49.30002212524414
 21
-30.49995231628418
 31
0.0
  0
LINE
  8
0
 10
-13.700023651123047
 20
-30.49995231628418
 30
0.0
 11
-13.700023651123047
 21
-36.49995422363281
 31
0.0
  0
LINE
  8
0
 10
-13.700023651123047
 20
-29.999954223632812
 30
0.0
 11
-13.700023651123047
 21
-23.999954223632812
 31
0.0
  0
LINE
  8
0
 10
-13.700023651123047
 20
-15.999955177307129
 30
0.0
 11
-13.700023651123047
 21
-21.999954223632812
 31
0.0
  0
LINE
  8
0
 10
-13.700023651123047
 20
-29.999954223632812
 30
0.0
 11
-49.30002212524414
 21
-29.999954223632812
 31
0.0
  0
LINE
  8
0
 10
-19.700023651123047
 20
-19.999954223632812
 30
0.0
 11
-19.700023651123047
 21
-25.999954223632812
 31
0.0
  0
LINE
  8
0
 10
-17.700021743774414
 20
-25.999954223632812
 30
0.0
 11
-17.700021743774414
 21
-23.999954223632812
 31
0.0
  0
LINE
  8
0
 10
-19.700023651123047
 20
-25.999954223632812
 30
0.0
 11
-17.700021743774414
 21
-25.999954223632812
 31
0.0
  0
LINE
  8
0
 10
-19.700023651123047
 20
-19.999954223632812
 30
0.0
 11
-17.700021743774414
 21
-19.999954223632812
 31
0.0
  0
LINE
  8
0
 10
-17.700021743774414
 20
-19.999954223632812
 30
0.0
 11
-17.700021743774414
 21
-21.999954223632812
 31
0.0
  0
LINE
  8
0
 10
-13.700023651123047
 20
-23.999954223632812
 30
0.0
 11
-17.700021743774414
 21
-23.999954223632812
 31
0.0
  0
LINE
  8
0
 10
-13.700023651123047
 20
-21.999954223632812
 30
0.0
 11
-17.700021743774414
 21
-21.999954223632812
 31
0.0
  0
LINE
  8
0
 10
-49.30002212524414
 20
-29.999954223632812
 30
0.0
 11
-49.30002212524414
 21
-15.999955177307129
 31
0.0
  0
LINE
  8
0
 10
-13.700023651123047
 20
-15.999955177307129
 30
0.0
 11
-49.30002212524414
 21
-15.999955177307129
 31
0.0
  0
LINE
  8
0
 10
-13.700023651123047
 20
-15.499955177307129
 30
0.0
 11
-13.700023651123047
 21
-9.499955177307129
 31
0.0
  0
LINE
  8
0
 10
-13.700023651123047
 20
-15.499955177307129
 30
0.0
 11
-49.30002212524414
 21
-15.499955177307129
 31
0.0
  0
LINE
  8
0
 10
-19.700023651123047
 20
-5.499956130981445
 30
0.0
 11
-19.700023651123047
 21
-11.499955177307129
 31
0.0
  0
LINE
  8
0
 10
-17.700021743774414
 20
-11.499955177307129
 30
0.0
 11
-17.700021743774414
 21
-9.499955177307129
 31
0.0
  0
LINE
  8
0
 10
-19.700023651123047
 20
-11.499955177307129
 30
0.0
 11
-17.700021743774414
 21
-11.499955177307129
 31
0.0
  0
LINE
  8
0
 10
-19.700023651123047
 20
-5.499956130981445
 30
0.0
 11
-17.700021743774414
 21
-5.499956130981445
 31
0.0
  0
LINE
  8
0
 10
-13.700023651123047
 20
-1.4999561309814453
 30
0.0
 11
-13.700023651123047
 21
-7.499955654144287
 31
0.0
  0
LINE
  8
0
 10
-17.700021743774414
 20
-5.499956130981445
 30
0.0
 11
-17.700021743774414
 21
-7.499956130981445
 31
0.0
  0
LINE
  8
0
 10
-13.700023651123047
 20
-9.499955177307129
 30
0.0
 11
-17.700021743774414
 21
-9.499955177307129
 31
0.0
  0
LINE
  8
0
 10
-13.700023651123047
 20
-7.499955654144287
 30
0.0
 11
-17.700021743774414
 21
-7.499956130981445
 31
0.0
  0
LINE
  8
0
 10
-49.30002212524414
 20
-15.499955177307129
 30
0.0
 11
-49.30002212524414
 21
-1.49995756149292
 31
0.0
  0
LINE
  8
0
 10
-13.700023651123047
 20
-1.4999561309814453
 30
0.0
 11
-49.30002212524414
 21
-1.49995756149292
 31
0.0
  0
LINE
  8
0
 10
-13.700023651123047
 20
1.5001482963562012
 30
0.0
 11
-13.700023651123047
 21
7.500147819519043
 31
0.0
  0
LINE
  8
0
 10
-13.700023651123047
 20
15.50014591217041
 30
0.0
 11
-13.700023651123047
 21
9.500147819519043
 31
0.0
  0
LINE
  8
0
 10
-13.700023651123047
 20
15.50014591217041
 30
0.0
 11
-49.30002212524414
 21
15.50014591217041
 31
0.0
  0
LINE
  8
0
 10
-13.700023651123047
 20
1.5001482963562012
 30
0.0
 11
-49.30002212524414
 21
1.5001468658447266
 31
0.0
  0
LINE
  8
0
 10
-19.700023651123047
 20
11.500146865844727
 30
0.0
 11
-19.700023651123047
 21
5.500148296356201
 31
0.0
  0
LINE
  8
0
 10
-17.700021743774414
 20
5.500148296356201
 30
0.0
 11
-17.700021743774414
 21
7.500147819519043
 31
0.0
  0
LINE
  8
0
 10
-19.700023651123047
 20
5.500148296356201
 30
0.0
 11
-17.700021743774414
 21
5.500148296356201
 31
0.0
  0
LINE
  8
0
 10
-19.700023651123047
 20
11.500146865844727
 30
0.0
 11
-17.700021743774414
 21
11.500146865844727
 31
0.0
  0
LINE
  8
0
 10
-17.700021743774414
 20
11.500146865844727
 30
0.0
 11
-17.700021743774414
 21
9.500146865844727
 31
0.0
  0
LINE
  8
0
 10
-13.700023651123047
 20
7.500147819519043
 30
0.0
 11
-17.700021743774414
 21
7.500147819519043
 31
0.0
  0
LINE
  8
0
 10
-13.700023651123047
 20
9.500147819519043
 30
0.0
 11
-17.700021743774414
 21
9.500146865844727
 31
0.0
  0
LINE
  8
0
 10
-49.30002212524414
 20
1.5001468658447266
 30
0.0
 11
-49.30002212524414
 21
15.50014591217041
 31
0.0
  0
LINE
  8
0
 10
-13.700023651123047
 20
16.000144958496094
 30
0.0
 11
-13.700023651123047
 21
22.000144958496094
 31
0.0
  0
LINE
  8
0
 10
-13.700023651123047
 20
30.000144958496094
 30
0.0
 11
-13.700023651123047
 21
24.000144958496094
 31
0.0
  0
LINE
  8
0
 10
-13.700023651123047
 20
30.000144958496094
 30
0.0
 11
-49.30002212524414
 21
30.000144958496094
 31
0.0
  0
LINE
  8
0
 10
-13.700023651123047
 20
16.000144958496094
 30
0.0
 11
-49.30002212524414
 21
16.000144958496094
 31
0.0
  0
LINE
  8
0
 10
-19.700023651123047
 20
26.000144958496094
 30
0.0
 11
-19.700023651123047
 21
20.000146865844727
 31
0.0
  0
LINE
  8
0
 10
-17.700021743774414
 20
20.000146865844727
 30
0.0
 11
-17.700021743774414
 21
22.000144958496094
 31
0.0
  0
LINE
  8
0
 10
-19.700023651123047
 20
20.000146865844727
 30
0.0
 11
-17.700021743774414
 21
20.000146865844727
 31
0.0
  0
LINE
  8
0
 10
-19.700023651123047
 20
26.000144958496094
 30
0.0
 11
-17.700021743774414
 21
26.000144958496094
 31
0.0
  0
LINE
  8
0
 10
-17.700021743774414
 20
26.000144958496094
 30
0.0
 11
-17.700021743774414
 21
24.000144958496094
 31
0.0
  0
LINE
  8
0
 10
-13.700023651123047
 20
22.000144958496094
 30
0.0
 11
-17.700021743774414
 21
22.000144958496094
 31
0.0
  0
LINE
  8
0
 10
-13.700023651123047
 20
24.000144958496094
 30
0.0
 11
-17.700021743774414
 21
24.000144958496094
 31
0.0
  0
LINE
  8
0
 10
-49.30002212524414
 20
16.000144958496094
 30
0.0
 11
-49.30002212524414
 21
30.000144958496094
 31
0.0
  0
LINE
  8
0
 10
-13.700023651123047
 20
30.50014305114746
 30
0.0
 11
-13.700023651123047
 21
36.500144958496094
 31
0.0
  0
LINE
  8
0
 10
-13.700023651123047
 20
44.50014114379883
 30
0.0
 11
-13.700023651123047
 21
38.50014114379883
 31
0.0
  0
LINE
  8
0
 10
-13.700023651123047
 20
44.50014114379883
 30
0.0
 11
-49.30002212524414
 21
44.50014114379883
 31
0.0
  0
LINE
  8
0
 10
-13.700023651123047
 20
30.50014305114746
 30
0.0
 11
-49.30002212524414
 21
30.50014305114746
 31
0.0
  0
LINE
  8
0
 10
-19.700023651123047
 20
40.500144958496094
 30
0.0
 11
-19.700023651123047
 21
34.50014114379883
 31
0.0
  0
LINE
  8
0
 10
-17.700021743774414
 20
34.50014114379883
 30
0.0
 11
-17.700021743774414
 21
36.500144958496094
 31
0.0
  0
LINE
  8
0
 10
-19.700023651123047
 20
34.50014114379883
 30
0.0
 11
-17.700021743774414
 21
34.50014114379883
 31
0.0
  0
LINE
  8
0
 10
-19.700023651123047
 20
40.500144958496094
 30
0.0
 11
-17.700021743774414
 21
40.500144958496094
 31
0.0
  0
LINE
  8
0
 10
-17.700021743774414
 20
40.500144958496094
 30
0.0
 11
-17.700021743774414
 21
38.50014114379883
 31
0.0
  0
LINE
  8
0
 10
-13.700023651123047
 20
36.500144958496094
 30
0.0
 11
-17.700021743774414
 21
36.500144958496094
 31
0.0
  0
LINE
  8
0
 10
-13.700023651123047
 20
38.50014114379883
 30
0.0
 11
-17.700021743774414
 21
38.50014114379883
 31
0.0
  0
LINE
  8
0
 10
-49.30002212524414
 20
30.50014305114746
 30
0.0
 11
-49.30002212524414
 21
44.50014114379883
 31
0.0
  0
LINE
  8
0
 10
-13.700023651123047
 20
45.00014114379883
 30
0.0
 11
-13.700023651123047
 21
51.00014114379883
 31
0.0
  0
LINE
  8
0
 10
-13.700023651123047
 20
59.00014114379883
 30
0.0
 11
-13.700023651123047
 21
53.00014114379883
 31
0.0
  0
LINE
  8
0
 10
-13.700023651123047
 20
59.00014114379883
 30
0.0
 11
-49.30002212524414
 21
59.00014114379883
 31
0.0
  0
LINE
  8
0
 10
-13.700023651123047
 20
45.00014114379883
 30
0.0
 11
-49.30002212524414
 21
45.00014114379883
 31
0.0
  0
LINE
  8
0
 10
-19.700023651123047
 20
55.00013732910156
 30
0.0
 11
-19.700023651123047
 21
49.00014114379883
 31
0.0
  0
LINE
  8
0
 10
-17.700021743774414
 20
49.00014114379883
 30
0.0
 11
-17.700021743774414
 21
51.00014114379883
 31
0.0
  0
LINE
  8
0
 10
-19.700023651123047
 20
49.00014114379883
 30
0.0
 11
-17.700021743774414
 21
49.00014114379883
 31
0.0
  0
LINE
  8
0
 10
-19.700023651123047
 20
55.00013732910156
 30
0.0
 11
-17.700021743774414
 21
55.00013732910156
 31
0.0
  0
LINE
  8
0
 10
-17.700021743774414
 20
55.00013732910156
 30
0.0
 11
-17.700021743774414
 21
53.00014114379883
 31
0.0
  0
LINE
  8
0
 10
-13.700023651123047
 20
51.00014114379883
 30
0.0
 11
-17.700021743774414
 21
51.00014114379883
 31
0.0
  0
LINE
  8
0
 10
-13.700023651123047
 20
53.00014114379883
 30
0.0
 11
-17.700021743774414
 21
53.00014114379883
 31
0.0
  0
LINE
  8
0
 10
-49.30002212524414
 20
45.00014114379883
 30
0.0
 11
-49.30002212524414
 21
59.00014114379883
 31
0.0
  0
LINE
  8
0
 10
22.39997673034668
 20
1.5001482963562012
 30
0.0
 11
22.39997673034668
 21
7.500147819519043
 31
0.0
  0
LINE
  8
0
 10
22.39997673034668
 20
1.5001482963562012
 30
0.0
 11
-13.200023651123047
 21
1.5001468658447266
 31
0.0
  0
LINE
  8
0
 10
16.39997673034668
 20
11.500146865844727
 30
0.0
 11
16.39997673034668
 21
5.500148296356201
 31
0.0
  0
LINE
  8
0
 10
18.399978637695312
 20
5.500148296356201
 30
0.0
 11
18.399978637695312
 21
7.500147819519043
 31
0.0
  0
LINE
  8
0
 10
16.39997673034668
 20
5.500148296356201
 30
0.0
 11
18.399978637695312
 21
5.500148296356201
 31
0.0
  0
LINE
  8
0
 10
16.39997673034668
 20
11.500146865844727
 30
0.0
 11
18.399978637695312
 21
11.500146865844727
 31
0.0
  0
LINE
  8
0
 10
18.399978637695312
 20
11.500146865844727
 30
0.0
 11
18.399978637695312
 21
9.500146865844727
 31
0.0
  0
LINE
  8
0
 10
22.39997673034668
 20
7.500147819519043
 30
0.0
 11
18.399978637695312
 21
7.500147819519043
 31
0.0
  0
LINE
  8
0
 10
22.39997673034668
 20
9.500147819519043
 30
0.0
 11
18.399978637695312
 21
9.500146865844727
 31
0.0
  0
LINE
  8
0
 10
-13.200023651123047
 20
1.5001468658447266
 30
0.0
 11
-13.200023651123047
 21
15.50014591217041
 31
0.0
  0
LINE
  8
0
 10
22.39997673034668
 20
15.50014591217041
 30
0.0
 11
-13.200023651123047
 21
15.50014591217041
 31
0.0
  0
LINE
  8
0
 10
22.39997673034668
 20
15.50014591217041
 30
0.0
 11
22.39997673034668
 21
9.500147819519043
 31
0.0
  0
LINE
  8
0
 10
22.39997673034668
 20
16.000144958496094
 30
0.0
 11
22.39997673034668
 21
22.000144958496094
 31
0.0
  0
LINE
  8
0
 10
22.39997673034668
 20
16.000144958496094
 30
0.0
 11
-13.200023651123047
 21
16.000144958496094
 31
0.0
  0
LINE
  8
0
 10
16.39997673034668
 20
26.000144958496094
 30
0.0
 11
16.39997673034668
 21
20.000146865844727
 31
0.0
  0
LINE
  8
0
 10
18.399978637695312
 20
20.000146865844727
 30
0.0
 11
18.399978637695312
 21
22.000144958496094
 31
0.0
  0
LINE
  8
0
 10
16.39997673034668
 20
20.000146865844727
 30
0.0
 11
18.399978637695312
 21
20.000146865844727
 31
0.0
  0
LINE
  8
0
 10
16.39997673034668
 20
26.000144958496094
 30
0.0
 11
18.399978637695312
 21
26.000144958496094
 31
0.0
  0
LINE
  8
0
 10
18.399978637695312
 20
26.000144958496094
 30
0.0
 11
18.399978637695312
 21
24.000144958496094
 31
0.0
  0
LINE
  8
0
 10
22.39997673034668
 20
22.000144958496094
 30
0.0
 11
18.399978637695312
 21
22.000144958496094
 31
0.0
  0
LINE
  8
0
 10
22.39997673034668
 20
24.000144958496094
 30
0.0
 11
18.399978637695312
 21
24.000144958496094
 31
0.0
  0
LINE
  8
0
 10
-13.200023651123047
 20
16.000144958496094
 30
0.0
 11
-13.200023651123047
 21
30.000144958496094
 31
0.0
  0
LINE
  8
0
 10
22.39997673034668
 20
30.000144958496094
 30
0.0
 11
-13.200023651123047
 21
30.000144958496094
 31
0.0
  0
LINE
  8
0
 10
22.39997673034668
 20
30.000144958496094
 30
0.0
 11
22.39997673034668
 21
24.000144958496094
 31
0.0
  0
LINE
  8
0
 10
22.39997673034668
 20
30.50014305114746
 30
0.0
 11
22.39997673034668
 21
36.500144958496094
 31
0.0
  0
LINE
  8
0
 10
22.39997673034668
 20
30.50014305114746
 30
0.0
 11
-13.200023651123047
 21
30.50014305114746
 31
0.0
  0
LINE
  8
0
 10
16.39997673034668
 20
40.500144958496094
 30
0.0
 11
16.39997673034668
 21
34.50014114379883
 31
0.0
  0
LINE
  8
0
 10
18.399978637695312
 20
34.50014114379883
 30
0.0
 11
18.399978637695312
 21
36.500144958496094
 31
0.0
  0
LINE
  8
0
 10
16.39997673034668
 20
34.50014114379883
 30
0.0
 11
18.399978637695312
 21
34.50014114379883
 31
0.0
  0
LINE
  8
0
 10
16.39997673034668
 20
40.500144958496094
 30
0.0
 11
18.399978637695312
 21
40.500144958496094
 31
0.0
  0
LINE
  8
0
 10
18.399978637695312
 20
40.500144958496094
 30
0.0
 11
18.399978637695312
 21
38.50014114379883
 31
0.0
  0
LINE
  8
0
 10
22.39997673034668
 20
36.500144958496094
 30
0.0
 11
18.399978637695312
 21
36.500144958496094
 31
0.0
  0
LINE
  8
0
 10
22.39997673034668
 20
38.50014114379883
 30
0.0
 11
18.399978637695312
 21
38.50014114379883
 31
0.0
  0
LINE
  8
0
 10
-13.200023651123047
 20
30.50014305114746
 30
0.0
 11
-13.200023651123047
 21
44.50014114379883
 31
0.0
  0
LINE
  8
0
 10
22.39997673034668
 20
44.50014114379883
 30
0.0
 11
-13.200023651123047
 21
44.50014114379883
 31
0.0
  0
LINE
  8
0
 10
22.39997673034668
 20
44.50014114379883
 30
0.0
 11
22.39997673034668
 21
38.50014114379883
 31
0.0
  0
LINE
  8
0
 10
22.39997673034668
 20
59.00014114379883
 30
0.0
 11
22.39997673034668
 21
53.00014114379883
 31
0.0
  0
LINE
  8
0
 10
22.39997673034668
 20
59.00014114379883
 30
0.0
 11
-13.200023651123047
 21
59.00014114379883
 31
0.0
  0
LINE
  8
0
 10
16.39997673034668
 20
55.00013732910156
 30
0.0
 11
16.39997673034668
 21
49.00014114379883
 31
0.0
  0
LINE
  8
0
 10
18.399978637695312
 20
49.00014114379883
 30
0.0
 11
18.399978637695312
 21
51.00014114379883
 31
0.0
  0
LINE
  8
0
 10
16.39997673034668
 20
49.00014114379883
 30
0.0
 11
18.399978637695312
 21
49.00014114379883
 31
0.0
  0
LINE
  8
0
 10
16.39997673034668
 20
55.00013732910156
 30
0.0
 11
18.399978637695312
 21
55.00013732910156
 31
0.0
  0
LINE
  8
0
 10
18.399978637695312
 20
55.00013732910156
 30
0.0
 11
18.399978637695312
 21
53.00014114379883
 31
0.0
  0
LINE
  8
0
 10
22.39997673034668
 20
51.00014114379883
 30
0.0
 11
18.399978637695312
 21
51.00014114379883
 31
0.0
  0
LINE
  8
0
 10
22.39997673034668
 20
53.00014114379883
 30
0.0
 11
18.399978637695312
 21
53.00014114379883
 31
0.0
  0
LINE
  8
0
 10
-13.200023651123047
 20
45.00014114379883
 30
0.0
 11
-13.200023651123047
 21
59.00014114379883
 31
0.0
  0
LINE
  8
0
 10
22.39997673034668
 20
45.00014114379883
 30
0.0
 11
-13.200023651123047
 21
45.00014114379883
 31
0.0
  0
LINE
  8
0
 10
22.39997673034668
 20
45.00014114379883
 30
0.0
 11
22.39997673034668
 21
51.00014114379883
 31
0.0
  0
LINE
  8
0
 10
22.39997673034668
 20
-58.99995040893555
 30
0.0
 11
22.39997673034668
 21
-52.99995040893555
 31
0.0
  0
LINE
  8
0
 10
22.39997673034668
 20
-58.99995040893555
 30
0.0
 11
-13.200023651123047
 21
-58.99995040893555
 31
0.0
  0
LINE
  8
0
 10
16.39997673034668
 20
-48.99995040893555
 30
0.0
 11
16.39997673034668
 21
-54.99994659423828
 31
0.0
  0
LINE
  8
0
 10
18.399978637695312
 20
-54.99994659423828
 30
0.0
 11
18.399978637695312
 21
-52.99995040893555
 31
0.0
  0
LINE
  8
0
 10
16.39997673034668
 20
-54.99994659423828
 30
0.0
 11
18.399978637695312
 21
-54.99994659423828
 31
0.0
  0
LINE
  8
0
 10
16.39997673034668
 20
-48.99995040893555
 30
0.0
 11
18.399978637695312
 21
-48.99995040893555
 31
0.0
  0
LINE
  8
0
 10
22.39997673034668
 20
-44.99995040893555
 30
0.0
 11
22.39997673034668
 21
-50.99995040893555
 31
0.0
  0
LINE
  8
0
 10
18.399978637695312
 20
-48.99995040893555
 30
0.0
 11
18.399978637695312
 21
-50.99995040893555
 31
0.0
  0
LINE
  8
0
 10
22.39997673034668
 20
-52.99995040893555
 30
0.0
 11
18.399978637695312
 21
-52.99995040893555
 31
0.0
  0
LINE
  8
0
 10
22.39997673034668
 20
-50.99995040893555
 30
0.0
 11
18.399978637695312
 21
-50.99995040893555
 31
0.0
  0
LINE
  8
0
 10
-13.200023651123047
 20
-58.99995040893555
 30
0.0
 11
-13.200023651123047
 21
-44.99995040893555
 31
0.0
  0
LINE
  8
0
 10
22.39997673034668
 20
-44.99995040893555
 30
0.0
 11
-13.200023651123047
 21
-44.99995040893555
 31
0.0
  0
LINE
  8
0
 10
22.39997673034668
 20
-44.49995040893555
 30
0.0
 11
22.39997673034668
 21
-38.49995040893555
 31
0.0
  0
LINE
  8
0
 10
16.39997673034668
 20
-34.49995040893555
 30
0.0
 11
16.39997673034668
 21
-40.49995422363281
 31
0.0
  0
LINE
  8
0
 10
18.399978637695312
 20
-40.49995422363281
 30
0.0
 11
18.399978637695312
 21
-38.49995040893555
 31
0.0
  0
LINE
  8
0
 10
16.39997673034668
 20
-40.49995422363281
 30
0.0
 11
18.399978637695312
 21
-40.49995422363281
 31
0.0
  0
LINE
  8
0
 10
16.39997673034668
 20
-34.49995040893555
 30
0.0
 11
18.399978637695312
 21
-34.49995040893555
 31
0.0
  0
LINE
  8
0
 10
18.399978637695312
 20
-34.49995040893555
 30
0.0
 11
18.399978637695312
 21
-36.49995422363281
 31
0.0
  0
LINE
  8
0
 10
22.39997673034668
 20
-36.49995422363281
 30
0.0
 11
18.399978637695312
 21
-36.49995422363281
 31
0.0
  0
LINE
  8
0
 10
22.39997673034668
 20
-30.49995231628418
 30
0.0
 11
-13.200023651123047
 21
-30.49995231628418
 31
0.0
  0
LINE
  8
0
 10
22.39997673034668
 20
-30.49995231628418
 30
0.0
 11
22.39997673034668
 21
-36.49995422363281
 31
0.0
  0
LINE
  8
0
 10
22.39997673034668
 20
-44.49995040893555
 30
0.0
 11
-13.200023651123047
 21
-44.49995040893555
 31
0.0
  0
LINE
  8
0
 10
-13.200023651123047
 20
-44.49995040893555
 30
0.0
 11
-13.200023651123047
 21
-30.49995231628418
 31
0.0
  0
LINE
  8
0
 10
22.39997673034668
 20
-38.49995040893555
 30
0.0
 11
18.399978637695312
 21
-38.49995040893555
 31
0.0
  0
LINE
  8
0
 10
22.39997673034668
 20
-29.999954223632812
 30
0.0
 11
22.39997673034668
 21
-23.999954223632812
 31
0.0
  0
LINE
  8
0
 10
22.39997673034668
 20
-29.999954223632812
 30
0.0
 11
-13.200023651123047
 21
-29.999954223632812
 31
0.0
  0
LINE
  8
0
 10
16.39997673034668
 20
-19.999954223632812
 30
0.0
 11
16.39997673034668
 21
-25.999954223632812
 31
0.0
  0
LINE
  8
0
 10
18.399978637695312
 20
-25.999954223632812
 30
0.0
 11
18.399978637695312
 21
-23.999954223632812
 31
0.0
  0
LINE
  8
0
 10
16.39997673034668
 20
-25.999954223632812
 30
0.0
 11
18.399978637695312
 21
-25.999954223632812
 31
0.0
  0
LINE
  8
0
 10
16.39997673034668
 20
-19.999954223632812
 30
0.0
 11
18.399978637695312
 21
-19.999954223632812
 31
0.0
  0
LINE
  8
0
 10
18.399978637695312
 20
-19.999954223632812
 30
0.0
 11
18.399978637695312
 21
-21.999954223632812
 31
0.0
  0
LINE
  8
0
 10
22.39997673034668
 20
-23.999954223632812
 30
0.0
 11
18.399978637695312
 21
-23.999954223632812
 31
0.0
  0
LINE
  8
0
 10
22.39997673034668
 20
-21.999954223632812
 30
0.0
 11
18.399978637695312
 21
-21.999954223632812
 31
0.0
  0
LINE
  8
0
 10
-13.200023651123047
 20
-29.999954223632812
 30
0.0
 11
-13.200023651123047
 21
-15.999955177307129
 31
0.0
  0
LINE
  8
0
 10
22.39997673034668
 20
-15.999955177307129
 30
0.0
 11
-13.200023651123047
 21
-15.999955177307129
 31
0.0
  0
LINE
  8
0
 10
22.39997673034668
 20
-15.999955177307129
 30
0.0
 11
22.39997673034668
 21
-21.999954223632812
 31
0.0
  0
LINE
  8
0
 10
22.39997673034668
 20
-15.499955177307129
 30
0.0
 11
22.39997673034668
 21
-9.499955177307129
 31
0.0
  0
LINE
  8
0
 10
22.39997673034668
 20
-1.4999561309814453
 30
0.0
 11
22.39997673034668
 21
-7.499955654144287
 31
0.0
  0
LINE
  8
0
 10
22.39997673034668
 20
-15.499955177307129
 30
0.0
 11
-13.200023651123047
 21
-15.499955177307129
 31
0.0
  0
LINE
  8
0
 10
16.39997673034668
 20
-5.499956130981445
 30
0.0
 11
16.39997673034668
 21
-11.499955177307129
 31
0.0
  0
LINE
  8
0
 10
18.399978637695312
 20
-11.499955177307129
 30
0.0
 11
18.399978637695312
 21
-9.499955177307129
 31
0.0
  0
LINE
  8
0
 10
16.39997673034668
 20
-11.499955177307129
 30
0.0
 11
18.399978637695312
 21
-11.499955177307129
 31
0.0
  0
LINE
  8
0
 10
16.39997673034668
 20
-5.499956130981445
 30
0.0
 11
18.399978637695312
 21
-5.499956130981445
 31
0.0
  0
LINE
  8
0
 10
18.399978637695312
 20
-5.499956130981445
 30
0.0
 11
18.399978637695312
 21
-7.499956130981445
 31
0.0
  0
LINE
  8
0
 10
22.39997673034668
 20
-9.499955177307129
 30
0.0
 11
18.399978637695312
 21
-9.499955177307129
 31
0.0
  0
LINE
  8
0
 10
22.39997673034668
 20
-7.499955654144287
 30
0.0
 11
18.399978637695312
 21
-7.499956130981445
 31
0.0
  0
LINE
  8
0
 10
-13.200023651123047
 20
-15.499955177307129
 30
0.0
 11
-13.200023651123047
 21
-1.49995756149292
 31
0.0
  0
LINE
  8
0
 10
22.39997673034668
 20
-1.4999561309814453
 30
0.0
 11
-13.200023651123047
 21
-1.49995756149292
 31
0.0
  0
LINE
  8
0
 10
58.49998092651367
 20
16.000144958496094
 30
0.0
 11
58.49998092651367
 21
22.000144958496094
 31
0.0
  0
LINE
  8
0
 10
58.49998092651367
 20
16.000144958496094
 30
0.0
 11
22.89997673034668
 21
16.000144958496094
 31
0.0
  0
LINE
  8
0
 10
22.89997673034668
 20
16.000144958496094
 30
0.0
 11
22.89997673034668
 21
30.000144958496094
 31
0.0
  0
LINE
  8
0
 10
52.49997329711914
 20
26.000144958496094
 30
0.0
 11
52.49997329711914
 21
20.000146865844727
 31
0.0
  0
LINE
  8
0
 10
54.499977111816406
 20
20.000146865844727
 30
0.0
 11
54.499977111816406
 21
22.000144958496094
 31
0.0
  0
LINE
  8
0
 10
52.49997329711914
 20
20.000146865844727
 30
0.0
 11
54.499977111816406
 21
20.000146865844727
 31
0.0
  0
LINE
  8
0
 10
52.49997329711914
 20
26.000144958496094
 30
0.0
 11
54.499977111816406
 21
26.000144958496094
 31
0.0
  0
LINE
  8
0
 10
54.499977111816406
 20
26.000144958496094
 30
0.0
 11
54.499977111816406
 21
24.000144958496094
 31
0.0
  0
LINE
  8
0
 10
58.49998092651367
 20
22.000144958496094
 30
0.0
 11
54.499977111816406
 21
22.000144958496094
 31
0.0
  0
LINE
  8
0
 10
58.49998092651367
 20
24.000144958496094
 30
0.0
 11
54.499977111816406
 21
24.000144958496094
 31
0.0
  0
LINE
  8
0
 10
58.49998092651367
 20
30.000144958496094
 30
0.0
 11
22.89997673034668
 21
30.000144958496094
 31
0.0
  0
LINE
  8
0
 10
58.49998092651367
 20
30.000144958496094
 30
0.0
 11
58.49998092651367
 21
24.000144958496094
 31
0.0
  0
LINE
  8
0
 10
58.49998092651367
 20
30.50014305114746
 30
0.0
 11
58.49998092651367
 21
36.500144958496094
 31
0.0
  0
LINE
  8
0
 10
58.49998092651367
 20
44.50014114379883
 30
0.0
 11
58.49998092651367
 21
38.50014114379883
 31
0.0
  0
LINE
  8
0
 10
58.49998092651367
 20
30.50014305114746
 30
0.0
 11
22.89997673034668
 21
30.50014305114746
 31
0.0
  0
LINE
  8
0
 10
52.49997329711914
 20
40.500144958496094
 30
0.0
 11
52.49997329711914
 21
34.50014114379883
 31
0.0
  0
LINE
  8
0
 10
54.499977111816406
 20
34.50014114379883
 30
0.0
 11
54.499977111816406
 21
36.500144958496094
 31
0.0
  0
LINE
  8
0
 10
52.49997329711914
 20
34.50014114379883
 30
0.0
 11
54.499977111816406
 21
34.50014114379883
 31
0.0
  0
LINE
  8
0
 10
52.49997329711914
 20
40.500144958496094
 30
0.0
 11
54.499977111816406
 21
40.500144958496094
 31
0.0
  0
LINE
  8
0
 10
54.499977111816406
 20
40.500144958496094
 30
0.0
 11
54.499977111816406
 21
38.50014114379883
 31
0.0
  0
LINE
  8
0
 10
58.49998092651367
 20
36.500144958496094
 30
0.0
 11
54.499977111816406
 21
36.500144958496094
 31
0.0
  0
LINE
  8
0
 10
58.49998092651367
 20
38.50014114379883
 30
0.0
 11
54.499977111816406
 21
38.50014114379883
 31
0.0
  0
LINE
  8
0
 10
22.89997673034668
 20
30.50014305114746
 30
0.0
 11
22.89997673034668
 21
44.50014114379883
 31
0.0
  0
LINE
  8
0
 10
58.49998092651367
 20
44.50014114379883
 30
0.0
 11
22.89997673034668
 21
44.50014114379883
 31
0.0
  0
LINE
  8
0
 10
58.49998092651367
 20
45.00014114379883
 30
0.0
 11
58.49998092651367
 21
51.00014114379883
 31
0.0
  0
LINE
  8
0
 10
58.49998092651367
 20
45.00014114379883
 30
0.0
 11
22.89997673034668
 21
45.00014114379883
 31
0.0
  0
LINE
  8
0
 10
52.49997329711914
 20
55.00013732910156
 30
0.0
 11
52.49997329711914
 21
49.00014114379883
 31
0.0
  0
LINE
  8
0
 10
54.499977111816406
 20
49.00014114379883
 30
0.0
 11
54.499977111816406
 21
51.00014114379883
 31
0.0
  0
LINE
  8
0
 10
52.49997329711914
 20
49.00014114379883
 30
0.0
 11
54.499977111816406
 21
49.00014114379883
 31
0.0
  0
LINE
  8
0
 10
52.49997329711914
 20
55.00013732910156
 30
0.0
 11
54.499977111816406
 21
55.00013732910156
 31
0.0
  0
LINE
  8
0
 10
22.89997673034668
 20
45.00014114379883
 30
0.0
 11
22.89997673034668
 21
59.00014114379883
 31
0.0
  0
LINE
  8
0
 10
54.499977111816406
 20
55.00013732910156
 30
0.0
 11
54.499977111816406
 21
53.00014114379883
 31
0.0
  0
LINE
  8
0
 10
58.49998092651367
 20
51.00014114379883
 30
0.0
 11
54.499977111816406
 21
51.00014114379883
 31
0.0
  0
LINE
  8
0
 10
58.49998092651367
 20
53.00014114379883
 30
0.0
 11
54.499977111816406
 21
53.00014114379883
 31
0.0
  0
LINE
  8
0
 10
58.49998092651367
 20
59.00014114379883
 30
0.0
 11
22.89997673034668
 21
59.00014114379883
 31
0.0
  0
LINE
  8
0
 10
58.49998092651367
 20
59.00014114379883
 30
0.0
 11
58.49998092651367
 21
53.00014114379883
 31
0.0
  0
LINE
  8
0
 10
58.49998092651367
 20
-44.99995040893555
 30
0.0
 11
58.49998092651367
 21
-50.99995040893555
 31
0.0
  0
LINE
  8
0
 10
52.49998474121094
 20
-48.99995040893555
 30
0.0
 11
52.49998474121094
 21
-54.99994659423828
 31
0.0
  0
LINE
  8
0
 10
54.49998474121094
 20
-54.99994659423828
 30
0.0
 11
54.49998474121094
 21
-52.99995040893555
 31
0.0
  0
LINE
  8
0
 10
52.49998474121094
 20
-54.99994659423828
 30
0.0
 11
54.49998474121094
 21
-54.99994659423828
 31
0.0
  0
LINE
  8
0
 10
52.49998474121094
 20
-48.99995040893555
 30
0.0
 11
54.49998474121094
 21
-48.99995040893555
 31
0.0
  0
LINE
  8
0
 10
58.49998092651367
 20
-44.99995040893555
 30
0.0
 11
22.899982452392578
 21
-44.99995040893555
 31
0.0
  0
LINE
  8
0
 10
54.49998474121094
 20
-48.99995040893555
 30
0.0
 11
54.49998474121094
 21
-50.99995040893555
 31
0.0
  0
LINE
  8
0
 10
58.49998092651367
 20
-52.99995040893555
 30
0.0
 11
54.49998474121094
 21
-52.99995040893555
 31
0.0
  0
LINE
  8
0
 10
58.49998092651367
 20
-50.99995040893555
 30
0.0
 11
54.49998474121094
 21
-50.99995040893555
 31
0.0
  0
LINE
  8
0
 10
58.49998092651367
 20
-58.99995040893555
 30
0.0
 11
22.899982452392578
 21
-58.99995040893555
 31
0.0
  0
LINE
  8
0
 10
58.49998092651367
 20
-58.99995040893555
 30
0.0
 11
58.49998092651367
 21
-52.99995040893555
 31
0.0
  0
LINE
  8
0
 10
22.899982452392578
 20
-58.99995040893555
 30
0.0
 11
22.899982452392578
 21
-44.99995040893555
 31
0.0
  0
LINE
  8
0
 10
58.49998092651367
 20
-30.49995231628418
 30
0.0
 11
58.49998092651367
 21
-36.49995422363281
 31
0.0
  0
LINE
  8
0
 10
58.49998092651367
 20
-30.49995231628418
 30
0.0
 11
22.899982452392578
 21
-30.49995231628418
 31
0.0
  0
LINE
  8
0
 10
52.49998474121094
 20
-34.49995040893555
 30
0.0
 11
52.49998474121094
 21
-40.49995422363281
 31
0.0
  0
LINE
  8
0
 10
54.49998474121094
 20
-40.49995422363281
 30
0.0
 11
54.49998474121094
 21
-38.49995040893555
 31
0.0
  0
LINE
  8
0
 10
52.49998474121094
 20
-40.49995422363281
 30
0.0
 11
54.49998474121094
 21
-40.49995422363281
 31
0.0
  0
LINE
  8
0
 10
52.49998474121094
 20
-34.49995040893555
 30
0.0
 11
54.49998474121094
 21
-34.49995040893555
 31
0.0
  0
LINE
  8
0
 10
54.49998474121094
 20
-34.49995040893555
 30
0.0
 11
54.49998474121094
 21
-36.49995422363281
 31
0.0
  0
LINE
  8
0
 10
58.49998092651367
 20
-38.49995040893555
 30
0.0
 11
54.49998474121094
 21
-38.49995040893555
 31
0.0
  0
LINE
  8
0
 10
58.49998092651367
 20
-36.49995422363281
 30
0.0
 11
54.49998474121094
 21
-36.49995422363281
 31
0.0
  0
LINE
  8
0
 10
58.49998092651367
 20
-44.49995040893555
 30
0.0
 11
22.899982452392578
 21
-44.49995040893555
 31
0.0
  0
LINE
  8
0
 10
58.49998092651367
 20
-44.49995040893555
 30
0.0
 11
58.49998092651367
 21
-38.49995040893555
 31
0.0
  0
LINE
  8
0
 10
22.899982452392578
 20
-44.49995040893555
 30
0.0
 11
22.899982452392578
 21
-30.49995231628418
 31
0.0
  0
LINE
  8
0
 10
58.49998092651367
 20
-15.999955177307129
 30
0.0
 11
58.49998092651367
 21
-21.999954223632812
 31
0.0
  0
LINE
  8
0
 10
58.49998092651367
 20
-29.999954223632812
 30
0.0
 11
58.49998092651367
 21
-23.999954223632812
 31
0.0
  0
LINE
  8
0
 10
58.49998092651367
 20
-23.999954223632812
 30
0.0
 11
54.49998474121094
 21
-23.999954223632812
 31
0.0
  0
LINE
  8
0
 10
52.49998474121094
 20
-19.999954223632812
 30
0.0
 11
52.49998474121094
 21
-25.999954223632812
 31
0.0
  0
LINE
  8
0
 10
54.49998474121094
 20
-25.999954223632812
 30
0.0
 11
54.49998474121094
 21
-23.999954223632812
 31
0.0
  0
LINE
  8
0
 10
52.49998474121094
 20
-25.999954223632812
 30
0.0
 11
54.49998474121094
 21
-25.999954223632812
 31
0.0
  0
LINE
  8
0
 10
52.49998474121094
 20
-19.999954223632812
 30
0.0
 11
54.49998474121094
 21
-19.999954223632812
 31
0.0
  0
LINE
  8
0
 10
54.49998474121094
 20
-19.999954223632812
 30
0.0
 11
54.49998474121094
 21
-21.999954223632812
 31
0.0
  0
LINE
  8
0
 10
58.49998092651367
 20
-29.999954223632812
 30
0.0
 11
22.899982452392578
 21
-29.999954223632812
 31
0.0
  0
LINE
  8
0
 10
58.49998092651367
 20
-21.999954223632812
 30
0.0
 11
54.49998474121094
 21
-21.999954223632812
 31
0.0
  0
LINE
  8
0
 10
22.899982452392578
 20
-29.999954223632812
 30
0.0
 11
22.899982452392578
 21
-15.999955177307129
 31
0.0
  0
LINE
  8
0
 10
58.49998092651367
 20
-15.999955177307129
 30
0.0
 11
22.899982452392578
 21
-15.999955177307129
 31
0.0
  0
LINE
  8
0
 10
99.50001525878906
 20
-16.000022888183594
 30
-9.313225746154785e-07
 11
100.60403442382812
 21
-16.02712631225586
 31
-9.313225746154785e-07
  0
LINE
  8
0
 10
100.60403442382812
 20
-16.02712631225586
 30
-9.313225746154785e-07
 11
101.70539855957031
 21
-16.108366012573242
 31
-9.313225746154785e-07
  0
LINE
  8
0
 10
101.70539855957031
 20
-16.108366012573242
 30
-9.313225746154785e-07
 11
102.80144500732422
 21
-16.24355125427246
 31
-9.313225746154785e-07
  0
LINE
  8
0
 10
102.80144500732422
 20
-16.24355125427246
 30
-9.313225746154785e-07
 11
103.8895492553711
 21
-16.432355880737305
 31
-9.313225746154785e-07
  0
LINE
  8
0
 10
103.8895492553711
 20
-16.432355880737305
 30
-9.313225746154785e-07
 11
104.96707153320312
 21
-16.674320220947266
 31
-9.313225746154785e-07
  0
LINE
  8
0
 10
104.96707153320312
 20
-16.674320220947266
 30
-9.313225746154785e-07
 11
106.03141784667969
 21
-16.9688663482666
 31
-9.313225746154785e-07
  0
LINE
  8
0
 10
106.03141784667969
 20
-16.9688663482666
 30
-9.313225746154785e-07
 11
107.08003234863281
 21
-17.315282821655273
 31
-9.313225746154785e-07
  0
LINE
  8
0
 10
107.08003234863281
 20
-17.315282821655273
 30
-9.313225746154785e-07
 11
108.11038970947266
 21
-17.71273422241211
 31
-9.313225746154785e-07
  0
LINE
  8
0
 10
108.11038970947266
 20
-17.71273422241211
 30
-9.313225746154785e-07
 11
109.12000274658203
 21
-18.16026496887207
 31
-9.313225746154785e-07
  0
LINE
  8
0
 10
109.12000274658203
 20
-18.16026496887207
 30
-9.313225746154785e-07
 11
110.1064453125
 21
-18.656795501708984
 31
-9.313225746154785e-07
  0
LINE
  8
0
 10
110.1064453125
 20
-18.656795501708984
 30
-9.313225746154785e-07
 11
111.06732177734375
 21
-19.201129913330078
 31
-9.313225746154785e-07
  0
LINE
  8
0
 10
111.06732177734375
 20
-19.201129913330078
 30
-9.313225746154785e-07
 11
112.0003433227539
 21
-19.79195785522461
 31
-9.313225746154785e-07
  0
LINE
  8
0
 10
112.0003433227539
 20
-19.79195785522461
 30
-9.313225746154785e-07
 11
112.90325164794922
 21
-20.427854537963867
 31
-9.313225746154785e-07
  0
LINE
  8
0
 10
112.90325164794922
 20
-20.427854537963867
 30
-9.313225746154785e-07
 11
113.77385711669922
 21
-21.107288360595703
 31
-9.313225746154785e-07
  0
LINE
  8
0
 10
113.77385711669922
 20
-21.107288360595703
 30
-9.313225746154785e-07
 11
114.6100845336914
 21
-21.828622817993164
 31
-9.313225746154785e-07
  0
LINE
  8
0
 10
114.6100845336914
 20
-21.828622817993164
 30
-9.313225746154785e-07
 11
115.409912109375
 21
-22.59012222290039
 31
-9.313225746154785e-07
  0
LINE
  8
0
 10
115.409912109375
 20
-22.59012222290039
 30
-9.313225746154785e-07
 11
116.1714096069336
 21
-23.38994598388672
 31
-9.313225746154785e-07
  0
LINE
  8
0
 10
116.1714096069336
 20
-23.38994598388672
 30
-9.313225746154785e-07
 11
116.89274597167969
 21
-24.226173400878906
 31
-9.313225746154785e-07
  0
LINE
  8
0
 10
116.89274597167969
 20
-24.226173400878906
 30
-9.313225746154785e-07
 11
117.57217407226562
 21
-25.09678840637207
 31
-9.313225746154785e-07
  0
LINE
  8
0
 10
117.57217407226562
 20
-25.09678840637207
 30
-9.313225746154785e-07
 11
118.20807647705078
 21
-25.999692916870117
 31
-9.313225746154785e-07
  0
LINE
  8
0
 10
118.20807647705078
 20
-25.999692916870117
 30
-9.313225746154785e-07
 11
118.79889678955078
 21
-26.932710647583008
 31
-9.313225746154785e-07
  0
LINE
  8
0
 10
118.79889678955078
 20
-26.932710647583008
 30
-9.313225746154785e-07
 11
119.34323120117188
 21
-27.893596649169922
 31
-9.313225746154785e-07
  0
LINE
  8
0
 10
119.34323120117188
 20
-27.893596649169922
 30
-9.313225746154785e-07
 11
119.83977508544922
 21
-28.880033493041992
 31
-9.313225746154785e-07
  0
LINE
  8
0
 10
119.83977508544922
 20
-28.880033493041992
 30
-9.313225746154785e-07
 11
120.28730010986328
 21
-29.889646530151367
 31
-9.313225746154785e-07
  0
LINE
  8
0
 10
120.28730010986328
 20
-29.889646530151367
 30
-9.313225746154785e-07
 11
120.68475341796875
 21
-30.920001983642578
 31
-9.313225746154785e-07
  0
LINE
  8
0
 10
120.68475341796875
 20
-30.920001983642578
 30
-9.313225746154785e-07
 11
121.03116607666016
 21
-31.968616485595703
 31
-9.313225746154785e-07
  0
LINE
  8
0
 10
121.03116607666016
 20
-31.968616485595703
 30
-9.313225746154785e-07
 11
121.32572174072266
 21
-33.0329704284668
 31
-9.313225746154785e-07
  0
LINE
  8
0
 10
121.32572174072266
 20
-33.0329704284668
 30
-9.313225746154785e-07
 11
121.56768035888672
 21
-34.11048889160156
 31
-9.313225746154785e-07
  0
LINE
  8
0
 10
121.56768035888672
 20
-34.11048889160156
 30
-9.313225746154785e-07
 11
121.75648498535156
 21
-35.198585510253906
 31
-9.313225746154785e-07
  0
LINE
  8
0
 10
121.75648498535156
 20
-35.198585510253906
 30
-9.313225746154785e-07
 11
121.89166259765625
 21
-36.29463577270508
 31
-9.313225746154785e-07
  0
LINE
  8
0
 10
121.89166259765625
 20
-36.29463577270508
 30
-9.313225746154785e-07
 11
121.97290802001953
 21
-37.395999908447266
 31
-9.313225746154785e-07
  0
LINE
  8
0
 10
121.97290802001953
 20
-37.395999908447266
 30
-9.313225746154785e-07
 11
122.00001525878906
 21
-38.500022888183594
 31
-9.313225746154785e-07
  0
LINE
  8
0
 10
122.00001525878906
 20
-38.500022888183594
 30
-9.313225746154785e-07
 11
121.97290802001953
 21
-39.60404586791992
 31
-9.313225746154785e-07
  0
LINE
  8
0
 10
121.97290802001953
 20
-39.60404586791992
 30
-9.313225746154785e-07
 11
121.89166259765625
 21
-40.70541000366211
 31
-9.313225746154785e-07
  0
LINE
  8
0
 10
121.89166259765625
 20
-40.70541000366211
 30
-9.313225746154785e-07
 11
121.75648498535156
 21
-41.80146026611328
 31
-9.313225746154785e-07
  0
LINE
  8
0
 10
121.75648498535156
 20
-41.80146026611328
 30
-9.313225746154785e-07
 11
121.56768035888672
 21
-42.889556884765625
 31
-9.313225746154785e-07
  0
LINE
  8
0
 10
121.56768035888672
 20
-42.889556884765625
 30
-9.313225746154785e-07
 11
121.32572174072266
 21
-43.96707534790039
 31
-9.313225746154785e-07
  0
LINE
  8
0
 10
121.32572174072266
 20
-43.96707534790039
 30
-9.313225746154785e-07
 11
121.03116607666016
 21
-45.031429290771484
 31
-9.313225746154785e-07
  0
LINE
  8
0
 10
121.03116607666016
 20
-45.031429290771484
 30
-9.313225746154785e-07
 11
120.68475341796875
 21
-46.08004379272461
 31
-9.313225746154785e-07
  0
LINE
  8
0
 10
120.68475341796875
 20
-46.08004379272461
 30
-9.313225746154785e-07
 11
120.28730010986328
 21
-47.11040115356445
 31
-9.313225746154785e-07
  0
LINE
  8
0
 10
120.28730010986328
 20
-47.11040115356445
 30
-9.313225746154785e-07
 11
119.83977508544922
 21
-48.12001419067383
 31
-9.313225746154785e-07
  0
LINE
  8
0
 10
119.83977508544922
 20
-48.12001419067383
 30
-9.313225746154785e-07
 11
119.34323120117188
 21
-49.106449127197266
 31
-9.313225746154785e-07
  0
LINE
  8
0
 10
119.34323120117188
 20
-49.106449127197266
 30
-9.313225746154785e-07
 11
118.79889678955078
 21
-50.06733703613281
 31
-9.313225746154785e-07
  0
LINE
  8
0
 10
118.79889678955078
 20
-50.06733703613281
 30
-9.313225746154785e-07
 11
118.20807647705078
 21
-51.00035858154297
 31
-9.313225746154785e-07
  0
LINE
  8
0
 10
118.20807647705078
 20
-51.00035858154297
 30
-9.313225746154785e-07
 11
117.57217407226562
 21
-51.90325927734375
 31
-9.313225746154785e-07
  0
LINE
  8
0
 10
117.57217407226562
 20
-51.90325927734375
 30
-9.313225746154785e-07
 11
116.89274597167969
 21
-52.773868560791016
 31
-9.313225746154785e-07
  0
LINE
  8
0
 10
116.89274597167969
 20
-52.773868560791016
 30
-9.313225746154785e-07
 11
116.1714096069336
 21
-53.61009979248047
 31
-9.313225746154785e-07
  0
LINE
  8
0
 10
116.1714096069336
 20
-53.61009979248047
 30
-9.313225746154785e-07
 11
115.409912109375
 21
-54.40991973876953
 31
-9.313225746154785e-07
  0
LINE
  8
0
 10
115.409912109375
 20
-54.40991973876953
 30
-9.313225746154785e-07
 11
114.6100845336914
 21
-55.171424865722656
 31
-9.313225746154785e-07
  0
LINE
  8
0
 10
114.6100845336914
 20
-55.171424865722656
 30
-9.313225746154785e-07
 11
113.77385711669922
 21
-55.89275360107422
 31
-9.313225746154785e-07
  0
LINE
  8
0
 10
113.77385711669922
 20
-55.89275360107422
 30
-9.313225746154785e-07
 11
112.90325164794922
 21
-56.57219314575195
 31
-9.313225746154785e-07
  0
LINE
  8
0
 10
112.90325164794922
 20
-56.57219314575195
 30
-9.313225746154785e-07
 11
112.0003433227539
 21
-57.20808410644531
 31
-9.313225746154785e-07
  0
LINE
  8
0
 10
112.0003433227539
 20
-57.20808410644531
 30
-9.313225746154785e-07
 11
111.06732177734375
 21
-57.79891586303711
 31
-9.313225746154785e-07
  0
LINE
  8
0
 10
111.06732177734375
 20
-57.79891586303711
 30
-9.313225746154785e-07
 11
110.1064453125
 21
-58.3432502746582
 31
-9.313225746154785e-07
  0
LINE
  8
0
 10
110.1064453125
 20
-58.3432502746582
 30
-9.313225746154785e-07
 11
109.12000274658203
 21
-58.839778900146484
 31
-9.313225746154785e-07
  0
LINE
  8
0
 10
109.12000274658203
 20
-58.839778900146484
 30
-9.313225746154785e-07
 11
108.11038970947266
 21
-59.28730773925781
 31
-9.313225746154785e-07
  0
LINE
  8
0
 10
108.11038970947266
 20
-59.28730773925781
 30
-9.313225746154785e-07
 11
107.08003234863281
 21
-59.68476486206055
 31
-9.313225746154785e-07
  0
LINE
  8
0
 10
107.08003234863281
 20
-59.68476486206055
 30
-9.313225746154785e-07
 11
106.03141784667969
 21
-60.03118133544922
 31
-9.313225746154785e-07
  0
LINE
  8
0
 10
106.03141784667969
 20
-60.03118133544922
 30
-9.313225746154785e-07
 11
104.96707153320312
 21
-60.32572555541992
 31
-9.313225746154785e-07
  0
LINE
  8
0
 10
104.96707153320312
 20
-60.32572555541992
 30
-9.313225746154785e-07
 11
103.8895492553711
 21
-60.56768798828125
 31
-9.313225746154785e-07
  0
LINE
  8
0
 10
103.8895492553711
 20
-60.56768798828125
 30
-9.313225746154785e-07
 11
102.80144500732422
 21
-60.756492614746094
 31
-9.313225746154785e-07
  0
LINE
  8
0
 10
102.80144500732422
 20
-60.756492614746094
 30
-9.313225746154785e-07
 11
101.70539855957031
 21
-60.89167785644531
 31
-9.313225746154785e-07
  0
LINE
  8
0
 10
101.70539855957031
 20
-60.89167785644531
 30
-9.313225746154785e-07
 11
100.60403442382812
 21
-60.97291564941406
 31
-9.313225746154785e-07
  0
LINE
  8
0
 10
100.60403442382812
 20
-60.97291564941406
 30
-9.313225746154785e-07
 11
99.50001525878906
 21
-61.00002670288086
 31
-9.313225746154785e-07
  0
LINE
  8
0
 10
99.50001525878906
 20
-61.00002670288086
 30
-9.313225746154785e-07
 11
98.39598846435547
 21
-60.97291564941406
 31
-9.313225746154785e-07
  0
LINE
  8
0
 10
98.39598846435547
 20
-60.97291564941406
 30
-9.313225746154785e-07
 11
97.29463195800781
 21
-60.89167785644531
 31
-9.313225746154785e-07
  0
LINE
  8
0
 10
97.29463195800781
 20
-60.89167785644531
 30
-9.313225746154785e-07
 11
96.19857788085938
 21
-60.756492614746094
 31
-9.313225746154785e-07
  0
LINE
  8
0
 10
96.19857788085938
 20
-60.756492614746094
 30
-9.313225746154785e-07
 11
95.11048126220703
 21
-60.56768798828125
 31
-9.313225746154785e-07
  0
LINE
  8
0
 10
95.11048126220703
 20
-60.56768798828125
 30
-9.313225746154785e-07
 11
94.032958984375
 21
-60.32572555541992
 31
-9.313225746154785e-07
  0
LINE
  8
0
 10
94.032958984375
 20
-60.32572555541992
 30
-9.313225746154785e-07
 11
92.9686050415039
 21
-60.03118133544922
 31
-9.313225746154785e-07
  0
LINE
  8
0
 10
92.9686050415039
 20
-60.03118133544922
 30
-9.313225746154785e-07
 11
91.91999053955078
 21
-59.68476486206055
 31
-9.313225746154785e-07
  0
LINE
  8
0
 10
91.91999053955078
 20
-59.68476486206055
 30
-9.313225746154785e-07
 11
90.88963317871094
 21
-59.28730773925781
 31
-9.313225746154785e-07
  0
LINE
  8
0
 10
90.88963317871094
 20
-59.28730773925781
 30
-9.313225746154785e-07
 11
89.8800277709961
 21
-58.839778900146484
 31
-9.313225746154785e-07
  0
LINE
  8
0
 10
89.8800277709961
 20
-58.839778900146484
 30
-9.313225746154785e-07
 11
88.89358520507812
 21
-58.3432502746582
 31
-9.313225746154785e-07
  0
LINE
  8
0
 10
88.89358520507812
 20
-58.3432502746582
 30
-9.313225746154785e-07
 11
87.93270111083984
 21
-57.79891586303711
 31
-9.313225746154785e-07
  0
LINE
  8
0
 10
87.93270111083984
 20
-57.79891586303711
 30
-9.313225746154785e-07
 11
86.99967956542969
 21
-57.20808410644531
 31
-9.313225746154785e-07
  0
LINE
  8
0
 10
86.99967956542969
 20
-57.20808410644531
 30
-9.313225746154785e-07
 11
86.0967788696289
 21
-56.57219314575195
 31
-9.313225746154785e-07
  0
LINE
  8
0
 10
86.0967788696289
 20
-56.57219314575195
 30
-9.313225746154785e-07
 11
85.22616577148438
 21
-55.89275360107422
 31
-9.313225746154785e-07
  0
LINE
  8
0
 10
85.22616577148438
 20
-55.89275360107422
 30
-9.313225746154785e-07
 11
84.38993835449219
 21
-55.171424865722656
 31
-9.313225746154785e-07
  0
LINE
  8
0
 10
84.38993835449219
 20
-55.171424865722656
 30
-9.313225746154785e-07
 11
83.5901107788086
 21
-54.40991973876953
 31
-9.313225746154785e-07
  0
LINE
  8
0
 10
83.5901107788086
 20
-54.40991973876953
 30
-9.313225746154785e-07
 11
82.82861328125
 21
-53.61009979248047
 31
-9.313225746154785e-07
  0
LINE
  8
0
 10
82.82861328125
 20
-53.61009979248047
 30
-9.313225746154785e-07
 11
82.10728454589844
 21
-52.773868560791016
 31
-9.313225746154785e-07
  0
LINE
  8
0
 10
82.10728454589844
 20
-52.773868560791016
 30
-9.313225746154785e-07
 11
81.42784118652344
 21
-51.90325927734375
 31
-9.313225746154785e-07
  0
LINE
  8
0
 10
81.42784118652344
 20
-51.90325927734375
 30
-9.313225746154785e-07
 11
80.79194641113281
 21
-51.00035858154297
 31
-9.313225746154785e-07
  0
LINE
  8
0
 10
80.79194641113281
 20
-51.00035858154297
 30
-9.313225746154785e-07
 11
80.20111846923828
 21
-50.06733703613281
 31
-9.313225746154785e-07
  0
LINE
  8
0
 10
80.20111846923828
 20
-50.06733703613281
 30
-9.313225746154785e-07
 11
79.65678405761719
 21
-49.106449127197266
 31
-9.313225746154785e-07
  0
LINE
  8
0
 10
79.65678405761719
 20
-49.106449127197266
 30
-9.313225746154785e-07
 11
79.1602554321289
 21
-48.12001419067383
 31
-9.313225746154785e-07
  0
LINE
  8
0
 10
79.1602554321289
 20
-48.12001419067383
 30
-9.313225746154785e-07
 11
78.71272277832031
 21
-47.11040115356445
 31
-9.313225746154785e-07
  0
LINE
  8
0
 10
78.71272277832031
 20
-47.11040115356445
 30
-9.313225746154785e-07
 11
78.31526947021484
 21
-46.08004379272461
 31
-9.313225746154785e-07
  0
LINE
  8
0
 10
78.31526947021484
 20
-46.08004379272461
 30
-9.313225746154785e-07
 11
77.96885681152344
 21
-45.031429290771484
 31
-9.313225746154785e-07
  0
LINE
  8
0
 10
77.96885681152344
 20
-45.031429290771484
 30
-9.313225746154785e-07
 11
77.67430877685547
 21
-43.96707534790039
 31
-9.313225746154785e-07
  0
LINE
  8
0
 10
77.67430877685547
 20
-43.96707534790039
 30
-9.313225746154785e-07
 11
77.43234252929688
 21
-42.889556884765625
 31
-9.313225746154785e-07
  0
LINE
  8
0
 10
77.43234252929688
 20
-42.889556884765625
 30
-9.313225746154785e-07
 11
77.24354553222656
 21
-41.80146026611328
 31
-9.313225746154785e-07
  0
LINE
  8
0
 10
77.24354553222656
 20
-41.80146026611328
 30
-9.313225746154785e-07
 11
77.10836029052734
 21
-40.70541000366211
 31
-9.313225746154785e-07
  0
LINE
  8
0
 10
77.10836029052734
 20
-40.70541000366211
 30
-9.313225746154785e-07
 11
77.02711486816406
 21
-39.60404586791992
 31
-9.313225746154785e-07
  0
LINE
  8
0
 10
77.02711486816406
 20
-39.60404586791992
 30
-9.313225746154785e-07
 11
77.00000762939453
 21
-38.500022888183594
 31
-9.313225746154785e-07
  0
LINE
  8
0
 10
77.00000762939453
 20
-38.500022888183594
 30
-9.313225746154785e-07
 11
77.02711486816406
 21
-37.395999908447266
 31
-9.313225746154785e-07
  0
LINE
  8
0
 10
77.02711486816406
 20
-37.395999908447266
 30
-9.313225746154785e-07
 11
77.10836029052734
 21
-36.29463577270508
 31
-9.313225746154785e-07
  0
LINE
  8
0
 10
77.10836029052734
 20
-36.29463577270508
 30
-9.313225746154785e-07
 11
77.24354553222656
 21
-35.198585510253906
 31
-9.313225746154785e-07
  0
LINE
  8
0
 10
77.24354553222656
 20
-35.198585510253906
 30
-9.313225746154785e-07
 11
77.43234252929688
 21
-34.11048889160156
 31
-9.313225746154785e-07
  0
LINE
  8
0
 10
77.43234252929688
 20
-34.11048889160156
 30
-9.313225746154785e-07
 11
77.67430877685547
 21
-33.0329704284668
 31
-9.313225746154785e-07
  0
LINE
  8
0
 10
77.67430877685547
 20
-33.0329704284668
 30
-9.313225746154785e-07
 11
77.96885681152344
 21
-31.968616485595703
 31
-9.313225746154785e-07
  0
LINE
  8
0
 10
77.96885681152344
 20
-31.968616485595703
 30
-9.313225746154785e-07
 11
78.31526947021484
 21
-30.920001983642578
 31
-9.313225746154785e-07
  0
LINE
  8
0
 10
78.31526947021484
 20
-30.920001983642578
 30
-9.313225746154785e-07
 11
78.71272277832031
 21
-29.889646530151367
 31
-9.313225746154785e-07
  0
LINE
  8
0
 10
78.71272277832031
 20
-29.889646530151367
 30
-9.313225746154785e-07
 11
79.1602554321289
 21
-28.880033493041992
 31
-9.313225746154785e-07
  0
LINE
  8
0
 10
79.1602554321289
 20
-28.880033493041992
 30
-9.313225746154785e-07
 11
79.65678405761719
 21
-27.893596649169922
 31
-9.313225746154785e-07
  0
LINE
  8
0
 10
79.65678405761719
 20
-27.893596649169922
 30
-9.313225746154785e-07
 11
80.20111846923828
 21
-26.932710647583008
 31
-9.313225746154785e-07
  0
LINE
  8
0
 10
80.20111846923828
 20
-26.932710647583008
 30
-9.313225746154785e-07
 11
80.79194641113281
 21
-25.999692916870117
 31
-9.313225746154785e-07
  0
LINE
  8
0
 10
80.79194641113281
 20
-25.999692916870117
 30
-9.313225746154785e-07
 11
81.42784118652344
 21
-25.09678840637207
 31
-9.313225746154785e-07
  0
LINE
  8
0
 10
81.42784118652344
 20
-25.09678840637207
 30
-9.313225746154785e-07
 11
82.10728454589844
 21
-24.226173400878906
 31
-9.313225746154785e-07
  0
LINE
  8
0
 10
82.10728454589844
 20
-24.226173400878906
 30
-9.313225746154785e-07
 11
82.82861328125
 21
-23.38994598388672
 31
-9.313225746154785e-07
  0
LINE
  8
0
 10
82.82861328125
 20
-23.38994598388672
 30
-9.313225746154785e-07
 11
83.5901107788086
 21
-22.59012222290039
 31
-9.313225746154785e-07
  0
LINE
  8
0
 10
83.5901107788086
 20
-22.59012222290039
 30
-9.313225746154785e-07
 11
84.38993835449219
 21
-21.828622817993164
 31
-9.313225746154785e-07
  0
LINE
  8
0
 10
84.38993835449219
 20
-21.828622817993164
 30
-9.313225746154785e-07
 11
85.22616577148438
 21
-21.107288360595703
 31
-9.313225746154785e-07
  0
LINE
  8
0
 10
85.22616577148438
 20
-21.107288360595703
 30
-9.313225746154785e-07
 11
86.0967788696289
 21
-20.427854537963867
 31
-9.313225746154785e-07
  0
LINE
  8
0
 10
86.0967788696289
 20
-20.427854537963867
 30
-9.313225746154785e-07
 11
86.99967956542969
 21
-19.79195785522461
 31
-9.313225746154785e-07
  0
LINE
  8
0
 10
86.99967956542969
 20
-19.79195785522461
 30
-9.313225746154785e-07
 11
87.93270111083984
 21
-19.201129913330078
 31
-9.313225746154785e-07
  0
LINE
  8
0
 10
87.93270111083984
 20
-19.201129913330078
 30
-9.313225746154785e-07
 11
88.89358520507812
 21
-18.656795501708984
 31
-9.313225746154785e-07
  0
LINE
  8
0
 10
88.89358520507812
 20
-18.656795501708984
 30
-9.313225746154785e-07
 11
89.8800277709961
 21
-18.16026496887207
 31
-9.313225746154785e-07
  0
LINE
  8
0
 10
89.8800277709961
 20
-18.16026496887207
 30
-9.313225746154785e-07
 11
90.88963317871094
 21
-17.71273422241211
 31
-9.313225746154785e-07
  0
LINE
  8
0
 10
90.88963317871094
 20
-17.71273422241211
 30
-9.313225746154785e-07
 11
91.91999053955078
 21
-17.315282821655273
 31
-9.313225746154785e-07
  0
LINE
  8
0
 10
91.91999053955078
 20
-17.315282821655273
 30
-9.313225746154785e-07
 11
92.9686050415039
 21
-16.9688663482666
 31
-9.313225746154785e-07
  0
LINE
  8
0
 10
92.9686050415039
 20
-16.9688663482666
 30
-9.313225746154785e-07
 11
94.032958984375
 21
-16.674320220947266
 31
-9.313225746154785e-07
  0
LINE
  8
0
 10
94.032958984375
 20
-16.674320220947266
 30
-9.313225746154785e-07
 11
95.11048126220703
 21
-16.432355880737305
 31
-9.313225746154785e-07
  0
LINE
  8
0
 10
95.11048126220703
 20
-16.432355880737305
 30
-9.313225746154785e-07
 11
96.19857788085938
 21
-16.24355125427246
 31
-9.313225746154785e-07
  0
LINE
  8
0
 10
96.19857788085938
 20
-16.24355125427246
 30
-9.313225746154785e-07
 11
97.29463195800781
 21
-16.108366012573242
 31
-9.313225746154785e-07
  0
LINE
  8
0
 10
97.29463195800781
 20
-16.108366012573242
 30
-9.313225746154785e-07
 11
98.39598846435547
 21
-16.02712631225586
 31
-9.313225746154785e-07
  0
LINE
  8
0
 10
99.50001525878906
 20
-16.000022888183594
 30
-9.313225746154785e-07
 11
98.39598846435547
 21
-16.02712631225586
 31
-9.313225746154785e-07
  0
LINE
  8
0
 10
99.50001525878906
 20
61.00002670288086
 30
-9.313225746154785e-07
 11
100.60403442382812
 21
60.97291564941406
 31
-9.313225746154785e-07
  0
LINE
  8
0
 10
100.60403442382812
 20
60.97291564941406
 30
-9.313225746154785e-07
 11
101.70539855957031
 21
60.89167785644531
 31
-9.313225746154785e-07
  0
LINE
  8
0
 10
101.70539855957031
 20
60.89167785644531
 30
-9.313225746154785e-07
 11
102.80144500732422
 21
60.756492614746094
 31
-9.313225746154785e-07
  0
LINE
  8
0
 10
102.80144500732422
 20
60.756492614746094
 30
-9.313225746154785e-07
 11
103.8895492553711
 21
60.56768798828125
 31
-9.313225746154785e-07
  0
LINE
  8
0
 10
103.8895492553711
 20
60.56768798828125
 30
-9.313225746154785e-07
 11
104.96707153320312
 21
60.32572555541992
 31
-9.313225746154785e-07
  0
LINE
  8
0
 10
104.96707153320312
 20
60.32572555541992
 30
-9.313225746154785e-07
 11
106.03141784667969
 21
60.03118133544922
 31
-9.313225746154785e-07
  0
LINE
  8
0
 10
106.03141784667969
 20
60.03118133544922
 30
-9.313225746154785e-07
 11
107.08003234863281
 21
59.68476486206055
 31
-9.313225746154785e-07
  0
LINE
  8
0
 10
107.08003234863281
 20
59.68476486206055
 30
-9.313225746154785e-07
 11
108.11038970947266
 21
59.28730773925781
 31
-9.313225746154785e-07
  0
LINE
  8
0
 10
108.11038970947266
 20
59.28730773925781
 30
-9.313225746154785e-07
 11
109.12000274658203
 21
58.839778900146484
 31
-9.313225746154785e-07
  0
LINE
  8
0
 10
109.12000274658203
 20
58.839778900146484
 30
-9.313225746154785e-07
 11
110.1064453125
 21
58.3432502746582
 31
-9.313225746154785e-07
  0
LINE
  8
0
 10
110.1064453125
 20
58.3432502746582
 30
-9.313225746154785e-07
 11
111.06732177734375
 21
57.79891586303711
 31
-9.313225746154785e-07
  0
LINE
  8
0
 10
111.06732177734375
 20
57.79891586303711
 30
-9.313225746154785e-07
 11
112.0003433227539
 21
57.20808410644531
 31
-9.313225746154785e-07
  0
LINE
  8
0
 10
112.0003433227539
 20
57.20808410644531
 30
-9.313225746154785e-07
 11
112.90325164794922
 21
56.57219314575195
 31
-9.313225746154785e-07
  0
LINE
  8
0
 10
112.90325164794922
 20
56.57219314575195
 30
-9.313225746154785e-07
 11
113.77385711669922
 21
55.89275360107422
 31
-9.313225746154785e-07
  0
LINE
  8
0
 10
113.77385711669922
 20
55.89275360107422
 30
-9.313225746154785e-07
 11
114.6100845336914
 21
55.171424865722656
 31
-9.313225746154785e-07
  0
LINE
  8
0
 10
114.6100845336914
 20
55.171424865722656
 30
-9.313225746154785e-07
 11
115.409912109375
 21
54.40991973876953
 31
-9.313225746154785e-07
  0
LINE
  8
0
 10
115.409912109375
 20
54.40991973876953
 30
-9.313225746154785e-07
 11
116.1714096069336
 21
53.61009979248047
 31
-9.313225746154785e-07
  0
LINE
  8
0
 10
116.1714096069336
 20
53.61009979248047
 30
-9.313225746154785e-07
 11
116.89274597167969
 21
52.773868560791016
 31
-9.313225746154785e-07
  0
LINE
  8
0
 10
116.89274597167969
 20
52.773868560791016
 30
-9.313225746154785e-07
 11
117.57217407226562
 21
51.90325927734375
 31
-9.313225746154785e-07
  0
LINE
  8
0
 10
117.57217407226562
 20
51.90325927734375
 30
-9.313225746154785e-07
 11
118.20807647705078
 21
51.00035858154297
 31
-9.313225746154785e-07
  0
LINE
  8
0
 10
118.20807647705078
 20
51.00035858154297
 30
-9.313225746154785e-07
 11
118.79889678955078
 21
50.06733703613281
 31
-9.313225746154785e-07
  0
LINE
  8
0
 10
118.79889678955078
 20
50.06733703613281
 30
-9.313225746154785e-07
 11
119.34323120117188
 21
49.106449127197266
 31
-9.313225746154785e-07
  0
LINE
  8
0
 10
119.34323120117188
 20
49.106449127197266
 30
-9.313225746154785e-07
 11
119.83977508544922
 21
48.12001419067383
 31
-9.313225746154785e-07
  0
LINE
  8
0
 10
119.83977508544922
 20
48.12001419067383
 30
-9.313225746154785e-07
 11
120.28730010986328
 21
47.11040115356445
 31
-9.313225746154785e-07
  0
LINE
  8
0
 10
120.28730010986328
 20
47.11040115356445
 30
-9.313225746154785e-07
 11
120.68475341796875
 21
46.08004379272461
 31
-9.313225746154785e-07
  0
LINE
  8
0
 10
120.68475341796875
 20
46.08004379272461
 30
-9.313225746154785e-07
 11
121.03116607666016
 21
45.031429290771484
 31
-9.313225746154785e-07
  0
LINE
  8
0
 10
121.03116607666016
 20
45.031429290771484
 30
-9.313225746154785e-07
 11
121.32572174072266
 21
43.96707534790039
 31
-9.313225746154785e-07
  0
LINE
  8
0
 10
121.32572174072266
 20
43.96707534790039
 30
-9.313225746154785e-07
 11
121.56768035888672
 21
42.889556884765625
 31
-9.313225746154785e-07
  0
LINE
  8
0
 10
121.56768035888672
 20
42.889556884765625
 30
-9.313225746154785e-07
 11
121.75648498535156
 21
41.80146026611328
 31
-9.313225746154785e-07
  0
LINE
  8
0
 10
121.75648498535156
 20
41.80146026611328
 30
-9.313225746154785e-07
 11
121.89166259765625
 21
40.70541000366211
 31
-9.313225746154785e-07
  0
LINE
  8
0
 10
121.89166259765625
 20
40.70541000366211
 30
-9.313225746154785e-07
 11
121.97290802001953
 21
39.60404586791992
 31
-9.313225746154785e-07
  0
LINE
  8
0
 10
121.97290802001953
 20
39.60404586791992
 30
-9.313225746154785e-07
 11
122.00001525878906
 21
38.500022888183594
 31
-9.313225746154785e-07
  0
LINE
  8
0
 10
122.00001525878906
 20
38.500022888183594
 30
-9.313225746154785e-07
 11
121.97290802001953
 21
37.395999908447266
 31
-9.313225746154785e-07
  0
LINE
  8
0
 10
121.97290802001953
 20
37.395999908447266
 30
-9.313225746154785e-07
 11
121.89166259765625
 21
36.29463577270508
 31
-9.313225746154785e-07
  0
LINE
  8
0
 10
121.89166259765625
 20
36.29463577270508
 30
-9.313225746154785e-07
 11
121.75648498535156
 21
35.198585510253906
 31
-9.313225746154785e-07
  0
LINE
  8
0
 10
121.75648498535156
 20
35.198585510253906
 30
-9.313225746154785e-07
 11
121.56768035888672
 21
34.11048889160156
 31
-9.313225746154785e-07
  0
LINE
  8
0
 10
121.56768035888672
 20
34.11048889160156
 30
-9.313225746154785e-07
 11
121.32572174072266
 21
33.0329704284668
 31
-9.313225746154785e-07
  0
LINE
  8
0
 10
121.32572174072266
 20
33.0329704284668
 30
-9.313225746154785e-07
 11
121.03116607666016
 21
31.968616485595703
 31
-9.313225746154785e-07
  0
LINE
  8
0
 10
121.03116607666016
 20
31.968616485595703
 30
-9.313225746154785e-07
 11
120.68475341796875
 21
30.920001983642578
 31
-9.313225746154785e-07
  0
LINE
  8
0
 10
120.68475341796875
 20
30.920001983642578
 30
-9.313225746154785e-07
 11
120.28730010986328
 21
29.889646530151367
 31
-9.313225746154785e-07
  0
LINE
  8
0
 10
120.28730010986328
 20
29.889646530151367
 30
-9.313225746154785e-07
 11
119.83977508544922
 21
28.880033493041992
 31
-9.313225746154785e-07
  0
LINE
  8
0
 10
119.83977508544922
 20
28.880033493041992
 30
-9.313225746154785e-07
 11
119.34323120117188
 21
27.893596649169922
 31
-9.313225746154785e-07
  0
LINE
  8
0
 10
119.34323120117188
 20
27.893596649169922
 30
-9.313225746154785e-07
 11
118.79889678955078
 21
26.932710647583008
 31
-9.313225746154785e-07
  0
LINE
  8
0
 10
118.79889678955078
 20
26.932710647583008
 30
-9.313225746154785e-07
 11
118.20807647705078
 21
25.999692916870117
 31
-9.313225746154785e-07
  0
LINE
  8
0
 10
118.20807647705078
 20
25.999692916870117
 30
-9.313225746154785e-07
 11
117.57217407226562
 21
25.09678840637207
 31
-9.313225746154785e-07
  0
LINE
  8
0
 10
117.57217407226562
 20
25.09678840637207
 30
-9.313225746154785e-07
 11
116.89274597167969
 21
24.226173400878906
 31
-9.313225746154785e-07
  0
LINE
  8
0
 10
116.89274597167969
 20
24.226173400878906
 30
-9.313225746154785e-07
 11
116.1714096069336
 21
23.38994598388672
 31
-9.313225746154785e-07
  0
LINE
  8
0
 10
116.1714096069336
 20
23.38994598388672
 30
-9.313225746154785e-07
 11
115.409912109375
 21
22.59012222290039
 31
-9.313225746154785e-07
  0
LINE
  8
0
 10
115.409912109375
 20
22.59012222290039
 30
-9.313225746154785e-07
 11
114.6100845336914
 21
21.828622817993164
 31
-9.313225746154785e-07
  0
LINE
  8
0
 10
114.6100845336914
 20
21.828622817993164
 30
-9.313225746154785e-07
 11
113.77385711669922
 21
21.107288360595703
 31
-9.313225746154785e-07
  0
LINE
  8
0
 10
113.77385711669922
 20
21.107288360595703
 30
-9.313225746154785e-07
 11
112.90325164794922
 21
20.427854537963867
 31
-9.313225746154785e-07
  0
LINE
  8
0
 10
112.90325164794922
 20
20.427854537963867
 30
-9.313225746154785e-07
 11
112.0003433227539
 21
19.79195785522461
 31
-9.313225746154785e-07
  0
LINE
  8
0
 10
112.0003433227539
 20
19.79195785522461
 30
-9.313225746154785e-07
 11
111.06732177734375
 21
19.201129913330078
 31
-9.313225746154785e-07
  0
LINE
  8
0
 10
111.06732177734375
 20
19.201129913330078
 30
-9.313225746154785e-07
 11
110.1064453125
 21
18.656795501708984
 31
-9.313225746154785e-07
  0
LINE
  8
0
 10
110.1064453125
 20
18.656795501708984
 30
-9.313225746154785e-07
 11
109.12000274658203
 21
18.16026496887207
 31
-9.313225746154785e-07
  0
LINE
  8
0
 10
109.12000274658203
 20
18.16026496887207
 30
-9.313225746154785e-07
 11
108.11038970947266
 21
17.71273422241211
 31
-9.313225746154785e-07
  0
LINE
  8
0
 10
108.11038970947266
 20
17.71273422241211
 30
-9.313225746154785e-07
 11
107.08003234863281
 21
17.315282821655273
 31
-9.313225746154785e-07
  0
LINE
  8
0
 10
107.08003234863281
 20
17.315282821655273
 30
-9.313225746154785e-07
 11
106.03141784667969
 21
16.9688663482666
 31
-9.313225746154785e-07
  0
LINE
  8
0
 10
106.03141784667969
 20
16.9688663482666
 30
-9.313225746154785e-07
 11
104.96707153320312
 21
16.674320220947266
 31
-9.313225746154785e-07
  0
LINE
  8
0
 10
104.96707153320312
 20
16.674320220947266
 30
-9.313225746154785e-07
 11
103.8895492553711
 21
16.432355880737305
 31
-9.313225746154785e-07
  0
LINE
  8
0
 10
103.8895492553711
 20
16.432355880737305
 30
-9.313225746154785e-07
 11
102.80144500732422
 21
16.24355125427246
 31
-9.313225746154785e-07
  0
LINE
  8
0
 10
102.80144500732422
 20
16.24355125427246
 30
-9.313225746154785e-07
 11
101.70539855957031
 21
16.108366012573242
 31
-9.313225746154785e-07
  0
LINE
  8
0
 10
101.70539855957031
 20
16.108366012573242
 30
-9.313225746154785e-07
 11
100.60403442382812
 21
16.02712631225586
 31
-9.313225746154785e-07
  0
LINE
  8
0
 10
100.60403442382812
 20
16.02712631225586
 30
-9.313225746154785e-07
 11
99.50001525878906
 21
16.000022888183594
 31
-9.313225746154785e-07
  0
LINE
  8
0
 10
99.50001525878906
 20
16.000022888183594
 30
-9.313225746154785e-07
 11
98.39598846435547
 21
16.02712631225586
 31
-9.313225746154785e-07
  0
LINE
  8
0
 10
98.39598846435547
 20
16.02712631225586
 30
-9.313225746154785e-07
 11
97.29463195800781
 21
16.108366012573242
 31
-9.313225746154785e-07
  0
LINE
  8
0
 10
97.29463195800781
 20
16.108366012573242
 30
-9.313225746154785e-07
 11
96.19857788085938
 21
16.24355125427246
 31
-9.313225746154785e-07
  0
LINE
  8
0
 10
96.19857788085938
 20
16.24355125427246
 30
-9.313225746154785e-07
 11
95.11048126220703
 21
16.432355880737305
 31
-9.313225746154785e-07
  0
LINE
  8
0
 10
95.11048126220703
 20
16.432355880737305
 30
-9.313225746154785e-07
 11
94.032958984375
 21
16.674320220947266
 31
-9.313225746154785e-07
  0
LINE
  8
0
 10
94.032958984375
 20
16.674320220947266
 30
-9.313225746154785e-07
 11
92.9686050415039
 21
16.9688663482666
 31
-9.313225746154785e-07
  0
LINE
  8
0
 10
92.9686050415039
 20
16.9688663482666
 30
-9.313225746154785e-07
 11
91.91999053955078
 21
17.315282821655273
 31
-9.313225746154785e-07
  0
LINE
  8
0
 10
91.91999053955078
 20
17.315282821655273
 30
-9.313225746154785e-07
 11
90.88963317871094
 21
17.71273422241211
 31
-9.313225746154785e-07
  0
LINE
  8
0
 10
90.88963317871094
 20
17.71273422241211
 30
-9.313225746154785e-07
 11
89.8800277709961
 21
18.16026496887207
 31
-9.313225746154785e-07
  0
LINE
  8
0
 10
89.8800277709961
 20
18.16026496887207
 30
-9.313225746154785e-07
 11
88.89358520507812
 21
18.656795501708984
 31
-9.313225746154785e-07
  0
LINE
  8
0
 10
88.89358520507812
 20
18.656795501708984
 30
-9.313225746154785e-07
 11
87.93270111083984
 21
19.201129913330078
 31
-9.313225746154785e-07
  0
LINE
  8
0
 10
87.93270111083984
 20
19.201129913330078
 30
-9.313225746154785e-07
 11
86.99967956542969
 21
19.79195785522461
 31
-9.313225746154785e-07
  0
LINE
  8
0
 10
86.99967956542969
 20
19.79195785522461
 30
-9.313225746154785e-07
 11
86.0967788696289
 21
20.427854537963867
 31
-9.313225746154785e-07
  0
LINE
  8
0
 10
86.0967788696289
 20
20.427854537963867
 30
-9.313225746154785e-07
 11
85.22616577148438
 21
21.107288360595703
 31
-9.313225746154785e-07
  0
LINE
  8
0
 10
85.22616577148438
 20
21.107288360595703
 30
-9.313225746154785e-07
 11
84.38993835449219
 21
21.828622817993164
 31
-9.313225746154785e-07
  0
LINE
  8
0
 10
84.38993835449219
 20
21.828622817993164
 30
-9.313225746154785e-07
 11
83.5901107788086
 21
22.59012222290039
 31
-9.313225746154785e-07
  0
LINE
  8
0
 10
83.5901107788086
 20
22.59012222290039
 30
-9.313225746154785e-07
 11
82.82861328125
 21
23.38994598388672
 31
-9.313225746154785e-07
  0
LINE
  8
0
 10
82.82861328125
 20
23.38994598388672
 30
-9.313225746154785e-07
 11
82.10728454589844
 21
24.226173400878906
 31
-9.313225746154785e-07
  0
LINE
  8
0
 10
82.10728454589844
 20
24.226173400878906
 30
-9.313225746154785e-07
 11
81.42784118652344
 21
25.09678840637207
 31
-9.313225746154785e-07
  0
LINE
  8
0
 10
81.42784118652344
 20
25.09678840637207
 30
-9.313225746154785e-07
 11
80.79194641113281
 21
25.999692916870117
 31
-9.313225746154785e-07
  0
LINE
  8
0
 10
80.79194641113281
 20
25.999692916870117
 30
-9.313225746154785e-07
 11
80.20111846923828
 21
26.932710647583008
 31
-9.313225746154785e-07
  0
LINE
  8
0
 10
80.20111846923828
 20
26.932710647583008
 30
-9.313225746154785e-07
 11
79.65678405761719
 21
27.893596649169922
 31
-9.313225746154785e-07
  0
LINE
  8
0
 10
79.65678405761719
 20
27.893596649169922
 30
-9.313225746154785e-07
 11
79.1602554321289
 21
28.880033493041992
 31
-9.313225746154785e-07
  0
LINE
  8
0
 10
79.1602554321289
 20
28.880033493041992
 30
-9.313225746154785e-07
 11
78.71272277832031
 21
29.889646530151367
 31
-9.313225746154785e-07
  0
LINE
  8
0
 10
78.71272277832031
 20
29.889646530151367
 30
-9.313225746154785e-07
 11
78.31526947021484
 21
30.920001983642578
 31
-9.313225746154785e-07
  0
LINE
  8
0
 10
78.31526947021484
 20
30.920001983642578
 30
-9.313225746154785e-07
 11
77.96885681152344
 21
31.968616485595703
 31
-9.313225746154785e-07
  0
LINE
  8
0
 10
77.96885681152344
 20
31.968616485595703
 30
-9.313225746154785e-07
 11
77.67430877685547
 21
33.0329704284668
 31
-9.313225746154785e-07
  0
LINE
  8
0
 10
77.67430877685547
 20
33.0329704284668
 30
-9.313225746154785e-07
 11
77.43234252929688
 21
34.11048889160156
 31
-9.313225746154785e-07
  0
LINE
  8
0
 10
77.43234252929688
 20
34.11048889160156
 30
-9.313225746154785e-07
 11
77.24354553222656
 21
35.198585510253906
 31
-9.313225746154785e-07
  0
LINE
  8
0
 10
77.24354553222656
 20
35.198585510253906
 30
-9.313225746154785e-07
 11
77.10836029052734
 21
36.29463577270508
 31
-9.313225746154785e-07
  0
LINE
  8
0
 10
77.10836029052734
 20
36.29463577270508
 30
-9.313225746154785e-07
 11
77.02711486816406
 21
37.395999908447266
 31
-9.313225746154785e-07
  0
LINE
  8
0
 10
77.02711486816406
 20
37.395999908447266
 30
-9.313225746154785e-07
 11
77.00000762939453
 21
38.500022888183594
 31
-9.313225746154785e-07
  0
LINE
  8
0
 10
77.00000762939453
 20
38.500022888183594
 30
-9.313225746154785e-07
 11
77.02711486816406
 21
39.60404586791992
 31
-9.313225746154785e-07
  0
LINE
  8
0
 10
77.02711486816406
 20
39.60404586791992
 30
-9.313225746154785e-07
 11
77.10836029052734
 21
40.70541000366211
 31
-9.313225746154785e-07
  0
LINE
  8
0
 10
77.10836029052734
 20
40.70541000366211
 30
-9.313225746154785e-07
 11
77.24354553222656
 21
41.80146026611328
 31
-9.313225746154785e-07
  0
LINE
  8
0
 10
77.24354553222656
 20
41.80146026611328
 30
-9.313225746154785e-07
 11
77.43234252929688
 21
42.889556884765625
 31
-9.313225746154785e-07
  0
LINE
  8
0
 10
77.43234252929688
 20
42.889556884765625
 30
-9.313225746154785e-07
 11
77.67430877685547
 21
43.96707534790039
 31
-9.313225746154785e-07
  0
LINE
  8
0
 10
77.67430877685547
 20
43.96707534790039
 30
-9.313225746154785e-07
 11
77.96885681152344
 21
45.031429290771484
 31
-9.313225746154785e-07
  0
LINE
  8
0
 10
77.96885681152344
 20
45.031429290771484
 30
-9.313225746154785e-07
 11
78.31526947021484
 21
46.08004379272461
 31
-9.313225746154785e-07
  0
LINE
  8
0
 10
78.31526947021484
 20
46.08004379272461
 30
-9.313225746154785e-07
 11
78.71272277832031
 21
47.11040115356445
 31
-9.313225746154785e-07
  0
LINE
  8
0
 10
78.71272277832031
 20
47.11040115356445
 30
-9.313225746154785e-07
 11
79.1602554321289
 21
48.12001419067383
 31
-9.313225746154785e-07
  0
LINE
  8
0
 10
79.1602554321289
 20
48.12001419067383
 30
-9.313225746154785e-07
 11
79.65678405761719
 21
49.106449127197266
 31
-9.313225746154785e-07
  0
LINE
  8
0
 10
79.65678405761719
 20
49.106449127197266
 30
-9.313225746154785e-07
 11
80.20111846923828
 21
50.06733703613281
 31
-9.313225746154785e-07
  0
LINE
  8
0
 10
80.20111846923828
 20
50.06733703613281
 30
-9.313225746154785e-07
 11
80.79194641113281
 21
51.00035858154297
 31
-9.313225746154785e-07
  0
LINE
  8
0
 10
80.79194641113281
 20
51.00035858154297
 30
-9.313225746154785e-07
 11
81.42784118652344
 21
51.90325927734375
 31
-9.313225746154785e-07
  0
LINE
  8
0
 10
81.42784118652344
 20
51.90325927734375
 30
-9.313225746154785e-07
 11
82.10728454589844
 21
52.773868560791016
 31
-9.313225746154785e-07
  0
LINE
  8
0
 10
82.10728454589844
 20
52.773868560791016
 30
-9.313225746154785e-07
 11
82.82861328125
 21
53.61009979248047
 31
-9.313225746154785e-07
  0
LINE
  8
0
 10
82.82861328125
 20
53.61009979248047
 30
-9.313225746154785e-07
 11
83.5901107788086
 21
54.40991973876953
 31
-9.313225746154785e-07
  0
LINE
  8
0
 10
83.5901107788086
 20
54.40991973876953
 30
-9.313225746154785e-07
 11
84.38993835449219
 21
55.171424865722656
 31
-9.313225746154785e-07
  0
LINE
  8
0
 10
84.38993835449219
 20
55.171424865722656
 30
-9.313225746154785e-07
 11
85.22616577148438
 21
55.89275360107422
 31
-9.313225746154785e-07
  0
LINE
  8
0
 10
85.22616577148438
 20
55.89275360107422
 30
-9.313225746154785e-07
 11
86.0967788696289
 21
56.57219314575195
 31
-9.313225746154785e-07
  0
LINE
  8
0
 10
86.0967788696289
 20
56.57219314575195
 30
-9.313225746154785e-07
 11
86.99967956542969
 21
57.20808410644531
 31
-9.313225746154785e-07
  0
LINE
  8
0
 10
86.99967956542969
 20
57.20808410644531
 30
-9.313225746154785e-07
 11
87.93270111083984
 21
57.79891586303711
 31
-9.313225746154785e-07
  0
LINE
  8
0
 10
87.93270111083984
 20
57.79891586303711
 30
-9.313225746154785e-07
 11
88.89358520507812
 21
58.3432502746582
 31
-9.313225746154785e-07
  0
LINE
  8
0
 10
88.89358520507812
 20
58.3432502746582
 30
-9.313225746154785e-07
 11
89.8800277709961
 21
58.839778900146484
 31
-9.313225746154785e-07
  0
LINE
  8
0
 10
89.8800277709961
 20
58.839778900146484
 30
-9.313225746154785e-07
 11
90.88963317871094
 21
59.28730773925781
 31
-9.313225746154785e-07
  0
LINE
  8
0
 10
90.88963317871094
 20
59.28730773925781
 30
-9.313225746154785e-07
 11
91.91999053955078
 21
59.68476486206055
 31
-9.313225746154785e-07
  0
LINE
  8
0
 10
91.91999053955078
 20
59.68476486206055
 30
-9.313225746154785e-07
 11
92.9686050415039
 21
60.03118133544922
 31
-9.313225746154785e-07
  0
LINE
  8
0
 10
92.9686050415039
 20
60.03118133544922
 30
-9.313225746154785e-07
 11
94.032958984375
 21
60.32572555541992
 31
-9.313225746154785e-07
  0
LINE
  8
0
 10
94.032958984375
 20
60.32572555541992
 30
-9.313225746154785e-07
 11
95.11048126220703
 21
60.56768798828125
 31
-9.313225746154785e-07
  0
LINE
  8
0
 10
95.11048126220703
 20
60.56768798828125
 30
-9.313225746154785e-07
 11
96.19857788085938
 21
60.756492614746094
 31
-9.313225746154785e-07
  0
LINE
  8
0
 10
96.19857788085938
 20
60.756492614746094
 30
-9.313225746154785e-07
 11
97.29463195800781
 21
60.89167785644531
 31
-9.313225746154785e-07
  0
LINE
  8
0
 10
97.29463195800781
 20
60.89167785644531
 30
-9.313225746154785e-07
 11
98.39598846435547
 21
60.97291564941406
 31
-9.313225746154785e-07
  0
LINE
  8
0
 10
99.50001525878906
 20
61.00002670288086
 30
-9.313225746154785e-07
 11
98.39598846435547
 21
60.97291564941406
 31
-9.313225746154785e-07
  0
LINE
  8
0
 10
93.39997863769531
 20
-15.499954223632812
 30
0.0
 11
22.899982452392578
 21
-15.499957084655762
 31
0.0
  0
LINE
  8
0
 10
22.899982452392578
 20
-15.499957084655762
 30
0.0
 11
22.899982452392578
 21
-5.499954700469971
 31
0.0
  0
LINE
  8
0
 10
93.39997863769531
 20
-5.499951362609863
 30
0.0
 11
22.899982452392578
 21
-5.499954700469971
 31
0.0
  0
LINE
  8
0
 10
93.39997863769531
 20
-15.499954223632812
 30
0.0
 11
93.39997863769531
 21
-5.499951362609863
 31
0.0
  0
LINE
  8
0
 10
29.40109634399414
 20
-10.833297729492188
 30
0.0
 11
29.34564971923828
 21
-10.729565620422363
 31
0.0
  0
LINE
  8
0
 10
29.40109634399414
 20
-10.16661262512207
 30
0.0
 11
29.34564971923828
 21
-10.270345687866211
 31
0.0
  0
LINE
  8
0
 10
29.311508178710938
 20
-10.382901191711426
 30
0.0
 11
29.34564971923828
 21
-10.270345687866211
 31
0.0
  0
LINE
  8
0
 10
29.311508178710938
 20
-10.382901191711426
 30
0.0
 11
29.299978256225586
 21
-10.499956130981445
 31
0.0
  0
LINE
  8
0
 10
29.311508178710938
 20
-10.617009162902832
 30
0.0
 11
29.299978256225586
 21
-10.499956130981445
 31
0.0
  0
LINE
  8
0
 10
29.311508178710938
 20
-10.617009162902832
 30
0.0
 11
29.34564971923828
 21
-10.729565620422363
 31
0.0
  0
LINE
  8
0
 10
29.40109634399414
 20
-10.16661262512207
 30
0.0
 11
29.47571563720703
 21
-10.075691223144531
 31
0.0
  0
LINE
  8
0
 10
84.39886474609375
 20
-10.166610717773438
 30
0.0
 11
84.45431518554688
 21
-10.270342826843262
 31
0.0
  0
LINE
  8
0
 10
84.39886474609375
 20
-10.166610717773438
 30
0.0
 11
84.32424926757812
 21
-10.075689315795898
 31
0.0
  0
LINE
  8
0
 10
84.23332977294922
 20
-10.00107192993164
 30
0.0
 11
84.32424926757812
 21
-10.075689315795898
 31
0.0
  0
LINE
  8
0
 10
84.23332977294922
 20
-10.00107192993164
 30
0.0
 11
84.12959289550781
 21
-9.945625305175781
 31
0.0
  0
LINE
  8
0
 10
84.01703643798828
 20
-9.911481857299805
 30
0.0
 11
84.12959289550781
 21
-9.945625305175781
 31
0.0
  0
LINE
  8
0
 10
83.89998626708984
 20
-9.89995288848877
 30
0.0
 11
84.01703643798828
 21
-9.911481857299805
 31
0.0
  0
LINE
  8
0
 10
83.89998626708984
 20
-9.89995288848877
 30
0.0
 11
83.7829360961914
 21
-9.911481857299805
 31
0.0
  0
LINE
  8
0
 10
83.7829360961914
 20
-9.911481857299805
 30
0.0
 11
83.67037963867188
 21
-9.945625305175781
 31
0.0
  0
LINE
  8
0
 10
83.56664276123047
 20
-10.00107192993164
 30
0.0
 11
83.67037963867188
 21
-9.945625305175781
 31
0.0
  0
LINE
  8
0
 10
83.56664276123047
 20
-10.00107192993164
 30
0.0
 11
83.47572326660156
 21
-10.075689315795898
 31
0.0
  0
LINE
  8
0
 10
83.40110778808594
 20
-10.166610717773438
 30
0.0
 11
83.47572326660156
 21
-10.075689315795898
 31
0.0
  0
LINE
  8
0
 10
83.40110778808594
 20
-10.166610717773438
 30
0.0
 11
83.34565734863281
 21
-10.270342826843262
 31
0.0
  0
LINE
  8
0
 10
83.31151580810547
 20
-10.382899284362793
 30
0.0
 11
83.34565734863281
 21
-10.270342826843262
 31
0.0
  0
LINE
  8
0
 10
83.31151580810547
 20
-10.382899284362793
 30
0.0
 11
83.29998779296875
 21
-10.499953269958496
 31
0.0
  0
LINE
  8
0
 10
83.31151580810547
 20
-10.6170072555542
 30
0.0
 11
83.29998779296875
 21
-10.499953269958496
 31
0.0
  0
LINE
  8
0
 10
83.31151580810547
 20
-10.6170072555542
 30
0.0
 11
83.34565734863281
 21
-10.729562759399414
 31
0.0
  0
LINE
  8
0
 10
83.40110778808594
 20
-10.833295822143555
 30
0.0
 11
83.34565734863281
 21
-10.729562759399414
 31
0.0
  0
LINE
  8
0
 10
83.40110778808594
 20
-10.833295822143555
 30
0.0
 11
83.47572326660156
 21
-10.924217224121094
 31
0.0
  0
LINE
  8
0
 10
83.56664276123047
 20
-10.998834609985352
 30
0.0
 11
83.47572326660156
 21
-10.924217224121094
 31
0.0
  0
LINE
  8
0
 10
83.56664276123047
 20
-10.998834609985352
 30
0.0
 11
83.67037963867188
 21
-11.054281234741211
 31
0.0
  0
LINE
  8
0
 10
83.7829360961914
 20
-11.088423728942871
 30
0.0
 11
83.67037963867188
 21
-11.054281234741211
 31
0.0
  0
LINE
  8
0
 10
83.89998626708984
 20
-11.099953651428223
 30
0.0
 11
83.7829360961914
 21
-11.088423728942871
 31
0.0
  0
LINE
  8
0
 10
83.89998626708984
 20
-11.099953651428223
 30
0.0
 11
84.01703643798828
 21
-11.088423728942871
 31
0.0
  0
LINE
  8
0
 10
84.01703643798828
 20
-11.088423728942871
 30
0.0
 11
84.12959289550781
 21
-11.054281234741211
 31
0.0
  0
LINE
  8
0
 10
84.12959289550781
 20
-11.054281234741211
 30
0.0
 11
84.23332977294922
 21
-10.998834609985352
 31
0.0
  0
LINE
  8
0
 10
84.23332977294922
 20
-10.998834609985352
 30
0.0
 11
84.32424926757812
 21
-10.924217224121094
 31
0.0
  0
LINE
  8
0
 10
84.32424926757812
 20
-10.924217224121094
 30
0.0
 11
84.39886474609375
 21
-10.833295822143555
 31
0.0
  0
LINE
  8
0
 10
84.45431518554688
 20
-10.729562759399414
 30
0.0
 11
84.39886474609375
 21
-10.833295822143555
 31
0.0
  0
LINE
  8
0
 10
29.40109634399414
 20
-10.833297729492188
 30
0.0
 11
29.47571563720703
 21
-10.924219131469727
 31
0.0
  0
LINE
  8
0
 10
29.56663703918457
 20
-10.998836517333984
 30
0.0
 11
29.47571563720703
 21
-10.924219131469727
 31
0.0
  0
LINE
  8
0
 10
29.56663703918457
 20
-10.998836517333984
 30
0.0
 11
29.67037010192871
 21
-11.054283142089844
 31
0.0
  0
LINE
  8
0
 10
29.78292465209961
 20
-11.08842658996582
 30
0.0
 11
29.67037010192871
 21
-11.054283142089844
 31
0.0
  0
LINE
  8
0
 10
29.899978637695312
 20
-11.099955558776855
 30
0.0
 11
29.78292465209961
 21
-11.08842658996582
 31
0.0
  0
LINE
  8
0
 10
29.899978637695312
 20
-11.099955558776855
 30
0.0
 11
30.017032623291016
 21
-11.08842658996582
 31
0.0
  0
LINE
  8
0
 10
30.017032623291016
 20
-11.08842658996582
 30
0.0
 11
30.129587173461914
 21
-11.054283142089844
 31
0.0
  0
LINE
  8
0
 10
30.233320236206055
 20
-10.998836517333984
 30
0.0
 11
30.129587173461914
 21
-11.054283142089844
 31
0.0
  0
LINE
  8
0
 10
30.233320236206055
 20
-10.998836517333984
 30
0.0
 11
30.324241638183594
 21
-10.924219131469727
 31
0.0
  0
LINE
  8
0
 10
30.398860931396484
 20
-10.833297729492188
 30
0.0
 11
30.324241638183594
 21
-10.924219131469727
 31
0.0
  0
LINE
  8
0
 10
30.398860931396484
 20
-10.833297729492188
 30
0.0
 11
30.454307556152344
 21
-10.729565620422363
 31
0.0
  0
LINE
  8
0
 10
30.488449096679688
 20
-10.617009162902832
 30
0.0
 11
30.454307556152344
 21
-10.729565620422363
 31
0.0
  0
LINE
  8
0
 10
30.488449096679688
 20
-10.617009162902832
 30
0.0
 11
30.49997901916504
 21
-10.499956130981445
 31
0.0
  0
LINE
  8
0
 10
30.488449096679688
 20
-10.382901191711426
 30
0.0
 11
30.49997901916504
 21
-10.499956130981445
 31
0.0
  0
LINE
  8
0
 10
30.488449096679688
 20
-10.382901191711426
 30
0.0
 11
30.454307556152344
 21
-10.270345687866211
 31
0.0
  0
LINE
  8
0
 10
30.398860931396484
 20
-10.16661262512207
 30
0.0
 11
30.454307556152344
 21
-10.270345687866211
 31
0.0
  0
LINE
  8
0
 10
30.398860931396484
 20
-10.16661262512207
 30
0.0
 11
30.324241638183594
 21
-10.075691223144531
 31
0.0
  0
LINE
  8
0
 10
30.233320236206055
 20
-10.001073837280273
 30
0.0
 11
30.324241638183594
 21
-10.075691223144531
 31
0.0
  0
LINE
  8
0
 10
30.233320236206055
 20
-10.001073837280273
 30
0.0
 11
30.129587173461914
 21
-9.94562816619873
 31
0.0
  0
LINE
  8
0
 10
30.017032623291016
 20
-9.911484718322754
 30
0.0
 11
30.129587173461914
 21
-9.94562816619873
 31
0.0
  0
LINE
  8
0
 10
29.899978637695312
 20
-9.899954795837402
 30
0.0
 11
30.017032623291016
 21
-9.911484718322754
 31
0.0
  0
LINE
  8
0
 10
29.899978637695312
 20
-9.899954795837402
 30
0.0
 11
29.78292465209961
 21
-9.911484718322754
 31
0.0
  0
LINE
  8
0
 10
29.78292465209961
 20
-9.911484718322754
 30
0.0
 11
29.67037010192871
 21
-9.94562816619873
 31
0.0
  0
LINE
  8
0
 10
29.56663703918457
 20
-10.001073837280273
 30
0.0
 11
29.67037010192871
 21
-9.94562816619873
 31
0.0
  0
LINE
  8
0
 10
29.56663703918457
 20
-10.001073837280273
 30
0.0
 11
29.47571563720703
 21
-10.075691223144531
 31
0.0
  0
LINE
  8
0
 10
84.48845672607422
 20
-10.382899284362793
 30
0.0
 11
84.45431518554688
 21
-10.270342826843262
 31
0.0
  0
LINE
  8
0
 10
84.48845672607422
 20
-10.6170072555542
 30
0.0
 11
84.45431518554688
 21
-10.729562759399414
 31
0.0
  0
LINE
  8
0
 10
84.48845672607422
 20
-10.6170072555542
 30
0.0
 11
84.49998474121094
 21
-10.49995231628418
 31
0.0
  0
LINE
  8
0
 10
84.48845672607422
 20
-10.382899284362793
 30
0.0
 11
84.49998474121094
 21
-10.49995231628418
 31
0.0
  0
LINE
  8
0
 10
93.39997863769531
 20
-4.999904155731201
 30
0.0
 11
22.899982452392578
 21
-4.999907493591309
 31
0.0
  0
LINE
  8
0
 10
22.899982452392578
 20
-4.999907493591309
 30
0.0
 11
22.899982452392578
 21
5.000094890594482
 31
0.0
  0
LINE
  8
0
 10
93.39997863769531
 20
5.00009822845459
 30
0.0
 11
22.899982452392578
 21
5.000094890594482
 31
0.0
  0
LINE
  8
0
 10
93.39997863769531
 20
-4.999904155731201
 30
0.0
 11
93.39997863769531
 21
5.00009822845459
 31
0.0
  0
LINE
  8
0
 10
29.40109634399414
 20
-0.3332480192184448
 30
0.0
 11
29.34564971923828
 21
-0.22951596975326538
 31
0.0
  0
LINE
  8
0
 10
29.40109634399414
 20
0.3334362506866455
 30
0.0
 11
29.34564971923828
 21
0.22970420122146606
 31
0.0
  0
LINE
  8
0
 10
29.311508178710938
 20
0.11714830994606018
 30
0.0
 11
29.34564971923828
 21
0.22970420122146606
 31
0.0
  0
LINE
  8
0
 10
29.311508178710938
 20
0.11714830994606018
 30
0.0
 11
29.299978256225586
 21
9.410636266693473e-05
 31
0.0
  0
LINE
  8
0
 10
29.311508178710938
 20
-0.1169600859284401
 30
0.0
 11
29.299978256225586
 21
9.410636266693473e-05
 31
0.0
  0
LINE
  8
0
 10
29.311508178710938
 20
-0.1169600859284401
 30
0.0
 11
29.34564971923828
 21
-0.22951596975326538
 31
0.0
  0
LINE
  8
0
 10
29.40109634399414
 20
0.3334362506866455
 30
0.0
 11
29.47571563720703
 21
0.42435815930366516
 31
0.0
  0
LINE
  8
0
 10
84.39886474609375
 20
0.3334386646747589
 30
0.0
 11
84.45431518554688
 21
0.22970658540725708
 31
0.0
  0
LINE
  8
0
 10
84.39886474609375
 20
0.3334386646747589
 30
0.0
 11
84.32424926757812
 21
0.42436057329177856
 31
0.0
  0
LINE
  8
0
 10
84.23332977294922
 20
0.49897822737693787
 30
0.0
 11
84.32424926757812
 21
0.42436057329177856
 31
0.0
  0
LINE
  8
0
 10
84.23332977294922
 20
0.49897822737693787
 30
0.0
 11
84.12959289550781
 21
0.5544242262840271
 31
0.0
  0
LINE
  8
0
 10
84.01703643798828
 20
0.5885676741600037
 30
0.0
 11
84.12959289550781
 21
0.5544242262840271
 31
0.0
  0
LINE
  8
0
 10
83.89998626708984
 20
0.6000964641571045
 30
0.0
 11
84.01703643798828
 21
0.5885676741600037
 31
0.0
  0
LINE
  8
0
 10
83.89998626708984
 20
0.6000964641571045
 30
0.0
 11
83.7829360961914
 21
0.5885676741600037
 31
0.0
  0
LINE
  8
0
 10
83.7829360961914
 20
0.5885676741600037
 30
0.0
 11
83.67037963867188
 21
0.5544242262840271
 31
0.0
  0
LINE
  8
0
 10
83.56664276123047
 20
0.49897822737693787
 30
0.0
 11
83.67037963867188
 21
0.5544242262840271
 31
0.0
  0
LINE
  8
0
 10
83.56664276123047
 20
0.49897822737693787
 30
0.0
 11
83.47572326660156
 21
0.4243605434894562
 31
0.0
  0
LINE
  8
0
 10
83.40110778808594
 20
0.33343860507011414
 30
0.0
 11
83.47572326660156
 21
0.4243605434894562
 31
0.0
  0
LINE
  8
0
 10
83.40110778808594
 20
0.33343860507011414
 30
0.0
 11
83.34565734863281
 21
0.2297065407037735
 31
0.0
  0
LINE
  8
0
 10
83.31151580810547
 20
0.11715065687894821
 30
0.0
 11
83.34565734863281
 21
0.2297065407037735
 31
0.0
  0
LINE
  8
0
 10
83.31151580810547
 20
0.11715065687894821
 30
0.0
 11
83.29998779296875
 21
9.64667706284672e-05
 31
0.0
  0
LINE
  8
0
 10
83.31151580810547
 20
-0.11695773899555206
 30
0.0
 11
83.29998779296875
 21
9.64667706284672e-05
 31
0.0
  0
LINE
  8
0
 10
83.31151580810547
 20
-0.11695773899555206
 30
0.0
 11
83.34565734863281
 21
-0.22951361536979675
 31
0.0
  0
LINE
  8
0
 10
83.40110778808594
 20
-0.3332456946372986
 30
0.0
 11
83.34565734863281
 21
-0.22951361536979675
 31
0.0
  0
LINE
  8
0
 10
83.40110778808594
 20
-0.3332456946372986
 30
0.0
 11
83.47572326660156
 21
-0.42416757345199585
 31
0.0
  0
LINE
  8
0
 10
83.56664276123047
 20
-0.49878525733947754
 30
0.0
 11
83.47572326660156
 21
-0.42416757345199585
 31
0.0
  0
LINE
  8
0
 10
83.56664276123047
 20
-0.49878525733947754
 30
0.0
 11
83.67037963867188
 21
-0.5542312264442444
 31
0.0
  0
LINE
  8
0
 10
83.7829360961914
 20
-0.588374674320221
 30
0.0
 11
83.67037963867188
 21
-0.5542312264442444
 31
0.0
  0
LINE
  8
0
 10
83.89998626708984
 20
-0.5999035239219666
 30
0.0
 11
83.7829360961914
 21
-0.588374674320221
 31
0.0
  0
LINE
  8
0
 10
83.89998626708984
 20
-0.5999035239219666
 30
0.0
 11
84.01703643798828
 21
-0.588374674320221
 31
0.0
  0
LINE
  8
0
 10
84.01703643798828
 20
-0.588374674320221
 30
0.0
 11
84.12959289550781
 21
-0.5542312264442444
 31
0.0
  0
LINE
  8
0
 10
84.12959289550781
 20
-0.5542312264442444
 30
0.0
 11
84.23332977294922
 21
-0.49878525733947754
 31
0.0
  0
LINE
  8
0
 10
84.23332977294922
 20
-0.49878525733947754
 30
0.0
 11
84.32424926757812
 21
-0.4241675138473511
 31
0.0
  0
LINE
  8
0
 10
84.32424926757812
 20
-0.4241675138473511
 30
0.0
 11
84.39886474609375
 21
-0.3332456350326538
 31
0.0
  0
LINE
  8
0
 10
84.45431518554688
 20
-0.22951357066631317
 30
0.0
 11
84.39886474609375
 21
-0.3332456350326538
 31
0.0
  0
LINE
  8
0
 10
29.40109634399414
 20
-0.3332480192184448
 30
0.0
 11
29.47571563720703
 21
-0.4241699278354645
 31
0.0
  0
LINE
  8
0
 10
29.56663703918457
 20
-0.49878764152526855
 30
0.0
 11
29.47571563720703
 21
-0.4241699278354645
 31
0.0
  0
LINE
  8
0
 10
29.56663703918457
 20
-0.49878764152526855
 30
0.0
 11
29.67037010192871
 21
-0.5542336106300354
 31
0.0
  0
LINE
  8
0
 10
29.78292465209961
 20
-0.588377058506012
 30
0.0
 11
29.67037010192871
 21
-0.5542336106300354
 31
0.0
  0
LINE
  8
0
 10
29.899978637695312
 20
-0.5999059081077576
 30
0.0
 11
29.78292465209961
 21
-0.588377058506012
 31
0.0
  0
LINE
  8
0
 10
29.899978637695312
 20
-0.5999059081077576
 30
0.0
 11
30.017032623291016
 21
-0.5883769989013672
 31
0.0
  0
LINE
  8
0
 10
30.017032623291016
 20
-0.5883769989013672
 30
0.0
 11
30.129587173461914
 21
-0.5542335510253906
 31
0.0
  0
LINE
  8
0
 10
30.233320236206055
 20
-0.4987875819206238
 30
0.0
 11
30.129587173461914
 21
-0.5542335510253906
 31
0.0
  0
LINE
  8
0
 10
30.233320236206055
 20
-0.4987875819206238
 30
0.0
 11
30.324241638183594
 21
-0.4241698980331421
 31
0.0
  0
LINE
  8
0
 10
30.398860931396484
 20
-0.33324798941612244
 30
0.0
 11
30.324241638183594
 21
-0.4241698980331421
 31
0.0
  0
LINE
  8
0
 10
30.398860931396484
 20
-0.33324798941612244
 30
0.0
 11
30.454307556152344
 21
-0.2295159250497818
 31
0.0
  0
LINE
  8
0
 10
30.488449096679688
 20
-0.11696004122495651
 30
0.0
 11
30.454307556152344
 21
-0.2295159250497818
 31
0.0
  0
LINE
  8
0
 10
30.488449096679688
 20
-0.11696004122495651
 30
0.0
 11
30.49997901916504
 21
9.415880776941776e-05
 31
0.0
  0
LINE
  8
0
 10
30.488449096679688
 20
0.11714835464954376
 30
0.0
 11
30.49997901916504
 21
9.415880776941776e-05
 31
0.0
  0
LINE
  8
0
 10
30.488449096679688
 20
0.11714835464954376
 30
0.0
 11
30.454307556152344
 21
0.22970424592494965
 31
0.0
  0
LINE
  8
0
 10
30.398860931396484
 20
0.3334363102912903
 30
0.0
 11
30.454307556152344
 21
0.22970424592494965
 31
0.0
  0
LINE
  8
0
 10
30.398860931396484
 20
0.3334363102912903
 30
0.0
 11
30.324241638183594
 21
0.42435818910598755
 31
0.0
  0
LINE
  8
0
 10
30.233320236206055
 20
0.4989759027957916
 30
0.0
 11
30.324241638183594
 21
0.42435818910598755
 31
0.0
  0
LINE
  8
0
 10
30.233320236206055
 20
0.4989759027957916
 30
0.0
 11
30.129587173461914
 21
0.5544218420982361
 31
0.0
  0
LINE
  8
0
 10
30.017032623291016
 20
0.5885653495788574
 30
0.0
 11
30.129587173461914
 21
0.5544218420982361
 31
0.0
  0
LINE
  8
0
 10
29.899978637695312
 20
0.6000941395759583
 30
0.0
 11
30.017032623291016
 21
0.5885653495788574
 31
0.0
  0
LINE
  8
0
 10
29.899978637695312
 20
0.6000941395759583
 30
0.0
 11
29.78292465209961
 21
0.5885652899742126
 31
0.0
  0
LINE
  8
0
 10
29.78292465209961
 20
0.5885652899742126
 30
0.0
 11
29.67037010192871
 21
0.5544218420982361
 31
0.0
  0
LINE
  8
0
 10
29.56663703918457
 20
0.49897587299346924
 30
0.0
 11
29.67037010192871
 21
0.5544218420982361
 31
0.0
  0
LINE
  8
0
 10
29.56663703918457
 20
0.49897587299346924
 30
0.0
 11
29.47571563720703
 21
0.42435815930366516
 31
0.0
  0
LINE
  8
0
 10
84.48845672607422
 20
0.11715071648359299
 30
0.0
 11
84.45431518554688
 21
0.22970658540725708
 31
0.0
  0
LINE
  8
0
 10
84.48845672607422
 20
-0.11695767939090729
 30
0.0
 11
84.45431518554688
 21
-0.22951357066631317
 31
0.0
  0
LINE
  8
0
 10
84.48845672607422
 20
-0.11695767939090729
 30
0.0
 11
84.49998474121094
 21
9.651923028286546e-05
 31
0.0
  0
LINE
  8
0
 10
84.48845672607422
 20
0.11715071648359299
 30
0.0
 11
84.49998474121094
 21
9.651923028286546e-05
 31
0.0
  0
LINE
  8
0
 10
93.39997863769531
 20
5.500145435333252
 30
0.0
 11
22.899982452392578
 21
5.5001420974731445
 31
0.0
  0
LINE
  8
0
 10
22.899982452392578
 20
5.5001420974731445
 30
0.0
 11
22.899982452392578
 21
15.500144958496094
 31
0.0
  0
LINE
  8
0
 10
93.39997863769531
 20
15.500147819519043
 30
0.0
 11
22.899982452392578
 21
15.500144958496094
 31
0.0
  0
LINE
  8
0
 10
93.39997863769531
 20
5.500145435333252
 30
0.0
 11
93.39997863769531
 21
15.500147819519043
 31
0.0
  0
LINE
  8
0
 10
29.40109634399414
 20
10.166801452636719
 30
0.0
 11
29.34564971923828
 21
10.270533561706543
 31
0.0
  0
LINE
  8
0
 10
29.40109634399414
 20
10.833486557006836
 30
0.0
 11
29.34564971923828
 21
10.729753494262695
 31
0.0
  0
LINE
  8
0
 10
29.311508178710938
 20
10.61719799041748
 30
0.0
 11
29.34564971923828
 21
10.729753494262695
 31
0.0
  0
LINE
  8
0
 10
29.311508178710938
 20
10.61719799041748
 30
0.0
 11
29.299978256225586
 21
10.500143051147461
 31
0.0
  0
LINE
  8
0
 10
29.311508178710938
 20
10.383090019226074
 30
0.0
 11
29.299978256225586
 21
10.500143051147461
 31
0.0
  0
LINE
  8
0
 10
29.311508178710938
 20
10.383090019226074
 30
0.0
 11
29.34564971923828
 21
10.270533561706543
 31
0.0
  0
LINE
  8
0
 10
29.40109634399414
 20
10.833486557006836
 30
0.0
 11
29.47571563720703
 21
10.924407958984375
 31
0.0
  0
LINE
  8
0
 10
84.39886474609375
 20
10.833488464355469
 30
0.0
 11
84.45431518554688
 21
10.729756355285645
 31
0.0
  0
LINE
  8
0
 10
84.39886474609375
 20
10.833488464355469
 30
0.0
 11
84.32424926757812
 21
10.924409866333008
 31
0.0
  0
LINE
  8
0
 10
84.23332977294922
 20
10.999027252197266
 30
0.0
 11
84.32424926757812
 21
10.924409866333008
 31
0.0
  0
LINE
  8
0
 10
84.23332977294922
 20
10.999027252197266
 30
0.0
 11
84.12959289550781
 21
11.054473876953125
 31
0.0
  0
LINE
  8
0
 10
84.01703643798828
 20
11.088617324829102
 30
0.0
 11
84.12959289550781
 21
11.054473876953125
 31
0.0
  0
LINE
  8
0
 10
83.89998626708984
 20
11.100146293640137
 30
0.0
 11
84.01703643798828
 21
11.088617324829102
 31
0.0
  0
LINE
  8
0
 10
83.89998626708984
 20
11.100146293640137
 30
0.0
 11
83.7829360961914
 21
11.088617324829102
 31
0.0
  0
LINE
  8
0
 10
83.7829360961914
 20
11.088617324829102
 30
0.0
 11
83.67037963867188
 21
11.054473876953125
 31
0.0
  0
LINE
  8
0
 10
83.56664276123047
 20
10.999027252197266
 30
0.0
 11
83.67037963867188
 21
11.054473876953125
 31
0.0
  0
LINE
  8
0
 10
83.56664276123047
 20
10.999027252197266
 30
0.0
 11
83.47572326660156
 21
10.924409866333008
 31
0.0
  0
LINE
  8
0
 10
83.40110778808594
 20
10.833488464355469
 30
0.0
 11
83.47572326660156
 21
10.924409866333008
 31
0.0
  0
LINE
  8
0
 10
83.40110778808594
 20
10.833488464355469
 30
0.0
 11
83.34565734863281
 21
10.729756355285645
 31
0.0
  0
LINE
  8
0
 10
83.31151580810547
 20
10.617199897766113
 30
0.0
 11
83.34565734863281
 21
10.729756355285645
 31
0.0
  0
LINE
  8
0
 10
83.31151580810547
 20
10.617199897766113
 30
0.0
 11
83.29998779296875
 21
10.50014591217041
 31
0.0
  0
LINE
  8
0
 10
83.31151580810547
 20
10.383091926574707
 30
0.0
 11
83.29998779296875
 21
10.50014591217041
 31
0.0
  0
LINE
  8
0
 10
83.31151580810547
 20
10.383091926574707
 30
0.0
 11
83.34565734863281
 21
10.270536422729492
 31
0.0
  0
LINE
  8
0
 10
83.40110778808594
 20
10.166803359985352
 30
0.0
 11
83.34565734863281
 21
10.270536422729492
 31
0.0
  0
LINE
  8
0
 10
83.40110778808594
 20
10.166803359985352
 30
0.0
 11
83.47572326660156
 21
10.075881958007812
 31
0.0
  0
LINE
  8
0
 10
83.56664276123047
 20
10.001264572143555
 30
0.0
 11
83.47572326660156
 21
10.075881958007812
 31
0.0
  0
LINE
  8
0
 10
83.56664276123047
 20
10.001264572143555
 30
0.0
 11
83.67037963867188
 21
9.945817947387695
 31
0.0
  0
LINE
  8
0
 10
83.7829360961914
 20
9.911675453186035
 30
0.0
 11
83.67037963867188
 21
9.945817947387695
 31
0.0
  0
LINE
  8
0
 10
83.89998626708984
 20
9.900145530700684
 30
0.0
 11
83.7829360961914
 21
9.911675453186035
 31
0.0
  0
LINE
  8
0
 10
83.89998626708984
 20
9.900145530700684
 30
0.0
 11
84.01703643798828
 21
9.911675453186035
 31
0.0
  0
LINE
  8
0
 10
84.01703643798828
 20
9.911675453186035
 30
0.0
 11
84.12959289550781
 21
9.945817947387695
 31
0.0
  0
LINE
  8
0
 10
84.12959289550781
 20
9.945817947387695
 30
0.0
 11
84.23332977294922
 21
10.001264572143555
 31
0.0
  0
LINE
  8
0
 10
84.23332977294922
 20
10.001264572143555
 30
0.0
 11
84.32424926757812
 21
10.075881958007812
 31
0.0
  0
LINE
  8
0
 10
84.32424926757812
 20
10.075881958007812
 30
0.0
 11
84.39886474609375
 21
10.166803359985352
 31
0.0
  0
LINE
  8
0
 10
84.45431518554688
 20
10.270536422729492
 30
0.0
 11
84.39886474609375
 21
10.166803359985352
 31
0.0
  0
LINE
  8
0
 10
29.40109634399414
 20
10.166801452636719
 30
0.0
 11
29.47571563720703
 21
10.07588005065918
 31
0.0
  0
LINE
  8
0
 10
29.56663703918457
 20
10.001262664794922
 30
0.0
 11
29.47571563720703
 21
10.07588005065918
 31
0.0
  0
LINE
  8
0
 10
29.56663703918457
 20
10.001262664794922
 30
0.0
 11
29.67037010192871
 21
9.945816040039062
 31
0.0
  0
LINE
  8
0
 10
29.78292465209961
 20
9.911672592163086
 30
0.0
 11
29.67037010192871
 21
9.945816040039062
 31
0.0
  0
LINE
  8
0
 10
29.899978637695312
 20
9.90014362335205
 30
0.0
 11
29.78292465209961
 21
9.911672592163086
 31
0.0
  0
LINE
  8
0
 10
29.899978637695312
 20
9.90014362335205
 30
0.0
 11
30.017032623291016
 21
9.911672592163086
 31
0.0
  0
LINE
  8
0
 10
30.017032623291016
 20
9.911672592163086
 30
0.0
 11
30.129587173461914
 21
9.945816040039062
 31
0.0
  0
LINE
  8
0
 10
30.233320236206055
 20
10.001262664794922
 30
0.0
 11
30.129587173461914
 21
9.945816040039062
 31
0.0
  0
LINE
  8
0
 10
30.233320236206055
 20
10.001262664794922
 30
0.0
 11
30.324241638183594
 21
10.07588005065918
 31
0.0
  0
LINE
  8
0
 10
30.398860931396484
 20
10.166801452636719
 30
0.0
 11
30.324241638183594
 21
10.07588005065918
 31
0.0
  0
LINE
  8
0
 10
30.398860931396484
 20
10.166801452636719
 30
0.0
 11
30.454307556152344
 21
10.270533561706543
 31
0.0
  0
LINE
  8
0
 10
30.488449096679688
 20
10.383090019226074
 30
0.0
 11
30.454307556152344
 21
10.270533561706543
 31
0.0
  0
LINE
  8
0
 10
30.488449096679688
 20
10.383090019226074
 30
0.0
 11
30.49997901916504
 21
10.500143051147461
 31
0.0
  0
LINE
  8
0
 10
30.488449096679688
 20
10.61719799041748
 30
0.0
 11
30.49997901916504
 21
10.500143051147461
 31
0.0
  0
LINE
  8
0
 10
30.488449096679688
 20
10.61719799041748
 30
0.0
 11
30.454307556152344
 21
10.729753494262695
 31
0.0
  0
LINE
  8
0
 10
30.398860931396484
 20
10.833486557006836
 30
0.0
 11
30.454307556152344
 21
10.729753494262695
 31
0.0
  0
LINE
  8
0
 10
30.398860931396484
 20
10.833486557006836
 30
0.0
 11
30.324241638183594
 21
10.924407958984375
 31
0.0
  0
LINE
  8
0
 10
30.233320236206055
 20
10.999025344848633
 30
0.0
 11
30.324241638183594
 21
10.924407958984375
 31
0.0
  0
LINE
  8
0
 10
30.233320236206055
 20
10.999025344848633
 30
0.0
 11
30.129587173461914
 21
11.054471015930176
 31
0.0
  0
LINE
  8
0
 10
30.017032623291016
 20
11.088614463806152
 30
0.0
 11
30.129587173461914
 21
11.054471015930176
 31
0.0
  0
LINE
  8
0
 10
29.899978637695312
 20
11.100144386291504
 30
0.0
 11
30.017032623291016
 21
11.088614463806152
 31
0.0
  0
LINE
  8
0
 10
29.899978637695312
 20
11.100144386291504
 30
0.0
 11
29.78292465209961
 21
11.088614463806152
 31
0.0
  0
LINE
  8
0
 10
29.78292465209961
 20
11.088614463806152
 30
0.0
 11
29.67037010192871
 21
11.054471015930176
 31
0.0
  0
LINE
  8
0
 10
29.56663703918457
 20
10.999025344848633
 30
0.0
 11
29.67037010192871
 21
11.054471015930176
 31
0.0
  0
LINE
  8
0
 10
29.56663703918457
 20
10.999025344848633
 30
0.0
 11
29.47571563720703
 21
10.924407958984375
 31
0.0
  0
LINE
  8
0
 10
84.48845672607422
 20
10.617199897766113
 30
0.0
 11
84.45431518554688
 21
10.729756355285645
 31
0.0
  0
LINE
  8
0
 10
84.48845672607422
 20
10.383091926574707
 30
0.0
 11
84.45431518554688
 21
10.270536422729492
 31
0.0
  0
LINE
  8
0
 10
84.48845672607422
 20
10.383091926574707
 30
0.0
 11
84.49998474121094
 21
10.500146865844727
 31
0.0
  0
LINE
  8
0
 10
84.48845672607422
 20
10.617199897766113
 30
0.0
 11
84.49998474121094
 21
10.500146865844727
 31
0.0
  0
ENDSEC
  0
EOF
