  0
SECTION
  2
HEADER
  9
$ACADVER
  1
AC1009
  9
$INSBASE
 10
0.0
 20
0.0
 30
0.0
  9
$EXTMIN
 10
0.0
 20
0.0
 30
0.0
  9
$EXTMAX
 10
0.0
 20
0.0
 30
0.0
  0
ENDSEC
  0
SECTION
  2
TABLES
  0
TABLE
  2
VPORT
 70
1
  0
VPORT
  2
*ACTIVE
 70
0
 10
0.0
 20
0.0
 11
1.0
 21
1.0
 12
-5.0
 22
1.0
 13
0.0
 23
0.0
 14
0.1
 24
0.1
 15
0.1
 25
0.1
 16
0.0
 26
0.0
 36
1.0
 17
0.0
 27
0.0
 37
0.0
 40
10.0
 41
1.0
 42
50.0
 43
0.0
 44
0.0
 50
0.0
 51
0.0
 71
0
 72
100
 73
1
 74
1
 75
0
 76
0
 77
0
 78
0
  0
ENDTAB
  0
TABLE
  2
LTYPE
 70
8
  0
LTYPE
  2
CONTINUOUS
 70
0
  3
Solid line
 72
65
 73
0
 40
0.0
  0
LTYPE
  2
DOT
 70
0
  3
. . . . . . .
 72
65
 73
2
 40
0.25
 49
0.0
 49
-0.25
  0
LTYPE
  2
DASHED
 70
0
  3
__ __ __ __ __
 72
65
 73
2
 40
0.8
 49
0.5
 49
-0.3
  0
LTYPE
  2
DASHDOT
 70
0
  3
__ . __ . __ .
 72
65
 73
4
 40
1.0
 49
0.5
 49
-0.25
 49
0.0
 49
-0.25
  0
LTYPE
  2
DIVIDE
 70
0
  3
____ . . ____ . . 
 72
65
 73
6
 40
1.25
 49
0.5
 49
-0.25
 49
0.0
 49
-0.25
 49
0.0
 49
-0.25
  0
LTYPE
  2
BORDER
 70
0
  3
__ __ . __ __ . 
 72
65
 73
6
 40
1.75
 49
0.5
 49
-0.25
 49
0.5
 49
-0.25
 49
0.0
 49
-0.25
  0
LTYPE
  2
HIDDEN
 70
0
  3
__ __ __ __ __
 72
65
 73
2
 40
0.4
 49
0.25
 49
-0.25
  0
LTYPE
  2
CENTER
 70
0
  3
____ _ ____ _ __
 72
65
 73
4
 40
2.0
 49
1.25
 49
-0.25
 49
0.25
 49
-0.25
  0
ENDTAB
  0
TABLE
  2
LAYER
 70
1
  0
LAYER
  2
PYDXF
 70
64
 62
7
  6
continuous
  0
ENDTAB
  0
TABLE
  2
STYLE
 70
1
  0
STYLE
  2
STANDARD
 70
0
 40
0
 41
1.0
 50
0.0
 71
0
 42
1
 3
ARIAL.TTF
 4

  0
ENDTAB
  0
TABLE
  2
VIEW
 70
1
  0
VIEW
  2
BF_TOPVIEW
 70
0
 40
120.0
 10
0.0
 20
0.0
 41
200.0
 11
0.0
 21
0.0
 31
1.0
 12
0.0
 22
0.0
 32
0.0
 42
50.0
 43
0.0
 44
0.0
 50
0.0
 71
0
  0
ENDTAB
  0
ENDSEC
  0
SECTION
  2
BLOCKS
  0
ENDSEC
  0
SECTION
  2
ENTITIES
  0
LINE
  8
0
 10
-122.0
 20
-61.0
 30
0.0
 11
-122.0
 21
61.0
 31
0.0
  0
LINE
  8
0
 10
-122.0
 20
-61.0
 30
0.0
 11
122.0
 21
-61.0
 31
0.0
  0
LINE
  8
0
 10
122.0
 20
-61.0
 30
0.0
 11
122.0
 21
61.0
 31
0.0
  0
LINE
  8
0
 10
-122.0
 20
61.0
 30
0.0
 11
122.0
 21
61.0
 31
0.0
  0
LINE
  8
0
 10
-88.00001525878906
 20
-7.499909400939941
 30
0.0
 11
-82.00000762939453
 21
-7.499909400939941
 31
0.0
  0
LINE
  8
0
 10
-82.00000762939453
 20
15.500092506408691
 30
0.0
 11
-88.00001525878906
 21
15.500092506408691
 31
0.0
  0
LINE
  8
0
 10
-88.00001525878906
 20
-7.499909400939941
 30
0.0
 11
-88.00001525878906
 21
-5.4999098777771
 31
0.0
  0
LINE
  8
0
 10
-82.00000762939453
 20
-7.499909400939941
 30
0.0
 11
-82.00000762939453
 21
-5.4999098777771
 31
0.0
  0
LINE
  8
0
 10
-96.50001525878906
 20
7.000093936920166
 30
0.0
 11
-96.50001525878906
 21
1.000087857246399
 31
0.0
  0
LINE
  8
0
 10
-73.50001525878906
 20
1.0000890493392944
 30
0.0
 11
-73.50001525878906
 21
7.000095367431641
 31
0.0
  0
LINE
  8
0
 10
-94.50001525878906
 20
13.500091552734375
 30
0.0
 11
-94.50001525878906
 21
7.000094413757324
 31
0.0
  0
LINE
  8
0
 10
-94.50001525878906
 20
1.000088095664978
 30
0.0
 11
-94.50001525878906
 21
-5.499910354614258
 31
0.0
  0
LINE
  8
0
 10
-88.00001525878906
 20
15.500092506408691
 30
0.0
 11
-88.00001525878906
 21
13.500092506408691
 31
0.0
  0
LINE
  8
0
 10
-82.00000762939453
 20
15.500092506408691
 30
0.0
 11
-82.00000762939453
 21
13.500092506408691
 31
0.0
  0
LINE
  8
0
 10
-75.50001525878906
 20
13.500094413757324
 30
0.0
 11
-75.50001525878906
 21
7.000094413757324
 31
0.0
  0
LINE
  8
0
 10
-75.50001525878906
 20
1.0000888109207153
 30
0.0
 11
-75.50001525878906
 21
-5.499908924102783
 31
0.0
  0
LINE
  8
0
 10
-82.00000762939453
 20
-5.4999098777771
 30
0.0
 11
-75.50001525878906
 21
-5.499908924102783
 31
0.0
  0
LINE
  8
0
 10
-82.00000762939453
 20
13.500092506408691
 30
0.0
 11
-75.50001525878906
 21
13.500094413757324
 31
0.0
  0
LINE
  8
0
 10
-94.50001525878906
 20
-5.499910354614258
 30
0.0
 11
-88.00001525878906
 21
-5.4999098777771
 31
0.0
  0
LINE
  8
0
 10
-94.50001525878906
 20
13.500091552734375
 30
0.0
 11
-88.00001525878906
 21
13.500092506408691
 31
0.0
  0
LINE
  8
0
 10
-96.50001525878906
 20
1.000087857246399
 30
0.0
 11
-94.50001525878906
 21
1.000088095664978
 31
0.0
  0
LINE
  8
0
 10
-96.50001525878906
 20
7.000093936920166
 30
0.0
 11
-94.50001525878906
 21
7.000094413757324
 31
0.0
  0
LINE
  8
0
 10
-73.50001525878906
 20
1.0000890493392944
 30
0.0
 11
-75.50001525878906
 21
1.0000888109207153
 31
0.0
  0
LINE
  8
0
 10
-73.50001525878906
 20
7.000095367431641
 30
0.0
 11
-75.50001525878906
 21
7.000094413757324
 31
0.0
  0
LINE
  8
0
 10
-41.000003814697266
 20
0.00011324882507324219
 30
0.0
 11
-63.500003814697266
 21
0.00011324882507324219
 31
0.0
  0
LINE
  8
0
 10
-41.000003814697266
 20
60.00011444091797
 30
0.0
 11
-41.000003814697266
 21
0.00011324882507324219
 31
0.0
  0
LINE
  8
0
 10
-121.0
 20
60.00011444091797
 30
0.0
 11
-121.0
 21
0.00011324882507324219
 31
0.0
  0
LINE
  8
0
 10
-121.0
 20
0.00011324882507324219
 30
0.0
 11
-98.50000762939453
 21
0.00011324882507324219
 31
0.0
  0
LINE
  8
0
 10
-63.500003814697266
 20
17.500120162963867
 30
0.0
 11
-98.50000762939453
 21
17.500118255615234
 31
0.0
  0
LINE
  8
0
 10
-63.500003814697266
 20
0.00011324882507324219
 30
0.0
 11
-63.500003814697266
 21
17.500120162963867
 31
0.0
  0
LINE
  8
0
 10
-98.50000762939453
 20
0.00011324882507324219
 30
0.0
 11
-98.50000762939453
 21
17.500118255615234
 31
0.0
  0
LINE
  8
0
 10
-121.0
 20
60.00011444091797
 30
0.0
 11
-41.000003814697266
 21
60.00011444091797
 31
0.0
  0
LINE
  8
0
 10
110.49999237060547
 20
42.0001220703125
 30
0.0
 11
39.999996185302734
 21
42.0001220703125
 31
0.0
  0
LINE
  8
0
 10
39.999996185302734
 20
42.0001220703125
 30
0.0
 11
39.999996185302734
 21
52.0001220703125
 31
0.0
  0
LINE
  8
0
 10
110.49999237060547
 20
52.0001220703125
 30
0.0
 11
39.999996185302734
 21
52.0001220703125
 31
0.0
  0
LINE
  8
0
 10
110.49999237060547
 20
42.0001220703125
 30
0.0
 11
110.49999237060547
 21
52.0001220703125
 31
0.0
  0
LINE
  8
0
 10
46.5011100769043
 20
46.666778564453125
 30
0.0
 11
46.44566345214844
 21
46.770511627197266
 31
0.0
  0
LINE
  8
0
 10
46.5011100769043
 20
47.333465576171875
 30
0.0
 11
46.44566345214844
 21
47.229732513427734
 31
0.0
  0
LINE
  8
0
 10
46.411521911621094
 20
47.11717224121094
 30
0.0
 11
46.44566345214844
 21
47.229732513427734
 31
0.0
  0
LINE
  8
0
 10
46.411521911621094
 20
47.11717224121094
 30
0.0
 11
46.39999008178711
 21
47.0001220703125
 31
0.0
  0
LINE
  8
0
 10
46.411521911621094
 20
46.8830680847168
 30
0.0
 11
46.39999008178711
 21
47.0001220703125
 31
0.0
  0
LINE
  8
0
 10
46.411521911621094
 20
46.8830680847168
 30
0.0
 11
46.44566345214844
 21
46.770511627197266
 31
0.0
  0
LINE
  8
0
 10
46.5011100769043
 20
47.333465576171875
 30
0.0
 11
46.57572937011719
 21
47.42438507080078
 31
0.0
  0
LINE
  8
0
 10
101.4988784790039
 20
47.333465576171875
 30
0.0
 11
101.5543212890625
 21
47.229732513427734
 31
0.0
  0
LINE
  8
0
 10
101.4988784790039
 20
47.333465576171875
 30
0.0
 11
101.42426300048828
 21
47.42438888549805
 31
0.0
  0
LINE
  8
0
 10
101.33334350585938
 20
47.49900436401367
 30
0.0
 11
101.42426300048828
 21
47.42438888549805
 31
0.0
  0
LINE
  8
0
 10
101.33334350585938
 20
47.49900436401367
 30
0.0
 11
101.22960662841797
 21
47.55445098876953
 31
0.0
  0
LINE
  8
0
 10
101.11705017089844
 20
47.58859634399414
 30
0.0
 11
101.22960662841797
 21
47.55445098876953
 31
0.0
  0
LINE
  8
0
 10
101.0
 20
47.60012435913086
 30
0.0
 11
101.11705017089844
 21
47.58859634399414
 31
0.0
  0
LINE
  8
0
 10
101.0
 20
47.60012435913086
 30
0.0
 11
100.88294982910156
 21
47.58859634399414
 31
0.0
  0
LINE
  8
0
 10
100.88294982910156
 20
47.58859634399414
 30
0.0
 11
100.77039337158203
 21
47.55445098876953
 31
0.0
  0
LINE
  8
0
 10
100.66665649414062
 20
47.49900436401367
 30
0.0
 11
100.77039337158203
 21
47.55445098876953
 31
0.0
  0
LINE
  8
0
 10
100.66665649414062
 20
47.49900436401367
 30
0.0
 11
100.57572937011719
 21
47.42438888549805
 31
0.0
  0
LINE
  8
0
 10
100.5011215209961
 20
47.333465576171875
 30
0.0
 11
100.57572937011719
 21
47.42438888549805
 31
0.0
  0
LINE
  8
0
 10
100.5011215209961
 20
47.333465576171875
 30
0.0
 11
100.4456787109375
 21
47.229732513427734
 31
0.0
  0
LINE
  8
0
 10
100.41153717041016
 20
47.1171760559082
 30
0.0
 11
100.4456787109375
 21
47.229732513427734
 31
0.0
  0
LINE
  8
0
 10
100.41153717041016
 20
47.1171760559082
 30
0.0
 11
100.39999389648438
 21
47.0001220703125
 31
0.0
  0
LINE
  8
0
 10
100.41153717041016
 20
46.8830680847168
 30
0.0
 11
100.39999389648438
 21
47.0001220703125
 31
0.0
  0
LINE
  8
0
 10
100.41153717041016
 20
46.8830680847168
 30
0.0
 11
100.4456787109375
 21
46.770511627197266
 31
0.0
  0
LINE
  8
0
 10
100.5011215209961
 20
46.666778564453125
 30
0.0
 11
100.4456787109375
 21
46.770511627197266
 31
0.0
  0
LINE
  8
0
 10
100.5011215209961
 20
46.666778564453125
 30
0.0
 11
100.57572937011719
 21
46.57585906982422
 31
0.0
  0
LINE
  8
0
 10
100.66665649414062
 20
46.50123977661133
 30
0.0
 11
100.57572937011719
 21
46.57585906982422
 31
0.0
  0
LINE
  8
0
 10
100.66665649414062
 20
46.50123977661133
 30
0.0
 11
100.77039337158203
 21
46.445796966552734
 31
0.0
  0
LINE
  8
0
 10
100.88294982910156
 20
46.411651611328125
 30
0.0
 11
100.77039337158203
 21
46.445796966552734
 31
0.0
  0
LINE
  8
0
 10
101.0
 20
46.400123596191406
 30
0.0
 11
100.88294982910156
 21
46.411651611328125
 31
0.0
  0
LINE
  8
0
 10
101.0
 20
46.400123596191406
 30
0.0
 11
101.11705017089844
 21
46.411651611328125
 31
0.0
  0
LINE
  8
0
 10
101.11705017089844
 20
46.411651611328125
 30
0.0
 11
101.22960662841797
 21
46.445796966552734
 31
0.0
  0
LINE
  8
0
 10
101.22960662841797
 20
46.445796966552734
 30
0.0
 11
101.33334350585938
 21
46.50123977661133
 31
0.0
  0
LINE
  8
0
 10
101.33334350585938
 20
46.50123977661133
 30
0.0
 11
101.42426300048828
 21
46.57585906982422
 31
0.0
  0
LINE
  8
0
 10
101.42426300048828
 20
46.57585906982422
 30
0.0
 11
101.4988784790039
 21
46.666778564453125
 31
0.0
  0
LINE
  8
0
 10
101.5543212890625
 20
46.770511627197266
 30
0.0
 11
101.4988784790039
 21
46.666778564453125
 31
0.0
  0
LINE
  8
0
 10
46.5011100769043
 20
46.666778564453125
 30
0.0
 11
46.57572937011719
 21
46.57585525512695
 31
0.0
  0
LINE
  8
0
 10
46.666648864746094
 20
46.50123977661133
 30
0.0
 11
46.57572937011719
 21
46.57585525512695
 31
0.0
  0
LINE
  8
0
 10
46.666648864746094
 20
46.50123977661133
 30
0.0
 11
46.770381927490234
 21
46.44579315185547
 31
0.0
  0
LINE
  8
0
 10
46.8829345703125
 20
46.41164779663086
 30
0.0
 11
46.770381927490234
 21
46.44579315185547
 31
0.0
  0
LINE
  8
0
 10
46.99999237060547
 20
46.40011978149414
 30
0.0
 11
46.8829345703125
 21
46.41164779663086
 31
0.0
  0
LINE
  8
0
 10
46.99999237060547
 20
46.40011978149414
 30
0.0
 11
47.11704635620117
 21
46.41164779663086
 31
0.0
  0
LINE
  8
0
 10
47.11704635620117
 20
46.41164779663086
 30
0.0
 11
47.22959899902344
 21
46.44579315185547
 31
0.0
  0
LINE
  8
0
 10
47.33333206176758
 20
46.50123977661133
 30
0.0
 11
47.22959899902344
 21
46.44579315185547
 31
0.0
  0
LINE
  8
0
 10
47.33333206176758
 20
46.50123977661133
 30
0.0
 11
47.42425537109375
 21
46.57585525512695
 31
0.0
  0
LINE
  8
0
 10
47.49887466430664
 20
46.666778564453125
 30
0.0
 11
47.42425537109375
 21
46.57585525512695
 31
0.0
  0
LINE
  8
0
 10
47.49887466430664
 20
46.666778564453125
 30
0.0
 11
47.5543212890625
 21
46.770511627197266
 31
0.0
  0
LINE
  8
0
 10
47.588462829589844
 20
46.8830680847168
 30
0.0
 11
47.5543212890625
 21
46.770511627197266
 31
0.0
  0
LINE
  8
0
 10
47.588462829589844
 20
46.8830680847168
 30
0.0
 11
47.59999084472656
 21
47.0001220703125
 31
0.0
  0
LINE
  8
0
 10
47.588462829589844
 20
47.11717224121094
 30
0.0
 11
47.59999084472656
 21
47.0001220703125
 31
0.0
  0
LINE
  8
0
 10
47.588462829589844
 20
47.11717224121094
 30
0.0
 11
47.5543212890625
 21
47.229732513427734
 31
0.0
  0
LINE
  8
0
 10
47.49887466430664
 20
47.333465576171875
 30
0.0
 11
47.5543212890625
 21
47.229732513427734
 31
0.0
  0
LINE
  8
0
 10
47.49887466430664
 20
47.333465576171875
 30
0.0
 11
47.42425537109375
 21
47.42438507080078
 31
0.0
  0
LINE
  8
0
 10
47.33333206176758
 20
47.49900436401367
 30
0.0
 11
47.42425537109375
 21
47.42438507080078
 31
0.0
  0
LINE
  8
0
 10
47.33333206176758
 20
47.49900436401367
 30
0.0
 11
47.22959899902344
 21
47.554447174072266
 31
0.0
  0
LINE
  8
0
 10
47.11704635620117
 20
47.588592529296875
 30
0.0
 11
47.22959899902344
 21
47.554447174072266
 31
0.0
  0
LINE
  8
0
 10
46.99999237060547
 20
47.600120544433594
 30
0.0
 11
47.11704635620117
 21
47.588592529296875
 31
0.0
  0
LINE
  8
0
 10
46.99999237060547
 20
47.600120544433594
 30
0.0
 11
46.8829345703125
 21
47.588592529296875
 31
0.0
  0
LINE
  8
0
 10
46.8829345703125
 20
47.588592529296875
 30
0.0
 11
46.770381927490234
 21
47.554447174072266
 31
0.0
  0
LINE
  8
0
 10
46.666648864746094
 20
47.49900436401367
 30
0.0
 11
46.770381927490234
 21
47.554447174072266
 31
0.0
  0
LINE
  8
0
 10
46.666648864746094
 20
47.49900436401367
 30
0.0
 11
46.57572937011719
 21
47.42438507080078
 31
0.0
  0
LINE
  8
0
 10
101.58846282958984
 20
47.1171760559082
 30
0.0
 11
101.5543212890625
 21
47.229732513427734
 31
0.0
  0
LINE
  8
0
 10
101.58846282958984
 20
46.88307189941406
 30
0.0
 11
101.5543212890625
 21
46.770511627197266
 31
0.0
  0
LINE
  8
0
 10
101.58846282958984
 20
46.88307189941406
 30
0.0
 11
101.60000610351562
 21
47.0001220703125
 31
0.0
  0
LINE
  8
0
 10
101.58846282958984
 20
47.1171760559082
 30
0.0
 11
101.60000610351562
 21
47.0001220703125
 31
0.0
  0
LINE
  8
0
 10
-121.0
 20
-0.5000323057174683
 30
0.0
 11
-98.50000762939453
 21
-0.5000293254852295
 31
0.0
  0
LINE
  8
0
 10
-41.000003814697266
 20
-0.5000263452529907
 30
0.0
 11
-63.500003814697266
 21
-0.5000293254852295
 31
0.0
  0
LINE
  8
0
 10
-98.50000762939453
 20
-18.000036239624023
 30
0.0
 11
-63.500003814697266
 21
-18.00003433227539
 31
0.0
  0
LINE
  8
0
 10
-98.50000762939453
 20
-0.5000293254852295
 30
0.0
 11
-98.50000762939453
 21
-18.000036239624023
 31
0.0
  0
LINE
  8
0
 10
-63.500003814697266
 20
-0.5000293254852295
 30
0.0
 11
-63.500003814697266
 21
-18.00003433227539
 31
0.0
  0
LINE
  8
0
 10
-41.000003814697266
 20
-60.50002670288086
 30
0.0
 11
-41.000003814697266
 21
-0.5000263452529907
 31
0.0
  0
LINE
  8
0
 10
-41.000003814697266
 20
-60.50002670288086
 30
0.0
 11
-121.0
 21
-60.500038146972656
 31
0.0
  0
LINE
  8
0
 10
-121.0
 20
-60.500038146972656
 30
0.0
 11
-121.0
 21
-0.5000323057174683
 31
0.0
  0
LINE
  8
0
 10
110.49999237060547
 20
1.9371509552001953e-05
 30
0.0
 11
39.999996185302734
 21
1.6391277313232422e-05
 31
0.0
  0
LINE
  8
0
 10
39.999996185302734
 20
1.6391277313232422e-05
 30
0.0
 11
39.999996185302734
 21
10.000019073486328
 31
0.0
  0
LINE
  8
0
 10
110.49999237060547
 20
10.000021934509277
 30
0.0
 11
39.999996185302734
 21
10.000019073486328
 31
0.0
  0
LINE
  8
0
 10
110.49999237060547
 20
1.9371509552001953e-05
 30
0.0
 11
110.49999237060547
 21
10.000021934509277
 31
0.0
  0
LINE
  8
0
 10
46.5011100769043
 20
4.666675567626953
 30
0.0
 11
46.44566345214844
 21
4.770407676696777
 31
0.0
  0
LINE
  8
0
 10
46.5011100769043
 20
5.333359718322754
 30
0.0
 11
46.44566345214844
 21
5.229628086090088
 31
0.0
  0
LINE
  8
0
 10
46.411521911621094
 20
5.117072105407715
 30
0.0
 11
46.44566345214844
 21
5.229628086090088
 31
0.0
  0
LINE
  8
0
 10
46.411521911621094
 20
5.117072105407715
 30
0.0
 11
46.39999008178711
 21
5.000018119812012
 31
0.0
  0
LINE
  8
0
 10
46.411521911621094
 20
4.88296365737915
 30
0.0
 11
46.39999008178711
 21
5.000018119812012
 31
0.0
  0
LINE
  8
0
 10
46.411521911621094
 20
4.88296365737915
 30
0.0
 11
46.44566345214844
 21
4.770407676696777
 31
0.0
  0
LINE
  8
0
 10
46.5011100769043
 20
5.333359718322754
 30
0.0
 11
46.57572937011719
 21
5.424282073974609
 31
0.0
  0
LINE
  8
0
 10
101.4988784790039
 20
5.333362579345703
 30
0.0
 11
101.5543212890625
 21
5.229630470275879
 31
0.0
  0
LINE
  8
0
 10
101.4988784790039
 20
5.333362579345703
 30
0.0
 11
101.42426300048828
 21
5.424283981323242
 31
0.0
  0
LINE
  8
0
 10
101.33334350585938
 20
5.498901844024658
 30
0.0
 11
101.42426300048828
 21
5.424283981323242
 31
0.0
  0
LINE
  8
0
 10
101.33334350585938
 20
5.498901844024658
 30
0.0
 11
101.22960662841797
 21
5.554347991943359
 31
0.0
  0
LINE
  8
0
 10
101.11705017089844
 20
5.588491439819336
 30
0.0
 11
101.22960662841797
 21
5.554347991943359
 31
0.0
  0
LINE
  8
0
 10
101.0
 20
5.600020408630371
 30
0.0
 11
101.11705017089844
 21
5.588491439819336
 31
0.0
  0
LINE
  8
0
 10
101.0
 20
5.600020408630371
 30
0.0
 11
100.88294982910156
 21
5.588491439819336
 31
0.0
  0
LINE
  8
0
 10
100.88294982910156
 20
5.588491439819336
 30
0.0
 11
100.77039337158203
 21
5.554347991943359
 31
0.0
  0
LINE
  8
0
 10
100.66665649414062
 20
5.498901844024658
 30
0.0
 11
100.77039337158203
 21
5.554347991943359
 31
0.0
  0
LINE
  8
0
 10
100.66665649414062
 20
5.498901844024658
 30
0.0
 11
100.57572937011719
 21
5.424283981323242
 31
0.0
  0
LINE
  8
0
 10
100.5011215209961
 20
5.333362102508545
 30
0.0
 11
100.57572937011719
 21
5.424283981323242
 31
0.0
  0
LINE
  8
0
 10
100.5011215209961
 20
5.333362102508545
 30
0.0
 11
100.4456787109375
 21
5.229630470275879
 31
0.0
  0
LINE
  8
0
 10
100.41153717041016
 20
5.117074489593506
 30
0.0
 11
100.4456787109375
 21
5.229630470275879
 31
0.0
  0
LINE
  8
0
 10
100.41153717041016
 20
5.117074489593506
 30
0.0
 11
100.39999389648438
 21
5.0000200271606445
 31
0.0
  0
LINE
  8
0
 10
100.41153717041016
 20
4.882966041564941
 30
0.0
 11
100.39999389648438
 21
5.0000200271606445
 31
0.0
  0
LINE
  8
0
 10
100.41153717041016
 20
4.882966041564941
 30
0.0
 11
100.4456787109375
 21
4.770410060882568
 31
0.0
  0
LINE
  8
0
 10
100.5011215209961
 20
4.666677951812744
 30
0.0
 11
100.4456787109375
 21
4.770410060882568
 31
0.0
  0
LINE
  8
0
 10
100.5011215209961
 20
4.666677951812744
 30
0.0
 11
100.57572937011719
 21
4.575756072998047
 31
0.0
  0
LINE
  8
0
 10
100.66665649414062
 20
4.501138687133789
 30
0.0
 11
100.57572937011719
 21
4.575756072998047
 31
0.0
  0
LINE
  8
0
 10
100.66665649414062
 20
4.501138687133789
 30
0.0
 11
100.77039337158203
 21
4.445692539215088
 31
0.0
  0
LINE
  8
0
 10
100.88294982910156
 20
4.411549091339111
 30
0.0
 11
100.77039337158203
 21
4.445692539215088
 31
0.0
  0
LINE
  8
0
 10
101.0
 20
4.400020122528076
 30
0.0
 11
100.88294982910156
 21
4.411549091339111
 31
0.0
  0
LINE
  8
0
 10
101.0
 20
4.400020122528076
 30
0.0
 11
101.11705017089844
 21
4.411549091339111
 31
0.0
  0
LINE
  8
0
 10
101.11705017089844
 20
4.411549091339111
 30
0.0
 11
101.22960662841797
 21
4.445692539215088
 31
0.0
  0
LINE
  8
0
 10
101.22960662841797
 20
4.445692539215088
 30
0.0
 11
101.33334350585938
 21
4.501138687133789
 31
0.0
  0
LINE
  8
0
 10
101.33334350585938
 20
4.501138687133789
 30
0.0
 11
101.42426300048828
 21
4.575756072998047
 31
0.0
  0
LINE
  8
0
 10
101.42426300048828
 20
4.575756072998047
 30
0.0
 11
101.4988784790039
 21
4.666678428649902
 31
0.0
  0
LINE
  8
0
 10
101.5543212890625
 20
4.770410060882568
 30
0.0
 11
101.4988784790039
 21
4.666678428649902
 31
0.0
  0
LINE
  8
0
 10
46.5011100769043
 20
4.666675567626953
 30
0.0
 11
46.57572937011719
 21
4.575754165649414
 31
0.0
  0
LINE
  8
0
 10
46.666648864746094
 20
4.50113582611084
 30
0.0
 11
46.57572937011719
 21
4.575754165649414
 31
0.0
  0
LINE
  8
0
 10
46.666648864746094
 20
4.50113582611084
 30
0.0
 11
46.770381927490234
 21
4.445690155029297
 31
0.0
  0
LINE
  8
0
 10
46.8829345703125
 20
4.41154670715332
 30
0.0
 11
46.770381927490234
 21
4.445690155029297
 31
0.0
  0
LINE
  8
0
 10
46.99999237060547
 20
4.400017738342285
 30
0.0
 11
46.8829345703125
 21
4.41154670715332
 31
0.0
  0
LINE
  8
0
 10
46.99999237060547
 20
4.400017738342285
 30
0.0
 11
47.11704635620117
 21
4.41154670715332
 31
0.0
  0
LINE
  8
0
 10
47.11704635620117
 20
4.41154670715332
 30
0.0
 11
47.22959899902344
 21
4.445690155029297
 31
0.0
  0
LINE
  8
0
 10
47.33333206176758
 20
4.50113582611084
 30
0.0
 11
47.22959899902344
 21
4.445690155029297
 31
0.0
  0
LINE
  8
0
 10
47.33333206176758
 20
4.50113582611084
 30
0.0
 11
47.42425537109375
 21
4.575754165649414
 31
0.0
  0
LINE
  8
0
 10
47.49887466430664
 20
4.666675567626953
 30
0.0
 11
47.42425537109375
 21
4.575754165649414
 31
0.0
  0
LINE
  8
0
 10
47.49887466430664
 20
4.666675567626953
 30
0.0
 11
47.5543212890625
 21
4.770407676696777
 31
0.0
  0
LINE
  8
0
 10
47.588462829589844
 20
4.88296365737915
 30
0.0
 11
47.5543212890625
 21
4.770407676696777
 31
0.0
  0
LINE
  8
0
 10
47.588462829589844
 20
4.88296365737915
 30
0.0
 11
47.59999084472656
 21
5.000018119812012
 31
0.0
  0
LINE
  8
0
 10
47.588462829589844
 20
5.117072105407715
 30
0.0
 11
47.59999084472656
 21
5.000018119812012
 31
0.0
  0
LINE
  8
0
 10
47.588462829589844
 20
5.117072105407715
 30
0.0
 11
47.5543212890625
 21
5.229628086090088
 31
0.0
  0
LINE
  8
0
 10
47.49887466430664
 20
5.333359718322754
 30
0.0
 11
47.5543212890625
 21
5.229628086090088
 31
0.0
  0
LINE
  8
0
 10
47.49887466430664
 20
5.333359718322754
 30
0.0
 11
47.42425537109375
 21
5.424282073974609
 31
0.0
  0
LINE
  8
0
 10
47.33333206176758
 20
5.498899459838867
 30
0.0
 11
47.42425537109375
 21
5.424282073974609
 31
0.0
  0
LINE
  8
0
 10
47.33333206176758
 20
5.498899459838867
 30
0.0
 11
47.22959899902344
 21
5.554345607757568
 31
0.0
  0
LINE
  8
0
 10
47.11704635620117
 20
5.588489055633545
 30
0.0
 11
47.22959899902344
 21
5.554345607757568
 31
0.0
  0
LINE
  8
0
 10
46.99999237060547
 20
5.600017547607422
 30
0.0
 11
47.11704635620117
 21
5.588489055633545
 31
0.0
  0
LINE
  8
0
 10
46.99999237060547
 20
5.600017547607422
 30
0.0
 11
46.8829345703125
 21
5.588489055633545
 31
0.0
  0
LINE
  8
0
 10
46.8829345703125
 20
5.588489055633545
 30
0.0
 11
46.770381927490234
 21
5.554345607757568
 31
0.0
  0
LINE
  8
0
 10
46.666648864746094
 20
5.498899459838867
 30
0.0
 11
46.770381927490234
 21
5.554345607757568
 31
0.0
  0
LINE
  8
0
 10
46.666648864746094
 20
5.498899459838867
 30
0.0
 11
46.57572937011719
 21
5.424282073974609
 31
0.0
  0
LINE
  8
0
 10
101.58846282958984
 20
5.117074489593506
 30
0.0
 11
101.5543212890625
 21
5.229630470275879
 31
0.0
  0
LINE
  8
0
 10
101.58846282958984
 20
4.882966041564941
 30
0.0
 11
101.5543212890625
 21
4.770410060882568
 31
0.0
  0
LINE
  8
0
 10
101.58846282958984
 20
4.882966041564941
 30
0.0
 11
101.60000610351562
 21
5.0000200271606445
 31
0.0
  0
LINE
  8
0
 10
101.58846282958984
 20
5.117074489593506
 30
0.0
 11
101.60000610351562
 21
5.0000200271606445
 31
0.0
  0
LINE
  8
0
 10
110.49999237060547
 20
10.500068664550781
 30
0.0
 11
39.999996185302734
 21
10.500065803527832
 31
0.0
  0
LINE
  8
0
 10
39.999996185302734
 20
10.500065803527832
 30
0.0
 11
39.999996185302734
 21
20.50006866455078
 31
0.0
  0
LINE
  8
0
 10
110.49999237060547
 20
20.500070571899414
 30
0.0
 11
39.999996185302734
 21
20.50006866455078
 31
0.0
  0
LINE
  8
0
 10
110.49999237060547
 20
10.500068664550781
 30
0.0
 11
110.49999237060547
 21
20.500070571899414
 31
0.0
  0
LINE
  8
0
 10
46.5011100769043
 20
15.166725158691406
 30
0.0
 11
46.44566345214844
 21
15.270456314086914
 31
0.0
  0
LINE
  8
0
 10
46.5011100769043
 20
15.833409309387207
 30
0.0
 11
46.44566345214844
 21
15.729677200317383
 31
0.0
  0
LINE
  8
0
 10
46.411521911621094
 20
15.617121696472168
 30
0.0
 11
46.44566345214844
 21
15.729677200317383
 31
0.0
  0
LINE
  8
0
 10
46.411521911621094
 20
15.617121696472168
 30
0.0
 11
46.39999008178711
 21
15.500066757202148
 31
0.0
  0
LINE
  8
0
 10
46.411521911621094
 20
15.383012771606445
 30
0.0
 11
46.39999008178711
 21
15.500066757202148
 31
0.0
  0
LINE
  8
0
 10
46.411521911621094
 20
15.383012771606445
 30
0.0
 11
46.44566345214844
 21
15.270456314086914
 31
0.0
  0
LINE
  8
0
 10
46.5011100769043
 20
15.833409309387207
 30
0.0
 11
46.57572937011719
 21
15.924331665039062
 31
0.0
  0
LINE
  8
0
 10
101.4988784790039
 20
15.833412170410156
 30
0.0
 11
101.5543212890625
 21
15.729679107666016
 31
0.0
  0
LINE
  8
0
 10
101.4988784790039
 20
15.833412170410156
 30
0.0
 11
101.42426300048828
 21
15.924334526062012
 31
0.0
  0
LINE
  8
0
 10
101.33334350585938
 20
15.99895191192627
 30
0.0
 11
101.42426300048828
 21
15.924334526062012
 31
0.0
  0
LINE
  8
0
 10
101.33334350585938
 20
15.99895191192627
 30
0.0
 11
101.22960662841797
 21
16.054397583007812
 31
0.0
  0
LINE
  8
0
 10
101.11705017089844
 20
16.08854103088379
 30
0.0
 11
101.22960662841797
 21
16.054397583007812
 31
0.0
  0
LINE
  8
0
 10
101.0
 20
16.100069046020508
 30
0.0
 11
101.11705017089844
 21
16.08854103088379
 31
0.0
  0
LINE
  8
0
 10
101.0
 20
16.100069046020508
 30
0.0
 11
100.88294982910156
 21
16.08854103088379
 31
0.0
  0
LINE
  8
0
 10
100.88294982910156
 20
16.08854103088379
 30
0.0
 11
100.77039337158203
 21
16.054397583007812
 31
0.0
  0
LINE
  8
0
 10
100.66665649414062
 20
15.99895191192627
 30
0.0
 11
100.77039337158203
 21
16.054397583007812
 31
0.0
  0
LINE
  8
0
 10
100.66665649414062
 20
15.99895191192627
 30
0.0
 11
100.57572937011719
 21
15.924334526062012
 31
0.0
  0
LINE
  8
0
 10
100.5011215209961
 20
15.833412170410156
 30
0.0
 11
100.57572937011719
 21
15.924334526062012
 31
0.0
  0
LINE
  8
0
 10
100.5011215209961
 20
15.833412170410156
 30
0.0
 11
100.4456787109375
 21
15.729679107666016
 31
0.0
  0
LINE
  8
0
 10
100.41153717041016
 20
15.6171236038208
 30
0.0
 11
100.4456787109375
 21
15.729679107666016
 31
0.0
  0
LINE
  8
0
 10
100.41153717041016
 20
15.6171236038208
 30
0.0
 11
100.39999389648438
 21
15.500070571899414
 31
0.0
  0
LINE
  8
0
 10
100.41153717041016
 20
15.383015632629395
 30
0.0
 11
100.39999389648438
 21
15.500070571899414
 31
0.0
  0
LINE
  8
0
 10
100.41153717041016
 20
15.383015632629395
 30
0.0
 11
100.4456787109375
 21
15.27046012878418
 31
0.0
  0
LINE
  8
0
 10
100.5011215209961
 20
15.166728019714355
 30
0.0
 11
100.4456787109375
 21
15.27046012878418
 31
0.0
  0
LINE
  8
0
 10
100.5011215209961
 20
15.166728019714355
 30
0.0
 11
100.57572937011719
 21
15.0758056640625
 31
0.0
  0
LINE
  8
0
 10
100.66665649414062
 20
15.001188278198242
 30
0.0
 11
100.57572937011719
 21
15.0758056640625
 31
0.0
  0
LINE
  8
0
 10
100.66665649414062
 20
15.001188278198242
 30
0.0
 11
100.77039337158203
 21
14.9457426071167
 31
0.0
  0
LINE
  8
0
 10
100.88294982910156
 20
14.911598205566406
 30
0.0
 11
100.77039337158203
 21
14.9457426071167
 31
0.0
  0
LINE
  8
0
 10
101.0
 20
14.900070190429688
 30
0.0
 11
100.88294982910156
 21
14.911598205566406
 31
0.0
  0
LINE
  8
0
 10
101.0
 20
14.900070190429688
 30
0.0
 11
101.11705017089844
 21
14.911598205566406
 31
0.0
  0
LINE
  8
0
 10
101.11705017089844
 20
14.911598205566406
 30
0.0
 11
101.22960662841797
 21
14.9457426071167
 31
0.0
  0
LINE
  8
0
 10
101.22960662841797
 20
14.9457426071167
 30
0.0
 11
101.33334350585938
 21
15.001188278198242
 31
0.0
  0
LINE
  8
0
 10
101.33334350585938
 20
15.001188278198242
 30
0.0
 11
101.42426300048828
 21
15.0758056640625
 31
0.0
  0
LINE
  8
0
 10
101.42426300048828
 20
15.0758056640625
 30
0.0
 11
101.4988784790039
 21
15.166728019714355
 31
0.0
  0
LINE
  8
0
 10
101.5543212890625
 20
15.27046012878418
 30
0.0
 11
101.4988784790039
 21
15.166728019714355
 31
0.0
  0
LINE
  8
0
 10
46.5011100769043
 20
15.166725158691406
 30
0.0
 11
46.57572937011719
 21
15.07580280303955
 31
0.0
  0
LINE
  8
0
 10
46.666648864746094
 20
15.001185417175293
 30
0.0
 11
46.57572937011719
 21
15.07580280303955
 31
0.0
  0
LINE
  8
0
 10
46.666648864746094
 20
15.001185417175293
 30
0.0
 11
46.770381927490234
 21
14.94573974609375
 31
0.0
  0
LINE
  8
0
 10
46.8829345703125
 20
14.911596298217773
 30
0.0
 11
46.770381927490234
 21
14.94573974609375
 31
0.0
  0
LINE
  8
0
 10
46.99999237060547
 20
14.900067329406738
 30
0.0
 11
46.8829345703125
 21
14.911596298217773
 31
0.0
  0
LINE
  8
0
 10
46.99999237060547
 20
14.900067329406738
 30
0.0
 11
47.11704635620117
 21
14.911596298217773
 31
0.0
  0
LINE
  8
0
 10
47.11704635620117
 20
14.911596298217773
 30
0.0
 11
47.22959899902344
 21
14.94573974609375
 31
0.0
  0
LINE
  8
0
 10
47.33333206176758
 20
15.001185417175293
 30
0.0
 11
47.22959899902344
 21
14.94573974609375
 31
0.0
  0
LINE
  8
0
 10
47.33333206176758
 20
15.001185417175293
 30
0.0
 11
47.42425537109375
 21
15.07580280303955
 31
0.0
  0
LINE
  8
0
 10
47.49887466430664
 20
15.166725158691406
 30
0.0
 11
47.42425537109375
 21
15.07580280303955
 31
0.0
  0
LINE
  8
0
 10
47.49887466430664
 20
15.166725158691406
 30
0.0
 11
47.5543212890625
 21
15.270456314086914
 31
0.0
  0
LINE
  8
0
 10
47.588462829589844
 20
15.383012771606445
 30
0.0
 11
47.5543212890625
 21
15.270456314086914
 31
0.0
  0
LINE
  8
0
 10
47.588462829589844
 20
15.383012771606445
 30
0.0
 11
47.59999084472656
 21
15.500066757202148
 31
0.0
  0
LINE
  8
0
 10
47.588462829589844
 20
15.617121696472168
 30
0.0
 11
47.59999084472656
 21
15.500066757202148
 31
0.0
  0
LINE
  8
0
 10
47.588462829589844
 20
15.617121696472168
 30
0.0
 11
47.5543212890625
 21
15.729677200317383
 31
0.0
  0
LINE
  8
0
 10
47.49887466430664
 20
15.833409309387207
 30
0.0
 11
47.5543212890625
 21
15.729677200317383
 31
0.0
  0
LINE
  8
0
 10
47.49887466430664
 20
15.833409309387207
 30
0.0
 11
47.42425537109375
 21
15.924331665039062
 31
0.0
  0
LINE
  8
0
 10
47.33333206176758
 20
15.99894905090332
 30
0.0
 11
47.42425537109375
 21
15.924331665039062
 31
0.0
  0
LINE
  8
0
 10
47.33333206176758
 20
15.99894905090332
 30
0.0
 11
47.22959899902344
 21
16.05439567565918
 31
0.0
  0
LINE
  8
0
 10
47.11704635620117
 20
16.088539123535156
 30
0.0
 11
47.22959899902344
 21
16.05439567565918
 31
0.0
  0
LINE
  8
0
 10
46.99999237060547
 20
16.100067138671875
 30
0.0
 11
47.11704635620117
 21
16.088539123535156
 31
0.0
  0
LINE
  8
0
 10
46.99999237060547
 20
16.100067138671875
 30
0.0
 11
46.8829345703125
 21
16.088537216186523
 31
0.0
  0
LINE
  8
0
 10
46.8829345703125
 20
16.088537216186523
 30
0.0
 11
46.770381927490234
 21
16.05439567565918
 31
0.0
  0
LINE
  8
0
 10
46.666648864746094
 20
15.99894905090332
 30
0.0
 11
46.770381927490234
 21
16.05439567565918
 31
0.0
  0
LINE
  8
0
 10
46.666648864746094
 20
15.99894905090332
 30
0.0
 11
46.57572937011719
 21
15.924331665039062
 31
0.0
  0
LINE
  8
0
 10
101.58846282958984
 20
15.617124557495117
 30
0.0
 11
101.5543212890625
 21
15.729679107666016
 31
0.0
  0
LINE
  8
0
 10
101.58846282958984
 20
15.383015632629395
 30
0.0
 11
101.5543212890625
 21
15.27046012878418
 31
0.0
  0
LINE
  8
0
 10
101.58846282958984
 20
15.383015632629395
 30
0.0
 11
101.60000610351562
 21
15.500070571899414
 31
0.0
  0
LINE
  8
0
 10
101.58846282958984
 20
15.617124557495117
 30
0.0
 11
101.60000610351562
 21
15.500070571899414
 31
0.0
  0
LINE
  8
0
 10
110.49999237060547
 20
21.000022888183594
 30
0.0
 11
39.999996185302734
 21
21.00002098083496
 31
0.0
  0
LINE
  8
0
 10
39.999996185302734
 20
21.00002098083496
 30
0.0
 11
39.999996185302734
 21
31.000024795532227
 31
0.0
  0
LINE
  8
0
 10
110.49999237060547
 20
31.000024795532227
 30
0.0
 11
39.999996185302734
 21
31.000024795532227
 31
0.0
  0
LINE
  8
0
 10
110.49999237060547
 20
21.000022888183594
 30
0.0
 11
110.49999237060547
 21
31.000024795532227
 31
0.0
  0
LINE
  8
0
 10
46.5011100769043
 20
25.66668128967285
 30
0.0
 11
46.44566345214844
 21
25.770410537719727
 31
0.0
  0
LINE
  8
0
 10
46.5011100769043
 20
26.333364486694336
 30
0.0
 11
46.44566345214844
 21
26.229631423950195
 31
0.0
  0
LINE
  8
0
 10
46.411521911621094
 20
26.117074966430664
 30
0.0
 11
46.44566345214844
 21
26.229631423950195
 31
0.0
  0
LINE
  8
0
 10
46.411521911621094
 20
26.117074966430664
 30
0.0
 11
46.39999008178711
 21
26.000022888183594
 31
0.0
  0
LINE
  8
0
 10
46.411521911621094
 20
25.88296890258789
 30
0.0
 11
46.39999008178711
 21
26.000022888183594
 31
0.0
  0
LINE
  8
0
 10
46.411521911621094
 20
25.88296890258789
 30
0.0
 11
46.44566345214844
 21
25.770410537719727
 31
0.0
  0
LINE
  8
0
 10
46.5011100769043
 20
26.333364486694336
 30
0.0
 11
46.57572937011719
 21
26.424285888671875
 31
0.0
  0
LINE
  8
0
 10
101.4988784790039
 20
26.333364486694336
 30
0.0
 11
101.5543212890625
 21
26.22963523864746
 31
0.0
  0
LINE
  8
0
 10
101.4988784790039
 20
26.333364486694336
 30
0.0
 11
101.42426300048828
 21
26.42428970336914
 31
0.0
  0
LINE
  8
0
 10
101.33334350585938
 20
26.498905181884766
 30
0.0
 11
101.42426300048828
 21
26.42428970336914
 31
0.0
  0
LINE
  8
0
 10
101.33334350585938
 20
26.498905181884766
 30
0.0
 11
101.22960662841797
 21
26.554351806640625
 31
0.0
  0
LINE
  8
0
 10
101.11705017089844
 20
26.588497161865234
 30
0.0
 11
101.22960662841797
 21
26.554351806640625
 31
0.0
  0
LINE
  8
0
 10
101.0
 20
26.60002326965332
 30
0.0
 11
101.11705017089844
 21
26.588497161865234
 31
0.0
  0
LINE
  8
0
 10
101.0
 20
26.60002326965332
 30
0.0
 11
100.88294982910156
 21
26.588497161865234
 31
0.0
  0
LINE
  8
0
 10
100.88294982910156
 20
26.588497161865234
 30
0.0
 11
100.77039337158203
 21
26.554351806640625
 31
0.0
  0
LINE
  8
0
 10
100.66665649414062
 20
26.498905181884766
 30
0.0
 11
100.77039337158203
 21
26.554351806640625
 31
0.0
  0
LINE
  8
0
 10
100.66665649414062
 20
26.498905181884766
 30
0.0
 11
100.57572937011719
 21
26.42428970336914
 31
0.0
  0
LINE
  8
0
 10
100.5011215209961
 20
26.333364486694336
 30
0.0
 11
100.57572937011719
 21
26.42428970336914
 31
0.0
  0
LINE
  8
0
 10
100.5011215209961
 20
26.333364486694336
 30
0.0
 11
100.4456787109375
 21
26.22963523864746
 31
0.0
  0
LINE
  8
0
 10
100.41153717041016
 20
26.117076873779297
 30
0.0
 11
100.4456787109375
 21
26.22963523864746
 31
0.0
  0
LINE
  8
0
 10
100.41153717041016
 20
26.117076873779297
 30
0.0
 11
100.39999389648438
 21
26.000022888183594
 31
0.0
  0
LINE
  8
0
 10
100.41153717041016
 20
25.88296890258789
 30
0.0
 11
100.39999389648438
 21
26.000022888183594
 31
0.0
  0
LINE
  8
0
 10
100.41153717041016
 20
25.88296890258789
 30
0.0
 11
100.4456787109375
 21
25.770414352416992
 31
0.0
  0
LINE
  8
0
 10
100.5011215209961
 20
25.66668128967285
 30
0.0
 11
100.4456787109375
 21
25.770414352416992
 31
0.0
  0
LINE
  8
0
 10
100.5011215209961
 20
25.66668128967285
 30
0.0
 11
100.57572937011719
 21
25.575759887695312
 31
0.0
  0
LINE
  8
0
 10
100.66665649414062
 20
25.501140594482422
 30
0.0
 11
100.57572937011719
 21
25.575759887695312
 31
0.0
  0
LINE
  8
0
 10
100.66665649414062
 20
25.501140594482422
 30
0.0
 11
100.77039337158203
 21
25.445695877075195
 31
0.0
  0
LINE
  8
0
 10
100.88294982910156
 20
25.41155242919922
 30
0.0
 11
100.77039337158203
 21
25.445695877075195
 31
0.0
  0
LINE
  8
0
 10
101.0
 20
25.4000244140625
 30
0.0
 11
100.88294982910156
 21
25.41155242919922
 31
0.0
  0
LINE
  8
0
 10
101.0
 20
25.4000244140625
 30
0.0
 11
101.11705017089844
 21
25.41155242919922
 31
0.0
  0
LINE
  8
0
 10
101.11705017089844
 20
25.41155242919922
 30
0.0
 11
101.22960662841797
 21
25.445695877075195
 31
0.0
  0
LINE
  8
0
 10
101.22960662841797
 20
25.445695877075195
 30
0.0
 11
101.33334350585938
 21
25.501140594482422
 31
0.0
  0
LINE
  8
0
 10
101.33334350585938
 20
25.501140594482422
 30
0.0
 11
101.42426300048828
 21
25.575759887695312
 31
0.0
  0
LINE
  8
0
 10
101.42426300048828
 20
25.575759887695312
 30
0.0
 11
101.4988784790039
 21
25.66668128967285
 31
0.0
  0
LINE
  8
0
 10
101.5543212890625
 20
25.770414352416992
 30
0.0
 11
101.4988784790039
 21
25.66668128967285
 31
0.0
  0
LINE
  8
0
 10
46.5011100769043
 20
25.66668128967285
 30
0.0
 11
46.57572937011719
 21
25.575756072998047
 31
0.0
  0
LINE
  8
0
 10
46.666648864746094
 20
25.501140594482422
 30
0.0
 11
46.57572937011719
 21
25.575756072998047
 31
0.0
  0
LINE
  8
0
 10
46.666648864746094
 20
25.501140594482422
 30
0.0
 11
46.770381927490234
 21
25.445693969726562
 31
0.0
  0
LINE
  8
0
 10
46.8829345703125
 20
25.411548614501953
 30
0.0
 11
46.770381927490234
 21
25.445693969726562
 31
0.0
  0
LINE
  8
0
 10
46.99999237060547
 20
25.400022506713867
 30
0.0
 11
46.8829345703125
 21
25.411548614501953
 31
0.0
  0
LINE
  8
0
 10
46.99999237060547
 20
25.400022506713867
 30
0.0
 11
47.11704635620117
 21
25.411548614501953
 31
0.0
  0
LINE
  8
0
 10
47.11704635620117
 20
25.411548614501953
 30
0.0
 11
47.22959899902344
 21
25.445693969726562
 31
0.0
  0
LINE
  8
0
 10
47.33333206176758
 20
25.501140594482422
 30
0.0
 11
47.22959899902344
 21
25.445693969726562
 31
0.0
  0
LINE
  8
0
 10
47.33333206176758
 20
25.501140594482422
 30
0.0
 11
47.42425537109375
 21
25.575756072998047
 31
0.0
  0
LINE
  8
0
 10
47.49887466430664
 20
25.66668128967285
 30
0.0
 11
47.42425537109375
 21
25.575756072998047
 31
0.0
  0
LINE
  8
0
 10
47.49887466430664
 20
25.66668128967285
 30
0.0
 11
47.5543212890625
 21
25.770410537719727
 31
0.0
  0
LINE
  8
0
 10
47.588462829589844
 20
25.88296890258789
 30
0.0
 11
47.5543212890625
 21
25.770410537719727
 31
0.0
  0
LINE
  8
0
 10
47.588462829589844
 20
25.88296890258789
 30
0.0
 11
47.59999084472656
 21
26.000022888183594
 31
0.0
  0
LINE
  8
0
 10
47.588462829589844
 20
26.117074966430664
 30
0.0
 11
47.59999084472656
 21
26.000022888183594
 31
0.0
  0
LINE
  8
0
 10
47.588462829589844
 20
26.117074966430664
 30
0.0
 11
47.5543212890625
 21
26.229631423950195
 31
0.0
  0
LINE
  8
0
 10
47.49887466430664
 20
26.333364486694336
 30
0.0
 11
47.5543212890625
 21
26.229631423950195
 31
0.0
  0
LINE
  8
0
 10
47.49887466430664
 20
26.333364486694336
 30
0.0
 11
47.42425537109375
 21
26.424285888671875
 31
0.0
  0
LINE
  8
0
 10
47.33333206176758
 20
26.498905181884766
 30
0.0
 11
47.42425537109375
 21
26.424285888671875
 31
0.0
  0
LINE
  8
0
 10
47.33333206176758
 20
26.498905181884766
 30
0.0
 11
47.22959899902344
 21
26.554349899291992
 31
0.0
  0
LINE
  8
0
 10
47.11704635620117
 20
26.58849334716797
 30
0.0
 11
47.22959899902344
 21
26.554349899291992
 31
0.0
  0
LINE
  8
0
 10
46.99999237060547
 20
26.600021362304688
 30
0.0
 11
47.11704635620117
 21
26.58849334716797
 31
0.0
  0
LINE
  8
0
 10
46.99999237060547
 20
26.600021362304688
 30
0.0
 11
46.8829345703125
 21
26.58849334716797
 31
0.0
  0
LINE
  8
0
 10
46.8829345703125
 20
26.58849334716797
 30
0.0
 11
46.770381927490234
 21
26.554349899291992
 31
0.0
  0
LINE
  8
0
 10
46.666648864746094
 20
26.498905181884766
 30
0.0
 11
46.770381927490234
 21
26.554349899291992
 31
0.0
  0
LINE
  8
0
 10
46.666648864746094
 20
26.498905181884766
 30
0.0
 11
46.57572937011719
 21
26.424285888671875
 31
0.0
  0
LINE
  8
0
 10
101.58846282958984
 20
26.117076873779297
 30
0.0
 11
101.5543212890625
 21
26.22963523864746
 31
0.0
  0
LINE
  8
0
 10
101.58846282958984
 20
25.882970809936523
 30
0.0
 11
101.5543212890625
 21
25.770414352416992
 31
0.0
  0
LINE
  8
0
 10
101.58846282958984
 20
25.882970809936523
 30
0.0
 11
101.60000610351562
 21
26.000022888183594
 31
0.0
  0
LINE
  8
0
 10
101.58846282958984
 20
26.117076873779297
 30
0.0
 11
101.60000610351562
 21
26.000022888183594
 31
0.0
  0
LINE
  8
0
 10
110.49999237060547
 20
31.500070571899414
 30
0.0
 11
39.999996185302734
 21
31.500070571899414
 31
0.0
  0
LINE
  8
0
 10
39.999996185302734
 20
31.500070571899414
 30
0.0
 11
39.999996185302734
 21
41.50007247924805
 31
0.0
  0
LINE
  8
0
 10
110.49999237060547
 20
41.50007247924805
 30
0.0
 11
39.999996185302734
 21
41.50007247924805
 31
0.0
  0
LINE
  8
0
 10
110.49999237060547
 20
31.500070571899414
 30
0.0
 11
110.49999237060547
 21
41.50007247924805
 31
0.0
  0
LINE
  8
0
 10
46.5011100769043
 20
36.16672897338867
 30
0.0
 11
46.44566345214844
 21
36.27046203613281
 31
0.0
  0
LINE
  8
0
 10
46.5011100769043
 20
36.83341598510742
 30
0.0
 11
46.44566345214844
 21
36.72968292236328
 31
0.0
  0
LINE
  8
0
 10
46.411521911621094
 20
36.617122650146484
 30
0.0
 11
46.44566345214844
 21
36.72968292236328
 31
0.0
  0
LINE
  8
0
 10
46.411521911621094
 20
36.617122650146484
 30
0.0
 11
46.39999008178711
 21
36.50007247924805
 31
0.0
  0
LINE
  8
0
 10
46.411521911621094
 20
36.383018493652344
 30
0.0
 11
46.39999008178711
 21
36.50007247924805
 31
0.0
  0
LINE
  8
0
 10
46.411521911621094
 20
36.383018493652344
 30
0.0
 11
46.44566345214844
 21
36.27046203613281
 31
0.0
  0
LINE
  8
0
 10
46.5011100769043
 20
36.83341598510742
 30
0.0
 11
46.57572937011719
 21
36.92433547973633
 31
0.0
  0
LINE
  8
0
 10
101.4988784790039
 20
36.83341598510742
 30
0.0
 11
101.5543212890625
 21
36.72968292236328
 31
0.0
  0
LINE
  8
0
 10
101.4988784790039
 20
36.83341598510742
 30
0.0
 11
101.42426300048828
 21
36.924339294433594
 31
0.0
  0
LINE
  8
0
 10
101.33334350585938
 20
36.99895477294922
 30
0.0
 11
101.42426300048828
 21
36.924339294433594
 31
0.0
  0
LINE
  8
0
 10
101.33334350585938
 20
36.99895477294922
 30
0.0
 11
101.22960662841797
 21
37.05440139770508
 31
0.0
  0
LINE
  8
0
 10
101.11705017089844
 20
37.08854675292969
 30
0.0
 11
101.22960662841797
 21
37.05440139770508
 31
0.0
  0
LINE
  8
0
 10
101.0
 20
37.100074768066406
 30
0.0
 11
101.11705017089844
 21
37.08854675292969
 31
0.0
  0
LINE
  8
0
 10
101.0
 20
37.100074768066406
 30
0.0
 11
100.88294982910156
 21
37.08854675292969
 31
0.0
  0
LINE
  8
0
 10
100.88294982910156
 20
37.08854675292969
 30
0.0
 11
100.77039337158203
 21
37.05440139770508
 31
0.0
  0
LINE
  8
0
 10
100.66665649414062
 20
36.99895477294922
 30
0.0
 11
100.77039337158203
 21
37.05440139770508
 31
0.0
  0
LINE
  8
0
 10
100.66665649414062
 20
36.99895477294922
 30
0.0
 11
100.57572937011719
 21
36.924339294433594
 31
0.0
  0
LINE
  8
0
 10
100.5011215209961
 20
36.83341598510742
 30
0.0
 11
100.57572937011719
 21
36.924339294433594
 31
0.0
  0
LINE
  8
0
 10
100.5011215209961
 20
36.83341598510742
 30
0.0
 11
100.4456787109375
 21
36.72968292236328
 31
0.0
  0
LINE
  8
0
 10
100.41153717041016
 20
36.61712646484375
 30
0.0
 11
100.4456787109375
 21
36.72968292236328
 31
0.0
  0
LINE
  8
0
 10
100.41153717041016
 20
36.61712646484375
 30
0.0
 11
100.39999389648438
 21
36.50007247924805
 31
0.0
  0
LINE
  8
0
 10
100.41153717041016
 20
36.383018493652344
 30
0.0
 11
100.39999389648438
 21
36.50007247924805
 31
0.0
  0
LINE
  8
0
 10
100.41153717041016
 20
36.383018493652344
 30
0.0
 11
100.4456787109375
 21
36.27046203613281
 31
0.0
  0
LINE
  8
0
 10
100.5011215209961
 20
36.16672897338867
 30
0.0
 11
100.4456787109375
 21
36.27046203613281
 31
0.0
  0
LINE
  8
0
 10
100.5011215209961
 20
36.16672897338867
 30
0.0
 11
100.57572937011719
 21
36.075809478759766
 31
0.0
  0
LINE
  8
0
 10
100.66665649414062
 20
36.001190185546875
 30
0.0
 11
100.57572937011719
 21
36.075809478759766
 31
0.0
  0
LINE
  8
0
 10
100.66665649414062
 20
36.001190185546875
 30
0.0
 11
100.77039337158203
 21
35.94574737548828
 31
0.0
  0
LINE
  8
0
 10
100.88294982910156
 20
35.91160202026367
 30
0.0
 11
100.77039337158203
 21
35.94574737548828
 31
0.0
  0
LINE
  8
0
 10
101.0
 20
35.90007400512695
 30
0.0
 11
100.88294982910156
 21
35.91160202026367
 31
0.0
  0
LINE
  8
0
 10
101.0
 20
35.90007400512695
 30
0.0
 11
101.11705017089844
 21
35.91160202026367
 31
0.0
  0
LINE
  8
0
 10
101.11705017089844
 20
35.91160202026367
 30
0.0
 11
101.22960662841797
 21
35.94574737548828
 31
0.0
  0
LINE
  8
0
 10
101.22960662841797
 20
35.94574737548828
 30
0.0
 11
101.33334350585938
 21
36.001190185546875
 31
0.0
  0
LINE
  8
0
 10
101.33334350585938
 20
36.001190185546875
 30
0.0
 11
101.42426300048828
 21
36.075809478759766
 31
0.0
  0
LINE
  8
0
 10
101.42426300048828
 20
36.075809478759766
 30
0.0
 11
101.4988784790039
 21
36.16672897338867
 31
0.0
  0
LINE
  8
0
 10
101.5543212890625
 20
36.27046203613281
 30
0.0
 11
101.4988784790039
 21
36.16672897338867
 31
0.0
  0
LINE
  8
0
 10
46.5011100769043
 20
36.16672897338867
 30
0.0
 11
46.57572937011719
 21
36.0758056640625
 31
0.0
  0
LINE
  8
0
 10
46.666648864746094
 20
36.001190185546875
 30
0.0
 11
46.57572937011719
 21
36.0758056640625
 31
0.0
  0
LINE
  8
0
 10
46.666648864746094
 20
36.001190185546875
 30
0.0
 11
46.770381927490234
 21
35.945743560791016
 31
0.0
  0
LINE
  8
0
 10
46.8829345703125
 20
35.911598205566406
 30
0.0
 11
46.770381927490234
 21
35.945743560791016
 31
0.0
  0
LINE
  8
0
 10
46.99999237060547
 20
35.90007019042969
 30
0.0
 11
46.8829345703125
 21
35.911598205566406
 31
0.0
  0
LINE
  8
0
 10
46.99999237060547
 20
35.90007019042969
 30
0.0
 11
47.11704635620117
 21
35.911598205566406
 31
0.0
  0
LINE
  8
0
 10
47.11704635620117
 20
35.911598205566406
 30
0.0
 11
47.22959899902344
 21
35.945743560791016
 31
0.0
  0
LINE
  8
0
 10
47.33333206176758
 20
36.001190185546875
 30
0.0
 11
47.22959899902344
 21
35.945743560791016
 31
0.0
  0
LINE
  8
0
 10
47.33333206176758
 20
36.001190185546875
 30
0.0
 11
47.42425537109375
 21
36.0758056640625
 31
0.0
  0
LINE
  8
0
 10
47.49887466430664
 20
36.16672897338867
 30
0.0
 11
47.42425537109375
 21
36.0758056640625
 31
0.0
  0
LINE
  8
0
 10
47.49887466430664
 20
36.16672897338867
 30
0.0
 11
47.5543212890625
 21
36.27046203613281
 31
0.0
  0
LINE
  8
0
 10
47.588462829589844
 20
36.383018493652344
 30
0.0
 11
47.5543212890625
 21
36.27046203613281
 31
0.0
  0
LINE
  8
0
 10
47.588462829589844
 20
36.383018493652344
 30
0.0
 11
47.59999084472656
 21
36.50007247924805
 31
0.0
  0
LINE
  8
0
 10
47.588462829589844
 20
36.617122650146484
 30
0.0
 11
47.59999084472656
 21
36.50007247924805
 31
0.0
  0
LINE
  8
0
 10
47.588462829589844
 20
36.617122650146484
 30
0.0
 11
47.5543212890625
 21
36.72968292236328
 31
0.0
  0
LINE
  8
0
 10
47.49887466430664
 20
36.83341598510742
 30
0.0
 11
47.5543212890625
 21
36.72968292236328
 31
0.0
  0
LINE
  8
0
 10
47.49887466430664
 20
36.83341598510742
 30
0.0
 11
47.42425537109375
 21
36.92433547973633
 31
0.0
  0
LINE
  8
0
 10
47.33333206176758
 20
36.99895477294922
 30
0.0
 11
47.42425537109375
 21
36.92433547973633
 31
0.0
  0
LINE
  8
0
 10
47.33333206176758
 20
36.99895477294922
 30
0.0
 11
47.22959899902344
 21
37.05439758300781
 31
0.0
  0
LINE
  8
0
 10
47.11704635620117
 20
37.08854293823242
 30
0.0
 11
47.22959899902344
 21
37.05439758300781
 31
0.0
  0
LINE
  8
0
 10
46.99999237060547
 20
37.10007095336914
 30
0.0
 11
47.11704635620117
 21
37.08854293823242
 31
0.0
  0
LINE
  8
0
 10
46.99999237060547
 20
37.10007095336914
 30
0.0
 11
46.8829345703125
 21
37.08854293823242
 31
0.0
  0
LINE
  8
0
 10
46.8829345703125
 20
37.08854293823242
 30
0.0
 11
46.770381927490234
 21
37.05439758300781
 31
0.0
  0
LINE
  8
0
 10
46.666648864746094
 20
36.99895477294922
 30
0.0
 11
46.770381927490234
 21
37.05439758300781
 31
0.0
  0
LINE
  8
0
 10
46.666648864746094
 20
36.99895477294922
 30
0.0
 11
46.57572937011719
 21
36.92433547973633
 31
0.0
  0
LINE
  8
0
 10
101.58846282958984
 20
36.61712646484375
 30
0.0
 11
101.5543212890625
 21
36.72968292236328
 31
0.0
  0
LINE
  8
0
 10
101.58846282958984
 20
36.38302230834961
 30
0.0
 11
101.5543212890625
 21
36.27046203613281
 31
0.0
  0
LINE
  8
0
 10
101.58846282958984
 20
36.38302230834961
 30
0.0
 11
101.60000610351562
 21
36.50007247924805
 31
0.0
  0
LINE
  8
0
 10
101.58846282958984
 20
36.61712646484375
 30
0.0
 11
101.60000610351562
 21
36.50007247924805
 31
0.0
  0
LINE
  8
0
 10
39.499996185302734
 20
-60.50002670288086
 30
0.0
 11
-40.50000762939453
 21
-60.500038146972656
 31
0.0
  0
LINE
  8
0
 10
-40.50000762939453
 20
-60.500038146972656
 30
0.0
 11
-40.50000762939453
 21
-0.5000323057174683
 31
0.0
  0
LINE
  8
0
 10
39.499996185302734
 20
-0.5000263452529907
 30
0.0
 11
-40.50000762939453
 21
-0.5000323057174683
 31
0.0
  0
LINE
  8
0
 10
39.499996185302734
 20
-60.50002670288086
 30
0.0
 11
39.499996185302734
 21
-0.5000263452529907
 31
0.0
  0
LINE
  8
0
 10
39.499996185302734
 20
0.00011622905731201172
 30
0.0
 11
-40.50000762939453
 21
0.00011026859283447266
 31
0.0
  0
LINE
  8
0
 10
-40.50000762939453
 20
0.00011026859283447266
 30
0.0
 11
-40.50000762939453
 21
60.0001106262207
 31
0.0
  0
LINE
  8
0
 10
39.499996185302734
 20
60.0001220703125
 30
0.0
 11
-40.50000762939453
 21
60.0001106262207
 31
0.0
  0
LINE
  8
0
 10
39.499996185302734
 20
0.00011622905731201172
 30
0.0
 11
39.499996185302734
 21
60.0001220703125
 31
0.0
  0
LINE
  8
0
 10
119.99999237060547
 20
-60.50002670288086
 30
0.0
 11
39.999996185302734
 21
-60.500038146972656
 31
0.0
  0
LINE
  8
0
 10
39.999996185302734
 20
-60.500038146972656
 30
0.0
 11
39.999996185302734
 21
-0.5000323057174683
 31
0.0
  0
LINE
  8
0
 10
119.99999237060547
 20
-0.5000263452529907
 30
0.0
 11
39.999996185302734
 21
-0.5000323057174683
 31
0.0
  0
LINE
  8
0
 10
119.99999237060547
 20
-60.50002670288086
 30
0.0
 11
119.99999237060547
 21
-0.5000263452529907
 31
0.0
  0
ENDSEC
  0
EOF
