  0
SECTION
  2
HEADER
  9
$ACADVER
  1
AC1009
  9
$INSBASE
 10
0.0
 20
0.0
 30
0.0
  9
$EXTMIN
 10
0.0
 20
0.0
 30
0.0
  9
$EXTMAX
 10
0.0
 20
0.0
 30
0.0
  0
ENDSEC
  0
SECTION
  2
TABLES
  0
TABLE
  2
VPORT
 70
1
  0
VPORT
  2
*ACTIVE
 70
0
 10
0.0
 20
0.0
 11
1.0
 21
1.0
 12
-5.0
 22
1.0
 13
0.0
 23
0.0
 14
0.1
 24
0.1
 15
0.1
 25
0.1
 16
0.0
 26
0.0
 36
1.0
 17
0.0
 27
0.0
 37
0.0
 40
10.0
 41
1.0
 42
50.0
 43
0.0
 44
0.0
 50
0.0
 51
0.0
 71
0
 72
100
 73
1
 74
1
 75
0
 76
0
 77
0
 78
0
  0
ENDTAB
  0
TABLE
  2
LTYPE
 70
8
  0
LTYPE
  2
CONTINUOUS
 70
0
  3
Solid line
 72
65
 73
0
 40
0.0
  0
LTYPE
  2
DOT
 70
0
  3
. . . . . . .
 72
65
 73
2
 40
0.25
 49
0.0
 49
-0.25
  0
LTYPE
  2
DASHED
 70
0
  3
__ __ __ __ __
 72
65
 73
2
 40
0.8
 49
0.5
 49
-0.3
  0
LTYPE
  2
DASHDOT
 70
0
  3
__ . __ . __ .
 72
65
 73
4
 40
1.0
 49
0.5
 49
-0.25
 49
0.0
 49
-0.25
  0
LTYPE
  2
DIVIDE
 70
0
  3
____ . . ____ . . 
 72
65
 73
6
 40
1.25
 49
0.5
 49
-0.25
 49
0.0
 49
-0.25
 49
0.0
 49
-0.25
  0
LTYPE
  2
BORDER
 70
0
  3
__ __ . __ __ . 
 72
65
 73
6
 40
1.75
 49
0.5
 49
-0.25
 49
0.5
 49
-0.25
 49
0.0
 49
-0.25
  0
LTYPE
  2
HIDDEN
 70
0
  3
__ __ __ __ __
 72
65
 73
2
 40
0.4
 49
0.25
 49
-0.25
  0
LTYPE
  2
CENTER
 70
0
  3
____ _ ____ _ __
 72
65
 73
4
 40
2.0
 49
1.25
 49
-0.25
 49
0.25
 49
-0.25
  0
ENDTAB
  0
TABLE
  2
LAYER
 70
1
  0
LAYER
  2
PYDXF
 70
64
 62
7
  6
continuous
  0
ENDTAB
  0
TABLE
  2
STYLE
 70
1
  0
STYLE
  2
STANDARD
 70
0
 40
0
 41
1.0
 50
0.0
 71
0
 42
1
 3
ARIAL.TTF
 4

  0
ENDTAB
  0
TABLE
  2
VIEW
 70
1
  0
VIEW
  2
BF_TOPVIEW
 70
0
 40
120.0
 10
0.0
 20
0.0
 41
200.0
 11
0.0
 21
0.0
 31
1.0
 12
0.0
 22
0.0
 32
0.0
 42
50.0
 43
0.0
 44
0.0
 50
0.0
 71
0
  0
ENDTAB
  0
ENDSEC
  0
SECTION
  2
BLOCKS
  0
ENDSEC
  0
SECTION
  2
ENTITIES
  0
LINE
  8
0
 10
-122.0
 20
-61.0
 30
0.0
 11
-122.0
 21
61.0
 31
0.0
  0
LINE
  8
0
 10
-122.0
 20
-61.0
 30
0.0
 11
122.0
 21
-61.0
 31
0.0
  0
LINE
  8
0
 10
122.0
 20
-61.0
 30
0.0
 11
122.0
 21
61.0
 31
0.0
  0
LINE
  8
0
 10
-122.0
 20
61.0
 30
0.0
 11
122.0
 21
61.0
 31
0.0
  0
LINE
  8
0
 10
-49.30002212524414
 20
-41.50006103515625
 30
0.0
 11
-49.30002212524414
 21
-47.50006103515625
 31
0.0
  0
LINE
  8
0
 10
-55.30002212524414
 20
-45.50006103515625
 30
0.0
 11
-55.30002212524414
 21
-51.500057220458984
 31
0.0
  0
LINE
  8
0
 10
-53.30002212524414
 20
-51.500057220458984
 30
0.0
 11
-53.30002212524414
 21
-49.50006103515625
 31
0.0
  0
LINE
  8
0
 10
-55.30002212524414
 20
-51.500057220458984
 30
0.0
 11
-53.30002212524414
 21
-51.500057220458984
 31
0.0
  0
LINE
  8
0
 10
-55.30002212524414
 20
-45.50006103515625
 30
0.0
 11
-53.30002212524414
 21
-45.50006103515625
 31
0.0
  0
LINE
  8
0
 10
-53.30002212524414
 20
-45.50006103515625
 30
0.0
 11
-53.30002212524414
 21
-47.50006103515625
 31
0.0
  0
LINE
  8
0
 10
-49.30002212524414
 20
-49.50006103515625
 30
0.0
 11
-53.30002212524414
 21
-49.50006103515625
 31
0.0
  0
LINE
  8
0
 10
-49.30002212524414
 20
-47.50006103515625
 30
0.0
 11
-53.30002212524414
 21
-47.50006103515625
 31
0.0
  0
LINE
  8
0
 10
-49.30002212524414
 20
-55.50006103515625
 30
0.0
 11
-84.9000244140625
 21
-55.50006103515625
 31
0.0
  0
LINE
  8
0
 10
-49.30002212524414
 20
-55.50006103515625
 30
0.0
 11
-49.30002212524414
 21
-49.50006103515625
 31
0.0
  0
LINE
  8
0
 10
-84.9000244140625
 20
-55.50006103515625
 30
0.0
 11
-84.9000244140625
 21
-41.50006103515625
 31
0.0
  0
LINE
  8
0
 10
-49.30002212524414
 20
-41.50006103515625
 30
0.0
 11
-84.9000244140625
 21
-41.50006103515625
 31
0.0
  0
LINE
  8
0
 10
-49.30002212524414
 20
-41.00006103515625
 30
0.0
 11
-49.30002212524414
 21
-35.00006103515625
 31
0.0
  0
LINE
  8
0
 10
-49.30002212524414
 20
-41.00006103515625
 30
0.0
 11
-84.9000244140625
 21
-41.00006103515625
 31
0.0
  0
LINE
  8
0
 10
-55.30002212524414
 20
-31.000062942504883
 30
0.0
 11
-55.30002212524414
 21
-37.000064849853516
 31
0.0
  0
LINE
  8
0
 10
-53.30002212524414
 20
-37.000064849853516
 30
0.0
 11
-53.30002212524414
 21
-35.00006103515625
 31
0.0
  0
LINE
  8
0
 10
-55.30002212524414
 20
-37.000064849853516
 30
0.0
 11
-53.30002212524414
 21
-37.000064849853516
 31
0.0
  0
LINE
  8
0
 10
-55.30002212524414
 20
-31.000062942504883
 30
0.0
 11
-53.30002212524414
 21
-31.000062942504883
 31
0.0
  0
LINE
  8
0
 10
-53.30002212524414
 20
-31.000062942504883
 30
0.0
 11
-53.30002212524414
 21
-33.000064849853516
 31
0.0
  0
LINE
  8
0
 10
-49.30002212524414
 20
-35.00006103515625
 30
0.0
 11
-53.30002212524414
 21
-35.00006103515625
 31
0.0
  0
LINE
  8
0
 10
-49.30002212524414
 20
-33.000064849853516
 30
0.0
 11
-53.30002212524414
 21
-33.000064849853516
 31
0.0
  0
LINE
  8
0
 10
-84.9000244140625
 20
-41.00006103515625
 30
0.0
 11
-84.9000244140625
 21
-27.000062942504883
 31
0.0
  0
LINE
  8
0
 10
-49.30002212524414
 20
-27.000062942504883
 30
0.0
 11
-84.9000244140625
 21
-27.000062942504883
 31
0.0
  0
LINE
  8
0
 10
-49.30002212524414
 20
-27.000062942504883
 30
0.0
 11
-49.30002212524414
 21
-33.000064849853516
 31
0.0
  0
LINE
  8
0
 10
-49.30002212524414
 20
-12.500065803527832
 30
0.0
 11
-49.30002212524414
 21
-18.500064849853516
 31
0.0
  0
LINE
  8
0
 10
-49.30002212524414
 20
-12.500065803527832
 30
0.0
 11
-84.9000244140625
 21
-12.500065803527832
 31
0.0
  0
LINE
  8
0
 10
-55.30002212524414
 20
-16.500064849853516
 30
0.0
 11
-55.30002212524414
 21
-22.500062942504883
 31
0.0
  0
LINE
  8
0
 10
-53.30002212524414
 20
-22.500062942504883
 30
0.0
 11
-53.30002212524414
 21
-20.500064849853516
 31
0.0
  0
LINE
  8
0
 10
-55.30002212524414
 20
-22.500062942504883
 30
0.0
 11
-53.30002212524414
 21
-22.500062942504883
 31
0.0
  0
LINE
  8
0
 10
-55.30002212524414
 20
-16.500064849853516
 30
0.0
 11
-53.30002212524414
 21
-16.500064849853516
 31
0.0
  0
LINE
  8
0
 10
-84.9000244140625
 20
-26.500064849853516
 30
0.0
 11
-84.9000244140625
 21
-12.500065803527832
 31
0.0
  0
LINE
  8
0
 10
-53.30002212524414
 20
-16.500064849853516
 30
0.0
 11
-53.30002212524414
 21
-18.500064849853516
 31
0.0
  0
LINE
  8
0
 10
-49.30002212524414
 20
-20.500064849853516
 30
0.0
 11
-53.30002212524414
 21
-20.500064849853516
 31
0.0
  0
LINE
  8
0
 10
-49.30002212524414
 20
-18.500064849853516
 30
0.0
 11
-53.30002212524414
 21
-18.500064849853516
 31
0.0
  0
LINE
  8
0
 10
-49.30002212524414
 20
-26.500064849853516
 30
0.0
 11
-84.9000244140625
 21
-26.500064849853516
 31
0.0
  0
LINE
  8
0
 10
-49.30002212524414
 20
-26.500064849853516
 30
0.0
 11
-49.30002212524414
 21
-20.500064849853516
 31
0.0
  0
LINE
  8
0
 10
-49.30002212524414
 20
1.9999332427978516
 30
0.0
 11
-49.30002212524414
 21
-4.000066757202148
 31
0.0
  0
LINE
  8
0
 10
-49.30002212524414
 20
1.9999332427978516
 30
0.0
 11
-84.9000244140625
 21
1.999931812286377
 31
0.0
  0
LINE
  8
0
 10
-55.30002212524414
 20
-2.0000667572021484
 30
0.0
 11
-55.30002212524414
 21
-8.000065803527832
 31
0.0
  0
LINE
  8
0
 10
-53.30002212524414
 20
-8.000065803527832
 30
0.0
 11
-53.30002212524414
 21
-6.000065803527832
 31
0.0
  0
LINE
  8
0
 10
-55.30002212524414
 20
-8.000065803527832
 30
0.0
 11
-53.30002212524414
 21
-8.000065803527832
 31
0.0
  0
LINE
  8
0
 10
-55.30002212524414
 20
-2.0000667572021484
 30
0.0
 11
-53.30002212524414
 21
-2.0000667572021484
 31
0.0
  0
LINE
  8
0
 10
-84.9000244140625
 20
-12.000066757202148
 30
0.0
 11
-84.9000244140625
 21
1.999931812286377
 31
0.0
  0
LINE
  8
0
 10
-53.30002212524414
 20
-2.0000667572021484
 30
0.0
 11
-53.30002212524414
 21
-4.000066757202148
 31
0.0
  0
LINE
  8
0
 10
-49.30002212524414
 20
-6.000065326690674
 30
0.0
 11
-53.30002212524414
 21
-6.000065803527832
 31
0.0
  0
LINE
  8
0
 10
-49.30002212524414
 20
-4.000066757202148
 30
0.0
 11
-53.30002212524414
 21
-4.000066757202148
 31
0.0
  0
LINE
  8
0
 10
-49.30002212524414
 20
-12.000064849853516
 30
0.0
 11
-84.9000244140625
 21
-12.000066757202148
 31
0.0
  0
LINE
  8
0
 10
-49.30002212524414
 20
-12.000064849853516
 30
0.0
 11
-49.30002212524414
 21
-6.000065326690674
 31
0.0
  0
LINE
  8
0
 10
-49.30002212524414
 20
16.49997901916504
 30
0.0
 11
-84.9000244140625
 21
16.49997901916504
 31
0.0
  0
LINE
  8
0
 10
-55.30002212524414
 20
12.499979019165039
 30
0.0
 11
-55.30002212524414
 21
6.499980449676514
 31
0.0
  0
LINE
  8
0
 10
-53.30002212524414
 20
6.499980449676514
 30
0.0
 11
-53.30002212524414
 21
8.499979972839355
 31
0.0
  0
LINE
  8
0
 10
-55.30002212524414
 20
6.499980449676514
 30
0.0
 11
-53.30002212524414
 21
6.499980449676514
 31
0.0
  0
LINE
  8
0
 10
-55.30002212524414
 20
12.499979019165039
 30
0.0
 11
-53.30002212524414
 21
12.499979019165039
 31
0.0
  0
LINE
  8
0
 10
-84.9000244140625
 20
2.499979019165039
 30
0.0
 11
-84.9000244140625
 21
16.49997901916504
 31
0.0
  0
LINE
  8
0
 10
-53.30002212524414
 20
12.499979019165039
 30
0.0
 11
-53.30002212524414
 21
10.499979019165039
 31
0.0
  0
LINE
  8
0
 10
-49.30002212524414
 20
8.499979972839355
 30
0.0
 11
-53.30002212524414
 21
8.499979972839355
 31
0.0
  0
LINE
  8
0
 10
-49.30002212524414
 20
10.499979972839355
 30
0.0
 11
-53.30002212524414
 21
10.499979019165039
 31
0.0
  0
LINE
  8
0
 10
-49.30002212524414
 20
2.4999804496765137
 30
0.0
 11
-84.9000244140625
 21
2.499979019165039
 31
0.0
  0
LINE
  8
0
 10
-49.30002212524414
 20
2.4999804496765137
 30
0.0
 11
-49.30002212524414
 21
8.499979972839355
 31
0.0
  0
LINE
  8
0
 10
-49.30002212524414
 20
16.49997901916504
 30
0.0
 11
-49.30002212524414
 21
10.499979972839355
 31
0.0
  0
LINE
  8
0
 10
-49.30002212524414
 20
16.999977111816406
 30
0.0
 11
-49.30002212524414
 21
22.999977111816406
 31
0.0
  0
LINE
  8
0
 10
-49.30002212524414
 20
30.999977111816406
 30
0.0
 11
-49.30002212524414
 21
24.999977111816406
 31
0.0
  0
LINE
  8
0
 10
-55.30002212524414
 20
26.999977111816406
 30
0.0
 11
-55.30002212524414
 21
20.99997901916504
 31
0.0
  0
LINE
  8
0
 10
-53.30002212524414
 20
20.99997901916504
 30
0.0
 11
-53.30002212524414
 21
22.999977111816406
 31
0.0
  0
LINE
  8
0
 10
-55.30002212524414
 20
20.99997901916504
 30
0.0
 11
-53.30002212524414
 21
20.99997901916504
 31
0.0
  0
LINE
  8
0
 10
-55.30002212524414
 20
26.999977111816406
 30
0.0
 11
-53.30002212524414
 21
26.999977111816406
 31
0.0
  0
LINE
  8
0
 10
-49.30002212524414
 20
30.999977111816406
 30
0.0
 11
-84.9000244140625
 21
30.999977111816406
 31
0.0
  0
LINE
  8
0
 10
-53.30002212524414
 20
26.999977111816406
 30
0.0
 11
-53.30002212524414
 21
24.999977111816406
 31
0.0
  0
LINE
  8
0
 10
-49.30002212524414
 20
22.999977111816406
 30
0.0
 11
-53.30002212524414
 21
22.999977111816406
 31
0.0
  0
LINE
  8
0
 10
-49.30002212524414
 20
24.999977111816406
 30
0.0
 11
-53.30002212524414
 21
24.999977111816406
 31
0.0
  0
LINE
  8
0
 10
-49.30002212524414
 20
16.999977111816406
 30
0.0
 11
-84.9000244140625
 21
16.999977111816406
 31
0.0
  0
LINE
  8
0
 10
-84.9000244140625
 20
16.999977111816406
 30
0.0
 11
-84.9000244140625
 21
30.999977111816406
 31
0.0
  0
LINE
  8
0
 10
-49.30002212524414
 20
45.49997329711914
 30
0.0
 11
-49.30002212524414
 21
39.49997329711914
 31
0.0
  0
LINE
  8
0
 10
-49.30002212524414
 20
45.49997329711914
 30
0.0
 11
-84.9000244140625
 21
45.49997329711914
 31
0.0
  0
LINE
  8
0
 10
-55.30002212524414
 20
41.499977111816406
 30
0.0
 11
-55.30002212524414
 21
35.49997329711914
 31
0.0
  0
LINE
  8
0
 10
-53.30002212524414
 20
35.49997329711914
 30
0.0
 11
-53.30002212524414
 21
37.499977111816406
 31
0.0
  0
LINE
  8
0
 10
-55.30002212524414
 20
35.49997329711914
 30
0.0
 11
-53.30002212524414
 21
35.49997329711914
 31
0.0
  0
LINE
  8
0
 10
-55.30002212524414
 20
41.499977111816406
 30
0.0
 11
-53.30002212524414
 21
41.499977111816406
 31
0.0
  0
LINE
  8
0
 10
-84.9000244140625
 20
31.499975204467773
 30
0.0
 11
-84.9000244140625
 21
45.49997329711914
 31
0.0
  0
LINE
  8
0
 10
-53.30002212524414
 20
41.499977111816406
 30
0.0
 11
-53.30002212524414
 21
39.49997329711914
 31
0.0
  0
LINE
  8
0
 10
-49.30002212524414
 20
37.499977111816406
 30
0.0
 11
-53.30002212524414
 21
37.499977111816406
 31
0.0
  0
LINE
  8
0
 10
-49.30002212524414
 20
39.49997329711914
 30
0.0
 11
-53.30002212524414
 21
39.49997329711914
 31
0.0
  0
LINE
  8
0
 10
-49.30002212524414
 20
31.499975204467773
 30
0.0
 11
-84.9000244140625
 21
31.499975204467773
 31
0.0
  0
LINE
  8
0
 10
-49.30002212524414
 20
31.499975204467773
 30
0.0
 11
-49.30002212524414
 21
37.499977111816406
 31
0.0
  0
LINE
  8
0
 10
-49.30002212524414
 20
59.99997329711914
 30
0.0
 11
-49.30002212524414
 21
53.99997329711914
 31
0.0
  0
LINE
  8
0
 10
-84.9000244140625
 20
45.99997329711914
 30
0.0
 11
-84.9000244140625
 21
59.99997329711914
 31
0.0
  0
LINE
  8
0
 10
-55.30002212524414
 20
55.999969482421875
 30
0.0
 11
-55.30002212524414
 21
49.99997329711914
 31
0.0
  0
LINE
  8
0
 10
-53.30002212524414
 20
49.99997329711914
 30
0.0
 11
-53.30002212524414
 21
51.99997329711914
 31
0.0
  0
LINE
  8
0
 10
-55.30002212524414
 20
49.99997329711914
 30
0.0
 11
-53.30002212524414
 21
49.99997329711914
 31
0.0
  0
LINE
  8
0
 10
-55.30002212524414
 20
55.999969482421875
 30
0.0
 11
-53.30002212524414
 21
55.999969482421875
 31
0.0
  0
LINE
  8
0
 10
-49.30002212524414
 20
59.99997329711914
 30
0.0
 11
-84.9000244140625
 21
59.99997329711914
 31
0.0
  0
LINE
  8
0
 10
-53.30002212524414
 20
55.999969482421875
 30
0.0
 11
-53.30002212524414
 21
53.99997329711914
 31
0.0
  0
LINE
  8
0
 10
-49.30002212524414
 20
51.99997329711914
 30
0.0
 11
-53.30002212524414
 21
51.99997329711914
 31
0.0
  0
LINE
  8
0
 10
-49.30002212524414
 20
53.99997329711914
 30
0.0
 11
-53.30002212524414
 21
53.99997329711914
 31
0.0
  0
LINE
  8
0
 10
-49.30002212524414
 20
45.99997329711914
 30
0.0
 11
-84.9000244140625
 21
45.99997329711914
 31
0.0
  0
LINE
  8
0
 10
-49.30002212524414
 20
45.99997329711914
 30
0.0
 11
-49.30002212524414
 21
51.99997329711914
 31
0.0
  0
LINE
  8
0
 10
104.0999755859375
 20
-33.50007629394531
 30
0.0
 11
110.09996795654297
 21
-33.50007629394531
 31
0.0
  0
LINE
  8
0
 10
110.09996795654297
 20
-10.500073432922363
 30
0.0
 11
104.0999755859375
 21
-10.500073432922363
 31
0.0
  0
LINE
  8
0
 10
104.0999755859375
 20
-33.50007629394531
 30
0.0
 11
104.0999755859375
 21
-31.500076293945312
 31
0.0
  0
LINE
  8
0
 10
110.09996795654297
 20
-33.50007629394531
 30
0.0
 11
110.09996795654297
 21
-31.500076293945312
 31
0.0
  0
LINE
  8
0
 10
95.5999755859375
 20
-19.000070571899414
 30
0.0
 11
95.5999755859375
 21
-25.000078201293945
 31
0.0
  0
LINE
  8
0
 10
118.5999755859375
 20
-25.000078201293945
 30
0.0
 11
118.5999755859375
 21
-19.000070571899414
 31
0.0
  0
LINE
  8
0
 10
97.59996795654297
 20
-12.50007438659668
 30
0.0
 11
97.59996795654297
 21
-19.000070571899414
 31
0.0
  0
LINE
  8
0
 10
97.59996795654297
 20
-25.000078201293945
 30
0.0
 11
97.59996795654297
 21
-31.500076293945312
 31
0.0
  0
LINE
  8
0
 10
104.0999755859375
 20
-10.500073432922363
 30
0.0
 11
104.0999755859375
 21
-12.500073432922363
 31
0.0
  0
LINE
  8
0
 10
110.09996795654297
 20
-10.500073432922363
 30
0.0
 11
110.09996795654297
 21
-12.500073432922363
 31
0.0
  0
LINE
  8
0
 10
116.5999755859375
 20
-12.50007152557373
 30
0.0
 11
116.5999755859375
 21
-19.000070571899414
 31
0.0
  0
LINE
  8
0
 10
116.5999755859375
 20
-25.000078201293945
 30
0.0
 11
116.5999755859375
 21
-31.50007438659668
 31
0.0
  0
LINE
  8
0
 10
110.09996795654297
 20
-31.500076293945312
 30
0.0
 11
116.5999755859375
 21
-31.50007438659668
 31
0.0
  0
LINE
  8
0
 10
110.09996795654297
 20
-12.500073432922363
 30
0.0
 11
116.5999755859375
 21
-12.50007152557373
 31
0.0
  0
LINE
  8
0
 10
97.59996795654297
 20
-31.500076293945312
 30
0.0
 11
104.0999755859375
 21
-31.500076293945312
 31
0.0
  0
LINE
  8
0
 10
97.59996795654297
 20
-12.50007438659668
 30
0.0
 11
104.0999755859375
 21
-12.500073432922363
 31
0.0
  0
LINE
  8
0
 10
95.5999755859375
 20
-25.000078201293945
 30
0.0
 11
97.59996795654297
 21
-25.000078201293945
 31
0.0
  0
LINE
  8
0
 10
95.5999755859375
 20
-19.000070571899414
 30
0.0
 11
97.59996795654297
 21
-19.000070571899414
 31
0.0
  0
LINE
  8
0
 10
118.5999755859375
 20
-25.000078201293945
 30
0.0
 11
116.5999755859375
 21
-25.000078201293945
 31
0.0
  0
LINE
  8
0
 10
118.5999755859375
 20
-19.000070571899414
 30
0.0
 11
116.5999755859375
 21
-19.000070571899414
 31
0.0
  0
LINE
  8
0
 10
104.0999755859375
 20
-10.000061988830566
 30
0.0
 11
110.09996795654297
 21
-10.000061988830566
 31
0.0
  0
LINE
  8
0
 10
110.09996795654297
 20
12.999939918518066
 30
0.0
 11
104.0999755859375
 21
12.999939918518066
 31
0.0
  0
LINE
  8
0
 10
104.0999755859375
 20
-10.000061988830566
 30
0.0
 11
104.0999755859375
 21
-8.000061988830566
 31
0.0
  0
LINE
  8
0
 10
110.09996795654297
 20
-10.000061988830566
 30
0.0
 11
110.09996795654297
 21
-8.000061988830566
 31
0.0
  0
LINE
  8
0
 10
95.5999755859375
 20
4.499941349029541
 30
0.0
 11
95.5999755859375
 21
-1.500064730644226
 31
0.0
  0
LINE
  8
0
 10
118.5999755859375
 20
-1.5000635385513306
 30
0.0
 11
118.5999755859375
 21
4.499942779541016
 31
0.0
  0
LINE
  8
0
 10
97.59996795654297
 20
10.999939918518066
 30
0.0
 11
97.59996795654297
 21
4.499941825866699
 31
0.0
  0
LINE
  8
0
 10
97.59996795654297
 20
-1.500064492225647
 30
0.0
 11
97.59996795654297
 21
-8.000062942504883
 31
0.0
  0
LINE
  8
0
 10
104.0999755859375
 20
12.999939918518066
 30
0.0
 11
104.0999755859375
 21
10.999939918518066
 31
0.0
  0
LINE
  8
0
 10
110.09996795654297
 20
12.999939918518066
 30
0.0
 11
110.09996795654297
 21
10.999939918518066
 31
0.0
  0
LINE
  8
0
 10
116.5999755859375
 20
10.999940872192383
 30
0.0
 11
116.5999755859375
 21
4.499942302703857
 31
0.0
  0
LINE
  8
0
 10
116.5999755859375
 20
-1.5000637769699097
 30
0.0
 11
116.5999755859375
 21
-8.000061988830566
 31
0.0
  0
LINE
  8
0
 10
110.09996795654297
 20
-8.000061988830566
 30
0.0
 11
116.5999755859375
 21
-8.000061988830566
 31
0.0
  0
LINE
  8
0
 10
110.09996795654297
 20
10.999939918518066
 30
0.0
 11
116.5999755859375
 21
10.999940872192383
 31
0.0
  0
LINE
  8
0
 10
97.59996795654297
 20
-8.000062942504883
 30
0.0
 11
104.0999755859375
 21
-8.000061988830566
 31
0.0
  0
LINE
  8
0
 10
97.59996795654297
 20
10.999939918518066
 30
0.0
 11
104.0999755859375
 21
10.999939918518066
 31
0.0
  0
LINE
  8
0
 10
95.5999755859375
 20
-1.500064730644226
 30
0.0
 11
97.59996795654297
 21
-1.500064492225647
 31
0.0
  0
LINE
  8
0
 10
95.5999755859375
 20
4.499941349029541
 30
0.0
 11
97.59996795654297
 21
4.499941825866699
 31
0.0
  0
LINE
  8
0
 10
118.5999755859375
 20
-1.5000635385513306
 30
0.0
 11
116.5999755859375
 21
-1.5000637769699097
 31
0.0
  0
LINE
  8
0
 10
118.5999755859375
 20
4.499942779541016
 30
0.0
 11
116.5999755859375
 21
4.499942302703857
 31
0.0
  0
LINE
  8
0
 10
104.0999755859375
 20
13.499951362609863
 30
0.0
 11
110.09996795654297
 21
13.499951362609863
 31
0.0
  0
LINE
  8
0
 10
110.09996795654297
 20
36.49995422363281
 30
0.0
 11
104.0999755859375
 21
36.49995422363281
 31
0.0
  0
LINE
  8
0
 10
104.0999755859375
 20
13.499951362609863
 30
0.0
 11
104.0999755859375
 21
15.499951362609863
 31
0.0
  0
LINE
  8
0
 10
110.09996795654297
 20
13.499951362609863
 30
0.0
 11
110.09996795654297
 21
15.499951362609863
 31
0.0
  0
LINE
  8
0
 10
95.5999755859375
 20
27.999956130981445
 30
0.0
 11
95.5999755859375
 21
21.999948501586914
 31
0.0
  0
LINE
  8
0
 10
118.5999755859375
 20
21.999948501586914
 30
0.0
 11
118.5999755859375
 21
27.999956130981445
 31
0.0
  0
LINE
  8
0
 10
97.59996795654297
 20
34.49995040893555
 30
0.0
 11
97.59996795654297
 21
27.999956130981445
 31
0.0
  0
LINE
  8
0
 10
97.59996795654297
 20
21.999948501586914
 30
0.0
 11
97.59996795654297
 21
15.49994945526123
 31
0.0
  0
LINE
  8
0
 10
104.0999755859375
 20
36.49995422363281
 30
0.0
 11
104.0999755859375
 21
34.49995422363281
 31
0.0
  0
LINE
  8
0
 10
110.09996795654297
 20
36.49995422363281
 30
0.0
 11
110.09996795654297
 21
34.49995422363281
 31
0.0
  0
LINE
  8
0
 10
116.5999755859375
 20
34.49995422363281
 30
0.0
 11
116.5999755859375
 21
27.999956130981445
 31
0.0
  0
LINE
  8
0
 10
116.5999755859375
 20
21.999948501586914
 30
0.0
 11
116.5999755859375
 21
15.49995231628418
 31
0.0
  0
LINE
  8
0
 10
110.09996795654297
 20
15.499951362609863
 30
0.0
 11
116.5999755859375
 21
15.49995231628418
 31
0.0
  0
LINE
  8
0
 10
110.09996795654297
 20
34.49995422363281
 30
0.0
 11
116.5999755859375
 21
34.49995422363281
 31
0.0
  0
LINE
  8
0
 10
97.59996795654297
 20
15.49994945526123
 30
0.0
 11
104.0999755859375
 21
15.499951362609863
 31
0.0
  0
LINE
  8
0
 10
97.59996795654297
 20
34.49995040893555
 30
0.0
 11
104.0999755859375
 21
34.49995422363281
 31
0.0
  0
LINE
  8
0
 10
95.5999755859375
 20
21.999948501586914
 30
0.0
 11
97.59996795654297
 21
21.999948501586914
 31
0.0
  0
LINE
  8
0
 10
95.5999755859375
 20
27.999956130981445
 30
0.0
 11
97.59996795654297
 21
27.999956130981445
 31
0.0
  0
LINE
  8
0
 10
118.5999755859375
 20
21.999948501586914
 30
0.0
 11
116.5999755859375
 21
21.999948501586914
 31
0.0
  0
LINE
  8
0
 10
118.5999755859375
 20
27.999956130981445
 30
0.0
 11
116.5999755859375
 21
27.999956130981445
 31
0.0
  0
LINE
  8
0
 10
104.0999755859375
 20
-57.00008773803711
 30
0.0
 11
110.09996795654297
 21
-57.00008773803711
 31
0.0
  0
LINE
  8
0
 10
110.09996795654297
 20
-34.00008773803711
 30
0.0
 11
104.0999755859375
 21
-34.00008773803711
 31
0.0
  0
LINE
  8
0
 10
104.0999755859375
 20
-57.00008773803711
 30
0.0
 11
104.0999755859375
 21
-55.000091552734375
 31
0.0
  0
LINE
  8
0
 10
110.09996795654297
 20
-57.00008773803711
 30
0.0
 11
110.09996795654297
 21
-55.000091552734375
 31
0.0
  0
LINE
  8
0
 10
95.5999755859375
 20
-42.500083923339844
 30
0.0
 11
95.5999755859375
 21
-48.500091552734375
 31
0.0
  0
LINE
  8
0
 10
118.5999755859375
 20
-48.500091552734375
 30
0.0
 11
118.5999755859375
 21
-42.500083923339844
 31
0.0
  0
LINE
  8
0
 10
97.59996795654297
 20
-36.00008773803711
 30
0.0
 11
97.59996795654297
 21
-42.500083923339844
 31
0.0
  0
LINE
  8
0
 10
97.59996795654297
 20
-48.500091552734375
 30
0.0
 11
97.59996795654297
 21
-55.000091552734375
 31
0.0
  0
LINE
  8
0
 10
104.0999755859375
 20
-34.00008773803711
 30
0.0
 11
104.0999755859375
 21
-36.000083923339844
 31
0.0
  0
LINE
  8
0
 10
110.09996795654297
 20
-34.00008773803711
 30
0.0
 11
110.09996795654297
 21
-36.000083923339844
 31
0.0
  0
LINE
  8
0
 10
116.5999755859375
 20
-36.000083923339844
 30
0.0
 11
116.5999755859375
 21
-42.500083923339844
 31
0.0
  0
LINE
  8
0
 10
116.5999755859375
 20
-48.500091552734375
 30
0.0
 11
116.5999755859375
 21
-55.000091552734375
 31
0.0
  0
LINE
  8
0
 10
110.09996795654297
 20
-55.000091552734375
 30
0.0
 11
116.5999755859375
 21
-55.000091552734375
 31
0.0
  0
LINE
  8
0
 10
110.09996795654297
 20
-36.000083923339844
 30
0.0
 11
116.5999755859375
 21
-36.000083923339844
 31
0.0
  0
LINE
  8
0
 10
97.59996795654297
 20
-55.000091552734375
 30
0.0
 11
104.0999755859375
 21
-55.000091552734375
 31
0.0
  0
LINE
  8
0
 10
97.59996795654297
 20
-36.00008773803711
 30
0.0
 11
104.0999755859375
 21
-36.000083923339844
 31
0.0
  0
LINE
  8
0
 10
95.5999755859375
 20
-48.500091552734375
 30
0.0
 11
97.59996795654297
 21
-48.500091552734375
 31
0.0
  0
LINE
  8
0
 10
95.5999755859375
 20
-42.500083923339844
 30
0.0
 11
97.59996795654297
 21
-42.500083923339844
 31
0.0
  0
LINE
  8
0
 10
118.5999755859375
 20
-48.500091552734375
 30
0.0
 11
116.5999755859375
 21
-48.500091552734375
 31
0.0
  0
LINE
  8
0
 10
118.5999755859375
 20
-42.500083923339844
 30
0.0
 11
116.5999755859375
 21
-42.500083923339844
 31
0.0
  0
LINE
  8
0
 10
104.0999755859375
 20
36.99996566772461
 30
0.0
 11
110.09996795654297
 21
36.99996566772461
 31
0.0
  0
LINE
  8
0
 10
110.09996795654297
 20
59.99996566772461
 30
0.0
 11
104.0999755859375
 21
59.99996566772461
 31
0.0
  0
LINE
  8
0
 10
104.0999755859375
 20
36.99996566772461
 30
0.0
 11
104.0999755859375
 21
38.999961853027344
 31
0.0
  0
LINE
  8
0
 10
110.09996795654297
 20
36.99996566772461
 30
0.0
 11
110.09996795654297
 21
38.999961853027344
 31
0.0
  0
LINE
  8
0
 10
95.5999755859375
 20
51.499969482421875
 30
0.0
 11
95.5999755859375
 21
45.499961853027344
 31
0.0
  0
LINE
  8
0
 10
118.5999755859375
 20
45.499961853027344
 30
0.0
 11
118.5999755859375
 21
51.499969482421875
 31
0.0
  0
LINE
  8
0
 10
97.59996795654297
 20
57.999969482421875
 30
0.0
 11
97.59996795654297
 21
51.499969482421875
 31
0.0
  0
LINE
  8
0
 10
97.59996795654297
 20
45.499961853027344
 30
0.0
 11
97.59996795654297
 21
38.999961853027344
 31
0.0
  0
LINE
  8
0
 10
104.0999755859375
 20
59.99996566772461
 30
0.0
 11
104.0999755859375
 21
57.999969482421875
 31
0.0
  0
LINE
  8
0
 10
110.09996795654297
 20
59.99996566772461
 30
0.0
 11
110.09996795654297
 21
57.999969482421875
 31
0.0
  0
LINE
  8
0
 10
116.5999755859375
 20
57.999969482421875
 30
0.0
 11
116.5999755859375
 21
51.499969482421875
 31
0.0
  0
LINE
  8
0
 10
116.5999755859375
 20
45.499961853027344
 30
0.0
 11
116.5999755859375
 21
38.99996566772461
 31
0.0
  0
LINE
  8
0
 10
110.09996795654297
 20
38.999961853027344
 30
0.0
 11
116.5999755859375
 21
38.99996566772461
 31
0.0
  0
LINE
  8
0
 10
110.09996795654297
 20
57.999969482421875
 30
0.0
 11
116.5999755859375
 21
57.999969482421875
 31
0.0
  0
LINE
  8
0
 10
97.59996795654297
 20
38.999961853027344
 30
0.0
 11
104.0999755859375
 21
38.999961853027344
 31
0.0
  0
LINE
  8
0
 10
97.59996795654297
 20
57.999969482421875
 30
0.0
 11
104.0999755859375
 21
57.999969482421875
 31
0.0
  0
LINE
  8
0
 10
95.5999755859375
 20
45.499961853027344
 30
0.0
 11
97.59996795654297
 21
45.499961853027344
 31
0.0
  0
LINE
  8
0
 10
95.5999755859375
 20
51.499969482421875
 30
0.0
 11
97.59996795654297
 21
51.499969482421875
 31
0.0
  0
LINE
  8
0
 10
118.5999755859375
 20
45.499961853027344
 30
0.0
 11
116.5999755859375
 21
45.499961853027344
 31
0.0
  0
LINE
  8
0
 10
118.5999755859375
 20
51.499969482421875
 30
0.0
 11
116.5999755859375
 21
51.499969482421875
 31
0.0
  0
LINE
  8
0
 10
-85.4000244140625
 20
-41.50006103515625
 30
0.0
 11
-85.4000244140625
 21
-47.50006103515625
 31
0.0
  0
LINE
  8
0
 10
-121.00001525878906
 20
-55.50006103515625
 30
0.0
 11
-121.00001525878906
 21
-41.50006103515625
 31
0.0
  0
LINE
  8
0
 10
-91.40001678466797
 20
-45.50006103515625
 30
0.0
 11
-91.40001678466797
 21
-51.500057220458984
 31
0.0
  0
LINE
  8
0
 10
-89.40001678466797
 20
-51.500057220458984
 30
0.0
 11
-89.40001678466797
 21
-49.50006103515625
 31
0.0
  0
LINE
  8
0
 10
-91.40001678466797
 20
-51.500057220458984
 30
0.0
 11
-89.40001678466797
 21
-51.500057220458984
 31
0.0
  0
LINE
  8
0
 10
-91.40001678466797
 20
-45.50006103515625
 30
0.0
 11
-89.40001678466797
 21
-45.50006103515625
 31
0.0
  0
LINE
  8
0
 10
-85.4000244140625
 20
-41.50006103515625
 30
0.0
 11
-121.00001525878906
 21
-41.50006103515625
 31
0.0
  0
LINE
  8
0
 10
-89.40001678466797
 20
-45.50006103515625
 30
0.0
 11
-89.40001678466797
 21
-47.50006103515625
 31
0.0
  0
LINE
  8
0
 10
-85.4000244140625
 20
-49.50006103515625
 30
0.0
 11
-89.40001678466797
 21
-49.50006103515625
 31
0.0
  0
LINE
  8
0
 10
-85.4000244140625
 20
-47.50006103515625
 30
0.0
 11
-89.40001678466797
 21
-47.50006103515625
 31
0.0
  0
LINE
  8
0
 10
-85.4000244140625
 20
-55.50006103515625
 30
0.0
 11
-121.00001525878906
 21
-55.50006103515625
 31
0.0
  0
LINE
  8
0
 10
-85.4000244140625
 20
-55.50006103515625
 30
0.0
 11
-85.4000244140625
 21
-49.50006103515625
 31
0.0
  0
LINE
  8
0
 10
-85.4000244140625
 20
-27.000062942504883
 30
0.0
 11
-85.4000244140625
 21
-33.000064849853516
 31
0.0
  0
LINE
  8
0
 10
-121.00001525878906
 20
-41.00006103515625
 30
0.0
 11
-121.00001525878906
 21
-27.000062942504883
 31
0.0
  0
LINE
  8
0
 10
-91.40001678466797
 20
-31.000062942504883
 30
0.0
 11
-91.40001678466797
 21
-37.000064849853516
 31
0.0
  0
LINE
  8
0
 10
-89.40001678466797
 20
-37.000064849853516
 30
0.0
 11
-89.40001678466797
 21
-35.00006103515625
 31
0.0
  0
LINE
  8
0
 10
-91.40001678466797
 20
-37.000064849853516
 30
0.0
 11
-89.40001678466797
 21
-37.000064849853516
 31
0.0
  0
LINE
  8
0
 10
-91.40001678466797
 20
-31.000062942504883
 30
0.0
 11
-89.40001678466797
 21
-31.000062942504883
 31
0.0
  0
LINE
  8
0
 10
-85.4000244140625
 20
-27.000062942504883
 30
0.0
 11
-121.00001525878906
 21
-27.000062942504883
 31
0.0
  0
LINE
  8
0
 10
-89.40001678466797
 20
-31.000062942504883
 30
0.0
 11
-89.40001678466797
 21
-33.000064849853516
 31
0.0
  0
LINE
  8
0
 10
-85.4000244140625
 20
-35.00006103515625
 30
0.0
 11
-89.40001678466797
 21
-35.00006103515625
 31
0.0
  0
LINE
  8
0
 10
-85.4000244140625
 20
-33.000064849853516
 30
0.0
 11
-89.40001678466797
 21
-33.000064849853516
 31
0.0
  0
LINE
  8
0
 10
-85.4000244140625
 20
-41.00006103515625
 30
0.0
 11
-121.00001525878906
 21
-41.00006103515625
 31
0.0
  0
LINE
  8
0
 10
-85.4000244140625
 20
-41.00006103515625
 30
0.0
 11
-85.4000244140625
 21
-35.00006103515625
 31
0.0
  0
LINE
  8
0
 10
-85.4000244140625
 20
-26.500064849853516
 30
0.0
 11
-85.4000244140625
 21
-20.500064849853516
 31
0.0
  0
LINE
  8
0
 10
-85.4000244140625
 20
-26.500064849853516
 30
0.0
 11
-121.00001525878906
 21
-26.500064849853516
 31
0.0
  0
LINE
  8
0
 10
-91.40001678466797
 20
-16.500064849853516
 30
0.0
 11
-91.40001678466797
 21
-22.500062942504883
 31
0.0
  0
LINE
  8
0
 10
-89.40001678466797
 20
-22.500062942504883
 30
0.0
 11
-89.40001678466797
 21
-20.500064849853516
 31
0.0
  0
LINE
  8
0
 10
-91.40001678466797
 20
-22.500062942504883
 30
0.0
 11
-89.40001678466797
 21
-22.500062942504883
 31
0.0
  0
LINE
  8
0
 10
-91.40001678466797
 20
-16.500064849853516
 30
0.0
 11
-89.40001678466797
 21
-16.500064849853516
 31
0.0
  0
LINE
  8
0
 10
-89.40001678466797
 20
-16.500064849853516
 30
0.0
 11
-89.40001678466797
 21
-18.500064849853516
 31
0.0
  0
LINE
  8
0
 10
-85.4000244140625
 20
-20.500064849853516
 30
0.0
 11
-89.40001678466797
 21
-20.500064849853516
 31
0.0
  0
LINE
  8
0
 10
-85.4000244140625
 20
-18.500064849853516
 30
0.0
 11
-89.40001678466797
 21
-18.500064849853516
 31
0.0
  0
LINE
  8
0
 10
-121.00001525878906
 20
-26.500064849853516
 30
0.0
 11
-121.00001525878906
 21
-12.500065803527832
 31
0.0
  0
LINE
  8
0
 10
-85.4000244140625
 20
-12.500065803527832
 30
0.0
 11
-121.00001525878906
 21
-12.500065803527832
 31
0.0
  0
LINE
  8
0
 10
-85.4000244140625
 20
-12.500065803527832
 30
0.0
 11
-85.4000244140625
 21
-18.500064849853516
 31
0.0
  0
LINE
  8
0
 10
-85.4000244140625
 20
1.9999332427978516
 30
0.0
 11
-85.4000244140625
 21
-4.000066757202148
 31
0.0
  0
LINE
  8
0
 10
-121.00001525878906
 20
-12.000066757202148
 30
0.0
 11
-121.00001525878906
 21
1.999931812286377
 31
0.0
  0
LINE
  8
0
 10
-91.40001678466797
 20
-2.0000667572021484
 30
0.0
 11
-91.40001678466797
 21
-8.000065803527832
 31
0.0
  0
LINE
  8
0
 10
-89.40001678466797
 20
-8.000065803527832
 30
0.0
 11
-89.40001678466797
 21
-6.000065803527832
 31
0.0
  0
LINE
  8
0
 10
-91.40001678466797
 20
-8.000065803527832
 30
0.0
 11
-89.40001678466797
 21
-8.000065803527832
 31
0.0
  0
LINE
  8
0
 10
-91.40001678466797
 20
-2.0000667572021484
 30
0.0
 11
-89.40001678466797
 21
-2.0000667572021484
 31
0.0
  0
LINE
  8
0
 10
-85.4000244140625
 20
1.9999332427978516
 30
0.0
 11
-121.00001525878906
 21
1.999931812286377
 31
0.0
  0
LINE
  8
0
 10
-89.40001678466797
 20
-2.0000667572021484
 30
0.0
 11
-89.40001678466797
 21
-4.000066757202148
 31
0.0
  0
LINE
  8
0
 10
-85.4000244140625
 20
-6.000065326690674
 30
0.0
 11
-89.40001678466797
 21
-6.000065803527832
 31
0.0
  0
LINE
  8
0
 10
-85.4000244140625
 20
-4.000066757202148
 30
0.0
 11
-89.40001678466797
 21
-4.000066757202148
 31
0.0
  0
LINE
  8
0
 10
-85.4000244140625
 20
-12.000064849853516
 30
0.0
 11
-121.00001525878906
 21
-12.000066757202148
 31
0.0
  0
LINE
  8
0
 10
-85.4000244140625
 20
-12.000064849853516
 30
0.0
 11
-85.4000244140625
 21
-6.000065326690674
 31
0.0
  0
LINE
  8
0
 10
-48.800025939941406
 20
-55.50006103515625
 30
0.0
 11
-48.800025939941406
 21
-41.50006103515625
 31
0.0
  0
LINE
  8
0
 10
-19.200023651123047
 20
-45.50006103515625
 30
0.0
 11
-19.200023651123047
 21
-51.500057220458984
 31
0.0
  0
LINE
  8
0
 10
-17.200023651123047
 20
-51.500057220458984
 30
0.0
 11
-17.200023651123047
 21
-49.50006103515625
 31
0.0
  0
LINE
  8
0
 10
-19.200023651123047
 20
-51.500057220458984
 30
0.0
 11
-17.200023651123047
 21
-51.500057220458984
 31
0.0
  0
LINE
  8
0
 10
-19.200023651123047
 20
-45.50006103515625
 30
0.0
 11
-17.200023651123047
 21
-45.50006103515625
 31
0.0
  0
LINE
  8
0
 10
-13.200023651123047
 20
-41.50006103515625
 30
0.0
 11
-48.800025939941406
 21
-41.50006103515625
 31
0.0
  0
LINE
  8
0
 10
-17.200023651123047
 20
-45.50006103515625
 30
0.0
 11
-17.200023651123047
 21
-47.50006103515625
 31
0.0
  0
LINE
  8
0
 10
-13.200023651123047
 20
-49.50006103515625
 30
0.0
 11
-17.200023651123047
 21
-49.50006103515625
 31
0.0
  0
LINE
  8
0
 10
-13.200023651123047
 20
-47.50006103515625
 30
0.0
 11
-17.200023651123047
 21
-47.50006103515625
 31
0.0
  0
LINE
  8
0
 10
-13.200023651123047
 20
-55.50006103515625
 30
0.0
 11
-48.800025939941406
 21
-55.50006103515625
 31
0.0
  0
LINE
  8
0
 10
-13.200023651123047
 20
-55.50006103515625
 30
0.0
 11
-13.200023651123047
 21
-49.50006103515625
 31
0.0
  0
LINE
  8
0
 10
-13.200023651123047
 20
-41.50006103515625
 30
0.0
 11
-13.200023651123047
 21
-47.50006103515625
 31
0.0
  0
LINE
  8
0
 10
-13.200023651123047
 20
-27.000062942504883
 30
0.0
 11
-48.800025939941406
 21
-27.000062942504883
 31
0.0
  0
LINE
  8
0
 10
-19.200023651123047
 20
-31.000062942504883
 30
0.0
 11
-19.200023651123047
 21
-37.000064849853516
 31
0.0
  0
LINE
  8
0
 10
-17.200023651123047
 20
-37.000064849853516
 30
0.0
 11
-17.200023651123047
 21
-35.00006103515625
 31
0.0
  0
LINE
  8
0
 10
-19.200023651123047
 20
-37.000064849853516
 30
0.0
 11
-17.200023651123047
 21
-37.000064849853516
 31
0.0
  0
LINE
  8
0
 10
-19.200023651123047
 20
-31.000062942504883
 30
0.0
 11
-17.200023651123047
 21
-31.000062942504883
 31
0.0
  0
LINE
  8
0
 10
-48.800025939941406
 20
-41.00006103515625
 30
0.0
 11
-48.800025939941406
 21
-27.000062942504883
 31
0.0
  0
LINE
  8
0
 10
-17.200023651123047
 20
-31.000062942504883
 30
0.0
 11
-17.200023651123047
 21
-33.000064849853516
 31
0.0
  0
LINE
  8
0
 10
-13.200023651123047
 20
-35.00006103515625
 30
0.0
 11
-17.200023651123047
 21
-35.00006103515625
 31
0.0
  0
LINE
  8
0
 10
-13.200023651123047
 20
-33.000064849853516
 30
0.0
 11
-17.200023651123047
 21
-33.000064849853516
 31
0.0
  0
LINE
  8
0
 10
-13.200023651123047
 20
-41.00006103515625
 30
0.0
 11
-48.800025939941406
 21
-41.00006103515625
 31
0.0
  0
LINE
  8
0
 10
-13.200023651123047
 20
-41.00006103515625
 30
0.0
 11
-13.200023651123047
 21
-35.00006103515625
 31
0.0
  0
LINE
  8
0
 10
-13.200023651123047
 20
-27.000062942504883
 30
0.0
 11
-13.200023651123047
 21
-33.000064849853516
 31
0.0
  0
LINE
  8
0
 10
-13.200023651123047
 20
-12.500065803527832
 30
0.0
 11
-13.200023651123047
 21
-18.500064849853516
 31
0.0
  0
LINE
  8
0
 10
-13.200023651123047
 20
-18.500064849853516
 30
0.0
 11
-17.200023651123047
 21
-18.500064849853516
 31
0.0
  0
LINE
  8
0
 10
-13.200023651123047
 20
-12.500065803527832
 30
0.0
 11
-48.800025939941406
 21
-12.500065803527832
 31
0.0
  0
LINE
  8
0
 10
-19.200023651123047
 20
-16.500064849853516
 30
0.0
 11
-19.200023651123047
 21
-22.500062942504883
 31
0.0
  0
LINE
  8
0
 10
-17.200023651123047
 20
-22.500062942504883
 30
0.0
 11
-17.200023651123047
 21
-20.500064849853516
 31
0.0
  0
LINE
  8
0
 10
-19.200023651123047
 20
-22.500062942504883
 30
0.0
 11
-17.200023651123047
 21
-22.500062942504883
 31
0.0
  0
LINE
  8
0
 10
-19.200023651123047
 20
-16.500064849853516
 30
0.0
 11
-17.200023651123047
 21
-16.500064849853516
 31
0.0
  0
LINE
  8
0
 10
-48.800025939941406
 20
-26.500064849853516
 30
0.0
 11
-48.800025939941406
 21
-12.500065803527832
 31
0.0
  0
LINE
  8
0
 10
-17.200023651123047
 20
-16.500064849853516
 30
0.0
 11
-17.200023651123047
 21
-18.500064849853516
 31
0.0
  0
LINE
  8
0
 10
-13.200023651123047
 20
-20.500064849853516
 30
0.0
 11
-17.200023651123047
 21
-20.500064849853516
 31
0.0
  0
LINE
  8
0
 10
-13.200023651123047
 20
-26.500064849853516
 30
0.0
 11
-48.800025939941406
 21
-26.500064849853516
 31
0.0
  0
LINE
  8
0
 10
-13.200023651123047
 20
-26.500064849853516
 30
0.0
 11
-13.200023651123047
 21
-20.500064849853516
 31
0.0
  0
LINE
  8
0
 10
-13.200023651123047
 20
1.9999332427978516
 30
0.0
 11
-48.800025939941406
 21
1.999931812286377
 31
0.0
  0
LINE
  8
0
 10
-19.200023651123047
 20
-2.0000667572021484
 30
0.0
 11
-19.200023651123047
 21
-8.000065803527832
 31
0.0
  0
LINE
  8
0
 10
-17.200023651123047
 20
-8.000065803527832
 30
0.0
 11
-17.200023651123047
 21
-6.000065803527832
 31
0.0
  0
LINE
  8
0
 10
-19.200023651123047
 20
-8.000065803527832
 30
0.0
 11
-17.200023651123047
 21
-8.000065803527832
 31
0.0
  0
LINE
  8
0
 10
-19.200023651123047
 20
-2.0000667572021484
 30
0.0
 11
-17.200023651123047
 21
-2.0000667572021484
 31
0.0
  0
LINE
  8
0
 10
-48.800025939941406
 20
-12.000066757202148
 30
0.0
 11
-48.800025939941406
 21
1.999931812286377
 31
0.0
  0
LINE
  8
0
 10
-17.200023651123047
 20
-2.0000667572021484
 30
0.0
 11
-17.200023651123047
 21
-4.000066757202148
 31
0.0
  0
LINE
  8
0
 10
-13.200023651123047
 20
-6.000065326690674
 30
0.0
 11
-17.200023651123047
 21
-6.000065803527832
 31
0.0
  0
LINE
  8
0
 10
-13.200023651123047
 20
-4.000066757202148
 30
0.0
 11
-17.200023651123047
 21
-4.000066757202148
 31
0.0
  0
LINE
  8
0
 10
-13.200023651123047
 20
-12.000064849853516
 30
0.0
 11
-48.800025939941406
 21
-12.000066757202148
 31
0.0
  0
LINE
  8
0
 10
-13.200023651123047
 20
-12.000064849853516
 30
0.0
 11
-13.200023651123047
 21
-6.000065326690674
 31
0.0
  0
LINE
  8
0
 10
-13.200023651123047
 20
1.9999332427978516
 30
0.0
 11
-13.200023651123047
 21
-4.000066757202148
 31
0.0
  0
LINE
  8
0
 10
-13.200023651123047
 20
2.4999804496765137
 30
0.0
 11
-13.200023651123047
 21
8.499979972839355
 31
0.0
  0
LINE
  8
0
 10
-13.200023651123047
 20
2.4999804496765137
 30
0.0
 11
-48.800025939941406
 21
2.499979019165039
 31
0.0
  0
LINE
  8
0
 10
-19.200023651123047
 20
12.499979019165039
 30
0.0
 11
-19.200023651123047
 21
6.499980449676514
 31
0.0
  0
LINE
  8
0
 10
-17.200023651123047
 20
6.499980449676514
 30
0.0
 11
-17.200023651123047
 21
8.499979972839355
 31
0.0
  0
LINE
  8
0
 10
-19.200023651123047
 20
6.499980449676514
 30
0.0
 11
-17.200023651123047
 21
6.499980449676514
 31
0.0
  0
LINE
  8
0
 10
-19.200023651123047
 20
12.499979019165039
 30
0.0
 11
-17.200023651123047
 21
12.499979019165039
 31
0.0
  0
LINE
  8
0
 10
-17.200023651123047
 20
12.499979019165039
 30
0.0
 11
-17.200023651123047
 21
10.499979019165039
 31
0.0
  0
LINE
  8
0
 10
-13.200023651123047
 20
8.499979972839355
 30
0.0
 11
-17.200023651123047
 21
8.499979972839355
 31
0.0
  0
LINE
  8
0
 10
-13.200023651123047
 20
10.499979972839355
 30
0.0
 11
-17.200023651123047
 21
10.499979019165039
 31
0.0
  0
LINE
  8
0
 10
-13.200023651123047
 20
16.49997901916504
 30
0.0
 11
-48.800025939941406
 21
16.49997901916504
 31
0.0
  0
LINE
  8
0
 10
-13.200023651123047
 20
16.49997901916504
 30
0.0
 11
-13.200023651123047
 21
10.499979972839355
 31
0.0
  0
LINE
  8
0
 10
-48.800025939941406
 20
2.499979019165039
 30
0.0
 11
-48.800025939941406
 21
16.49997901916504
 31
0.0
  0
LINE
  8
0
 10
-48.800025939941406
 20
16.999977111816406
 30
0.0
 11
-48.800025939941406
 21
30.999977111816406
 31
0.0
  0
LINE
  8
0
 10
-13.200023651123047
 20
22.999977111816406
 30
0.0
 11
-17.200023651123047
 21
22.999977111816406
 31
0.0
  0
LINE
  8
0
 10
-13.200023651123047
 20
16.999977111816406
 30
0.0
 11
-13.200023651123047
 21
22.999977111816406
 31
0.0
  0
LINE
  8
0
 10
-13.200023651123047
 20
16.999977111816406
 30
0.0
 11
-48.800025939941406
 21
16.999977111816406
 31
0.0
  0
LINE
  8
0
 10
-19.200023651123047
 20
26.999977111816406
 30
0.0
 11
-19.200023651123047
 21
20.99997901916504
 31
0.0
  0
LINE
  8
0
 10
-17.200023651123047
 20
20.99997901916504
 30
0.0
 11
-17.200023651123047
 21
22.999977111816406
 31
0.0
  0
LINE
  8
0
 10
-19.200023651123047
 20
20.99997901916504
 30
0.0
 11
-17.200023651123047
 21
20.99997901916504
 31
0.0
  0
LINE
  8
0
 10
-19.200023651123047
 20
26.999977111816406
 30
0.0
 11
-17.200023651123047
 21
26.999977111816406
 31
0.0
  0
LINE
  8
0
 10
-17.200023651123047
 20
26.999977111816406
 30
0.0
 11
-17.200023651123047
 21
24.999977111816406
 31
0.0
  0
LINE
  8
0
 10
-13.200023651123047
 20
24.999977111816406
 30
0.0
 11
-17.200023651123047
 21
24.999977111816406
 31
0.0
  0
LINE
  8
0
 10
-13.200023651123047
 20
30.999977111816406
 30
0.0
 11
-48.800025939941406
 21
30.999977111816406
 31
0.0
  0
LINE
  8
0
 10
-13.200023651123047
 20
30.999977111816406
 30
0.0
 11
-13.200023651123047
 21
24.999977111816406
 31
0.0
  0
LINE
  8
0
 10
-48.800025939941406
 20
31.499975204467773
 30
0.0
 11
-48.800025939941406
 21
45.49997329711914
 31
0.0
  0
LINE
  8
0
 10
-13.200023651123047
 20
37.499977111816406
 30
0.0
 11
-17.200023651123047
 21
37.499977111816406
 31
0.0
  0
LINE
  8
0
 10
-13.200023651123047
 20
31.499975204467773
 30
0.0
 11
-13.200023651123047
 21
37.499977111816406
 31
0.0
  0
LINE
  8
0
 10
-13.200023651123047
 20
31.499975204467773
 30
0.0
 11
-48.800025939941406
 21
31.499975204467773
 31
0.0
  0
LINE
  8
0
 10
-19.200023651123047
 20
41.499977111816406
 30
0.0
 11
-19.200023651123047
 21
35.49997329711914
 31
0.0
  0
LINE
  8
0
 10
-17.200023651123047
 20
35.49997329711914
 30
0.0
 11
-17.200023651123047
 21
37.499977111816406
 31
0.0
  0
LINE
  8
0
 10
-19.200023651123047
 20
35.49997329711914
 30
0.0
 11
-17.200023651123047
 21
35.49997329711914
 31
0.0
  0
LINE
  8
0
 10
-19.200023651123047
 20
41.499977111816406
 30
0.0
 11
-17.200023651123047
 21
41.499977111816406
 31
0.0
  0
LINE
  8
0
 10
-17.200023651123047
 20
41.499977111816406
 30
0.0
 11
-17.200023651123047
 21
39.49997329711914
 31
0.0
  0
LINE
  8
0
 10
-13.200023651123047
 20
39.49997329711914
 30
0.0
 11
-17.200023651123047
 21
39.49997329711914
 31
0.0
  0
LINE
  8
0
 10
-13.200023651123047
 20
45.49997329711914
 30
0.0
 11
-48.800025939941406
 21
45.49997329711914
 31
0.0
  0
LINE
  8
0
 10
-13.200023651123047
 20
45.49997329711914
 30
0.0
 11
-13.200023651123047
 21
39.49997329711914
 31
0.0
  0
LINE
  8
0
 10
-13.200023651123047
 20
45.99997329711914
 30
0.0
 11
-13.200023651123047
 21
51.99997329711914
 31
0.0
  0
LINE
  8
0
 10
-13.200023651123047
 20
45.99997329711914
 30
0.0
 11
-48.800025939941406
 21
45.99997329711914
 31
0.0
  0
LINE
  8
0
 10
-19.200023651123047
 20
55.999969482421875
 30
0.0
 11
-19.200023651123047
 21
49.99997329711914
 31
0.0
  0
LINE
  8
0
 10
-17.200023651123047
 20
49.99997329711914
 30
0.0
 11
-17.200023651123047
 21
51.99997329711914
 31
0.0
  0
LINE
  8
0
 10
-19.200023651123047
 20
49.99997329711914
 30
0.0
 11
-17.200023651123047
 21
49.99997329711914
 31
0.0
  0
LINE
  8
0
 10
-19.200023651123047
 20
55.999969482421875
 30
0.0
 11
-17.200023651123047
 21
55.999969482421875
 31
0.0
  0
LINE
  8
0
 10
-13.200023651123047
 20
59.99997329711914
 30
0.0
 11
-13.200023651123047
 21
53.99997329711914
 31
0.0
  0
LINE
  8
0
 10
-17.200023651123047
 20
55.999969482421875
 30
0.0
 11
-17.200023651123047
 21
53.99997329711914
 31
0.0
  0
LINE
  8
0
 10
-13.200023651123047
 20
51.99997329711914
 30
0.0
 11
-17.200023651123047
 21
51.99997329711914
 31
0.0
  0
LINE
  8
0
 10
-13.200023651123047
 20
53.99997329711914
 30
0.0
 11
-17.200023651123047
 21
53.99997329711914
 31
0.0
  0
LINE
  8
0
 10
-48.800025939941406
 20
45.99997329711914
 30
0.0
 11
-48.800025939941406
 21
59.99997329711914
 31
0.0
  0
LINE
  8
0
 10
-13.200023651123047
 20
59.99997329711914
 30
0.0
 11
-48.800025939941406
 21
59.99997329711914
 31
0.0
  0
LINE
  8
0
 10
22.89997673034668
 20
2.4999804496765137
 30
0.0
 11
22.89997673034668
 21
8.499979972839355
 31
0.0
  0
LINE
  8
0
 10
22.89997673034668
 20
2.4999804496765137
 30
0.0
 11
-12.700024604797363
 21
2.499979019165039
 31
0.0
  0
LINE
  8
0
 10
16.89997673034668
 20
12.499979019165039
 30
0.0
 11
16.89997673034668
 21
6.499980449676514
 31
0.0
  0
LINE
  8
0
 10
18.89997673034668
 20
6.499980449676514
 30
0.0
 11
18.89997673034668
 21
8.499979972839355
 31
0.0
  0
LINE
  8
0
 10
16.89997673034668
 20
6.499980449676514
 30
0.0
 11
18.89997673034668
 21
6.499980449676514
 31
0.0
  0
LINE
  8
0
 10
16.89997673034668
 20
12.499979019165039
 30
0.0
 11
18.89997673034668
 21
12.499979019165039
 31
0.0
  0
LINE
  8
0
 10
-12.700024604797363
 20
2.499979019165039
 30
0.0
 11
-12.700024604797363
 21
16.49997901916504
 31
0.0
  0
LINE
  8
0
 10
18.89997673034668
 20
12.499979019165039
 30
0.0
 11
18.89997673034668
 21
10.499979019165039
 31
0.0
  0
LINE
  8
0
 10
22.89997673034668
 20
8.499979972839355
 30
0.0
 11
18.89997673034668
 21
8.499979972839355
 31
0.0
  0
LINE
  8
0
 10
22.89997673034668
 20
10.499979972839355
 30
0.0
 11
18.89997673034668
 21
10.499979019165039
 31
0.0
  0
LINE
  8
0
 10
22.89997673034668
 20
16.49997901916504
 30
0.0
 11
-12.700024604797363
 21
16.49997901916504
 31
0.0
  0
LINE
  8
0
 10
22.89997673034668
 20
16.49997901916504
 30
0.0
 11
22.89997673034668
 21
10.499979972839355
 31
0.0
  0
LINE
  8
0
 10
22.89997673034668
 20
16.999977111816406
 30
0.0
 11
22.89997673034668
 21
22.999977111816406
 31
0.0
  0
LINE
  8
0
 10
22.89997673034668
 20
16.999977111816406
 30
0.0
 11
-12.700024604797363
 21
16.999977111816406
 31
0.0
  0
LINE
  8
0
 10
16.89997673034668
 20
26.999977111816406
 30
0.0
 11
16.89997673034668
 21
20.99997901916504
 31
0.0
  0
LINE
  8
0
 10
18.89997673034668
 20
20.99997901916504
 30
0.0
 11
18.89997673034668
 21
22.999977111816406
 31
0.0
  0
LINE
  8
0
 10
16.89997673034668
 20
20.99997901916504
 30
0.0
 11
18.89997673034668
 21
20.99997901916504
 31
0.0
  0
LINE
  8
0
 10
16.89997673034668
 20
26.999977111816406
 30
0.0
 11
18.89997673034668
 21
26.999977111816406
 31
0.0
  0
LINE
  8
0
 10
-12.700024604797363
 20
16.999977111816406
 30
0.0
 11
-12.700024604797363
 21
30.999977111816406
 31
0.0
  0
LINE
  8
0
 10
18.89997673034668
 20
26.999977111816406
 30
0.0
 11
18.89997673034668
 21
24.999977111816406
 31
0.0
  0
LINE
  8
0
 10
22.89997673034668
 20
22.999977111816406
 30
0.0
 11
18.89997673034668
 21
22.999977111816406
 31
0.0
  0
LINE
  8
0
 10
22.89997673034668
 20
24.999977111816406
 30
0.0
 11
18.89997673034668
 21
24.999977111816406
 31
0.0
  0
LINE
  8
0
 10
22.89997673034668
 20
30.999977111816406
 30
0.0
 11
-12.700024604797363
 21
30.999977111816406
 31
0.0
  0
LINE
  8
0
 10
22.89997673034668
 20
30.999977111816406
 30
0.0
 11
22.89997673034668
 21
24.999977111816406
 31
0.0
  0
LINE
  8
0
 10
22.89997673034668
 20
31.499975204467773
 30
0.0
 11
22.89997673034668
 21
37.499977111816406
 31
0.0
  0
LINE
  8
0
 10
22.89997673034668
 20
45.49997329711914
 30
0.0
 11
22.89997673034668
 21
39.49997329711914
 31
0.0
  0
LINE
  8
0
 10
22.89997673034668
 20
31.499975204467773
 30
0.0
 11
-12.700024604797363
 21
31.499975204467773
 31
0.0
  0
LINE
  8
0
 10
16.89997673034668
 20
41.499977111816406
 30
0.0
 11
16.89997673034668
 21
35.49997329711914
 31
0.0
  0
LINE
  8
0
 10
18.89997673034668
 20
35.49997329711914
 30
0.0
 11
18.89997673034668
 21
37.499977111816406
 31
0.0
  0
LINE
  8
0
 10
16.89997673034668
 20
35.49997329711914
 30
0.0
 11
18.89997673034668
 21
35.49997329711914
 31
0.0
  0
LINE
  8
0
 10
16.89997673034668
 20
41.499977111816406
 30
0.0
 11
18.89997673034668
 21
41.499977111816406
 31
0.0
  0
LINE
  8
0
 10
18.89997673034668
 20
41.499977111816406
 30
0.0
 11
18.89997673034668
 21
39.49997329711914
 31
0.0
  0
LINE
  8
0
 10
22.89997673034668
 20
37.499977111816406
 30
0.0
 11
18.89997673034668
 21
37.499977111816406
 31
0.0
  0
LINE
  8
0
 10
22.89997673034668
 20
39.49997329711914
 30
0.0
 11
18.89997673034668
 21
39.49997329711914
 31
0.0
  0
LINE
  8
0
 10
-12.700024604797363
 20
31.499975204467773
 30
0.0
 11
-12.700024604797363
 21
45.49997329711914
 31
0.0
  0
LINE
  8
0
 10
22.89997673034668
 20
45.49997329711914
 30
0.0
 11
-12.700024604797363
 21
45.49997329711914
 31
0.0
  0
LINE
  8
0
 10
22.89997673034668
 20
45.99997329711914
 30
0.0
 11
22.89997673034668
 21
51.99997329711914
 31
0.0
  0
LINE
  8
0
 10
22.89997673034668
 20
45.99997329711914
 30
0.0
 11
-12.700024604797363
 21
45.99997329711914
 31
0.0
  0
LINE
  8
0
 10
16.89997673034668
 20
55.999969482421875
 30
0.0
 11
16.89997673034668
 21
49.99997329711914
 31
0.0
  0
LINE
  8
0
 10
18.89997673034668
 20
49.99997329711914
 30
0.0
 11
18.89997673034668
 21
51.99997329711914
 31
0.0
  0
LINE
  8
0
 10
16.89997673034668
 20
49.99997329711914
 30
0.0
 11
18.89997673034668
 21
49.99997329711914
 31
0.0
  0
LINE
  8
0
 10
16.89997673034668
 20
55.999969482421875
 30
0.0
 11
18.89997673034668
 21
55.999969482421875
 31
0.0
  0
LINE
  8
0
 10
-12.700024604797363
 20
45.99997329711914
 30
0.0
 11
-12.700024604797363
 21
59.99997329711914
 31
0.0
  0
LINE
  8
0
 10
18.89997673034668
 20
55.999969482421875
 30
0.0
 11
18.89997673034668
 21
53.99997329711914
 31
0.0
  0
LINE
  8
0
 10
22.89997673034668
 20
51.99997329711914
 30
0.0
 11
18.89997673034668
 21
51.99997329711914
 31
0.0
  0
LINE
  8
0
 10
22.89997673034668
 20
53.99997329711914
 30
0.0
 11
18.89997673034668
 21
53.99997329711914
 31
0.0
  0
LINE
  8
0
 10
22.89997673034668
 20
59.99997329711914
 30
0.0
 11
-12.700024604797363
 21
59.99997329711914
 31
0.0
  0
LINE
  8
0
 10
22.89997673034668
 20
59.99997329711914
 30
0.0
 11
22.89997673034668
 21
53.99997329711914
 31
0.0
  0
LINE
  8
0
 10
22.89997673034668
 20
-41.50006103515625
 30
0.0
 11
22.89997673034668
 21
-47.50006103515625
 31
0.0
  0
LINE
  8
0
 10
-12.700024604797363
 20
-55.50006103515625
 30
0.0
 11
-12.700024604797363
 21
-41.50006103515625
 31
0.0
  0
LINE
  8
0
 10
16.89997673034668
 20
-45.50006103515625
 30
0.0
 11
16.89997673034668
 21
-51.500057220458984
 31
0.0
  0
LINE
  8
0
 10
18.89997673034668
 20
-51.500057220458984
 30
0.0
 11
18.89997673034668
 21
-49.50006103515625
 31
0.0
  0
LINE
  8
0
 10
16.89997673034668
 20
-51.500057220458984
 30
0.0
 11
18.89997673034668
 21
-51.500057220458984
 31
0.0
  0
LINE
  8
0
 10
16.89997673034668
 20
-45.50006103515625
 30
0.0
 11
18.89997673034668
 21
-45.50006103515625
 31
0.0
  0
LINE
  8
0
 10
22.89997673034668
 20
-41.50006103515625
 30
0.0
 11
-12.700024604797363
 21
-41.50006103515625
 31
0.0
  0
LINE
  8
0
 10
18.89997673034668
 20
-45.50006103515625
 30
0.0
 11
18.89997673034668
 21
-47.50006103515625
 31
0.0
  0
LINE
  8
0
 10
22.89997673034668
 20
-49.50006103515625
 30
0.0
 11
18.89997673034668
 21
-49.50006103515625
 31
0.0
  0
LINE
  8
0
 10
22.89997673034668
 20
-47.50006103515625
 30
0.0
 11
18.89997673034668
 21
-47.50006103515625
 31
0.0
  0
LINE
  8
0
 10
22.89997673034668
 20
-55.50006103515625
 30
0.0
 11
-12.700024604797363
 21
-55.50006103515625
 31
0.0
  0
LINE
  8
0
 10
22.89997673034668
 20
-55.50006103515625
 30
0.0
 11
22.89997673034668
 21
-49.50006103515625
 31
0.0
  0
LINE
  8
0
 10
22.89997673034668
 20
-41.00006103515625
 30
0.0
 11
22.89997673034668
 21
-35.00006103515625
 31
0.0
  0
LINE
  8
0
 10
22.89997673034668
 20
-27.000062942504883
 30
0.0
 11
22.89997673034668
 21
-33.000064849853516
 31
0.0
  0
LINE
  8
0
 10
22.89997673034668
 20
-41.00006103515625
 30
0.0
 11
-12.700024604797363
 21
-41.00006103515625
 31
0.0
  0
LINE
  8
0
 10
16.89997673034668
 20
-31.000062942504883
 30
0.0
 11
16.89997673034668
 21
-37.000064849853516
 31
0.0
  0
LINE
  8
0
 10
18.89997673034668
 20
-37.000064849853516
 30
0.0
 11
18.89997673034668
 21
-35.00006103515625
 31
0.0
  0
LINE
  8
0
 10
16.89997673034668
 20
-37.000064849853516
 30
0.0
 11
18.89997673034668
 21
-37.000064849853516
 31
0.0
  0
LINE
  8
0
 10
16.89997673034668
 20
-31.000062942504883
 30
0.0
 11
18.89997673034668
 21
-31.000062942504883
 31
0.0
  0
LINE
  8
0
 10
18.89997673034668
 20
-31.000062942504883
 30
0.0
 11
18.89997673034668
 21
-33.000064849853516
 31
0.0
  0
LINE
  8
0
 10
22.89997673034668
 20
-35.00006103515625
 30
0.0
 11
18.89997673034668
 21
-35.00006103515625
 31
0.0
  0
LINE
  8
0
 10
22.89997673034668
 20
-33.000064849853516
 30
0.0
 11
18.89997673034668
 21
-33.000064849853516
 31
0.0
  0
LINE
  8
0
 10
-12.700024604797363
 20
-41.00006103515625
 30
0.0
 11
-12.700024604797363
 21
-27.000062942504883
 31
0.0
  0
LINE
  8
0
 10
22.89997673034668
 20
-27.000062942504883
 30
0.0
 11
-12.700024604797363
 21
-27.000062942504883
 31
0.0
  0
LINE
  8
0
 10
22.89997673034668
 20
-12.500065803527832
 30
0.0
 11
22.89997673034668
 21
-18.500064849853516
 31
0.0
  0
LINE
  8
0
 10
22.89997673034668
 20
-12.500065803527832
 30
0.0
 11
-12.700024604797363
 21
-12.500065803527832
 31
0.0
  0
LINE
  8
0
 10
16.89997673034668
 20
-16.500064849853516
 30
0.0
 11
16.89997673034668
 21
-22.500062942504883
 31
0.0
  0
LINE
  8
0
 10
18.89997673034668
 20
-22.500062942504883
 30
0.0
 11
18.89997673034668
 21
-20.500064849853516
 31
0.0
  0
LINE
  8
0
 10
16.89997673034668
 20
-22.500062942504883
 30
0.0
 11
18.89997673034668
 21
-22.500062942504883
 31
0.0
  0
LINE
  8
0
 10
16.89997673034668
 20
-16.500064849853516
 30
0.0
 11
18.89997673034668
 21
-16.500064849853516
 31
0.0
  0
LINE
  8
0
 10
-12.700024604797363
 20
-26.500064849853516
 30
0.0
 11
-12.700024604797363
 21
-12.500065803527832
 31
0.0
  0
LINE
  8
0
 10
18.89997673034668
 20
-16.500064849853516
 30
0.0
 11
18.89997673034668
 21
-18.500064849853516
 31
0.0
  0
LINE
  8
0
 10
22.89997673034668
 20
-20.500064849853516
 30
0.0
 11
18.89997673034668
 21
-20.500064849853516
 31
0.0
  0
LINE
  8
0
 10
22.89997673034668
 20
-18.500064849853516
 30
0.0
 11
18.89997673034668
 21
-18.500064849853516
 31
0.0
  0
LINE
  8
0
 10
22.89997673034668
 20
-26.500064849853516
 30
0.0
 11
-12.700024604797363
 21
-26.500064849853516
 31
0.0
  0
LINE
  8
0
 10
22.89997673034668
 20
-26.500064849853516
 30
0.0
 11
22.89997673034668
 21
-20.500064849853516
 31
0.0
  0
LINE
  8
0
 10
22.89997673034668
 20
1.9999332427978516
 30
0.0
 11
22.89997673034668
 21
-4.000066757202148
 31
0.0
  0
LINE
  8
0
 10
16.89997673034668
 20
-2.0000667572021484
 30
0.0
 11
16.89997673034668
 21
-8.000065803527832
 31
0.0
  0
LINE
  8
0
 10
18.89997673034668
 20
-8.000065803527832
 30
0.0
 11
18.89997673034668
 21
-6.000065803527832
 31
0.0
  0
LINE
  8
0
 10
16.89997673034668
 20
-8.000065803527832
 30
0.0
 11
18.89997673034668
 21
-8.000065803527832
 31
0.0
  0
LINE
  8
0
 10
16.89997673034668
 20
-2.0000667572021484
 30
0.0
 11
18.89997673034668
 21
-2.0000667572021484
 31
0.0
  0
LINE
  8
0
 10
22.89997673034668
 20
1.9999332427978516
 30
0.0
 11
-12.700024604797363
 21
1.999931812286377
 31
0.0
  0
LINE
  8
0
 10
18.89997673034668
 20
-2.0000667572021484
 30
0.0
 11
18.89997673034668
 21
-4.000066757202148
 31
0.0
  0
LINE
  8
0
 10
22.89997673034668
 20
-6.000065326690674
 30
0.0
 11
18.89997673034668
 21
-6.000065803527832
 31
0.0
  0
LINE
  8
0
 10
22.89997673034668
 20
-4.000066757202148
 30
0.0
 11
18.89997673034668
 21
-4.000066757202148
 31
0.0
  0
LINE
  8
0
 10
22.89997673034668
 20
-12.000064849853516
 30
0.0
 11
-12.700024604797363
 21
-12.000066757202148
 31
0.0
  0
LINE
  8
0
 10
22.89997673034668
 20
-12.000064849853516
 30
0.0
 11
22.89997673034668
 21
-6.000065326690674
 31
0.0
  0
LINE
  8
0
 10
-12.700024604797363
 20
-12.000066757202148
 30
0.0
 11
-12.700024604797363
 21
1.999931812286377
 31
0.0
  0
LINE
  8
0
 10
58.99998092651367
 20
2.4999804496765137
 30
0.0
 11
58.99998092651367
 21
8.499979972839355
 31
0.0
  0
LINE
  8
0
 10
52.99997329711914
 20
12.499979019165039
 30
0.0
 11
52.99997329711914
 21
6.499980449676514
 31
0.0
  0
LINE
  8
0
 10
54.999977111816406
 20
6.499980449676514
 30
0.0
 11
54.999977111816406
 21
8.499979972839355
 31
0.0
  0
LINE
  8
0
 10
52.99997329711914
 20
6.499980449676514
 30
0.0
 11
54.999977111816406
 21
6.499980449676514
 31
0.0
  0
LINE
  8
0
 10
52.99997329711914
 20
12.499979019165039
 30
0.0
 11
54.999977111816406
 21
12.499979019165039
 31
0.0
  0
LINE
  8
0
 10
54.999977111816406
 20
12.499979019165039
 30
0.0
 11
54.999977111816406
 21
10.499979019165039
 31
0.0
  0
LINE
  8
0
 10
58.99998092651367
 20
8.499979972839355
 30
0.0
 11
54.999977111816406
 21
8.499979972839355
 31
0.0
  0
LINE
  8
0
 10
58.99998092651367
 20
10.499979972839355
 30
0.0
 11
54.999977111816406
 21
10.499979019165039
 31
0.0
  0
LINE
  8
0
 10
58.99998092651367
 20
2.4999804496765137
 30
0.0
 11
23.39997673034668
 21
2.499979019165039
 31
0.0
  0
LINE
  8
0
 10
23.39997673034668
 20
2.499979019165039
 30
0.0
 11
23.39997673034668
 21
16.49997901916504
 31
0.0
  0
LINE
  8
0
 10
58.99998092651367
 20
16.49997901916504
 30
0.0
 11
23.39997673034668
 21
16.49997901916504
 31
0.0
  0
LINE
  8
0
 10
58.99998092651367
 20
16.49997901916504
 30
0.0
 11
58.99998092651367
 21
10.499979972839355
 31
0.0
  0
LINE
  8
0
 10
58.99998092651367
 20
30.999977111816406
 30
0.0
 11
58.99998092651367
 21
24.999977111816406
 31
0.0
  0
LINE
  8
0
 10
52.99997329711914
 20
26.999977111816406
 30
0.0
 11
52.99997329711914
 21
20.99997901916504
 31
0.0
  0
LINE
  8
0
 10
54.999977111816406
 20
20.99997901916504
 30
0.0
 11
54.999977111816406
 21
22.999977111816406
 31
0.0
  0
LINE
  8
0
 10
52.99997329711914
 20
20.99997901916504
 30
0.0
 11
54.999977111816406
 21
20.99997901916504
 31
0.0
  0
LINE
  8
0
 10
52.99997329711914
 20
26.999977111816406
 30
0.0
 11
54.999977111816406
 21
26.999977111816406
 31
0.0
  0
LINE
  8
0
 10
58.99998092651367
 20
30.999977111816406
 30
0.0
 11
23.39997673034668
 21
30.999977111816406
 31
0.0
  0
LINE
  8
0
 10
54.999977111816406
 20
26.999977111816406
 30
0.0
 11
54.999977111816406
 21
24.999977111816406
 31
0.0
  0
LINE
  8
0
 10
58.99998092651367
 20
22.999977111816406
 30
0.0
 11
54.999977111816406
 21
22.999977111816406
 31
0.0
  0
LINE
  8
0
 10
58.99998092651367
 20
24.999977111816406
 30
0.0
 11
54.999977111816406
 21
24.999977111816406
 31
0.0
  0
LINE
  8
0
 10
58.99998092651367
 20
16.999977111816406
 30
0.0
 11
23.39997673034668
 21
16.999977111816406
 31
0.0
  0
LINE
  8
0
 10
58.99998092651367
 20
16.999977111816406
 30
0.0
 11
58.99998092651367
 21
22.999977111816406
 31
0.0
  0
LINE
  8
0
 10
23.39997673034668
 20
16.999977111816406
 30
0.0
 11
23.39997673034668
 21
30.999977111816406
 31
0.0
  0
LINE
  8
0
 10
58.99998092651367
 20
45.49997329711914
 30
0.0
 11
58.99998092651367
 21
39.49997329711914
 31
0.0
  0
LINE
  8
0
 10
52.99997329711914
 20
41.499977111816406
 30
0.0
 11
52.99997329711914
 21
35.49997329711914
 31
0.0
  0
LINE
  8
0
 10
54.999977111816406
 20
35.49997329711914
 30
0.0
 11
54.999977111816406
 21
37.499977111816406
 31
0.0
  0
LINE
  8
0
 10
52.99997329711914
 20
35.49997329711914
 30
0.0
 11
54.999977111816406
 21
35.49997329711914
 31
0.0
  0
LINE
  8
0
 10
52.99997329711914
 20
41.499977111816406
 30
0.0
 11
54.999977111816406
 21
41.499977111816406
 31
0.0
  0
LINE
  8
0
 10
58.99998092651367
 20
45.49997329711914
 30
0.0
 11
23.39997673034668
 21
45.49997329711914
 31
0.0
  0
LINE
  8
0
 10
54.999977111816406
 20
41.499977111816406
 30
0.0
 11
54.999977111816406
 21
39.49997329711914
 31
0.0
  0
LINE
  8
0
 10
58.99998092651367
 20
37.499977111816406
 30
0.0
 11
54.999977111816406
 21
37.499977111816406
 31
0.0
  0
LINE
  8
0
 10
58.99998092651367
 20
39.49997329711914
 30
0.0
 11
54.999977111816406
 21
39.49997329711914
 31
0.0
  0
LINE
  8
0
 10
58.99998092651367
 20
31.499975204467773
 30
0.0
 11
23.39997673034668
 21
31.499975204467773
 31
0.0
  0
LINE
  8
0
 10
58.99998092651367
 20
31.499975204467773
 30
0.0
 11
58.99998092651367
 21
37.499977111816406
 31
0.0
  0
LINE
  8
0
 10
23.39997673034668
 20
31.499975204467773
 30
0.0
 11
23.39997673034668
 21
45.49997329711914
 31
0.0
  0
LINE
  8
0
 10
52.99998474121094
 20
55.999969482421875
 30
0.0
 11
52.99998474121094
 21
49.99997329711914
 31
0.0
  0
LINE
  8
0
 10
54.99998474121094
 20
49.99997329711914
 30
0.0
 11
54.99998474121094
 21
51.99997329711914
 31
0.0
  0
LINE
  8
0
 10
52.99998474121094
 20
49.99997329711914
 30
0.0
 11
54.99998474121094
 21
49.99997329711914
 31
0.0
  0
LINE
  8
0
 10
52.99998474121094
 20
55.999969482421875
 30
0.0
 11
54.99998474121094
 21
55.999969482421875
 31
0.0
  0
LINE
  8
0
 10
54.99998474121094
 20
55.999969482421875
 30
0.0
 11
54.99998474121094
 21
53.99997329711914
 31
0.0
  0
LINE
  8
0
 10
58.99998092651367
 20
51.99997329711914
 30
0.0
 11
54.99998474121094
 21
51.99997329711914
 31
0.0
  0
LINE
  8
0
 10
58.99998092651367
 20
53.99997329711914
 30
0.0
 11
54.99998474121094
 21
53.99997329711914
 31
0.0
  0
LINE
  8
0
 10
58.99998092651367
 20
45.99997329711914
 30
0.0
 11
23.399982452392578
 21
45.99997329711914
 31
0.0
  0
LINE
  8
0
 10
58.99998092651367
 20
45.99997329711914
 30
0.0
 11
58.99998092651367
 21
51.99997329711914
 31
0.0
  0
LINE
  8
0
 10
58.99998092651367
 20
59.99997329711914
 30
0.0
 11
23.399982452392578
 21
59.99997329711914
 31
0.0
  0
LINE
  8
0
 10
58.99998092651367
 20
59.99997329711914
 30
0.0
 11
58.99998092651367
 21
53.99997329711914
 31
0.0
  0
LINE
  8
0
 10
23.399982452392578
 20
45.99997329711914
 30
0.0
 11
23.399982452392578
 21
59.99997329711914
 31
0.0
  0
LINE
  8
0
 10
58.99998092651367
 20
-49.50006103515625
 30
0.0
 11
54.999977111816406
 21
-49.50006103515625
 31
0.0
  0
LINE
  8
0
 10
58.99998092651367
 20
-55.50006103515625
 30
0.0
 11
58.99998092651367
 21
-49.50006103515625
 31
0.0
  0
LINE
  8
0
 10
52.99997329711914
 20
-45.50006103515625
 30
0.0
 11
52.99997329711914
 21
-51.500057220458984
 31
0.0
  0
LINE
  8
0
 10
54.999977111816406
 20
-51.500057220458984
 30
0.0
 11
54.999977111816406
 21
-49.50006103515625
 31
0.0
  0
LINE
  8
0
 10
52.99997329711914
 20
-51.500057220458984
 30
0.0
 11
54.999977111816406
 21
-51.500057220458984
 31
0.0
  0
LINE
  8
0
 10
52.99997329711914
 20
-45.50006103515625
 30
0.0
 11
54.999977111816406
 21
-45.50006103515625
 31
0.0
  0
LINE
  8
0
 10
58.99998092651367
 20
-41.50006103515625
 30
0.0
 11
58.99998092651367
 21
-47.50006103515625
 31
0.0
  0
LINE
  8
0
 10
54.999977111816406
 20
-45.50006103515625
 30
0.0
 11
54.999977111816406
 21
-47.50006103515625
 31
0.0
  0
LINE
  8
0
 10
58.99998092651367
 20
-41.50006103515625
 30
0.0
 11
23.39997673034668
 21
-41.50006103515625
 31
0.0
  0
LINE
  8
0
 10
58.99998092651367
 20
-47.50006103515625
 30
0.0
 11
54.999977111816406
 21
-47.50006103515625
 31
0.0
  0
LINE
  8
0
 10
58.99998092651367
 20
-55.50006103515625
 30
0.0
 11
23.39997673034668
 21
-55.50006103515625
 31
0.0
  0
LINE
  8
0
 10
23.39997673034668
 20
-55.50006103515625
 30
0.0
 11
23.39997673034668
 21
-41.50006103515625
 31
0.0
  0
LINE
  8
0
 10
58.99998092651367
 20
-27.000062942504883
 30
0.0
 11
58.99998092651367
 21
-33.000064849853516
 31
0.0
  0
LINE
  8
0
 10
52.99997329711914
 20
-31.000062942504883
 30
0.0
 11
52.99997329711914
 21
-37.000064849853516
 31
0.0
  0
LINE
  8
0
 10
54.999977111816406
 20
-37.000064849853516
 30
0.0
 11
54.999977111816406
 21
-35.00006103515625
 31
0.0
  0
LINE
  8
0
 10
52.99997329711914
 20
-37.000064849853516
 30
0.0
 11
54.999977111816406
 21
-37.000064849853516
 31
0.0
  0
LINE
  8
0
 10
52.99997329711914
 20
-31.000062942504883
 30
0.0
 11
54.999977111816406
 21
-31.000062942504883
 31
0.0
  0
LINE
  8
0
 10
54.999977111816406
 20
-31.000062942504883
 30
0.0
 11
54.999977111816406
 21
-33.000064849853516
 31
0.0
  0
LINE
  8
0
 10
58.99998092651367
 20
-35.00006103515625
 30
0.0
 11
54.999977111816406
 21
-35.00006103515625
 31
0.0
  0
LINE
  8
0
 10
58.99998092651367
 20
-33.000064849853516
 30
0.0
 11
54.999977111816406
 21
-33.000064849853516
 31
0.0
  0
LINE
  8
0
 10
58.99998092651367
 20
-41.00006103515625
 30
0.0
 11
23.39997673034668
 21
-41.00006103515625
 31
0.0
  0
LINE
  8
0
 10
58.99998092651367
 20
-41.00006103515625
 30
0.0
 11
58.99998092651367
 21
-35.00006103515625
 31
0.0
  0
LINE
  8
0
 10
23.39997673034668
 20
-41.00006103515625
 30
0.0
 11
23.39997673034668
 21
-27.000062942504883
 31
0.0
  0
LINE
  8
0
 10
58.99998092651367
 20
-27.000062942504883
 30
0.0
 11
23.39997673034668
 21
-27.000062942504883
 31
0.0
  0
LINE
  8
0
 10
58.99998092651367
 20
-12.500065803527832
 30
0.0
 11
58.99998092651367
 21
-18.500064849853516
 31
0.0
  0
LINE
  8
0
 10
52.99997329711914
 20
-16.500064849853516
 30
0.0
 11
52.99997329711914
 21
-22.500062942504883
 31
0.0
  0
LINE
  8
0
 10
54.999977111816406
 20
-22.500062942504883
 30
0.0
 11
54.999977111816406
 21
-20.500064849853516
 31
0.0
  0
LINE
  8
0
 10
52.99997329711914
 20
-22.500062942504883
 30
0.0
 11
54.999977111816406
 21
-22.500062942504883
 31
0.0
  0
LINE
  8
0
 10
52.99997329711914
 20
-16.500064849853516
 30
0.0
 11
54.999977111816406
 21
-16.500064849853516
 31
0.0
  0
LINE
  8
0
 10
54.999977111816406
 20
-16.500064849853516
 30
0.0
 11
54.999977111816406
 21
-18.500064849853516
 31
0.0
  0
LINE
  8
0
 10
58.99998092651367
 20
-20.500064849853516
 30
0.0
 11
54.999977111816406
 21
-20.500064849853516
 31
0.0
  0
LINE
  8
0
 10
58.99998092651367
 20
-18.500064849853516
 30
0.0
 11
54.999977111816406
 21
-18.500064849853516
 31
0.0
  0
LINE
  8
0
 10
58.99998092651367
 20
-26.500064849853516
 30
0.0
 11
23.39997673034668
 21
-26.500064849853516
 31
0.0
  0
LINE
  8
0
 10
58.99998092651367
 20
-26.500064849853516
 30
0.0
 11
58.99998092651367
 21
-20.500064849853516
 31
0.0
  0
LINE
  8
0
 10
23.39997673034668
 20
-26.500064849853516
 30
0.0
 11
23.39997673034668
 21
-12.500065803527832
 31
0.0
  0
LINE
  8
0
 10
58.99998092651367
 20
-12.500065803527832
 30
0.0
 11
23.39997673034668
 21
-12.500065803527832
 31
0.0
  0
LINE
  8
0
 10
58.99998092651367
 20
-12.000064849853516
 30
0.0
 11
58.99998092651367
 21
-6.000065326690674
 31
0.0
  0
LINE
  8
0
 10
58.99998092651367
 20
-12.000064849853516
 30
0.0
 11
23.39997673034668
 21
-12.000066757202148
 31
0.0
  0
LINE
  8
0
 10
52.99997329711914
 20
-2.0000667572021484
 30
0.0
 11
52.99997329711914
 21
-8.000065803527832
 31
0.0
  0
LINE
  8
0
 10
54.999977111816406
 20
-8.000065803527832
 30
0.0
 11
54.999977111816406
 21
-6.000065803527832
 31
0.0
  0
LINE
  8
0
 10
52.99997329711914
 20
-8.000065803527832
 30
0.0
 11
54.999977111816406
 21
-8.000065803527832
 31
0.0
  0
LINE
  8
0
 10
52.99997329711914
 20
-2.0000667572021484
 30
0.0
 11
54.999977111816406
 21
-2.0000667572021484
 31
0.0
  0
LINE
  8
0
 10
54.999977111816406
 20
-2.0000667572021484
 30
0.0
 11
54.999977111816406
 21
-4.000066757202148
 31
0.0
  0
LINE
  8
0
 10
58.99998092651367
 20
-6.000065326690674
 30
0.0
 11
54.999977111816406
 21
-6.000065803527832
 31
0.0
  0
LINE
  8
0
 10
58.99998092651367
 20
-4.000066757202148
 30
0.0
 11
54.999977111816406
 21
-4.000066757202148
 31
0.0
  0
LINE
  8
0
 10
58.99998092651367
 20
1.9999332427978516
 30
0.0
 11
23.39997673034668
 21
1.999931812286377
 31
0.0
  0
LINE
  8
0
 10
58.99998092651367
 20
1.9999332427978516
 30
0.0
 11
58.99998092651367
 21
-4.000066757202148
 31
0.0
  0
LINE
  8
0
 10
23.39997673034668
 20
-12.000066757202148
 30
0.0
 11
23.39997673034668
 21
1.999931812286377
 31
0.0
  0
LINE
  8
0
 10
95.09998321533203
 20
8.499979972839355
 30
0.0
 11
91.09998321533203
 21
8.499979972839355
 31
0.0
  0
LINE
  8
0
 10
95.09998321533203
 20
2.4999804496765137
 30
0.0
 11
95.09998321533203
 21
8.499979972839355
 31
0.0
  0
LINE
  8
0
 10
89.0999755859375
 20
12.499979019165039
 30
0.0
 11
89.0999755859375
 21
6.499980449676514
 31
0.0
  0
LINE
  8
0
 10
91.09998321533203
 20
6.499980449676514
 30
0.0
 11
91.09998321533203
 21
8.499979972839355
 31
0.0
  0
LINE
  8
0
 10
89.0999755859375
 20
6.499980449676514
 30
0.0
 11
91.09998321533203
 21
6.499980449676514
 31
0.0
  0
LINE
  8
0
 10
89.0999755859375
 20
12.499979019165039
 30
0.0
 11
91.09998321533203
 21
12.499979019165039
 31
0.0
  0
LINE
  8
0
 10
95.09998321533203
 20
16.49997901916504
 30
0.0
 11
95.09998321533203
 21
10.499979972839355
 31
0.0
  0
LINE
  8
0
 10
91.09998321533203
 20
12.499979019165039
 30
0.0
 11
91.09998321533203
 21
10.499979019165039
 31
0.0
  0
LINE
  8
0
 10
95.09998321533203
 20
16.49997901916504
 30
0.0
 11
59.499977111816406
 21
16.49997901916504
 31
0.0
  0
LINE
  8
0
 10
95.09998321533203
 20
10.499979972839355
 30
0.0
 11
91.09998321533203
 21
10.499979019165039
 31
0.0
  0
LINE
  8
0
 10
95.09998321533203
 20
2.4999804496765137
 30
0.0
 11
59.499977111816406
 21
2.499979019165039
 31
0.0
  0
LINE
  8
0
 10
59.499977111816406
 20
2.499979019165039
 30
0.0
 11
59.499977111816406
 21
16.49997901916504
 31
0.0
  0
LINE
  8
0
 10
95.09998321533203
 20
16.999977111816406
 30
0.0
 11
95.09998321533203
 21
22.999977111816406
 31
0.0
  0
LINE
  8
0
 10
95.09998321533203
 20
16.999977111816406
 30
0.0
 11
59.499977111816406
 21
16.999977111816406
 31
0.0
  0
LINE
  8
0
 10
89.0999755859375
 20
26.999977111816406
 30
0.0
 11
89.0999755859375
 21
20.99997901916504
 31
0.0
  0
LINE
  8
0
 10
91.09998321533203
 20
20.99997901916504
 30
0.0
 11
91.09998321533203
 21
22.999977111816406
 31
0.0
  0
LINE
  8
0
 10
89.0999755859375
 20
20.99997901916504
 30
0.0
 11
91.09998321533203
 21
20.99997901916504
 31
0.0
  0
LINE
  8
0
 10
89.0999755859375
 20
26.999977111816406
 30
0.0
 11
91.09998321533203
 21
26.999977111816406
 31
0.0
  0
LINE
  8
0
 10
59.499977111816406
 20
16.999977111816406
 30
0.0
 11
59.499977111816406
 21
30.999977111816406
 31
0.0
  0
LINE
  8
0
 10
91.09998321533203
 20
26.999977111816406
 30
0.0
 11
91.09998321533203
 21
24.999977111816406
 31
0.0
  0
LINE
  8
0
 10
95.09998321533203
 20
22.999977111816406
 30
0.0
 11
91.09998321533203
 21
22.999977111816406
 31
0.0
  0
LINE
  8
0
 10
95.09998321533203
 20
24.999977111816406
 30
0.0
 11
91.09998321533203
 21
24.999977111816406
 31
0.0
  0
LINE
  8
0
 10
95.09998321533203
 20
30.999977111816406
 30
0.0
 11
59.499977111816406
 21
30.999977111816406
 31
0.0
  0
LINE
  8
0
 10
95.09998321533203
 20
30.999977111816406
 30
0.0
 11
95.09998321533203
 21
24.999977111816406
 31
0.0
  0
LINE
  8
0
 10
59.499977111816406
 20
31.499975204467773
 30
0.0
 11
59.499977111816406
 21
45.49997329711914
 31
0.0
  0
LINE
  8
0
 10
95.09998321533203
 20
37.499977111816406
 30
0.0
 11
91.09998321533203
 21
37.499977111816406
 31
0.0
  0
LINE
  8
0
 10
95.09998321533203
 20
31.499975204467773
 30
0.0
 11
95.09998321533203
 21
37.499977111816406
 31
0.0
  0
LINE
  8
0
 10
95.09998321533203
 20
31.499975204467773
 30
0.0
 11
59.499977111816406
 21
31.499975204467773
 31
0.0
  0
LINE
  8
0
 10
89.0999755859375
 20
41.499977111816406
 30
0.0
 11
89.0999755859375
 21
35.49997329711914
 31
0.0
  0
LINE
  8
0
 10
91.09998321533203
 20
35.49997329711914
 30
0.0
 11
91.09998321533203
 21
37.499977111816406
 31
0.0
  0
LINE
  8
0
 10
89.0999755859375
 20
35.49997329711914
 30
0.0
 11
91.09998321533203
 21
35.49997329711914
 31
0.0
  0
LINE
  8
0
 10
89.0999755859375
 20
41.499977111816406
 30
0.0
 11
91.09998321533203
 21
41.499977111816406
 31
0.0
  0
LINE
  8
0
 10
91.09998321533203
 20
41.499977111816406
 30
0.0
 11
91.09998321533203
 21
39.49997329711914
 31
0.0
  0
LINE
  8
0
 10
95.09998321533203
 20
39.49997329711914
 30
0.0
 11
91.09998321533203
 21
39.49997329711914
 31
0.0
  0
LINE
  8
0
 10
95.09998321533203
 20
45.49997329711914
 30
0.0
 11
59.499977111816406
 21
45.49997329711914
 31
0.0
  0
LINE
  8
0
 10
95.09998321533203
 20
45.49997329711914
 30
0.0
 11
95.09998321533203
 21
39.49997329711914
 31
0.0
  0
LINE
  8
0
 10
95.09998321533203
 20
59.99997329711914
 30
0.0
 11
95.09998321533203
 21
53.99997329711914
 31
0.0
  0
LINE
  8
0
 10
95.09998321533203
 20
59.99997329711914
 30
0.0
 11
59.499977111816406
 21
59.99997329711914
 31
0.0
  0
LINE
  8
0
 10
95.09998321533203
 20
45.99997329711914
 30
0.0
 11
95.09998321533203
 21
51.99997329711914
 31
0.0
  0
LINE
  8
0
 10
95.09998321533203
 20
51.99997329711914
 30
0.0
 11
91.09998321533203
 21
51.99997329711914
 31
0.0
  0
LINE
  8
0
 10
89.0999755859375
 20
55.999969482421875
 30
0.0
 11
89.0999755859375
 21
49.99997329711914
 31
0.0
  0
LINE
  8
0
 10
91.09998321533203
 20
49.99997329711914
 30
0.0
 11
91.09998321533203
 21
51.99997329711914
 31
0.0
  0
LINE
  8
0
 10
89.0999755859375
 20
49.99997329711914
 30
0.0
 11
91.09998321533203
 21
49.99997329711914
 31
0.0
  0
LINE
  8
0
 10
89.0999755859375
 20
55.999969482421875
 30
0.0
 11
91.09998321533203
 21
55.999969482421875
 31
0.0
  0
LINE
  8
0
 10
91.09998321533203
 20
55.999969482421875
 30
0.0
 11
91.09998321533203
 21
53.99997329711914
 31
0.0
  0
LINE
  8
0
 10
95.09998321533203
 20
53.99997329711914
 30
0.0
 11
91.09998321533203
 21
53.99997329711914
 31
0.0
  0
LINE
  8
0
 10
95.09998321533203
 20
45.99997329711914
 30
0.0
 11
59.499977111816406
 21
45.99997329711914
 31
0.0
  0
LINE
  8
0
 10
59.499977111816406
 20
45.99997329711914
 30
0.0
 11
59.499977111816406
 21
59.99997329711914
 31
0.0
  0
LINE
  8
0
 10
95.0999755859375
 20
-41.50006103515625
 30
0.0
 11
95.0999755859375
 21
-47.50006103515625
 31
0.0
  0
LINE
  8
0
 10
89.0999755859375
 20
-45.50006103515625
 30
0.0
 11
89.0999755859375
 21
-51.500057220458984
 31
0.0
  0
LINE
  8
0
 10
91.0999755859375
 20
-51.500057220458984
 30
0.0
 11
91.0999755859375
 21
-49.50006103515625
 31
0.0
  0
LINE
  8
0
 10
89.0999755859375
 20
-51.500057220458984
 30
0.0
 11
91.0999755859375
 21
-51.500057220458984
 31
0.0
  0
LINE
  8
0
 10
89.0999755859375
 20
-45.50006103515625
 30
0.0
 11
91.0999755859375
 21
-45.50006103515625
 31
0.0
  0
LINE
  8
0
 10
91.0999755859375
 20
-45.50006103515625
 30
0.0
 11
91.0999755859375
 21
-47.50006103515625
 31
0.0
  0
LINE
  8
0
 10
95.0999755859375
 20
-49.50006103515625
 30
0.0
 11
91.0999755859375
 21
-49.50006103515625
 31
0.0
  0
LINE
  8
0
 10
95.0999755859375
 20
-47.50006103515625
 30
0.0
 11
91.0999755859375
 21
-47.50006103515625
 31
0.0
  0
LINE
  8
0
 10
95.0999755859375
 20
-55.50006103515625
 30
0.0
 11
59.499977111816406
 21
-55.50006103515625
 31
0.0
  0
LINE
  8
0
 10
95.0999755859375
 20
-55.50006103515625
 30
0.0
 11
95.0999755859375
 21
-49.50006103515625
 31
0.0
  0
LINE
  8
0
 10
59.499977111816406
 20
-55.50006103515625
 30
0.0
 11
59.499977111816406
 21
-41.50006103515625
 31
0.0
  0
LINE
  8
0
 10
95.0999755859375
 20
-41.50006103515625
 30
0.0
 11
59.499977111816406
 21
-41.50006103515625
 31
0.0
  0
LINE
  8
0
 10
59.499977111816406
 20
-41.00006103515625
 30
0.0
 11
59.499977111816406
 21
-27.000062942504883
 31
0.0
  0
LINE
  8
0
 10
89.0999755859375
 20
-31.000062942504883
 30
0.0
 11
89.0999755859375
 21
-37.000064849853516
 31
0.0
  0
LINE
  8
0
 10
91.0999755859375
 20
-37.000064849853516
 30
0.0
 11
91.0999755859375
 21
-35.00006103515625
 31
0.0
  0
LINE
  8
0
 10
89.0999755859375
 20
-37.000064849853516
 30
0.0
 11
91.0999755859375
 21
-37.000064849853516
 31
0.0
  0
LINE
  8
0
 10
89.0999755859375
 20
-31.000062942504883
 30
0.0
 11
91.0999755859375
 21
-31.000062942504883
 31
0.0
  0
LINE
  8
0
 10
91.0999755859375
 20
-31.000062942504883
 30
0.0
 11
91.0999755859375
 21
-33.000064849853516
 31
0.0
  0
LINE
  8
0
 10
95.0999755859375
 20
-35.00006103515625
 30
0.0
 11
91.0999755859375
 21
-35.00006103515625
 31
0.0
  0
LINE
  8
0
 10
95.0999755859375
 20
-33.000064849853516
 30
0.0
 11
91.0999755859375
 21
-33.000064849853516
 31
0.0
  0
LINE
  8
0
 10
95.0999755859375
 20
-41.00006103515625
 30
0.0
 11
59.499977111816406
 21
-41.00006103515625
 31
0.0
  0
LINE
  8
0
 10
95.0999755859375
 20
-41.00006103515625
 30
0.0
 11
95.0999755859375
 21
-35.00006103515625
 31
0.0
  0
LINE
  8
0
 10
95.0999755859375
 20
-27.000062942504883
 30
0.0
 11
59.499977111816406
 21
-27.000062942504883
 31
0.0
  0
LINE
  8
0
 10
95.0999755859375
 20
-27.000062942504883
 30
0.0
 11
95.0999755859375
 21
-33.000064849853516
 31
0.0
  0
LINE
  8
0
 10
95.0999755859375
 20
-12.500065803527832
 30
0.0
 11
95.0999755859375
 21
-18.500064849853516
 31
0.0
  0
LINE
  8
0
 10
95.0999755859375
 20
-12.500065803527832
 30
0.0
 11
59.499977111816406
 21
-12.500065803527832
 31
0.0
  0
LINE
  8
0
 10
95.0999755859375
 20
-26.500064849853516
 30
0.0
 11
95.0999755859375
 21
-20.500064849853516
 31
0.0
  0
LINE
  8
0
 10
95.0999755859375
 20
-20.500064849853516
 30
0.0
 11
91.0999755859375
 21
-20.500064849853516
 31
0.0
  0
LINE
  8
0
 10
89.0999755859375
 20
-16.500064849853516
 30
0.0
 11
89.0999755859375
 21
-22.500062942504883
 31
0.0
  0
LINE
  8
0
 10
91.0999755859375
 20
-22.500062942504883
 30
0.0
 11
91.0999755859375
 21
-20.500064849853516
 31
0.0
  0
LINE
  8
0
 10
89.0999755859375
 20
-22.500062942504883
 30
0.0
 11
91.0999755859375
 21
-22.500062942504883
 31
0.0
  0
LINE
  8
0
 10
89.0999755859375
 20
-16.500064849853516
 30
0.0
 11
91.0999755859375
 21
-16.500064849853516
 31
0.0
  0
LINE
  8
0
 10
91.0999755859375
 20
-16.500064849853516
 30
0.0
 11
91.0999755859375
 21
-18.500064849853516
 31
0.0
  0
LINE
  8
0
 10
95.0999755859375
 20
-18.500064849853516
 30
0.0
 11
91.0999755859375
 21
-18.500064849853516
 31
0.0
  0
LINE
  8
0
 10
95.0999755859375
 20
-26.500064849853516
 30
0.0
 11
59.499977111816406
 21
-26.500064849853516
 31
0.0
  0
LINE
  8
0
 10
59.499977111816406
 20
-26.500064849853516
 30
0.0
 11
59.499977111816406
 21
-12.500065803527832
 31
0.0
  0
LINE
  8
0
 10
95.0999755859375
 20
1.9999332427978516
 30
0.0
 11
95.0999755859375
 21
-4.000066757202148
 31
0.0
  0
LINE
  8
0
 10
89.0999755859375
 20
-2.0000667572021484
 30
0.0
 11
89.0999755859375
 21
-8.000065803527832
 31
0.0
  0
LINE
  8
0
 10
91.0999755859375
 20
-8.000065803527832
 30
0.0
 11
91.0999755859375
 21
-6.000065803527832
 31
0.0
  0
LINE
  8
0
 10
89.0999755859375
 20
-8.000065803527832
 30
0.0
 11
91.0999755859375
 21
-8.000065803527832
 31
0.0
  0
LINE
  8
0
 10
89.0999755859375
 20
-2.0000667572021484
 30
0.0
 11
91.0999755859375
 21
-2.0000667572021484
 31
0.0
  0
LINE
  8
0
 10
91.0999755859375
 20
-2.0000667572021484
 30
0.0
 11
91.0999755859375
 21
-4.000066757202148
 31
0.0
  0
LINE
  8
0
 10
95.0999755859375
 20
-6.000065326690674
 30
0.0
 11
91.0999755859375
 21
-6.000065803527832
 31
0.0
  0
LINE
  8
0
 10
95.0999755859375
 20
-4.000066757202148
 30
0.0
 11
91.0999755859375
 21
-4.000066757202148
 31
0.0
  0
LINE
  8
0
 10
95.0999755859375
 20
-12.000064849853516
 30
0.0
 11
59.499977111816406
 21
-12.000066757202148
 31
0.0
  0
LINE
  8
0
 10
95.0999755859375
 20
-12.000064849853516
 30
0.0
 11
95.0999755859375
 21
-6.000065326690674
 31
0.0
  0
LINE
  8
0
 10
59.499977111816406
 20
-12.000066757202148
 30
0.0
 11
59.499977111816406
 21
1.999931812286377
 31
0.0
  0
LINE
  8
0
 10
95.0999755859375
 20
1.9999332427978516
 30
0.0
 11
59.499977111816406
 21
1.999931812286377
 31
0.0
  0
LINE
  8
0
 10
-85.4000244140625
 20
2.4999804496765137
 30
0.0
 11
-85.4000244140625
 21
8.499979972839355
 31
0.0
  0
LINE
  8
0
 10
-85.4000244140625
 20
2.4999804496765137
 30
0.0
 11
-121.00001525878906
 21
2.499979019165039
 31
0.0
  0
LINE
  8
0
 10
-91.40001678466797
 20
12.499979019165039
 30
0.0
 11
-91.40001678466797
 21
6.499980449676514
 31
0.0
  0
LINE
  8
0
 10
-89.40001678466797
 20
6.499980449676514
 30
0.0
 11
-89.40001678466797
 21
8.499979972839355
 31
0.0
  0
LINE
  8
0
 10
-91.40001678466797
 20
6.499980449676514
 30
0.0
 11
-89.40001678466797
 21
6.499980449676514
 31
0.0
  0
LINE
  8
0
 10
-91.40001678466797
 20
12.499979019165039
 30
0.0
 11
-89.40001678466797
 21
12.499979019165039
 31
0.0
  0
LINE
  8
0
 10
-121.00001525878906
 20
2.499979019165039
 30
0.0
 11
-121.00001525878906
 21
16.49997901916504
 31
0.0
  0
LINE
  8
0
 10
-89.40001678466797
 20
12.499979019165039
 30
0.0
 11
-89.40001678466797
 21
10.499979019165039
 31
0.0
  0
LINE
  8
0
 10
-85.4000244140625
 20
8.499979972839355
 30
0.0
 11
-89.40001678466797
 21
8.499979972839355
 31
0.0
  0
LINE
  8
0
 10
-85.4000244140625
 20
10.499979972839355
 30
0.0
 11
-89.40001678466797
 21
10.499979019165039
 31
0.0
  0
LINE
  8
0
 10
-85.4000244140625
 20
16.49997901916504
 30
0.0
 11
-121.00001525878906
 21
16.49997901916504
 31
0.0
  0
LINE
  8
0
 10
-85.4000244140625
 20
16.49997901916504
 30
0.0
 11
-85.4000244140625
 21
10.499979972839355
 31
0.0
  0
LINE
  8
0
 10
-85.4000244140625
 20
16.999977111816406
 30
0.0
 11
-85.4000244140625
 21
22.999977111816406
 31
0.0
  0
LINE
  8
0
 10
-85.4000244140625
 20
30.999977111816406
 30
0.0
 11
-85.4000244140625
 21
24.999977111816406
 31
0.0
  0
LINE
  8
0
 10
-85.4000244140625
 20
16.999977111816406
 30
0.0
 11
-121.00001525878906
 21
16.999977111816406
 31
0.0
  0
LINE
  8
0
 10
-91.40001678466797
 20
26.999977111816406
 30
0.0
 11
-91.40001678466797
 21
20.99997901916504
 31
0.0
  0
LINE
  8
0
 10
-89.40001678466797
 20
20.99997901916504
 30
0.0
 11
-89.40001678466797
 21
22.999977111816406
 31
0.0
  0
LINE
  8
0
 10
-91.40001678466797
 20
20.99997901916504
 30
0.0
 11
-89.40001678466797
 21
20.99997901916504
 31
0.0
  0
LINE
  8
0
 10
-91.40001678466797
 20
26.999977111816406
 30
0.0
 11
-89.40001678466797
 21
26.999977111816406
 31
0.0
  0
LINE
  8
0
 10
-89.40001678466797
 20
26.999977111816406
 30
0.0
 11
-89.40001678466797
 21
24.999977111816406
 31
0.0
  0
LINE
  8
0
 10
-85.4000244140625
 20
22.999977111816406
 30
0.0
 11
-89.40001678466797
 21
22.999977111816406
 31
0.0
  0
LINE
  8
0
 10
-85.4000244140625
 20
24.999977111816406
 30
0.0
 11
-89.40001678466797
 21
24.999977111816406
 31
0.0
  0
LINE
  8
0
 10
-121.00001525878906
 20
16.999977111816406
 30
0.0
 11
-121.00001525878906
 21
30.999977111816406
 31
0.0
  0
LINE
  8
0
 10
-85.4000244140625
 20
30.999977111816406
 30
0.0
 11
-121.00001525878906
 21
30.999977111816406
 31
0.0
  0
LINE
  8
0
 10
-85.4000244140625
 20
45.49997329711914
 30
0.0
 11
-85.4000244140625
 21
39.49997329711914
 31
0.0
  0
LINE
  8
0
 10
-85.4000244140625
 20
45.49997329711914
 30
0.0
 11
-121.00001525878906
 21
45.49997329711914
 31
0.0
  0
LINE
  8
0
 10
-91.40001678466797
 20
41.499977111816406
 30
0.0
 11
-91.40001678466797
 21
35.49997329711914
 31
0.0
  0
LINE
  8
0
 10
-89.40001678466797
 20
35.49997329711914
 30
0.0
 11
-89.40001678466797
 21
37.499977111816406
 31
0.0
  0
LINE
  8
0
 10
-91.40001678466797
 20
35.49997329711914
 30
0.0
 11
-89.40001678466797
 21
35.49997329711914
 31
0.0
  0
LINE
  8
0
 10
-91.40001678466797
 20
41.499977111816406
 30
0.0
 11
-89.40001678466797
 21
41.499977111816406
 31
0.0
  0
LINE
  8
0
 10
-121.00001525878906
 20
31.499975204467773
 30
0.0
 11
-121.00001525878906
 21
45.49997329711914
 31
0.0
  0
LINE
  8
0
 10
-89.40001678466797
 20
41.499977111816406
 30
0.0
 11
-89.40001678466797
 21
39.49997329711914
 31
0.0
  0
LINE
  8
0
 10
-85.4000244140625
 20
37.499977111816406
 30
0.0
 11
-89.40001678466797
 21
37.499977111816406
 31
0.0
  0
LINE
  8
0
 10
-85.4000244140625
 20
39.49997329711914
 30
0.0
 11
-89.40001678466797
 21
39.49997329711914
 31
0.0
  0
LINE
  8
0
 10
-85.4000244140625
 20
31.499975204467773
 30
0.0
 11
-121.00001525878906
 21
31.499975204467773
 31
0.0
  0
LINE
  8
0
 10
-85.4000244140625
 20
31.499975204467773
 30
0.0
 11
-85.4000244140625
 21
37.499977111816406
 31
0.0
  0
LINE
  8
0
 10
-85.4000244140625
 20
59.99997329711914
 30
0.0
 11
-85.4000244140625
 21
53.99997329711914
 31
0.0
  0
LINE
  8
0
 10
-85.4000244140625
 20
59.99997329711914
 30
0.0
 11
-121.00001525878906
 21
59.99997329711914
 31
0.0
  0
LINE
  8
0
 10
-91.40001678466797
 20
55.999969482421875
 30
0.0
 11
-91.40001678466797
 21
49.99997329711914
 31
0.0
  0
LINE
  8
0
 10
-89.40001678466797
 20
49.99997329711914
 30
0.0
 11
-89.40001678466797
 21
51.99997329711914
 31
0.0
  0
LINE
  8
0
 10
-91.40001678466797
 20
49.99997329711914
 30
0.0
 11
-89.40001678466797
 21
49.99997329711914
 31
0.0
  0
LINE
  8
0
 10
-91.40001678466797
 20
55.999969482421875
 30
0.0
 11
-89.40001678466797
 21
55.999969482421875
 31
0.0
  0
LINE
  8
0
 10
-121.00001525878906
 20
45.99997329711914
 30
0.0
 11
-121.00001525878906
 21
59.99997329711914
 31
0.0
  0
LINE
  8
0
 10
-89.40001678466797
 20
55.999969482421875
 30
0.0
 11
-89.40001678466797
 21
53.99997329711914
 31
0.0
  0
LINE
  8
0
 10
-85.4000244140625
 20
51.99997329711914
 30
0.0
 11
-89.40001678466797
 21
51.99997329711914
 31
0.0
  0
LINE
  8
0
 10
-85.4000244140625
 20
53.99997329711914
 30
0.0
 11
-89.40001678466797
 21
53.99997329711914
 31
0.0
  0
LINE
  8
0
 10
-85.4000244140625
 20
45.99997329711914
 30
0.0
 11
-121.00001525878906
 21
45.99997329711914
 31
0.0
  0
LINE
  8
0
 10
-85.4000244140625
 20
45.99997329711914
 30
0.0
 11
-85.4000244140625
 21
51.99997329711914
 31
0.0
  0
ENDSEC
  0
EOF
