  0
SECTION
  2
HEADER
  9
$ACADVER
  1
AC1009
  9
$INSBASE
 10
0.0
 20
0.0
 30
0.0
  9
$EXTMIN
 10
0.0
 20
0.0
 30
0.0
  9
$EXTMAX
 10
0.0
 20
0.0
 30
0.0
  0
ENDSEC
  0
SECTION
  2
TABLES
  0
TABLE
  2
VPORT
 70
1
  0
VPORT
  2
*ACTIVE
 70
0
 10
0.0
 20
0.0
 11
1.0
 21
1.0
 12
-5.0
 22
1.0
 13
0.0
 23
0.0
 14
0.1
 24
0.1
 15
0.1
 25
0.1
 16
0.0
 26
0.0
 36
1.0
 17
0.0
 27
0.0
 37
0.0
 40
10.0
 41
1.0
 42
50.0
 43
0.0
 44
0.0
 50
0.0
 51
0.0
 71
0
 72
100
 73
1
 74
1
 75
0
 76
0
 77
0
 78
0
  0
ENDTAB
  0
TABLE
  2
LTYPE
 70
8
  0
LTYPE
  2
CONTINUOUS
 70
0
  3
Solid line
 72
65
 73
0
 40
0.0
  0
LTYPE
  2
DOT
 70
0
  3
. . . . . . .
 72
65
 73
2
 40
0.25
 49
0.0
 49
-0.25
  0
LTYPE
  2
DASHED
 70
0
  3
__ __ __ __ __
 72
65
 73
2
 40
0.8
 49
0.5
 49
-0.3
  0
LTYPE
  2
DASHDOT
 70
0
  3
__ . __ . __ .
 72
65
 73
4
 40
1.0
 49
0.5
 49
-0.25
 49
0.0
 49
-0.25
  0
LTYPE
  2
DIVIDE
 70
0
  3
____ . . ____ . . 
 72
65
 73
6
 40
1.25
 49
0.5
 49
-0.25
 49
0.0
 49
-0.25
 49
0.0
 49
-0.25
  0
LTYPE
  2
BORDER
 70
0
  3
__ __ . __ __ . 
 72
65
 73
6
 40
1.75
 49
0.5
 49
-0.25
 49
0.5
 49
-0.25
 49
0.0
 49
-0.25
  0
LTYPE
  2
HIDDEN
 70
0
  3
__ __ __ __ __
 72
65
 73
2
 40
0.4
 49
0.25
 49
-0.25
  0
LTYPE
  2
CENTER
 70
0
  3
____ _ ____ _ __
 72
65
 73
4
 40
2.0
 49
1.25
 49
-0.25
 49
0.25
 49
-0.25
  0
ENDTAB
  0
TABLE
  2
LAYER
 70
1
  0
LAYER
  2
PYDXF
 70
64
 62
7
  6
continuous
  0
ENDTAB
  0
TABLE
  2
STYLE
 70
1
  0
STYLE
  2
STANDARD
 70
0
 40
0
 41
1.0
 50
0.0
 71
0
 42
1
 3
ARIAL.TTF
 4

  0
ENDTAB
  0
TABLE
  2
VIEW
 70
1
  0
VIEW
  2
BF_TOPVIEW
 70
0
 40
120.0
 10
0.0
 20
0.0
 41
200.0
 11
0.0
 21
0.0
 31
1.0
 12
0.0
 22
0.0
 32
0.0
 42
50.0
 43
0.0
 44
0.0
 50
0.0
 71
0
  0
ENDTAB
  0
ENDSEC
  0
SECTION
  2
BLOCKS
  0
ENDSEC
  0
SECTION
  2
ENTITIES
  0
LINE
  8
0
 10
-122.0
 20
-61.0
 30
0.0
 11
-122.0
 21
61.0
 31
0.0
  0
LINE
  8
0
 10
-122.0
 20
-61.0
 30
0.0
 11
122.0
 21
-61.0
 31
0.0
  0
LINE
  8
0
 10
122.0
 20
-61.0
 30
0.0
 11
122.0
 21
61.0
 31
0.0
  0
LINE
  8
0
 10
-122.0
 20
61.0
 30
0.0
 11
122.0
 21
61.0
 31
0.0
  0
LINE
  8
0
 10
-51.0
 20
-53.9999885559082
 30
0.0
 11
-121.0
 21
-53.9999885559082
 31
0.0
  0
LINE
  8
0
 10
-121.0
 20
-53.9999885559082
 30
0.0
 11
-121.0
 21
-43.9999885559082
 31
0.0
  0
LINE
  8
0
 10
-51.0
 20
-43.9999885559082
 30
0.0
 11
-121.0
 21
-43.9999885559082
 31
0.0
  0
LINE
  8
0
 10
-51.0
 20
-53.9999885559082
 30
0.0
 11
-51.0
 21
-43.9999885559082
 31
0.0
  0
LINE
  8
0
 10
-51.0
 20
-33.499996185302734
 30
0.0
 11
-51.0
 21
-37.249996185302734
 31
0.0
  0
LINE
  8
0
 10
-51.0
 20
-43.5
 30
0.0
 11
-51.0
 21
-39.749996185302734
 31
0.0
  0
LINE
  8
0
 10
-51.0
 20
-39.749996185302734
 30
0.0
 11
-59.500003814697266
 21
-39.749996185302734
 31
0.0
  0
LINE
  8
0
 10
-51.0
 20
-37.249996185302734
 30
0.0
 11
-59.500003814697266
 21
-37.249996185302734
 31
0.0
  0
LINE
  8
0
 10
-51.0
 20
-43.5
 30
0.0
 11
-121.0
 21
-43.5
 31
0.0
  0
LINE
  8
0
 10
-59.500003814697266
 20
-39.749996185302734
 30
0.0
 11
-59.500003814697266
 21
-37.249996185302734
 31
0.0
  0
LINE
  8
0
 10
-121.0
 20
-43.5
 30
0.0
 11
-121.0
 21
-33.499996185302734
 31
0.0
  0
LINE
  8
0
 10
-51.0
 20
-33.499996185302734
 30
0.0
 11
-121.0
 21
-33.499996185302734
 31
0.0
  0
LINE
  8
0
 10
-51.0
 20
-33.0
 30
0.0
 11
-121.0
 21
-33.0
 31
0.0
  0
LINE
  8
0
 10
-121.0
 20
-33.0
 30
0.0
 11
-121.0
 21
-22.999998092651367
 31
0.0
  0
LINE
  8
0
 10
-51.0
 20
-22.9999942779541
 30
0.0
 11
-121.0
 21
-22.999998092651367
 31
0.0
  0
LINE
  8
0
 10
-51.0
 20
-33.0
 30
0.0
 11
-51.0
 21
-22.9999942779541
 31
0.0
  0
LINE
  8
0
 10
-121.0
 20
23.000001907348633
 30
0.0
 11
-121.0
 21
60.000003814697266
 31
0.0
  0
LINE
  8
0
 10
-121.0
 20
60.000003814697266
 30
0.0
 11
-66.00000762939453
 21
60.000003814697266
 31
0.0
  0
LINE
  8
0
 10
-66.00000762939453
 20
23.000001907348633
 30
0.0
 11
-66.00000762939453
 21
60.000003814697266
 31
0.0
  0
LINE
  8
0
 10
-121.0
 20
23.000001907348633
 30
0.0
 11
-66.00000762939453
 21
23.000001907348633
 31
0.0
  0
LINE
  8
0
 10
-121.0
 20
-22.5
 30
0.0
 11
-121.0
 21
22.5
 31
0.0
  0
LINE
  8
0
 10
-121.0
 20
22.5
 30
0.0
 11
-66.00000762939453
 21
22.5
 31
0.0
  0
LINE
  8
0
 10
-66.00000762939453
 20
-22.5
 30
0.0
 11
-66.00000762939453
 21
22.5
 31
0.0
  0
LINE
  8
0
 10
-121.0
 20
-22.5
 30
0.0
 11
-66.00000762939453
 21
-22.5
 31
0.0
  0
LINE
  8
0
 10
-69.16665649414062
 20
-18.998882293701172
 30
0.0
 11
-69.07573699951172
 21
-18.92426300048828
 31
0.0
  0
LINE
  8
0
 10
-117.8333511352539
 20
-18.998882293701172
 30
0.0
 11
-117.92427062988281
 21
-18.92426300048828
 31
0.0
  0
LINE
  8
0
 10
-117.8333511352539
 20
-18.998882293701172
 30
0.0
 11
-117.7296142578125
 21
-19.05432891845703
 31
0.0
  0
LINE
  8
0
 10
-117.61705780029297
 20
-19.088470458984375
 30
0.0
 11
-117.7296142578125
 21
-19.05432891845703
 31
0.0
  0
LINE
  8
0
 10
-117.61705780029297
 20
-19.088470458984375
 30
0.0
 11
-117.50000762939453
 21
-19.10000228881836
 31
0.0
  0
LINE
  8
0
 10
-117.50000762939453
 20
-19.10000228881836
 30
0.0
 11
-117.3829574584961
 21
-19.088470458984375
 31
0.0
  0
LINE
  8
0
 10
-117.3829574584961
 20
-19.088470458984375
 30
0.0
 11
-117.27040100097656
 21
-19.05432891845703
 31
0.0
  0
LINE
  8
0
 10
-117.16666412353516
 20
-18.998882293701172
 30
0.0
 11
-117.27040100097656
 21
-19.05432891845703
 31
0.0
  0
LINE
  8
0
 10
-117.16666412353516
 20
-18.998882293701172
 30
0.0
 11
-117.07574462890625
 21
-18.92426300048828
 31
0.0
  0
LINE
  8
0
 10
-117.00112915039062
 20
-18.833341598510742
 30
0.0
 11
-117.07574462890625
 21
-18.92426300048828
 31
0.0
  0
LINE
  8
0
 10
-117.00112915039062
 20
-18.833341598510742
 30
0.0
 11
-116.94567108154297
 21
-18.7296085357666
 31
0.0
  0
LINE
  8
0
 10
-116.91152954101562
 20
-18.617053985595703
 30
0.0
 11
-116.94567108154297
 21
-18.7296085357666
 31
0.0
  0
LINE
  8
0
 10
-116.9000015258789
 20
-18.5
 30
0.0
 11
-116.91152954101562
 21
-18.617053985595703
 31
0.0
  0
LINE
  8
0
 10
-116.9000015258789
 20
-18.5
 30
0.0
 11
-116.91152954101562
 21
-18.382946014404297
 31
0.0
  0
LINE
  8
0
 10
-116.91152954101562
 20
-18.382946014404297
 30
0.0
 11
-116.94567108154297
 21
-18.2703914642334
 31
0.0
  0
LINE
  8
0
 10
-117.00112915039062
 20
-18.166658401489258
 30
0.0
 11
-116.94567108154297
 21
-18.2703914642334
 31
0.0
  0
LINE
  8
0
 10
-117.07574462890625
 20
-18.07573699951172
 30
0.0
 11
-117.00112915039062
 21
-18.166658401489258
 31
0.0
  0
LINE
  8
0
 10
-117.16666412353516
 20
-18.001117706298828
 30
0.0
 11
-117.07574462890625
 21
-18.07573699951172
 31
0.0
  0
LINE
  8
0
 10
-117.27040100097656
 20
-17.94567108154297
 30
0.0
 11
-117.16666412353516
 21
-18.001117706298828
 31
0.0
  0
LINE
  8
0
 10
-117.3829574584961
 20
-17.911529541015625
 30
0.0
 11
-117.27040100097656
 21
-17.94567108154297
 31
0.0
  0
LINE
  8
0
 10
-117.50000762939453
 20
-17.899999618530273
 30
0.0
 11
-117.3829574584961
 21
-17.911529541015625
 31
0.0
  0
LINE
  8
0
 10
-117.50000762939453
 20
17.39999771118164
 30
0.0
 11
-117.3829574584961
 21
17.411527633666992
 31
0.0
  0
LINE
  8
0
 10
-117.3829574584961
 20
17.411527633666992
 30
0.0
 11
-117.27040100097656
 21
17.445669174194336
 31
0.0
  0
LINE
  8
0
 10
-117.27040100097656
 20
17.445669174194336
 30
0.0
 11
-117.16666412353516
 21
17.501115798950195
 31
0.0
  0
LINE
  8
0
 10
-117.16666412353516
 20
17.501115798950195
 30
0.0
 11
-117.07574462890625
 21
17.575733184814453
 31
0.0
  0
LINE
  8
0
 10
-117.07574462890625
 20
17.575733184814453
 30
0.0
 11
-117.00112915039062
 21
17.666656494140625
 31
0.0
  0
LINE
  8
0
 10
-117.00112915039062
 20
17.666656494140625
 30
0.0
 11
-116.94567108154297
 21
17.770387649536133
 31
0.0
  0
LINE
  8
0
 10
-116.91152954101562
 20
17.88294219970703
 30
0.0
 11
-116.94567108154297
 21
17.770387649536133
 31
0.0
  0
LINE
  8
0
 10
-116.9000015258789
 20
17.999998092651367
 30
0.0
 11
-116.91152954101562
 21
17.88294219970703
 31
0.0
  0
LINE
  8
0
 10
-116.9000015258789
 20
17.999998092651367
 30
0.0
 11
-116.91152954101562
 21
18.11705207824707
 31
0.0
  0
LINE
  8
0
 10
-116.91152954101562
 20
18.11705207824707
 30
0.0
 11
-116.94567108154297
 21
18.2296085357666
 31
0.0
  0
LINE
  8
0
 10
-117.00112915039062
 20
18.33333969116211
 30
0.0
 11
-116.94567108154297
 21
18.2296085357666
 31
0.0
  0
LINE
  8
0
 10
-117.00112915039062
 20
18.33333969116211
 30
0.0
 11
-117.07574462890625
 21
18.42426300048828
 31
0.0
  0
LINE
  8
0
 10
-117.16666412353516
 20
18.49888038635254
 30
0.0
 11
-117.07574462890625
 21
18.42426300048828
 31
0.0
  0
LINE
  8
0
 10
-117.16666412353516
 20
18.49888038635254
 30
0.0
 11
-117.27040100097656
 21
18.554325103759766
 31
0.0
  0
LINE
  8
0
 10
-117.3829574584961
 20
18.588468551635742
 30
0.0
 11
-117.27040100097656
 21
18.554325103759766
 31
0.0
  0
LINE
  8
0
 10
-117.3829574584961
 20
18.588468551635742
 30
0.0
 11
-117.50000762939453
 21
18.59999656677246
 31
0.0
  0
LINE
  8
0
 10
-117.61705780029297
 20
18.588468551635742
 30
0.0
 11
-117.50000762939453
 21
18.59999656677246
 31
0.0
  0
LINE
  8
0
 10
-117.61705780029297
 20
18.588468551635742
 30
0.0
 11
-117.7296142578125
 21
18.554325103759766
 31
0.0
  0
LINE
  8
0
 10
-117.8333511352539
 20
18.49888038635254
 30
0.0
 11
-117.7296142578125
 21
18.554325103759766
 31
0.0
  0
LINE
  8
0
 10
-69.16665649414062
 20
18.49888038635254
 30
0.0
 11
-69.27039337158203
 21
18.554325103759766
 31
0.0
  0
LINE
  8
0
 10
-69.38294982910156
 20
18.588468551635742
 30
0.0
 11
-69.27039337158203
 21
18.554325103759766
 31
0.0
  0
LINE
  8
0
 10
-69.38294982910156
 20
18.588468551635742
 30
0.0
 11
-69.50000762939453
 21
18.59999656677246
 31
0.0
  0
LINE
  8
0
 10
-69.61705780029297
 20
18.588468551635742
 30
0.0
 11
-69.50000762939453
 21
18.59999656677246
 31
0.0
  0
LINE
  8
0
 10
-69.61705780029297
 20
18.588468551635742
 30
0.0
 11
-69.7296142578125
 21
18.554325103759766
 31
0.0
  0
LINE
  8
0
 10
-69.8333511352539
 20
18.49888038635254
 30
0.0
 11
-69.7296142578125
 21
18.554325103759766
 31
0.0
  0
LINE
  8
0
 10
-69.8333511352539
 20
18.49888038635254
 30
0.0
 11
-69.92427062988281
 21
18.42426300048828
 31
0.0
  0
LINE
  8
0
 10
-69.99888610839844
 20
18.33333969116211
 30
0.0
 11
-69.92427062988281
 21
18.42426300048828
 31
0.0
  0
LINE
  8
0
 10
-69.99888610839844
 20
18.33333969116211
 30
0.0
 11
-70.05433654785156
 21
18.2296085357666
 31
0.0
  0
LINE
  8
0
 10
-70.0884780883789
 20
18.11705207824707
 30
0.0
 11
-70.05433654785156
 21
18.2296085357666
 31
0.0
  0
LINE
  8
0
 10
-70.10000610351562
 20
17.999998092651367
 30
0.0
 11
-70.0884780883789
 21
18.11705207824707
 31
0.0
  0
LINE
  8
0
 10
-70.10000610351562
 20
17.999998092651367
 30
0.0
 11
-70.0884780883789
 21
17.88294219970703
 31
0.0
  0
LINE
  8
0
 10
-70.0884780883789
 20
17.88294219970703
 30
0.0
 11
-70.05433654785156
 21
17.770387649536133
 31
0.0
  0
LINE
  8
0
 10
-69.99888610839844
 20
17.666656494140625
 30
0.0
 11
-70.05433654785156
 21
17.770387649536133
 31
0.0
  0
LINE
  8
0
 10
-69.99888610839844
 20
17.666656494140625
 30
0.0
 11
-69.92427062988281
 21
17.575733184814453
 31
0.0
  0
LINE
  8
0
 10
-69.92427062988281
 20
17.575733184814453
 30
0.0
 11
-69.8333511352539
 21
17.501115798950195
 31
0.0
  0
LINE
  8
0
 10
-69.8333511352539
 20
17.501115798950195
 30
0.0
 11
-69.7296142578125
 21
17.445669174194336
 31
0.0
  0
LINE
  8
0
 10
-69.7296142578125
 20
17.445669174194336
 30
0.0
 11
-69.61705780029297
 21
17.411527633666992
 31
0.0
  0
LINE
  8
0
 10
-69.61705780029297
 20
17.411527633666992
 30
0.0
 11
-69.50000762939453
 21
17.39999771118164
 31
0.0
  0
LINE
  8
0
 10
-69.61705780029297
 20
-17.911529541015625
 30
0.0
 11
-69.50000762939453
 21
-17.899999618530273
 31
0.0
  0
LINE
  8
0
 10
-69.7296142578125
 20
-17.94567108154297
 30
0.0
 11
-69.61705780029297
 21
-17.911529541015625
 31
0.0
  0
LINE
  8
0
 10
-69.8333511352539
 20
-18.001117706298828
 30
0.0
 11
-69.7296142578125
 21
-17.94567108154297
 31
0.0
  0
LINE
  8
0
 10
-69.92427062988281
 20
-18.07573699951172
 30
0.0
 11
-69.8333511352539
 21
-18.001117706298828
 31
0.0
  0
LINE
  8
0
 10
-69.99888610839844
 20
-18.166658401489258
 30
0.0
 11
-69.92427062988281
 21
-18.07573699951172
 31
0.0
  0
LINE
  8
0
 10
-69.99888610839844
 20
-18.166658401489258
 30
0.0
 11
-70.05433654785156
 21
-18.2703914642334
 31
0.0
  0
LINE
  8
0
 10
-70.0884780883789
 20
-18.382946014404297
 30
0.0
 11
-70.05433654785156
 21
-18.2703914642334
 31
0.0
  0
LINE
  8
0
 10
-70.10000610351562
 20
-18.5
 30
0.0
 11
-70.0884780883789
 21
-18.382946014404297
 31
0.0
  0
LINE
  8
0
 10
-70.10000610351562
 20
-18.5
 30
0.0
 11
-70.0884780883789
 21
-18.617053985595703
 31
0.0
  0
LINE
  8
0
 10
-70.0884780883789
 20
-18.617053985595703
 30
0.0
 11
-70.05433654785156
 21
-18.7296085357666
 31
0.0
  0
LINE
  8
0
 10
-70.05433654785156
 20
-18.7296085357666
 30
0.0
 11
-69.99888610839844
 21
-18.833341598510742
 31
0.0
  0
LINE
  8
0
 10
-69.99888610839844
 20
-18.833341598510742
 30
0.0
 11
-69.92427062988281
 21
-18.92426300048828
 31
0.0
  0
LINE
  8
0
 10
-69.92427062988281
 20
-18.92426300048828
 30
0.0
 11
-69.8333511352539
 21
-18.998882293701172
 31
0.0
  0
LINE
  8
0
 10
-69.8333511352539
 20
-18.998882293701172
 30
0.0
 11
-69.7296142578125
 21
-19.05432891845703
 31
0.0
  0
LINE
  8
0
 10
-69.61705780029297
 20
-19.088470458984375
 30
0.0
 11
-69.7296142578125
 21
-19.05432891845703
 31
0.0
  0
LINE
  8
0
 10
-69.61705780029297
 20
-19.088470458984375
 30
0.0
 11
-69.50000762939453
 21
-19.10000228881836
 31
0.0
  0
LINE
  8
0
 10
-69.38294982910156
 20
-19.088470458984375
 30
0.0
 11
-69.50000762939453
 21
-19.10000228881836
 31
0.0
  0
LINE
  8
0
 10
-69.38294982910156
 20
-19.088470458984375
 30
0.0
 11
-69.27039337158203
 21
-19.05432891845703
 31
0.0
  0
LINE
  8
0
 10
-69.16665649414062
 20
-18.998882293701172
 30
0.0
 11
-69.27039337158203
 21
-19.05432891845703
 31
0.0
  0
LINE
  8
0
 10
-69.16665649414062
 20
18.49888038635254
 30
0.0
 11
-69.07573699951172
 21
18.42426300048828
 31
0.0
  0
LINE
  8
0
 10
-69.00112915039062
 20
-18.833341598510742
 30
0.0
 11
-69.07573699951172
 21
-18.92426300048828
 31
0.0
  0
LINE
  8
0
 10
-69.00112915039062
 20
-18.833341598510742
 30
0.0
 11
-68.9456787109375
 21
-18.7296085357666
 31
0.0
  0
LINE
  8
0
 10
-68.91153717041016
 20
-18.617053985595703
 30
0.0
 11
-68.9456787109375
 21
-18.7296085357666
 31
0.0
  0
LINE
  8
0
 10
-68.9000015258789
 20
-18.5
 30
0.0
 11
-68.91153717041016
 21
-18.617053985595703
 31
0.0
  0
LINE
  8
0
 10
-68.9000015258789
 20
-18.5
 30
0.0
 11
-68.91153717041016
 21
-18.382946014404297
 31
0.0
  0
LINE
  8
0
 10
-68.91153717041016
 20
-18.382946014404297
 30
0.0
 11
-68.9456787109375
 21
-18.2703914642334
 31
0.0
  0
LINE
  8
0
 10
-69.00112915039062
 20
-18.166658401489258
 30
0.0
 11
-68.9456787109375
 21
-18.2703914642334
 31
0.0
  0
LINE
  8
0
 10
-69.07573699951172
 20
-18.07573699951172
 30
0.0
 11
-69.00112915039062
 21
-18.166658401489258
 31
0.0
  0
LINE
  8
0
 10
-69.16665649414062
 20
-18.001117706298828
 30
0.0
 11
-69.07573699951172
 21
-18.07573699951172
 31
0.0
  0
LINE
  8
0
 10
-69.27039337158203
 20
-17.94567108154297
 30
0.0
 11
-69.16665649414062
 21
-18.001117706298828
 31
0.0
  0
LINE
  8
0
 10
-69.38294982910156
 20
-17.911529541015625
 30
0.0
 11
-69.27039337158203
 21
-17.94567108154297
 31
0.0
  0
LINE
  8
0
 10
-69.50000762939453
 20
-17.899999618530273
 30
0.0
 11
-69.38294982910156
 21
-17.911529541015625
 31
0.0
  0
LINE
  8
0
 10
-69.50000762939453
 20
17.39999771118164
 30
0.0
 11
-69.38294982910156
 21
17.411527633666992
 31
0.0
  0
LINE
  8
0
 10
-69.38294982910156
 20
17.411527633666992
 30
0.0
 11
-69.27039337158203
 21
17.445669174194336
 31
0.0
  0
LINE
  8
0
 10
-69.27039337158203
 20
17.445669174194336
 30
0.0
 11
-69.16665649414062
 21
17.501115798950195
 31
0.0
  0
LINE
  8
0
 10
-69.07573699951172
 20
17.575733184814453
 30
0.0
 11
-69.16665649414062
 21
17.501115798950195
 31
0.0
  0
LINE
  8
0
 10
-69.07573699951172
 20
17.575733184814453
 30
0.0
 11
-69.00112915039062
 21
17.666656494140625
 31
0.0
  0
LINE
  8
0
 10
-69.00112915039062
 20
17.666656494140625
 30
0.0
 11
-68.9456787109375
 21
17.770387649536133
 31
0.0
  0
LINE
  8
0
 10
-68.91153717041016
 20
17.88294219970703
 30
0.0
 11
-68.9456787109375
 21
17.770387649536133
 31
0.0
  0
LINE
  8
0
 10
-68.9000015258789
 20
17.999998092651367
 30
0.0
 11
-68.91153717041016
 21
17.88294219970703
 31
0.0
  0
LINE
  8
0
 10
-68.9000015258789
 20
17.999998092651367
 30
0.0
 11
-68.91153717041016
 21
18.11705207824707
 31
0.0
  0
LINE
  8
0
 10
-68.91153717041016
 20
18.11705207824707
 30
0.0
 11
-68.9456787109375
 21
18.2296085357666
 31
0.0
  0
LINE
  8
0
 10
-69.00112915039062
 20
18.33333969116211
 30
0.0
 11
-68.9456787109375
 21
18.2296085357666
 31
0.0
  0
LINE
  8
0
 10
-69.00112915039062
 20
18.33333969116211
 30
0.0
 11
-69.07573699951172
 21
18.42426300048828
 31
0.0
  0
LINE
  8
0
 10
-117.99888610839844
 20
-18.833341598510742
 30
0.0
 11
-117.92427062988281
 21
-18.92426300048828
 31
0.0
  0
LINE
  8
0
 10
-117.8333511352539
 20
18.49888038635254
 30
0.0
 11
-117.92427062988281
 21
18.42426300048828
 31
0.0
  0
LINE
  8
0
 10
-117.99888610839844
 20
18.33333969116211
 30
0.0
 11
-117.92427062988281
 21
18.42426300048828
 31
0.0
  0
LINE
  8
0
 10
-117.99888610839844
 20
18.33333969116211
 30
0.0
 11
-118.05432891845703
 21
18.2296085357666
 31
0.0
  0
LINE
  8
0
 10
-118.08847045898438
 20
18.11705207824707
 30
0.0
 11
-118.05432891845703
 21
18.2296085357666
 31
0.0
  0
LINE
  8
0
 10
-118.0999984741211
 20
17.999998092651367
 30
0.0
 11
-118.08847045898438
 21
18.11705207824707
 31
0.0
  0
LINE
  8
0
 10
-118.0999984741211
 20
17.999998092651367
 30
0.0
 11
-118.08847045898438
 21
17.88294219970703
 31
0.0
  0
LINE
  8
0
 10
-118.08847045898438
 20
17.88294219970703
 30
0.0
 11
-118.05432891845703
 21
17.770387649536133
 31
0.0
  0
LINE
  8
0
 10
-117.99888610839844
 20
17.666656494140625
 30
0.0
 11
-118.05432891845703
 21
17.770387649536133
 31
0.0
  0
LINE
  8
0
 10
-117.99888610839844
 20
17.666656494140625
 30
0.0
 11
-117.92427062988281
 21
17.575733184814453
 31
0.0
  0
LINE
  8
0
 10
-117.92427062988281
 20
17.575733184814453
 30
0.0
 11
-117.8333511352539
 21
17.501115798950195
 31
0.0
  0
LINE
  8
0
 10
-117.8333511352539
 20
17.501115798950195
 30
0.0
 11
-117.7296142578125
 21
17.445669174194336
 31
0.0
  0
LINE
  8
0
 10
-117.7296142578125
 20
17.445669174194336
 30
0.0
 11
-117.61705780029297
 21
17.411527633666992
 31
0.0
  0
LINE
  8
0
 10
-117.61705780029297
 20
17.411527633666992
 30
0.0
 11
-117.50000762939453
 21
17.39999771118164
 31
0.0
  0
LINE
  8
0
 10
-117.61705780029297
 20
-17.911529541015625
 30
0.0
 11
-117.50000762939453
 21
-17.899999618530273
 31
0.0
  0
LINE
  8
0
 10
-117.7296142578125
 20
-17.94567108154297
 30
0.0
 11
-117.61705780029297
 21
-17.911529541015625
 31
0.0
  0
LINE
  8
0
 10
-117.8333511352539
 20
-18.001117706298828
 30
0.0
 11
-117.7296142578125
 21
-17.94567108154297
 31
0.0
  0
LINE
  8
0
 10
-117.92427062988281
 20
-18.07573699951172
 30
0.0
 11
-117.8333511352539
 21
-18.001117706298828
 31
0.0
  0
LINE
  8
0
 10
-117.99888610839844
 20
-18.166658401489258
 30
0.0
 11
-117.92427062988281
 21
-18.07573699951172
 31
0.0
  0
LINE
  8
0
 10
-117.99888610839844
 20
-18.166658401489258
 30
0.0
 11
-118.05432891845703
 21
-18.2703914642334
 31
0.0
  0
LINE
  8
0
 10
-118.08847045898438
 20
-18.382946014404297
 30
0.0
 11
-118.05432891845703
 21
-18.2703914642334
 31
0.0
  0
LINE
  8
0
 10
-118.0999984741211
 20
-18.5
 30
0.0
 11
-118.08847045898438
 21
-18.382946014404297
 31
0.0
  0
LINE
  8
0
 10
-118.0999984741211
 20
-18.5
 30
0.0
 11
-118.08847045898438
 21
-18.617053985595703
 31
0.0
  0
LINE
  8
0
 10
-118.08847045898438
 20
-18.617053985595703
 30
0.0
 11
-118.05432891845703
 21
-18.7296085357666
 31
0.0
  0
LINE
  8
0
 10
-117.99888610839844
 20
-18.833341598510742
 30
0.0
 11
-118.05432891845703
 21
-18.7296085357666
 31
0.0
  0
LINE
  8
0
 10
-65.5
 20
23.000001907348633
 30
0.0
 11
-65.5
 21
60.000003814697266
 31
0.0
  0
LINE
  8
0
 10
-65.5
 20
60.000003814697266
 30
0.0
 11
-10.499999046325684
 21
60.000003814697266
 31
0.0
  0
LINE
  8
0
 10
-10.499999046325684
 20
23.000001907348633
 30
0.0
 11
-10.499999046325684
 21
60.000003814697266
 31
0.0
  0
LINE
  8
0
 10
-65.5
 20
23.000001907348633
 30
0.0
 11
-10.499999046325684
 21
23.000001907348633
 31
0.0
  0
LINE
  8
0
 10
-65.5
 20
-22.5
 30
0.0
 11
-65.5
 21
22.5
 31
0.0
  0
LINE
  8
0
 10
-65.5
 20
22.5
 30
0.0
 11
-10.499999046325684
 21
22.5
 31
0.0
  0
LINE
  8
0
 10
-10.499999046325684
 20
-22.5
 30
0.0
 11
-10.499999046325684
 21
22.5
 31
0.0
  0
LINE
  8
0
 10
-65.5
 20
-22.5
 30
0.0
 11
-10.499999046325684
 21
-22.5
 31
0.0
  0
LINE
  8
0
 10
-13.666656494140625
 20
-18.998882293701172
 30
0.0
 11
-13.575736045837402
 21
-18.92426300048828
 31
0.0
  0
LINE
  8
0
 10
-62.33333969116211
 20
-18.998882293701172
 30
0.0
 11
-62.424259185791016
 21
-18.92426300048828
 31
0.0
  0
LINE
  8
0
 10
-62.33333969116211
 20
-18.998882293701172
 30
0.0
 11
-62.229610443115234
 21
-19.05432891845703
 31
0.0
  0
LINE
  8
0
 10
-62.11705017089844
 20
-19.088470458984375
 30
0.0
 11
-62.229610443115234
 21
-19.05432891845703
 31
0.0
  0
LINE
  8
0
 10
-62.11705017089844
 20
-19.088470458984375
 30
0.0
 11
-62.0
 21
-19.10000228881836
 31
0.0
  0
LINE
  8
0
 10
-62.0
 20
-19.10000228881836
 30
0.0
 11
-61.88294219970703
 21
-19.088470458984375
 31
0.0
  0
LINE
  8
0
 10
-61.88294219970703
 20
-19.088470458984375
 30
0.0
 11
-61.7703857421875
 21
-19.05432891845703
 31
0.0
  0
LINE
  8
0
 10
-61.666656494140625
 20
-18.998882293701172
 30
0.0
 11
-61.7703857421875
 21
-19.05432891845703
 31
0.0
  0
LINE
  8
0
 10
-61.666656494140625
 20
-18.998882293701172
 30
0.0
 11
-61.57573318481445
 21
-18.92426300048828
 31
0.0
  0
LINE
  8
0
 10
-61.50111389160156
 20
-18.833341598510742
 30
0.0
 11
-61.57573318481445
 21
-18.92426300048828
 31
0.0
  0
LINE
  8
0
 10
-61.50111389160156
 20
-18.833341598510742
 30
0.0
 11
-61.44567108154297
 21
-18.7296085357666
 31
0.0
  0
LINE
  8
0
 10
-61.411521911621094
 20
-18.617053985595703
 30
0.0
 11
-61.44567108154297
 21
-18.7296085357666
 31
0.0
  0
LINE
  8
0
 10
-61.39999771118164
 20
-18.5
 30
0.0
 11
-61.411521911621094
 21
-18.617053985595703
 31
0.0
  0
LINE
  8
0
 10
-61.39999771118164
 20
-18.5
 30
0.0
 11
-61.411521911621094
 21
-18.382946014404297
 31
0.0
  0
LINE
  8
0
 10
-61.411521911621094
 20
-18.382946014404297
 30
0.0
 11
-61.44567108154297
 21
-18.2703914642334
 31
0.0
  0
LINE
  8
0
 10
-61.50111389160156
 20
-18.166658401489258
 30
0.0
 11
-61.44567108154297
 21
-18.2703914642334
 31
0.0
  0
LINE
  8
0
 10
-61.57573318481445
 20
-18.07573699951172
 30
0.0
 11
-61.50111389160156
 21
-18.166658401489258
 31
0.0
  0
LINE
  8
0
 10
-61.666656494140625
 20
-18.001117706298828
 30
0.0
 11
-61.57573318481445
 21
-18.07573699951172
 31
0.0
  0
LINE
  8
0
 10
-61.7703857421875
 20
-17.94567108154297
 30
0.0
 11
-61.666656494140625
 21
-18.001117706298828
 31
0.0
  0
LINE
  8
0
 10
-61.88294219970703
 20
-17.911529541015625
 30
0.0
 11
-61.7703857421875
 21
-17.94567108154297
 31
0.0
  0
LINE
  8
0
 10
-62.0
 20
-17.899999618530273
 30
0.0
 11
-61.88294219970703
 21
-17.911529541015625
 31
0.0
  0
LINE
  8
0
 10
-62.0
 20
17.39999771118164
 30
0.0
 11
-61.88294219970703
 21
17.411527633666992
 31
0.0
  0
LINE
  8
0
 10
-61.88294219970703
 20
17.411527633666992
 30
0.0
 11
-61.7703857421875
 21
17.445669174194336
 31
0.0
  0
LINE
  8
0
 10
-61.7703857421875
 20
17.445669174194336
 30
0.0
 11
-61.666656494140625
 21
17.501115798950195
 31
0.0
  0
LINE
  8
0
 10
-61.666656494140625
 20
17.501115798950195
 30
0.0
 11
-61.57573318481445
 21
17.575733184814453
 31
0.0
  0
LINE
  8
0
 10
-61.57573318481445
 20
17.575733184814453
 30
0.0
 11
-61.50111389160156
 21
17.666656494140625
 31
0.0
  0
LINE
  8
0
 10
-61.50111389160156
 20
17.666656494140625
 30
0.0
 11
-61.44567108154297
 21
17.770387649536133
 31
0.0
  0
LINE
  8
0
 10
-61.411521911621094
 20
17.88294219970703
 30
0.0
 11
-61.44567108154297
 21
17.770387649536133
 31
0.0
  0
LINE
  8
0
 10
-61.39999771118164
 20
17.999998092651367
 30
0.0
 11
-61.411521911621094
 21
17.88294219970703
 31
0.0
  0
LINE
  8
0
 10
-61.39999771118164
 20
17.999998092651367
 30
0.0
 11
-61.411521911621094
 21
18.11705207824707
 31
0.0
  0
LINE
  8
0
 10
-61.411521911621094
 20
18.11705207824707
 30
0.0
 11
-61.44567108154297
 21
18.2296085357666
 31
0.0
  0
LINE
  8
0
 10
-61.50111389160156
 20
18.33333969116211
 30
0.0
 11
-61.44567108154297
 21
18.2296085357666
 31
0.0
  0
LINE
  8
0
 10
-61.50111389160156
 20
18.33333969116211
 30
0.0
 11
-61.57573318481445
 21
18.42426300048828
 31
0.0
  0
LINE
  8
0
 10
-61.666656494140625
 20
18.49888038635254
 30
0.0
 11
-61.57573318481445
 21
18.42426300048828
 31
0.0
  0
LINE
  8
0
 10
-61.666656494140625
 20
18.49888038635254
 30
0.0
 11
-61.7703857421875
 21
18.554325103759766
 31
0.0
  0
LINE
  8
0
 10
-61.88294219970703
 20
18.588468551635742
 30
0.0
 11
-61.7703857421875
 21
18.554325103759766
 31
0.0
  0
LINE
  8
0
 10
-61.88294219970703
 20
18.588468551635742
 30
0.0
 11
-62.0
 21
18.59999656677246
 31
0.0
  0
LINE
  8
0
 10
-62.11705017089844
 20
18.588468551635742
 30
0.0
 11
-62.0
 21
18.59999656677246
 31
0.0
  0
LINE
  8
0
 10
-62.11705017089844
 20
18.588468551635742
 30
0.0
 11
-62.229610443115234
 21
18.554325103759766
 31
0.0
  0
LINE
  8
0
 10
-62.33333969116211
 20
18.49888038635254
 30
0.0
 11
-62.229610443115234
 21
18.554325103759766
 31
0.0
  0
LINE
  8
0
 10
-13.666656494140625
 20
18.49888038635254
 30
0.0
 11
-13.770389556884766
 21
18.554325103759766
 31
0.0
  0
LINE
  8
0
 10
-13.882944107055664
 20
18.588468551635742
 30
0.0
 11
-13.770389556884766
 21
18.554325103759766
 31
0.0
  0
LINE
  8
0
 10
-13.882944107055664
 20
18.588468551635742
 30
0.0
 11
-13.999998092651367
 21
18.59999656677246
 31
0.0
  0
LINE
  8
0
 10
-14.117053031921387
 20
18.588468551635742
 30
0.0
 11
-13.999998092651367
 21
18.59999656677246
 31
0.0
  0
LINE
  8
0
 10
-14.117053031921387
 20
18.588468551635742
 30
0.0
 11
-14.229607582092285
 21
18.554325103759766
 31
0.0
  0
LINE
  8
0
 10
-14.333340644836426
 20
18.49888038635254
 30
0.0
 11
-14.229607582092285
 21
18.554325103759766
 31
0.0
  0
LINE
  8
0
 10
-14.333340644836426
 20
18.49888038635254
 30
0.0
 11
-14.424261093139648
 21
18.42426300048828
 31
0.0
  0
LINE
  8
0
 10
-14.498880386352539
 20
18.33333969116211
 30
0.0
 11
-14.424261093139648
 21
18.42426300048828
 31
0.0
  0
LINE
  8
0
 10
-14.498880386352539
 20
18.33333969116211
 30
0.0
 11
-14.554327964782715
 21
18.2296085357666
 31
0.0
  0
LINE
  8
0
 10
-14.588469505310059
 20
18.11705207824707
 30
0.0
 11
-14.554327964782715
 21
18.2296085357666
 31
0.0
  0
LINE
  8
0
 10
-14.59999942779541
 20
17.999998092651367
 30
0.0
 11
-14.588469505310059
 21
18.11705207824707
 31
0.0
  0
LINE
  8
0
 10
-14.59999942779541
 20
17.999998092651367
 30
0.0
 11
-14.588469505310059
 21
17.88294219970703
 31
0.0
  0
LINE
  8
0
 10
-14.588469505310059
 20
17.88294219970703
 30
0.0
 11
-14.554327964782715
 21
17.770387649536133
 31
0.0
  0
LINE
  8
0
 10
-14.498880386352539
 20
17.666656494140625
 30
0.0
 11
-14.554327964782715
 21
17.770387649536133
 31
0.0
  0
LINE
  8
0
 10
-14.498880386352539
 20
17.666656494140625
 30
0.0
 11
-14.424261093139648
 21
17.575733184814453
 31
0.0
  0
LINE
  8
0
 10
-14.424261093139648
 20
17.575733184814453
 30
0.0
 11
-14.333340644836426
 21
17.501115798950195
 31
0.0
  0
LINE
  8
0
 10
-14.333340644836426
 20
17.501115798950195
 30
0.0
 11
-14.229607582092285
 21
17.445669174194336
 31
0.0
  0
LINE
  8
0
 10
-14.229607582092285
 20
17.445669174194336
 30
0.0
 11
-14.117053031921387
 21
17.411527633666992
 31
0.0
  0
LINE
  8
0
 10
-14.117053031921387
 20
17.411527633666992
 30
0.0
 11
-13.999998092651367
 21
17.39999771118164
 31
0.0
  0
LINE
  8
0
 10
-14.117053031921387
 20
-17.911529541015625
 30
0.0
 11
-13.999998092651367
 21
-17.899999618530273
 31
0.0
  0
LINE
  8
0
 10
-14.229607582092285
 20
-17.94567108154297
 30
0.0
 11
-14.117053031921387
 21
-17.911529541015625
 31
0.0
  0
LINE
  8
0
 10
-14.333340644836426
 20
-18.001117706298828
 30
0.0
 11
-14.229607582092285
 21
-17.94567108154297
 31
0.0
  0
LINE
  8
0
 10
-14.424261093139648
 20
-18.07573699951172
 30
0.0
 11
-14.333340644836426
 21
-18.001117706298828
 31
0.0
  0
LINE
  8
0
 10
-14.498880386352539
 20
-18.166658401489258
 30
0.0
 11
-14.424261093139648
 21
-18.07573699951172
 31
0.0
  0
LINE
  8
0
 10
-14.498880386352539
 20
-18.166658401489258
 30
0.0
 11
-14.554327964782715
 21
-18.2703914642334
 31
0.0
  0
LINE
  8
0
 10
-14.588469505310059
 20
-18.382946014404297
 30
0.0
 11
-14.554327964782715
 21
-18.2703914642334
 31
0.0
  0
LINE
  8
0
 10
-14.59999942779541
 20
-18.5
 30
0.0
 11
-14.588469505310059
 21
-18.382946014404297
 31
0.0
  0
LINE
  8
0
 10
-14.59999942779541
 20
-18.5
 30
0.0
 11
-14.588469505310059
 21
-18.617053985595703
 31
0.0
  0
LINE
  8
0
 10
-14.588469505310059
 20
-18.617053985595703
 30
0.0
 11
-14.554327964782715
 21
-18.7296085357666
 31
0.0
  0
LINE
  8
0
 10
-14.554327964782715
 20
-18.7296085357666
 30
0.0
 11
-14.498880386352539
 21
-18.833341598510742
 31
0.0
  0
LINE
  8
0
 10
-14.498880386352539
 20
-18.833341598510742
 30
0.0
 11
-14.424261093139648
 21
-18.92426300048828
 31
0.0
  0
LINE
  8
0
 10
-14.424261093139648
 20
-18.92426300048828
 30
0.0
 11
-14.333340644836426
 21
-18.998882293701172
 31
0.0
  0
LINE
  8
0
 10
-14.333340644836426
 20
-18.998882293701172
 30
0.0
 11
-14.229607582092285
 21
-19.05432891845703
 31
0.0
  0
LINE
  8
0
 10
-14.117053031921387
 20
-19.088470458984375
 30
0.0
 11
-14.229607582092285
 21
-19.05432891845703
 31
0.0
  0
LINE
  8
0
 10
-14.117053031921387
 20
-19.088470458984375
 30
0.0
 11
-13.999998092651367
 21
-19.10000228881836
 31
0.0
  0
LINE
  8
0
 10
-13.882944107055664
 20
-19.088470458984375
 30
0.0
 11
-13.999998092651367
 21
-19.10000228881836
 31
0.0
  0
LINE
  8
0
 10
-13.882944107055664
 20
-19.088470458984375
 30
0.0
 11
-13.770389556884766
 21
-19.05432891845703
 31
0.0
  0
LINE
  8
0
 10
-13.666656494140625
 20
-18.998882293701172
 30
0.0
 11
-13.770389556884766
 21
-19.05432891845703
 31
0.0
  0
LINE
  8
0
 10
-13.666656494140625
 20
18.49888038635254
 30
0.0
 11
-13.575736045837402
 21
18.42426300048828
 31
0.0
  0
LINE
  8
0
 10
-13.501116752624512
 20
-18.833341598510742
 30
0.0
 11
-13.575736045837402
 21
-18.92426300048828
 31
0.0
  0
LINE
  8
0
 10
-13.501116752624512
 20
-18.833341598510742
 30
0.0
 11
-13.445669174194336
 21
-18.7296085357666
 31
0.0
  0
LINE
  8
0
 10
-13.411527633666992
 20
-18.617053985595703
 30
0.0
 11
-13.445669174194336
 21
-18.7296085357666
 31
0.0
  0
LINE
  8
0
 10
-13.39999771118164
 20
-18.5
 30
0.0
 11
-13.411527633666992
 21
-18.617053985595703
 31
0.0
  0
LINE
  8
0
 10
-13.39999771118164
 20
-18.5
 30
0.0
 11
-13.411527633666992
 21
-18.382946014404297
 31
0.0
  0
LINE
  8
0
 10
-13.411527633666992
 20
-18.382946014404297
 30
0.0
 11
-13.445669174194336
 21
-18.2703914642334
 31
0.0
  0
LINE
  8
0
 10
-13.501116752624512
 20
-18.166658401489258
 30
0.0
 11
-13.445669174194336
 21
-18.2703914642334
 31
0.0
  0
LINE
  8
0
 10
-13.575736045837402
 20
-18.07573699951172
 30
0.0
 11
-13.501116752624512
 21
-18.166658401489258
 31
0.0
  0
LINE
  8
0
 10
-13.666656494140625
 20
-18.001117706298828
 30
0.0
 11
-13.575736045837402
 21
-18.07573699951172
 31
0.0
  0
LINE
  8
0
 10
-13.770389556884766
 20
-17.94567108154297
 30
0.0
 11
-13.666656494140625
 21
-18.001117706298828
 31
0.0
  0
LINE
  8
0
 10
-13.882944107055664
 20
-17.911529541015625
 30
0.0
 11
-13.770389556884766
 21
-17.94567108154297
 31
0.0
  0
LINE
  8
0
 10
-13.999998092651367
 20
-17.899999618530273
 30
0.0
 11
-13.882944107055664
 21
-17.911529541015625
 31
0.0
  0
LINE
  8
0
 10
-13.999998092651367
 20
17.39999771118164
 30
0.0
 11
-13.882944107055664
 21
17.411527633666992
 31
0.0
  0
LINE
  8
0
 10
-13.882944107055664
 20
17.411527633666992
 30
0.0
 11
-13.770389556884766
 21
17.445669174194336
 31
0.0
  0
LINE
  8
0
 10
-13.770389556884766
 20
17.445669174194336
 30
0.0
 11
-13.666656494140625
 21
17.501115798950195
 31
0.0
  0
LINE
  8
0
 10
-13.575736045837402
 20
17.575733184814453
 30
0.0
 11
-13.666656494140625
 21
17.501115798950195
 31
0.0
  0
LINE
  8
0
 10
-13.575736045837402
 20
17.575733184814453
 30
0.0
 11
-13.501116752624512
 21
17.666656494140625
 31
0.0
  0
LINE
  8
0
 10
-13.501116752624512
 20
17.666656494140625
 30
0.0
 11
-13.445669174194336
 21
17.770387649536133
 31
0.0
  0
LINE
  8
0
 10
-13.411527633666992
 20
17.88294219970703
 30
0.0
 11
-13.445669174194336
 21
17.770387649536133
 31
0.0
  0
LINE
  8
0
 10
-13.39999771118164
 20
17.999998092651367
 30
0.0
 11
-13.411527633666992
 21
17.88294219970703
 31
0.0
  0
LINE
  8
0
 10
-13.39999771118164
 20
17.999998092651367
 30
0.0
 11
-13.411527633666992
 21
18.11705207824707
 31
0.0
  0
LINE
  8
0
 10
-13.411527633666992
 20
18.11705207824707
 30
0.0
 11
-13.445669174194336
 21
18.2296085357666
 31
0.0
  0
LINE
  8
0
 10
-13.501116752624512
 20
18.33333969116211
 30
0.0
 11
-13.445669174194336
 21
18.2296085357666
 31
0.0
  0
LINE
  8
0
 10
-13.501116752624512
 20
18.33333969116211
 30
0.0
 11
-13.575736045837402
 21
18.42426300048828
 31
0.0
  0
LINE
  8
0
 10
-62.498878479003906
 20
-18.833341598510742
 30
0.0
 11
-62.424259185791016
 21
-18.92426300048828
 31
0.0
  0
LINE
  8
0
 10
-62.33333969116211
 20
18.49888038635254
 30
0.0
 11
-62.424259185791016
 21
18.42426300048828
 31
0.0
  0
LINE
  8
0
 10
-62.498878479003906
 20
18.33333969116211
 30
0.0
 11
-62.424259185791016
 21
18.42426300048828
 31
0.0
  0
LINE
  8
0
 10
-62.498878479003906
 20
18.33333969116211
 30
0.0
 11
-62.554325103759766
 21
18.2296085357666
 31
0.0
  0
LINE
  8
0
 10
-62.58846664428711
 20
18.11705207824707
 30
0.0
 11
-62.554325103759766
 21
18.2296085357666
 31
0.0
  0
LINE
  8
0
 10
-62.599998474121094
 20
17.999998092651367
 30
0.0
 11
-62.58846664428711
 21
18.11705207824707
 31
0.0
  0
LINE
  8
0
 10
-62.599998474121094
 20
17.999998092651367
 30
0.0
 11
-62.58846664428711
 21
17.88294219970703
 31
0.0
  0
LINE
  8
0
 10
-62.58846664428711
 20
17.88294219970703
 30
0.0
 11
-62.554325103759766
 21
17.770387649536133
 31
0.0
  0
LINE
  8
0
 10
-62.498878479003906
 20
17.666656494140625
 30
0.0
 11
-62.554325103759766
 21
17.770387649536133
 31
0.0
  0
LINE
  8
0
 10
-62.498878479003906
 20
17.666656494140625
 30
0.0
 11
-62.424259185791016
 21
17.575733184814453
 31
0.0
  0
LINE
  8
0
 10
-62.424259185791016
 20
17.575733184814453
 30
0.0
 11
-62.33333969116211
 21
17.501115798950195
 31
0.0
  0
LINE
  8
0
 10
-62.33333969116211
 20
17.501115798950195
 30
0.0
 11
-62.229610443115234
 21
17.445669174194336
 31
0.0
  0
LINE
  8
0
 10
-62.229610443115234
 20
17.445669174194336
 30
0.0
 11
-62.11705017089844
 21
17.411527633666992
 31
0.0
  0
LINE
  8
0
 10
-62.11705017089844
 20
17.411527633666992
 30
0.0
 11
-62.0
 21
17.39999771118164
 31
0.0
  0
LINE
  8
0
 10
-62.11705017089844
 20
-17.911529541015625
 30
0.0
 11
-62.0
 21
-17.899999618530273
 31
0.0
  0
LINE
  8
0
 10
-62.229610443115234
 20
-17.94567108154297
 30
0.0
 11
-62.11705017089844
 21
-17.911529541015625
 31
0.0
  0
LINE
  8
0
 10
-62.33333969116211
 20
-18.001117706298828
 30
0.0
 11
-62.229610443115234
 21
-17.94567108154297
 31
0.0
  0
LINE
  8
0
 10
-62.424259185791016
 20
-18.07573699951172
 30
0.0
 11
-62.33333969116211
 21
-18.001117706298828
 31
0.0
  0
LINE
  8
0
 10
-62.498878479003906
 20
-18.166658401489258
 30
0.0
 11
-62.424259185791016
 21
-18.07573699951172
 31
0.0
  0
LINE
  8
0
 10
-62.498878479003906
 20
-18.166658401489258
 30
0.0
 11
-62.554325103759766
 21
-18.2703914642334
 31
0.0
  0
LINE
  8
0
 10
-62.58846664428711
 20
-18.382946014404297
 30
0.0
 11
-62.554325103759766
 21
-18.2703914642334
 31
0.0
  0
LINE
  8
0
 10
-62.599998474121094
 20
-18.5
 30
0.0
 11
-62.58846664428711
 21
-18.382946014404297
 31
0.0
  0
LINE
  8
0
 10
-62.599998474121094
 20
-18.5
 30
0.0
 11
-62.58846664428711
 21
-18.617053985595703
 31
0.0
  0
LINE
  8
0
 10
-62.58846664428711
 20
-18.617053985595703
 30
0.0
 11
-62.554325103759766
 21
-18.7296085357666
 31
0.0
  0
LINE
  8
0
 10
-62.498878479003906
 20
-18.833341598510742
 30
0.0
 11
-62.554325103759766
 21
-18.7296085357666
 31
0.0
  0
LINE
  8
0
 10
-10.000003814697266
 20
23.000001907348633
 30
0.0
 11
-10.000003814697266
 21
60.000003814697266
 31
0.0
  0
LINE
  8
0
 10
-10.000003814697266
 20
60.000003814697266
 30
0.0
 11
45.0
 21
60.000003814697266
 31
0.0
  0
LINE
  8
0
 10
45.0
 20
23.000001907348633
 30
0.0
 11
45.0
 21
60.000003814697266
 31
0.0
  0
LINE
  8
0
 10
-10.000003814697266
 20
23.000001907348633
 30
0.0
 11
45.0
 21
23.000001907348633
 31
0.0
  0
LINE
  8
0
 10
-9.999992370605469
 20
-22.5
 30
0.0
 11
-9.999992370605469
 21
22.5
 31
0.0
  0
LINE
  8
0
 10
-9.999992370605469
 20
22.5
 30
0.0
 11
45.0000114440918
 21
22.5
 31
0.0
  0
LINE
  8
0
 10
45.0000114440918
 20
-22.5
 30
0.0
 11
45.0000114440918
 21
22.5
 31
0.0
  0
LINE
  8
0
 10
-9.999992370605469
 20
-22.5
 30
0.0
 11
45.0000114440918
 21
-22.5
 31
0.0
  0
LINE
  8
0
 10
41.833351135253906
 20
-18.998882293701172
 30
0.0
 11
41.92427444458008
 21
-18.92426300048828
 31
0.0
  0
LINE
  8
0
 10
-6.833331108093262
 20
-18.998882293701172
 30
0.0
 11
-6.924253463745117
 21
-18.92426300048828
 31
0.0
  0
LINE
  8
0
 10
-6.833331108093262
 20
-18.998882293701172
 30
0.0
 11
-6.729599952697754
 21
-19.05432891845703
 31
0.0
  0
LINE
  8
0
 10
-6.617043972015381
 20
-19.088470458984375
 30
0.0
 11
-6.729599952697754
 21
-19.05432891845703
 31
0.0
  0
LINE
  8
0
 10
-6.617043972015381
 20
-19.088470458984375
 30
0.0
 11
-6.4999895095825195
 21
-19.10000228881836
 31
0.0
  0
LINE
  8
0
 10
-6.4999895095825195
 20
-19.10000228881836
 30
0.0
 11
-6.3829345703125
 21
-19.088470458984375
 31
0.0
  0
LINE
  8
0
 10
-6.3829345703125
 20
-19.088470458984375
 30
0.0
 11
-6.270379066467285
 21
-19.05432891845703
 31
0.0
  0
LINE
  8
0
 10
-6.166647434234619
 20
-18.998882293701172
 30
0.0
 11
-6.270379066467285
 21
-19.05432891845703
 31
0.0
  0
LINE
  8
0
 10
-6.166647434234619
 20
-18.998882293701172
 30
0.0
 11
-6.075725078582764
 21
-18.92426300048828
 31
0.0
  0
LINE
  8
0
 10
-6.001107215881348
 20
-18.833341598510742
 30
0.0
 11
-6.075725078582764
 21
-18.92426300048828
 31
0.0
  0
LINE
  8
0
 10
-6.001107215881348
 20
-18.833341598510742
 30
0.0
 11
-5.945661544799805
 21
-18.7296085357666
 31
0.0
  0
LINE
  8
0
 10
-5.911518573760986
 20
-18.617053985595703
 30
0.0
 11
-5.945661544799805
 21
-18.7296085357666
 31
0.0
  0
LINE
  8
0
 10
-5.899989604949951
 20
-18.5
 30
0.0
 11
-5.911518573760986
 21
-18.617053985595703
 31
0.0
  0
LINE
  8
0
 10
-5.899989604949951
 20
-18.5
 30
0.0
 11
-5.911518573760986
 21
-18.382946014404297
 31
0.0
  0
LINE
  8
0
 10
-5.911518573760986
 20
-18.382946014404297
 30
0.0
 11
-5.945661544799805
 21
-18.2703914642334
 31
0.0
  0
LINE
  8
0
 10
-6.001107215881348
 20
-18.166658401489258
 30
0.0
 11
-5.945661544799805
 21
-18.2703914642334
 31
0.0
  0
LINE
  8
0
 10
-6.075725078582764
 20
-18.07573699951172
 30
0.0
 11
-6.001107215881348
 21
-18.166658401489258
 31
0.0
  0
LINE
  8
0
 10
-6.166647434234619
 20
-18.001117706298828
 30
0.0
 11
-6.075725078582764
 21
-18.07573699951172
 31
0.0
  0
LINE
  8
0
 10
-6.270379066467285
 20
-17.94567108154297
 30
0.0
 11
-6.166647434234619
 21
-18.001117706298828
 31
0.0
  0
LINE
  8
0
 10
-6.3829345703125
 20
-17.911529541015625
 30
0.0
 11
-6.270379066467285
 21
-17.94567108154297
 31
0.0
  0
LINE
  8
0
 10
-6.4999895095825195
 20
-17.899999618530273
 30
0.0
 11
-6.3829345703125
 21
-17.911529541015625
 31
0.0
  0
LINE
  8
0
 10
-6.4999895095825195
 20
17.39999771118164
 30
0.0
 11
-6.3829345703125
 21
17.411527633666992
 31
0.0
  0
LINE
  8
0
 10
-6.3829345703125
 20
17.411527633666992
 30
0.0
 11
-6.270379066467285
 21
17.445669174194336
 31
0.0
  0
LINE
  8
0
 10
-6.270379066467285
 20
17.445669174194336
 30
0.0
 11
-6.166647434234619
 21
17.501115798950195
 31
0.0
  0
LINE
  8
0
 10
-6.166647434234619
 20
17.501115798950195
 30
0.0
 11
-6.075725078582764
 21
17.575733184814453
 31
0.0
  0
LINE
  8
0
 10
-6.075725078582764
 20
17.575733184814453
 30
0.0
 11
-6.001107215881348
 21
17.666656494140625
 31
0.0
  0
LINE
  8
0
 10
-6.001107215881348
 20
17.666656494140625
 30
0.0
 11
-5.945661544799805
 21
17.770387649536133
 31
0.0
  0
LINE
  8
0
 10
-5.911518573760986
 20
17.88294219970703
 30
0.0
 11
-5.945661544799805
 21
17.770387649536133
 31
0.0
  0
LINE
  8
0
 10
-5.899989604949951
 20
17.999998092651367
 30
0.0
 11
-5.911518573760986
 21
17.88294219970703
 31
0.0
  0
LINE
  8
0
 10
-5.899989604949951
 20
17.999998092651367
 30
0.0
 11
-5.911518573760986
 21
18.11705207824707
 31
0.0
  0
LINE
  8
0
 10
-5.911518573760986
 20
18.11705207824707
 30
0.0
 11
-5.945661544799805
 21
18.2296085357666
 31
0.0
  0
LINE
  8
0
 10
-6.001107215881348
 20
18.33333969116211
 30
0.0
 11
-5.945661544799805
 21
18.2296085357666
 31
0.0
  0
LINE
  8
0
 10
-6.001107215881348
 20
18.33333969116211
 30
0.0
 11
-6.075725078582764
 21
18.42426300048828
 31
0.0
  0
LINE
  8
0
 10
-6.166647434234619
 20
18.49888038635254
 30
0.0
 11
-6.075725078582764
 21
18.42426300048828
 31
0.0
  0
LINE
  8
0
 10
-6.166647434234619
 20
18.49888038635254
 30
0.0
 11
-6.270379066467285
 21
18.554325103759766
 31
0.0
  0
LINE
  8
0
 10
-6.3829345703125
 20
18.588468551635742
 30
0.0
 11
-6.270379066467285
 21
18.554325103759766
 31
0.0
  0
LINE
  8
0
 10
-6.3829345703125
 20
18.588468551635742
 30
0.0
 11
-6.4999895095825195
 21
18.59999656677246
 31
0.0
  0
LINE
  8
0
 10
-6.617043972015381
 20
18.588468551635742
 30
0.0
 11
-6.4999895095825195
 21
18.59999656677246
 31
0.0
  0
LINE
  8
0
 10
-6.617043972015381
 20
18.588468551635742
 30
0.0
 11
-6.729599952697754
 21
18.554325103759766
 31
0.0
  0
LINE
  8
0
 10
-6.833331108093262
 20
18.49888038635254
 30
0.0
 11
-6.729599952697754
 21
18.554325103759766
 31
0.0
  0
LINE
  8
0
 10
41.833351135253906
 20
18.49888038635254
 30
0.0
 11
41.729618072509766
 21
18.554325103759766
 31
0.0
  0
LINE
  8
0
 10
41.6170654296875
 20
18.588468551635742
 30
0.0
 11
41.729618072509766
 21
18.554325103759766
 31
0.0
  0
LINE
  8
0
 10
41.6170654296875
 20
18.588468551635742
 30
0.0
 11
41.50000762939453
 21
18.59999656677246
 31
0.0
  0
LINE
  8
0
 10
41.382957458496094
 20
18.588468551635742
 30
0.0
 11
41.50000762939453
 21
18.59999656677246
 31
0.0
  0
LINE
  8
0
 10
41.382957458496094
 20
18.588468551635742
 30
0.0
 11
41.27040100097656
 21
18.554325103759766
 31
0.0
  0
LINE
  8
0
 10
41.16666793823242
 20
18.49888038635254
 30
0.0
 11
41.27040100097656
 21
18.554325103759766
 31
0.0
  0
LINE
  8
0
 10
41.16666793823242
 20
18.49888038635254
 30
0.0
 11
41.075748443603516
 21
18.42426300048828
 31
0.0
  0
LINE
  8
0
 10
41.001129150390625
 20
18.33333969116211
 30
0.0
 11
41.075748443603516
 21
18.42426300048828
 31
0.0
  0
LINE
  8
0
 10
41.001129150390625
 20
18.33333969116211
 30
0.0
 11
40.9456787109375
 21
18.2296085357666
 31
0.0
  0
LINE
  8
0
 10
40.911537170410156
 20
18.11705207824707
 30
0.0
 11
40.9456787109375
 21
18.2296085357666
 31
0.0
  0
LINE
  8
0
 10
40.90000915527344
 20
17.999998092651367
 30
0.0
 11
40.911537170410156
 21
18.11705207824707
 31
0.0
  0
LINE
  8
0
 10
40.90000915527344
 20
17.999998092651367
 30
0.0
 11
40.911537170410156
 21
17.88294219970703
 31
0.0
  0
LINE
  8
0
 10
40.911537170410156
 20
17.88294219970703
 30
0.0
 11
40.9456787109375
 21
17.770387649536133
 31
0.0
  0
LINE
  8
0
 10
41.001129150390625
 20
17.666656494140625
 30
0.0
 11
40.9456787109375
 21
17.770387649536133
 31
0.0
  0
LINE
  8
0
 10
41.001129150390625
 20
17.666656494140625
 30
0.0
 11
41.075748443603516
 21
17.575733184814453
 31
0.0
  0
LINE
  8
0
 10
41.075748443603516
 20
17.575733184814453
 30
0.0
 11
41.16666793823242
 21
17.501115798950195
 31
0.0
  0
LINE
  8
0
 10
41.16666793823242
 20
17.501115798950195
 30
0.0
 11
41.27040100097656
 21
17.445669174194336
 31
0.0
  0
LINE
  8
0
 10
41.27040100097656
 20
17.445669174194336
 30
0.0
 11
41.382957458496094
 21
17.411527633666992
 31
0.0
  0
LINE
  8
0
 10
41.382957458496094
 20
17.411527633666992
 30
0.0
 11
41.50000762939453
 21
17.39999771118164
 31
0.0
  0
LINE
  8
0
 10
41.382957458496094
 20
-17.911529541015625
 30
0.0
 11
41.50000762939453
 21
-17.899999618530273
 31
0.0
  0
LINE
  8
0
 10
41.27040100097656
 20
-17.94567108154297
 30
0.0
 11
41.382957458496094
 21
-17.911529541015625
 31
0.0
  0
LINE
  8
0
 10
41.16666793823242
 20
-18.001117706298828
 30
0.0
 11
41.27040100097656
 21
-17.94567108154297
 31
0.0
  0
LINE
  8
0
 10
41.075748443603516
 20
-18.07573699951172
 30
0.0
 11
41.16666793823242
 21
-18.001117706298828
 31
0.0
  0
LINE
  8
0
 10
41.001129150390625
 20
-18.166658401489258
 30
0.0
 11
41.075748443603516
 21
-18.07573699951172
 31
0.0
  0
LINE
  8
0
 10
41.001129150390625
 20
-18.166658401489258
 30
0.0
 11
40.9456787109375
 21
-18.2703914642334
 31
0.0
  0
LINE
  8
0
 10
40.911537170410156
 20
-18.382946014404297
 30
0.0
 11
40.9456787109375
 21
-18.2703914642334
 31
0.0
  0
LINE
  8
0
 10
40.90000915527344
 20
-18.5
 30
0.0
 11
40.911537170410156
 21
-18.382946014404297
 31
0.0
  0
LINE
  8
0
 10
40.90000915527344
 20
-18.5
 30
0.0
 11
40.911537170410156
 21
-18.617053985595703
 31
0.0
  0
LINE
  8
0
 10
40.911537170410156
 20
-18.617053985595703
 30
0.0
 11
40.9456787109375
 21
-18.7296085357666
 31
0.0
  0
LINE
  8
0
 10
40.9456787109375
 20
-18.7296085357666
 30
0.0
 11
41.001129150390625
 21
-18.833341598510742
 31
0.0
  0
LINE
  8
0
 10
41.001129150390625
 20
-18.833341598510742
 30
0.0
 11
41.075748443603516
 21
-18.92426300048828
 31
0.0
  0
LINE
  8
0
 10
41.075748443603516
 20
-18.92426300048828
 30
0.0
 11
41.16666793823242
 21
-18.998882293701172
 31
0.0
  0
LINE
  8
0
 10
41.16666793823242
 20
-18.998882293701172
 30
0.0
 11
41.27040100097656
 21
-19.05432891845703
 31
0.0
  0
LINE
  8
0
 10
41.382957458496094
 20
-19.088470458984375
 30
0.0
 11
41.27040100097656
 21
-19.05432891845703
 31
0.0
  0
LINE
  8
0
 10
41.382957458496094
 20
-19.088470458984375
 30
0.0
 11
41.50000762939453
 21
-19.10000228881836
 31
0.0
  0
LINE
  8
0
 10
41.6170654296875
 20
-19.088470458984375
 30
0.0
 11
41.50000762939453
 21
-19.10000228881836
 31
0.0
  0
LINE
  8
0
 10
41.6170654296875
 20
-19.088470458984375
 30
0.0
 11
41.729618072509766
 21
-19.05432891845703
 31
0.0
  0
LINE
  8
0
 10
41.833351135253906
 20
-18.998882293701172
 30
0.0
 11
41.729618072509766
 21
-19.05432891845703
 31
0.0
  0
LINE
  8
0
 10
41.833351135253906
 20
18.49888038635254
 30
0.0
 11
41.92427444458008
 21
18.42426300048828
 31
0.0
  0
LINE
  8
0
 10
41.99889373779297
 20
-18.833341598510742
 30
0.0
 11
41.92427444458008
 21
-18.92426300048828
 31
0.0
  0
LINE
  8
0
 10
41.99889373779297
 20
-18.833341598510742
 30
0.0
 11
42.05433654785156
 21
-18.7296085357666
 31
0.0
  0
LINE
  8
0
 10
42.088478088378906
 20
-18.617053985595703
 30
0.0
 11
42.05433654785156
 21
-18.7296085357666
 31
0.0
  0
LINE
  8
0
 10
42.100013732910156
 20
-18.5
 30
0.0
 11
42.088478088378906
 21
-18.617053985595703
 31
0.0
  0
LINE
  8
0
 10
42.100013732910156
 20
-18.5
 30
0.0
 11
42.088478088378906
 21
-18.382946014404297
 31
0.0
  0
LINE
  8
0
 10
42.088478088378906
 20
-18.382946014404297
 30
0.0
 11
42.05433654785156
 21
-18.2703914642334
 31
0.0
  0
LINE
  8
0
 10
41.99889373779297
 20
-18.166658401489258
 30
0.0
 11
42.05433654785156
 21
-18.2703914642334
 31
0.0
  0
LINE
  8
0
 10
41.92427444458008
 20
-18.07573699951172
 30
0.0
 11
41.99889373779297
 21
-18.166658401489258
 31
0.0
  0
LINE
  8
0
 10
41.833351135253906
 20
-18.001117706298828
 30
0.0
 11
41.92427444458008
 21
-18.07573699951172
 31
0.0
  0
LINE
  8
0
 10
41.729618072509766
 20
-17.94567108154297
 30
0.0
 11
41.833351135253906
 21
-18.001117706298828
 31
0.0
  0
LINE
  8
0
 10
41.6170654296875
 20
-17.911529541015625
 30
0.0
 11
41.729618072509766
 21
-17.94567108154297
 31
0.0
  0
LINE
  8
0
 10
41.50000762939453
 20
-17.899999618530273
 30
0.0
 11
41.6170654296875
 21
-17.911529541015625
 31
0.0
  0
LINE
  8
0
 10
41.50000762939453
 20
17.39999771118164
 30
0.0
 11
41.6170654296875
 21
17.411527633666992
 31
0.0
  0
LINE
  8
0
 10
41.6170654296875
 20
17.411527633666992
 30
0.0
 11
41.729618072509766
 21
17.445669174194336
 31
0.0
  0
LINE
  8
0
 10
41.729618072509766
 20
17.445669174194336
 30
0.0
 11
41.833351135253906
 21
17.501115798950195
 31
0.0
  0
LINE
  8
0
 10
41.92427444458008
 20
17.575733184814453
 30
0.0
 11
41.833351135253906
 21
17.501115798950195
 31
0.0
  0
LINE
  8
0
 10
41.92427444458008
 20
17.575733184814453
 30
0.0
 11
41.99889373779297
 21
17.666656494140625
 31
0.0
  0
LINE
  8
0
 10
41.99889373779297
 20
17.666656494140625
 30
0.0
 11
42.05433654785156
 21
17.770387649536133
 31
0.0
  0
LINE
  8
0
 10
42.088478088378906
 20
17.88294219970703
 30
0.0
 11
42.05433654785156
 21
17.770387649536133
 31
0.0
  0
LINE
  8
0
 10
42.100013732910156
 20
17.999998092651367
 30
0.0
 11
42.088478088378906
 21
17.88294219970703
 31
0.0
  0
LINE
  8
0
 10
42.100013732910156
 20
17.999998092651367
 30
0.0
 11
42.088478088378906
 21
18.11705207824707
 31
0.0
  0
LINE
  8
0
 10
42.088478088378906
 20
18.11705207824707
 30
0.0
 11
42.05433654785156
 21
18.2296085357666
 31
0.0
  0
LINE
  8
0
 10
41.99889373779297
 20
18.33333969116211
 30
0.0
 11
42.05433654785156
 21
18.2296085357666
 31
0.0
  0
LINE
  8
0
 10
41.99889373779297
 20
18.33333969116211
 30
0.0
 11
41.92427444458008
 21
18.42426300048828
 31
0.0
  0
LINE
  8
0
 10
-6.998871326446533
 20
-18.833341598510742
 30
0.0
 11
-6.924253463745117
 21
-18.92426300048828
 31
0.0
  0
LINE
  8
0
 10
-6.833331108093262
 20
18.49888038635254
 30
0.0
 11
-6.924253463745117
 21
18.42426300048828
 31
0.0
  0
LINE
  8
0
 10
-6.998871326446533
 20
18.33333969116211
 30
0.0
 11
-6.924253463745117
 21
18.42426300048828
 31
0.0
  0
LINE
  8
0
 10
-6.998871326446533
 20
18.33333969116211
 30
0.0
 11
-7.054316997528076
 21
18.2296085357666
 31
0.0
  0
LINE
  8
0
 10
-7.0884599685668945
 20
18.11705207824707
 30
0.0
 11
-7.054316997528076
 21
18.2296085357666
 31
0.0
  0
LINE
  8
0
 10
-7.09998893737793
 20
17.999998092651367
 30
0.0
 11
-7.0884599685668945
 21
18.11705207824707
 31
0.0
  0
LINE
  8
0
 10
-7.09998893737793
 20
17.999998092651367
 30
0.0
 11
-7.0884599685668945
 21
17.88294219970703
 31
0.0
  0
LINE
  8
0
 10
-7.0884599685668945
 20
17.88294219970703
 30
0.0
 11
-7.054316997528076
 21
17.770387649536133
 31
0.0
  0
LINE
  8
0
 10
-6.998871326446533
 20
17.666656494140625
 30
0.0
 11
-7.054316997528076
 21
17.770387649536133
 31
0.0
  0
LINE
  8
0
 10
-6.998871326446533
 20
17.666656494140625
 30
0.0
 11
-6.924253463745117
 21
17.575733184814453
 31
0.0
  0
LINE
  8
0
 10
-6.924253463745117
 20
17.575733184814453
 30
0.0
 11
-6.833331108093262
 21
17.501115798950195
 31
0.0
  0
LINE
  8
0
 10
-6.833331108093262
 20
17.501115798950195
 30
0.0
 11
-6.729599952697754
 21
17.445669174194336
 31
0.0
  0
LINE
  8
0
 10
-6.729599952697754
 20
17.445669174194336
 30
0.0
 11
-6.617043972015381
 21
17.411527633666992
 31
0.0
  0
LINE
  8
0
 10
-6.617043972015381
 20
17.411527633666992
 30
0.0
 11
-6.4999895095825195
 21
17.39999771118164
 31
0.0
  0
LINE
  8
0
 10
-6.617043972015381
 20
-17.911529541015625
 30
0.0
 11
-6.4999895095825195
 21
-17.899999618530273
 31
0.0
  0
LINE
  8
0
 10
-6.729599952697754
 20
-17.94567108154297
 30
0.0
 11
-6.617043972015381
 21
-17.911529541015625
 31
0.0
  0
LINE
  8
0
 10
-6.833331108093262
 20
-18.001117706298828
 30
0.0
 11
-6.729599952697754
 21
-17.94567108154297
 31
0.0
  0
LINE
  8
0
 10
-6.924253463745117
 20
-18.07573699951172
 30
0.0
 11
-6.833331108093262
 21
-18.001117706298828
 31
0.0
  0
LINE
  8
0
 10
-6.998871326446533
 20
-18.166658401489258
 30
0.0
 11
-6.924253463745117
 21
-18.07573699951172
 31
0.0
  0
LINE
  8
0
 10
-6.998871326446533
 20
-18.166658401489258
 30
0.0
 11
-7.054316997528076
 21
-18.2703914642334
 31
0.0
  0
LINE
  8
0
 10
-7.0884599685668945
 20
-18.382946014404297
 30
0.0
 11
-7.054316997528076
 21
-18.2703914642334
 31
0.0
  0
LINE
  8
0
 10
-7.09998893737793
 20
-18.5
 30
0.0
 11
-7.0884599685668945
 21
-18.382946014404297
 31
0.0
  0
LINE
  8
0
 10
-7.09998893737793
 20
-18.5
 30
0.0
 11
-7.0884599685668945
 21
-18.617053985595703
 31
0.0
  0
LINE
  8
0
 10
-7.0884599685668945
 20
-18.617053985595703
 30
0.0
 11
-7.054316997528076
 21
-18.7296085357666
 31
0.0
  0
LINE
  8
0
 10
-6.998871326446533
 20
-18.833341598510742
 30
0.0
 11
-7.054316997528076
 21
-18.7296085357666
 31
0.0
  0
LINE
  8
0
 10
45.5
 20
23.000001907348633
 30
0.0
 11
45.5
 21
60.000003814697266
 31
0.0
  0
LINE
  8
0
 10
45.5
 20
60.000003814697266
 30
0.0
 11
100.5
 21
60.000003814697266
 31
0.0
  0
LINE
  8
0
 10
100.5
 20
23.000001907348633
 30
0.0
 11
100.5
 21
60.000003814697266
 31
0.0
  0
LINE
  8
0
 10
45.5
 20
23.000001907348633
 30
0.0
 11
100.5
 21
23.000001907348633
 31
0.0
  0
LINE
  8
0
 10
45.5000114440918
 20
-22.5
 30
0.0
 11
45.5000114440918
 21
22.5
 31
0.0
  0
LINE
  8
0
 10
45.5000114440918
 20
22.5
 30
0.0
 11
100.50001525878906
 21
22.5
 31
0.0
  0
LINE
  8
0
 10
100.50001525878906
 20
-22.5
 30
0.0
 11
100.50001525878906
 21
22.5
 31
0.0
  0
LINE
  8
0
 10
45.5000114440918
 20
-22.5
 30
0.0
 11
100.50001525878906
 21
-22.5
 31
0.0
  0
LINE
  8
0
 10
97.33335876464844
 20
-18.998882293701172
 30
0.0
 11
97.42427825927734
 21
-18.92426300048828
 31
0.0
  0
LINE
  8
0
 10
48.66667556762695
 20
-18.998882293701172
 30
0.0
 11
48.57575225830078
 21
-18.92426300048828
 31
0.0
  0
LINE
  8
0
 10
48.66667556762695
 20
-18.998882293701172
 30
0.0
 11
48.77040481567383
 21
-19.05432891845703
 31
0.0
  0
LINE
  8
0
 10
48.88296127319336
 20
-19.088470458984375
 30
0.0
 11
48.77040481567383
 21
-19.05432891845703
 31
0.0
  0
LINE
  8
0
 10
48.88296127319336
 20
-19.088470458984375
 30
0.0
 11
49.00001525878906
 21
-19.10000228881836
 31
0.0
  0
LINE
  8
0
 10
49.00001525878906
 20
-19.10000228881836
 30
0.0
 11
49.117069244384766
 21
-19.088470458984375
 31
0.0
  0
LINE
  8
0
 10
49.117069244384766
 20
-19.088470458984375
 30
0.0
 11
49.22962951660156
 21
-19.05432891845703
 31
0.0
  0
LINE
  8
0
 10
49.33335876464844
 20
-18.998882293701172
 30
0.0
 11
49.22962951660156
 21
-19.05432891845703
 31
0.0
  0
LINE
  8
0
 10
49.33335876464844
 20
-18.998882293701172
 30
0.0
 11
49.424278259277344
 21
-18.92426300048828
 31
0.0
  0
LINE
  8
0
 10
49.498897552490234
 20
-18.833341598510742
 30
0.0
 11
49.424278259277344
 21
-18.92426300048828
 31
0.0
  0
LINE
  8
0
 10
49.498897552490234
 20
-18.833341598510742
 30
0.0
 11
49.55434036254883
 21
-18.7296085357666
 31
0.0
  0
LINE
  8
0
 10
49.58848571777344
 20
-18.617053985595703
 30
0.0
 11
49.55434036254883
 21
-18.7296085357666
 31
0.0
  0
LINE
  8
0
 10
49.60001754760742
 20
-18.5
 30
0.0
 11
49.58848571777344
 21
-18.617053985595703
 31
0.0
  0
LINE
  8
0
 10
49.60001754760742
 20
-18.5
 30
0.0
 11
49.58848571777344
 21
-18.382946014404297
 31
0.0
  0
LINE
  8
0
 10
49.58848571777344
 20
-18.382946014404297
 30
0.0
 11
49.55434036254883
 21
-18.2703914642334
 31
0.0
  0
LINE
  8
0
 10
49.498897552490234
 20
-18.166658401489258
 30
0.0
 11
49.55434036254883
 21
-18.2703914642334
 31
0.0
  0
LINE
  8
0
 10
49.424278259277344
 20
-18.07573699951172
 30
0.0
 11
49.498897552490234
 21
-18.166658401489258
 31
0.0
  0
LINE
  8
0
 10
49.33335876464844
 20
-18.001117706298828
 30
0.0
 11
49.424278259277344
 21
-18.07573699951172
 31
0.0
  0
LINE
  8
0
 10
49.22962951660156
 20
-17.94567108154297
 30
0.0
 11
49.33335876464844
 21
-18.001117706298828
 31
0.0
  0
LINE
  8
0
 10
49.117069244384766
 20
-17.911529541015625
 30
0.0
 11
49.22962951660156
 21
-17.94567108154297
 31
0.0
  0
LINE
  8
0
 10
49.00001525878906
 20
-17.899999618530273
 30
0.0
 11
49.117069244384766
 21
-17.911529541015625
 31
0.0
  0
LINE
  8
0
 10
49.00001525878906
 20
17.39999771118164
 30
0.0
 11
49.117069244384766
 21
17.411527633666992
 31
0.0
  0
LINE
  8
0
 10
49.117069244384766
 20
17.411527633666992
 30
0.0
 11
49.22962951660156
 21
17.445669174194336
 31
0.0
  0
LINE
  8
0
 10
49.22962951660156
 20
17.445669174194336
 30
0.0
 11
49.33335876464844
 21
17.501115798950195
 31
0.0
  0
LINE
  8
0
 10
49.33335876464844
 20
17.501115798950195
 30
0.0
 11
49.424278259277344
 21
17.575733184814453
 31
0.0
  0
LINE
  8
0
 10
49.424278259277344
 20
17.575733184814453
 30
0.0
 11
49.498897552490234
 21
17.666656494140625
 31
0.0
  0
LINE
  8
0
 10
49.498897552490234
 20
17.666656494140625
 30
0.0
 11
49.55434036254883
 21
17.770387649536133
 31
0.0
  0
LINE
  8
0
 10
49.58848571777344
 20
17.88294219970703
 30
0.0
 11
49.55434036254883
 21
17.770387649536133
 31
0.0
  0
LINE
  8
0
 10
49.60001754760742
 20
17.999998092651367
 30
0.0
 11
49.58848571777344
 21
17.88294219970703
 31
0.0
  0
LINE
  8
0
 10
49.60001754760742
 20
17.999998092651367
 30
0.0
 11
49.58848571777344
 21
18.11705207824707
 31
0.0
  0
LINE
  8
0
 10
49.58848571777344
 20
18.11705207824707
 30
0.0
 11
49.55434036254883
 21
18.2296085357666
 31
0.0
  0
LINE
  8
0
 10
49.498897552490234
 20
18.33333969116211
 30
0.0
 11
49.55434036254883
 21
18.2296085357666
 31
0.0
  0
LINE
  8
0
 10
49.498897552490234
 20
18.33333969116211
 30
0.0
 11
49.424278259277344
 21
18.42426300048828
 31
0.0
  0
LINE
  8
0
 10
49.33335876464844
 20
18.49888038635254
 30
0.0
 11
49.424278259277344
 21
18.42426300048828
 31
0.0
  0
LINE
  8
0
 10
49.33335876464844
 20
18.49888038635254
 30
0.0
 11
49.22962951660156
 21
18.554325103759766
 31
0.0
  0
LINE
  8
0
 10
49.117069244384766
 20
18.588468551635742
 30
0.0
 11
49.22962951660156
 21
18.554325103759766
 31
0.0
  0
LINE
  8
0
 10
49.117069244384766
 20
18.588468551635742
 30
0.0
 11
49.00001525878906
 21
18.59999656677246
 31
0.0
  0
LINE
  8
0
 10
48.88296127319336
 20
18.588468551635742
 30
0.0
 11
49.00001525878906
 21
18.59999656677246
 31
0.0
  0
LINE
  8
0
 10
48.88296127319336
 20
18.588468551635742
 30
0.0
 11
48.77040481567383
 21
18.554325103759766
 31
0.0
  0
LINE
  8
0
 10
48.66667556762695
 20
18.49888038635254
 30
0.0
 11
48.77040481567383
 21
18.554325103759766
 31
0.0
  0
LINE
  8
0
 10
97.33335876464844
 20
18.49888038635254
 30
0.0
 11
97.22962188720703
 21
18.554325103759766
 31
0.0
  0
LINE
  8
0
 10
97.1170654296875
 20
18.588468551635742
 30
0.0
 11
97.22962188720703
 21
18.554325103759766
 31
0.0
  0
LINE
  8
0
 10
97.1170654296875
 20
18.588468551635742
 30
0.0
 11
97.00001525878906
 21
18.59999656677246
 31
0.0
  0
LINE
  8
0
 10
96.88296508789062
 20
18.588468551635742
 30
0.0
 11
97.00001525878906
 21
18.59999656677246
 31
0.0
  0
LINE
  8
0
 10
96.88296508789062
 20
18.588468551635742
 30
0.0
 11
96.7704086303711
 21
18.554325103759766
 31
0.0
  0
LINE
  8
0
 10
96.66667175292969
 20
18.49888038635254
 30
0.0
 11
96.7704086303711
 21
18.554325103759766
 31
0.0
  0
LINE
  8
0
 10
96.66667175292969
 20
18.49888038635254
 30
0.0
 11
96.57575225830078
 21
18.42426300048828
 31
0.0
  0
LINE
  8
0
 10
96.50113677978516
 20
18.33333969116211
 30
0.0
 11
96.57575225830078
 21
18.42426300048828
 31
0.0
  0
LINE
  8
0
 10
96.50113677978516
 20
18.33333969116211
 30
0.0
 11
96.44568634033203
 21
18.2296085357666
 31
0.0
  0
LINE
  8
0
 10
96.41154479980469
 20
18.11705207824707
 30
0.0
 11
96.44568634033203
 21
18.2296085357666
 31
0.0
  0
LINE
  8
0
 10
96.40000915527344
 20
17.999998092651367
 30
0.0
 11
96.41154479980469
 21
18.11705207824707
 31
0.0
  0
LINE
  8
0
 10
96.40000915527344
 20
17.999998092651367
 30
0.0
 11
96.41154479980469
 21
17.88294219970703
 31
0.0
  0
LINE
  8
0
 10
96.41154479980469
 20
17.88294219970703
 30
0.0
 11
96.44568634033203
 21
17.770387649536133
 31
0.0
  0
LINE
  8
0
 10
96.50113677978516
 20
17.666656494140625
 30
0.0
 11
96.44568634033203
 21
17.770387649536133
 31
0.0
  0
LINE
  8
0
 10
96.50113677978516
 20
17.666656494140625
 30
0.0
 11
96.57575225830078
 21
17.575733184814453
 31
0.0
  0
LINE
  8
0
 10
96.57575225830078
 20
17.575733184814453
 30
0.0
 11
96.66667175292969
 21
17.501115798950195
 31
0.0
  0
LINE
  8
0
 10
96.66667175292969
 20
17.501115798950195
 30
0.0
 11
96.7704086303711
 21
17.445669174194336
 31
0.0
  0
LINE
  8
0
 10
96.7704086303711
 20
17.445669174194336
 30
0.0
 11
96.88296508789062
 21
17.411527633666992
 31
0.0
  0
LINE
  8
0
 10
96.88296508789062
 20
17.411527633666992
 30
0.0
 11
97.00001525878906
 21
17.39999771118164
 31
0.0
  0
LINE
  8
0
 10
96.88296508789062
 20
-17.911529541015625
 30
0.0
 11
97.00001525878906
 21
-17.899999618530273
 31
0.0
  0
LINE
  8
0
 10
96.7704086303711
 20
-17.94567108154297
 30
0.0
 11
96.88296508789062
 21
-17.911529541015625
 31
0.0
  0
LINE
  8
0
 10
96.66667175292969
 20
-18.001117706298828
 30
0.0
 11
96.7704086303711
 21
-17.94567108154297
 31
0.0
  0
LINE
  8
0
 10
96.57575225830078
 20
-18.07573699951172
 30
0.0
 11
96.66667175292969
 21
-18.001117706298828
 31
0.0
  0
LINE
  8
0
 10
96.50113677978516
 20
-18.166658401489258
 30
0.0
 11
96.57575225830078
 21
-18.07573699951172
 31
0.0
  0
LINE
  8
0
 10
96.50113677978516
 20
-18.166658401489258
 30
0.0
 11
96.44568634033203
 21
-18.2703914642334
 31
0.0
  0
LINE
  8
0
 10
96.41154479980469
 20
-18.382946014404297
 30
0.0
 11
96.44568634033203
 21
-18.2703914642334
 31
0.0
  0
LINE
  8
0
 10
96.40000915527344
 20
-18.5
 30
0.0
 11
96.41154479980469
 21
-18.382946014404297
 31
0.0
  0
LINE
  8
0
 10
96.40000915527344
 20
-18.5
 30
0.0
 11
96.41154479980469
 21
-18.617053985595703
 31
0.0
  0
LINE
  8
0
 10
96.41154479980469
 20
-18.617053985595703
 30
0.0
 11
96.44568634033203
 21
-18.7296085357666
 31
0.0
  0
LINE
  8
0
 10
96.44568634033203
 20
-18.7296085357666
 30
0.0
 11
96.50113677978516
 21
-18.833341598510742
 31
0.0
  0
LINE
  8
0
 10
96.50113677978516
 20
-18.833341598510742
 30
0.0
 11
96.57575225830078
 21
-18.92426300048828
 31
0.0
  0
LINE
  8
0
 10
96.57575225830078
 20
-18.92426300048828
 30
0.0
 11
96.66667175292969
 21
-18.998882293701172
 31
0.0
  0
LINE
  8
0
 10
96.66667175292969
 20
-18.998882293701172
 30
0.0
 11
96.7704086303711
 21
-19.05432891845703
 31
0.0
  0
LINE
  8
0
 10
96.88296508789062
 20
-19.088470458984375
 30
0.0
 11
96.7704086303711
 21
-19.05432891845703
 31
0.0
  0
LINE
  8
0
 10
96.88296508789062
 20
-19.088470458984375
 30
0.0
 11
97.00001525878906
 21
-19.10000228881836
 31
0.0
  0
LINE
  8
0
 10
97.1170654296875
 20
-19.088470458984375
 30
0.0
 11
97.00001525878906
 21
-19.10000228881836
 31
0.0
  0
LINE
  8
0
 10
97.1170654296875
 20
-19.088470458984375
 30
0.0
 11
97.22962188720703
 21
-19.05432891845703
 31
0.0
  0
LINE
  8
0
 10
97.33335876464844
 20
-18.998882293701172
 30
0.0
 11
97.22962188720703
 21
-19.05432891845703
 31
0.0
  0
LINE
  8
0
 10
97.33335876464844
 20
18.49888038635254
 30
0.0
 11
97.42427825927734
 21
18.42426300048828
 31
0.0
  0
LINE
  8
0
 10
97.49889373779297
 20
-18.833341598510742
 30
0.0
 11
97.42427825927734
 21
-18.92426300048828
 31
0.0
  0
LINE
  8
0
 10
97.49889373779297
 20
-18.833341598510742
 30
0.0
 11
97.5543441772461
 21
-18.7296085357666
 31
0.0
  0
LINE
  8
0
 10
97.58848571777344
 20
-18.617053985595703
 30
0.0
 11
97.5543441772461
 21
-18.7296085357666
 31
0.0
  0
LINE
  8
0
 10
97.60002136230469
 20
-18.5
 30
0.0
 11
97.58848571777344
 21
-18.617053985595703
 31
0.0
  0
LINE
  8
0
 10
97.60002136230469
 20
-18.5
 30
0.0
 11
97.58848571777344
 21
-18.382946014404297
 31
0.0
  0
LINE
  8
0
 10
97.58848571777344
 20
-18.382946014404297
 30
0.0
 11
97.5543441772461
 21
-18.2703914642334
 31
0.0
  0
LINE
  8
0
 10
97.49889373779297
 20
-18.166658401489258
 30
0.0
 11
97.5543441772461
 21
-18.2703914642334
 31
0.0
  0
LINE
  8
0
 10
97.42427825927734
 20
-18.07573699951172
 30
0.0
 11
97.49889373779297
 21
-18.166658401489258
 31
0.0
  0
LINE
  8
0
 10
97.33335876464844
 20
-18.001117706298828
 30
0.0
 11
97.42427825927734
 21
-18.07573699951172
 31
0.0
  0
LINE
  8
0
 10
97.22962188720703
 20
-17.94567108154297
 30
0.0
 11
97.33335876464844
 21
-18.001117706298828
 31
0.0
  0
LINE
  8
0
 10
97.1170654296875
 20
-17.911529541015625
 30
0.0
 11
97.22962188720703
 21
-17.94567108154297
 31
0.0
  0
LINE
  8
0
 10
97.00001525878906
 20
-17.899999618530273
 30
0.0
 11
97.1170654296875
 21
-17.911529541015625
 31
0.0
  0
LINE
  8
0
 10
97.00001525878906
 20
17.39999771118164
 30
0.0
 11
97.1170654296875
 21
17.411527633666992
 31
0.0
  0
LINE
  8
0
 10
97.1170654296875
 20
17.411527633666992
 30
0.0
 11
97.22962188720703
 21
17.445669174194336
 31
0.0
  0
LINE
  8
0
 10
97.22962188720703
 20
17.445669174194336
 30
0.0
 11
97.33335876464844
 21
17.501115798950195
 31
0.0
  0
LINE
  8
0
 10
97.42427825927734
 20
17.575733184814453
 30
0.0
 11
97.33335876464844
 21
17.501115798950195
 31
0.0
  0
LINE
  8
0
 10
97.42427825927734
 20
17.575733184814453
 30
0.0
 11
97.49889373779297
 21
17.666656494140625
 31
0.0
  0
LINE
  8
0
 10
97.49889373779297
 20
17.666656494140625
 30
0.0
 11
97.5543441772461
 21
17.770387649536133
 31
0.0
  0
LINE
  8
0
 10
97.58848571777344
 20
17.88294219970703
 30
0.0
 11
97.5543441772461
 21
17.770387649536133
 31
0.0
  0
LINE
  8
0
 10
97.60002136230469
 20
17.999998092651367
 30
0.0
 11
97.58848571777344
 21
17.88294219970703
 31
0.0
  0
LINE
  8
0
 10
97.60002136230469
 20
17.999998092651367
 30
0.0
 11
97.58848571777344
 21
18.11705207824707
 31
0.0
  0
LINE
  8
0
 10
97.58848571777344
 20
18.11705207824707
 30
0.0
 11
97.5543441772461
 21
18.2296085357666
 31
0.0
  0
LINE
  8
0
 10
97.49889373779297
 20
18.33333969116211
 30
0.0
 11
97.5543441772461
 21
18.2296085357666
 31
0.0
  0
LINE
  8
0
 10
97.49889373779297
 20
18.33333969116211
 30
0.0
 11
97.42427825927734
 21
18.42426300048828
 31
0.0
  0
LINE
  8
0
 10
48.50113296508789
 20
-18.833341598510742
 30
0.0
 11
48.57575225830078
 21
-18.92426300048828
 31
0.0
  0
LINE
  8
0
 10
48.66667556762695
 20
18.49888038635254
 30
0.0
 11
48.57575225830078
 21
18.42426300048828
 31
0.0
  0
LINE
  8
0
 10
48.50113296508789
 20
18.33333969116211
 30
0.0
 11
48.57575225830078
 21
18.42426300048828
 31
0.0
  0
LINE
  8
0
 10
48.50113296508789
 20
18.33333969116211
 30
0.0
 11
48.4456901550293
 21
18.2296085357666
 31
0.0
  0
LINE
  8
0
 10
48.41154479980469
 20
18.11705207824707
 30
0.0
 11
48.4456901550293
 21
18.2296085357666
 31
0.0
  0
LINE
  8
0
 10
48.4000129699707
 20
17.999998092651367
 30
0.0
 11
48.41154479980469
 21
18.11705207824707
 31
0.0
  0
LINE
  8
0
 10
48.4000129699707
 20
17.999998092651367
 30
0.0
 11
48.41154479980469
 21
17.88294219970703
 31
0.0
  0
LINE
  8
0
 10
48.41154479980469
 20
17.88294219970703
 30
0.0
 11
48.4456901550293
 21
17.770387649536133
 31
0.0
  0
LINE
  8
0
 10
48.50113296508789
 20
17.666656494140625
 30
0.0
 11
48.4456901550293
 21
17.770387649536133
 31
0.0
  0
LINE
  8
0
 10
48.50113296508789
 20
17.666656494140625
 30
0.0
 11
48.57575225830078
 21
17.575733184814453
 31
0.0
  0
LINE
  8
0
 10
48.57575225830078
 20
17.575733184814453
 30
0.0
 11
48.66667556762695
 21
17.501115798950195
 31
0.0
  0
LINE
  8
0
 10
48.66667556762695
 20
17.501115798950195
 30
0.0
 11
48.77040481567383
 21
17.445669174194336
 31
0.0
  0
LINE
  8
0
 10
48.77040481567383
 20
17.445669174194336
 30
0.0
 11
48.88296127319336
 21
17.411527633666992
 31
0.0
  0
LINE
  8
0
 10
48.88296127319336
 20
17.411527633666992
 30
0.0
 11
49.00001525878906
 21
17.39999771118164
 31
0.0
  0
LINE
  8
0
 10
48.88296127319336
 20
-17.911529541015625
 30
0.0
 11
49.00001525878906
 21
-17.899999618530273
 31
0.0
  0
LINE
  8
0
 10
48.77040481567383
 20
-17.94567108154297
 30
0.0
 11
48.88296127319336
 21
-17.911529541015625
 31
0.0
  0
LINE
  8
0
 10
48.66667556762695
 20
-18.001117706298828
 30
0.0
 11
48.77040481567383
 21
-17.94567108154297
 31
0.0
  0
LINE
  8
0
 10
48.57575225830078
 20
-18.07573699951172
 30
0.0
 11
48.66667556762695
 21
-18.001117706298828
 31
0.0
  0
LINE
  8
0
 10
48.50113296508789
 20
-18.166658401489258
 30
0.0
 11
48.57575225830078
 21
-18.07573699951172
 31
0.0
  0
LINE
  8
0
 10
48.50113296508789
 20
-18.166658401489258
 30
0.0
 11
48.4456901550293
 21
-18.2703914642334
 31
0.0
  0
LINE
  8
0
 10
48.41154479980469
 20
-18.382946014404297
 30
0.0
 11
48.4456901550293
 21
-18.2703914642334
 31
0.0
  0
LINE
  8
0
 10
48.4000129699707
 20
-18.5
 30
0.0
 11
48.41154479980469
 21
-18.382946014404297
 31
0.0
  0
LINE
  8
0
 10
48.4000129699707
 20
-18.5
 30
0.0
 11
48.41154479980469
 21
-18.617053985595703
 31
0.0
  0
LINE
  8
0
 10
48.41154479980469
 20
-18.617053985595703
 30
0.0
 11
48.4456901550293
 21
-18.7296085357666
 31
0.0
  0
LINE
  8
0
 10
48.50113296508789
 20
-18.833341598510742
 30
0.0
 11
48.4456901550293
 21
-18.7296085357666
 31
0.0
  0
LINE
  8
0
 10
99.99999237060547
 20
-46.000003814697266
 30
0.0
 11
105.99999237060547
 21
-46.000003814697266
 31
0.0
  0
LINE
  8
0
 10
105.99999237060547
 20
-23.000001907348633
 30
0.0
 11
99.99999237060547
 21
-23.000001907348633
 31
0.0
  0
LINE
  8
0
 10
99.99999237060547
 20
-46.000003814697266
 30
0.0
 11
99.99999237060547
 21
-44.00000762939453
 31
0.0
  0
LINE
  8
0
 10
105.99999237060547
 20
-46.000003814697266
 30
0.0
 11
105.99999237060547
 21
-44.00000762939453
 31
0.0
  0
LINE
  8
0
 10
91.5
 20
-31.5
 30
0.0
 11
91.5
 21
-37.50000762939453
 31
0.0
  0
LINE
  8
0
 10
114.5
 20
-37.50000762939453
 30
0.0
 11
114.5
 21
-31.5
 31
0.0
  0
LINE
  8
0
 10
93.49999237060547
 20
-25.000003814697266
 30
0.0
 11
93.49999237060547
 21
-31.5
 31
0.0
  0
LINE
  8
0
 10
93.49999237060547
 20
-37.50000762939453
 30
0.0
 11
93.49999237060547
 21
-44.00000762939453
 31
0.0
  0
LINE
  8
0
 10
99.99999237060547
 20
-23.000001907348633
 30
0.0
 11
99.99999237060547
 21
-25.0
 31
0.0
  0
LINE
  8
0
 10
105.99999237060547
 20
-23.000001907348633
 30
0.0
 11
105.99999237060547
 21
-25.0
 31
0.0
  0
LINE
  8
0
 10
112.5
 20
-25.0
 30
0.0
 11
112.5
 21
-31.5
 31
0.0
  0
LINE
  8
0
 10
112.5
 20
-37.50000762939453
 30
0.0
 11
112.5
 21
-44.000003814697266
 31
0.0
  0
LINE
  8
0
 10
105.99999237060547
 20
-44.00000762939453
 30
0.0
 11
112.5
 21
-44.000003814697266
 31
0.0
  0
LINE
  8
0
 10
105.99999237060547
 20
-25.0
 30
0.0
 11
112.5
 21
-25.0
 31
0.0
  0
LINE
  8
0
 10
93.49999237060547
 20
-44.00000762939453
 30
0.0
 11
99.99999237060547
 21
-44.00000762939453
 31
0.0
  0
LINE
  8
0
 10
93.49999237060547
 20
-25.000003814697266
 30
0.0
 11
99.99999237060547
 21
-25.0
 31
0.0
  0
LINE
  8
0
 10
91.5
 20
-37.50000762939453
 30
0.0
 11
93.49999237060547
 21
-37.50000762939453
 31
0.0
  0
LINE
  8
0
 10
91.5
 20
-31.5
 30
0.0
 11
93.49999237060547
 21
-31.5
 31
0.0
  0
LINE
  8
0
 10
114.5
 20
-37.50000762939453
 30
0.0
 11
112.5
 21
-37.50000762939453
 31
0.0
  0
LINE
  8
0
 10
114.5
 20
-31.5
 30
0.0
 11
112.5
 21
-31.5
 31
0.0
  0
LINE
  8
0
 10
19.999998092651367
 20
-53.9999885559082
 30
0.0
 11
-50.5
 21
-53.9999885559082
 31
0.0
  0
LINE
  8
0
 10
-50.5
 20
-53.9999885559082
 30
0.0
 11
-50.5
 21
-43.9999885559082
 31
0.0
  0
LINE
  8
0
 10
19.999998092651367
 20
-43.9999885559082
 30
0.0
 11
-50.5
 21
-43.9999885559082
 31
0.0
  0
LINE
  8
0
 10
19.999998092651367
 20
-53.9999885559082
 30
0.0
 11
19.999998092651367
 21
-43.9999885559082
 31
0.0
  0
LINE
  8
0
 10
-43.99888610839844
 20
-49.33333206176758
 30
0.0
 11
-44.0543327331543
 21
-49.2296028137207
 31
0.0
  0
LINE
  8
0
 10
-43.99888610839844
 20
-48.666648864746094
 30
0.0
 11
-44.0543327331543
 21
-48.77037811279297
 31
0.0
  0
LINE
  8
0
 10
-44.08847427368164
 20
-48.882938385009766
 30
0.0
 11
-44.0543327331543
 21
-48.77037811279297
 31
0.0
  0
LINE
  8
0
 10
-44.08847427368164
 20
-48.882938385009766
 30
0.0
 11
-44.100006103515625
 21
-48.9999885559082
 31
0.0
  0
LINE
  8
0
 10
-44.08847427368164
 20
-49.117042541503906
 30
0.0
 11
-44.100006103515625
 21
-48.9999885559082
 31
0.0
  0
LINE
  8
0
 10
-44.08847427368164
 20
-49.117042541503906
 30
0.0
 11
-44.0543327331543
 21
-49.2296028137207
 31
0.0
  0
LINE
  8
0
 10
-43.99888610839844
 20
-48.666648864746094
 30
0.0
 11
-43.92426681518555
 21
-48.57572555541992
 31
0.0
  0
LINE
  8
0
 10
10.998884201049805
 20
-48.666648864746094
 30
0.0
 11
11.054333686828613
 21
-48.77037811279297
 31
0.0
  0
LINE
  8
0
 10
10.998884201049805
 20
-48.666648864746094
 30
0.0
 11
10.924270629882812
 21
-48.575721740722656
 31
0.0
  0
LINE
  8
0
 10
10.83335018157959
 20
-48.50110626220703
 30
0.0
 11
10.924270629882812
 21
-48.575721740722656
 31
0.0
  0
LINE
  8
0
 10
10.83335018157959
 20
-48.50110626220703
 30
0.0
 11
10.7296142578125
 21
-48.44565963745117
 31
0.0
  0
LINE
  8
0
 10
10.617056846618652
 20
-48.41151428222656
 30
0.0
 11
10.7296142578125
 21
-48.44565963745117
 31
0.0
  0
LINE
  8
0
 10
10.500004768371582
 20
-48.399986267089844
 30
0.0
 11
10.617056846618652
 21
-48.41151428222656
 31
0.0
  0
LINE
  8
0
 10
10.500004768371582
 20
-48.399986267089844
 30
0.0
 11
10.382953643798828
 21
-48.41151428222656
 31
0.0
  0
LINE
  8
0
 10
10.382953643798828
 20
-48.41151428222656
 30
0.0
 11
10.27039623260498
 21
-48.44565963745117
 31
0.0
  0
LINE
  8
0
 10
10.16666030883789
 20
-48.50110626220703
 30
0.0
 11
10.27039623260498
 21
-48.44565963745117
 31
0.0
  0
LINE
  8
0
 10
10.16666030883789
 20
-48.50110626220703
 30
0.0
 11
10.075738906860352
 21
-48.575721740722656
 31
0.0
  0
LINE
  8
0
 10
10.001126289367676
 20
-48.666648864746094
 30
0.0
 11
10.075738906860352
 21
-48.575721740722656
 31
0.0
  0
LINE
  8
0
 10
10.001126289367676
 20
-48.666648864746094
 30
0.0
 11
9.94567584991455
 21
-48.77037811279297
 31
0.0
  0
LINE
  8
0
 10
9.911534309387207
 20
-48.8829345703125
 30
0.0
 11
9.94567584991455
 21
-48.77037811279297
 31
0.0
  0
LINE
  8
0
 10
9.911534309387207
 20
-48.8829345703125
 30
0.0
 11
9.900006294250488
 21
-48.9999885559082
 31
0.0
  0
LINE
  8
0
 10
9.911534309387207
 20
-49.117042541503906
 30
0.0
 11
9.900006294250488
 21
-48.9999885559082
 31
0.0
  0
LINE
  8
0
 10
9.911534309387207
 20
-49.117042541503906
 30
0.0
 11
9.94567584991455
 21
-49.22959899902344
 31
0.0
  0
LINE
  8
0
 10
10.001126289367676
 20
-49.33333206176758
 30
0.0
 11
9.94567584991455
 21
-49.22959899902344
 31
0.0
  0
LINE
  8
0
 10
10.001126289367676
 20
-49.33333206176758
 30
0.0
 11
10.075738906860352
 21
-49.424251556396484
 31
0.0
  0
LINE
  8
0
 10
10.16666030883789
 20
-49.498870849609375
 30
0.0
 11
10.075738906860352
 21
-49.424251556396484
 31
0.0
  0
LINE
  8
0
 10
10.16666030883789
 20
-49.498870849609375
 30
0.0
 11
10.27039623260498
 21
-49.55431365966797
 31
0.0
  0
LINE
  8
0
 10
10.382953643798828
 20
-49.58845901489258
 30
0.0
 11
10.27039623260498
 21
-49.55431365966797
 31
0.0
  0
LINE
  8
0
 10
10.500004768371582
 20
-49.5999870300293
 30
0.0
 11
10.382953643798828
 21
-49.58845901489258
 31
0.0
  0
LINE
  8
0
 10
10.500004768371582
 20
-49.5999870300293
 30
0.0
 11
10.617056846618652
 21
-49.58845901489258
 31
0.0
  0
LINE
  8
0
 10
10.617056846618652
 20
-49.58845901489258
 30
0.0
 11
10.7296142578125
 21
-49.55431365966797
 31
0.0
  0
LINE
  8
0
 10
10.7296142578125
 20
-49.55431365966797
 30
0.0
 11
10.83335018157959
 21
-49.498870849609375
 31
0.0
  0
LINE
  8
0
 10
10.83335018157959
 20
-49.498870849609375
 30
0.0
 11
10.924270629882812
 21
-49.424251556396484
 31
0.0
  0
LINE
  8
0
 10
10.924270629882812
 20
-49.424251556396484
 30
0.0
 11
10.998884201049805
 21
-49.33333206176758
 31
0.0
  0
LINE
  8
0
 10
11.054333686828613
 20
-49.22959899902344
 30
0.0
 11
10.998884201049805
 21
-49.33333206176758
 31
0.0
  0
LINE
  8
0
 10
-43.99888610839844
 20
-49.33333206176758
 30
0.0
 11
-43.92426681518555
 21
-49.42425537109375
 31
0.0
  0
LINE
  8
0
 10
-43.833343505859375
 20
-49.498870849609375
 30
0.0
 11
-43.92426681518555
 21
-49.42425537109375
 31
0.0
  0
LINE
  8
0
 10
-43.833343505859375
 20
-49.498870849609375
 30
0.0
 11
-43.729610443115234
 21
-49.554317474365234
 31
0.0
  0
LINE
  8
0
 10
-43.61705780029297
 20
-49.588462829589844
 30
0.0
 11
-43.729610443115234
 21
-49.554317474365234
 31
0.0
  0
LINE
  8
0
 10
-43.500003814697266
 20
-49.59999084472656
 30
0.0
 11
-43.61705780029297
 21
-49.588462829589844
 31
0.0
  0
LINE
  8
0
 10
-43.500003814697266
 20
-49.59999084472656
 30
0.0
 11
-43.38294982910156
 21
-49.588462829589844
 31
0.0
  0
LINE
  8
0
 10
-43.38294982910156
 20
-49.588462829589844
 30
0.0
 11
-43.27039337158203
 21
-49.554317474365234
 31
0.0
  0
LINE
  8
0
 10
-43.16666030883789
 20
-49.498870849609375
 30
0.0
 11
-43.27039337158203
 21
-49.554317474365234
 31
0.0
  0
LINE
  8
0
 10
-43.16666030883789
 20
-49.498870849609375
 30
0.0
 11
-43.075740814208984
 21
-49.42425537109375
 31
0.0
  0
LINE
  8
0
 10
-43.001121520996094
 20
-49.33333206176758
 30
0.0
 11
-43.075740814208984
 21
-49.42425537109375
 31
0.0
  0
LINE
  8
0
 10
-43.001121520996094
 20
-49.33333206176758
 30
0.0
 11
-42.945674896240234
 21
-49.2296028137207
 31
0.0
  0
LINE
  8
0
 10
-42.91153335571289
 20
-49.117042541503906
 30
0.0
 11
-42.945674896240234
 21
-49.2296028137207
 31
0.0
  0
LINE
  8
0
 10
-42.91153335571289
 20
-49.117042541503906
 30
0.0
 11
-42.900001525878906
 21
-48.9999885559082
 31
0.0
  0
LINE
  8
0
 10
-42.91153335571289
 20
-48.882938385009766
 30
0.0
 11
-42.900001525878906
 21
-48.9999885559082
 31
0.0
  0
LINE
  8
0
 10
-42.91153335571289
 20
-48.882938385009766
 30
0.0
 11
-42.945674896240234
 21
-48.77037811279297
 31
0.0
  0
LINE
  8
0
 10
-43.001121520996094
 20
-48.666648864746094
 30
0.0
 11
-42.945674896240234
 21
-48.77037811279297
 31
0.0
  0
LINE
  8
0
 10
-43.001121520996094
 20
-48.666648864746094
 30
0.0
 11
-43.075740814208984
 21
-48.57572555541992
 31
0.0
  0
LINE
  8
0
 10
-43.16666030883789
 20
-48.50110626220703
 30
0.0
 11
-43.075740814208984
 21
-48.57572555541992
 31
0.0
  0
LINE
  8
0
 10
-43.16666030883789
 20
-48.50110626220703
 30
0.0
 11
-43.27039337158203
 21
-48.44566345214844
 31
0.0
  0
LINE
  8
0
 10
-43.38294982910156
 20
-48.41151809692383
 30
0.0
 11
-43.27039337158203
 21
-48.44566345214844
 31
0.0
  0
LINE
  8
0
 10
-43.500003814697266
 20
-48.39999008178711
 30
0.0
 11
-43.38294982910156
 21
-48.41151809692383
 31
0.0
  0
LINE
  8
0
 10
-43.500003814697266
 20
-48.39999008178711
 30
0.0
 11
-43.61705780029297
 21
-48.41151809692383
 31
0.0
  0
LINE
  8
0
 10
-43.61705780029297
 20
-48.41151809692383
 30
0.0
 11
-43.729610443115234
 21
-48.44566345214844
 31
0.0
  0
LINE
  8
0
 10
-43.833343505859375
 20
-48.50110626220703
 30
0.0
 11
-43.729610443115234
 21
-48.44566345214844
 31
0.0
  0
LINE
  8
0
 10
-43.833343505859375
 20
-48.50110626220703
 30
0.0
 11
-43.92426681518555
 21
-48.57572555541992
 31
0.0
  0
LINE
  8
0
 10
11.088475227355957
 20
-48.8829345703125
 30
0.0
 11
11.054333686828613
 21
-48.77037811279297
 31
0.0
  0
LINE
  8
0
 10
11.088475227355957
 20
-49.117042541503906
 30
0.0
 11
11.054333686828613
 21
-49.22959899902344
 31
0.0
  0
LINE
  8
0
 10
11.088475227355957
 20
-49.117042541503906
 30
0.0
 11
11.100003242492676
 21
-48.9999885559082
 31
0.0
  0
LINE
  8
0
 10
11.088475227355957
 20
-48.8829345703125
 30
0.0
 11
11.100003242492676
 21
-48.9999885559082
 31
0.0
  0
LINE
  8
0
 10
19.999998092651367
 20
-43.50004959106445
 30
0.0
 11
-50.5
 21
-43.50004959106445
 31
0.0
  0
LINE
  8
0
 10
-50.5
 20
-43.50004959106445
 30
0.0
 11
-50.5
 21
-33.50004577636719
 31
0.0
  0
LINE
  8
0
 10
19.999998092651367
 20
-33.50004577636719
 30
0.0
 11
-50.5
 21
-33.50004577636719
 31
0.0
  0
LINE
  8
0
 10
19.999998092651367
 20
-43.50004959106445
 30
0.0
 11
19.999998092651367
 21
-33.50004577636719
 31
0.0
  0
LINE
  8
0
 10
-43.99888610839844
 20
-38.83338928222656
 30
0.0
 11
-44.0543327331543
 21
-38.72966003417969
 31
0.0
  0
LINE
  8
0
 10
-43.99888610839844
 20
-38.16670608520508
 30
0.0
 11
-44.0543327331543
 21
-38.27043914794922
 31
0.0
  0
LINE
  8
0
 10
-44.08847427368164
 20
-38.38299560546875
 30
0.0
 11
-44.0543327331543
 21
-38.27043914794922
 31
0.0
  0
LINE
  8
0
 10
-44.08847427368164
 20
-38.38299560546875
 30
0.0
 11
-44.100006103515625
 21
-38.50004577636719
 31
0.0
  0
LINE
  8
0
 10
-44.08847427368164
 20
-38.61709976196289
 30
0.0
 11
-44.100006103515625
 21
-38.50004577636719
 31
0.0
  0
LINE
  8
0
 10
-44.08847427368164
 20
-38.61709976196289
 30
0.0
 11
-44.0543327331543
 21
-38.72966003417969
 31
0.0
  0
LINE
  8
0
 10
-43.99888610839844
 20
-38.16670608520508
 30
0.0
 11
-43.92426681518555
 21
-38.075782775878906
 31
0.0
  0
LINE
  8
0
 10
10.998884201049805
 20
-38.16670608520508
 30
0.0
 11
11.054333686828613
 21
-38.27043533325195
 31
0.0
  0
LINE
  8
0
 10
10.998884201049805
 20
-38.16670608520508
 30
0.0
 11
10.924270629882812
 21
-38.075782775878906
 31
0.0
  0
LINE
  8
0
 10
10.83335018157959
 20
-38.001163482666016
 30
0.0
 11
10.924270629882812
 21
-38.075782775878906
 31
0.0
  0
LINE
  8
0
 10
10.83335018157959
 20
-38.001163482666016
 30
0.0
 11
10.7296142578125
 21
-37.945716857910156
 31
0.0
  0
LINE
  8
0
 10
10.617056846618652
 20
-37.91157150268555
 30
0.0
 11
10.7296142578125
 21
-37.945716857910156
 31
0.0
  0
LINE
  8
0
 10
10.500004768371582
 20
-37.900047302246094
 30
0.0
 11
10.617056846618652
 21
-37.91157150268555
 31
0.0
  0
LINE
  8
0
 10
10.500004768371582
 20
-37.900047302246094
 30
0.0
 11
10.382953643798828
 21
-37.91157150268555
 31
0.0
  0
LINE
  8
0
 10
10.382953643798828
 20
-37.91157150268555
 30
0.0
 11
10.27039623260498
 21
-37.945716857910156
 31
0.0
  0
LINE
  8
0
 10
10.16666030883789
 20
-38.001163482666016
 30
0.0
 11
10.27039623260498
 21
-37.945716857910156
 31
0.0
  0
LINE
  8
0
 10
10.16666030883789
 20
-38.001163482666016
 30
0.0
 11
10.075738906860352
 21
-38.075782775878906
 31
0.0
  0
LINE
  8
0
 10
10.001126289367676
 20
-38.16670608520508
 30
0.0
 11
10.075738906860352
 21
-38.075782775878906
 31
0.0
  0
LINE
  8
0
 10
10.001126289367676
 20
-38.16670608520508
 30
0.0
 11
9.94567584991455
 21
-38.27043533325195
 31
0.0
  0
LINE
  8
0
 10
9.911534309387207
 20
-38.382991790771484
 30
0.0
 11
9.94567584991455
 21
-38.27043533325195
 31
0.0
  0
LINE
  8
0
 10
9.911534309387207
 20
-38.382991790771484
 30
0.0
 11
9.900006294250488
 21
-38.50004577636719
 31
0.0
  0
LINE
  8
0
 10
9.911534309387207
 20
-38.61709976196289
 30
0.0
 11
9.900006294250488
 21
-38.50004577636719
 31
0.0
  0
LINE
  8
0
 10
9.911534309387207
 20
-38.61709976196289
 30
0.0
 11
9.94567584991455
 21
-38.72965621948242
 31
0.0
  0
LINE
  8
0
 10
10.001126289367676
 20
-38.83338928222656
 30
0.0
 11
9.94567584991455
 21
-38.72965621948242
 31
0.0
  0
LINE
  8
0
 10
10.001126289367676
 20
-38.83338928222656
 30
0.0
 11
10.075738906860352
 21
-38.92430877685547
 31
0.0
  0
LINE
  8
0
 10
10.16666030883789
 20
-38.99892807006836
 30
0.0
 11
10.075738906860352
 21
-38.92430877685547
 31
0.0
  0
LINE
  8
0
 10
10.16666030883789
 20
-38.99892807006836
 30
0.0
 11
10.27039623260498
 21
-39.05437469482422
 31
0.0
  0
LINE
  8
0
 10
10.382953643798828
 20
-39.08851623535156
 30
0.0
 11
10.27039623260498
 21
-39.05437469482422
 31
0.0
  0
LINE
  8
0
 10
10.500004768371582
 20
-39.10004425048828
 30
0.0
 11
10.382953643798828
 21
-39.08851623535156
 31
0.0
  0
LINE
  8
0
 10
10.500004768371582
 20
-39.10004425048828
 30
0.0
 11
10.617056846618652
 21
-39.08851623535156
 31
0.0
  0
LINE
  8
0
 10
10.617056846618652
 20
-39.08851623535156
 30
0.0
 11
10.7296142578125
 21
-39.05437469482422
 31
0.0
  0
LINE
  8
0
 10
10.7296142578125
 20
-39.05437469482422
 30
0.0
 11
10.83335018157959
 21
-38.99892807006836
 31
0.0
  0
LINE
  8
0
 10
10.83335018157959
 20
-38.99892807006836
 30
0.0
 11
10.924270629882812
 21
-38.92430877685547
 31
0.0
  0
LINE
  8
0
 10
10.924270629882812
 20
-38.92430877685547
 30
0.0
 11
10.998884201049805
 21
-38.83338928222656
 31
0.0
  0
LINE
  8
0
 10
11.054333686828613
 20
-38.72965621948242
 30
0.0
 11
10.998884201049805
 21
-38.83338928222656
 31
0.0
  0
LINE
  8
0
 10
-43.99888610839844
 20
-38.83338928222656
 30
0.0
 11
-43.92426681518555
 21
-38.924312591552734
 31
0.0
  0
LINE
  8
0
 10
-43.833343505859375
 20
-38.99892807006836
 30
0.0
 11
-43.92426681518555
 21
-38.924312591552734
 31
0.0
  0
LINE
  8
0
 10
-43.833343505859375
 20
-38.99892807006836
 30
0.0
 11
-43.729610443115234
 21
-39.05437469482422
 31
0.0
  0
LINE
  8
0
 10
-43.61705780029297
 20
-39.08852005004883
 30
0.0
 11
-43.729610443115234
 21
-39.05437469482422
 31
0.0
  0
LINE
  8
0
 10
-43.500003814697266
 20
-39.10004806518555
 30
0.0
 11
-43.61705780029297
 21
-39.08852005004883
 31
0.0
  0
LINE
  8
0
 10
-43.500003814697266
 20
-39.10004806518555
 30
0.0
 11
-43.38294982910156
 21
-39.08852005004883
 31
0.0
  0
LINE
  8
0
 10
-43.38294982910156
 20
-39.08852005004883
 30
0.0
 11
-43.27039337158203
 21
-39.05437469482422
 31
0.0
  0
LINE
  8
0
 10
-43.16666030883789
 20
-38.99892807006836
 30
0.0
 11
-43.27039337158203
 21
-39.05437469482422
 31
0.0
  0
LINE
  8
0
 10
-43.16666030883789
 20
-38.99892807006836
 30
0.0
 11
-43.075740814208984
 21
-38.924312591552734
 31
0.0
  0
LINE
  8
0
 10
-43.001121520996094
 20
-38.83338928222656
 30
0.0
 11
-43.075740814208984
 21
-38.924312591552734
 31
0.0
  0
LINE
  8
0
 10
-43.001121520996094
 20
-38.83338928222656
 30
0.0
 11
-42.945674896240234
 21
-38.72966003417969
 31
0.0
  0
LINE
  8
0
 10
-42.91153335571289
 20
-38.61709976196289
 30
0.0
 11
-42.945674896240234
 21
-38.72966003417969
 31
0.0
  0
LINE
  8
0
 10
-42.91153335571289
 20
-38.61709976196289
 30
0.0
 11
-42.900001525878906
 21
-38.50004577636719
 31
0.0
  0
LINE
  8
0
 10
-42.91153335571289
 20
-38.38299560546875
 30
0.0
 11
-42.900001525878906
 21
-38.50004577636719
 31
0.0
  0
LINE
  8
0
 10
-42.91153335571289
 20
-38.38299560546875
 30
0.0
 11
-42.945674896240234
 21
-38.27043914794922
 31
0.0
  0
LINE
  8
0
 10
-43.001121520996094
 20
-38.16670608520508
 30
0.0
 11
-42.945674896240234
 21
-38.27043914794922
 31
0.0
  0
LINE
  8
0
 10
-43.001121520996094
 20
-38.16670608520508
 30
0.0
 11
-43.075740814208984
 21
-38.075782775878906
 31
0.0
  0
LINE
  8
0
 10
-43.16666030883789
 20
-38.001163482666016
 30
0.0
 11
-43.075740814208984
 21
-38.075782775878906
 31
0.0
  0
LINE
  8
0
 10
-43.16666030883789
 20
-38.001163482666016
 30
0.0
 11
-43.27039337158203
 21
-37.94572067260742
 31
0.0
  0
LINE
  8
0
 10
-43.38294982910156
 20
-37.91157531738281
 30
0.0
 11
-43.27039337158203
 21
-37.94572067260742
 31
0.0
  0
LINE
  8
0
 10
-43.500003814697266
 20
-37.900047302246094
 30
0.0
 11
-43.38294982910156
 21
-37.91157531738281
 31
0.0
  0
LINE
  8
0
 10
-43.500003814697266
 20
-37.900047302246094
 30
0.0
 11
-43.61705780029297
 21
-37.91157531738281
 31
0.0
  0
LINE
  8
0
 10
-43.61705780029297
 20
-37.91157531738281
 30
0.0
 11
-43.729610443115234
 21
-37.94572067260742
 31
0.0
  0
LINE
  8
0
 10
-43.833343505859375
 20
-38.001163482666016
 30
0.0
 11
-43.729610443115234
 21
-37.94572067260742
 31
0.0
  0
LINE
  8
0
 10
-43.833343505859375
 20
-38.001163482666016
 30
0.0
 11
-43.92426681518555
 21
-38.075782775878906
 31
0.0
  0
LINE
  8
0
 10
11.088475227355957
 20
-38.382991790771484
 30
0.0
 11
11.054333686828613
 21
-38.27043533325195
 31
0.0
  0
LINE
  8
0
 10
11.088475227355957
 20
-38.61709976196289
 30
0.0
 11
11.054333686828613
 21
-38.72965621948242
 31
0.0
  0
LINE
  8
0
 10
11.088475227355957
 20
-38.61709976196289
 30
0.0
 11
11.100003242492676
 21
-38.50004577636719
 31
0.0
  0
LINE
  8
0
 10
11.088475227355957
 20
-38.382991790771484
 30
0.0
 11
11.100003242492676
 21
-38.50004577636719
 31
0.0
  0
LINE
  8
0
 10
19.999998092651367
 20
-33.0
 30
0.0
 11
-50.5
 21
-33.0
 31
0.0
  0
LINE
  8
0
 10
-50.5
 20
-33.0
 30
0.0
 11
-50.5
 21
-22.999998092651367
 31
0.0
  0
LINE
  8
0
 10
19.999998092651367
 20
-22.9999942779541
 30
0.0
 11
-50.5
 21
-22.999998092651367
 31
0.0
  0
LINE
  8
0
 10
19.999998092651367
 20
-33.0
 30
0.0
 11
19.999998092651367
 21
-22.9999942779541
 31
0.0
  0
LINE
  8
0
 10
-43.99888610839844
 20
-28.33333969116211
 30
0.0
 11
-44.0543327331543
 21
-28.2296085357666
 31
0.0
  0
LINE
  8
0
 10
-43.99888610839844
 20
-27.666654586791992
 30
0.0
 11
-44.0543327331543
 21
-27.770387649536133
 31
0.0
  0
LINE
  8
0
 10
-44.08847427368164
 20
-27.882946014404297
 30
0.0
 11
-44.0543327331543
 21
-27.770387649536133
 31
0.0
  0
LINE
  8
0
 10
-44.08847427368164
 20
-27.882946014404297
 30
0.0
 11
-44.100006103515625
 21
-27.999996185302734
 31
0.0
  0
LINE
  8
0
 10
-44.08847427368164
 20
-28.11705207824707
 30
0.0
 11
-44.100006103515625
 21
-27.999996185302734
 31
0.0
  0
LINE
  8
0
 10
-44.08847427368164
 20
-28.11705207824707
 30
0.0
 11
-44.0543327331543
 21
-28.2296085357666
 31
0.0
  0
LINE
  8
0
 10
-43.99888610839844
 20
-27.666654586791992
 30
0.0
 11
-43.92426681518555
 21
-27.575735092163086
 31
0.0
  0
LINE
  8
0
 10
10.998884201049805
 20
-27.666654586791992
 30
0.0
 11
11.054333686828613
 21
-27.7703857421875
 31
0.0
  0
LINE
  8
0
 10
10.998884201049805
 20
-27.666654586791992
 30
0.0
 11
10.924270629882812
 21
-27.57573127746582
 31
0.0
  0
LINE
  8
0
 10
10.83335018157959
 20
-27.501115798950195
 30
0.0
 11
10.924270629882812
 21
-27.57573127746582
 31
0.0
  0
LINE
  8
0
 10
10.83335018157959
 20
-27.501115798950195
 30
0.0
 11
10.7296142578125
 21
-27.445667266845703
 31
0.0
  0
LINE
  8
0
 10
10.617056846618652
 20
-27.411523818969727
 30
0.0
 11
10.7296142578125
 21
-27.445667266845703
 31
0.0
  0
LINE
  8
0
 10
10.500004768371582
 20
-27.399995803833008
 30
0.0
 11
10.617056846618652
 21
-27.411523818969727
 31
0.0
  0
LINE
  8
0
 10
10.500004768371582
 20
-27.399995803833008
 30
0.0
 11
10.382953643798828
 21
-27.411523818969727
 31
0.0
  0
LINE
  8
0
 10
10.382953643798828
 20
-27.411523818969727
 30
0.0
 11
10.27039623260498
 21
-27.445667266845703
 31
0.0
  0
LINE
  8
0
 10
10.16666030883789
 20
-27.501115798950195
 30
0.0
 11
10.27039623260498
 21
-27.445667266845703
 31
0.0
  0
LINE
  8
0
 10
10.16666030883789
 20
-27.501115798950195
 30
0.0
 11
10.075738906860352
 21
-27.57573127746582
 31
0.0
  0
LINE
  8
0
 10
10.001126289367676
 20
-27.666654586791992
 30
0.0
 11
10.075738906860352
 21
-27.57573127746582
 31
0.0
  0
LINE
  8
0
 10
10.001126289367676
 20
-27.666654586791992
 30
0.0
 11
9.94567584991455
 21
-27.7703857421875
 31
0.0
  0
LINE
  8
0
 10
9.911534309387207
 20
-27.88294219970703
 30
0.0
 11
9.94567584991455
 21
-27.7703857421875
 31
0.0
  0
LINE
  8
0
 10
9.911534309387207
 20
-27.88294219970703
 30
0.0
 11
9.900006294250488
 21
-27.999996185302734
 31
0.0
  0
LINE
  8
0
 10
9.911534309387207
 20
-28.11705207824707
 30
0.0
 11
9.900006294250488
 21
-27.999996185302734
 31
0.0
  0
LINE
  8
0
 10
9.911534309387207
 20
-28.11705207824707
 30
0.0
 11
9.94567584991455
 21
-28.22960662841797
 31
0.0
  0
LINE
  8
0
 10
10.001126289367676
 20
-28.33333969116211
 30
0.0
 11
9.94567584991455
 21
-28.22960662841797
 31
0.0
  0
LINE
  8
0
 10
10.001126289367676
 20
-28.33333969116211
 30
0.0
 11
10.075738906860352
 21
-28.424259185791016
 31
0.0
  0
LINE
  8
0
 10
10.16666030883789
 20
-28.498878479003906
 30
0.0
 11
10.075738906860352
 21
-28.424259185791016
 31
0.0
  0
LINE
  8
0
 10
10.16666030883789
 20
-28.498878479003906
 30
0.0
 11
10.27039623260498
 21
-28.554323196411133
 31
0.0
  0
LINE
  8
0
 10
10.382953643798828
 20
-28.588468551635742
 30
0.0
 11
10.27039623260498
 21
-28.554323196411133
 31
0.0
  0
LINE
  8
0
 10
10.500004768371582
 20
-28.599994659423828
 30
0.0
 11
10.382953643798828
 21
-28.588468551635742
 31
0.0
  0
LINE
  8
0
 10
10.500004768371582
 20
-28.599994659423828
 30
0.0
 11
10.617056846618652
 21
-28.588468551635742
 31
0.0
  0
LINE
  8
0
 10
10.617056846618652
 20
-28.588468551635742
 30
0.0
 11
10.7296142578125
 21
-28.554323196411133
 31
0.0
  0
LINE
  8
0
 10
10.7296142578125
 20
-28.554323196411133
 30
0.0
 11
10.83335018157959
 21
-28.498878479003906
 31
0.0
  0
LINE
  8
0
 10
10.83335018157959
 20
-28.498878479003906
 30
0.0
 11
10.924270629882812
 21
-28.424259185791016
 31
0.0
  0
LINE
  8
0
 10
10.924270629882812
 20
-28.424259185791016
 30
0.0
 11
10.998884201049805
 21
-28.33333969116211
 31
0.0
  0
LINE
  8
0
 10
11.054333686828613
 20
-28.22960662841797
 30
0.0
 11
10.998884201049805
 21
-28.33333969116211
 31
0.0
  0
LINE
  8
0
 10
-43.99888610839844
 20
-28.33333969116211
 30
0.0
 11
-43.92426681518555
 21
-28.42426300048828
 31
0.0
  0
LINE
  8
0
 10
-43.833343505859375
 20
-28.498878479003906
 30
0.0
 11
-43.92426681518555
 21
-28.42426300048828
 31
0.0
  0
LINE
  8
0
 10
-43.833343505859375
 20
-28.498878479003906
 30
0.0
 11
-43.729610443115234
 21
-28.5543270111084
 31
0.0
  0
LINE
  8
0
 10
-43.61705780029297
 20
-28.588470458984375
 30
0.0
 11
-43.729610443115234
 21
-28.5543270111084
 31
0.0
  0
LINE
  8
0
 10
-43.500003814697266
 20
-28.599998474121094
 30
0.0
 11
-43.61705780029297
 21
-28.588470458984375
 31
0.0
  0
LINE
  8
0
 10
-43.500003814697266
 20
-28.599998474121094
 30
0.0
 11
-43.38294982910156
 21
-28.588470458984375
 31
0.0
  0
LINE
  8
0
 10
-43.38294982910156
 20
-28.588470458984375
 30
0.0
 11
-43.27039337158203
 21
-28.5543270111084
 31
0.0
  0
LINE
  8
0
 10
-43.16666030883789
 20
-28.498878479003906
 30
0.0
 11
-43.27039337158203
 21
-28.5543270111084
 31
0.0
  0
LINE
  8
0
 10
-43.16666030883789
 20
-28.498878479003906
 30
0.0
 11
-43.075740814208984
 21
-28.42426300048828
 31
0.0
  0
LINE
  8
0
 10
-43.001121520996094
 20
-28.33333969116211
 30
0.0
 11
-43.075740814208984
 21
-28.42426300048828
 31
0.0
  0
LINE
  8
0
 10
-43.001121520996094
 20
-28.33333969116211
 30
0.0
 11
-42.945674896240234
 21
-28.2296085357666
 31
0.0
  0
LINE
  8
0
 10
-42.91153335571289
 20
-28.11705207824707
 30
0.0
 11
-42.945674896240234
 21
-28.2296085357666
 31
0.0
  0
LINE
  8
0
 10
-42.91153335571289
 20
-28.11705207824707
 30
0.0
 11
-42.900001525878906
 21
-27.999996185302734
 31
0.0
  0
LINE
  8
0
 10
-42.91153335571289
 20
-27.882946014404297
 30
0.0
 11
-42.900001525878906
 21
-27.999996185302734
 31
0.0
  0
LINE
  8
0
 10
-42.91153335571289
 20
-27.882946014404297
 30
0.0
 11
-42.945674896240234
 21
-27.770387649536133
 31
0.0
  0
LINE
  8
0
 10
-43.001121520996094
 20
-27.666654586791992
 30
0.0
 11
-42.945674896240234
 21
-27.770387649536133
 31
0.0
  0
LINE
  8
0
 10
-43.001121520996094
 20
-27.666654586791992
 30
0.0
 11
-43.075740814208984
 21
-27.575735092163086
 31
0.0
  0
LINE
  8
0
 10
-43.16666030883789
 20
-27.501115798950195
 30
0.0
 11
-43.075740814208984
 21
-27.575735092163086
 31
0.0
  0
LINE
  8
0
 10
-43.16666030883789
 20
-27.501115798950195
 30
0.0
 11
-43.27039337158203
 21
-27.44567108154297
 31
0.0
  0
LINE
  8
0
 10
-43.38294982910156
 20
-27.41152572631836
 30
0.0
 11
-43.27039337158203
 21
-27.44567108154297
 31
0.0
  0
LINE
  8
0
 10
-43.500003814697266
 20
-27.399999618530273
 30
0.0
 11
-43.38294982910156
 21
-27.41152572631836
 31
0.0
  0
LINE
  8
0
 10
-43.500003814697266
 20
-27.399999618530273
 30
0.0
 11
-43.61705780029297
 21
-27.41152572631836
 31
0.0
  0
LINE
  8
0
 10
-43.61705780029297
 20
-27.41152572631836
 30
0.0
 11
-43.729610443115234
 21
-27.44567108154297
 31
0.0
  0
LINE
  8
0
 10
-43.833343505859375
 20
-27.501115798950195
 30
0.0
 11
-43.729610443115234
 21
-27.44567108154297
 31
0.0
  0
LINE
  8
0
 10
-43.833343505859375
 20
-27.501115798950195
 30
0.0
 11
-43.92426681518555
 21
-27.575735092163086
 31
0.0
  0
LINE
  8
0
 10
11.088475227355957
 20
-27.88294219970703
 30
0.0
 11
11.054333686828613
 21
-27.7703857421875
 31
0.0
  0
LINE
  8
0
 10
11.088475227355957
 20
-28.117048263549805
 30
0.0
 11
11.054333686828613
 21
-28.22960662841797
 31
0.0
  0
LINE
  8
0
 10
11.088475227355957
 20
-28.117048263549805
 30
0.0
 11
11.100003242492676
 21
-27.999996185302734
 31
0.0
  0
LINE
  8
0
 10
11.088475227355957
 20
-27.88294219970703
 30
0.0
 11
11.100003242492676
 21
-27.999996185302734
 31
0.0
  0
LINE
  8
0
 10
91.0
 20
-53.99995422363281
 30
0.0
 11
20.499996185302734
 21
-53.99995422363281
 31
0.0
  0
LINE
  8
0
 10
20.499996185302734
 20
-53.99995422363281
 30
0.0
 11
20.499996185302734
 21
-43.99995040893555
 31
0.0
  0
LINE
  8
0
 10
91.0
 20
-43.99995040893555
 30
0.0
 11
20.499996185302734
 21
-43.99995040893555
 31
0.0
  0
LINE
  8
0
 10
91.0
 20
-53.99995422363281
 30
0.0
 11
91.0
 21
-43.99995040893555
 31
0.0
  0
LINE
  8
0
 10
27.001110076904297
 20
-49.33329391479492
 30
0.0
 11
26.945663452148438
 21
-49.22956466674805
 31
0.0
  0
LINE
  8
0
 10
27.001110076904297
 20
-48.66661071777344
 30
0.0
 11
26.945663452148438
 21
-48.77034378051758
 31
0.0
  0
LINE
  8
0
 10
26.911521911621094
 20
-48.88290023803711
 30
0.0
 11
26.945663452148438
 21
-48.77034378051758
 31
0.0
  0
LINE
  8
0
 10
26.911521911621094
 20
-48.88290023803711
 30
0.0
 11
26.89999008178711
 21
-48.99995422363281
 31
0.0
  0
LINE
  8
0
 10
26.911521911621094
 20
-49.117008209228516
 30
0.0
 11
26.89999008178711
 21
-48.99995422363281
 31
0.0
  0
LINE
  8
0
 10
26.911521911621094
 20
-49.117008209228516
 30
0.0
 11
26.945663452148438
 21
-49.22956466674805
 31
0.0
  0
LINE
  8
0
 10
27.001110076904297
 20
-48.66661071777344
 30
0.0
 11
27.075729370117188
 21
-48.57569122314453
 31
0.0
  0
LINE
  8
0
 10
81.9988784790039
 20
-48.66661071777344
 30
0.0
 11
82.05432891845703
 21
-48.77033996582031
 31
0.0
  0
LINE
  8
0
 10
81.9988784790039
 20
-48.66661071777344
 30
0.0
 11
81.92426300048828
 21
-48.575687408447266
 31
0.0
  0
LINE
  8
0
 10
81.83334350585938
 20
-48.50107192993164
 30
0.0
 11
81.92426300048828
 21
-48.575687408447266
 31
0.0
  0
LINE
  8
0
 10
81.83334350585938
 20
-48.50107192993164
 30
0.0
 11
81.72960662841797
 21
-48.44562530517578
 31
0.0
  0
LINE
  8
0
 10
81.61705017089844
 20
-48.41147994995117
 30
0.0
 11
81.72960662841797
 21
-48.44562530517578
 31
0.0
  0
LINE
  8
0
 10
81.5
 20
-48.39995193481445
 30
0.0
 11
81.61705017089844
 21
-48.41147994995117
 31
0.0
  0
LINE
  8
0
 10
81.5
 20
-48.39995193481445
 30
0.0
 11
81.38294982910156
 21
-48.41147994995117
 31
0.0
  0
LINE
  8
0
 10
81.38294982910156
 20
-48.41147994995117
 30
0.0
 11
81.27039337158203
 21
-48.44562530517578
 31
0.0
  0
LINE
  8
0
 10
81.16665649414062
 20
-48.50107192993164
 30
0.0
 11
81.27039337158203
 21
-48.44562530517578
 31
0.0
  0
LINE
  8
0
 10
81.16665649414062
 20
-48.50107192993164
 30
0.0
 11
81.07573699951172
 21
-48.575687408447266
 31
0.0
  0
LINE
  8
0
 10
81.0011215209961
 20
-48.66661071777344
 30
0.0
 11
81.07573699951172
 21
-48.575687408447266
 31
0.0
  0
LINE
  8
0
 10
81.0011215209961
 20
-48.66661071777344
 30
0.0
 11
80.94567108154297
 21
-48.77033996582031
 31
0.0
  0
LINE
  8
0
 10
80.91152954101562
 20
-48.88290023803711
 30
0.0
 11
80.94567108154297
 21
-48.77033996582031
 31
0.0
  0
LINE
  8
0
 10
80.91152954101562
 20
-48.88290023803711
 30
0.0
 11
80.9000015258789
 21
-48.99995422363281
 31
0.0
  0
LINE
  8
0
 10
80.91152954101562
 20
-49.117008209228516
 30
0.0
 11
80.9000015258789
 21
-48.99995422363281
 31
0.0
  0
LINE
  8
0
 10
80.91152954101562
 20
-49.117008209228516
 30
0.0
 11
80.94567108154297
 21
-49.22956085205078
 31
0.0
  0
LINE
  8
0
 10
81.0011215209961
 20
-49.33329391479492
 30
0.0
 11
80.94567108154297
 21
-49.22956085205078
 31
0.0
  0
LINE
  8
0
 10
81.0011215209961
 20
-49.33329391479492
 30
0.0
 11
81.07573699951172
 21
-49.424217224121094
 31
0.0
  0
LINE
  8
0
 10
81.16665649414062
 20
-49.498836517333984
 30
0.0
 11
81.07573699951172
 21
-49.424217224121094
 31
0.0
  0
LINE
  8
0
 10
81.16665649414062
 20
-49.498836517333984
 30
0.0
 11
81.27039337158203
 21
-49.55427932739258
 31
0.0
  0
LINE
  8
0
 10
81.38294982910156
 20
-49.58842468261719
 30
0.0
 11
81.27039337158203
 21
-49.55427932739258
 31
0.0
  0
LINE
  8
0
 10
81.5
 20
-49.599952697753906
 30
0.0
 11
81.38294982910156
 21
-49.58842468261719
 31
0.0
  0
LINE
  8
0
 10
81.5
 20
-49.599952697753906
 30
0.0
 11
81.61705017089844
 21
-49.58842468261719
 31
0.0
  0
LINE
  8
0
 10
81.61705017089844
 20
-49.58842468261719
 30
0.0
 11
81.72960662841797
 21
-49.55427932739258
 31
0.0
  0
LINE
  8
0
 10
81.72960662841797
 20
-49.55427932739258
 30
0.0
 11
81.83334350585938
 21
-49.498836517333984
 31
0.0
  0
LINE
  8
0
 10
81.83334350585938
 20
-49.498836517333984
 30
0.0
 11
81.92426300048828
 21
-49.424217224121094
 31
0.0
  0
LINE
  8
0
 10
81.92426300048828
 20
-49.424217224121094
 30
0.0
 11
81.9988784790039
 21
-49.33329391479492
 31
0.0
  0
LINE
  8
0
 10
82.05432891845703
 20
-49.22956085205078
 30
0.0
 11
81.9988784790039
 21
-49.33329391479492
 31
0.0
  0
LINE
  8
0
 10
27.001110076904297
 20
-49.33329391479492
 30
0.0
 11
27.075729370117188
 21
-49.424217224121094
 31
0.0
  0
LINE
  8
0
 10
27.166648864746094
 20
-49.498836517333984
 30
0.0
 11
27.075729370117188
 21
-49.424217224121094
 31
0.0
  0
LINE
  8
0
 10
27.166648864746094
 20
-49.498836517333984
 30
0.0
 11
27.270381927490234
 21
-49.554283142089844
 31
0.0
  0
LINE
  8
0
 10
27.382936477661133
 20
-49.58842849731445
 30
0.0
 11
27.270381927490234
 21
-49.554283142089844
 31
0.0
  0
LINE
  8
0
 10
27.49999237060547
 20
-49.599952697753906
 30
0.0
 11
27.382936477661133
 21
-49.58842849731445
 31
0.0
  0
LINE
  8
0
 10
27.49999237060547
 20
-49.599952697753906
 30
0.0
 11
27.617046356201172
 21
-49.58842849731445
 31
0.0
  0
LINE
  8
0
 10
27.617046356201172
 20
-49.58842849731445
 30
0.0
 11
27.72960090637207
 21
-49.554283142089844
 31
0.0
  0
LINE
  8
0
 10
27.83333396911621
 20
-49.498836517333984
 30
0.0
 11
27.72960090637207
 21
-49.554283142089844
 31
0.0
  0
LINE
  8
0
 10
27.83333396911621
 20
-49.498836517333984
 30
0.0
 11
27.92425537109375
 21
-49.424217224121094
 31
0.0
  0
LINE
  8
0
 10
27.998872756958008
 20
-49.33329391479492
 30
0.0
 11
27.92425537109375
 21
-49.424217224121094
 31
0.0
  0
LINE
  8
0
 10
27.998872756958008
 20
-49.33329391479492
 30
0.0
 11
28.0543212890625
 21
-49.22956466674805
 31
0.0
  0
LINE
  8
0
 10
28.088462829589844
 20
-49.117008209228516
 30
0.0
 11
28.0543212890625
 21
-49.22956466674805
 31
0.0
  0
LINE
  8
0
 10
28.088462829589844
 20
-49.117008209228516
 30
0.0
 11
28.099992752075195
 21
-48.99995422363281
 31
0.0
  0
LINE
  8
0
 10
28.088462829589844
 20
-48.88290023803711
 30
0.0
 11
28.099992752075195
 21
-48.99995422363281
 31
0.0
  0
LINE
  8
0
 10
28.088462829589844
 20
-48.88290023803711
 30
0.0
 11
28.0543212890625
 21
-48.77034378051758
 31
0.0
  0
LINE
  8
0
 10
27.998872756958008
 20
-48.66661071777344
 30
0.0
 11
28.0543212890625
 21
-48.77034378051758
 31
0.0
  0
LINE
  8
0
 10
27.998872756958008
 20
-48.66661071777344
 30
0.0
 11
27.92425537109375
 21
-48.57569122314453
 31
0.0
  0
LINE
  8
0
 10
27.83333396911621
 20
-48.50107192993164
 30
0.0
 11
27.92425537109375
 21
-48.57569122314453
 31
0.0
  0
LINE
  8
0
 10
27.83333396911621
 20
-48.50107192993164
 30
0.0
 11
27.72960090637207
 21
-48.44562530517578
 31
0.0
  0
LINE
  8
0
 10
27.617046356201172
 20
-48.41148376464844
 30
0.0
 11
27.72960090637207
 21
-48.44562530517578
 31
0.0
  0
LINE
  8
0
 10
27.49999237060547
 20
-48.39995574951172
 30
0.0
 11
27.617046356201172
 21
-48.41148376464844
 31
0.0
  0
LINE
  8
0
 10
27.49999237060547
 20
-48.39995574951172
 30
0.0
 11
27.382936477661133
 21
-48.41148376464844
 31
0.0
  0
LINE
  8
0
 10
27.382936477661133
 20
-48.41148376464844
 30
0.0
 11
27.270381927490234
 21
-48.44562530517578
 31
0.0
  0
LINE
  8
0
 10
27.166648864746094
 20
-48.50107192993164
 30
0.0
 11
27.270381927490234
 21
-48.44562530517578
 31
0.0
  0
LINE
  8
0
 10
27.166648864746094
 20
-48.50107192993164
 30
0.0
 11
27.075729370117188
 21
-48.57569122314453
 31
0.0
  0
LINE
  8
0
 10
82.08847045898438
 20
-48.88290023803711
 30
0.0
 11
82.05432891845703
 21
-48.77033996582031
 31
0.0
  0
LINE
  8
0
 10
82.08847045898438
 20
-49.11700439453125
 30
0.0
 11
82.05432891845703
 21
-49.22956085205078
 31
0.0
  0
LINE
  8
0
 10
82.08847045898438
 20
-49.11700439453125
 30
0.0
 11
82.0999984741211
 21
-48.99995422363281
 31
0.0
  0
LINE
  8
0
 10
82.08847045898438
 20
-48.88290023803711
 30
0.0
 11
82.0999984741211
 21
-48.99995422363281
 31
0.0
  0
LINE
  8
0
 10
91.0
 20
-43.5
 30
0.0
 11
20.499996185302734
 21
-43.5
 31
0.0
  0
LINE
  8
0
 10
20.499996185302734
 20
-43.5
 30
0.0
 11
20.499996185302734
 21
-33.499996185302734
 31
0.0
  0
LINE
  8
0
 10
91.0
 20
-33.499996185302734
 30
0.0
 11
20.499996185302734
 21
-33.499996185302734
 31
0.0
  0
LINE
  8
0
 10
91.0
 20
-43.5
 30
0.0
 11
91.0
 21
-33.499996185302734
 31
0.0
  0
LINE
  8
0
 10
27.001110076904297
 20
-38.83333969116211
 30
0.0
 11
26.945663452148438
 21
-38.729610443115234
 31
0.0
  0
LINE
  8
0
 10
27.001110076904297
 20
-38.166656494140625
 30
0.0
 11
26.945663452148438
 21
-38.270389556884766
 31
0.0
  0
LINE
  8
0
 10
26.911521911621094
 20
-38.3829460144043
 30
0.0
 11
26.945663452148438
 21
-38.270389556884766
 31
0.0
  0
LINE
  8
0
 10
26.911521911621094
 20
-38.3829460144043
 30
0.0
 11
26.89999008178711
 21
-38.5
 31
0.0
  0
LINE
  8
0
 10
26.911521911621094
 20
-38.6170539855957
 30
0.0
 11
26.89999008178711
 21
-38.5
 31
0.0
  0
LINE
  8
0
 10
26.911521911621094
 20
-38.6170539855957
 30
0.0
 11
26.945663452148438
 21
-38.729610443115234
 31
0.0
  0
LINE
  8
0
 10
27.001110076904297
 20
-38.166656494140625
 30
0.0
 11
27.075729370117188
 21
-38.07573699951172
 31
0.0
  0
LINE
  8
0
 10
81.9988784790039
 20
-38.166656494140625
 30
0.0
 11
82.05432891845703
 21
-38.2703857421875
 31
0.0
  0
LINE
  8
0
 10
81.9988784790039
 20
-38.166656494140625
 30
0.0
 11
81.92426300048828
 21
-38.07573318481445
 31
0.0
  0
LINE
  8
0
 10
81.83334350585938
 20
-38.00111770629883
 30
0.0
 11
81.92426300048828
 21
-38.07573318481445
 31
0.0
  0
LINE
  8
0
 10
81.83334350585938
 20
-38.00111770629883
 30
0.0
 11
81.72960662841797
 21
-37.94567108154297
 31
0.0
  0
LINE
  8
0
 10
81.61705017089844
 20
-37.91152572631836
 30
0.0
 11
81.72960662841797
 21
-37.94567108154297
 31
0.0
  0
LINE
  8
0
 10
81.5
 20
-37.89999771118164
 30
0.0
 11
81.61705017089844
 21
-37.91152572631836
 31
0.0
  0
LINE
  8
0
 10
81.5
 20
-37.89999771118164
 30
0.0
 11
81.38294982910156
 21
-37.91152572631836
 31
0.0
  0
LINE
  8
0
 10
81.38294982910156
 20
-37.91152572631836
 30
0.0
 11
81.27039337158203
 21
-37.94567108154297
 31
0.0
  0
LINE
  8
0
 10
81.16665649414062
 20
-38.00111770629883
 30
0.0
 11
81.27039337158203
 21
-37.94567108154297
 31
0.0
  0
LINE
  8
0
 10
81.16665649414062
 20
-38.00111770629883
 30
0.0
 11
81.07573699951172
 21
-38.07573318481445
 31
0.0
  0
LINE
  8
0
 10
81.0011215209961
 20
-38.166656494140625
 30
0.0
 11
81.07573699951172
 21
-38.07573318481445
 31
0.0
  0
LINE
  8
0
 10
81.0011215209961
 20
-38.166656494140625
 30
0.0
 11
80.94567108154297
 21
-38.2703857421875
 31
0.0
  0
LINE
  8
0
 10
80.91152954101562
 20
-38.3829460144043
 30
0.0
 11
80.94567108154297
 21
-38.2703857421875
 31
0.0
  0
LINE
  8
0
 10
80.91152954101562
 20
-38.3829460144043
 30
0.0
 11
80.9000015258789
 21
-38.5
 31
0.0
  0
LINE
  8
0
 10
80.91152954101562
 20
-38.6170539855957
 30
0.0
 11
80.9000015258789
 21
-38.5
 31
0.0
  0
LINE
  8
0
 10
80.91152954101562
 20
-38.6170539855957
 30
0.0
 11
80.94567108154297
 21
-38.72960662841797
 31
0.0
  0
LINE
  8
0
 10
81.0011215209961
 20
-38.83333969116211
 30
0.0
 11
80.94567108154297
 21
-38.72960662841797
 31
0.0
  0
LINE
  8
0
 10
81.0011215209961
 20
-38.83333969116211
 30
0.0
 11
81.07573699951172
 21
-38.92426300048828
 31
0.0
  0
LINE
  8
0
 10
81.16665649414062
 20
-38.99888229370117
 30
0.0
 11
81.07573699951172
 21
-38.92426300048828
 31
0.0
  0
LINE
  8
0
 10
81.16665649414062
 20
-38.99888229370117
 30
0.0
 11
81.27039337158203
 21
-39.054325103759766
 31
0.0
  0
LINE
  8
0
 10
81.38294982910156
 20
-39.088470458984375
 30
0.0
 11
81.27039337158203
 21
-39.054325103759766
 31
0.0
  0
LINE
  8
0
 10
81.5
 20
-39.099998474121094
 30
0.0
 11
81.38294982910156
 21
-39.088470458984375
 31
0.0
  0
LINE
  8
0
 10
81.5
 20
-39.099998474121094
 30
0.0
 11
81.61705017089844
 21
-39.088470458984375
 31
0.0
  0
LINE
  8
0
 10
81.61705017089844
 20
-39.088470458984375
 30
0.0
 11
81.72960662841797
 21
-39.054325103759766
 31
0.0
  0
LINE
  8
0
 10
81.72960662841797
 20
-39.054325103759766
 30
0.0
 11
81.83334350585938
 21
-38.99888229370117
 31
0.0
  0
LINE
  8
0
 10
81.83334350585938
 20
-38.99888229370117
 30
0.0
 11
81.92426300048828
 21
-38.92426300048828
 31
0.0
  0
LINE
  8
0
 10
81.92426300048828
 20
-38.92426300048828
 30
0.0
 11
81.9988784790039
 21
-38.83333969116211
 31
0.0
  0
LINE
  8
0
 10
82.05432891845703
 20
-38.72960662841797
 30
0.0
 11
81.9988784790039
 21
-38.83333969116211
 31
0.0
  0
LINE
  8
0
 10
27.001110076904297
 20
-38.83333969116211
 30
0.0
 11
27.075729370117188
 21
-38.92426300048828
 31
0.0
  0
LINE
  8
0
 10
27.166648864746094
 20
-38.99888229370117
 30
0.0
 11
27.075729370117188
 21
-38.92426300048828
 31
0.0
  0
LINE
  8
0
 10
27.166648864746094
 20
-38.99888229370117
 30
0.0
 11
27.270381927490234
 21
-39.05432891845703
 31
0.0
  0
LINE
  8
0
 10
27.382936477661133
 20
-39.08847427368164
 30
0.0
 11
27.270381927490234
 21
-39.05432891845703
 31
0.0
  0
LINE
  8
0
 10
27.49999237060547
 20
-39.099998474121094
 30
0.0
 11
27.382936477661133
 21
-39.08847427368164
 31
0.0
  0
LINE
  8
0
 10
27.49999237060547
 20
-39.099998474121094
 30
0.0
 11
27.617046356201172
 21
-39.08847427368164
 31
0.0
  0
LINE
  8
0
 10
27.617046356201172
 20
-39.08847427368164
 30
0.0
 11
27.72960090637207
 21
-39.05432891845703
 31
0.0
  0
LINE
  8
0
 10
27.83333396911621
 20
-38.99888229370117
 30
0.0
 11
27.72960090637207
 21
-39.05432891845703
 31
0.0
  0
LINE
  8
0
 10
27.83333396911621
 20
-38.99888229370117
 30
0.0
 11
27.92425537109375
 21
-38.92426300048828
 31
0.0
  0
LINE
  8
0
 10
27.998872756958008
 20
-38.83333969116211
 30
0.0
 11
27.92425537109375
 21
-38.92426300048828
 31
0.0
  0
LINE
  8
0
 10
27.998872756958008
 20
-38.83333969116211
 30
0.0
 11
28.0543212890625
 21
-38.729610443115234
 31
0.0
  0
LINE
  8
0
 10
28.088462829589844
 20
-38.6170539855957
 30
0.0
 11
28.0543212890625
 21
-38.729610443115234
 31
0.0
  0
LINE
  8
0
 10
28.088462829589844
 20
-38.6170539855957
 30
0.0
 11
28.099992752075195
 21
-38.5
 31
0.0
  0
LINE
  8
0
 10
28.088462829589844
 20
-38.3829460144043
 30
0.0
 11
28.099992752075195
 21
-38.5
 31
0.0
  0
LINE
  8
0
 10
28.088462829589844
 20
-38.3829460144043
 30
0.0
 11
28.0543212890625
 21
-38.270389556884766
 31
0.0
  0
LINE
  8
0
 10
27.998872756958008
 20
-38.166656494140625
 30
0.0
 11
28.0543212890625
 21
-38.270389556884766
 31
0.0
  0
LINE
  8
0
 10
27.998872756958008
 20
-38.166656494140625
 30
0.0
 11
27.92425537109375
 21
-38.07573699951172
 31
0.0
  0
LINE
  8
0
 10
27.83333396911621
 20
-38.00111770629883
 30
0.0
 11
27.92425537109375
 21
-38.07573699951172
 31
0.0
  0
LINE
  8
0
 10
27.83333396911621
 20
-38.00111770629883
 30
0.0
 11
27.72960090637207
 21
-37.94567108154297
 31
0.0
  0
LINE
  8
0
 10
27.617046356201172
 20
-37.911529541015625
 30
0.0
 11
27.72960090637207
 21
-37.94567108154297
 31
0.0
  0
LINE
  8
0
 10
27.49999237060547
 20
-37.900001525878906
 30
0.0
 11
27.617046356201172
 21
-37.911529541015625
 31
0.0
  0
LINE
  8
0
 10
27.49999237060547
 20
-37.900001525878906
 30
0.0
 11
27.382936477661133
 21
-37.911529541015625
 31
0.0
  0
LINE
  8
0
 10
27.382936477661133
 20
-37.911529541015625
 30
0.0
 11
27.270381927490234
 21
-37.94567108154297
 31
0.0
  0
LINE
  8
0
 10
27.166648864746094
 20
-38.00111770629883
 30
0.0
 11
27.270381927490234
 21
-37.94567108154297
 31
0.0
  0
LINE
  8
0
 10
27.166648864746094
 20
-38.00111770629883
 30
0.0
 11
27.075729370117188
 21
-38.07573699951172
 31
0.0
  0
LINE
  8
0
 10
82.08847045898438
 20
-38.3829460144043
 30
0.0
 11
82.05432891845703
 21
-38.2703857421875
 31
0.0
  0
LINE
  8
0
 10
82.08847045898438
 20
-38.61705017089844
 30
0.0
 11
82.05432891845703
 21
-38.72960662841797
 31
0.0
  0
LINE
  8
0
 10
82.08847045898438
 20
-38.61705017089844
 30
0.0
 11
82.0999984741211
 21
-38.5
 31
0.0
  0
LINE
  8
0
 10
82.08847045898438
 20
-38.3829460144043
 30
0.0
 11
82.0999984741211
 21
-38.5
 31
0.0
  0
LINE
  8
0
 10
91.0
 20
-32.99995040893555
 30
0.0
 11
20.499996185302734
 21
-32.99995040893555
 31
0.0
  0
LINE
  8
0
 10
20.499996185302734
 20
-32.99995040893555
 30
0.0
 11
20.499996185302734
 21
-22.999950408935547
 31
0.0
  0
LINE
  8
0
 10
91.0
 20
-22.99994659423828
 30
0.0
 11
20.499996185302734
 21
-22.999950408935547
 31
0.0
  0
LINE
  8
0
 10
91.0
 20
-32.99995040893555
 30
0.0
 11
91.0
 21
-22.99994659423828
 31
0.0
  0
LINE
  8
0
 10
27.001110076904297
 20
-28.33329200744629
 30
0.0
 11
26.945663452148438
 21
-28.22956085205078
 31
0.0
  0
LINE
  8
0
 10
27.001110076904297
 20
-27.666606903076172
 30
0.0
 11
26.945663452148438
 21
-27.770339965820312
 31
0.0
  0
LINE
  8
0
 10
26.911521911621094
 20
-27.882898330688477
 30
0.0
 11
26.945663452148438
 21
-27.770339965820312
 31
0.0
  0
LINE
  8
0
 10
26.911521911621094
 20
-27.882898330688477
 30
0.0
 11
26.89999008178711
 21
-27.999950408935547
 31
0.0
  0
LINE
  8
0
 10
26.911521911621094
 20
-28.11700439453125
 30
0.0
 11
26.89999008178711
 21
-27.999950408935547
 31
0.0
  0
LINE
  8
0
 10
26.911521911621094
 20
-28.11700439453125
 30
0.0
 11
26.945663452148438
 21
-28.22956085205078
 31
0.0
  0
LINE
  8
0
 10
27.001110076904297
 20
-27.666606903076172
 30
0.0
 11
27.075729370117188
 21
-27.575687408447266
 31
0.0
  0
LINE
  8
0
 10
81.9988784790039
 20
-27.666606903076172
 30
0.0
 11
82.05432891845703
 21
-27.77033805847168
 31
0.0
  0
LINE
  8
0
 10
81.9988784790039
 20
-27.666606903076172
 30
0.0
 11
81.92426300048828
 21
-27.57568359375
 31
0.0
  0
LINE
  8
0
 10
81.83334350585938
 20
-27.501068115234375
 30
0.0
 11
81.92426300048828
 21
-27.57568359375
 31
0.0
  0
LINE
  8
0
 10
81.83334350585938
 20
-27.501068115234375
 30
0.0
 11
81.72960662841797
 21
-27.445619583129883
 31
0.0
  0
LINE
  8
0
 10
81.61705017089844
 20
-27.411476135253906
 30
0.0
 11
81.72960662841797
 21
-27.445619583129883
 31
0.0
  0
LINE
  8
0
 10
81.5
 20
-27.399948120117188
 30
0.0
 11
81.61705017089844
 21
-27.411476135253906
 31
0.0
  0
LINE
  8
0
 10
81.5
 20
-27.399948120117188
 30
0.0
 11
81.38294982910156
 21
-27.411476135253906
 31
0.0
  0
LINE
  8
0
 10
81.38294982910156
 20
-27.411476135253906
 30
0.0
 11
81.27039337158203
 21
-27.445619583129883
 31
0.0
  0
LINE
  8
0
 10
81.16665649414062
 20
-27.501068115234375
 30
0.0
 11
81.27039337158203
 21
-27.445619583129883
 31
0.0
  0
LINE
  8
0
 10
81.16665649414062
 20
-27.501068115234375
 30
0.0
 11
81.07573699951172
 21
-27.57568359375
 31
0.0
  0
LINE
  8
0
 10
81.0011215209961
 20
-27.666606903076172
 30
0.0
 11
81.07573699951172
 21
-27.57568359375
 31
0.0
  0
LINE
  8
0
 10
81.0011215209961
 20
-27.666606903076172
 30
0.0
 11
80.94567108154297
 21
-27.77033805847168
 31
0.0
  0
LINE
  8
0
 10
80.91152954101562
 20
-27.88289451599121
 30
0.0
 11
80.94567108154297
 21
-27.77033805847168
 31
0.0
  0
LINE
  8
0
 10
80.91152954101562
 20
-27.88289451599121
 30
0.0
 11
80.9000015258789
 21
-27.999950408935547
 31
0.0
  0
LINE
  8
0
 10
80.91152954101562
 20
-28.11700439453125
 30
0.0
 11
80.9000015258789
 21
-27.999950408935547
 31
0.0
  0
LINE
  8
0
 10
80.91152954101562
 20
-28.11700439453125
 30
0.0
 11
80.94567108154297
 21
-28.22955894470215
 31
0.0
  0
LINE
  8
0
 10
81.0011215209961
 20
-28.33329200744629
 30
0.0
 11
80.94567108154297
 21
-28.22955894470215
 31
0.0
  0
LINE
  8
0
 10
81.0011215209961
 20
-28.33329200744629
 30
0.0
 11
81.07573699951172
 21
-28.424211502075195
 31
0.0
  0
LINE
  8
0
 10
81.16665649414062
 20
-28.498830795288086
 30
0.0
 11
81.07573699951172
 21
-28.424211502075195
 31
0.0
  0
LINE
  8
0
 10
81.16665649414062
 20
-28.498830795288086
 30
0.0
 11
81.27039337158203
 21
-28.554275512695312
 31
0.0
  0
LINE
  8
0
 10
81.38294982910156
 20
-28.588420867919922
 30
0.0
 11
81.27039337158203
 21
-28.554275512695312
 31
0.0
  0
LINE
  8
0
 10
81.5
 20
-28.599946975708008
 30
0.0
 11
81.38294982910156
 21
-28.588420867919922
 31
0.0
  0
LINE
  8
0
 10
81.5
 20
-28.599946975708008
 30
0.0
 11
81.61705017089844
 21
-28.588420867919922
 31
0.0
  0
LINE
  8
0
 10
81.61705017089844
 20
-28.588420867919922
 30
0.0
 11
81.72960662841797
 21
-28.554275512695312
 31
0.0
  0
LINE
  8
0
 10
81.72960662841797
 20
-28.554275512695312
 30
0.0
 11
81.83334350585938
 21
-28.498830795288086
 31
0.0
  0
LINE
  8
0
 10
81.83334350585938
 20
-28.498830795288086
 30
0.0
 11
81.92426300048828
 21
-28.424211502075195
 31
0.0
  0
LINE
  8
0
 10
81.92426300048828
 20
-28.424211502075195
 30
0.0
 11
81.9988784790039
 21
-28.33329200744629
 31
0.0
  0
LINE
  8
0
 10
82.05432891845703
 20
-28.22955894470215
 30
0.0
 11
81.9988784790039
 21
-28.33329200744629
 31
0.0
  0
LINE
  8
0
 10
27.001110076904297
 20
-28.33329200744629
 30
0.0
 11
27.075729370117188
 21
-28.42421531677246
 31
0.0
  0
LINE
  8
0
 10
27.166648864746094
 20
-28.498830795288086
 30
0.0
 11
27.075729370117188
 21
-28.42421531677246
 31
0.0
  0
LINE
  8
0
 10
27.166648864746094
 20
-28.498830795288086
 30
0.0
 11
27.270381927490234
 21
-28.554279327392578
 31
0.0
  0
LINE
  8
0
 10
27.382936477661133
 20
-28.588422775268555
 30
0.0
 11
27.270381927490234
 21
-28.554279327392578
 31
0.0
  0
LINE
  8
0
 10
27.49999237060547
 20
-28.599950790405273
 30
0.0
 11
27.382936477661133
 21
-28.588422775268555
 31
0.0
  0
LINE
  8
0
 10
27.49999237060547
 20
-28.599950790405273
 30
0.0
 11
27.617046356201172
 21
-28.588422775268555
 31
0.0
  0
LINE
  8
0
 10
27.617046356201172
 20
-28.588422775268555
 30
0.0
 11
27.72960090637207
 21
-28.554279327392578
 31
0.0
  0
LINE
  8
0
 10
27.83333396911621
 20
-28.498830795288086
 30
0.0
 11
27.72960090637207
 21
-28.554279327392578
 31
0.0
  0
LINE
  8
0
 10
27.83333396911621
 20
-28.498830795288086
 30
0.0
 11
27.92425537109375
 21
-28.42421531677246
 31
0.0
  0
LINE
  8
0
 10
27.998872756958008
 20
-28.33329200744629
 30
0.0
 11
27.92425537109375
 21
-28.42421531677246
 31
0.0
  0
LINE
  8
0
 10
27.998872756958008
 20
-28.33329200744629
 30
0.0
 11
28.0543212890625
 21
-28.22956085205078
 31
0.0
  0
LINE
  8
0
 10
28.088462829589844
 20
-28.11700439453125
 30
0.0
 11
28.0543212890625
 21
-28.22956085205078
 31
0.0
  0
LINE
  8
0
 10
28.088462829589844
 20
-28.11700439453125
 30
0.0
 11
28.099992752075195
 21
-27.999950408935547
 31
0.0
  0
LINE
  8
0
 10
28.088462829589844
 20
-27.882898330688477
 30
0.0
 11
28.099992752075195
 21
-27.999950408935547
 31
0.0
  0
LINE
  8
0
 10
28.088462829589844
 20
-27.882898330688477
 30
0.0
 11
28.0543212890625
 21
-27.770339965820312
 31
0.0
  0
LINE
  8
0
 10
27.998872756958008
 20
-27.666606903076172
 30
0.0
 11
28.0543212890625
 21
-27.770339965820312
 31
0.0
  0
LINE
  8
0
 10
27.998872756958008
 20
-27.666606903076172
 30
0.0
 11
27.92425537109375
 21
-27.575687408447266
 31
0.0
  0
LINE
  8
0
 10
27.83333396911621
 20
-27.501068115234375
 30
0.0
 11
27.92425537109375
 21
-27.575687408447266
 31
0.0
  0
LINE
  8
0
 10
27.83333396911621
 20
-27.501068115234375
 30
0.0
 11
27.72960090637207
 21
-27.44562339782715
 31
0.0
  0
LINE
  8
0
 10
27.617046356201172
 20
-27.41147804260254
 30
0.0
 11
27.72960090637207
 21
-27.44562339782715
 31
0.0
  0
LINE
  8
0
 10
27.49999237060547
 20
-27.399951934814453
 30
0.0
 11
27.617046356201172
 21
-27.41147804260254
 31
0.0
  0
LINE
  8
0
 10
27.49999237060547
 20
-27.399951934814453
 30
0.0
 11
27.382936477661133
 21
-27.41147804260254
 31
0.0
  0
LINE
  8
0
 10
27.382936477661133
 20
-27.41147804260254
 30
0.0
 11
27.270381927490234
 21
-27.44562339782715
 31
0.0
  0
LINE
  8
0
 10
27.166648864746094
 20
-27.501068115234375
 30
0.0
 11
27.270381927490234
 21
-27.44562339782715
 31
0.0
  0
LINE
  8
0
 10
27.166648864746094
 20
-27.501068115234375
 30
0.0
 11
27.075729370117188
 21
-27.575687408447266
 31
0.0
  0
LINE
  8
0
 10
82.08847045898438
 20
-27.88289451599121
 30
0.0
 11
82.05432891845703
 21
-27.77033805847168
 31
0.0
  0
LINE
  8
0
 10
82.08847045898438
 20
-28.117000579833984
 30
0.0
 11
82.05432891845703
 21
-28.22955894470215
 31
0.0
  0
LINE
  8
0
 10
82.08847045898438
 20
-28.117000579833984
 30
0.0
 11
82.0999984741211
 21
-27.999950408935547
 31
0.0
  0
LINE
  8
0
 10
82.08847045898438
 20
-27.88289451599121
 30
0.0
 11
82.0999984741211
 21
-27.999950408935547
 31
0.0
  0
ENDSEC
  0
EOF
