# Blender 3.6.9
# www.blender.org
o BezierCircle.001
v -50.000000 0.000000 0.000000
v -49.998131 0.971415 0.000000
v -49.989868 1.918133 0.000000
v -49.971222 2.846677 0.000000
v -49.938217 3.763569 0.000000
v -49.886864 4.675333 0.000000
v -49.813183 5.588493 0.000000
v -49.713184 6.509570 0.000000
v -49.582890 7.445088 0.000000
v -49.418312 8.401569 0.000000
v -49.215469 9.385539 0.000000
v -48.970375 10.403518 0.000000
v -48.679047 11.462030 0.000000
v -48.389389 12.433806 0.000000
v -48.098293 13.367587 0.000000
v -47.804066 14.264132 0.000000
v -47.505020 15.124202 0.000000
v -47.199459 15.948556 0.000000
v -46.885696 16.737955 0.000000
v -46.562035 17.493162 0.000000
v -46.226780 18.214931 0.000000
v -45.878246 18.904028 0.000000
v -45.514740 19.561213 0.000000
v -45.134563 20.187244 0.000000
v -44.736034 20.782883 0.000000
v -44.539051 21.008688 0.000000
v -44.337936 21.141422 0.000000
v -44.135033 21.192402 0.000000
v -43.932686 21.172949 0.000000
v -43.733238 21.094379 0.000000
v -43.539040 20.968012 0.000000
v -43.352436 20.805170 0.000000
v -43.175774 20.617168 0.000000
v -43.011391 20.415327 0.000000
v -42.861641 20.210966 0.000000
v -42.728867 20.015404 0.000000
v -42.615410 19.839960 0.000000
v -42.089249 19.196276 0.000000
v -41.439785 18.688307 0.000000
v -40.693962 18.306623 0.000000
v -39.878712 18.041800 0.000000
v -39.020966 17.884409 0.000000
v -38.147655 17.825024 0.000000
v -37.285717 17.854218 0.000000
v -36.462086 17.962561 0.000000
v -35.703693 18.140627 0.000000
v -35.037479 18.378990 0.000000
v -34.490368 18.668226 0.000000
v -34.089298 18.998901 0.000000
v -33.567204 19.609251 0.000000
v -33.158634 20.166216 0.000000
v -32.822929 20.698458 0.000000
v -32.519432 21.234646 0.000000
v -32.207485 21.803440 0.000000
v -31.846428 22.433510 0.000000
v -31.395603 23.153521 0.000000
v -30.814350 23.992136 0.000000
v -30.062014 24.978022 0.000000
v -29.097933 26.139843 0.000000
v -27.881449 27.506266 0.000000
v -26.371908 29.105953 0.000000
v -24.914680 30.455610 0.000000
v -22.822607 32.099049 0.000000
v -20.149137 33.907330 0.000000
v -16.947721 35.751526 0.000000
v -13.271809 37.502697 0.000000
v -9.174848 39.031910 0.000000
v -4.710289 40.210232 0.000000
v 0.068418 40.908726 0.000000
v 5.107823 40.998463 0.000000
v 10.354477 40.350498 0.000000
v 15.754932 38.835911 0.000000
v 21.255739 36.325752 0.000000
v 21.808826 35.987751 0.000000
v 22.205275 35.675991 0.000000
v 22.463371 35.389309 0.000000
v 22.601408 35.126541 0.000000
v 22.637676 34.886517 0.000000
v 22.590469 34.668076 0.000000
v 22.478073 34.470047 0.000000
v 22.318781 34.291271 0.000000
v 22.130882 34.130577 0.000000
v 21.932671 33.986797 0.000000
v 21.742435 33.858772 0.000000
v 21.578472 33.745338 0.000000
v 20.444252 32.850925 0.000000
v 19.657177 32.102207 0.000000
v 19.177298 31.483709 0.000000
v 18.964657 30.979979 0.000000
v 18.979305 30.575550 0.000000
v 19.181290 30.254959 0.000000
v 19.530655 30.002748 0.000000
v 19.987450 29.803455 0.000000
v 20.511719 29.641617 0.000000
v 21.063515 29.501772 0.000000
v 21.602879 29.368460 0.000000
v 22.089857 29.226217 0.000000
v 23.834791 28.576500 0.000000
v 25.093985 27.986523 0.000000
v 25.921059 27.452999 0.000000
v 26.369640 26.972639 0.000000
v 26.493355 26.542150 0.000000
v 26.345829 26.158243 0.000000
v 25.980680 25.817629 0.000000
v 25.451542 25.517019 0.000000
v 24.812035 25.253122 0.000000
v 24.115784 25.022650 0.000000
v 23.416414 24.822311 0.000000
v 22.767553 24.648823 0.000000
v 22.007826 24.407133 0.000000
v 21.394344 24.125719 0.000000
v 20.910336 23.800810 0.000000
v 20.539019 23.428635 0.000000
v 20.263620 23.005428 0.000000
v 20.067364 22.527414 0.000000
v 19.933474 21.990828 0.000000
v 19.845177 21.391899 0.000000
v 19.785692 20.726854 0.000000
v 19.738249 19.991928 0.000000
v 19.686068 19.183348 0.000000
v 19.612375 18.297348 0.000000
v 19.457865 17.123117 0.000000
v 19.240751 16.119034 0.000000
v 18.961489 15.266540 0.000000
v 18.620531 14.547075 0.000000
v 18.218332 13.942083 0.000000
v 17.755348 13.433005 0.000000
v 17.232031 13.001280 0.000000
v 16.648838 12.628349 0.000000
v 16.006222 12.295657 0.000000
v 15.304635 11.984643 0.000000
v 14.544537 11.676749 0.000000
v 13.726382 11.353414 0.000000
v 13.345016 11.136373 0.000000
v 13.080637 10.849085 0.000000
v 12.909383 10.502429 0.000000
v 12.807390 10.107285 0.000000
v 12.750798 9.674530 0.000000
v 12.715747 9.215045 0.000000
v 12.678373 8.739707 0.000000
v 12.614817 8.259396 0.000000
v 12.501214 7.784989 0.000000
v 12.313705 7.327367 0.000000
v 12.028428 6.897408 0.000000
v 11.621521 6.505991 0.000000
v 11.339246 6.315321 0.000000
v 11.010711 6.143525 0.000000
v 10.642307 5.993575 0.000000
v 10.240424 5.868440 0.000000
v 9.811451 5.771091 0.000000
v 9.361778 5.704499 0.000000
v 8.897795 5.671634 0.000000
v 8.425892 5.675465 0.000000
v 7.952457 5.718965 0.000000
v 7.483881 5.805101 0.000000
v 7.026554 5.936845 0.000000
v 6.586864 6.117168 0.000000
v 6.004657 6.401868 0.000000
v 5.473973 6.674557 0.000000
v 4.987008 6.941517 0.000000
v 4.535957 7.209029 0.000000
v 4.113016 7.483376 0.000000
v 3.710378 7.770839 0.000000
v 3.320240 8.077700 0.000000
v 2.934795 8.410241 0.000000
v 2.546241 8.774743 0.000000
v 2.146771 9.177489 0.000000
v 1.728580 9.624762 0.000000
v 1.283864 10.122841 0.000000
v 0.540176 10.877007 0.000000
v -0.197559 11.452790 0.000000
v -0.921528 11.867293 0.000000
v -1.623914 12.137621 0.000000
v -2.296905 12.280876 0.000000
v -2.932683 12.314162 0.000000
v -3.523436 12.254583 0.000000
v -4.061348 12.119242 0.000000
v -4.538605 11.925242 0.000000
v -4.947392 11.689689 0.000000
v -5.279893 11.429684 0.000000
v -5.528296 11.162331 0.000000
v -6.158793 10.158720 0.000000
v -6.519106 9.181629 0.000000
v -6.648082 8.240179 0.000000
v -6.584565 7.343491 0.000000
v -6.367404 6.500684 0.000000
v -6.035443 5.720882 0.000000
v -5.627529 5.013204 0.000000
v -5.182507 4.386770 0.000000
v -4.739224 3.850703 0.000000
v -4.336525 3.414122 0.000000
v -4.013258 3.086149 0.000000
v -3.808264 2.875905 0.000000
v -2.819295 1.838433 0.000000
v -1.742369 0.809356 0.000000
v -0.614573 -0.209160 0.000000
v 0.527008 -1.214948 0.000000
v 1.645285 -2.205842 0.000000
v 2.703172 -3.179674 0.000000
v 3.663582 -4.134279 0.000000
v 4.489429 -5.067491 0.000000
v 5.143626 -5.977143 0.000000
v 5.589084 -6.861068 0.000000
v 5.788719 -7.717099 0.000000
v 5.705444 -8.543072 0.000000
v 5.214513 -9.757438 0.000000
v 4.600167 -10.567851 0.000000
v 3.891184 -11.027282 0.000000
v 3.116342 -11.188702 0.000000
v 2.304419 -11.105082 0.000000
v 1.484195 -10.829391 0.000000
v 0.684447 -10.414600 0.000000
v -0.066046 -9.913681 0.000000
v -0.738505 -9.379604 0.000000
v -1.304152 -8.865340 0.000000
v -1.734208 -8.423859 0.000000
v -1.999897 -8.108137 0.000000
v -2.437577 -7.538827 0.000000
v -2.865971 -7.031041 0.000000
v -3.292251 -6.580731 0.000000
v -3.723588 -6.183847 0.000000
v -4.167154 -5.836339 0.000000
v -4.630119 -5.534160 0.000000
v -5.119655 -5.273259 0.000000
v -5.642932 -5.049587 0.000000
v -6.207123 -4.859096 0.000000
v -6.819398 -4.697736 0.000000
v -7.486929 -4.561458 0.000000
v -8.216887 -4.446212 0.000000
v -9.081163 -4.379285 0.000000
v -9.835062 -4.425065 0.000000
v -10.487633 -4.568923 0.000000
v -11.047923 -4.796231 0.000000
v -11.524982 -5.092360 0.000000
v -11.927862 -5.442681 0.000000
v -12.265609 -5.832568 0.000000
v -12.547273 -6.247390 0.000000
v -12.781903 -6.672520 0.000000
v -12.978549 -7.093329 0.000000
v -13.146260 -7.495189 0.000000
v -13.294086 -7.863472 0.000000
v -13.426050 -8.143182 0.000000
v -13.602109 -8.444823 0.000000
v -13.818661 -8.764521 0.000000
v -14.072104 -9.098398 0.000000
v -14.358839 -9.442581 0.000000
v -14.675265 -9.793195 0.000000
v -15.017782 -10.146364 0.000000
v -15.382789 -10.498215 0.000000
v -15.766686 -10.844870 0.000000
v -16.165873 -11.182455 0.000000
v -16.576746 -11.507095 0.000000
v -16.995712 -11.814917 0.000000
v -17.341646 -12.077388 0.000000
v -17.676071 -12.367979 0.000000
v -17.996981 -12.685728 0.000000
v -18.302364 -13.029673 0.000000
v -18.590219 -13.398849 0.000000
v -18.858538 -13.792295 0.000000
v -19.105316 -14.209050 0.000000
v -19.328543 -14.648149 0.000000
v -19.526213 -15.108631 0.000000
v -19.696321 -15.589532 0.000000
v -19.836863 -16.089891 0.000000
v -19.945829 -16.608746 0.000000
v -20.031023 -17.102514 0.000000
v -20.106115 -17.552572 0.000000
v -20.172110 -17.962383 0.000000
v -20.230017 -18.335415 0.000000
v -20.280846 -18.675129 0.000000
v -20.325600 -18.984991 0.000000
v -20.365290 -19.268465 0.000000
v -20.400921 -19.529016 0.000000
v -20.433502 -19.770109 0.000000
v -20.464041 -19.995209 0.000000
v -20.493544 -20.207781 0.000000
v -20.523020 -20.411285 0.000000
v -20.620354 -20.880009 0.000000
v -20.761002 -21.298071 0.000000
v -20.939169 -21.669201 0.000000
v -21.149061 -21.997122 0.000000
v -21.384888 -22.285561 0.000000
v -21.640850 -22.538248 0.000000
v -21.911160 -22.758909 0.000000
v -22.190018 -22.951271 0.000000
v -22.471636 -23.119061 0.000000
v -22.750216 -23.266006 0.000000
v -23.019964 -23.395832 0.000000
v -23.275091 -23.512270 0.000000
v -24.082775 -23.859037 0.000000
v -24.842821 -24.159557 0.000000
v -25.543890 -24.424974 0.000000
v -26.174646 -24.666441 0.000000
v -26.723755 -24.895100 0.000000
v -27.179876 -25.122103 0.000000
v -27.531675 -25.358593 0.000000
v -27.767817 -25.615723 0.000000
v -27.876961 -25.904634 0.000000
v -27.847776 -26.236481 0.000000
v -27.668922 -26.622406 0.000000
v -27.329069 -27.073557 0.000000
v -27.075327 -27.347015 0.000000
v -26.794270 -27.616634 0.000000
v -26.486847 -27.882996 0.000000
v -26.154005 -28.146685 0.000000
v -25.796694 -28.408283 0.000000
v -25.415861 -28.668381 0.000000
v -25.012461 -28.927555 0.000000
v -24.587437 -29.186396 0.000000
v -24.141737 -29.445484 0.000000
v -23.676315 -29.705406 0.000000
v -23.192116 -29.966745 0.000000
v -22.690088 -30.230083 0.000000
v -22.399891 -30.358719 0.000000
v -22.058155 -30.483046 0.000000
v -21.692236 -30.607494 0.000000
v -21.329489 -30.736500 0.000000
v -20.997269 -30.874491 0.000000
v -20.722931 -31.025902 0.000000
v -20.533831 -31.195160 0.000000
v -20.457319 -31.386703 0.000000
v -20.520756 -31.604961 0.000000
v -20.751493 -31.854364 0.000000
v -21.176886 -32.139347 0.000000
v -21.824287 -32.464340 0.000000
v -22.771416 -32.961708 0.000000
v -23.446730 -33.461761 0.000000
v -23.882568 -33.957733 0.000000
v -24.111267 -34.442856 0.000000
v -24.165163 -34.910362 0.000000
v -24.076593 -35.353485 0.000000
v -23.877893 -35.765453 0.000000
v -23.601402 -36.139503 0.000000
v -23.279457 -36.468864 0.000000
v -22.944393 -36.746769 0.000000
v -22.628550 -36.966446 0.000000
v -22.364258 -37.121124 0.000000
v -16.110998 -39.819794 0.000000
v -9.946276 -41.379650 0.000000
v -3.927365 -41.916222 0.000000
v 1.888458 -41.545021 0.000000
v 7.443921 -40.381569 0.000000
v 12.681748 -38.541382 0.000000
v 17.544666 -36.139984 0.000000
v 21.975399 -33.292885 0.000000
v 25.916676 -30.115610 0.000000
v 29.311218 -26.723675 0.000000
v 32.101757 -23.232595 0.000000
v 34.231003 -19.757883 0.000000
v 34.460445 -19.433800 0.000000
v 34.788166 -19.139997 0.000000
v 35.199356 -18.880650 0.000000
v 35.679226 -18.659922 0.000000
v 36.212967 -18.481985 0.000000
v 36.785782 -18.351011 0.000000
v 37.382870 -18.271170 0.000000
v 37.989433 -18.246628 0.000000
v 38.590668 -18.281559 0.000000
v 39.171776 -18.380133 0.000000
v 39.717957 -18.546516 0.000000
v 40.214409 -18.784885 0.000000
v 41.422455 -19.678722 0.000000
v 42.235653 -20.661291 0.000000
v 42.705338 -21.705971 0.000000
v 42.882843 -22.786135 0.000000
v 42.819496 -23.875160 0.000000
v 42.566635 -24.946426 0.000000
v 42.175587 -25.973309 0.000000
v 41.697681 -26.929182 0.000000
v 41.184254 -27.787422 0.000000
v 40.686638 -28.521412 0.000000
v 40.256161 -29.104525 0.000000
v 39.944153 -29.510134 0.000000
v 38.611526 -31.224463 0.000000
v 37.351536 -32.778851 0.000000
v 36.133442 -34.197800 0.000000
v 34.926514 -35.505817 0.000000
v 33.700020 -36.727398 0.000000
v 32.423229 -37.887051 0.000000
v 31.065407 -39.009277 0.000000
v 29.595825 -40.118572 0.000000
v 27.983749 -41.239445 0.000000
v 26.198446 -42.396393 0.000000
v 24.209188 -43.613922 0.000000
v 21.985241 -44.916542 0.000000
v 21.064943 -45.428829 0.000000
v 20.187780 -45.882111 0.000000
v 19.343176 -46.283245 0.000000
v 18.520557 -46.639095 0.000000
v 17.709347 -46.956528 0.000000
v 16.898972 -47.242397 0.000000
v 16.078856 -47.503567 0.000000
v 15.238422 -47.746895 0.000000
v 14.367098 -47.979248 0.000000
v 13.454308 -48.207481 0.000000
v 12.489476 -48.438461 0.000000
v 11.462029 -48.679043 0.000000
v 10.400978 -48.919891 0.000000
v 9.402584 -49.132030 0.000000
v 8.453824 -49.316936 0.000000
v 7.541677 -49.476093 0.000000
v 6.653121 -49.610977 0.000000
v 5.775136 -49.723072 0.000000
v 4.894699 -49.813862 0.000000
v 3.998789 -49.884819 0.000000
v 3.074386 -49.937431 0.000000
v 2.108468 -49.973183 0.000000
v 1.088013 -49.993542 0.000000
v 0.000000 -50.000000 0.000000
v -1.101495 -49.990509 0.000000
v -2.157493 -49.962147 0.000000
v -3.173663 -49.915092 0.000000
v -4.155671 -49.849518 0.000000
v -5.109186 -49.765598 0.000000
v -6.039874 -49.663506 0.000000
v -6.953404 -49.543411 0.000000
v -7.855442 -49.405491 0.000000
v -8.751657 -49.249924 0.000000
v -9.647715 -49.076878 0.000000
v -10.549285 -48.886524 0.000000
v -11.462030 -48.679047 0.000000
v -12.378968 -48.454617 0.000000
v -13.289211 -48.213402 0.000000
v -14.192589 -47.955578 0.000000
v -15.088923 -47.681324 0.000000
v -15.978043 -47.390808 0.000000
v -16.859774 -47.084206 0.000000
v -17.733940 -46.761696 0.000000
v -18.600372 -46.423443 0.000000
v -19.458891 -46.069630 0.000000
v -20.309326 -45.700428 0.000000
v -21.151503 -45.316010 0.000000
v -21.985247 -44.916546 0.000000
v -22.810383 -44.502216 0.000000
v -23.626740 -44.073193 0.000000
v -24.434141 -43.629654 0.000000
v -25.232414 -43.171764 0.000000
v -26.021385 -42.699699 0.000000
v -26.800880 -42.213638 0.000000
v -27.570724 -41.713757 0.000000
v -28.330744 -41.200222 0.000000
v -29.080763 -40.673210 0.000000
v -29.820612 -40.132896 0.000000
v -30.550116 -39.579453 0.000000
v -31.269104 -39.013054 0.000000
v -31.977394 -38.433872 0.000000
v -32.674816 -37.842087 0.000000
v -33.361198 -37.237869 0.000000
v -34.036362 -36.621387 0.000000
v -34.700138 -35.992825 0.000000
v -35.352348 -35.352348 0.000000
v -35.992825 -34.700138 0.000000
v -36.621387 -34.036362 0.000000
v -37.237869 -33.361198 0.000000
v -37.842087 -32.674816 0.000000
v -38.433872 -31.977394 0.000000
v -39.013050 -31.269100 0.000000
v -39.579449 -30.550116 0.000000
v -40.132893 -29.820612 0.000000
v -40.673206 -29.080761 0.000000
v -41.200218 -28.330738 0.000000
v -41.713753 -27.570719 0.000000
v -42.213638 -26.800875 0.000000
v -42.699699 -26.021379 0.000000
v -43.171761 -25.232407 0.000000
v -43.629650 -24.434134 0.000000
v -44.073193 -23.626732 0.000000
v -44.502213 -22.810375 0.000000
v -44.916542 -21.985241 0.000000
v -45.316002 -21.151499 0.000000
v -45.700420 -20.309322 0.000000
v -46.069626 -19.458887 0.000000
v -46.423439 -18.600367 0.000000
v -46.761688 -17.733936 0.000000
v -47.084202 -16.859768 0.000000
v -47.390800 -15.978039 0.000000
v -47.681316 -15.088919 0.000000
v -47.955574 -14.192584 0.000000
v -48.213394 -13.289207 0.000000
v -48.454609 -12.378963 0.000000
v -48.679043 -11.462029 0.000000
v -48.886520 -10.538571 0.000000
v -49.076870 -9.608768 0.000000
v -49.249916 -8.672794 0.000000
v -49.405487 -7.730823 0.000000
v -49.543404 -6.783027 0.000000
v -49.663498 -5.829582 0.000000
v -49.765594 -4.870660 0.000000
v -49.849518 -3.906436 0.000000
v -49.915092 -2.937084 0.000000
v -49.962147 -1.962778 0.000000
v -49.990509 -0.983692 0.000000
v -50.000000 0.000000 0.000000
v -49.998131 0.971415 0.000000
v -49.989868 1.918133 0.000000
v -49.971222 2.846677 0.000000
v -49.938217 3.763569 0.000000
v -49.886864 4.675333 0.000000
v -49.813183 5.588493 0.000000
v -49.713184 6.509570 0.000000
v -49.582890 7.445088 0.000000
v -49.418312 8.401569 0.000000
v -49.215469 9.385539 0.000000
v -48.970375 10.403518 0.000000
v -48.679047 11.462030 0.000000
v -48.389389 12.433806 0.000000
v -48.098293 13.367587 0.000000
v -47.804066 14.264132 0.000000
v -47.505020 15.124202 0.000000
v -47.199459 15.948556 0.000000
v -46.885696 16.737955 0.000000
v -46.562035 17.493162 0.000000
v -46.226780 18.214931 0.000000
v -45.878246 18.904028 0.000000
v -45.514740 19.561213 0.000000
v -45.134563 20.187244 0.000000
v -44.736034 20.782883 0.000000
v -44.539051 21.008688 0.000000
v -44.337936 21.141422 0.000000
v -44.135033 21.192402 0.000000
v -43.932686 21.172949 0.000000
v -43.733238 21.094379 0.000000
v -43.539040 20.968012 0.000000
v -43.352436 20.805170 0.000000
v -43.175774 20.617168 0.000000
v -43.011391 20.415327 0.000000
v -42.861641 20.210966 0.000000
v -42.728867 20.015404 0.000000
v -42.615410 19.839960 0.000000
v -42.089249 19.196276 0.000000
v -41.439785 18.688307 0.000000
v -40.693962 18.306623 0.000000
v -39.878712 18.041800 0.000000
v -39.020966 17.884409 0.000000
v -38.147655 17.825024 0.000000
v -37.285717 17.854218 0.000000
v -36.462086 17.962561 0.000000
v -35.703693 18.140627 0.000000
v -35.037479 18.378990 0.000000
v -34.490368 18.668226 0.000000
v -34.089298 18.998901 0.000000
v -33.567204 19.609251 0.000000
v -33.158634 20.166216 0.000000
v -32.822929 20.698458 0.000000
v -32.519432 21.234646 0.000000
v -32.207485 21.803440 0.000000
v -31.846428 22.433510 0.000000
v -31.395603 23.153521 0.000000
v -30.814350 23.992136 0.000000
v -30.062014 24.978022 0.000000
v -29.097933 26.139843 0.000000
v -27.881449 27.506266 0.000000
v -26.371908 29.105953 0.000000
v -24.914680 30.455610 0.000000
v -22.822607 32.099049 0.000000
v -20.149137 33.907330 0.000000
v -16.947721 35.751526 0.000000
v -13.271809 37.502697 0.000000
v -9.174848 39.031910 0.000000
v -4.710289 40.210232 0.000000
v 0.068418 40.908726 0.000000
v 5.107823 40.998463 0.000000
v 10.354477 40.350498 0.000000
v 15.754932 38.835911 0.000000
v 21.255739 36.325752 0.000000
v 21.808826 35.987751 0.000000
v 22.205275 35.675991 0.000000
v 22.463371 35.389309 0.000000
v 22.601408 35.126541 0.000000
v 22.637676 34.886517 0.000000
v 22.590469 34.668076 0.000000
v 22.478073 34.470047 0.000000
v 22.318781 34.291271 0.000000
v 22.130882 34.130577 0.000000
v 21.932671 33.986797 0.000000
v 21.742435 33.858772 0.000000
v 21.578472 33.745338 0.000000
v 20.444252 32.850925 0.000000
v 19.657177 32.102207 0.000000
v 19.177298 31.483709 0.000000
v 18.964657 30.979979 0.000000
v 18.979305 30.575550 0.000000
v 19.181290 30.254959 0.000000
v 19.530655 30.002748 0.000000
v 19.987450 29.803455 0.000000
v 20.511719 29.641617 0.000000
v 21.063515 29.501772 0.000000
v 21.602879 29.368460 0.000000
v 22.089857 29.226217 0.000000
v 23.834791 28.576500 0.000000
v 25.093985 27.986523 0.000000
v 25.921059 27.452999 0.000000
v 26.369640 26.972639 0.000000
v 26.493355 26.542150 0.000000
v 26.345829 26.158243 0.000000
v 25.980680 25.817629 0.000000
v 25.451542 25.517019 0.000000
v 24.812035 25.253122 0.000000
v 24.115784 25.022650 0.000000
v 23.416414 24.822311 0.000000
v 22.767553 24.648823 0.000000
v 22.007826 24.407133 0.000000
v 21.394344 24.125719 0.000000
v 20.910336 23.800810 0.000000
v 20.539019 23.428635 0.000000
v 20.263620 23.005428 0.000000
v 20.067364 22.527414 0.000000
v 19.933474 21.990828 0.000000
v 19.845177 21.391899 0.000000
v 19.785692 20.726854 0.000000
v 19.738249 19.991928 0.000000
v 19.686068 19.183348 0.000000
v 19.612375 18.297348 0.000000
v 19.457865 17.123117 0.000000
v 19.240751 16.119034 0.000000
v 18.961489 15.266540 0.000000
v 18.620531 14.547075 0.000000
v 18.218332 13.942083 0.000000
v 17.755348 13.433005 0.000000
v 17.232031 13.001280 0.000000
v 16.648838 12.628349 0.000000
v 16.006222 12.295657 0.000000
v 15.304635 11.984643 0.000000
v 14.544537 11.676749 0.000000
v 13.726382 11.353414 0.000000
v 13.345016 11.136373 0.000000
v 13.080637 10.849085 0.000000
v 12.909383 10.502429 0.000000
v 12.807390 10.107285 0.000000
v 12.750798 9.674530 0.000000
v 12.715747 9.215045 0.000000
v 12.678373 8.739707 0.000000
v 12.614817 8.259396 0.000000
v 12.501214 7.784989 0.000000
v 12.313705 7.327367 0.000000
v 12.028428 6.897408 0.000000
v 11.621521 6.505991 0.000000
v 11.339246 6.315321 0.000000
v 11.010711 6.143525 0.000000
v 10.642307 5.993575 0.000000
v 10.240424 5.868440 0.000000
v 9.811451 5.771091 0.000000
v 9.361778 5.704499 0.000000
v 8.897795 5.671634 0.000000
v 8.425892 5.675465 0.000000
v 7.952457 5.718965 0.000000
v 7.483881 5.805101 0.000000
v 7.026554 5.936845 0.000000
v 6.586864 6.117168 0.000000
v 6.004657 6.401868 0.000000
v 5.473973 6.674557 0.000000
v 4.987008 6.941517 0.000000
v 4.535957 7.209029 0.000000
v 4.113016 7.483376 0.000000
v 3.710378 7.770839 0.000000
v 3.320240 8.077700 0.000000
v 2.934795 8.410241 0.000000
v 2.546241 8.774743 0.000000
v 2.146771 9.177489 0.000000
v 1.728580 9.624762 0.000000
v 1.283864 10.122841 0.000000
v 0.540176 10.877007 0.000000
v -0.197559 11.452790 0.000000
v -0.921528 11.867293 0.000000
v -1.623914 12.137621 0.000000
v -2.296905 12.280876 0.000000
v -2.932683 12.314162 0.000000
v -3.523436 12.254583 0.000000
v -4.061348 12.119242 0.000000
v -4.538605 11.925242 0.000000
v -4.947392 11.689689 0.000000
v -5.279893 11.429684 0.000000
v -5.528296 11.162331 0.000000
v -6.158793 10.158720 0.000000
v -6.519106 9.181629 0.000000
v -6.648082 8.240179 0.000000
v -6.584565 7.343491 0.000000
v -6.367404 6.500684 0.000000
v -6.035443 5.720882 0.000000
v -5.627529 5.013204 0.000000
v -5.182507 4.386770 0.000000
v -4.739224 3.850703 0.000000
v -4.336525 3.414122 0.000000
v -4.013258 3.086149 0.000000
v -3.808264 2.875905 0.000000
v -2.819295 1.838433 0.000000
v -1.742369 0.809356 0.000000
v -0.614573 -0.209160 0.000000
v 0.527008 -1.214948 0.000000
v 1.645285 -2.205842 0.000000
v 2.703172 -3.179674 0.000000
v 3.663582 -4.134279 0.000000
v 4.489429 -5.067491 0.000000
v 5.143626 -5.977143 0.000000
v 5.589084 -6.861068 0.000000
v 5.788719 -7.717099 0.000000
v 5.705444 -8.543072 0.000000
v 5.214513 -9.757438 0.000000
v 4.600167 -10.567851 0.000000
v 3.891184 -11.027282 0.000000
v 3.116342 -11.188702 0.000000
v 2.304419 -11.105082 0.000000
v 1.484195 -10.829391 0.000000
v 0.684447 -10.414600 0.000000
v -0.066046 -9.913681 0.000000
v -0.738505 -9.379604 0.000000
v -1.304152 -8.865340 0.000000
v -1.734208 -8.423859 0.000000
v -1.999897 -8.108137 0.000000
v -2.437577 -7.538827 0.000000
v -2.865971 -7.031041 0.000000
v -3.292251 -6.580731 0.000000
v -3.723588 -6.183847 0.000000
v -4.167154 -5.836339 0.000000
v -4.630119 -5.534160 0.000000
v -5.119655 -5.273259 0.000000
v -5.642932 -5.049587 0.000000
v -6.207123 -4.859096 0.000000
v -6.819398 -4.697736 0.000000
v -7.486929 -4.561458 0.000000
v -8.216887 -4.446212 0.000000
v -9.081163 -4.379285 0.000000
v -9.835062 -4.425065 0.000000
v -10.487633 -4.568923 0.000000
v -11.047923 -4.796231 0.000000
v -11.524982 -5.092360 0.000000
v -11.927862 -5.442681 0.000000
v -12.265609 -5.832568 0.000000
v -12.547273 -6.247390 0.000000
v -12.781903 -6.672520 0.000000
v -12.978549 -7.093329 0.000000
v -13.146260 -7.495189 0.000000
v -13.294086 -7.863472 0.000000
v -13.426050 -8.143182 0.000000
v -13.602109 -8.444823 0.000000
v -13.818661 -8.764521 0.000000
v -14.072104 -9.098398 0.000000
v -14.358839 -9.442581 0.000000
v -14.675265 -9.793195 0.000000
v -15.017782 -10.146364 0.000000
v -15.382789 -10.498215 0.000000
v -15.766686 -10.844870 0.000000
v -16.165873 -11.182455 0.000000
v -16.576746 -11.507095 0.000000
v -16.995712 -11.814917 0.000000
v -17.341646 -12.077388 0.000000
v -17.676071 -12.367979 0.000000
v -17.996981 -12.685728 0.000000
v -18.302364 -13.029673 0.000000
v -18.590219 -13.398849 0.000000
v -18.858538 -13.792295 0.000000
v -19.105316 -14.209050 0.000000
v -19.328543 -14.648149 0.000000
v -19.526213 -15.108631 0.000000
v -19.696321 -15.589532 0.000000
v -19.836863 -16.089891 0.000000
v -19.945829 -16.608746 0.000000
v -20.031023 -17.102514 0.000000
v -20.106115 -17.552572 0.000000
v -20.172110 -17.962383 0.000000
v -20.230017 -18.335415 0.000000
v -20.280846 -18.675129 0.000000
v -20.325600 -18.984991 0.000000
v -20.365290 -19.268465 0.000000
v -20.400921 -19.529016 0.000000
v -20.433502 -19.770109 0.000000
v -20.464041 -19.995209 0.000000
v -20.493544 -20.207781 0.000000
v -20.523020 -20.411285 0.000000
v -20.620354 -20.880009 0.000000
v -20.761002 -21.298071 0.000000
v -20.939169 -21.669201 0.000000
v -21.149061 -21.997122 0.000000
v -21.384888 -22.285561 0.000000
v -21.640850 -22.538248 0.000000
v -21.911160 -22.758909 0.000000
v -22.190018 -22.951271 0.000000
v -22.471636 -23.119061 0.000000
v -22.750216 -23.266006 0.000000
v -23.019964 -23.395832 0.000000
v -23.275091 -23.512270 0.000000
v -24.082775 -23.859037 0.000000
v -24.842821 -24.159557 0.000000
v -25.543890 -24.424974 0.000000
v -26.174646 -24.666441 0.000000
v -26.723755 -24.895100 0.000000
v -27.179876 -25.122103 0.000000
v -27.531675 -25.358593 0.000000
v -27.767817 -25.615723 0.000000
v -27.876961 -25.904634 0.000000
v -27.847776 -26.236481 0.000000
v -27.668922 -26.622406 0.000000
v -27.329069 -27.073557 0.000000
v -27.075327 -27.347015 0.000000
v -26.794270 -27.616634 0.000000
v -26.486847 -27.882996 0.000000
v -26.154005 -28.146685 0.000000
v -25.796694 -28.408283 0.000000
v -25.415861 -28.668381 0.000000
v -25.012461 -28.927555 0.000000
v -24.587437 -29.186396 0.000000
v -24.141737 -29.445484 0.000000
v -23.676315 -29.705406 0.000000
v -23.192116 -29.966745 0.000000
v -22.690088 -30.230083 0.000000
v -22.399891 -30.358719 0.000000
v -22.058155 -30.483046 0.000000
v -21.692236 -30.607494 0.000000
v -21.329489 -30.736500 0.000000
v -20.997269 -30.874491 0.000000
v -20.722931 -31.025902 0.000000
v -20.533831 -31.195160 0.000000
v -20.457319 -31.386703 0.000000
v -20.520756 -31.604961 0.000000
v -20.751493 -31.854364 0.000000
v -21.176886 -32.139347 0.000000
v -21.824287 -32.464340 0.000000
v -22.771416 -32.961708 0.000000
v -23.446730 -33.461761 0.000000
v -23.882568 -33.957733 0.000000
v -24.111267 -34.442856 0.000000
v -24.165163 -34.910362 0.000000
v -24.076593 -35.353485 0.000000
v -23.877893 -35.765453 0.000000
v -23.601402 -36.139503 0.000000
v -23.279457 -36.468864 0.000000
v -22.944393 -36.746769 0.000000
v -22.628550 -36.966446 0.000000
v -22.364258 -37.121124 0.000000
v -16.110998 -39.819794 0.000000
v -9.946276 -41.379650 0.000000
v -3.927365 -41.916222 0.000000
v 1.888458 -41.545021 0.000000
v 7.443921 -40.381569 0.000000
v 12.681748 -38.541382 0.000000
v 17.544666 -36.139984 0.000000
v 21.975399 -33.292885 0.000000
v 25.916676 -30.115610 0.000000
v 29.311218 -26.723675 0.000000
v 32.101757 -23.232595 0.000000
v 34.231003 -19.757883 0.000000
v 34.460445 -19.433800 0.000000
v 34.788166 -19.139997 0.000000
v 35.199356 -18.880650 0.000000
v 35.679226 -18.659922 0.000000
v 36.212967 -18.481985 0.000000
v 36.785782 -18.351011 0.000000
v 37.382870 -18.271170 0.000000
v 37.989433 -18.246628 0.000000
v 38.590668 -18.281559 0.000000
v 39.171776 -18.380133 0.000000
v 39.717957 -18.546516 0.000000
v 40.214409 -18.784885 0.000000
v 41.422455 -19.678722 0.000000
v 42.235653 -20.661291 0.000000
v 42.705338 -21.705971 0.000000
v 42.882843 -22.786135 0.000000
v 42.819496 -23.875160 0.000000
v 42.566635 -24.946426 0.000000
v 42.175587 -25.973309 0.000000
v 41.697681 -26.929182 0.000000
v 41.184254 -27.787422 0.000000
v 40.686638 -28.521412 0.000000
v 40.256161 -29.104525 0.000000
v 39.944153 -29.510134 0.000000
v 38.611526 -31.224463 0.000000
v 37.351536 -32.778851 0.000000
v 36.133442 -34.197800 0.000000
v 34.926514 -35.505817 0.000000
v 33.700020 -36.727398 0.000000
v 32.423229 -37.887051 0.000000
v 31.065407 -39.009277 0.000000
v 29.595825 -40.118572 0.000000
v 27.983749 -41.239445 0.000000
v 26.198446 -42.396393 0.000000
v 24.209188 -43.613922 0.000000
v 21.985241 -44.916542 0.000000
v 21.064943 -45.428829 0.000000
v 20.187780 -45.882111 0.000000
v 19.343176 -46.283245 0.000000
v 18.520557 -46.639095 0.000000
v 17.709347 -46.956528 0.000000
v 16.898972 -47.242397 0.000000
v 16.078856 -47.503567 0.000000
v 15.238422 -47.746895 0.000000
v 14.367098 -47.979248 0.000000
v 13.454308 -48.207481 0.000000
v 12.489476 -48.438461 0.000000
v 11.462029 -48.679043 0.000000
v 10.400978 -48.919891 0.000000
v 9.402584 -49.132030 0.000000
v 8.453824 -49.316936 0.000000
v 7.541677 -49.476093 0.000000
v 6.653121 -49.610977 0.000000
v 5.775136 -49.723072 0.000000
v 4.894699 -49.813862 0.000000
v 3.998789 -49.884819 0.000000
v 3.074386 -49.937431 0.000000
v 2.108468 -49.973183 0.000000
v 1.088013 -49.993542 0.000000
v 0.000000 -50.000000 0.000000
v -1.101495 -49.990509 0.000000
v -2.157493 -49.962147 0.000000
v -3.173663 -49.915092 0.000000
v -4.155671 -49.849518 0.000000
v -5.109186 -49.765598 0.000000
v -6.039874 -49.663506 0.000000
v -6.953404 -49.543411 0.000000
v -7.855442 -49.405491 0.000000
v -8.751657 -49.249924 0.000000
v -9.647715 -49.076878 0.000000
v -10.549285 -48.886524 0.000000
v -11.462030 -48.679047 0.000000
v -12.378968 -48.454617 0.000000
v -13.289211 -48.213402 0.000000
v -14.192589 -47.955578 0.000000
v -15.088923 -47.681324 0.000000
v -15.978043 -47.390808 0.000000
v -16.859774 -47.084206 0.000000
v -17.733940 -46.761696 0.000000
v -18.600372 -46.423443 0.000000
v -19.458891 -46.069630 0.000000
v -20.309326 -45.700428 0.000000
v -21.151503 -45.316010 0.000000
v -21.985247 -44.916546 0.000000
v -22.810383 -44.502216 0.000000
v -23.626740 -44.073193 0.000000
v -24.434141 -43.629654 0.000000
v -25.232414 -43.171764 0.000000
v -26.021385 -42.699699 0.000000
v -26.800880 -42.213638 0.000000
v -27.570724 -41.713757 0.000000
v -28.330744 -41.200222 0.000000
v -29.080763 -40.673210 0.000000
v -29.820612 -40.132896 0.000000
v -30.550116 -39.579453 0.000000
v -31.269104 -39.013054 0.000000
v -31.977394 -38.433872 0.000000
v -32.674816 -37.842087 0.000000
v -33.361198 -37.237869 0.000000
v -34.036362 -36.621387 0.000000
v -34.700138 -35.992825 0.000000
v -35.352348 -35.352348 0.000000
v -35.992825 -34.700138 0.000000
v -36.621387 -34.036362 0.000000
v -37.237869 -33.361198 0.000000
v -37.842087 -32.674816 0.000000
v -38.433872 -31.977394 0.000000
v -39.013050 -31.269100 0.000000
v -39.579449 -30.550116 0.000000
v -40.132893 -29.820612 0.000000
v -40.673206 -29.080761 0.000000
v -41.200218 -28.330738 0.000000
v -41.713753 -27.570719 0.000000
v -42.213638 -26.800875 0.000000
v -42.699699 -26.021379 0.000000
v -43.171761 -25.232407 0.000000
v -43.629650 -24.434134 0.000000
v -44.073193 -23.626732 0.000000
v -44.502213 -22.810375 0.000000
v -44.916542 -21.985241 0.000000
v -45.316002 -21.151499 0.000000
v -45.700420 -20.309322 0.000000
v -46.069626 -19.458887 0.000000
v -46.423439 -18.600367 0.000000
v -46.761688 -17.733936 0.000000
v -47.084202 -16.859768 0.000000
v -47.390800 -15.978039 0.000000
v -47.681316 -15.088919 0.000000
v -47.955574 -14.192584 0.000000
v -48.213394 -13.289207 0.000000
v -48.454609 -12.378963 0.000000
v -48.679043 -11.462029 0.000000
v -48.886520 -10.538571 0.000000
v -49.076870 -9.608768 0.000000
v -49.249916 -8.672794 0.000000
v -49.405487 -7.730823 0.000000
v -49.543404 -6.783027 0.000000
v -49.663498 -5.829582 0.000000
v -49.765594 -4.870660 0.000000
v -49.849518 -3.906436 0.000000
v -49.915092 -2.937084 0.000000
v -49.962147 -1.962778 0.000000
v -49.990509 -0.983692 0.000000
v -50.000000 0.000000 5.000000
v -49.998131 0.971415 5.000000
v -49.989868 1.918133 5.000000
v -49.971222 2.846677 5.000000
v -49.938217 3.763569 5.000000
v -49.886864 4.675333 5.000000
v -49.813183 5.588493 5.000000
v -49.713184 6.509570 5.000000
v -49.582890 7.445088 5.000000
v -49.418312 8.401569 5.000000
v -49.215469 9.385539 5.000000
v -48.970375 10.403518 5.000000
v -48.679047 11.462030 5.000000
v -48.389389 12.433806 5.000000
v -48.098293 13.367587 5.000000
v -47.804066 14.264132 5.000000
v -47.505020 15.124202 5.000000
v -47.199459 15.948556 5.000000
v -46.885696 16.737955 5.000000
v -46.562035 17.493162 5.000000
v -46.226780 18.214931 5.000000
v -45.878246 18.904028 5.000000
v -45.514740 19.561213 5.000000
v -45.134563 20.187244 5.000000
v -44.736034 20.782883 5.000000
v -44.539051 21.008688 5.000000
v -44.337936 21.141422 5.000000
v -44.135033 21.192402 5.000000
v -43.932686 21.172949 5.000000
v -43.733238 21.094379 5.000000
v -43.539040 20.968012 5.000000
v -43.352436 20.805170 5.000000
v -43.175774 20.617168 5.000000
v -43.011391 20.415327 5.000000
v -42.861641 20.210966 5.000000
v -42.728867 20.015404 5.000000
v -42.615410 19.839960 5.000000
v -42.089249 19.196276 5.000000
v -41.439785 18.688307 5.000000
v -40.693962 18.306623 5.000000
v -39.878712 18.041800 5.000000
v -39.020966 17.884409 5.000000
v -38.147655 17.825024 5.000000
v -37.285717 17.854218 5.000000
v -36.462086 17.962561 5.000000
v -35.703693 18.140627 5.000000
v -35.037479 18.378990 5.000000
v -34.490368 18.668226 5.000000
v -34.089298 18.998901 5.000000
v -33.567204 19.609251 5.000000
v -33.158634 20.166216 5.000000
v -32.822929 20.698458 5.000000
v -32.519432 21.234646 5.000000
v -32.207485 21.803440 5.000000
v -31.846428 22.433510 5.000000
v -31.395603 23.153521 5.000000
v -30.814350 23.992136 5.000000
v -30.062014 24.978022 5.000000
v -29.097933 26.139843 5.000000
v -27.881449 27.506266 5.000000
v -26.371908 29.105953 5.000000
v -24.914680 30.455610 5.000000
v -22.822607 32.099049 5.000000
v -20.149137 33.907330 5.000000
v -16.947721 35.751526 5.000000
v -13.271809 37.502697 5.000000
v -9.174848 39.031910 5.000000
v -4.710289 40.210232 5.000000
v 0.068418 40.908726 5.000000
v 5.107823 40.998463 5.000000
v 10.354477 40.350498 5.000000
v 15.754932 38.835911 5.000000
v 21.255739 36.325752 5.000000
v 21.808826 35.987751 5.000000
v 22.205275 35.675991 5.000000
v 22.463371 35.389309 5.000000
v 22.601408 35.126541 5.000000
v 22.637676 34.886517 5.000000
v 22.590469 34.668076 5.000000
v 22.478073 34.470047 5.000000
v 22.318781 34.291271 5.000000
v 22.130882 34.130577 5.000000
v 21.932671 33.986797 5.000000
v 21.742435 33.858772 5.000000
v 21.578472 33.745338 5.000000
v 20.444252 32.850925 5.000000
v 19.657177 32.102207 5.000000
v 19.177298 31.483709 5.000000
v 18.964657 30.979979 5.000000
v 18.979305 30.575550 5.000000
v 19.181290 30.254959 5.000000
v 19.530655 30.002748 5.000000
v 19.987450 29.803455 5.000000
v 20.511719 29.641617 5.000000
v 21.063515 29.501772 5.000000
v 21.602879 29.368460 5.000000
v 22.089857 29.226217 5.000000
v 23.834791 28.576500 5.000000
v 25.093985 27.986523 5.000000
v 25.921059 27.452999 5.000000
v 26.369640 26.972639 5.000000
v 26.493355 26.542150 5.000000
v 26.345829 26.158243 5.000000
v 25.980680 25.817629 5.000000
v 25.451542 25.517019 5.000000
v 24.812035 25.253122 5.000000
v 24.115784 25.022650 5.000000
v 23.416414 24.822311 5.000000
v 22.767553 24.648823 5.000000
v 22.007826 24.407133 5.000000
v 21.394344 24.125719 5.000000
v 20.910336 23.800810 5.000000
v 20.539019 23.428635 5.000000
v 20.263620 23.005428 5.000000
v 20.067364 22.527414 5.000000
v 19.933474 21.990828 5.000000
v 19.845177 21.391899 5.000000
v 19.785692 20.726854 5.000000
v 19.738249 19.991928 5.000000
v 19.686068 19.183348 5.000000
v 19.612375 18.297348 5.000000
v 19.457865 17.123117 5.000000
v 19.240751 16.119034 5.000000
v 18.961489 15.266540 5.000000
v 18.620531 14.547075 5.000000
v 18.218332 13.942083 5.000000
v 17.755348 13.433005 5.000000
v 17.232031 13.001280 5.000000
v 16.648838 12.628349 5.000000
v 16.006222 12.295657 5.000000
v 15.304635 11.984643 5.000000
v 14.544537 11.676749 5.000000
v 13.726382 11.353414 5.000000
v 13.345016 11.136373 5.000000
v 13.080637 10.849085 5.000000
v 12.909383 10.502429 5.000000
v 12.807390 10.107285 5.000000
v 12.750798 9.674530 5.000000
v 12.715747 9.215045 5.000000
v 12.678373 8.739707 5.000000
v 12.614817 8.259396 5.000000
v 12.501214 7.784989 5.000000
v 12.313705 7.327367 5.000000
v 12.028428 6.897408 5.000000
v 11.621521 6.505991 5.000000
v 11.339246 6.315321 5.000000
v 11.010711 6.143525 5.000000
v 10.642307 5.993575 5.000000
v 10.240424 5.868440 5.000000
v 9.811451 5.771091 5.000000
v 9.361778 5.704499 5.000000
v 8.897795 5.671634 5.000000
v 8.425892 5.675465 5.000000
v 7.952457 5.718965 5.000000
v 7.483881 5.805101 5.000000
v 7.026554 5.936845 5.000000
v 6.586864 6.117168 5.000000
v 6.004657 6.401868 5.000000
v 5.473973 6.674557 5.000000
v 4.987008 6.941517 5.000000
v 4.535957 7.209029 5.000000
v 4.113016 7.483376 5.000000
v 3.710378 7.770839 5.000000
v 3.320240 8.077700 5.000000
v 2.934795 8.410241 5.000000
v 2.546241 8.774743 5.000000
v 2.146771 9.177489 5.000000
v 1.728580 9.624762 5.000000
v 1.283864 10.122841 5.000000
v 0.540176 10.877007 5.000000
v -0.197559 11.452790 5.000000
v -0.921528 11.867293 5.000000
v -1.623914 12.137621 5.000000
v -2.296905 12.280876 5.000000
v -2.932683 12.314162 5.000000
v -3.523436 12.254583 5.000000
v -4.061348 12.119242 5.000000
v -4.538605 11.925242 5.000000
v -4.947392 11.689689 5.000000
v -5.279893 11.429684 5.000000
v -5.528296 11.162331 5.000000
v -6.158793 10.158720 5.000000
v -6.519106 9.181629 5.000000
v -6.648082 8.240179 5.000000
v -6.584565 7.343491 5.000000
v -6.367404 6.500684 5.000000
v -6.035443 5.720882 5.000000
v -5.627529 5.013204 5.000000
v -5.182507 4.386770 5.000000
v -4.739224 3.850703 5.000000
v -4.336525 3.414122 5.000000
v -4.013258 3.086149 5.000000
v -3.808264 2.875905 5.000000
v -2.819295 1.838433 5.000000
v -1.742369 0.809356 5.000000
v -0.614573 -0.209160 5.000000
v 0.527008 -1.214948 5.000000
v 1.645285 -2.205842 5.000000
v 2.703172 -3.179674 5.000000
v 3.663582 -4.134279 5.000000
v 4.489429 -5.067491 5.000000
v 5.143626 -5.977143 5.000000
v 5.589084 -6.861068 5.000000
v 5.788719 -7.717099 5.000000
v 5.705444 -8.543072 5.000000
v 5.214513 -9.757438 5.000000
v 4.600167 -10.567851 5.000000
v 3.891184 -11.027282 5.000000
v 3.116342 -11.188702 5.000000
v 2.304419 -11.105082 5.000000
v 1.484195 -10.829391 5.000000
v 0.684447 -10.414600 5.000000
v -0.066046 -9.913681 5.000000
v -0.738505 -9.379604 5.000000
v -1.304152 -8.865340 5.000000
v -1.734208 -8.423859 5.000000
v -1.999897 -8.108137 5.000000
v -2.437577 -7.538827 5.000000
v -2.865971 -7.031041 5.000000
v -3.292251 -6.580731 5.000000
v -3.723588 -6.183847 5.000000
v -4.167154 -5.836339 5.000000
v -4.630119 -5.534160 5.000000
v -5.119655 -5.273259 5.000000
v -5.642932 -5.049587 5.000000
v -6.207123 -4.859096 5.000000
v -6.819398 -4.697736 5.000000
v -7.486929 -4.561458 5.000000
v -8.216887 -4.446212 5.000000
v -9.081163 -4.379285 5.000000
v -9.835062 -4.425065 5.000000
v -10.487633 -4.568923 5.000000
v -11.047923 -4.796231 5.000000
v -11.524982 -5.092360 5.000000
v -11.927862 -5.442681 5.000000
v -12.265609 -5.832568 5.000000
v -12.547273 -6.247390 5.000000
v -12.781903 -6.672520 5.000000
v -12.978549 -7.093329 5.000000
v -13.146260 -7.495189 5.000000
v -13.294086 -7.863472 5.000000
v -13.426050 -8.143182 5.000000
v -13.602109 -8.444823 5.000000
v -13.818661 -8.764521 5.000000
v -14.072104 -9.098398 5.000000
v -14.358839 -9.442581 5.000000
v -14.675265 -9.793195 5.000000
v -15.017782 -10.146364 5.000000
v -15.382789 -10.498215 5.000000
v -15.766686 -10.844870 5.000000
v -16.165873 -11.182455 5.000000
v -16.576746 -11.507095 5.000000
v -16.995712 -11.814917 5.000000
v -17.341646 -12.077388 5.000000
v -17.676071 -12.367979 5.000000
v -17.996981 -12.685728 5.000000
v -18.302364 -13.029673 5.000000
v -18.590219 -13.398849 5.000000
v -18.858538 -13.792295 5.000000
v -19.105316 -14.209050 5.000000
v -19.328543 -14.648149 5.000000
v -19.526213 -15.108631 5.000000
v -19.696321 -15.589532 5.000000
v -19.836863 -16.089891 5.000000
v -19.945829 -16.608746 5.000000
v -20.031023 -17.102514 5.000000
v -20.106115 -17.552572 5.000000
v -20.172110 -17.962383 5.000000
v -20.230017 -18.335415 5.000000
v -20.280846 -18.675129 5.000000
v -20.325600 -18.984991 5.000000
v -20.365290 -19.268465 5.000000
v -20.400921 -19.529016 5.000000
v -20.433502 -19.770109 5.000000
v -20.464041 -19.995209 5.000000
v -20.493544 -20.207781 5.000000
v -20.523020 -20.411285 5.000000
v -20.620354 -20.880009 5.000000
v -20.761002 -21.298071 5.000000
v -20.939169 -21.669201 5.000000
v -21.149061 -21.997122 5.000000
v -21.384888 -22.285561 5.000000
v -21.640850 -22.538248 5.000000
v -21.911160 -22.758909 5.000000
v -22.190018 -22.951271 5.000000
v -22.471636 -23.119061 5.000000
v -22.750216 -23.266006 5.000000
v -23.019964 -23.395832 5.000000
v -23.275091 -23.512270 5.000000
v -24.082775 -23.859037 5.000000
v -24.842821 -24.159557 5.000000
v -25.543890 -24.424974 5.000000
v -26.174646 -24.666441 5.000000
v -26.723755 -24.895100 5.000000
v -27.179876 -25.122103 5.000000
v -27.531675 -25.358593 5.000000
v -27.767817 -25.615723 5.000000
v -27.876961 -25.904634 5.000000
v -27.847776 -26.236481 5.000000
v -27.668922 -26.622406 5.000000
v -27.329069 -27.073557 5.000000
v -27.075327 -27.347015 5.000000
v -26.794270 -27.616634 5.000000
v -26.486847 -27.882996 5.000000
v -26.154005 -28.146685 5.000000
v -25.796694 -28.408283 5.000000
v -25.415861 -28.668381 5.000000
v -25.012461 -28.927555 5.000000
v -24.587437 -29.186396 5.000000
v -24.141737 -29.445484 5.000000
v -23.676315 -29.705406 5.000000
v -23.192116 -29.966745 5.000000
v -22.690088 -30.230083 5.000000
v -22.399891 -30.358719 5.000000
v -22.058155 -30.483046 5.000000
v -21.692236 -30.607494 5.000000
v -21.329489 -30.736500 5.000000
v -20.997269 -30.874491 5.000000
v -20.722931 -31.025902 5.000000
v -20.533831 -31.195160 5.000000
v -20.457319 -31.386703 5.000000
v -20.520756 -31.604961 5.000000
v -20.751493 -31.854364 5.000000
v -21.176886 -32.139347 5.000000
v -21.824287 -32.464340 5.000000
v -22.771416 -32.961708 5.000000
v -23.446730 -33.461761 5.000000
v -23.882568 -33.957733 5.000000
v -24.111267 -34.442856 5.000000
v -24.165163 -34.910362 5.000000
v -24.076593 -35.353485 5.000000
v -23.877893 -35.765453 5.000000
v -23.601402 -36.139503 5.000000
v -23.279457 -36.468864 5.000000
v -22.944393 -36.746769 5.000000
v -22.628550 -36.966446 5.000000
v -22.364258 -37.121124 5.000000
v -16.110998 -39.819794 5.000000
v -9.946276 -41.379650 5.000000
v -3.927365 -41.916222 5.000000
v 1.888458 -41.545021 5.000000
v 7.443921 -40.381569 5.000000
v 12.681748 -38.541382 5.000000
v 17.544666 -36.139984 5.000000
v 21.975399 -33.292885 5.000000
v 25.916676 -30.115610 5.000000
v 29.311218 -26.723675 5.000000
v 32.101757 -23.232595 5.000000
v 34.231003 -19.757883 5.000000
v 34.460445 -19.433800 5.000000
v 34.788166 -19.139997 5.000000
v 35.199356 -18.880650 5.000000
v 35.679226 -18.659922 5.000000
v 36.212967 -18.481985 5.000000
v 36.785782 -18.351011 5.000000
v 37.382870 -18.271170 5.000000
v 37.989433 -18.246628 5.000000
v 38.590668 -18.281559 5.000000
v 39.171776 -18.380133 5.000000
v 39.717957 -18.546516 5.000000
v 40.214409 -18.784885 5.000000
v 41.422455 -19.678722 5.000000
v 42.235653 -20.661291 5.000000
v 42.705338 -21.705971 5.000000
v 42.882843 -22.786135 5.000000
v 42.819496 -23.875160 5.000000
v 42.566635 -24.946426 5.000000
v 42.175587 -25.973309 5.000000
v 41.697681 -26.929182 5.000000
v 41.184254 -27.787422 5.000000
v 40.686638 -28.521412 5.000000
v 40.256161 -29.104525 5.000000
v 39.944153 -29.510134 5.000000
v 38.611526 -31.224463 5.000000
v 37.351536 -32.778851 5.000000
v 36.133442 -34.197800 5.000000
v 34.926514 -35.505817 5.000000
v 33.700020 -36.727398 5.000000
v 32.423229 -37.887051 5.000000
v 31.065407 -39.009277 5.000000
v 29.595825 -40.118572 5.000000
v 27.983749 -41.239445 5.000000
v 26.198446 -42.396393 5.000000
v 24.209188 -43.613922 5.000000
v 21.985241 -44.916542 5.000000
v 21.064943 -45.428829 5.000000
v 20.187780 -45.882111 5.000000
v 19.343176 -46.283245 5.000000
v 18.520557 -46.639095 5.000000
v 17.709347 -46.956528 5.000000
v 16.898972 -47.242397 5.000000
v 16.078856 -47.503567 5.000000
v 15.238422 -47.746895 5.000000
v 14.367098 -47.979248 5.000000
v 13.454308 -48.207481 5.000000
v 12.489476 -48.438461 5.000000
v 11.462029 -48.679043 5.000000
v 10.400978 -48.919891 5.000000
v 9.402584 -49.132030 5.000000
v 8.453824 -49.316936 5.000000
v 7.541677 -49.476093 5.000000
v 6.653121 -49.610977 5.000000
v 5.775136 -49.723072 5.000000
v 4.894699 -49.813862 5.000000
v 3.998789 -49.884819 5.000000
v 3.074386 -49.937431 5.000000
v 2.108468 -49.973183 5.000000
v 1.088013 -49.993542 5.000000
v 0.000000 -50.000000 5.000000
v -1.101495 -49.990509 5.000000
v -2.157493 -49.962147 5.000000
v -3.173663 -49.915092 5.000000
v -4.155671 -49.849518 5.000000
v -5.109186 -49.765598 5.000000
v -6.039874 -49.663506 5.000000
v -6.953404 -49.543411 5.000000
v -7.855442 -49.405491 5.000000
v -8.751657 -49.249924 5.000000
v -9.647715 -49.076878 5.000000
v -10.549285 -48.886524 5.000000
v -11.462030 -48.679047 5.000000
v -12.378968 -48.454617 5.000000
v -13.289211 -48.213402 5.000000
v -14.192589 -47.955578 5.000000
v -15.088923 -47.681324 5.000000
v -15.978043 -47.390808 5.000000
v -16.859774 -47.084206 5.000000
v -17.733940 -46.761696 5.000000
v -18.600372 -46.423443 5.000000
v -19.458891 -46.069630 5.000000
v -20.309326 -45.700428 5.000000
v -21.151503 -45.316010 5.000000
v -21.985247 -44.916546 5.000000
v -22.810383 -44.502216 5.000000
v -23.626740 -44.073193 5.000000
v -24.434141 -43.629654 5.000000
v -25.232414 -43.171764 5.000000
v -26.021385 -42.699699 5.000000
v -26.800880 -42.213638 5.000000
v -27.570724 -41.713757 5.000000
v -28.330744 -41.200222 5.000000
v -29.080763 -40.673210 5.000000
v -29.820612 -40.132896 5.000000
v -30.550116 -39.579453 5.000000
v -31.269104 -39.013054 5.000000
v -31.977394 -38.433872 5.000000
v -32.674816 -37.842087 5.000000
v -33.361198 -37.237869 5.000000
v -34.036362 -36.621387 5.000000
v -34.700138 -35.992825 5.000000
v -35.352348 -35.352348 5.000000
v -35.992825 -34.700138 5.000000
v -36.621387 -34.036362 5.000000
v -37.237869 -33.361198 5.000000
v -37.842087 -32.674816 5.000000
v -38.433872 -31.977394 5.000000
v -39.013050 -31.269100 5.000000
v -39.579449 -30.550116 5.000000
v -40.132893 -29.820612 5.000000
v -40.673206 -29.080761 5.000000
v -41.200218 -28.330738 5.000000
v -41.713753 -27.570719 5.000000
v -42.213638 -26.800875 5.000000
v -42.699699 -26.021379 5.000000
v -43.171761 -25.232407 5.000000
v -43.629650 -24.434134 5.000000
v -44.073193 -23.626732 5.000000
v -44.502213 -22.810375 5.000000
v -44.916542 -21.985241 5.000000
v -45.316002 -21.151499 5.000000
v -45.700420 -20.309322 5.000000
v -46.069626 -19.458887 5.000000
v -46.423439 -18.600367 5.000000
v -46.761688 -17.733936 5.000000
v -47.084202 -16.859768 5.000000
v -47.390800 -15.978039 5.000000
v -47.681316 -15.088919 5.000000
v -47.955574 -14.192584 5.000000
v -48.213394 -13.289207 5.000000
v -48.454609 -12.378963 5.000000
v -48.679043 -11.462029 5.000000
v -48.886520 -10.538571 5.000000
v -49.076870 -9.608768 5.000000
v -49.249916 -8.672794 5.000000
v -49.405487 -7.730823 5.000000
v -49.543404 -6.783027 5.000000
v -49.663498 -5.829582 5.000000
v -49.765594 -4.870660 5.000000
v -49.849518 -3.906436 5.000000
v -49.915092 -2.937084 5.000000
v -49.962147 -1.962778 5.000000
v -49.990509 -0.983692 5.000000
s 0
f 1 2 3 4 5 6 7 8 9 10 11 12 13 14 15 16 17 18 19 20 21 22 23 24 25 26 27 28 29 30 31 32 33 34 35 36 37 38 39 40 41 42 43 44 45 46 47 48 49 50 51 52 53 54 55 56 57 58 59 60 61 62 63 64 65 66 67 68 69 70 71 72 73 74 75 76 77 78 79 80 81 82 83 84 85 86 87 88 89 90 91 92 93 94 95 96 97 98 99 100 101 102 103 104 105 106 107 108 109 110 111 112 113 114 115 116 117 118 119 120 121 122 123 124 125 126 127 128 129 130 131 132 133 134 135 136 137 138 139 140 141 142 143 144 145 146 147 148 149 150 151 152 153 154 155 156 157 158 159 160 161 162 163 164 165 166 167 168 169 170 171 172 173 174 175 176 177 178 179 180 181 182 183 184 185 186 187 188 189 190 191 192 193 194 195 196 197 198 199 200 201 202 203 204 205 206 207 208 209 210 211 212 213 214 215 216 217 218 219 220 221 222 223 224 225 226 227 228 229 230 231 232 233 234 235 236 237 238 239 240 241 242 243 244 245 246 247 248 249 250 251 252 253 254 255 256 257 258 259 260 261 262 263 264 265 266 267 268 269 270 271 272 273 274 275 276 277 278 279 280 281 282 283 284 285 286 287 288 289 290 291 292 293 294 295 296 297 298 299 300 301 302 303 304 305 306 307 308 309 310 311 312 313 314 315 316 317 318 319 320 321 322 323 324 325 326 327 328 329 330 331 332 333 334 335 336 337 338 339 340 341 342 343 344 345 346 347 348 349 350 351 352 353 354 355 356 357 358 359 360 361 362 363 364 365 366 367 368 369 370 371 372 373 374 375 376 377 378 379 380 381 382 383 384 385 386 387 388 389 390 391 392 393 394 395 396 397 398 399 400 401 402 403 404 405 406 407 408 409 410 411 412 413 414 415 416 417 418 419 420 421 422 423 424 425 426 427 428 429 430 431 432 433 434 435 436 437 438 439 440 441 442 443 444 445 446 447 448 449 450 451 452 453 454 455 456 457 458 459 460 461 462 463 464 465 466 467 468 469 470 471 472 473 474 475 476 477 478 479 480 481 482 483 484 485 486 487 488 489 490 491 492
f 830 829 1321 1322
f 386 385 877 878
f 180 179 671 672
f 387 386 878 879
f 181 180 672 673
f 388 387 879 880
f 182 181 673 674
f 389 388 880 881
f 183 182 674 675
f 390 389 881 882
f 184 183 675 676
f 391 390 882 883
f 185 184 676 677
f 392 391 883 884
f 186 185 677 678
f 393 392 884 885
f 187 186 678 679
f 394 393 885 886
f 188 187 679 680
f 395 394 886 887
f 189 188 680 681
f 396 395 887 888
f 190 189 681 682
f 397 396 888 889
f 191 190 682 683
f 398 397 889 890
f 192 191 683 684
f 399 398 890 891
f 193 192 684 685
f 400 399 891 892
f 194 193 685 686
f 401 400 892 893
f 195 194 686 687
f 402 401 893 894
f 196 195 687 688
f 403 402 894 895
f 197 196 688 689
f 404 403 895 896
f 198 197 689 690
f 405 404 896 897
f 199 198 690 691
f 406 405 897 898
f 200 199 691 692
f 407 406 898 899
f 201 200 692 693
f 408 407 899 900
f 202 201 693 694
f 409 408 900 901
f 203 202 694 695
f 410 409 901 902
f 204 203 695 696
f 411 410 902 903
f 205 204 696 697
f 412 411 903 904
f 206 205 697 698
f 413 412 904 905
f 207 206 698 699
f 414 413 905 906
f 208 207 699 700
f 2 1 493 494
f 415 414 906 907
f 209 208 700 701
f 3 2 494 495
f 416 415 907 908
f 210 209 701 702
f 4 3 495 496
f 417 416 908 909
f 211 210 702 703
f 5 4 496 497
f 418 417 909 910
f 212 211 703 704
f 6 5 497 498
f 419 418 910 911
f 213 212 704 705
f 7 6 498 499
f 420 419 911 912
f 214 213 705 706
f 8 7 499 500
f 421 420 912 913
f 215 214 706 707
f 9 8 500 501
f 422 421 913 914
f 216 215 707 708
f 10 9 501 502
f 423 422 914 915
f 217 216 708 709
f 11 10 502 503
f 424 423 915 916
f 218 217 709 710
f 12 11 503 504
f 425 424 916 917
f 219 218 710 711
f 13 12 504 505
f 426 425 917 918
f 220 219 711 712
f 14 13 505 506
f 427 426 918 919
f 221 220 712 713
f 15 14 506 507
f 428 427 919 920
f 222 221 713 714
f 16 15 507 508
f 429 428 920 921
f 223 222 714 715
f 17 16 508 509
f 430 429 921 922
f 224 223 715 716
f 18 17 509 510
f 431 430 922 923
f 225 224 716 717
f 19 18 510 511
f 432 431 923 924
f 226 225 717 718
f 20 19 511 512
f 433 432 924 925
f 227 226 718 719
f 21 20 512 513
f 434 433 925 926
f 228 227 719 720
f 22 21 513 514
f 435 434 926 927
f 229 228 720 721
f 23 22 514 515
f 436 435 927 928
f 230 229 721 722
f 24 23 515 516
f 437 436 928 929
f 231 230 722 723
f 25 24 516 517
f 438 437 929 930
f 232 231 723 724
f 26 25 517 518
f 439 438 930 931
f 233 232 724 725
f 27 26 518 519
f 440 439 931 932
f 234 233 725 726
f 28 27 519 520
f 441 440 932 933
f 235 234 726 727
f 29 28 520 521
f 442 441 933 934
f 236 235 727 728
f 30 29 521 522
f 443 442 934 935
f 237 236 728 729
f 31 30 522 523
f 444 443 935 936
f 238 237 729 730
f 32 31 523 524
f 445 444 936 937
f 239 238 730 731
f 33 32 524 525
f 446 445 937 938
f 240 239 731 732
f 34 33 525 526
f 447 446 938 939
f 241 240 732 733
f 35 34 526 527
f 448 447 939 940
f 242 241 733 734
f 36 35 527 528
f 449 448 940 941
f 243 242 734 735
f 37 36 528 529
f 450 449 941 942
f 244 243 735 736
f 38 37 529 530
f 451 450 942 943
f 245 244 736 737
f 39 38 530 531
f 452 451 943 944
f 246 245 737 738
f 40 39 531 532
f 453 452 944 945
f 247 246 738 739
f 41 40 532 533
f 454 453 945 946
f 248 247 739 740
f 42 41 533 534
f 455 454 946 947
f 249 248 740 741
f 43 42 534 535
f 456 455 947 948
f 250 249 741 742
f 44 43 535 536
f 457 456 948 949
f 251 250 742 743
f 45 44 536 537
f 458 457 949 950
f 252 251 743 744
f 46 45 537 538
f 459 458 950 951
f 253 252 744 745
f 47 46 538 539
f 460 459 951 952
f 254 253 745 746
f 48 47 539 540
f 461 460 952 953
f 255 254 746 747
f 49 48 540 541
f 462 461 953 954
f 256 255 747 748
f 50 49 541 542
f 463 462 954 955
f 257 256 748 749
f 51 50 542 543
f 464 463 955 956
f 258 257 749 750
f 52 51 543 544
f 465 464 956 957
f 259 258 750 751
f 53 52 544 545
f 466 465 957 958
f 260 259 751 752
f 54 53 545 546
f 467 466 958 959
f 261 260 752 753
f 55 54 546 547
f 468 467 959 960
f 262 261 753 754
f 56 55 547 548
f 469 468 960 961
f 263 262 754 755
f 57 56 548 549
f 470 469 961 962
f 264 263 755 756
f 58 57 549 550
f 471 470 962 963
f 265 264 756 757
f 59 58 550 551
f 472 471 963 964
f 266 265 757 758
f 60 59 551 552
f 473 472 964 965
f 267 266 758 759
f 61 60 552 553
f 474 473 965 966
f 268 267 759 760
f 62 61 553 554
f 475 474 966 967
f 269 268 760 761
f 63 62 554 555
f 476 475 967 968
f 270 269 761 762
f 64 63 555 556
f 477 476 968 969
f 271 270 762 763
f 65 64 556 557
f 478 477 969 970
f 272 271 763 764
f 66 65 557 558
f 479 478 970 971
f 273 272 764 765
f 67 66 558 559
f 480 479 971 972
f 274 273 765 766
f 68 67 559 560
f 481 480 972 973
f 275 274 766 767
f 69 68 560 561
f 482 481 973 974
f 276 275 767 768
f 70 69 561 562
f 483 482 974 975
f 277 276 768 769
f 71 70 562 563
f 484 483 975 976
f 278 277 769 770
f 72 71 563 564
f 485 484 976 977
f 279 278 770 771
f 73 72 564 565
f 486 485 977 978
f 280 279 771 772
f 74 73 565 566
f 487 486 978 979
f 281 280 772 773
f 75 74 566 567
f 488 487 979 980
f 282 281 773 774
f 76 75 567 568
f 489 488 980 981
f 283 282 774 775
f 77 76 568 569
f 490 489 981 982
f 284 283 775 776
f 78 77 569 570
f 491 490 982 983
f 285 284 776 777
f 79 78 570 571
f 492 491 983 984
f 286 285 777 778
f 80 79 571 572
f 1 492 984 493
f 287 286 778 779
f 81 80 572 573
f 288 287 779 780
f 82 81 573 574
f 289 288 780 781
f 83 82 574 575
f 290 289 781 782
f 84 83 575 576
f 291 290 782 783
f 85 84 576 577
f 292 291 783 784
f 86 85 577 578
f 293 292 784 785
f 87 86 578 579
f 294 293 785 786
f 88 87 579 580
f 295 294 786 787
f 89 88 580 581
f 296 295 787 788
f 90 89 581 582
f 297 296 788 789
f 91 90 582 583
f 298 297 789 790
f 92 91 583 584
f 299 298 790 791
f 93 92 584 585
f 300 299 791 792
f 94 93 585 586
f 301 300 792 793
f 95 94 586 587
f 302 301 793 794
f 96 95 587 588
f 303 302 794 795
f 97 96 588 589
f 304 303 795 796
f 98 97 589 590
f 305 304 796 797
f 99 98 590 591
f 306 305 797 798
f 100 99 591 592
f 307 306 798 799
f 101 100 592 593
f 308 307 799 800
f 102 101 593 594
f 309 308 800 801
f 103 102 594 595
f 310 309 801 802
f 104 103 595 596
f 311 310 802 803
f 105 104 596 597
f 312 311 803 804
f 106 105 597 598
f 313 312 804 805
f 107 106 598 599
f 314 313 805 806
f 108 107 599 600
f 315 314 806 807
f 109 108 600 601
f 316 315 807 808
f 110 109 601 602
f 317 316 808 809
f 111 110 602 603
f 318 317 809 810
f 112 111 603 604
f 319 318 810 811
f 113 112 604 605
f 320 319 811 812
f 114 113 605 606
f 321 320 812 813
f 115 114 606 607
f 322 321 813 814
f 116 115 607 608
f 323 322 814 815
f 117 116 608 609
f 324 323 815 816
f 118 117 609 610
f 325 324 816 817
f 119 118 610 611
f 326 325 817 818
f 120 119 611 612
f 327 326 818 819
f 121 120 612 613
f 328 327 819 820
f 122 121 613 614
f 329 328 820 821
f 123 122 614 615
f 330 329 821 822
f 124 123 615 616
f 331 330 822 823
f 125 124 616 617
f 332 331 823 824
f 126 125 617 618
f 333 332 824 825
f 127 126 618 619
f 334 333 825 826
f 128 127 619 620
f 335 334 826 827
f 129 128 620 621
f 336 335 827 828
f 130 129 621 622
f 337 336 828 829
f 131 130 622 623
f 338 337 829 830
f 132 131 623 624
f 339 338 830 831
f 133 132 624 625
f 340 339 831 832
f 134 133 625 626
f 341 340 832 833
f 135 134 626 627
f 342 341 833 834
f 136 135 627 628
f 343 342 834 835
f 137 136 628 629
f 344 343 835 836
f 138 137 629 630
f 345 344 836 837
f 139 138 630 631
f 346 345 837 838
f 140 139 631 632
f 347 346 838 839
f 141 140 632 633
f 348 347 839 840
f 142 141 633 634
f 349 348 840 841
f 143 142 634 635
f 350 349 841 842
f 144 143 635 636
f 351 350 842 843
f 145 144 636 637
f 352 351 843 844
f 146 145 637 638
f 353 352 844 845
f 147 146 638 639
f 354 353 845 846
f 148 147 639 640
f 355 354 846 847
f 149 148 640 641
f 356 355 847 848
f 150 149 641 642
f 357 356 848 849
f 151 150 642 643
f 358 357 849 850
f 152 151 643 644
f 359 358 850 851
f 153 152 644 645
f 360 359 851 852
f 154 153 645 646
f 361 360 852 853
f 155 154 646 647
f 362 361 853 854
f 156 155 647 648
f 363 362 854 855
f 157 156 648 649
f 364 363 855 856
f 158 157 649 650
f 365 364 856 857
f 159 158 650 651
f 366 365 857 858
f 160 159 651 652
f 367 366 858 859
f 161 160 652 653
f 368 367 859 860
f 162 161 653 654
f 369 368 860 861
f 163 162 654 655
f 370 369 861 862
f 164 163 655 656
f 371 370 862 863
f 165 164 656 657
f 372 371 863 864
f 166 165 657 658
f 373 372 864 865
f 167 166 658 659
f 374 373 865 866
f 168 167 659 660
f 375 374 866 867
f 169 168 660 661
f 376 375 867 868
f 170 169 661 662
f 377 376 868 869
f 171 170 662 663
f 378 377 869 870
f 172 171 663 664
f 379 378 870 871
f 173 172 664 665
f 380 379 871 872
f 174 173 665 666
f 381 380 872 873
f 175 174 666 667
f 382 381 873 874
f 176 175 667 668
f 383 382 874 875
f 177 176 668 669
f 384 383 875 876
f 178 177 669 670
f 385 384 876 877
f 179 178 670 671
f 985 1476 1475 1474 1473 1472 1471 1470 1469 1468 1467 1466 1465 1464 1463 1462 1461 1460 1459 1458 1457 1456 1455 1454 1453 1452 1451 1450 1449 1448 1447 1446 1445 1444 1443 1442 1441 1440 1439 1438 1437 1436 1435 1434 1433 1432 1431 1430 1429 1428 1427 1426 1425 1424 1423 1422 1421 1420 1419 1418 1417 1416 1415 1414 1413 1412 1411 1410 1409 1408 1407 1406 1405 1404 1403 1402 1401 1400 1399 1398 1397 1396 1395 1394 1393 1392 1391 1390 1389 1388 1387 1386 1385 1384 1383 1382 1381 1380 1379 1378 1377 1376 1375 1374 1373 1372 1371 1370 1369 1368 1367 1366 1365 1364 1363 1362 1361 1360 1359 1358 1357 1356 1355 1354 1353 1352 1351 1350 1349 1348 1347 1346 1345 1344 1343 1342 1341 1340 1339 1338 1337 1336 1335 1334 1333 1332 1331 1330 1329 1328 1327 1326 1325 1324 1323 1322 1321 1320 1319 1318 1317 1316 1315 1314 1313 1312 1311 1310 1309 1308 1307 1306 1305 1304 1303 1302 1301 1300 1299 1298 1297 1296 1295 1294 1293 1292 1291 1290 1289 1288 1287 1286 1285 1284 1283 1282 1281 1280 1279 1278 1277 1276 1275 1274 1273 1272 1271 1270 1269 1268 1267 1266 1265 1264 1263 1262 1261 1260 1259 1258 1257 1256 1255 1254 1253 1252 1251 1250 1249 1248 1247 1246 1245 1244 1243 1242 1241 1240 1239 1238 1237 1236 1235 1234 1233 1232 1231 1230 1229 1228 1227 1226 1225 1224 1223 1222 1221 1220 1219 1218 1217 1216 1215 1214 1213 1212 1211 1210 1209 1208 1207 1206 1205 1204 1203 1202 1201 1200 1199 1198 1197 1196 1195 1194 1193 1192 1191 1190 1189 1188 1187 1186 1185 1184 1183 1182 1181 1180 1179 1178 1177 1176 1175 1174 1173 1172 1171 1170 1169 1168 1167 1166 1165 1164 1163 1162 1161 1160 1159 1158 1157 1156 1155 1154 1153 1152 1151 1150 1149 1148 1147 1146 1145 1144 1143 1142 1141 1140 1139 1138 1137 1136 1135 1134 1133 1132 1131 1130 1129 1128 1127 1126 1125 1124 1123 1122 1121 1120 1119 1118 1117 1116 1115 1114 1113 1112 1111 1110 1109 1108 1107 1106 1105 1104 1103 1102 1101 1100 1099 1098 1097 1096 1095 1094 1093 1092 1091 1090 1089 1088 1087 1086 1085 1084 1083 1082 1081 1080 1079 1078 1077 1076 1075 1074 1073 1072 1071 1070 1069 1068 1067 1066 1065 1064 1063 1062 1061 1060 1059 1058 1057 1056 1055 1054 1053 1052 1051 1050 1049 1048 1047 1046 1045 1044 1043 1042 1041 1040 1039 1038 1037 1036 1035 1034 1033 1032 1031 1030 1029 1028 1027 1026 1025 1024 1023 1022 1021 1020 1019 1018 1017 1016 1015 1014 1013 1012 1011 1010 1009 1008 1007 1006 1005 1004 1003 1002 1001 1000 999 998 997 996 995 994 993 992 991 990 989 988 987 986
f 624 623 1115 1116
f 831 830 1322 1323
f 625 624 1116 1117
f 832 831 1323 1324
f 626 625 1117 1118
f 833 832 1324 1325
f 627 626 1118 1119
f 834 833 1325 1326
f 628 627 1119 1120
f 835 834 1326 1327
f 629 628 1120 1121
f 836 835 1327 1328
f 630 629 1121 1122
f 837 836 1328 1329
f 631 630 1122 1123
f 838 837 1329 1330
f 632 631 1123 1124
f 839 838 1330 1331
f 633 632 1124 1125
f 840 839 1331 1332
f 634 633 1125 1126
f 841 840 1332 1333
f 635 634 1126 1127
f 842 841 1333 1334
f 636 635 1127 1128
f 843 842 1334 1335
f 637 636 1128 1129
f 844 843 1335 1336
f 638 637 1129 1130
f 845 844 1336 1337
f 639 638 1130 1131
f 846 845 1337 1338
f 640 639 1131 1132
f 847 846 1338 1339
f 641 640 1132 1133
f 848 847 1339 1340
f 642 641 1133 1134
f 849 848 1340 1341
f 643 642 1134 1135
f 850 849 1341 1342
f 644 643 1135 1136
f 851 850 1342 1343
f 645 644 1136 1137
f 852 851 1343 1344
f 646 645 1137 1138
f 853 852 1344 1345
f 647 646 1138 1139
f 854 853 1345 1346
f 648 647 1139 1140
f 855 854 1346 1347
f 649 648 1140 1141
f 856 855 1347 1348
f 650 649 1141 1142
f 857 856 1348 1349
f 651 650 1142 1143
f 858 857 1349 1350
f 652 651 1143 1144
f 859 858 1350 1351
f 653 652 1144 1145
f 860 859 1351 1352
f 654 653 1145 1146
f 861 860 1352 1353
f 655 654 1146 1147
f 862 861 1353 1354
f 656 655 1147 1148
f 863 862 1354 1355
f 657 656 1148 1149
f 864 863 1355 1356
f 658 657 1149 1150
f 865 864 1356 1357
f 659 658 1150 1151
f 866 865 1357 1358
f 660 659 1151 1152
f 867 866 1358 1359
f 661 660 1152 1153
f 868 867 1359 1360
f 662 661 1153 1154
f 869 868 1360 1361
f 663 662 1154 1155
f 870 869 1361 1362
f 664 663 1155 1156
f 871 870 1362 1363
f 665 664 1156 1157
f 872 871 1363 1364
f 666 665 1157 1158
f 873 872 1364 1365
f 667 666 1158 1159
f 874 873 1365 1366
f 668 667 1159 1160
f 875 874 1366 1367
f 669 668 1160 1161
f 876 875 1367 1368
f 670 669 1161 1162
f 877 876 1368 1369
f 671 670 1162 1163
f 878 877 1369 1370
f 672 671 1163 1164
f 879 878 1370 1371
f 673 672 1164 1165
f 880 879 1371 1372
f 674 673 1165 1166
f 881 880 1372 1373
f 675 674 1166 1167
f 882 881 1373 1374
f 676 675 1167 1168
f 883 882 1374 1375
f 677 676 1168 1169
f 884 883 1375 1376
f 678 677 1169 1170
f 885 884 1376 1377
f 679 678 1170 1171
f 886 885 1377 1378
f 680 679 1171 1172
f 887 886 1378 1379
f 681 680 1172 1173
f 888 887 1379 1380
f 682 681 1173 1174
f 889 888 1380 1381
f 683 682 1174 1175
f 890 889 1381 1382
f 684 683 1175 1176
f 891 890 1382 1383
f 685 684 1176 1177
f 892 891 1383 1384
f 686 685 1177 1178
f 893 892 1384 1385
f 687 686 1178 1179
f 894 893 1385 1386
f 688 687 1179 1180
f 895 894 1386 1387
f 689 688 1180 1181
f 896 895 1387 1388
f 690 689 1181 1182
f 897 896 1388 1389
f 691 690 1182 1183
f 898 897 1389 1390
f 692 691 1183 1184
f 899 898 1390 1391
f 693 692 1184 1185
f 900 899 1391 1392
f 694 693 1185 1186
f 901 900 1392 1393
f 695 694 1186 1187
f 902 901 1393 1394
f 696 695 1187 1188
f 903 902 1394 1395
f 697 696 1188 1189
f 904 903 1395 1396
f 698 697 1189 1190
f 905 904 1396 1397
f 699 698 1190 1191
f 906 905 1397 1398
f 700 699 1191 1192
f 494 493 985 986
f 907 906 1398 1399
f 701 700 1192 1193
f 495 494 986 987
f 908 907 1399 1400
f 702 701 1193 1194
f 496 495 987 988
f 909 908 1400 1401
f 703 702 1194 1195
f 497 496 988 989
f 910 909 1401 1402
f 704 703 1195 1196
f 498 497 989 990
f 911 910 1402 1403
f 705 704 1196 1197
f 499 498 990 991
f 912 911 1403 1404
f 706 705 1197 1198
f 500 499 991 992
f 913 912 1404 1405
f 707 706 1198 1199
f 501 500 992 993
f 914 913 1405 1406
f 708 707 1199 1200
f 502 501 993 994
f 915 914 1406 1407
f 709 708 1200 1201
f 503 502 994 995
f 916 915 1407 1408
f 710 709 1201 1202
f 504 503 995 996
f 917 916 1408 1409
f 711 710 1202 1203
f 505 504 996 997
f 918 917 1409 1410
f 712 711 1203 1204
f 506 505 997 998
f 919 918 1410 1411
f 713 712 1204 1205
f 507 506 998 999
f 920 919 1411 1412
f 714 713 1205 1206
f 508 507 999 1000
f 921 920 1412 1413
f 715 714 1206 1207
f 509 508 1000 1001
f 922 921 1413 1414
f 716 715 1207 1208
f 510 509 1001 1002
f 923 922 1414 1415
f 717 716 1208 1209
f 511 510 1002 1003
f 924 923 1415 1416
f 718 717 1209 1210
f 512 511 1003 1004
f 925 924 1416 1417
f 719 718 1210 1211
f 513 512 1004 1005
f 926 925 1417 1418
f 720 719 1211 1212
f 514 513 1005 1006
f 927 926 1418 1419
f 721 720 1212 1213
f 515 514 1006 1007
f 928 927 1419 1420
f 722 721 1213 1214
f 516 515 1007 1008
f 929 928 1420 1421
f 723 722 1214 1215
f 517 516 1008 1009
f 930 929 1421 1422
f 724 723 1215 1216
f 518 517 1009 1010
f 931 930 1422 1423
f 725 724 1216 1217
f 519 518 1010 1011
f 932 931 1423 1424
f 726 725 1217 1218
f 520 519 1011 1012
f 933 932 1424 1425
f 727 726 1218 1219
f 521 520 1012 1013
f 934 933 1425 1426
f 728 727 1219 1220
f 522 521 1013 1014
f 935 934 1426 1427
f 729 728 1220 1221
f 523 522 1014 1015
f 936 935 1427 1428
f 730 729 1221 1222
f 524 523 1015 1016
f 937 936 1428 1429
f 731 730 1222 1223
f 525 524 1016 1017
f 938 937 1429 1430
f 732 731 1223 1224
f 526 525 1017 1018
f 939 938 1430 1431
f 733 732 1224 1225
f 527 526 1018 1019
f 940 939 1431 1432
f 734 733 1225 1226
f 528 527 1019 1020
f 941 940 1432 1433
f 735 734 1226 1227
f 529 528 1020 1021
f 942 941 1433 1434
f 736 735 1227 1228
f 530 529 1021 1022
f 943 942 1434 1435
f 737 736 1228 1229
f 531 530 1022 1023
f 944 943 1435 1436
f 738 737 1229 1230
f 532 531 1023 1024
f 945 944 1436 1437
f 739 738 1230 1231
f 533 532 1024 1025
f 946 945 1437 1438
f 740 739 1231 1232
f 534 533 1025 1026
f 947 946 1438 1439
f 741 740 1232 1233
f 535 534 1026 1027
f 948 947 1439 1440
f 742 741 1233 1234
f 536 535 1027 1028
f 949 948 1440 1441
f 743 742 1234 1235
f 537 536 1028 1029
f 950 949 1441 1442
f 744 743 1235 1236
f 538 537 1029 1030
f 951 950 1442 1443
f 745 744 1236 1237
f 539 538 1030 1031
f 952 951 1443 1444
f 746 745 1237 1238
f 540 539 1031 1032
f 953 952 1444 1445
f 747 746 1238 1239
f 541 540 1032 1033
f 954 953 1445 1446
f 748 747 1239 1240
f 542 541 1033 1034
f 955 954 1446 1447
f 749 748 1240 1241
f 543 542 1034 1035
f 956 955 1447 1448
f 750 749 1241 1242
f 544 543 1035 1036
f 957 956 1448 1449
f 751 750 1242 1243
f 545 544 1036 1037
f 958 957 1449 1450
f 752 751 1243 1244
f 546 545 1037 1038
f 959 958 1450 1451
f 753 752 1244 1245
f 547 546 1038 1039
f 960 959 1451 1452
f 754 753 1245 1246
f 548 547 1039 1040
f 961 960 1452 1453
f 755 754 1246 1247
f 549 548 1040 1041
f 962 961 1453 1454
f 756 755 1247 1248
f 550 549 1041 1042
f 963 962 1454 1455
f 757 756 1248 1249
f 551 550 1042 1043
f 964 963 1455 1456
f 758 757 1249 1250
f 552 551 1043 1044
f 965 964 1456 1457
f 759 758 1250 1251
f 553 552 1044 1045
f 966 965 1457 1458
f 760 759 1251 1252
f 554 553 1045 1046
f 967 966 1458 1459
f 761 760 1252 1253
f 555 554 1046 1047
f 968 967 1459 1460
f 762 761 1253 1254
f 556 555 1047 1048
f 969 968 1460 1461
f 763 762 1254 1255
f 557 556 1048 1049
f 970 969 1461 1462
f 764 763 1255 1256
f 558 557 1049 1050
f 971 970 1462 1463
f 765 764 1256 1257
f 559 558 1050 1051
f 972 971 1463 1464
f 766 765 1257 1258
f 560 559 1051 1052
f 973 972 1464 1465
f 767 766 1258 1259
f 561 560 1052 1053
f 974 973 1465 1466
f 768 767 1259 1260
f 562 561 1053 1054
f 975 974 1466 1467
f 769 768 1260 1261
f 563 562 1054 1055
f 976 975 1467 1468
f 770 769 1261 1262
f 564 563 1055 1056
f 977 976 1468 1469
f 771 770 1262 1263
f 565 564 1056 1057
f 978 977 1469 1470
f 772 771 1263 1264
f 566 565 1057 1058
f 979 978 1470 1471
f 773 772 1264 1265
f 567 566 1058 1059
f 980 979 1471 1472
f 774 773 1265 1266
f 568 567 1059 1060
f 981 980 1472 1473
f 775 774 1266 1267
f 569 568 1060 1061
f 982 981 1473 1474
f 776 775 1267 1268
f 570 569 1061 1062
f 983 982 1474 1475
f 777 776 1268 1269
f 571 570 1062 1063
f 984 983 1475 1476
f 778 777 1269 1270
f 572 571 1063 1064
f 493 984 1476 985
f 779 778 1270 1271
f 573 572 1064 1065
f 780 779 1271 1272
f 574 573 1065 1066
f 781 780 1272 1273
f 575 574 1066 1067
f 782 781 1273 1274
f 576 575 1067 1068
f 783 782 1274 1275
f 577 576 1068 1069
f 784 783 1275 1276
f 578 577 1069 1070
f 785 784 1276 1277
f 579 578 1070 1071
f 786 785 1277 1278
f 580 579 1071 1072
f 787 786 1278 1279
f 581 580 1072 1073
f 788 787 1279 1280
f 582 581 1073 1074
f 789 788 1280 1281
f 583 582 1074 1075
f 790 789 1281 1282
f 584 583 1075 1076
f 791 790 1282 1283
f 585 584 1076 1077
f 792 791 1283 1284
f 586 585 1077 1078
f 793 792 1284 1285
f 587 586 1078 1079
f 794 793 1285 1286
f 588 587 1079 1080
f 795 794 1286 1287
f 589 588 1080 1081
f 796 795 1287 1288
f 590 589 1081 1082
f 797 796 1288 1289
f 591 590 1082 1083
f 798 797 1289 1290
f 592 591 1083 1084
f 799 798 1290 1291
f 593 592 1084 1085
f 800 799 1291 1292
f 594 593 1085 1086
f 801 800 1292 1293
f 595 594 1086 1087
f 802 801 1293 1294
f 596 595 1087 1088
f 803 802 1294 1295
f 597 596 1088 1089
f 804 803 1295 1296
f 598 597 1089 1090
f 805 804 1296 1297
f 599 598 1090 1091
f 806 805 1297 1298
f 600 599 1091 1092
f 807 806 1298 1299
f 601 600 1092 1093
f 808 807 1299 1300
f 602 601 1093 1094
f 809 808 1300 1301
f 603 602 1094 1095
f 810 809 1301 1302
f 604 603 1095 1096
f 811 810 1302 1303
f 605 604 1096 1097
f 812 811 1303 1304
f 606 605 1097 1098
f 813 812 1304 1305
f 607 606 1098 1099
f 814 813 1305 1306
f 608 607 1099 1100
f 815 814 1306 1307
f 609 608 1100 1101
f 816 815 1307 1308
f 610 609 1101 1102
f 817 816 1308 1309
f 611 610 1102 1103
f 818 817 1309 1310
f 612 611 1103 1104
f 819 818 1310 1311
f 613 612 1104 1105
f 820 819 1311 1312
f 614 613 1105 1106
f 821 820 1312 1313
f 615 614 1106 1107
f 822 821 1313 1314
f 616 615 1107 1108
f 823 822 1314 1315
f 617 616 1108 1109
f 824 823 1315 1316
f 618 617 1109 1110
f 825 824 1316 1317
f 619 618 1110 1111
f 826 825 1317 1318
f 620 619 1111 1112
f 827 826 1318 1319
f 621 620 1112 1113
f 828 827 1319 1320
f 622 621 1113 1114
f 829 828 1320 1321
f 623 622 1114 1115
