  0
SECTION
  2
HEADER
  9
$ACADVER
  1
AC1009
  9
$INSBASE
 10
0.0
 20
0.0
 30
0.0
  9
$EXTMIN
 10
0.0
 20
0.0
 30
0.0
  9
$EXTMAX
 10
0.0
 20
0.0
 30
0.0
  0
ENDSEC
  0
SECTION
  2
TABLES
  0
TABLE
  2
VPORT
 70
1
  0
VPORT
  2
*ACTIVE
 70
0
 10
0.0
 20
0.0
 11
1.0
 21
1.0
 12
-5.0
 22
1.0
 13
0.0
 23
0.0
 14
0.1
 24
0.1
 15
0.1
 25
0.1
 16
0.0
 26
0.0
 36
1.0
 17
0.0
 27
0.0
 37
0.0
 40
10.0
 41
1.0
 42
50.0
 43
0.0
 44
0.0
 50
0.0
 51
0.0
 71
0
 72
100
 73
1
 74
1
 75
0
 76
0
 77
0
 78
0
  0
ENDTAB
  0
TABLE
  2
LTYPE
 70
8
  0
LTYPE
  2
CONTINUOUS
 70
0
  3
Solid line
 72
65
 73
0
 40
0.0
  0
LTYPE
  2
DOT
 70
0
  3
. . . . . . .
 72
65
 73
2
 40
0.25
 49
0.0
 49
-0.25
  0
LTYPE
  2
DASHED
 70
0
  3
__ __ __ __ __
 72
65
 73
2
 40
0.8
 49
0.5
 49
-0.3
  0
LTYPE
  2
DASHDOT
 70
0
  3
__ . __ . __ .
 72
65
 73
4
 40
1.0
 49
0.5
 49
-0.25
 49
0.0
 49
-0.25
  0
LTYPE
  2
DIVIDE
 70
0
  3
____ . . ____ . . 
 72
65
 73
6
 40
1.25
 49
0.5
 49
-0.25
 49
0.0
 49
-0.25
 49
0.0
 49
-0.25
  0
LTYPE
  2
BORDER
 70
0
  3
__ __ . __ __ . 
 72
65
 73
6
 40
1.75
 49
0.5
 49
-0.25
 49
0.5
 49
-0.25
 49
0.0
 49
-0.25
  0
LTYPE
  2
HIDDEN
 70
0
  3
__ __ __ __ __
 72
65
 73
2
 40
0.4
 49
0.25
 49
-0.25
  0
LTYPE
  2
CENTER
 70
0
  3
____ _ ____ _ __
 72
65
 73
4
 40
2.0
 49
1.25
 49
-0.25
 49
0.25
 49
-0.25
  0
ENDTAB
  0
TABLE
  2
LAYER
 70
1
  0
LAYER
  2
PYDXF
 70
64
 62
7
  6
continuous
  0
ENDTAB
  0
TABLE
  2
STYLE
 70
1
  0
STYLE
  2
STANDARD
 70
0
 40
0
 41
1.0
 50
0.0
 71
0
 42
1
 3
ARIAL.TTF
 4

  0
ENDTAB
  0
TABLE
  2
VIEW
 70
1
  0
VIEW
  2
BF_TOPVIEW
 70
0
 40
120.0
 10
0.0
 20
0.0
 41
200.0
 11
0.0
 21
0.0
 31
1.0
 12
0.0
 22
0.0
 32
0.0
 42
50.0
 43
0.0
 44
0.0
 50
0.0
 71
0
  0
ENDTAB
  0
ENDSEC
  0
SECTION
  2
BLOCKS
  0
ENDSEC
  0
SECTION
  2
ENTITIES
  0
LINE
  8
0
 10
0.2109927088022232
 20
-3.6910048493155045e-06
 30
27.47124671936035
 11
0.5501657128334045
 21
-3.725182978087105e-06
 31
27.72562599182129
  0
LINE
  8
0
 10
0.5501657128334045
 20
-3.725182978087105e-06
 30
27.72562599182129
 11
1.8927254676818848
 21
-3.766956297113211e-06
 31
28.036535263061523
  0
LINE
  8
0
 10
1.8927254676818848
 20
-3.766956297113211e-06
 30
28.036535263061523
 11
10.216595649719238
 21
-3.913162800017744e-06
 31
29.124713897705078
  0
LINE
  8
0
 10
10.216595649719238
 20
-3.913162800017744e-06
 30
29.124713897705078
 11
12.251633644104004
 21
-3.932150775654009e-06
 31
29.266036987304688
  0
LINE
  8
0
 10
12.251633644104004
 20
-3.932150775654009e-06
 30
29.266036987304688
 11
13.184359550476074
 21
-3.924555585399503e-06
 31
29.20950698852539
  0
LINE
  8
0
 10
13.184359550476074
 20
-3.924555585399503e-06
 30
29.20950698852539
 11
15.91187572479248
 21
-3.886580088874325e-06
 31
28.926864624023438
  0
LINE
  8
0
 10
15.91187572479248
 20
-3.886580088874325e-06
 30
28.926864624023438
 11
16.491294860839844
 21
-3.867592113238061e-06
 31
28.785541534423828
  0
LINE
  8
0
 10
16.491294860839844
 20
-3.867592113238061e-06
 30
28.785541534423828
 11
16.57608985900879
 21
-3.852401732729049e-06
 31
28.672483444213867
  0
LINE
  8
0
 10
16.57608985900879
 20
-3.852401732729049e-06
 30
28.672483444213867
 11
16.64674949645996
 21
-3.7916402106930036e-06
 31
28.220252990722656
  0
LINE
  8
0
 10
16.64674949645996
 20
-3.7916402106930036e-06
 30
28.220252990722656
 11
16.57608985900879
 21
-3.7289805732143577e-06
 31
27.753889083862305
  0
LINE
  8
0
 10
16.57608985900879
 20
-3.7289805732143577e-06
 30
27.753889083862305
 11
16.43476676940918
 21
-3.6758146961801685e-06
 31
27.35818862915039
  0
LINE
  8
0
 10
16.43476676940918
 20
-3.6758146961801685e-06
 30
27.35818862915039
 11
16.208650588989258
 21
-3.5713812849280657e-06
 31
26.580917358398438
  0
LINE
  8
0
 10
16.208650588989258
 20
-3.5713812849280657e-06
 30
26.580917358398438
 11
15.940136909484863
 21
-3.4156805668317247e-06
 31
25.422075271606445
  0
LINE
  8
0
 10
15.940136909484863
 20
-3.4156805668317247e-06
 30
25.422075271606445
 11
15.657491683959961
 21
-3.2428911254100967e-06
 31
24.136045455932617
  0
LINE
  8
0
 10
15.657491683959961
 20
-3.2428911254100967e-06
 30
24.136045455932617
 11
15.26179027557373
 21
-3.007441591762472e-06
 31
22.383651733398438
  0
LINE
  8
0
 10
15.26179027557373
 20
-3.007441591762472e-06
 30
22.383651733398438
 11
14.993278503417969
 21
-2.7985749966319418e-06
 31
20.82910919189453
  0
LINE
  8
0
 10
14.993278503417969
 20
-2.7985749966319418e-06
 30
20.82910919189453
 11
14.837823867797852
 21
-2.6067975795740495e-06
 31
19.401756286621094
  0
LINE
  8
0
 10
14.837823867797852
 20
-2.6067975795740495e-06
 30
19.401756286621094
 11
14.767162322998047
 21
-2.377044438617304e-06
 31
17.691761016845703
  0
LINE
  8
0
 10
14.767162322998047
 20
-2.377044438617304e-06
 30
17.691761016845703
 11
14.753030776977539
 21
-2.1567852854786906e-06
 31
16.052425384521484
  0
LINE
  8
0
 10
14.753030776977539
 20
-2.1567852854786906e-06
 30
16.052425384521484
 11
14.8660888671875
 21
-1.9517162854754133e-06
 31
14.52614688873291
  0
LINE
  8
0
 10
14.8660888671875
 20
-1.9517162854754133e-06
 30
14.52614688873291
 11
15.148733139038086
 21
-1.8225987332698423e-06
 31
13.565156936645508
  0
LINE
  8
0
 10
15.148733139038086
 20
-1.8225987332698423e-06
 30
13.565156936645508
 11
15.629226684570312
 21
-1.6080357454484329e-06
 31
11.968217849731445
  0
LINE
  8
0
 10
15.629226684570312
 20
-1.6080357454484329e-06
 30
11.968217849731445
 11
16.13798713684082
 21
-1.4542341659762315e-06
 31
10.823508262634277
  0
LINE
  8
0
 10
16.13798713684082
 20
-1.4542341659762315e-06
 30
10.823508262634277
 11
16.70327377319336
 21
-1.319420334766619e-06
 31
9.820122718811035
  0
LINE
  8
0
 10
16.70327377319336
 20
-1.319420334766619e-06
 30
9.820122718811035
 11
17.53707504272461
 21
-1.1789099971792893e-06
 31
8.774338722229004
  0
LINE
  8
0
 10
17.53707504272461
 20
-1.1789099971792893e-06
 30
8.774338722229004
 11
18.68178367614746
 21
-1.038400000652473e-06
 31
7.728556156158447
  0
LINE
  8
0
 10
18.68178367614746
 20
-1.038400000652473e-06
 30
7.728556156158447
 11
20.024341583251953
 21
-9.320677349933248e-07
 31
6.937151908874512
  0
LINE
  8
0
 10
20.024341583251953
 20
-9.320677349933248e-07
 30
6.937151908874512
 11
21.366901397705078
 21
-8.561162871956185e-07
 31
6.37186336517334
  0
LINE
  8
0
 10
21.366901397705078
 20
-8.561162871956185e-07
 30
6.37186336517334
 11
22.41268539428711
 21
-8.200394177038106e-07
 31
6.103351593017578
  0
LINE
  8
0
 10
22.41268539428711
 20
-8.200394177038106e-07
 30
6.103351593017578
 11
23.529130935668945
 21
-8.04849094038218e-07
 31
5.990294933319092
  0
LINE
  8
0
 10
23.529130935668945
 20
-8.04849094038218e-07
 30
5.990294933319092
 11
24.29227066040039
 21
-7.972539606271312e-07
 31
5.933765411376953
  0
LINE
  8
0
 10
24.29227066040039
 20
-7.972539606271312e-07
 30
5.933765411376953
 11
25.097806930541992
 21
-8.124443411361426e-07
 31
6.0468220710754395
  0
LINE
  8
0
 10
25.097806930541992
 20
-8.124443411361426e-07
 30
6.0468220710754395
 11
25.4793758392334
 21
-8.162419362633955e-07
 31
6.0750861167907715
  0
LINE
  8
0
 10
25.4793758392334
 20
-8.162419362633955e-07
 30
6.0750861167907715
 11
25.620698928833008
 21
-8.048491508816369e-07
 31
5.990293025970459
  0
LINE
  8
0
 10
25.620698928833008
 20
-8.048491508816369e-07
 30
5.990293025970459
 11
25.80441665649414
 21
-7.782661555211234e-07
 31
5.792442798614502
  0
LINE
  8
0
 10
25.80441665649414
 20
-7.782661555211234e-07
 30
5.792442798614502
 11
26.058795928955078
 21
-6.871243272144056e-07
 31
5.1140971183776855
  0
LINE
  8
0
 10
26.058795928955078
 20
-6.871243272144056e-07
 30
5.1140971183776855
 11
26.129457473754883
 21
-5.656020221067593e-07
 31
4.2096357345581055
  0
LINE
  8
0
 10
26.129457473754883
 20
-5.656020221067593e-07
 30
4.2096357345581055
 11
26.129457473754883
 21
-4.6686511723237345e-07
 31
3.4747607707977295
  0
LINE
  8
0
 10
26.129457473754883
 20
-4.6686511723237345e-07
 30
3.4747607707977295
 11
26.030532836914062
 21
-4.099014745406748e-07
 31
3.050794839859009
  0
LINE
  8
0
 10
26.030532836914062
 20
-4.099014745406748e-07
 30
3.050794839859009
 11
25.762022018432617
 21
-3.567354838196479e-07
 31
2.655092716217041
  0
LINE
  8
0
 10
25.762022018432617
 20
-3.567354838196479e-07
 30
2.655092716217041
 11
25.36631965637207
 21
-3.0546817697540973e-07
 31
2.27352237701416
  0
LINE
  8
0
 10
25.36631965637207
 20
-3.0546817697540973e-07
 30
2.27352237701416
 11
24.603179931640625
 21
-2.3711183416708081e-07
 31
1.7647631168365479
  0
LINE
  8
0
 10
24.603179931640625
 20
-2.3711183416708081e-07
 30
1.7647631168365479
 11
23.543264389038086
 21
-1.687554913587519e-07
 31
1.256003975868225
  0
LINE
  8
0
 10
23.543264389038086
 20
-1.687554913587519e-07
 30
1.256003975868225
 11
22.285499572753906
 21
-1.0799424643437305e-07
 31
0.8037742376327515
  0
LINE
  8
0
 10
22.285499572753906
 20
-1.0799424643437305e-07
 30
0.8037742376327515
 11
21.28211212158203
 21
-7.38160750302086e-08
 31
0.5493946075439453
  0
LINE
  8
0
 10
21.28211212158203
 20
-7.38160750302086e-08
 30
0.5493946075439453
 11
20.674427032470703
 21
-5.672694669556222e-08
 31
0.4222038984298706
  0
LINE
  8
0
 10
20.674427032470703
 20
-5.672694669556222e-08
 30
0.4222038984298706
 11
19.30360221862793
 21
-3.584020191738091e-08
 31
0.26674941182136536
  0
LINE
  8
0
 10
19.30360221862793
 20
-3.584020191738091e-08
 30
0.26674941182136536
 11
18.130630493164062
 21
-2.8245096928003477e-08
 31
0.21021999418735504
  0
LINE
  8
0
 10
18.130630493164062
 20
-2.8245096928003477e-08
 30
0.21021999418735504
 11
17.46641731262207
 21
-3.014379856836058e-08
 31
0.2243518829345703
  0
LINE
  8
0
 10
17.46641731262207
 20
-3.014379856836058e-08
 30
0.2243518829345703
 11
16.717409133911133
 21
-3.584020191738091e-08
 31
0.26674941182136536
  0
LINE
  8
0
 10
16.717409133911133
 20
-3.584020191738091e-08
 30
0.26674941182136536
 11
15.897741317749023
 21
-5.2929330252027285e-08
 31
0.39394015073776245
  0
LINE
  8
0
 10
15.897741317749023
 20
-5.2929330252027285e-08
 30
0.39394015073776245
 11
15.049808502197266
 21
-8.330988521265681e-08
 31
0.6200559139251709
  0
LINE
  8
0
 10
15.049808502197266
 20
-8.330988521265681e-08
 30
0.6200559139251709
 11
14.074686050415039
 21
-1.2128568016578356e-07
 31
0.9026992917060852
  0
LINE
  8
0
 10
14.074686050415039
 20
-1.2128568016578356e-07
 30
0.9026992917060852
 11
13.000638008117676
 21
-1.7255297279916704e-07
 31
1.2842695713043213
  0
LINE
  8
0
 10
13.000638008117676
 20
-1.7255297279916704e-07
 30
1.2842695713043213
 11
11.997251510620117
 21
-2.2761790319236752e-07
 31
1.694103717803955
  0
LINE
  8
0
 10
11.997251510620117
 20
-2.2761790319236752e-07
 30
1.694103717803955
 11
10.894939422607422
 21
-3.0356935099007387e-07
 31
2.259392261505127
  0
LINE
  8
0
 10
10.894939422607422
 20
-3.0356935099007387e-07
 30
2.259392261505127
 11
10.1459321975708
 21
-3.7002678254793864e-07
 31
2.7540194988250732
  0
LINE
  8
0
 10
10.1459321975708
 20
-3.7002678254793864e-07
 30
2.7540194988250732
 11
9.59477710723877
 21
-4.250916845194297e-07
 31
3.163853645324707
  0
LINE
  8
0
 10
9.59477710723877
 20
-4.250916845194297e-07
 30
3.163853645324707
 11
8.972959518432617
 21
-4.83954011087917e-07
 31
3.6019515991210938
  0
LINE
  8
0
 10
8.972959518432617
 20
-4.83954011087917e-07
 30
3.6019515991210938
 11
8.011968612670898
 21
-5.940836445006425e-07
 31
4.421619892120361
  0
LINE
  8
0
 10
8.011968612670898
 20
-5.940836445006425e-07
 30
4.421619892120361
 11
7.065110683441162
 21
-7.137073225749191e-07
 31
5.311949253082275
  0
LINE
  8
0
 10
7.065110683441162
 20
-7.137073225749191e-07
 30
5.311949253082275
 11
6.344367980957031
 21
-8.181405064533465e-07
 31
6.08922004699707
  0
LINE
  8
0
 10
6.344367980957031
 20
-8.181405064533465e-07
 30
6.08922004699707
 11
5.651889801025391
 21
-9.28270139866072e-07
 31
6.90888786315918
  0
LINE
  8
0
 10
5.651889801025391
 20
-9.28270139866072e-07
 30
6.90888786315918
 11
4.846354007720947
 21
-1.0820717761816923e-06
 31
8.053597450256348
  0
LINE
  8
0
 10
4.846354007720947
 20
-1.0820717761816923e-06
 30
8.053597450256348
 11
4.379991054534912
 21
-1.1978977454418782e-06
 31
8.915660858154297
  0
LINE
  8
0
 10
4.379991054534912
 20
-1.1978977454418782e-06
 30
8.915660858154297
 11
3.885363817214966
 21
-1.3194201073929435e-06
 31
9.820122718811035
  0
LINE
  8
0
 10
3.885363817214966
 20
-1.3194201073929435e-06
 30
9.820122718811035
 11
3.3624720573425293
 21
-1.4694242054247297e-06
 31
10.936565399169922
  0
LINE
  8
0
 10
3.3624720573425293
 20
-1.4694242054247297e-06
 30
10.936565399169922
 11
2.853712797164917
 21
-1.6346186839655275e-06
 31
12.166068077087402
  0
LINE
  8
0
 10
2.853712797164917
 20
-1.6346186839655275e-06
 30
12.166068077087402
 11
2.3590855598449707
 21
-1.8150033156416612e-06
 31
13.508626937866211
  0
LINE
  8
0
 10
2.3590855598449707
 20
-1.8150033156416612e-06
 30
13.508626937866211
 11
2.0057804584503174
 21
-1.9858939594996627e-06
 31
14.780526161193848
  0
LINE
  8
0
 10
2.0057804584503174
 20
-1.9858939594996627e-06
 30
14.780526161193848
 11
1.7090039253234863
 21
-2.1226067019597394e-06
 31
15.798043251037598
  0
LINE
  8
0
 10
1.7090039253234863
 20
-2.1226067019597394e-06
 30
15.798043251037598
 11
1.42635977268219
 21
-2.302991333635873e-06
 31
17.14060401916504
  0
LINE
  8
0
 10
1.42635977268219
 20
-2.302991333635873e-06
 30
17.14060401916504
 11
1.1578477621078491
 21
-2.538440867283498e-06
 31
18.892995834350586
  0
LINE
  8
0
 10
1.1578477621078491
 20
-2.538440867283498e-06
 30
18.892995834350586
 11
1.0023936033248901
 21
-2.7074329409515485e-06
 31
20.15076446533203
  0
LINE
  8
0
 10
1.0023936033248901
 20
-2.7074329409515485e-06
 30
20.15076446533203
 11
0.8186748027801514
 21
-2.8802223823731765e-06
 31
21.43679428100586
  0
LINE
  8
0
 10
0.8186748027801514
 20
-2.8802223823731765e-06
 30
21.43679428100586
 11
0.6773527264595032
 21
-3.0150363272696268e-06
 31
22.4401798248291
  0
LINE
  8
0
 10
0.6773527264595032
 20
-3.0150363272696268e-06
 30
22.4401798248291
 11
0.5501628518104553
 21
-3.1650401979277376e-06
 31
23.556623458862305
  0
LINE
  8
0
 10
0.5501628518104553
 20
-3.1650401979277376e-06
 30
23.556623458862305
 11
0.4371051788330078
 21
-3.3188423458341276e-06
 31
24.701332092285156
  0
LINE
  8
0
 10
0.4371051788330078
 20
-3.3188423458341276e-06
 30
24.701332092285156
 11
0.28165093064308167
 21
-3.5030243452638388e-06
 31
26.07215690612793
  0
LINE
  8
0
 10
0.28165093064308167
 20
-3.5030243452638388e-06
 30
26.07215690612793
 11
0.1827254593372345
 21
-3.635939265222987e-06
 31
27.061412811279297
  0
LINE
  8
0
 10
0.2109927088022232
 20
-3.6910048493155045e-06
 30
27.47124671936035
 11
0.1827254593372345
 21
-3.635939265222987e-06
 31
27.061412811279297
  0
ENDSEC
  0
EOF
