  0
SECTION
  2
HEADER
  9
$ACADVER
  1
AC1009
  9
$INSBASE
 10
0.0
 20
0.0
 30
0.0
  9
$EXTMIN
 10
0.0
 20
0.0
 30
0.0
  9
$EXTMAX
 10
0.0
 20
0.0
 30
0.0
  0
ENDSEC
  0
SECTION
  2
TABLES
  0
TABLE
  2
VPORT
 70
1
  0
VPORT
  2
*ACTIVE
 70
0
 10
0.0
 20
0.0
 11
1.0
 21
1.0
 12
-5.0
 22
1.0
 13
0.0
 23
0.0
 14
0.1
 24
0.1
 15
0.1
 25
0.1
 16
0.0
 26
0.0
 36
1.0
 17
0.0
 27
0.0
 37
0.0
 40
10.0
 41
1.0
 42
50.0
 43
0.0
 44
0.0
 50
0.0
 51
0.0
 71
0
 72
100
 73
1
 74
1
 75
0
 76
0
 77
0
 78
0
  0
ENDTAB
  0
TABLE
  2
LTYPE
 70
8
  0
LTYPE
  2
CONTINUOUS
 70
0
  3
Solid line
 72
65
 73
0
 40
0.0
  0
LTYPE
  2
DOT
 70
0
  3
. . . . . . .
 72
65
 73
2
 40
0.25
 49
0.0
 49
-0.25
  0
LTYPE
  2
DASHED
 70
0
  3
__ __ __ __ __
 72
65
 73
2
 40
0.8
 49
0.5
 49
-0.3
  0
LTYPE
  2
DASHDOT
 70
0
  3
__ . __ . __ .
 72
65
 73
4
 40
1.0
 49
0.5
 49
-0.25
 49
0.0
 49
-0.25
  0
LTYPE
  2
DIVIDE
 70
0
  3
____ . . ____ . . 
 72
65
 73
6
 40
1.25
 49
0.5
 49
-0.25
 49
0.0
 49
-0.25
 49
0.0
 49
-0.25
  0
LTYPE
  2
BORDER
 70
0
  3
__ __ . __ __ . 
 72
65
 73
6
 40
1.75
 49
0.5
 49
-0.25
 49
0.5
 49
-0.25
 49
0.0
 49
-0.25
  0
LTYPE
  2
HIDDEN
 70
0
  3
__ __ __ __ __
 72
65
 73
2
 40
0.4
 49
0.25
 49
-0.25
  0
LTYPE
  2
CENTER
 70
0
  3
____ _ ____ _ __
 72
65
 73
4
 40
2.0
 49
1.25
 49
-0.25
 49
0.25
 49
-0.25
  0
ENDTAB
  0
TABLE
  2
LAYER
 70
1
  0
LAYER
  2
PYDXF
 70
64
 62
7
  6
continuous
  0
ENDTAB
  0
TABLE
  2
STYLE
 70
1
  0
STYLE
  2
STANDARD
 70
0
 40
0
 41
1.0
 50
0.0
 71
0
 42
1
 3
ARIAL.TTF
 4

  0
ENDTAB
  0
TABLE
  2
VIEW
 70
1
  0
VIEW
  2
BF_TOPVIEW
 70
0
 40
120.0
 10
0.0
 20
0.0
 41
200.0
 11
0.0
 21
0.0
 31
1.0
 12
0.0
 22
0.0
 32
0.0
 42
50.0
 43
0.0
 44
0.0
 50
0.0
 71
0
  0
ENDTAB
  0
ENDSEC
  0
SECTION
  2
BLOCKS
  0
ENDSEC
  0
SECTION
  2
ENTITIES
  0
POLYLINE
  8
0
 70
64
 66
1
 10
0.0
 20
0.0
 30
0.0
 71
381
 72
381
  0
VERTEX
  8
0
 10
-710.535888671875
 20
-27.898395538330078
 30
0.0
 70
192
  0
VERTEX
  8
0
 10
-699.3949584960938
 20
6.030751705169678
 30
0.0
 70
192
  0
VERTEX
  8
0
 10
-689.7732543945312
 20
28.312572479248047
 30
0.0
 70
192
  0
VERTEX
  8
0
 10
-676.606689453125
 20
54.13923645019531
 30
0.0
 70
192
  0
VERTEX
  8
0
 10
-665.9722290039062
 20
72.36982727050781
 30
0.0
 70
192
  0
VERTEX
  8
0
 10
-654.3248901367188
 20
88.57479858398438
 30
0.0
 70
192
  0
VERTEX
  8
0
 10
-636.6007080078125
 20
102.7541275024414
 30
0.0
 70
192
  0
VERTEX
  8
0
 10
-617.6072998046875
 20
112.53011322021484
 30
0.0
 70
192
  0
VERTEX
  8
0
 10
-606.7706909179688
 20
118.81768798828125
 30
0.0
 70
192
  0
VERTEX
  8
0
 10
-603.4151000976562
 20
125.7254638671875
 30
0.0
 70
192
  0
VERTEX
  8
0
 10
-603.3150634765625
 20
131.3713836669922
 30
0.0
 70
192
  0
VERTEX
  8
0
 10
-602.9779663085938
 20
134.7269744873047
 30
0.0
 70
192
  0
VERTEX
  8
0
 10
-602.5715942382812
 20
139.43031311035156
 30
0.0
 70
192
  0
VERTEX
  8
0
 10
-600.9346313476562
 20
145.3787078857422
 30
0.0
 70
192
  0
VERTEX
  8
0
 10
-588.5626831054688
 20
176.3572998046875
 30
0.0
 70
192
  0
VERTEX
  8
0
 10
-570.0638427734375
 20
214.07476806640625
 30
0.0
 70
192
  0
VERTEX
  8
0
 10
-546.4534912109375
 20
255.34182739257812
 30
0.0
 70
192
  0
VERTEX
  8
0
 10
-464.5067443847656
 20
365.331787109375
 30
0.0
 70
192
  0
VERTEX
  8
0
 10
-443.59552001953125
 20
380.6409606933594
 30
0.0
 70
192
  0
VERTEX
  8
0
 10
-419.96868896484375
 20
392.89190673828125
 30
0.0
 70
192
  0
VERTEX
  8
0
 10
-387.5911865234375
 20
394.6420593261719
 30
0.0
 70
192
  0
VERTEX
  8
0
 10
-345.29620361328125
 20
391.8710021972656
 30
0.0
 70
192
  0
VERTEX
  8
0
 10
-332.0243225097656
 20
416.3728942871094
 30
0.0
 70
192
  0
VERTEX
  8
0
 10
-313.7937927246094
 20
432.4158020019531
 30
0.0
 70
192
  0
VERTEX
  8
0
 10
-286.8124694824219
 20
453.56329345703125
 30
0.0
 70
192
  0
VERTEX
  8
0
 10
-256.18505859375
 20
467.41851806640625
 30
0.0
 70
192
  0
VERTEX
  8
0
 10
-227.745361328125
 20
475.44000244140625
 30
0.0
 70
192
  0
VERTEX
  8
0
 10
-198.57638549804688
 20
478.35687255859375
 30
0.0
 70
192
  0
VERTEX
  8
0
 10
-165.7613525390625
 20
479.0860595703125
 30
0.0
 70
192
  0
VERTEX
  8
0
 10
-140.238525390625
 20
471.0646057128906
 30
0.0
 70
192
  0
VERTEX
  8
0
 10
-116.90336608886719
 20
460.1262512207031
 30
0.0
 70
192
  0
VERTEX
  8
0
 10
-97.94354248046875
 20
452.1047668457031
 30
0.0
 70
192
  0
VERTEX
  8
0
 10
-76.16812133789062
 20
467.8033142089844
 30
0.0
 70
192
  0
VERTEX
  8
0
 10
-50.8478889465332
 20
479.9570617675781
 30
0.0
 70
192
  0
VERTEX
  8
0
 10
-28.059661865234375
 20
486.033935546875
 30
0.0
 70
192
  0
VERTEX
  8
0
 10
13.97198486328125
 20
487.0467529296875
 30
0.0
 70
192
  0
VERTEX
  8
0
 10
48.407554626464844
 20
484.0083312988281
 30
0.0
 70
192
  0
VERTEX
  8
0
 10
77.27265167236328
 20
478.94427490234375
 30
0.0
 70
192
  0
VERTEX
  8
0
 10
108.16336059570312
 20
468.8161315917969
 30
0.0
 70
192
  0
VERTEX
  8
0
 10
134.49644470214844
 20
457.6752624511719
 30
0.0
 70
192
  0
VERTEX
  8
0
 10
153.23341369628906
 20
443.49591064453125
 30
0.0
 70
192
  0
VERTEX
  8
0
 10
171.46408081054688
 20
420.7076721191406
 30
0.0
 70
192
  0
VERTEX
  8
0
 10
195.77157592773438
 20
421.7204895019531
 30
0.0
 70
192
  0
VERTEX
  8
0
 10
226.1558837890625
 20
422.22686767578125
 30
0.0
 70
192
  0
VERTEX
  8
0
 10
261.0977783203125
 20
418.1756286621094
 30
0.0
 70
192
  0
VERTEX
  8
0
 10
304.6486511230469
 20
412.0987548828125
 30
0.0
 70
192
  0
VERTEX
  8
0
 10
346.6802978515625
 20
401.4642639160156
 30
0.0
 70
192
  0
VERTEX
  8
0
 10
375.0389709472656
 20
393.3617858886719
 30
0.0
 70
192
  0
VERTEX
  8
0
 10
391.2439270019531
 20
385.7657165527344
 30
0.0
 70
192
  0
VERTEX
  8
0
 10
403.9040832519531
 20
372.0927429199219
 30
0.0
 70
192
  0
VERTEX
  8
0
 10
416.5642395019531
 20
356.3941955566406
 30
0.0
 70
192
  0
VERTEX
  8
0
 10
431.1486511230469
 20
329.41290283203125
 30
0.0
 70
192
  0
VERTEX
  8
0
 10
445.0038757324219
 20
305.3485107421875
 30
0.0
 70
192
  0
VERTEX
  8
0
 10
469.7974853515625
 20
293.6809387207031
 30
0.0
 70
192
  0
VERTEX
  8
0
 10
492.40338134765625
 20
279.82568359375
 30
0.0
 70
192
  0
VERTEX
  8
0
 10
520.1139526367188
 20
258.6781921386719
 30
0.0
 70
192
  0
VERTEX
  8
0
 10
535.7449340820312
 20
238.21932983398438
 30
0.0
 70
192
  0
VERTEX
  8
0
 10
543.8341064453125
 20
220.7043914794922
 30
0.0
 70
192
  0
VERTEX
  8
0
 10
547.480224609375
 20
204.33071899414062
 30
0.0
 70
192
  0
VERTEX
  8
0
 10
547.0952758789062
 20
182.1096954345703
 30
0.0
 70
192
  0
VERTEX
  8
0
 10
544.1783447265625
 20
157.3160858154297
 30
0.0
 70
192
  0
VERTEX
  8
0
 10
538.3446044921875
 20
123.77178955078125
 30
0.0
 70
192
  0
VERTEX
  8
0
 10
530.3231201171875
 20
96.7905044555664
 30
0.0
 70
192
  0
VERTEX
  8
0
 10
526.8064575195312
 20
88.35041809082031
 30
0.0
 70
192
  0
VERTEX
  8
0
 10
543.6866455078125
 20
66.1951904296875
 30
0.0
 70
192
  0
VERTEX
  8
0
 10
556.6984252929688
 20
47.20498275756836
 30
0.0
 70
192
  0
VERTEX
  8
0
 10
570.41357421875
 20
26.10475730895996
 30
0.0
 70
192
  0
VERTEX
  8
0
 10
575.6885986328125
 20
8.872909545898438
 30
0.0
 70
192
  0
VERTEX
  8
0
 10
577.798583984375
 20
-8.007270812988281
 30
0.0
 70
192
  0
VERTEX
  8
0
 10
577.0952758789062
 20
-22.074087142944336
 30
0.0
 70
192
  0
VERTEX
  8
0
 10
572.875244140625
 20
-37.899253845214844
 30
0.0
 70
192
  0
VERTEX
  8
0
 10
564.4351196289062
 20
-55.48277282714844
 30
0.0
 70
192
  0
VERTEX
  8
0
 10
546.1483154296875
 20
-84.31974029541016
 30
0.0
 70
192
  0
VERTEX
  8
0
 10
513.4429931640625
 20
-119.1351089477539
 30
0.0
 70
192
  0
VERTEX
  8
0
 10
485.3093566894531
 20
-140.93869018554688
 30
0.0
 70
192
  0
VERTEX
  8
0
 10
461.7474060058594
 20
-153.59881591796875
 30
0.0
 70
192
  0
VERTEX
  8
0
 10
468.05633544921875
 20
-165.40255737304688
 30
0.0
 70
192
  0
VERTEX
  8
0
 10
470.4984436035156
 20
-180.4625244140625
 30
0.0
 70
192
  0
VERTEX
  8
0
 10
470.2949523925781
 20
-190.84169006347656
 30
0.0
 70
192
  0
VERTEX
  8
0
 10
468.05633544921875
 20
-207.32623291015625
 30
0.0
 70
192
  0
VERTEX
  8
0
 10
463.3755798339844
 20
-225.64239501953125
 30
0.0
 70
192
  0
VERTEX
  8
0
 10
456.049072265625
 20
-240.90586853027344
 30
0.0
 70
192
  0
VERTEX
  8
0
 10
444.0418395996094
 20
-254.3377227783203
 30
0.0
 70
192
  0
VERTEX
  8
0
 10
428.5749206542969
 20
-268.5836181640625
 30
0.0
 70
192
  0
VERTEX
  8
0
 10
415.55010986328125
 20
-277.9452209472656
 30
0.0
 70
192
  0
VERTEX
  8
0
 10
397.64093017578125
 20
-280.9978942871094
 30
0.0
 70
192
  0
VERTEX
  8
0
 10
377.9002380371094
 20
-281.6084289550781
 30
0.0
 70
192
  0
VERTEX
  8
0
 10
358.1595458984375
 20
-278.7592468261719
 30
0.0
 70
192
  0
VERTEX
  8
0
 10
337.1976623535156
 20
-271.6363220214844
 30
0.0
 70
192
  0
VERTEX
  8
0
 10
341.87841796875
 20
-289.7489318847656
 30
0.0
 70
192
  0
VERTEX
  8
0
 10
345.9486999511719
 20
-312.9494323730469
 30
0.0
 70
192
  0
VERTEX
  8
0
 10
347.78033447265625
 20
-336.1498718261719
 30
0.0
 70
192
  0
VERTEX
  8
0
 10
348.39080810546875
 20
-366.2698059082031
 30
0.0
 70
192
  0
VERTEX
  8
0
 10
347.98382568359375
 20
-397.2037658691406
 30
0.0
 70
192
  0
VERTEX
  8
0
 10
345.9486999511719
 20
-420.6077880859375
 30
0.0
 70
192
  0
VERTEX
  8
0
 10
341.471435546875
 20
-445.4363708496094
 30
0.0
 70
192
  0
VERTEX
  8
0
 10
336.9941711425781
 20
-461.5138854980469
 30
0.0
 70
192
  0
VERTEX
  8
0
 10
322.748291015625
 20
-471.8930358886719
 30
0.0
 70
192
  0
VERTEX
  8
0
 10
303.18939208984375
 20
-479.1865234375
 30
0.0
 70
192
  0
VERTEX
  8
0
 10
277.9537353515625
 20
-480.4076232910156
 30
0.0
 70
192
  0
VERTEX
  8
0
 10
261.4654235839844
 20
-480.0543212890625
 30
0.0
 70
192
  0
VERTEX
  8
0
 10
244.07362365722656
 20
-479.1875305175781
 30
0.0
 70
192
  0
VERTEX
  8
0
 10
222.8037109375
 20
-475.447021484375
 30
0.0
 70
192
  0
VERTEX
  8
0
 10
206.59149169921875
 20
-469.52630615234375
 30
0.0
 70
192
  0
VERTEX
  8
0
 10
191.85269165039062
 20
-460.70648193359375
 30
0.0
 70
192
  0
VERTEX
  8
0
 10
177.32989501953125
 20
-449.6593017578125
 30
0.0
 70
192
  0
VERTEX
  8
0
 10
166.04054260253906
 20
-439.6259460449219
 30
0.0
 70
192
  0
VERTEX
  8
0
 10
154.2594451904297
 20
-426.9252014160156
 30
0.0
 70
192
  0
VERTEX
  8
0
 10
107.51390075683594
 20
-365.367919921875
 30
0.0
 70
192
  0
VERTEX
  8
0
 10
143.28396606445312
 20
-414.8490295410156
 30
0.0
 70
192
  0
VERTEX
  8
0
 10
86.13556671142578
 20
-315.0314025878906
 30
0.0
 70
192
  0
VERTEX
  8
0
 10
130.6562957763672
 20
-400.1993408203125
 30
0.0
 70
192
  0
VERTEX
  8
0
 10
118.74592590332031
 20
-383.54681396484375
 30
0.0
 70
192
  0
VERTEX
  8
0
 10
98.18154907226562
 20
-344.9483337402344
 30
0.0
 70
192
  0
VERTEX
  8
0
 10
91.98898315429688
 20
-330.8378601074219
 30
0.0
 70
192
  0
VERTEX
  8
0
 10
83.78011322021484
 20
-308.2005310058594
 30
0.0
 70
192
  0
VERTEX
  8
0
 10
69.29391479492188
 20
-312.793701171875
 30
0.0
 70
192
  0
VERTEX
  8
0
 10
51.2745361328125
 20
-317.97576904296875
 30
0.0
 70
192
  0
VERTEX
  8
0
 10
29.72191619873047
 20
-318.91796875
 30
0.0
 70
192
  0
VERTEX
  8
0
 10
4.871666431427002
 20
-317.8580017089844
 30
0.0
 70
192
  0
VERTEX
  8
0
 10
-13.029932975769043
 20
-316.3269348144531
 30
0.0
 70
192
  0
VERTEX
  8
0
 10
-29.636024475097656
 20
-313.5003662109375
 30
0.0
 70
192
  0
VERTEX
  8
0
 10
-44.71105194091797
 20
-309.9671630859375
 30
0.0
 70
192
  0
VERTEX
  8
0
 10
-49.422027587890625
 20
-326.3377380371094
 30
0.0
 70
192
  0
VERTEX
  8
0
 10
-55.54628372192383
 20
-341.1772155761719
 30
0.0
 70
192
  0
VERTEX
  8
0
 10
-63.79043960571289
 20
-358.4899597167969
 30
0.0
 70
192
  0
VERTEX
  8
0
 10
-73.3148422241211
 20
-376.073486328125
 30
0.0
 70
192
  0
VERTEX
  8
0
 10
-84.54877471923828
 20
-396.09918212890625
 30
0.0
 70
192
  0
VERTEX
  8
0
 10
-97.98062133789062
 20
-414.171142578125
 30
0.0
 70
192
  0
VERTEX
  8
0
 10
-112.14512634277344
 20
-429.3125
 30
0.0
 70
192
  0
VERTEX
  8
0
 10
-130.21707153320312
 20
-442.98858642578125
 30
0.0
 70
192
  0
VERTEX
  8
0
 10
-152.1015167236328
 20
-455.8573913574219
 30
0.0
 70
192
  0
VERTEX
  8
0
 10
-174.54898071289062
 20
-466.6639404296875
 30
0.0
 70
192
  0
VERTEX
  8
0
 10
-197.31533813476562
 20
-475.950927734375
 30
0.0
 70
192
  0
VERTEX
  8
0
 10
-223.37181091308594
 20
-485.726318359375
 30
0.0
 70
192
  0
VERTEX
  8
0
 10
-255.0859375
 20
-495.05401611328125
 30
0.0
 70
192
  0
VERTEX
  8
0
 10
-270.3493957519531
 20
-495.3931884765625
 30
0.0
 70
192
  0
VERTEX
  8
0
 10
-285.6129455566406
 20
-494.3756103515625
 30
0.0
 70
192
  0
VERTEX
  8
0
 10
-293.5838623046875
 20
-493.1884765625
 30
0.0
 70
192
  0
VERTEX
  8
0
 10
-302.0635986328125
 20
-485.726318359375
 30
0.0
 70
192
  0
VERTEX
  8
0
 10
-309.3560791015625
 20
-477.2466125488281
 30
0.0
 70
192
  0
VERTEX
  8
0
 10
-318.00543212890625
 20
-466.73175048828125
 30
0.0
 70
192
  0
VERTEX
  8
0
 10
-325.8632507324219
 20
-456.01904296875
 30
0.0
 70
192
  0
VERTEX
  8
0
 10
-334.2016906738281
 20
-438.23992919921875
 30
0.0
 70
192
  0
VERTEX
  8
0
 10
-339.82659912109375
 20
-423.08953857421875
 30
0.0
 70
192
  0
VERTEX
  8
0
 10
-344.6600341796875
 20
-406.0170593261719
 30
0.0
 70
192
  0
VERTEX
  8
0
 10
-348.36279296875
 20
-390.0186462402344
 30
0.0
 70
192
  0
VERTEX
  8
0
 10
-352.6026611328125
 20
-370.4305114746094
 30
0.0
 70
192
  0
VERTEX
  8
0
 10
-356.2206726074219
 20
-353.527587890625
 30
0.0
 70
192
  0
VERTEX
  8
0
 10
-359.1037902832031
 20
-336.11590576171875
 30
0.0
 70
192
  0
VERTEX
  8
0
 10
-380.9814147949219
 20
-336.4551086425781
 30
0.0
 70
192
  0
VERTEX
  8
0
 10
-400.9935607910156
 20
-334.9287414550781
 30
0.0
 70
192
  0
VERTEX
  8
0
 10
-423.0408020019531
 20
-330.68890380859375
 30
0.0
 70
192
  0
VERTEX
  8
0
 10
-440.5938415527344
 20
-322.7462158203125
 30
0.0
 70
192
  0
VERTEX
  8
0
 10
-456.2530517578125
 20
-313.333740234375
 30
0.0
 70
192
  0
VERTEX
  8
0
 10
-467.7854919433594
 20
-305.1366882324219
 30
0.0
 70
192
  0
VERTEX
  8
0
 10
-477.3675231933594
 20
-296.6569519042969
 30
0.0
 70
192
  0
VERTEX
  8
0
 10
-486.74542236328125
 20
-287.8652038574219
 30
0.0
 70
192
  0
VERTEX
  8
0
 10
-494.364990234375
 20
-276.72894287109375
 30
0.0
 70
192
  0
VERTEX
  8
0
 10
-497.5885925292969
 20
-268.5233154296875
 30
0.0
 70
192
  0
VERTEX
  8
0
 10
-507.5526123046875
 20
-270.2816467285156
 30
0.0
 70
192
  0
VERTEX
  8
0
 10
-522.4985961914062
 20
-270.2816467285156
 30
0.0
 70
192
  0
VERTEX
  8
0
 10
-539.7517700195312
 20
-265.13751220703125
 30
0.0
 70
192
  0
VERTEX
  8
0
 10
-551.4820556640625
 20
-259.484375
 30
0.0
 70
192
  0
VERTEX
  8
0
 10
-565.332275390625
 20
-252.13528442382812
 30
0.0
 70
192
  0
VERTEX
  8
0
 10
-577.5281982421875
 20
-244.83819580078125
 30
0.0
 70
192
  0
VERTEX
  8
0
 10
-590.2269287109375
 20
-233.39056396484375
 30
0.0
 70
192
  0
VERTEX
  8
0
 10
-599.6047973632812
 20
-224.5988006591797
 30
0.0
 70
192
  0
VERTEX
  8
0
 10
-609.8834228515625
 20
-212.62649536132812
 30
0.0
 70
192
  0
VERTEX
  8
0
 10
-622.0156860351562
 20
-197.17471313476562
 30
0.0
 70
192
  0
VERTEX
  8
0
 10
-627.6123046875
 20
-190.56053161621094
 30
0.0
 70
192
  0
VERTEX
  8
0
 10
-633.7177124023438
 20
-181.91122436523438
 30
0.0
 70
192
  0
VERTEX
  8
0
 10
-639.1447143554688
 20
-173.4315185546875
 30
0.0
 70
192
  0
VERTEX
  8
0
 10
-643.7238159179688
 20
-165.29098510742188
 30
0.0
 70
192
  0
VERTEX
  8
0
 10
-646.2677001953125
 20
-161.55990600585938
 30
0.0
 70
192
  0
VERTEX
  8
0
 10
-650.1683349609375
 20
-155.284912109375
 30
0.0
 70
192
  0
VERTEX
  8
0
 10
-656.2738037109375
 20
-151.8930206298828
 30
0.0
 70
192
  0
VERTEX
  8
0
 10
-664.5838623046875
 20
-147.14437866210938
 30
0.0
 70
192
  0
VERTEX
  8
0
 10
-678.6507568359375
 20
-138.05955505371094
 30
0.0
 70
192
  0
VERTEX
  8
0
 10
-695.9412231445312
 20
-120.7690658569336
 30
0.0
 70
192
  0
VERTEX
  8
0
 10
-705.319091796875
 20
-102.59939575195312
 30
0.0
 70
192
  0
VERTEX
  8
0
 10
-710.6403198242188
 20
-83.1950912475586
 30
0.0
 70
192
  0
VERTEX
  8
0
 10
-712.3212890625
 20
-58.19281005859375
 30
0.0
 70
192
  0
VERTEX
  8
0
 10
-711.7813110351562
 20
-41.765220642089844
 30
0.0
 70
192
  0
VERTEX
  8
0
 10
-532.3851318359375
 20
278.113525390625
 30
0.0
 70
192
  0
VERTEX
  8
0
 10
-519.7235107421875
 20
298.4234924316406
 30
0.0
 70
192
  0
VERTEX
  8
0
 10
-505.3034973144531
 20
318.0301208496094
 30
0.0
 70
192
  0
VERTEX
  8
0
 10
-485.60845947265625
 20
342.9117736816406
 30
0.0
 70
192
  0
VERTEX
  8
0
 10
-386.9609069824219
 20
-197.61610412597656
 30
0.0
 70
192
  0
VERTEX
  8
0
 10
-384.2224426269531
 20
-210.7240753173828
 30
0.0
 70
192
  0
VERTEX
  8
0
 10
-385.7749938964844
 20
-206.6342010498047
 30
0.0
 70
192
  0
VERTEX
  8
0
 10
-361.1320495605469
 20
-236.883056640625
 30
0.0
 70
192
  0
VERTEX
  8
0
 10
-368.8608093261719
 20
-231.3148193359375
 30
0.0
 70
192
  0
VERTEX
  8
0
 10
-379.2870788574219
 20
-217.93663024902344
 30
0.0
 70
192
  0
VERTEX
  8
0
 10
-374.0329895019531
 20
-224.53021240234375
 30
0.0
 70
192
  0
VERTEX
  8
0
 10
-347.1239929199219
 20
-243.22503662109375
 30
0.0
 70
192
  0
VERTEX
  8
0
 10
-338.35137939453125
 20
-242.81483459472656
 30
0.0
 70
192
  0
VERTEX
  8
0
 10
-308.6254577636719
 20
-236.28187561035156
 30
0.0
 70
192
  0
VERTEX
  8
0
 10
-292.07110595703125
 20
-225.93548583984375
 30
0.0
 70
192
  0
VERTEX
  8
0
 10
-300.5556945800781
 20
-232.31741333007812
 30
0.0
 70
192
  0
VERTEX
  8
0
 10
-316.9752502441406
 20
-238.93832397460938
 30
0.0
 70
192
  0
VERTEX
  8
0
 10
-384.966796875
 20
-188.4556427001953
 30
0.0
 70
192
  0
VERTEX
  8
0
 10
-281.4904479980469
 20
-216.75286865234375
 30
0.0
 70
192
  0
VERTEX
  8
0
 10
-273.8172912597656
 20
-207.2898406982422
 30
0.0
 70
192
  0
VERTEX
  8
0
 10
-380.27423095703125
 20
-175.6914520263672
 30
0.0
 70
192
  0
VERTEX
  8
0
 10
-357.7926025390625
 20
-166.79258728027344
 30
0.0
 70
192
  0
VERTEX
  8
0
 10
-346.1346130371094
 20
-172.03057861328125
 30
0.0
 70
192
  0
VERTEX
  8
0
 10
-371.0416259765625
 20
-168.77740478515625
 30
0.0
 70
192
  0
VERTEX
  8
0
 10
-307.5091857910156
 20
-179.16407775878906
 30
0.0
 70
192
  0
VERTEX
  8
0
 10
-331.7381286621094
 20
-178.181396484375
 30
0.0
 70
192
  0
VERTEX
  8
0
 10
-295.5640563964844
 20
-174.00950622558594
 30
0.0
 70
192
  0
VERTEX
  8
0
 10
-283.4363098144531
 20
-164.83853149414062
 30
0.0
 70
192
  0
VERTEX
  8
0
 10
-251.2764892578125
 20
-183.37705993652344
 30
0.0
 70
192
  0
VERTEX
  8
0
 10
-235.0003662109375
 20
-186.66461181640625
 30
0.0
 70
192
  0
VERTEX
  8
0
 10
-263.8741149902344
 20
-193.8981170654297
 30
0.0
 70
192
  0
VERTEX
  8
0
 10
-229.19308471679688
 20
-198.4108123779297
 30
0.0
 70
192
  0
VERTEX
  8
0
 10
-241.11019897460938
 20
-182.21231079101562
 30
0.0
 70
192
  0
VERTEX
  8
0
 10
-206.33375549316406
 20
-223.5097198486328
 30
0.0
 70
192
  0
VERTEX
  8
0
 10
-158.2923583984375
 20
-227.9960479736328
 30
0.0
 70
192
  0
VERTEX
  8
0
 10
-140.33848571777344
 20
-219.97251892089844
 30
0.0
 70
192
  0
VERTEX
  8
0
 10
-179.3006591796875
 20
-228.47259521484375
 30
0.0
 70
192
  0
VERTEX
  8
0
 10
-220.947265625
 20
-211.3772735595703
 30
0.0
 70
192
  0
VERTEX
  8
0
 10
377.9438781738281
 20
-205.09716796875
 30
0.0
 70
192
  0
VERTEX
  8
0
 10
385.31781005859375
 20
-199.15972900390625
 30
0.0
 70
192
  0
VERTEX
  8
0
 10
390.761962890625
 20
-192.56689453125
 30
0.0
 70
192
  0
VERTEX
  8
0
 10
402.816162109375
 20
-156.00946044921875
 30
0.0
 70
192
  0
VERTEX
  8
0
 10
401.54205322265625
 20
-164.28460693359375
 30
0.0
 70
192
  0
VERTEX
  8
0
 10
399.342529296875
 20
-172.83848571777344
 30
0.0
 70
192
  0
VERTEX
  8
0
 10
395.3824157714844
 20
-183.03909301757812
 30
0.0
 70
192
  0
VERTEX
  8
0
 10
455.3076171875
 20
-54.690311431884766
 30
0.0
 70
192
  0
VERTEX
  8
0
 10
481.50335693359375
 20
-42.46824645996094
 30
0.0
 70
192
  0
VERTEX
  8
0
 10
497.38623046875
 20
-18.096881866455078
 30
0.0
 70
192
  0
VERTEX
  8
0
 10
498.7066955566406
 20
-9.197456359863281
 30
0.0
 70
192
  0
VERTEX
  8
0
 10
495.2545166015625
 20
-27.567838668823242
 30
0.0
 70
192
  0
VERTEX
  8
0
 10
495.4131774902344
 20
6.671427249908447
 30
0.0
 70
192
  0
VERTEX
  8
0
 10
490.89776611328125
 20
-33.51963424682617
 30
0.0
 70
192
  0
VERTEX
  8
0
 10
-270.0306091308594
 20
-152.19886779785156
 30
0.0
 70
192
  0
VERTEX
  8
0
 10
-124.13448333740234
 20
-216.78392028808594
 30
0.0
 70
192
  0
VERTEX
  8
0
 10
-115.36621856689453
 20
-213.14218139648438
 30
0.0
 70
192
  0
VERTEX
  8
0
 10
-257.38238525390625
 20
-131.4059295654297
 30
0.0
 70
192
  0
VERTEX
  8
0
 10
-83.14794158935547
 20
-222.44053649902344
 30
0.0
 70
192
  0
VERTEX
  8
0
 10
-91.17215728759766
 20
-219.07757568359375
 30
0.0
 70
192
  0
VERTEX
  8
0
 10
-104.33065795898438
 20
-210.97811889648438
 30
0.0
 70
192
  0
VERTEX
  8
0
 10
-58.550472259521484
 20
-239.95262145996094
 30
0.0
 70
192
  0
VERTEX
  8
0
 10
-32.369850158691406
 20
-251.78305053710938
 30
0.0
 70
192
  0
VERTEX
  8
0
 10
-73.38053131103516
 20
-230.74676513671875
 30
0.0
 70
192
  0
VERTEX
  8
0
 10
367.38311767578125
 20
-210.19131469726562
 30
0.0
 70
192
  0
VERTEX
  8
0
 10
481.4491271972656
 20
22.473060607910156
 30
0.0
 70
192
  0
VERTEX
  8
0
 10
356.9958190917969
 20
-208.49644470214844
 30
0.0
 70
192
  0
VERTEX
  8
0
 10
350.5784912109375
 20
-206.87649536132812
 30
0.0
 70
192
  0
VERTEX
  8
0
 10
402.3144226074219
 20
-84.98750305175781
 30
0.0
 70
192
  0
VERTEX
  8
0
 10
401.20159912109375
 20
-60.11954879760742
 30
0.0
 70
192
  0
VERTEX
  8
0
 10
418.32421875
 20
36.946434020996094
 30
0.0
 70
192
  0
VERTEX
  8
0
 10
429.0113525390625
 20
65.08139038085938
 30
0.0
 70
192
  0
VERTEX
  8
0
 10
445.8985290527344
 20
209.69085693359375
 30
0.0
 70
192
  0
VERTEX
  8
0
 10
449.7795104980469
 20
97.646240234375
 30
0.0
 70
192
  0
VERTEX
  8
0
 10
459.13671875
 20
118.16132354736328
 30
0.0
 70
192
  0
VERTEX
  8
0
 10
469.99169921875
 20
159.33860778808594
 30
0.0
 70
192
  0
VERTEX
  8
0
 10
467.6251525878906
 20
143.0267333984375
 30
0.0
 70
192
  0
VERTEX
  8
0
 10
467.6959533691406
 20
174.6125030517578
 30
0.0
 70
192
  0
VERTEX
  8
0
 10
453.00543212890625
 20
31.924348831176758
 30
0.0
 70
192
  0
VERTEX
  8
0
 10
459.63287353515625
 20
190.80699157714844
 30
0.0
 70
192
  0
VERTEX
  8
0
 10
433.3082580566406
 20
224.16697692871094
 30
0.0
 70
192
  0
VERTEX
  8
0
 10
-312.97821044921875
 20
-42.9161262512207
 30
0.0
 70
192
  0
VERTEX
  8
0
 10
-311.8740234375
 20
-77.80328369140625
 30
0.0
 70
192
  0
VERTEX
  8
0
 10
-319.3780822753906
 20
-64.8802261352539
 30
0.0
 70
192
  0
VERTEX
  8
0
 10
-316.7822265625
 20
-58.190025329589844
 30
0.0
 70
192
  0
VERTEX
  8
0
 10
-264.4413757324219
 20
-103.84321594238281
 30
0.0
 70
192
  0
VERTEX
  8
0
 10
-247.90000915527344
 20
-111.11434936523438
 30
0.0
 70
192
  0
VERTEX
  8
0
 10
-294.0336608886719
 20
-90.01274871826172
 30
0.0
 70
192
  0
VERTEX
  8
0
 10
16.12902069091797
 20
-254.52247619628906
 30
0.0
 70
192
  0
VERTEX
  8
0
 10
57.35600280761719
 20
-227.71713256835938
 30
0.0
 70
192
  0
VERTEX
  8
0
 10
40.26085662841797
 20
-241.40650939941406
 30
0.0
 70
192
  0
VERTEX
  8
0
 10
94.6797103881836
 20
-217.65151977539062
 30
0.0
 70
192
  0
VERTEX
  8
0
 10
79.43517303466797
 20
-210.42138671875
 30
0.0
 70
192
  0
VERTEX
  8
0
 10
89.9928207397461
 20
-211.41355895996094
 30
0.0
 70
192
  0
VERTEX
  8
0
 10
86.47930908203125
 20
-209.0081024169922
 30
0.0
 70
192
  0
VERTEX
  8
0
 10
-5.344447612762451
 20
-258.9218444824219
 30
0.0
 70
192
  0
VERTEX
  8
0
 10
72.80546569824219
 20
-211.97694396972656
 30
0.0
 70
192
  0
VERTEX
  8
0
 10
118.05487060546875
 20
-235.064208984375
 30
0.0
 70
192
  0
VERTEX
  8
0
 10
111.10144805908203
 20
-230.94830322265625
 30
0.0
 70
192
  0
VERTEX
  8
0
 10
133.04293823242188
 20
-241.23226928710938
 30
0.0
 70
192
  0
VERTEX
  8
0
 10
158.90646362304688
 20
-246.25294494628906
 30
0.0
 70
192
  0
VERTEX
  8
0
 10
125.27662658691406
 20
-238.59906005859375
 30
0.0
 70
192
  0
VERTEX
  8
0
 10
138.55433654785156
 20
-242.4987335205078
 30
0.0
 70
192
  0
VERTEX
  8
0
 10
105.11309051513672
 20
-226.4189453125
 30
0.0
 70
192
  0
VERTEX
  8
0
 10
178.08139038085938
 20
-247.99441528320312
 30
0.0
 70
192
  0
VERTEX
  8
0
 10
198.33314514160156
 20
-248.52963256835938
 30
0.0
 70
192
  0
VERTEX
  8
0
 10
185.24957275390625
 20
-248.1099853515625
 30
0.0
 70
192
  0
VERTEX
  8
0
 10
212.7109832763672
 20
-245.76895141601562
 30
0.0
 70
192
  0
VERTEX
  8
0
 10
227.97549438476562
 20
-239.14688110351562
 30
0.0
 70
192
  0
VERTEX
  8
0
 10
205.3905792236328
 20
-248.0200958251953
 30
0.0
 70
192
  0
VERTEX
  8
0
 10
220.17514038085938
 20
-242.44418334960938
 30
0.0
 70
192
  0
VERTEX
  8
0
 10
190.95301818847656
 20
-248.4263916015625
 30
0.0
 70
192
  0
VERTEX
  8
0
 10
169.57318115234375
 20
-247.4442901611328
 30
0.0
 70
192
  0
VERTEX
  8
0
 10
147.74978637695312
 20
-244.3594207763672
 30
0.0
 70
192
  0
VERTEX
  8
0
 10
99.06906127929688
 20
-222.1968231201172
 30
0.0
 70
192
  0
VERTEX
  8
0
 10
-307.4140625
 20
-22.696086883544922
 30
0.0
 70
192
  0
VERTEX
  8
0
 10
-311.01763916015625
 20
-33.08182144165039
 30
0.0
 70
192
  0
VERTEX
  8
0
 10
-304.4829406738281
 20
-10.246003150939941
 30
0.0
 70
192
  0
VERTEX
  8
0
 10
237.23233032226562
 20
-233.7642059326172
 30
0.0
 70
192
  0
VERTEX
  8
0
 10
203.23121643066406
 20
342.2855224609375
 30
0.0
 70
192
  0
VERTEX
  8
0
 10
276.52264404296875
 20
333.7222595214844
 30
0.0
 70
192
  0
VERTEX
  8
0
 10
240.0361328125
 20
342.3431091308594
 30
0.0
 70
192
  0
VERTEX
  8
0
 10
331.83514404296875
 20
-201.6490936279297
 30
0.0
 70
192
  0
VERTEX
  8
0
 10
319.8094482421875
 20
-197.5956573486328
 30
0.0
 70
192
  0
VERTEX
  8
0
 10
312.7253112792969
 20
322.0671081542969
 30
0.0
 70
192
  0
VERTEX
  8
0
 10
350.6455383300781
 20
300.54742431640625
 30
0.0
 70
192
  0
VERTEX
  8
0
 10
384.83428955078125
 20
256.94952392578125
 30
0.0
 70
192
  0
VERTEX
  8
0
 10
379.0749206542969
 20
266.3148193359375
 30
0.0
 70
192
  0
VERTEX
  8
0
 10
416.5706787109375
 20
232.9904327392578
 30
0.0
 70
192
  0
VERTEX
  8
0
 10
395.1513671875
 20
234.72621154785156
 30
0.0
 70
192
  0
VERTEX
  8
0
 10
373.3155822753906
 20
275.6801452636719
 30
0.0
 70
192
  0
VERTEX
  8
0
 10
362.1076354980469
 20
288.3056335449219
 30
0.0
 70
192
  0
VERTEX
  8
0
 10
344.1611633300781
 20
-205.2565460205078
 30
0.0
 70
192
  0
VERTEX
  8
0
 10
335.5036926269531
 20
310.81817626953125
 30
0.0
 70
192
  0
VERTEX
  8
0
 10
-155.17079162597656
 20
395.1515197753906
 30
0.0
 70
192
  0
VERTEX
  8
0
 10
-178.38800048828125
 20
395.4140625
 30
0.0
 70
192
  0
VERTEX
  8
0
 10
-371.813720703125
 20
292.4778747558594
 30
0.0
 70
192
  0
VERTEX
  8
0
 10
-359.7669677734375
 20
282.68292236328125
 30
0.0
 70
192
  0
VERTEX
  8
0
 10
-252.6584930419922
 20
351.6575622558594
 30
0.0
 70
192
  0
VERTEX
  8
0
 10
-301.7008361816406
 20
285.6485595703125
 30
0.0
 70
192
  0
VERTEX
  8
0
 10
-278.46563720703125
 20
321.8285217285156
 30
0.0
 70
192
  0
VERTEX
  8
0
 10
-229.08126831054688
 20
371.1391906738281
 30
0.0
 70
192
  0
VERTEX
  8
0
 10
-205.411376953125
 20
385.4754333496094
 30
0.0
 70
192
  0
VERTEX
  8
0
 10
-132.5069122314453
 20
384.4378662109375
 30
0.0
 70
192
  0
VERTEX
  8
0
 10
-68.59075927734375
 20
296.0408630371094
 30
0.0
 70
192
  0
VERTEX
  8
0
 10
-26.592370986938477
 20
382.6723327636719
 30
0.0
 70
192
  0
VERTEX
  8
0
 10
-50.6849250793457
 20
344.0535583496094
 30
0.0
 70
192
  0
VERTEX
  8
0
 10
-104.17056274414062
 20
350.978759765625
 30
0.0
 70
192
  0
VERTEX
  8
0
 10
91.4753646850586
 20
377.8534240722656
 30
0.0
 70
192
  0
VERTEX
  8
0
 10
124.25416564941406
 20
352.37445068359375
 30
0.0
 70
192
  0
VERTEX
  8
0
 10
109.72207641601562
 20
368.6898193359375
 30
0.0
 70
192
  0
VERTEX
  8
0
 10
65.80412292480469
 20
385.72509765625
 30
0.0
 70
192
  0
VERTEX
  8
0
 10
172.91415405273438
 20
327.9581298828125
 30
0.0
 70
192
  0
VERTEX
  8
0
 10
281.2536926269531
 20
-205.07077026367188
 30
0.0
 70
192
  0
VERTEX
  8
0
 10
272.7629089355469
 20
-211.88697814941406
 30
0.0
 70
192
  0
VERTEX
  8
0
 10
289.8059997558594
 20
-195.45037841796875
 30
0.0
 70
192
  0
VERTEX
  8
0
 10
146.90887451171875
 20
289.7746276855469
 30
0.0
 70
192
  0
VERTEX
  8
0
 10
13.905826568603516
 20
390.0745849609375
 30
0.0
 70
192
  0
VERTEX
  8
0
 10
-3.475424289703369
 20
390.4941711425781
 30
0.0
 70
192
  0
VERTEX
  8
0
 10
-465.1430969238281
 20
203.5719451904297
 30
0.0
 70
192
  0
VERTEX
  8
0
 10
-464.7706604003906
 20
211.8810272216797
 30
0.0
 70
192
  0
VERTEX
  8
0
 10
-457.1632080078125
 20
224.1842041015625
 30
0.0
 70
192
  0
VERTEX
  8
0
 10
-443.3135070800781
 20
191.69544982910156
 30
0.0
 70
192
  0
VERTEX
  8
0
 10
-448.1693420410156
 20
236.5106201171875
 30
0.0
 70
192
  0
VERTEX
  8
0
 10
-427.23486328125
 20
264.4267883300781
 30
0.0
 70
192
  0
VERTEX
  8
0
 10
-420.8079833984375
 20
188.54946899414062
 30
0.0
 70
192
  0
VERTEX
  8
0
 10
-438.0912170410156
 20
250.77748107910156
 30
0.0
 70
192
  0
VERTEX
  8
0
 10
-419.9506530761719
 20
270.0650634765625
 30
0.0
 70
192
  0
VERTEX
  8
0
 10
-399.5610046386719
 20
177.26156616210938
 30
0.0
 70
192
  0
VERTEX
  8
0
 10
-404.99346923828125
 20
282.0955810546875
 30
0.0
 70
192
  0
VERTEX
  8
0
 10
-392.4441833496094
 20
289.3988952636719
 30
0.0
 70
192
  0
VERTEX
  8
0
 10
-380.3903503417969
 20
292.66644287109375
 30
0.0
 70
192
  0
VERTEX
  8
0
 10
-334.1506652832031
 20
53.28311538696289
 30
0.0
 70
192
  0
VERTEX
  8
0
 10
-330.20977783203125
 20
39.855709075927734
 30
0.0
 70
192
  0
VERTEX
  8
0
 10
-336.9237060546875
 20
45.43638610839844
 30
0.0
 70
192
  0
VERTEX
  8
0
 10
-348.215576171875
 20
185.858154296875
 30
0.0
 70
192
  0
VERTEX
  8
0
 10
-380.73529052734375
 20
178.7648162841797
 30
0.0
 70
192
  0
VERTEX
  8
0
 10
-322.1377258300781
 20
77.07323455810547
 30
0.0
 70
192
  0
VERTEX
  8
0
 10
-327.6474609375
 20
239.56297302246094
 30
0.0
 70
192
  0
VERTEX
  8
0
 10
-329.8489990234375
 20
179.9145965576172
 30
0.0
 70
192
  0
VERTEX
  8
0
 10
-316.6280517578125
 20
157.36651611328125
 30
0.0
 70
192
  0
VERTEX
  8
0
 10
-320.85479736328125
 20
241.1039276123047
 30
0.0
 70
192
  0
VERTEX
  8
0
 10
-320.6697082519531
 20
33.36293029785156
 30
0.0
 70
192
  0
VERTEX
  8
0
 10
-326.70599365234375
 20
65.31779479980469
 30
0.0
 70
192
  0
VERTEX
  8
0
 10
-315.04620361328125
 20
25.72553062438965
 30
0.0
 70
192
  0
VERTEX
  8
0
 10
-315.7101745605469
 20
105.29647827148438
 30
0.0
 70
192
  0
VERTEX
  8
0
 10
-321.7034912109375
 20
89.72373962402344
 30
0.0
 70
192
  0
VERTEX
  8
0
 10
-320.3782958984375
 20
163.72564697265625
 30
0.0
 70
192
  0
VERTEX
  8
0
 10
-324.6218566894531
 20
172.3115692138672
 30
0.0
 70
192
  0
VERTEX
  8
0
 10
-311.5320129394531
 20
117.89193725585938
 30
0.0
 70
192
  0
VERTEX
  8
0
 10
-309.1763916015625
 20
132.40664672851562
 30
0.0
 70
192
  0
VERTEX
  8
0
 10
-312.72430419921875
 20
148.7167510986328
 30
0.0
 70
192
  0
VERTEX
  8
0
 10
-308.9603271484375
 20
140.8128662109375
 30
0.0
 70
192
  0
VERTEX
  8
0
 10
-305.1533203125
 20
1.1545480489730835
 30
0.0
 70
192
  0
VERTEX
  8
0
 10
-306.00726318359375
 20
10.391315460205078
 30
0.0
 70
192
  0
VERTEX
  8
0
 10
253.54039001464844
 20
-225.26010131835938
 30
0.0
 70
192
  0
VERTEX
  8
0
 10
244.3541259765625
 20
-230.25897216796875
 30
0.0
 70
192
  0
VERTEX
  8
0
 10
-310.2093811035156
 20
17.14257049560547
 30
0.0
 70
192
  0
VERTEX
  8
0
 10
-337.8208923339844
 20
183.39691162109375
 30
0.0
 70
192
  0
VERTEX
  8
0
 10
0.0
 20
0.0
 30
0.0
 70
128
 71
254
 72
253
 73
261
  0
VERTEX
  8
0
 10
0.0
 20
0.0
 30
0.0
 70
128
 71
254
 72
261
 73
248
  0
VERTEX
  8
0
 10
0.0
 20
0.0
 30
0.0
 70
128
 71
256
 72
254
 73
248
  0
VERTEX
  8
0
 10
0.0
 20
0.0
 30
0.0
 70
128
 71
256
 72
248
 73
235
  0
VERTEX
  8
0
 10
0.0
 20
0.0
 30
0.0
 70
128
 71
257
 72
256
 73
235
  0
VERTEX
  8
0
 10
0.0
 20
0.0
 30
0.0
 70
128
 71
259
 72
257
 73
235
  0
VERTEX
  8
0
 10
0.0
 20
0.0
 30
0.0
 70
128
 71
258
 72
259
 73
235
  0
VERTEX
  8
0
 10
0.0
 20
0.0
 30
0.0
 70
128
 71
258
 72
235
 73
233
  0
VERTEX
  8
0
 10
0.0
 20
0.0
 30
0.0
 70
128
 71
260
 72
258
 73
233
  0
VERTEX
  8
0
 10
0.0
 20
0.0
 30
0.0
 70
128
 71
309
 72
312
 73
311
  0
VERTEX
  8
0
 10
0.0
 20
0.0
 30
0.0
 70
128
 71
53
 72
310
 73
309
  0
VERTEX
  8
0
 10
0.0
 20
0.0
 30
0.0
 70
128
 71
55
 72
54
 73
53
  0
VERTEX
  8
0
 10
0.0
 20
0.0
 30
0.0
 70
128
 71
57
 72
56
 73
55
  0
VERTEX
  8
0
 10
0.0
 20
0.0
 30
0.0
 70
128
 71
59
 72
58
 73
57
  0
VERTEX
  8
0
 10
0.0
 20
0.0
 30
0.0
 70
128
 71
61
 72
60
 73
59
  0
VERTEX
  8
0
 10
0.0
 20
0.0
 30
0.0
 70
128
 71
63
 72
62
 73
61
  0
VERTEX
  8
0
 10
0.0
 20
0.0
 30
0.0
 70
128
 71
66
 72
65
 73
64
  0
VERTEX
  8
0
 10
0.0
 20
0.0
 30
0.0
 70
128
 71
64
 72
63
 73
61
  0
VERTEX
  8
0
 10
0.0
 20
0.0
 30
0.0
 70
128
 71
61
 72
59
 73
57
  0
VERTEX
  8
0
 10
0.0
 20
0.0
 30
0.0
 70
128
 71
57
 72
55
 73
53
  0
VERTEX
  8
0
 10
0.0
 20
0.0
 30
0.0
 70
128
 71
53
 72
309
 73
311
  0
VERTEX
  8
0
 10
0.0
 20
0.0
 30
0.0
 70
128
 71
53
 72
311
 73
263
  0
VERTEX
  8
0
 10
0.0
 20
0.0
 30
0.0
 70
128
 71
61
 72
57
 73
53
  0
VERTEX
  8
0
 10
0.0
 20
0.0
 30
0.0
 70
128
 71
67
 72
66
 73
64
  0
VERTEX
  8
0
 10
0.0
 20
0.0
 30
0.0
 70
128
 71
64
 72
61
 73
53
  0
VERTEX
  8
0
 10
0.0
 20
0.0
 30
0.0
 70
128
 71
53
 72
263
 73
255
  0
VERTEX
  8
0
 10
0.0
 20
0.0
 30
0.0
 70
128
 71
53
 72
255
 73
262
  0
VERTEX
  8
0
 10
0.0
 20
0.0
 30
0.0
 70
128
 71
68
 72
67
 73
64
  0
VERTEX
  8
0
 10
0.0
 20
0.0
 30
0.0
 70
128
 71
64
 72
53
 73
262
  0
VERTEX
  8
0
 10
0.0
 20
0.0
 30
0.0
 70
128
 71
64
 72
262
 73
260
  0
VERTEX
  8
0
 10
0.0
 20
0.0
 30
0.0
 70
128
 71
69
 72
68
 73
64
  0
VERTEX
  8
0
 10
0.0
 20
0.0
 30
0.0
 70
128
 71
71
 72
70
 73
69
  0
VERTEX
  8
0
 10
0.0
 20
0.0
 30
0.0
 70
128
 71
73
 72
72
 73
71
  0
VERTEX
  8
0
 10
0.0
 20
0.0
 30
0.0
 70
128
 71
75
 72
74
 73
73
  0
VERTEX
  8
0
 10
0.0
 20
0.0
 30
0.0
 70
128
 71
78
 72
77
 73
76
  0
VERTEX
  8
0
 10
0.0
 20
0.0
 30
0.0
 70
128
 71
76
 72
75
 73
73
  0
VERTEX
  8
0
 10
0.0
 20
0.0
 30
0.0
 70
128
 71
73
 72
71
 73
69
  0
VERTEX
  8
0
 10
0.0
 20
0.0
 30
0.0
 70
128
 71
69
 72
64
 73
260
  0
VERTEX
  8
0
 10
0.0
 20
0.0
 30
0.0
 70
128
 71
69
 72
260
 73
233
  0
VERTEX
  8
0
 10
0.0
 20
0.0
 30
0.0
 70
128
 71
76
 72
73
 73
69
  0
VERTEX
  8
0
 10
0.0
 20
0.0
 30
0.0
 70
128
 71
79
 72
78
 73
76
  0
VERTEX
  8
0
 10
0.0
 20
0.0
 30
0.0
 70
128
 71
81
 72
80
 73
79
  0
VERTEX
  8
0
 10
0.0
 20
0.0
 30
0.0
 70
128
 71
83
 72
82
 73
81
  0
VERTEX
  8
0
 10
0.0
 20
0.0
 30
0.0
 70
128
 71
85
 72
84
 73
83
  0
VERTEX
  8
0
 10
0.0
 20
0.0
 30
0.0
 70
128
 71
87
 72
86
 73
85
  0
VERTEX
  8
0
 10
0.0
 20
0.0
 30
0.0
 70
128
 71
89
 72
88
 73
87
  0
VERTEX
  8
0
 10
0.0
 20
0.0
 30
0.0
 70
128
 71
249
 72
250
 73
89
  0
VERTEX
  8
0
 10
0.0
 20
0.0
 30
0.0
 70
128
 71
247
 72
249
 73
89
  0
VERTEX
  8
0
 10
0.0
 20
0.0
 30
0.0
 70
128
 71
89
 72
87
 73
85
  0
VERTEX
  8
0
 10
0.0
 20
0.0
 30
0.0
 70
128
 71
85
 72
83
 73
81
  0
VERTEX
  8
0
 10
0.0
 20
0.0
 30
0.0
 70
128
 71
81
 72
79
 73
76
  0
VERTEX
  8
0
 10
0.0
 20
0.0
 30
0.0
 70
128
 71
69
 72
233
 73
232
  0
VERTEX
  8
0
 10
0.0
 20
0.0
 30
0.0
 70
128
 71
69
 72
232
 73
234
  0
VERTEX
  8
0
 10
0.0
 20
0.0
 30
0.0
 70
128
 71
85
 72
81
 73
76
  0
VERTEX
  8
0
 10
0.0
 20
0.0
 30
0.0
 70
128
 71
76
 72
69
 73
234
  0
VERTEX
  8
0
 10
0.0
 20
0.0
 30
0.0
 70
128
 71
76
 72
234
 73
236
  0
VERTEX
  8
0
 10
0.0
 20
0.0
 30
0.0
 70
128
 71
89
 72
85
 73
76
  0
VERTEX
  8
0
 10
0.0
 20
0.0
 30
0.0
 70
128
 71
223
 72
247
 73
89
  0
VERTEX
  8
0
 10
0.0
 20
0.0
 30
0.0
 70
128
 71
224
 72
223
 73
89
  0
VERTEX
  8
0
 10
0.0
 20
0.0
 30
0.0
 70
128
 71
76
 72
236
 73
231
  0
VERTEX
  8
0
 10
0.0
 20
0.0
 30
0.0
 70
128
 71
230
 72
252
 73
251
  0
VERTEX
  8
0
 10
0.0
 20
0.0
 30
0.0
 70
128
 71
76
 72
231
 73
230
  0
VERTEX
  8
0
 10
0.0
 20
0.0
 30
0.0
 70
128
 71
224
 72
89
 73
76
  0
VERTEX
  8
0
 10
0.0
 20
0.0
 30
0.0
 70
128
 71
225
 72
224
 73
76
  0
VERTEX
  8
0
 10
0.0
 20
0.0
 30
0.0
 70
128
 71
76
 72
230
 73
251
  0
VERTEX
  8
0
 10
0.0
 20
0.0
 30
0.0
 70
128
 71
76
 72
251
 73
226
  0
VERTEX
  8
0
 10
0.0
 20
0.0
 30
0.0
 70
128
 71
229
 72
225
 73
76
  0
VERTEX
  8
0
 10
0.0
 20
0.0
 30
0.0
 70
128
 71
228
 72
229
 73
76
  0
VERTEX
  8
0
 10
0.0
 20
0.0
 30
0.0
 70
128
 71
76
 72
226
 73
227
  0
VERTEX
  8
0
 10
0.0
 20
0.0
 30
0.0
 70
128
 71
227
 72
228
 73
76
  0
VERTEX
  8
0
 10
0.0
 20
0.0
 30
0.0
 70
128
 71
276
 72
277
 73
275
  0
VERTEX
  8
0
 10
0.0
 20
0.0
 30
0.0
 70
128
 71
275
 72
279
 73
272
  0
VERTEX
  8
0
 10
0.0
 20
0.0
 30
0.0
 70
128
 71
275
 72
272
 73
273
  0
VERTEX
  8
0
 10
0.0
 20
0.0
 30
0.0
 70
128
 71
274
 72
276
 73
275
  0
VERTEX
  8
0
 10
0.0
 20
0.0
 30
0.0
 70
128
 71
281
 72
286
 73
297
  0
VERTEX
  8
0
 10
0.0
 20
0.0
 30
0.0
 70
128
 71
297
 72
274
 73
275
  0
VERTEX
  8
0
 10
0.0
 20
0.0
 30
0.0
 70
128
 71
297
 72
275
 73
273
  0
VERTEX
  8
0
 10
0.0
 20
0.0
 30
0.0
 70
128
 71
281
 72
297
 73
273
  0
VERTEX
  8
0
 10
0.0
 20
0.0
 30
0.0
 70
128
 71
281
 72
273
 73
271
  0
VERTEX
  8
0
 10
0.0
 20
0.0
 30
0.0
 70
128
 71
280
 72
281
 73
271
  0
VERTEX
  8
0
 10
0.0
 20
0.0
 30
0.0
 70
128
 71
280
 72
271
 73
278
  0
VERTEX
  8
0
 10
0.0
 20
0.0
 30
0.0
 70
128
 71
284
 72
280
 73
278
  0
VERTEX
  8
0
 10
0.0
 20
0.0
 30
0.0
 70
128
 71
282
 72
284
 73
278
  0
VERTEX
  8
0
 10
0.0
 20
0.0
 30
0.0
 70
128
 71
285
 72
282
 73
278
  0
VERTEX
  8
0
 10
0.0
 20
0.0
 30
0.0
 70
128
 71
296
 72
285
 73
278
  0
VERTEX
  8
0
 10
0.0
 20
0.0
 30
0.0
 70
128
 71
283
 72
296
 73
278
  0
VERTEX
  8
0
 10
0.0
 20
0.0
 30
0.0
 70
128
 71
295
 72
283
 73
278
  0
VERTEX
  8
0
 10
0.0
 20
0.0
 30
0.0
 70
128
 71
294
 72
289
 73
287
  0
VERTEX
  8
0
 10
0.0
 20
0.0
 30
0.0
 70
128
 71
287
 72
295
 73
278
  0
VERTEX
  8
0
 10
0.0
 20
0.0
 30
0.0
 70
128
 71
294
 72
287
 73
278
  0
VERTEX
  8
0
 10
0.0
 20
0.0
 30
0.0
 70
128
 71
288
 72
294
 73
278
  0
VERTEX
  8
0
 10
0.0
 20
0.0
 30
0.0
 70
128
 71
291
 72
293
 73
290
  0
VERTEX
  8
0
 10
0.0
 20
0.0
 30
0.0
 70
128
 71
379
 72
301
 73
291
  0
VERTEX
  8
0
 10
0.0
 20
0.0
 30
0.0
 70
128
 71
246
 72
241
 73
242
  0
VERTEX
  8
0
 10
0.0
 20
0.0
 30
0.0
 70
128
 71
242
 72
243
 73
239
  0
VERTEX
  8
0
 10
0.0
 20
0.0
 30
0.0
 70
128
 71
238
 72
220
 73
219
  0
VERTEX
  8
0
 10
0.0
 20
0.0
 30
0.0
 70
128
 71
242
 72
239
 73
238
  0
VERTEX
  8
0
 10
0.0
 20
0.0
 30
0.0
 70
128
 71
246
 72
242
 73
238
  0
VERTEX
  8
0
 10
0.0
 20
0.0
 30
0.0
 70
128
 71
246
 72
238
 73
219
  0
VERTEX
  8
0
 10
0.0
 20
0.0
 30
0.0
 70
128
 71
244
 72
246
 73
219
  0
VERTEX
  8
0
 10
0.0
 20
0.0
 30
0.0
 70
128
 71
244
 72
219
 73
221
  0
VERTEX
  8
0
 10
0.0
 20
0.0
 30
0.0
 70
128
 71
245
 72
244
 73
221
  0
VERTEX
  8
0
 10
0.0
 20
0.0
 30
0.0
 70
128
 71
278
 72
245
 73
221
  0
VERTEX
  8
0
 10
0.0
 20
0.0
 30
0.0
 70
128
 71
216
 72
214
 73
217
  0
VERTEX
  8
0
 10
0.0
 20
0.0
 30
0.0
 70
128
 71
217
 72
213
 73
215
  0
VERTEX
  8
0
 10
0.0
 20
0.0
 30
0.0
 70
128
 71
217
 72
215
 73
204
  0
VERTEX
  8
0
 10
0.0
 20
0.0
 30
0.0
 70
128
 71
222
 72
216
 73
217
  0
VERTEX
  8
0
 10
0.0
 20
0.0
 30
0.0
 70
128
 71
222
 72
217
 73
204
  0
VERTEX
  8
0
 10
0.0
 20
0.0
 30
0.0
 70
128
 71
222
 72
204
 73
203
  0
VERTEX
  8
0
 10
0.0
 20
0.0
 30
0.0
 70
128
 71
218
 72
222
 73
203
  0
VERTEX
  8
0
 10
0.0
 20
0.0
 30
0.0
 70
128
 71
218
 72
203
 73
199
  0
VERTEX
  8
0
 10
0.0
 20
0.0
 30
0.0
 70
128
 71
221
 72
218
 73
199
  0
VERTEX
  8
0
 10
0.0
 20
0.0
 30
0.0
 70
128
 71
221
 72
199
 73
200
  0
VERTEX
  8
0
 10
0.0
 20
0.0
 30
0.0
 70
128
 71
278
 72
221
 73
200
  0
VERTEX
  8
0
 10
0.0
 20
0.0
 30
0.0
 70
128
 71
278
 72
200
 73
198
  0
VERTEX
  8
0
 10
0.0
 20
0.0
 30
0.0
 70
128
 71
278
 72
198
 73
201
  0
VERTEX
  8
0
 10
0.0
 20
0.0
 30
0.0
 70
128
 71
278
 72
201
 73
197
  0
VERTEX
  8
0
 10
0.0
 20
0.0
 30
0.0
 70
128
 71
278
 72
197
 73
196
  0
VERTEX
  8
0
 10
0.0
 20
0.0
 30
0.0
 70
128
 71
306
 72
338
 73
336
  0
VERTEX
  8
0
 10
0.0
 20
0.0
 30
0.0
 70
128
 71
305
 72
306
 73
336
  0
VERTEX
  8
0
 10
0.0
 20
0.0
 30
0.0
 70
128
 71
305
 72
336
 73
337
  0
VERTEX
  8
0
 10
0.0
 20
0.0
 30
0.0
 70
128
 71
89
 72
250
 73
315
  0
VERTEX
  8
0
 10
0.0
 20
0.0
 30
0.0
 70
128
 71
315
 72
305
 73
337
  0
VERTEX
  8
0
 10
0.0
 20
0.0
 30
0.0
 70
128
 71
315
 72
337
 73
378
  0
VERTEX
  8
0
 10
0.0
 20
0.0
 30
0.0
 70
128
 71
91
 72
90
 73
89
  0
VERTEX
  8
0
 10
0.0
 20
0.0
 30
0.0
 70
128
 71
89
 72
315
 73
378
  0
VERTEX
  8
0
 10
0.0
 20
0.0
 30
0.0
 70
128
 71
89
 72
378
 73
379
  0
VERTEX
  8
0
 10
0.0
 20
0.0
 30
0.0
 70
128
 71
92
 72
91
 73
89
  0
VERTEX
  8
0
 10
0.0
 20
0.0
 30
0.0
 70
128
 71
94
 72
93
 73
92
  0
VERTEX
  8
0
 10
0.0
 20
0.0
 30
0.0
 70
128
 71
96
 72
95
 73
94
  0
VERTEX
  8
0
 10
0.0
 20
0.0
 30
0.0
 70
128
 71
98
 72
97
 73
96
  0
VERTEX
  8
0
 10
0.0
 20
0.0
 30
0.0
 70
128
 71
100
 72
99
 73
98
  0
VERTEX
  8
0
 10
0.0
 20
0.0
 30
0.0
 70
128
 71
102
 72
101
 73
100
  0
VERTEX
  8
0
 10
0.0
 20
0.0
 30
0.0
 70
128
 71
104
 72
103
 73
102
  0
VERTEX
  8
0
 10
0.0
 20
0.0
 30
0.0
 70
128
 71
106
 72
105
 73
104
  0
VERTEX
  8
0
 10
0.0
 20
0.0
 30
0.0
 70
128
 71
108
 72
107
 73
106
  0
VERTEX
  8
0
 10
0.0
 20
0.0
 30
0.0
 70
128
 71
112
 72
110
 73
108
  0
VERTEX
  8
0
 10
0.0
 20
0.0
 30
0.0
 70
128
 71
109
 72
113
 73
112
  0
VERTEX
  8
0
 10
0.0
 20
0.0
 30
0.0
 70
128
 71
115
 72
114
 73
109
  0
VERTEX
  8
0
 10
0.0
 20
0.0
 30
0.0
 70
128
 71
116
 72
111
 73
115
  0
VERTEX
  8
0
 10
0.0
 20
0.0
 30
0.0
 70
128
 71
118
 72
117
 73
116
  0
VERTEX
  8
0
 10
0.0
 20
0.0
 30
0.0
 70
128
 71
120
 72
119
 73
118
  0
VERTEX
  8
0
 10
0.0
 20
0.0
 30
0.0
 70
128
 71
122
 72
121
 73
120
  0
VERTEX
  8
0
 10
0.0
 20
0.0
 30
0.0
 70
128
 71
125
 72
124
 73
123
  0
VERTEX
  8
0
 10
0.0
 20
0.0
 30
0.0
 70
128
 71
123
 72
122
 73
120
  0
VERTEX
  8
0
 10
0.0
 20
0.0
 30
0.0
 70
128
 71
120
 72
118
 73
116
  0
VERTEX
  8
0
 10
0.0
 20
0.0
 30
0.0
 70
128
 71
116
 72
115
 73
109
  0
VERTEX
  8
0
 10
0.0
 20
0.0
 30
0.0
 70
128
 71
109
 72
112
 73
108
  0
VERTEX
  8
0
 10
0.0
 20
0.0
 30
0.0
 70
128
 71
108
 72
106
 73
104
  0
VERTEX
  8
0
 10
0.0
 20
0.0
 30
0.0
 70
128
 71
104
 72
102
 73
100
  0
VERTEX
  8
0
 10
0.0
 20
0.0
 30
0.0
 70
128
 71
100
 72
98
 73
96
  0
VERTEX
  8
0
 10
0.0
 20
0.0
 30
0.0
 70
128
 71
96
 72
94
 73
92
  0
VERTEX
  8
0
 10
0.0
 20
0.0
 30
0.0
 70
128
 71
92
 72
89
 73
379
  0
VERTEX
  8
0
 10
0.0
 20
0.0
 30
0.0
 70
128
 71
92
 72
379
 73
291
  0
VERTEX
  8
0
 10
0.0
 20
0.0
 30
0.0
 70
128
 71
100
 72
96
 73
92
  0
VERTEX
  8
0
 10
0.0
 20
0.0
 30
0.0
 70
128
 71
108
 72
104
 73
100
  0
VERTEX
  8
0
 10
0.0
 20
0.0
 30
0.0
 70
128
 71
116
 72
109
 73
108
  0
VERTEX
  8
0
 10
0.0
 20
0.0
 30
0.0
 70
128
 71
123
 72
120
 73
116
  0
VERTEX
  8
0
 10
0.0
 20
0.0
 30
0.0
 70
128
 71
126
 72
125
 73
123
  0
VERTEX
  8
0
 10
0.0
 20
0.0
 30
0.0
 70
128
 71
128
 72
127
 73
126
  0
VERTEX
  8
0
 10
0.0
 20
0.0
 30
0.0
 70
128
 71
130
 72
129
 73
128
  0
VERTEX
  8
0
 10
0.0
 20
0.0
 30
0.0
 70
128
 71
132
 72
131
 73
130
  0
VERTEX
  8
0
 10
0.0
 20
0.0
 30
0.0
 70
128
 71
134
 72
133
 73
132
  0
VERTEX
  8
0
 10
0.0
 20
0.0
 30
0.0
 70
128
 71
136
 72
135
 73
134
  0
VERTEX
  8
0
 10
0.0
 20
0.0
 30
0.0
 70
128
 71
138
 72
137
 73
136
  0
VERTEX
  8
0
 10
0.0
 20
0.0
 30
0.0
 70
128
 71
140
 72
139
 73
138
  0
VERTEX
  8
0
 10
0.0
 20
0.0
 30
0.0
 70
128
 71
142
 72
141
 73
140
  0
VERTEX
  8
0
 10
0.0
 20
0.0
 30
0.0
 70
128
 71
144
 72
143
 73
142
  0
VERTEX
  8
0
 10
0.0
 20
0.0
 30
0.0
 70
128
 71
146
 72
145
 73
144
  0
VERTEX
  8
0
 10
0.0
 20
0.0
 30
0.0
 70
128
 71
148
 72
147
 73
146
  0
VERTEX
  8
0
 10
0.0
 20
0.0
 30
0.0
 70
128
 71
150
 72
149
 73
148
  0
VERTEX
  8
0
 10
0.0
 20
0.0
 30
0.0
 70
128
 71
152
 72
151
 73
150
  0
VERTEX
  8
0
 10
0.0
 20
0.0
 30
0.0
 70
128
 71
154
 72
153
 73
152
  0
VERTEX
  8
0
 10
0.0
 20
0.0
 30
0.0
 70
128
 71
156
 72
155
 73
154
  0
VERTEX
  8
0
 10
0.0
 20
0.0
 30
0.0
 70
128
 71
158
 72
157
 73
156
  0
VERTEX
  8
0
 10
0.0
 20
0.0
 30
0.0
 70
128
 71
160
 72
159
 73
158
  0
VERTEX
  8
0
 10
0.0
 20
0.0
 30
0.0
 70
128
 71
162
 72
161
 73
160
  0
VERTEX
  8
0
 10
0.0
 20
0.0
 30
0.0
 70
128
 71
164
 72
163
 73
162
  0
VERTEX
  8
0
 10
0.0
 20
0.0
 30
0.0
 70
128
 71
166
 72
165
 73
164
  0
VERTEX
  8
0
 10
0.0
 20
0.0
 30
0.0
 70
128
 71
168
 72
167
 73
166
  0
VERTEX
  8
0
 10
0.0
 20
0.0
 30
0.0
 70
128
 71
170
 72
169
 73
168
  0
VERTEX
  8
0
 10
0.0
 20
0.0
 30
0.0
 70
128
 71
172
 72
171
 73
170
  0
VERTEX
  8
0
 10
0.0
 20
0.0
 30
0.0
 70
128
 71
174
 72
173
 73
172
  0
VERTEX
  8
0
 10
0.0
 20
0.0
 30
0.0
 70
128
 71
176
 72
175
 73
174
  0
VERTEX
  8
0
 10
0.0
 20
0.0
 30
0.0
 70
128
 71
178
 72
177
 73
176
  0
VERTEX
  8
0
 10
0.0
 20
0.0
 30
0.0
 70
128
 71
180
 72
179
 73
178
  0
VERTEX
  8
0
 10
0.0
 20
0.0
 30
0.0
 70
128
 71
182
 72
181
 73
180
  0
VERTEX
  8
0
 10
0.0
 20
0.0
 30
0.0
 70
128
 71
184
 72
183
 73
182
  0
VERTEX
  8
0
 10
0.0
 20
0.0
 30
0.0
 70
128
 71
2
 72
1
 73
184
  0
VERTEX
  8
0
 10
0.0
 20
0.0
 30
0.0
 70
128
 71
4
 72
3
 73
2
  0
VERTEX
  8
0
 10
0.0
 20
0.0
 30
0.0
 70
128
 71
6
 72
5
 73
4
  0
VERTEX
  8
0
 10
0.0
 20
0.0
 30
0.0
 70
128
 71
8
 72
7
 73
6
  0
VERTEX
  8
0
 10
0.0
 20
0.0
 30
0.0
 70
128
 71
9
 72
8
 73
6
  0
VERTEX
  8
0
 10
0.0
 20
0.0
 30
0.0
 70
128
 71
6
 72
4
 73
2
  0
VERTEX
  8
0
 10
0.0
 20
0.0
 30
0.0
 70
128
 71
2
 72
184
 73
182
  0
VERTEX
  8
0
 10
0.0
 20
0.0
 30
0.0
 70
128
 71
182
 72
180
 73
178
  0
VERTEX
  8
0
 10
0.0
 20
0.0
 30
0.0
 70
128
 71
182
 72
178
 73
176
  0
VERTEX
  8
0
 10
0.0
 20
0.0
 30
0.0
 70
128
 71
6
 72
2
 73
182
  0
VERTEX
  8
0
 10
0.0
 20
0.0
 30
0.0
 70
128
 71
9
 72
6
 73
182
  0
VERTEX
  8
0
 10
0.0
 20
0.0
 30
0.0
 70
128
 71
9
 72
182
 73
176
  0
VERTEX
  8
0
 10
0.0
 20
0.0
 30
0.0
 70
128
 71
12
 72
11
 73
10
  0
VERTEX
  8
0
 10
0.0
 20
0.0
 30
0.0
 70
128
 71
10
 72
9
 73
176
  0
VERTEX
  8
0
 10
0.0
 20
0.0
 30
0.0
 70
128
 71
174
 72
172
 73
170
  0
VERTEX
  8
0
 10
0.0
 20
0.0
 30
0.0
 70
128
 71
10
 72
176
 73
174
  0
VERTEX
  8
0
 10
0.0
 20
0.0
 30
0.0
 70
128
 71
13
 72
12
 73
10
  0
VERTEX
  8
0
 10
0.0
 20
0.0
 30
0.0
 70
128
 71
15
 72
14
 73
13
  0
VERTEX
  8
0
 10
0.0
 20
0.0
 30
0.0
 70
128
 71
17
 72
16
 73
15
  0
VERTEX
  8
0
 10
0.0
 20
0.0
 30
0.0
 70
128
 71
186
 72
185
 73
17
  0
VERTEX
  8
0
 10
0.0
 20
0.0
 30
0.0
 70
128
 71
188
 72
187
 73
186
  0
VERTEX
  8
0
 10
0.0
 20
0.0
 30
0.0
 70
128
 71
19
 72
18
 73
188
  0
VERTEX
  8
0
 10
0.0
 20
0.0
 30
0.0
 70
128
 71
21
 72
20
 73
19
  0
VERTEX
  8
0
 10
0.0
 20
0.0
 30
0.0
 70
128
 71
24
 72
23
 73
22
  0
VERTEX
  8
0
 10
0.0
 20
0.0
 30
0.0
 70
128
 71
22
 72
21
 73
19
  0
VERTEX
  8
0
 10
0.0
 20
0.0
 30
0.0
 70
128
 71
19
 72
188
 73
186
  0
VERTEX
  8
0
 10
0.0
 20
0.0
 30
0.0
 70
128
 71
186
 72
17
 73
15
  0
VERTEX
  8
0
 10
0.0
 20
0.0
 30
0.0
 70
128
 71
15
 72
13
 73
10
  0
VERTEX
  8
0
 10
0.0
 20
0.0
 30
0.0
 70
128
 71
10
 72
174
 73
170
  0
VERTEX
  8
0
 10
0.0
 20
0.0
 30
0.0
 70
128
 71
170
 72
168
 73
166
  0
VERTEX
  8
0
 10
0.0
 20
0.0
 30
0.0
 70
128
 71
166
 72
164
 73
162
  0
VERTEX
  8
0
 10
0.0
 20
0.0
 30
0.0
 70
128
 71
160
 72
158
 73
156
  0
VERTEX
  8
0
 10
0.0
 20
0.0
 30
0.0
 70
128
 71
166
 72
162
 73
160
  0
VERTEX
  8
0
 10
0.0
 20
0.0
 30
0.0
 70
128
 71
10
 72
170
 73
166
  0
VERTEX
  8
0
 10
0.0
 20
0.0
 30
0.0
 70
128
 71
186
 72
15
 73
10
  0
VERTEX
  8
0
 10
0.0
 20
0.0
 30
0.0
 70
128
 71
22
 72
19
 73
186
  0
VERTEX
  8
0
 10
0.0
 20
0.0
 30
0.0
 70
128
 71
25
 72
24
 73
22
  0
VERTEX
  8
0
 10
0.0
 20
0.0
 30
0.0
 70
128
 71
27
 72
26
 73
25
  0
VERTEX
  8
0
 10
0.0
 20
0.0
 30
0.0
 70
128
 71
29
 72
28
 73
27
  0
VERTEX
  8
0
 10
0.0
 20
0.0
 30
0.0
 70
128
 71
31
 72
30
 73
29
  0
VERTEX
  8
0
 10
0.0
 20
0.0
 30
0.0
 70
128
 71
34
 72
33
 73
32
  0
VERTEX
  8
0
 10
0.0
 20
0.0
 30
0.0
 70
128
 71
32
 72
31
 73
29
  0
VERTEX
  8
0
 10
0.0
 20
0.0
 30
0.0
 70
128
 71
29
 72
27
 73
25
  0
VERTEX
  8
0
 10
0.0
 20
0.0
 30
0.0
 70
128
 71
22
 72
186
 73
10
  0
VERTEX
  8
0
 10
0.0
 20
0.0
 30
0.0
 70
128
 71
29
 72
25
 73
22
  0
VERTEX
  8
0
 10
0.0
 20
0.0
 30
0.0
 70
128
 71
35
 72
34
 73
32
  0
VERTEX
  8
0
 10
0.0
 20
0.0
 30
0.0
 70
128
 71
32
 72
29
 73
22
  0
VERTEX
  8
0
 10
0.0
 20
0.0
 30
0.0
 70
128
 71
10
 72
166
 73
160
  0
VERTEX
  8
0
 10
0.0
 20
0.0
 30
0.0
 70
128
 71
160
 72
156
 73
154
  0
VERTEX
  8
0
 10
0.0
 20
0.0
 30
0.0
 70
128
 71
154
 72
152
 73
150
  0
VERTEX
  8
0
 10
0.0
 20
0.0
 30
0.0
 70
128
 71
150
 72
148
 73
146
  0
VERTEX
  8
0
 10
0.0
 20
0.0
 30
0.0
 70
128
 71
146
 72
144
 73
142
  0
VERTEX
  8
0
 10
0.0
 20
0.0
 30
0.0
 70
128
 71
142
 72
140
 73
138
  0
VERTEX
  8
0
 10
0.0
 20
0.0
 30
0.0
 70
128
 71
138
 72
136
 73
134
  0
VERTEX
  8
0
 10
0.0
 20
0.0
 30
0.0
 70
128
 71
134
 72
132
 73
130
  0
VERTEX
  8
0
 10
0.0
 20
0.0
 30
0.0
 70
128
 71
130
 72
128
 73
126
  0
VERTEX
  8
0
 10
0.0
 20
0.0
 30
0.0
 70
128
 71
130
 72
126
 73
123
  0
VERTEX
  8
0
 10
0.0
 20
0.0
 30
0.0
 70
128
 71
138
 72
134
 73
130
  0
VERTEX
  8
0
 10
0.0
 20
0.0
 30
0.0
 70
128
 71
146
 72
142
 73
138
  0
VERTEX
  8
0
 10
0.0
 20
0.0
 30
0.0
 70
128
 71
160
 72
154
 73
150
  0
VERTEX
  8
0
 10
0.0
 20
0.0
 30
0.0
 70
128
 71
150
 72
146
 73
138
  0
VERTEX
  8
0
 10
0.0
 20
0.0
 30
0.0
 70
128
 71
138
 72
130
 73
123
  0
VERTEX
  8
0
 10
0.0
 20
0.0
 30
0.0
 70
128
 71
116
 72
108
 73
100
  0
VERTEX
  8
0
 10
0.0
 20
0.0
 30
0.0
 70
128
 71
150
 72
138
 73
123
  0
VERTEX
  8
0
 10
0.0
 20
0.0
 30
0.0
 70
128
 71
116
 72
100
 73
92
  0
VERTEX
  8
0
 10
0.0
 20
0.0
 30
0.0
 70
128
 71
160
 72
150
 73
123
  0
VERTEX
  8
0
 10
0.0
 20
0.0
 30
0.0
 70
128
 71
116
 72
92
 73
291
  0
VERTEX
  8
0
 10
0.0
 20
0.0
 30
0.0
 70
128
 71
160
 72
123
 73
116
  0
VERTEX
  8
0
 10
0.0
 20
0.0
 30
0.0
 70
128
 71
36
 72
35
 73
32
  0
VERTEX
  8
0
 10
0.0
 20
0.0
 30
0.0
 70
128
 71
38
 72
37
 73
36
  0
VERTEX
  8
0
 10
0.0
 20
0.0
 30
0.0
 70
128
 71
40
 72
39
 73
38
  0
VERTEX
  8
0
 10
0.0
 20
0.0
 30
0.0
 70
128
 71
42
 72
41
 73
40
  0
VERTEX
  8
0
 10
0.0
 20
0.0
 30
0.0
 70
128
 71
44
 72
43
 73
42
  0
VERTEX
  8
0
 10
0.0
 20
0.0
 30
0.0
 70
128
 71
46
 72
45
 73
44
  0
VERTEX
  8
0
 10
0.0
 20
0.0
 30
0.0
 70
128
 71
48
 72
47
 73
46
  0
VERTEX
  8
0
 10
0.0
 20
0.0
 30
0.0
 70
128
 71
50
 72
49
 73
48
  0
VERTEX
  8
0
 10
0.0
 20
0.0
 30
0.0
 70
128
 71
52
 72
51
 73
50
  0
VERTEX
  8
0
 10
0.0
 20
0.0
 30
0.0
 70
128
 71
310
 72
53
 73
52
  0
VERTEX
  8
0
 10
0.0
 20
0.0
 30
0.0
 70
128
 71
313
 72
310
 73
52
  0
VERTEX
  8
0
 10
0.0
 20
0.0
 30
0.0
 70
128
 71
52
 72
50
 73
48
  0
VERTEX
  8
0
 10
0.0
 20
0.0
 30
0.0
 70
128
 71
48
 72
46
 73
44
  0
VERTEX
  8
0
 10
0.0
 20
0.0
 30
0.0
 70
128
 71
42
 72
40
 73
38
  0
VERTEX
  8
0
 10
0.0
 20
0.0
 30
0.0
 70
128
 71
48
 72
44
 73
42
  0
VERTEX
  8
0
 10
0.0
 20
0.0
 30
0.0
 70
128
 71
313
 72
52
 73
48
  0
VERTEX
  8
0
 10
0.0
 20
0.0
 30
0.0
 70
128
 71
314
 72
313
 73
48
  0
VERTEX
  8
0
 10
0.0
 20
0.0
 30
0.0
 70
128
 71
42
 72
38
 73
36
  0
VERTEX
  8
0
 10
0.0
 20
0.0
 30
0.0
 70
128
 71
308
 72
314
 73
48
  0
VERTEX
  8
0
 10
0.0
 20
0.0
 30
0.0
 70
128
 71
316
 72
308
 73
48
  0
VERTEX
  8
0
 10
0.0
 20
0.0
 30
0.0
 70
128
 71
42
 72
36
 73
32
  0
VERTEX
  8
0
 10
0.0
 20
0.0
 30
0.0
 70
128
 71
316
 72
48
 73
42
  0
VERTEX
  8
0
 10
0.0
 20
0.0
 30
0.0
 70
128
 71
307
 72
316
 73
42
  0
VERTEX
  8
0
 10
0.0
 20
0.0
 30
0.0
 70
128
 71
42
 72
32
 73
22
  0
VERTEX
  8
0
 10
0.0
 20
0.0
 30
0.0
 70
128
 71
116
 72
291
 73
290
  0
VERTEX
  8
0
 10
0.0
 20
0.0
 30
0.0
 70
128
 71
116
 72
290
 73
292
  0
VERTEX
  8
0
 10
0.0
 20
0.0
 30
0.0
 70
128
 71
303
 72
307
 73
42
  0
VERTEX
  8
0
 10
0.0
 20
0.0
 30
0.0
 70
128
 71
304
 72
303
 73
42
  0
VERTEX
  8
0
 10
0.0
 20
0.0
 30
0.0
 70
128
 71
116
 72
292
 73
288
  0
VERTEX
  8
0
 10
0.0
 20
0.0
 30
0.0
 70
128
 71
116
 72
288
 73
278
  0
VERTEX
  8
0
 10
0.0
 20
0.0
 30
0.0
 70
128
 71
302
 72
304
 73
42
  0
VERTEX
  8
0
 10
0.0
 20
0.0
 30
0.0
 70
128
 71
332
 72
339
 73
335
  0
VERTEX
  8
0
 10
0.0
 20
0.0
 30
0.0
 70
128
 71
335
 72
302
 73
42
  0
VERTEX
  8
0
 10
0.0
 20
0.0
 30
0.0
 70
128
 71
160
 72
116
 73
278
  0
VERTEX
  8
0
 10
0.0
 20
0.0
 30
0.0
 70
128
 71
160
 72
278
 73
196
  0
VERTEX
  8
0
 10
0.0
 20
0.0
 30
0.0
 70
128
 71
332
 72
335
 73
42
  0
VERTEX
  8
0
 10
0.0
 20
0.0
 30
0.0
 70
128
 71
333
 72
332
 73
42
  0
VERTEX
  8
0
 10
0.0
 20
0.0
 30
0.0
 70
128
 71
160
 72
196
 73
192
  0
VERTEX
  8
0
 10
0.0
 20
0.0
 30
0.0
 70
128
 71
193
 72
195
 73
194
  0
VERTEX
  8
0
 10
0.0
 20
0.0
 30
0.0
 70
128
 71
160
 72
192
 73
193
  0
VERTEX
  8
0
 10
0.0
 20
0.0
 30
0.0
 70
128
 71
331
 72
333
 73
42
  0
VERTEX
  8
0
 10
0.0
 20
0.0
 30
0.0
 70
128
 71
334
 72
331
 73
42
  0
VERTEX
  8
0
 10
0.0
 20
0.0
 30
0.0
 70
128
 71
160
 72
193
 73
194
  0
VERTEX
  8
0
 10
0.0
 20
0.0
 30
0.0
 70
128
 71
160
 72
194
 73
190
  0
VERTEX
  8
0
 10
0.0
 20
0.0
 30
0.0
 70
128
 71
340
 72
334
 73
42
  0
VERTEX
  8
0
 10
0.0
 20
0.0
 30
0.0
 70
128
 71
341
 72
340
 73
42
  0
VERTEX
  8
0
 10
0.0
 20
0.0
 30
0.0
 70
128
 71
10
 72
160
 73
190
  0
VERTEX
  8
0
 10
0.0
 20
0.0
 30
0.0
 70
128
 71
10
 72
190
 73
191
  0
VERTEX
  8
0
 10
0.0
 20
0.0
 30
0.0
 70
128
 71
330
 72
327
 73
329
  0
VERTEX
  8
0
 10
0.0
 20
0.0
 30
0.0
 70
128
 71
326
 72
330
 73
329
  0
VERTEX
  8
0
 10
0.0
 20
0.0
 30
0.0
 70
128
 71
326
 72
329
 73
328
  0
VERTEX
  8
0
 10
0.0
 20
0.0
 30
0.0
 70
128
 71
317
 72
326
 73
328
  0
VERTEX
  8
0
 10
0.0
 20
0.0
 30
0.0
 70
128
 71
317
 72
328
 73
341
  0
VERTEX
  8
0
 10
0.0
 20
0.0
 30
0.0
 70
128
 71
317
 72
341
 73
42
  0
VERTEX
  8
0
 10
0.0
 20
0.0
 30
0.0
 70
128
 71
10
 72
191
 73
189
  0
VERTEX
  8
0
 10
0.0
 20
0.0
 30
0.0
 70
128
 71
10
 72
189
 73
202
  0
VERTEX
  8
0
 10
0.0
 20
0.0
 30
0.0
 70
128
 71
318
 72
317
 73
42
  0
VERTEX
  8
0
 10
0.0
 20
0.0
 30
0.0
 70
128
 71
318
 72
42
 73
22
  0
VERTEX
  8
0
 10
0.0
 20
0.0
 30
0.0
 70
128
 71
10
 72
202
 73
205
  0
VERTEX
  8
0
 10
0.0
 20
0.0
 30
0.0
 70
128
 71
10
 72
205
 73
208
  0
VERTEX
  8
0
 10
0.0
 20
0.0
 30
0.0
 70
128
 71
325
 72
318
 73
22
  0
VERTEX
  8
0
 10
0.0
 20
0.0
 30
0.0
 70
128
 71
324
 72
325
 73
22
  0
VERTEX
  8
0
 10
0.0
 20
0.0
 30
0.0
 70
128
 71
10
 72
208
 73
206
  0
VERTEX
  8
0
 10
0.0
 20
0.0
 30
0.0
 70
128
 71
206
 72
207
 73
210
  0
VERTEX
  8
0
 10
0.0
 20
0.0
 30
0.0
 70
128
 71
210
 72
209
 73
211
  0
VERTEX
  8
0
 10
0.0
 20
0.0
 30
0.0
 70
128
 71
211
 72
212
 73
237
  0
VERTEX
  8
0
 10
0.0
 20
0.0
 30
0.0
 70
128
 71
237
 72
240
 73
269
  0
VERTEX
  8
0
 10
0.0
 20
0.0
 30
0.0
 70
128
 71
237
 72
269
 73
268
  0
VERTEX
  8
0
 10
0.0
 20
0.0
 30
0.0
 70
128
 71
210
 72
211
 73
237
  0
VERTEX
  8
0
 10
0.0
 20
0.0
 30
0.0
 70
128
 71
10
 72
206
 73
210
  0
VERTEX
  8
0
 10
0.0
 20
0.0
 30
0.0
 70
128
 71
321
 72
324
 73
22
  0
VERTEX
  8
0
 10
0.0
 20
0.0
 30
0.0
 70
128
 71
323
 72
321
 73
22
  0
VERTEX
  8
0
 10
0.0
 20
0.0
 30
0.0
 70
128
 71
10
 72
210
 73
237
  0
VERTEX
  8
0
 10
0.0
 20
0.0
 30
0.0
 70
128
 71
237
 72
268
 73
270
  0
VERTEX
  8
0
 10
0.0
 20
0.0
 30
0.0
 70
128
 71
237
 72
270
 73
265
  0
VERTEX
  8
0
 10
0.0
 20
0.0
 30
0.0
 70
128
 71
322
 72
323
 73
22
  0
VERTEX
  8
0
 10
0.0
 20
0.0
 30
0.0
 70
128
 71
361
 72
364
 73
322
  0
VERTEX
  8
0
 10
0.0
 20
0.0
 30
0.0
 70
128
 71
320
 72
361
 73
322
  0
VERTEX
  8
0
 10
0.0
 20
0.0
 30
0.0
 70
128
 71
10
 72
237
 73
265
  0
VERTEX
  8
0
 10
0.0
 20
0.0
 30
0.0
 70
128
 71
266
 72
267
 73
264
  0
VERTEX
  8
0
 10
0.0
 20
0.0
 30
0.0
 70
128
 71
10
 72
265
 73
266
  0
VERTEX
  8
0
 10
0.0
 20
0.0
 30
0.0
 70
128
 71
320
 72
322
 73
22
  0
VERTEX
  8
0
 10
0.0
 20
0.0
 30
0.0
 70
128
 71
319
 72
320
 73
22
  0
VERTEX
  8
0
 10
0.0
 20
0.0
 30
0.0
 70
128
 71
10
 72
266
 73
264
  0
VERTEX
  8
0
 10
0.0
 20
0.0
 30
0.0
 70
128
 71
299
 72
298
 73
300
  0
VERTEX
  8
0
 10
0.0
 20
0.0
 30
0.0
 70
128
 71
10
 72
264
 73
299
  0
VERTEX
  8
0
 10
0.0
 20
0.0
 30
0.0
 70
128
 71
354
 72
319
 73
22
  0
VERTEX
  8
0
 10
0.0
 20
0.0
 30
0.0
 70
128
 71
353
 72
354
 73
22
  0
VERTEX
  8
0
 10
0.0
 20
0.0
 30
0.0
 70
128
 71
10
 72
299
 73
300
  0
VERTEX
  8
0
 10
0.0
 20
0.0
 30
0.0
 70
128
 71
300
 72
376
 73
377
  0
VERTEX
  8
0
 10
0.0
 20
0.0
 30
0.0
 70
128
 71
380
 72
367
 73
365
  0
VERTEX
  8
0
 10
0.0
 20
0.0
 30
0.0
 70
128
 71
300
 72
377
 73
380
  0
VERTEX
  8
0
 10
0.0
 20
0.0
 30
0.0
 70
128
 71
352
 72
353
 73
22
  0
VERTEX
  8
0
 10
0.0
 20
0.0
 30
0.0
 70
128
 71
347
 72
350
 73
352
  0
VERTEX
  8
0
 10
0.0
 20
0.0
 30
0.0
 70
128
 71
344
 72
346
 73
349
  0
VERTEX
  8
0
 10
0.0
 20
0.0
 30
0.0
 70
128
 71
347
 72
352
 73
22
  0
VERTEX
  8
0
 10
0.0
 20
0.0
 30
0.0
 70
128
 71
349
 72
347
 73
22
  0
VERTEX
  8
0
 10
0.0
 20
0.0
 30
0.0
 70
128
 71
10
 72
300
 73
380
  0
VERTEX
  8
0
 10
0.0
 20
0.0
 30
0.0
 70
128
 71
380
 72
365
 73
356
  0
VERTEX
  8
0
 10
0.0
 20
0.0
 30
0.0
 70
128
 71
380
 72
356
 73
357
  0
VERTEX
  8
0
 10
0.0
 20
0.0
 30
0.0
 70
128
 71
349
 72
22
 73
10
  0
VERTEX
  8
0
 10
0.0
 20
0.0
 30
0.0
 70
128
 71
344
 72
349
 73
10
  0
VERTEX
  8
0
 10
0.0
 20
0.0
 30
0.0
 70
128
 71
10
 72
380
 73
357
  0
VERTEX
  8
0
 10
0.0
 20
0.0
 30
0.0
 70
128
 71
355
 72
366
 73
360
  0
VERTEX
  8
0
 10
0.0
 20
0.0
 30
0.0
 70
128
 71
10
 72
357
 73
355
  0
VERTEX
  8
0
 10
0.0
 20
0.0
 30
0.0
 70
128
 71
343
 72
344
 73
10
  0
VERTEX
  8
0
 10
0.0
 20
0.0
 30
0.0
 70
128
 71
342
 72
343
 73
10
  0
VERTEX
  8
0
 10
0.0
 20
0.0
 30
0.0
 70
128
 71
10
 72
355
 73
360
  0
VERTEX
  8
0
 10
0.0
 20
0.0
 30
0.0
 70
128
 71
369
 72
368
 73
372
  0
VERTEX
  8
0
 10
0.0
 20
0.0
 30
0.0
 70
128
 71
10
 72
360
 73
369
  0
VERTEX
  8
0
 10
0.0
 20
0.0
 30
0.0
 70
128
 71
345
 72
342
 73
10
  0
VERTEX
  8
0
 10
0.0
 20
0.0
 30
0.0
 70
128
 71
351
 72
348
 73
345
  0
VERTEX
  8
0
 10
0.0
 20
0.0
 30
0.0
 70
128
 71
381
 72
358
 73
359
  0
VERTEX
  8
0
 10
0.0
 20
0.0
 30
0.0
 70
128
 71
351
 72
345
 73
10
  0
VERTEX
  8
0
 10
0.0
 20
0.0
 30
0.0
 70
128
 71
362
 72
381
 73
359
  0
VERTEX
  8
0
 10
0.0
 20
0.0
 30
0.0
 70
128
 71
359
 72
351
 73
10
  0
VERTEX
  8
0
 10
0.0
 20
0.0
 30
0.0
 70
128
 71
10
 72
369
 73
372
  0
VERTEX
  8
0
 10
0.0
 20
0.0
 30
0.0
 70
128
 71
372
 72
373
 73
375
  0
VERTEX
  8
0
 10
0.0
 20
0.0
 30
0.0
 70
128
 71
374
 72
363
 73
370
  0
VERTEX
  8
0
 10
0.0
 20
0.0
 30
0.0
 70
128
 71
372
 72
375
 73
374
  0
VERTEX
  8
0
 10
0.0
 20
0.0
 30
0.0
 70
128
 71
359
 72
10
 73
372
  0
VERTEX
  8
0
 10
0.0
 20
0.0
 30
0.0
 70
128
 71
371
 72
362
 73
359
  0
VERTEX
  8
0
 10
0.0
 20
0.0
 30
0.0
 70
128
 71
372
 72
374
 73
370
  0
VERTEX
  8
0
 10
0.0
 20
0.0
 30
0.0
 70
128
 71
370
 72
371
 73
359
  0
VERTEX
  8
0
 10
0.0
 20
0.0
 30
0.0
 70
128
 71
372
 72
370
 73
359
  0
SEQEND
  8
0
  0
ENDSEC
  0
EOF
