999
FreeCAD v1.1 20260725 (Git shallow)
  0
SECTION
  2
HEADER
  9
$ACADVER
  1
AC1014
  9
$ACADMAINTVER
 70
     9
  9
$DWGCODEPAGE
  3
ANSI_1252
  9
$TEXTSTYLE
  7
STANDARD
  9
$DIMSTYLE
  2
STANDARD
  9
$DIMTXSTY
  7
STANDARD
  9
$CMLSTYLE
  2
STANDARD
  9
$LUNITS
 70
2
  9
$INSUNITS
 70
4
  9
$PEXTMAX
 10
50
 20
50
 30
50
  9
$PEXTMIN
 10
0
 20
0
 30
0
  9
$HANDSEED
  5
FFFF
  0
ENDSEC
  0
SECTION
  2
CLASSES
  0
CLASS
  1
ACDBDICTIONARYWDFLT
  2
AcDbDictionaryWithDefault
  3
ObjectDBX Classes
 90
        0
280
     0
281
     0
  0
CLASS
  1
XRECORD
  2
AcDbXrecord
  3
ObjectDBX Classes
 90
        0
280
     0
281
     0
  0
CLASS
  1
LWPOLYLINE
  2
AcDbPolyline
  3
ObjectDBX Classes
 90
        0
280
     0
281
     1
  0
ENDSEC
  0
SECTION
  2
TABLES
  0
TABLE
  2
VPORT
  5
20
330
0
100
AcDbSymbolTable
 70
     1
  0
VPORT
  5
21
330
20
100
AcDbSymbolTableRecord
100
AcDbViewportTableRecord
  2
*ACTIVE
 70
     0
  0
ENDTAB
  0
TABLE
  2
LTYPE
  5
22
330
0
100
AcDbSymbolTable
 70
     1
  0
LTYPE
  5
23
330
21
100
AcDbSymbolTableRecord
100
AcDbLinetypeTableRecord
  2
BYBLOCK
 70
     0
  3

 72
    65
 73
     0
 40
0.0
  0
LTYPE
  5
24
330
21
100
AcDbSymbolTableRecord
100
AcDbLinetypeTableRecord
  2
BYLAYER
 70
     0
  3

 72
    65
 73
     0
 40
0.0
  0
LTYPE
  5
25
330
21
100
AcDbSymbolTableRecord
100
AcDbLinetypeTableRecord
  2
CONTINUOUS
 70
     0
  3
Solid line
 72
    65
 73
     0
 40
0.0
  0
ENDTAB
  0
TABLE
  2
LAYER
  5
CA6
330
0
100
AcDbSymbolTable
 70
6
  0
LAYER
  5
CA7
330
CA6
100
AcDbSymbolTableRecord
100
AcDbLayerTableRecord
  2
0
 70
   0
 62
   7
  6
CONTINUOUS
  0
LAYER
  5
CA8
330
CA6
100
AcDbSymbolTableRecord
100
AcDbLayerTableRecord
  2
none
 70
    0
 62
    7
  6
CONTINUOUS
  0
LAYER
  5
CA9
330
CA6
100
AcDbSymbolTableRecord
100
AcDbLayerTableRecord
  2
Fusion
 70
    0
 62
    7
  6
CONTINUOUS
  0
LAYER
  5
CAA
330
CA6
100
AcDbSymbolTableRecord
100
AcDbLayerTableRecord
  2
Fusion001
 70
    0
 62
    7
  6
CONTINUOUS
  0
LAYER
  5
CAB
330
CA6
100
AcDbSymbolTableRecord
100
AcDbLayerTableRecord
  2
Fusion002
 70
    0
 62
    7
  6
CONTINUOUS
  0
LAYER
  5
CAC
330
CA6
100
AcDbSymbolTableRecord
100
AcDbLayerTableRecord
  2
Rectangle
 70
    0
 62
    7
  6
CONTINUOUS
  0
ENDTAB
  0
TABLE
  2
STYLE
  5
70
330
0
100
AcDbSymbolTable
 70
     2
  0
STYLE
  5
71
330
70
100
AcDbSymbolTableRecord
100
AcDbTextStyleTableRecord
  2
STANDARD
 70
     0
 40
0.0
 41
1.0
 50
0.0
 71
     0
 42
2.5
  3
arial.ttf
  4

  0
STYLE
  5
72
330
70
100
AcDbSymbolTableRecord
100
AcDbTextStyleTableRecord
  2
ANNOTATIVE
 70
     0
 40
0.0
 41
1.0
 50
0.0
 71
     0
 42
2.5
  3
arial.ttf
  4

  0
ENDTAB
  0
TABLE
  2
VIEW
  5
73
330
0
100
AcDbSymbolTable
 70
     0
  0
ENDTAB
  0
TABLE
  2
UCS
  5
74
330
0
100
AcDbSymbolTable
 70
     0
  0
ENDTAB
  0
TABLE
  2
APPID
  5
75
330
0
100
AcDbSymbolTable
 70
     2
  0
APPID
  5
76
330
75
100
AcDbSymbolTableRecord
100
AcDbRegAppTableRecord
  2
ACAD
 70
     0
  0
APPID
  5
77
330
75
100
AcDbSymbolTableRecord
100
AcDbRegAppTableRecord
  2
ACADANNOTATIVE
 70
     0
  0
ENDTAB
  0
TABLE
  2
DIMSTYLE
  5
78
330
0
100
AcDbSymbolTable
 70
     2
  0
DIMSTYLE
105
79
330
78
100
AcDbSymbolTableRecord
100
AcDbDimStyleTableRecord
  2
STANDARD
 70
     0
  3

  4

  5

  6

  7

 40
0.0
 41
2.5
 42
0.625
 43
3.75
 44
1.25
 45
0.0
 46
0.0
 47
0.0
 48
0.0
140
2.5
141
2.5
142
0.0
143
0.03937007874016
144
1.0
145
0.0
146
1.0
147
0.625
 71
     0
 72
     0
 73
     0
 74
     0
 75
     0
 76
     0
 77
     1
 78
     8
170
     0
171
     3
172
     1
173
     0
174
     0
175
     0
176
     0
177
     0
178
     0
270
     2
271
     2
272
     2
273
     2
274
     3
340
71
275
     0
280
     0
281
     0
282
     0
283
     0
284
     8
285
     0
286
     0
287
     3
288
     0
  0
ENDTAB
  0
TABLE
  2
BLOCK_RECORD
  5
A01
330
0
100
AcDbSymbolTable
  70
5
  0
BLOCK_RECORD
  5
A02
330
A01
100
AcDbSymbolTableRecord
100
AcDbBlockTableRecord
  2
*MODEL_SPACE
  0
BLOCK_RECORD
  5
A03
330
A01
100
AcDbSymbolTableRecord
100
AcDbBlockTableRecord
  2
*PAPER_SPACE
  0
ENDTAB
  0
ENDSEC
  0
SECTION
  2
BLOCKS
  0
BLOCK
  5
A04
330
A02
100
AcDbEntity
  8
0
100
AcDbBlockBegin
  2
*MODEL_SPACE
 70
   0
 10
0
 20
0
 30
0
  3
*MODEL_SPACE
  1
 
  0
ENDBLK
  5
A05
330
A02
100
AcDbEntity
  8
0
100
AcDbBlockEnd
  0
BLOCK
  5
A06
330
A03
100
AcDbEntity
 67
1
  8
0
100
AcDbBlockBegin
  2
*PAPER_SPACE
 70
   0
 10
0
 20
0
 30
0
  3
*PAPER_SPACE
  1
 
  0
ENDBLK
  5
A07
330
A03
100
AcDbEntity
 67
    1
  8
0
100
AcDbBlockEnd
  0
ENDSEC
  0
SECTION
  2
ENTITIES
  0
LINE
  5
A08
330
A02
100
AcDbEntity
  8
Fusion
100
AcDbLine
 10
333.571259000
 20
-691.005295000
 30
0.000000000
 11
334.547248036
 21
-686.104281476
 31
0.000000000
  0
LINE
  5
A09
330
A02
100
AcDbEntity
  8
Fusion
100
AcDbLine
 10
332.112884877
 20
-695.568889689
 30
0.000000000
 11
333.571259000
 21
-691.005295000
 31
0.000000000
  0
LINE
  5
A0A
330
A02
100
AcDbEntity
  8
Fusion
100
AcDbLine
 10
330.071100749
 20
-700.130107704
 30
0.000000000
 11
332.112884877
 21
-695.568889689
 31
0.000000000
  0
LINE
  5
A0B
330
A02
100
AcDbEntity
  8
Fusion
100
AcDbLine
 10
327.538768310
 20
-704.438582584
 30
0.000000000
 11
330.071100749
 21
-700.130107704
 31
0.000000000
  0
LINE
  5
A0C
330
A02
100
AcDbEntity
  8
Fusion
100
AcDbLine
 10
324.568003310
 20
-708.457644075
 30
0.000000000
 11
327.538768310
 21
-704.438582584
 31
0.000000000
  0
LINE
  5
A0D
330
A02
100
AcDbEntity
  8
Fusion
100
AcDbLine
 10
321.215570616
 20
-712.164707140
 30
0.000000000
 11
324.568003310
 21
-708.457644075
 31
0.000000000
  0
LINE
  5
A0E
330
A02
100
AcDbEntity
  8
Fusion
100
AcDbLine
 10
317.537760575
 20
-715.549607941
 30
0.000000000
 11
321.215570616
 21
-712.164707140
 31
0.000000000
  0
LINE
  5
A0F
330
A02
100
AcDbEntity
  8
Fusion
100
AcDbLine
 10
313.586938542
 20
-718.611844454
 30
0.000000000
 11
317.537760575
 21
-715.549607941
 31
0.000000000
  0
LINE
  5
A10
330
A02
100
AcDbEntity
  8
Fusion
100
AcDbLine
 10
309.409748764
 20
-721.357655795
 30
0.000000000
 11
313.586938542
 21
-718.611844454
 31
0.000000000
  0
LINE
  5
A11
330
A02
100
AcDbEntity
  8
Fusion
100
AcDbLine
 10
305.046566745
 20
-723.797492078
 30
0.000000000
 11
309.409748764
 21
-721.357655795
 31
0.000000000
  0
LINE
  5
A12
330
A02
100
AcDbEntity
  8
Fusion
100
AcDbLine
 10
300.531725508
 20
-725.944075180
 30
0.000000000
 11
305.046566745
 21
-723.797492078
 31
0.000000000
  0
LINE
  5
A13
330
A02
100
AcDbEntity
  8
Fusion
100
AcDbLine
 10
295.894134271
 20
-727.811035813
 30
0.000000000
 11
300.531725508
 21
-725.944075180
 31
0.000000000
  0
LINE
  5
A14
330
A02
100
AcDbEntity
  8
Fusion
100
AcDbLine
 10
291.158038440
 20
-729.412020621
 30
0.000000000
 11
295.894134271
 21
-727.811035813
 31
0.000000000
  0
LINE
  5
A15
330
A02
100
AcDbEntity
  8
Fusion
100
AcDbLine
 10
286.343778875
 20
-730.760145673
 30
0.000000000
 11
291.158038440
 21
-729.412020621
 31
0.000000000
  0
LINE
  5
A16
330
A02
100
AcDbEntity
  8
Fusion
100
AcDbLine
 10
281.468482133
 20
-731.867688790
 30
0.000000000
 11
286.343778875
 21
-730.760145673
 31
0.000000000
  0
LINE
  5
A17
330
A02
100
AcDbEntity
  8
Fusion
100
AcDbLine
 10
276.546656926
 20
-732.745938484
 30
0.000000000
 11
281.468482133
 21
-731.867688790
 31
0.000000000
  0
LINE
  5
A18
330
A02
100
AcDbEntity
  8
Fusion
100
AcDbLine
 10
271.590695021
 20
-733.405141142
 30
0.000000000
 11
276.546656926
 21
-732.745938484
 31
0.000000000
  0
LINE
  5
A19
330
A02
100
AcDbEntity
  8
Fusion
100
AcDbLine
 10
266.611285375
 20
-733.854507000
 30
0.000000000
 11
271.590695021
 21
-733.405141142
 31
0.000000000
  0
LINE
  5
A1A
330
A02
100
AcDbEntity
  8
Fusion
100
AcDbLine
 10
261.617754103
 20
-734.102249055
 30
0.000000000
 11
266.611285375
 21
-733.854507000
 31
0.000000000
  0
LINE
  5
A1B
330
A02
100
AcDbEntity
  8
Fusion
100
AcDbLine
 10
256.618343242
 20
-734.155638522
 30
0.000000000
 11
261.617754103
 21
-734.102249055
 31
0.000000000
  0
LINE
  5
A1C
330
A02
100
AcDbEntity
  8
Fusion
100
AcDbLine
 10
251.620440158
 20
-734.021066669
 30
0.000000000
 11
256.618343242
 21
-734.155638522
 31
0.000000000
  0
LINE
  5
A1D
330
A02
100
AcDbEntity
  8
Fusion
100
AcDbLine
 10
246.630767805
 20
-733.704106962
 30
0.000000000
 11
251.620440158
 21
-734.021066669
 31
0.000000000
  0
LINE
  5
A1E
330
A02
100
AcDbEntity
  8
Fusion
100
AcDbLine
 10
241.655544372
 20
-733.209574025
 30
0.000000000
 11
246.630767805
 21
-733.704106962
 31
0.000000000
  0
LINE
  5
A1F
330
A02
100
AcDbEntity
  8
Fusion
100
AcDbLine
 10
236.700619387
 20
-732.541577576
 30
0.000000000
 11
241.655544372
 21
-733.209574025
 31
0.000000000
  0
LINE
  5
A20
330
A02
100
AcDbEntity
  8
Fusion
100
AcDbLine
 10
231.771592076
 20
-731.703570516
 30
0.000000000
 11
236.700619387
 21
-732.541577576
 31
0.000000000
  0
LINE
  5
A21
330
A02
100
AcDbEntity
  8
Fusion
100
AcDbLine
 10
226.873916849
 20
-730.698390929
 30
0.000000000
 11
231.771592076
 21
-731.703570516
 31
0.000000000
  0
LINE
  5
A22
330
A02
100
AcDbEntity
  8
Fusion
100
AcDbLine
 10
222.012999971
 20
-729.528298185
 30
0.000000000
 11
226.873916849
 21
-730.698390929
 31
0.000000000
  0
LINE
  5
A23
330
A02
100
AcDbEntity
  8
Fusion
100
AcDbLine
 10
217.194291025
 20
-728.195003523
 30
0.000000000
 11
222.012999971
 21
-729.528298185
 31
0.000000000
  0
LINE
  5
A24
330
A02
100
AcDbEntity
  8
Fusion
100
AcDbLine
 10
212.423372348
 20
-726.699695683
 30
0.000000000
 11
217.194291025
 21
-728.195003523
 31
0.000000000
  0
LINE
  5
A25
330
A02
100
AcDbEntity
  8
Fusion
100
AcDbLine
 10
207.706049474
 20
-725.043062275
 30
0.000000000
 11
212.423372348
 21
-726.699695683
 31
0.000000000
  0
LINE
  5
A26
330
A02
100
AcDbEntity
  8
Fusion
100
AcDbLine
 10
203.048445574
 20
-723.225307751
 30
0.000000000
 11
207.706049474
 21
-725.043062275
 31
0.000000000
  0
LINE
  5
A27
330
A02
100
AcDbEntity
  8
Fusion
100
AcDbLine
 10
198.457102934
 20
-721.246169018
 30
0.000000000
 11
203.048445574
 21
-723.225307751
 31
0.000000000
  0
LINE
  5
A28
330
A02
100
AcDbEntity
  8
Fusion
100
AcDbLine
 10
193.939094789
 20
-719.104930079
 30
0.000000000
 11
198.457102934
 21
-721.246169018
 31
0.000000000
  0
LINE
  5
A29
330
A02
100
AcDbEntity
  8
Fusion
100
AcDbLine
 10
189.502151130
 20
-716.800437507
 30
0.000000000
 11
193.939094789
 21
-719.104930079
 31
0.000000000
  0
LINE
  5
A2A
330
A02
100
AcDbEntity
  8
Fusion
100
AcDbLine
 10
185.154802583
 20
-714.331119245
 30
0.000000000
 11
189.502151130
 21
-716.800437507
 31
0.000000000
  0
LINE
  5
A2B
330
A02
100
AcDbEntity
  8
Fusion
100
AcDbLine
 10
180.906546996
 20
-711.695010230
 30
0.000000000
 11
185.154802583
 21
-714.331119245
 31
0.000000000
  0
LINE
  5
A2C
330
A02
100
AcDbEntity
  8
Fusion
100
AcDbLine
 10
176.768043975
 20
-708.889789750
 30
0.000000000
 11
180.906546996
 21
-711.695010230
 31
0.000000000
  0
LINE
  5
A2D
330
A02
100
AcDbEntity
  8
Fusion
100
AcDbLine
 10
172.751343100
 20
-705.912837616
 30
0.000000000
 11
176.768043975
 21
-708.889789750
 31
0.000000000
  0
LINE
  5
A2E
330
A02
100
AcDbEntity
  8
Fusion
100
AcDbLine
 10
168.870151794
 20
-702.761319162
 30
0.000000000
 11
172.751343100
 21
-705.912837616
 31
0.000000000
  0
LINE
  5
A2F
330
A02
100
AcDbEntity
  8
Fusion
100
AcDbLine
 10
165.140148309
 20
-699.432313421
 30
0.000000000
 11
168.870151794
 21
-702.761319162
 31
0.000000000
  0
LINE
  5
A30
330
A02
100
AcDbEntity
  8
Fusion
100
AcDbLine
 10
161.579343372
 20
-695.923004695
 30
0.000000000
 11
165.140148309
 21
-699.432313421
 31
0.000000000
  0
LINE
  5
A31
330
A02
100
AcDbEntity
  8
Fusion
100
AcDbLine
 10
158.208489345
 20
-692.230965631
 30
0.000000000
 11
161.579343372
 21
-695.923004695
 31
0.000000000
  0
LINE
  5
A32
330
A02
100
AcDbEntity
  8
Fusion
100
AcDbLine
 10
155.051526189
 20
-688.354569916
 30
0.000000000
 11
158.208489345
 21
-692.230965631
 31
0.000000000
  0
LINE
  5
A33
330
A02
100
AcDbEntity
  8
Fusion
100
AcDbLine
 10
152.136035759
 20
-684.293583993
 30
0.000000000
 11
155.051526189
 21
-688.354569916
 31
0.000000000
  0
LINE
  5
A34
330
A02
100
AcDbEntity
  8
Fusion
100
AcDbLine
 10
149.493645241
 20
-680.049997134
 30
0.000000000
 11
152.136035759
 21
-684.293583993
 31
0.000000000
  0
LINE
  5
A35
330
A02
100
AcDbEntity
  8
Fusion
100
AcDbLine
 10
147.160271461
 20
-675.629151030
 30
0.000000000
 11
149.493645241
 21
-680.049997134
 31
0.000000000
  0
LINE
  5
A36
330
A02
100
AcDbEntity
  8
Fusion
100
AcDbLine
 10
145.176026906
 20
-671.041210149
 30
0.000000000
 11
147.160271461
 21
-675.629151030
 31
0.000000000
  0
LINE
  5
A37
330
A02
100
AcDbEntity
  8
Fusion
100
AcDbLine
 10
143.584521724
 20
-666.302949699
 30
0.000000000
 11
145.176026906
 21
-671.041210149
 31
0.000000000
  0
LINE
  5
A38
330
A02
100
AcDbEntity
  8
Fusion
100
AcDbLine
 10
142.431223992
 20
-661.439699787
 30
0.000000000
 11
143.584521724
 21
-666.302949699
 31
0.000000000
  0
LINE
  5
A39
330
A02
100
AcDbEntity
  8
Fusion
100
AcDbLine
 10
141.760554951
 20
-656.487056447
 30
0.000000000
 11
142.431223992
 21
-661.439699787
 31
0.000000000
  0
LINE
  5
A3A
330
A02
100
AcDbEntity
  8
Fusion
100
AcDbLine
 10
141.611610658
 20
-651.491695585
 30
0.000000000
 11
141.760554951
 21
-656.487056447
 31
0.000000000
  0
LINE
  5
A3B
330
A02
100
AcDbEntity
  8
Fusion
100
AcDbLine
 10
142.012907653
 20
-646.510465078
 30
0.000000000
 11
141.611610658
 21
-651.491695585
 31
0.000000000
  0
LINE
  5
A3C
330
A02
100
AcDbEntity
  8
Fusion
100
AcDbLine
 10
142.977260366
 20
-641.607147339
 30
0.000000000
 11
142.012907653
 21
-646.510465078
 31
0.000000000
  0
LINE
  5
A3D
330
A02
100
AcDbEntity
  8
Fusion
100
AcDbLine
 10
144.498410386
 20
-636.847044562
 30
0.000000000
 11
142.977260366
 21
-641.607147339
 31
0.000000000
  0
LINE
  5
A3E
330
A02
100
AcDbEntity
  8
Fusion
100
AcDbLine
 10
146.550796270
 20
-632.290583348
 30
0.000000000
 11
144.498410386
 21
-636.847044562
 31
0.000000000
  0
LINE
  5
A3F
330
A02
100
AcDbEntity
  8
Fusion
100
AcDbLine
 10
149.092740945
 20
-627.987766736
 30
0.000000000
 11
146.550796270
 21
-632.290583348
 31
0.000000000
  0
LINE
  5
A40
330
A02
100
AcDbEntity
  8
Fusion
100
AcDbLine
 10
152.071972294
 20
-623.974969938
 30
0.000000000
 11
149.092740945
 21
-627.987766736
 31
0.000000000
  0
LINE
  5
A41
330
A02
100
AcDbEntity
  8
Fusion
100
AcDbLine
 10
155.431688548
 20
-620.274498857
 30
0.000000000
 11
152.071972294
 21
-623.974969938
 31
0.000000000
  0
LINE
  5
A42
330
A02
100
AcDbEntity
  8
Fusion
100
AcDbLine
 10
159.115651674
 20
-616.896287866
 30
0.000000000
 11
155.431688548
 21
-620.274498857
 31
0.000000000
  0
LINE
  5
A43
330
A02
100
AcDbEntity
  8
Fusion
100
AcDbLine
 10
163.071601480
 20
-613.840670840
 30
0.000000000
 11
159.115651674
 21
-616.896287866
 31
0.000000000
  0
LINE
  5
A44
330
A02
100
AcDbEntity
  8
Fusion
100
AcDbLine
 10
167.253021140
 20
-611.101297948
 30
0.000000000
 11
163.071601480
 21
-613.840670840
 31
0.000000000
  0
LINE
  5
A45
330
A02
100
AcDbEntity
  8
Fusion
100
AcDbLine
 10
171.619664199
 20
-608.667654623
 30
0.000000000
 11
167.253021140
 21
-611.101297948
 31
0.000000000
  0
LINE
  5
A46
330
A02
100
AcDbEntity
  8
Fusion
100
AcDbLine
 10
176.137316788
 20
-606.526988252
 30
0.000000000
 11
171.619664199
 21
-608.667654623
 31
0.000000000
  0
LINE
  5
A47
330
A02
100
AcDbEntity
  8
Fusion
100
AcDbLine
 10
180.777173916
 20
-604.665660156
 30
0.000000000
 11
176.137316788
 21
-606.526988252
 31
0.000000000
  0
LINE
  5
A48
330
A02
100
AcDbEntity
  8
Fusion
100
AcDbLine
 10
185.515078376
 20
-603.070030114
 30
0.000000000
 11
180.777173916
 21
-604.665660156
 31
0.000000000
  0
LINE
  5
A49
330
A02
100
AcDbEntity
  8
Fusion
100
AcDbLine
 10
190.330762402
 20
-601.726996926
 30
0.000000000
 11
185.515078376
 21
-603.070030114
 31
0.000000000
  0
LINE
  5
A4A
330
A02
100
AcDbEntity
  8
Fusion
100
AcDbLine
 10
195.207159225
 20
-600.624302104
 30
0.000000000
 11
190.330762402
 21
-601.726996926
 31
0.000000000
  0
LINE
  5
A4B
330
A02
100
AcDbEntity
  8
Fusion
100
AcDbLine
 10
200.129808623
 20
-599.750678395
 30
0.000000000
 11
195.207159225
 21
-600.624302104
 31
0.000000000
  0
LINE
  5
A4C
330
A02
100
AcDbEntity
  8
Fusion
100
AcDbLine
 10
205.086357924
 20
-599.095901029
 30
0.000000000
 11
200.129808623
 21
-599.750678395
 31
0.000000000
  0
LINE
  5
A4D
330
A02
100
AcDbEntity
  8
Fusion
100
AcDbLine
 10
210.066149538
 20
-598.650780849
 30
0.000000000
 11
205.086357924
 21
-599.095901029
 31
0.000000000
  0
LINE
  5
A4E
330
A02
100
AcDbEntity
  8
Fusion
100
AcDbLine
 10
215.059882379
 20
-598.407124914
 30
0.000000000
 11
210.066149538
 21
-598.650780849
 31
0.000000000
  0
LINE
  5
A4F
330
A02
100
AcDbEntity
  8
Fusion
100
AcDbLine
 10
220.059334241
 20
-598.357680826
 30
0.000000000
 11
215.059882379
 21
-598.407124914
 31
0.000000000
  0
LINE
  5
A50
330
A02
100
AcDbEntity
  8
Fusion
100
AcDbLine
 10
225.057133290
 20
-598.496074834
 30
0.000000000
 11
220.059334241
 21
-598.357680826
 31
0.000000000
  0
LINE
  5
A51
330
A02
100
AcDbEntity
  8
Fusion
100
AcDbLine
 10
230.046568527
 20
-598.816749735
 30
0.000000000
 11
225.057133290
 21
-598.496074834
 31
0.000000000
  0
LINE
  5
A52
330
A02
100
AcDbEntity
  8
Fusion
100
AcDbLine
 10
235.021430686
 20
-599.314905997
 30
0.000000000
 11
230.046568527
 21
-598.816749735
 31
0.000000000
  0
LINE
  5
A53
330
A02
100
AcDbEntity
  8
Fusion
100
AcDbLine
 10
239.975876556
 20
-599.986447935
 30
0.000000000
 11
235.021430686
 21
-599.314905997
 31
0.000000000
  0
LINE
  5
A54
330
A02
100
AcDbEntity
  8
Fusion
100
AcDbLine
 10
244.904310932
 20
-600.827935758
 30
0.000000000
 11
239.975876556
 21
-599.986447935
 31
0.000000000
  0
LINE
  5
A55
330
A02
100
AcDbEntity
  8
Fusion
100
AcDbLine
 10
249.801281357
 20
-601.836543685
 30
0.000000000
 11
244.904310932
 21
-600.827935758
 31
0.000000000
  0
LINE
  5
A56
330
A02
100
AcDbEntity
  8
Fusion
100
AcDbLine
 10
254.661381581
 20
-603.010023962
 30
0.000000000
 11
249.801281357
 21
-601.836543685
 31
0.000000000
  0
LINE
  5
A57
330
A02
100
AcDbEntity
  8
Fusion
100
AcDbLine
 10
259.479160181
 20
-604.346676389
 30
0.000000000
 11
254.661381581
 21
-603.010023962
 31
0.000000000
  0
LINE
  5
A58
330
A02
100
AcDbEntity
  8
Fusion
100
AcDbLine
 10
264.249031135
 20
-605.845322784
 30
0.000000000
 11
259.479160181
 21
-604.346676389
 31
0.000000000
  0
LINE
  5
A59
330
A02
100
AcDbEntity
  8
Fusion
100
AcDbLine
 10
268.965183317
 20
-607.505285691
 30
0.000000000
 11
264.249031135
 21
-605.845322784
 31
0.000000000
  0
LINE
  5
A5A
330
A02
100
AcDbEntity
  8
Fusion
100
AcDbLine
 10
273.621485955
 20
-609.326370470
 30
0.000000000
 11
268.965183317
 21
-607.505285691
 31
0.000000000
  0
LINE
  5
A5B
330
A02
100
AcDbEntity
  8
Fusion
100
AcDbLine
 10
278.211386966
 20
-611.308849721
 30
0.000000000
 11
273.621485955
 21
-609.326370470
 31
0.000000000
  0
LINE
  5
A5C
330
A02
100
AcDbEntity
  8
Fusion
100
AcDbLine
 10
282.727800871
 20
-613.453448641
 30
0.000000000
 11
278.211386966
 21
-611.308849721
 31
0.000000000
  0
LINE
  5
A5D
330
A02
100
AcDbEntity
  8
Fusion
100
AcDbLine
 10
287.162982663
 20
-615.761329514
 30
0.000000000
 11
282.727800871
 21
-613.453448641
 31
0.000000000
  0
LINE
  5
A5E
330
A02
100
AcDbEntity
  8
Fusion
100
AcDbLine
 10
291.508383504
 20
-618.234072806
 30
0.000000000
 11
287.162982663
 21
-615.761329514
 31
0.000000000
  0
LINE
  5
A5F
330
A02
100
AcDbEntity
  8
Fusion
100
AcDbLine
 10
295.754483615
 20
-620.873651361
 30
0.000000000
 11
291.508383504
 21
-618.234072806
 31
0.000000000
  0
LINE
  5
A60
330
A02
100
AcDbEntity
  8
Fusion
100
AcDbLine
 10
299.890597108
 20
-623.682392722
 30
0.000000000
 11
295.754483615
 21
-620.873651361
 31
0.000000000
  0
LINE
  5
A61
330
A02
100
AcDbEntity
  8
Fusion
100
AcDbLine
 10
303.904643003
 20
-626.662922494
 30
0.000000000
 11
299.890597108
 21
-623.682392722
 31
0.000000000
  0
LINE
  5
A62
330
A02
100
AcDbEntity
  8
Fusion
100
AcDbLine
 10
307.782876487
 20
-629.818078600
 30
0.000000000
 11
303.904643003
 21
-626.662922494
 31
0.000000000
  0
LINE
  5
A63
330
A02
100
AcDbEntity
  8
Fusion
100
AcDbLine
 10
311.509574945
 20
-633.150782032
 30
0.000000000
 11
307.782876487
 21
-629.818078600
 31
0.000000000
  0
LINE
  5
A64
330
A02
100
AcDbEntity
  8
Fusion
100
AcDbLine
 10
315.066675295
 20
-636.663843701
 30
0.000000000
 11
311.509574945
 21
-633.150782032
 31
0.000000000
  0
LINE
  5
A65
330
A02
100
AcDbEntity
  8
Fusion
100
AcDbLine
 10
318.433363918
 20
-640.359679109
 30
0.000000000
 11
315.066675295
 21
-636.663843701
 31
0.000000000
  0
LINE
  5
A66
330
A02
100
AcDbEntity
  8
Fusion
100
AcDbLine
 10
321.585630153
 20
-644.239892494
 30
0.000000000
 11
318.433363918
 21
-640.359679109
 31
0.000000000
  0
LINE
  5
A67
330
A02
100
AcDbEntity
  8
Fusion
100
AcDbLine
 10
324.495812322
 20
-648.304680812
 30
0.000000000
 11
321.585630153
 21
-644.239892494
 31
0.000000000
  0
LINE
  5
A68
330
A02
100
AcDbEntity
  8
Fusion
100
AcDbLine
 10
327.132196276
 20
-652.551998080
 30
0.000000000
 11
324.495812322
 21
-648.304680812
 31
0.000000000
  0
LINE
  5
A69
330
A02
100
AcDbEntity
  8
Fusion
100
AcDbLine
 10
329.458775980
 20
-656.976419036
 30
0.000000000
 11
327.132196276
 21
-652.551998080
 31
0.000000000
  0
LINE
  5
A6A
330
A02
100
AcDbEntity
  8
Fusion
100
AcDbLine
 10
331.435356989
 20
-661.567661648
 30
0.000000000
 11
329.458775980
 21
-656.976419036
 31
0.000000000
  0
LINE
  5
A6B
330
A02
100
AcDbEntity
  8
Fusion
100
AcDbLine
 10
333.018270308
 20
-666.308793665
 30
0.000000000
 11
331.435356989
 21
-661.567661648
 31
0.000000000
  0
LINE
  5
A6C
330
A02
100
AcDbEntity
  8
Fusion
100
AcDbLine
 10
334.162035317
 20
-671.174288407
 30
0.000000000
 11
333.018270308
 21
-666.308793665
 31
0.000000000
  0
LINE
  5
A6D
330
A02
100
AcDbEntity
  8
Fusion
100
AcDbLine
 10
334.822293027
 20
-676.128324642
 30
0.000000000
 11
334.162035317
 21
-671.174288407
 31
0.000000000
  0
LINE
  5
A6E
330
A02
100
AcDbEntity
  8
Fusion
100
AcDbLine
 10
334.960110877
 20
-681.123999787
 30
0.000000000
 11
334.822293027
 21
-676.128324642
 31
0.000000000
  0
LINE
  5
A6F
330
A02
100
AcDbEntity
  8
Fusion
100
AcDbLine
 10
334.547248036
 20
-686.104281476
 30
0.000000000
 11
334.960110877
 21
-681.123999787
 31
0.000000000
  0
LINE
  5
A70
330
A02
100
AcDbEntity
  8
Fusion
100
AcDbLine
 10
-579.695312000
 20
-683.267654000
 30
0.000000000
 11
-568.886597000
 21
-658.295776000
 31
0.000000000
  0
LINE
  5
A71
330
A02
100
AcDbEntity
  8
Fusion
100
AcDbLine
 10
-568.886597000
 20
-658.295776000
 30
0.000000000
 11
-550.623596000
 21
-628.478607000
 31
0.000000000
  0
LINE
  5
A72
330
A02
100
AcDbEntity
  8
Fusion
100
AcDbLine
 10
-550.623596000
 20
-628.478607000
 30
0.000000000
 11
-529.378845000
 21
-599.406891000
 31
0.000000000
  0
LINE
  5
A73
330
A02
100
AcDbEntity
  8
Fusion
100
AcDbLine
 10
-529.378845000
 20
-599.406891000
 30
0.000000000
 11
-501.425293000
 21
-570.335144000
 31
0.000000000
  0
LINE
  5
A74
330
A02
100
AcDbEntity
  8
Fusion
100
AcDbLine
 10
-501.425293000
 20
-570.335144000
 30
0.000000000
 11
-467.508270000
 21
-542.008850000
 31
0.000000000
  0
LINE
  5
A75
330
A02
100
AcDbEntity
  8
Fusion
100
AcDbLine
 10
-467.508270000
 20
-542.008850000
 30
0.000000000
 11
-432.845825000
 21
-520.391388000
 31
0.000000000
  0
LINE
  5
A76
330
A02
100
AcDbEntity
  8
Fusion
100
AcDbLine
 10
-432.845825000
 20
-520.391388000
 30
0.000000000
 11
-393.532837000
 21
-499.370758000
 31
0.000000000
  0
LINE
  5
A77
330
A02
100
AcDbEntity
  8
Fusion
100
AcDbLine
 10
-393.532837000
 20
-499.370758000
 30
0.000000000
 11
-335.016663000
 21
-474.398895000
 31
0.000000000
  0
LINE
  5
A78
330
A02
100
AcDbEntity
  8
Fusion
100
AcDbLine
 10
-335.016663000
 20
-474.398895000
 30
0.000000000
 11
-278.736755000
 21
-457.626740000
 31
0.000000000
  0
LINE
  5
A79
330
A02
100
AcDbEntity
  8
Fusion
100
AcDbLine
 10
-278.736755000
 20
-457.626740000
 30
0.000000000
 11
-235.874603000
 21
-448.308868000
 31
0.000000000
  0
LINE
  5
A7A
330
A02
100
AcDbEntity
  8
Fusion
100
AcDbLine
 10
-235.874603000
 20
-448.308868000
 30
0.000000000
 11
-196.586166000
 21
-441.191864000
 31
0.000000000
  0
LINE
  5
A7B
330
A02
100
AcDbEntity
  8
Fusion
100
AcDbLine
 10
-196.586166000
 20
-441.191864000
 30
0.000000000
 11
-145.524292000
 21
-435.228424000
 31
0.000000000
  0
LINE
  5
A7C
330
A02
100
AcDbEntity
  8
Fusion
100
AcDbLine
 10
-145.524292000
 20
-435.228424000
 30
0.000000000
 11
-95.207817000
 21
-431.501282000
 31
0.000000000
  0
LINE
  5
A7D
330
A02
100
AcDbEntity
  8
Fusion
100
AcDbLine
 10
-95.207817000
 20
-431.501282000
 30
0.000000000
 11
-53.091095000
 21
-431.501282000
 31
0.000000000
  0
LINE
  5
A7E
330
A02
100
AcDbEntity
  8
Fusion
100
AcDbLine
 10
-53.091095000
 20
-431.501282000
 30
0.000000000
 11
-20.145432000
 21
-431.501282000
 31
0.000000000
  0
LINE
  5
A7F
330
A02
100
AcDbEntity
  8
Fusion
100
AcDbLine
 10
-20.145432000
 20
-431.501282000
 30
0.000000000
 11
30.171043000
 21
-434.459991000
 31
0.000000000
  0
LINE
  5
A80
330
A02
100
AcDbEntity
  8
Fusion
100
AcDbLine
 10
30.171043000
 20
-434.459991000
 30
0.000000000
 11
90.923492000
 21
-442.659729000
 31
0.000000000
  0
LINE
  5
A81
330
A02
100
AcDbEntity
  8
Fusion
100
AcDbLine
 10
90.923492000
 20
-442.659729000
 30
0.000000000
 11
139.376373000
 21
-451.232178000
 31
0.000000000
  0
LINE
  5
A82
330
A02
100
AcDbEntity
  8
Fusion
100
AcDbLine
 10
139.376373000
 20
-451.232178000
 30
0.000000000
 11
178.511429000
 21
-460.177307000
 31
0.000000000
  0
LINE
  5
A83
330
A02
100
AcDbEntity
  8
Fusion
100
AcDbLine
 10
178.511429000
 20
-460.177307000
 30
0.000000000
 11
218.202362000
 21
-470.645081000
 31
0.000000000
  0
LINE
  5
A84
330
A02
100
AcDbEntity
  8
Fusion
100
AcDbLine
 10
218.202362000
 20
-470.645081000
 30
0.000000000
 11
260.691803000
 21
-484.062836000
 31
0.000000000
  0
LINE
  5
A85
330
A02
100
AcDbEntity
  8
Fusion
100
AcDbLine
 10
260.691803000
 20
-484.062836000
 30
0.000000000
 11
300.944977000
 21
-498.598694000
 31
0.000000000
  0
LINE
  5
A86
330
A02
100
AcDbEntity
  8
Fusion
100
AcDbLine
 10
300.944977000
 20
-498.598694000
 30
0.000000000
 11
343.807129000
 21
-516.861694000
 31
0.000000000
  0
LINE
  5
A87
330
A02
100
AcDbEntity
  8
Fusion
100
AcDbLine
 10
343.807129000
 20
-516.861694000
 30
0.000000000
 11
377.527649000
 21
-533.374329000
 31
0.000000000
  0
LINE
  5
A88
330
A02
100
AcDbEntity
  8
Fusion
100
AcDbLine
 10
377.527649000
 20
-533.374329000
 30
0.000000000
 11
412.935547000
 21
-554.991791000
 31
0.000000000
  0
LINE
  5
A89
330
A02
100
AcDbEntity
  8
Fusion
100
AcDbLine
 10
412.935547000
 20
-554.991791000
 30
0.000000000
 11
436.789276000
 21
-572.136642000
 31
0.000000000
  0
LINE
  5
A8A
330
A02
100
AcDbEntity
  8
Fusion
100
AcDbLine
 10
436.789276000
 20
-572.136642000
 30
0.000000000
 11
454.306854000
 21
-586.672516000
 31
0.000000000
  0
LINE
  5
A8B
330
A02
100
AcDbEntity
  8
Fusion
100
AcDbLine
 10
454.306854000
 20
-586.672516000
 30
0.000000000
 11
466.846710000
 21
-598.821167000
 31
0.000000000
  0
LINE
  5
A8C
330
A02
100
AcDbEntity
  8
Fusion
100
AcDbLine
 10
466.846710000
 20
-598.821167000
 30
0.000000000
 11
480.551575000
 21
-616.207932000
 31
0.000000000
  0
LINE
  5
A8D
330
A02
100
AcDbEntity
  8
Fusion
100
AcDbLine
 10
480.551575000
 20
-616.207932000
 30
0.000000000
 11
488.733582000
 21
-628.480927000
 31
0.000000000
  0
LINE
  5
A8E
330
A02
100
AcDbEntity
  8
Fusion
100
AcDbLine
 10
488.733582000
 20
-628.480927000
 30
0.000000000
 11
494.665527000
 21
-642.390335000
 31
0.000000000
  0
LINE
  5
A8F
330
A02
100
AcDbEntity
  8
Fusion
100
AcDbLine
 10
494.665527000
 20
-642.390335000
 30
0.000000000
 11
499.779266000
 21
-659.981644000
 31
0.000000000
  0
LINE
  5
A90
330
A02
100
AcDbEntity
  8
Fusion
100
AcDbLine
 10
499.779266000
 20
-659.981644000
 30
0.000000000
 11
501.415680000
 21
-671.436447000
 31
0.000000000
  0
LINE
  5
A91
330
A02
100
AcDbEntity
  8
Fusion
100
AcDbLine
 10
501.415680000
 20
-671.436447000
 30
0.000000000
 11
501.415680000
 21
-686.661530000
 31
0.000000000
  0
LINE
  5
A92
330
A02
100
AcDbEntity
  8
Fusion
100
AcDbLine
 10
501.415680000
 20
-686.661530000
 30
0.000000000
 11
499.175812000
 21
-699.139084000
 31
0.000000000
  0
LINE
  5
A93
330
A02
100
AcDbEntity
  8
Fusion
100
AcDbLine
 10
499.175812000
 20
-699.139084000
 30
0.000000000
 11
494.062073000
 21
-712.843941000
 31
0.000000000
  0
LINE
  5
A94
330
A02
100
AcDbEntity
  8
Fusion
100
AcDbLine
 10
494.062073000
 20
-712.843941000
 30
0.000000000
 11
486.698273000
 21
-724.094193000
 31
0.000000000
  0
LINE
  5
A95
330
A02
100
AcDbEntity
  8
Fusion
100
AcDbLine
 10
486.698273000
 20
-724.094193000
 30
0.000000000
 11
477.084412000
 21
-734.935349000
 31
0.000000000
  0
LINE
  5
A96
330
A02
100
AcDbEntity
  8
Fusion
100
AcDbLine
 10
477.084412000
 20
-734.935349000
 30
0.000000000
 11
466.447815000
 21
-743.526451000
 31
0.000000000
  0
LINE
  5
A97
330
A02
100
AcDbEntity
  8
Fusion
100
AcDbLine
 10
466.447815000
 20
-743.526451000
 30
0.000000000
 11
451.515656000
 21
-752.935753000
 31
0.000000000
  0
LINE
  5
A98
330
A02
100
AcDbEntity
  8
Fusion
100
AcDbLine
 10
451.515656000
 20
-752.935753000
 30
0.000000000
 11
435.969849000
 21
-761.117760000
 31
0.000000000
  0
LINE
  5
A99
330
A02
100
AcDbEntity
  8
Fusion
100
AcDbLine
 10
435.969849000
 20
-761.117760000
 30
0.000000000
 11
420.578613000
 21
-766.708767000
 31
0.000000000
  0
LINE
  5
A9A
330
A02
100
AcDbEntity
  8
Fusion
100
AcDbLine
 10
420.578613000
 20
-766.708767000
 30
0.000000000
 11
402.987305000
 21
-774.481674000
 31
0.000000000
  0
LINE
  5
A9B
330
A02
100
AcDbEntity
  8
Fusion
100
AcDbLine
 10
402.987305000
 20
-774.481674000
 30
0.000000000
 11
383.350494000
 21
-783.072773000
 31
0.000000000
  0
LINE
  5
A9C
330
A02
100
AcDbEntity
  8
Fusion
100
AcDbLine
 10
383.350494000
 20
-783.072773000
 30
0.000000000
 11
369.441101000
 21
-791.254776000
 31
0.000000000
  0
LINE
  5
A9D
330
A02
100
AcDbEntity
  8
Fusion
100
AcDbLine
 10
369.441101000
 20
-791.254776000
 30
0.000000000
 11
355.940796000
 21
-802.095930000
 31
0.000000000
  0
LINE
  5
A9E
330
A02
100
AcDbEntity
  8
Fusion
100
AcDbLine
 10
355.940796000
 20
-802.095930000
 30
0.000000000
 11
345.672913000
 21
-813.016891000
 31
0.000000000
  0
LINE
  5
A9F
330
A02
100
AcDbEntity
  8
Fusion
100
AcDbLine
 10
345.672913000
 20
-813.016891000
 30
0.000000000
 11
337.695465000
 21
-825.289896000
 31
0.000000000
  0
LINE
  5
AA0
330
A02
100
AcDbEntity
  8
Fusion
100
AcDbLine
 10
337.695465000
 20
-825.289896000
 30
0.000000000
 11
332.786255000
 21
-837.358347000
 31
0.000000000
  0
LINE
  5
AA1
330
A02
100
AcDbEntity
  8
Fusion
100
AcDbLine
 10
332.786255000
 20
-837.358347000
 30
0.000000000
 11
330.536224000
 21
-850.245003000
 31
0.000000000
  0
LINE
  5
AA2
330
A02
100
AcDbEntity
  8
Fusion
100
AcDbLine
 10
330.536224000
 20
-850.245003000
 30
0.000000000
 11
330.536224000
 21
-863.812485000
 31
0.000000000
  0
LINE
  5
AA3
330
A02
100
AcDbEntity
  8
Fusion
100
AcDbLine
 10
330.536224000
 20
-863.812485000
 30
0.000000000
 11
332.982544000
 21
-877.517342000
 31
0.000000000
  0
LINE
  5
AA4
330
A02
100
AcDbEntity
  8
Fusion
100
AcDbLine
 10
332.982544000
 20
-877.517342000
 30
0.000000000
 11
337.687195000
 21
-889.585800000
 31
0.000000000
  0
LINE
  5
AA5
330
A02
100
AcDbEntity
  8
Fusion
100
AcDbLine
 10
337.687195000
 20
-889.585800000
 30
0.000000000
 11
344.028259000
 21
-901.245148000
 31
0.000000000
  0
LINE
  5
AA6
330
A02
100
AcDbEntity
  8
Fusion
100
AcDbLine
 10
344.028259000
 20
-901.245148000
 30
0.000000000
 11
352.633392000
 21
-912.559288000
 31
0.000000000
  0
LINE
  5
AA7
330
A02
100
AcDbEntity
  8
Fusion
100
AcDbLine
 10
352.633392000
 20
-912.559288000
 30
0.000000000
 11
362.247253000
 21
-921.354942000
 31
0.000000000
  0
LINE
  5
AA8
330
A02
100
AcDbEntity
  8
Fusion
100
AcDbLine
 10
362.247253000
 20
-921.354942000
 30
0.000000000
 11
372.270203000
 21
-928.105095000
 31
0.000000000
  0
LINE
  5
AA9
330
A02
100
AcDbEntity
  8
Fusion
100
AcDbLine
 10
372.270203000
 20
-928.105095000
 30
0.000000000
 11
382.702240000
 21
-934.037041000
 31
0.000000000
  0
LINE
  5
AAA
330
A02
100
AcDbEntity
  8
Fusion
100
AcDbLine
 10
382.702240000
 20
-934.037041000
 30
0.000000000
 11
394.157043000
 21
-938.128044000
 31
0.000000000
  0
LINE
  5
AAB
330
A02
100
AcDbEntity
  8
Fusion
100
AcDbLine
 10
394.157043000
 20
-938.128044000
 30
0.000000000
 11
409.907410000
 21
-941.605400000
 31
0.000000000
  0
LINE
  5
AAC
330
A02
100
AcDbEntity
  8
Fusion
100
AcDbLine
 10
409.907410000
 20
-941.605400000
 30
0.000000000
 11
424.635010000
 21
-943.446350000
 31
0.000000000
  0
LINE
  5
AAD
330
A02
100
AcDbEntity
  8
Fusion
100
AcDbLine
 10
424.635010000
 20
-943.446350000
 30
0.000000000
 11
439.214203000
 21
-944.708755000
 31
0.000000000
  0
LINE
  5
AAE
330
A02
100
AcDbEntity
  8
Fusion
100
AcDbLine
 10
439.214203000
 20
-944.708755000
 30
0.000000000
 11
454.350922000
 21
-946.345154000
 31
0.000000000
  0
LINE
  5
AAF
330
A02
100
AcDbEntity
  8
Fusion
100
AcDbLine
 10
454.350922000
 20
-946.345154000
 30
0.000000000
 11
468.260315000
 21
-948.390656000
 31
0.000000000
  0
LINE
  5
AB0
330
A02
100
AcDbEntity
  8
Fusion
100
AcDbLine
 10
468.260315000
 20
-948.390656000
 30
0.000000000
 11
484.853271000
 21
-951.446320000
 31
0.000000000
  0
LINE
  5
AB1
330
A02
100
AcDbEntity
  8
Fusion
100
AcDbLine
 10
484.853271000
 20
-951.446320000
 30
0.000000000
 11
498.753387000
 21
-955.130692000
 31
0.000000000
  0
LINE
  5
AB2
330
A02
100
AcDbEntity
  8
Fusion
100
AcDbLine
 10
498.753387000
 20
-955.130692000
 30
0.000000000
 11
514.663147000
 21
-960.154831000
 31
0.000000000
  0
LINE
  5
AB3
330
A02
100
AcDbEntity
  8
Fusion
100
AcDbLine
 10
514.663147000
 20
-960.154831000
 30
0.000000000
 11
529.400635000
 21
-966.686218000
 31
0.000000000
  0
LINE
  5
AB4
330
A02
100
AcDbEntity
  8
Fusion
100
AcDbLine
 10
529.400635000
 20
-966.686218000
 30
0.000000000
 11
544.873352000
 21
-975.943237000
 31
0.000000000
  0
LINE
  5
AB5
330
A02
100
AcDbEntity
  8
Fusion
100
AcDbLine
 10
544.873352000
 20
-975.943237000
 30
0.000000000
 11
555.089111000
 21
-983.981873000
 31
0.000000000
  0
LINE
  5
AB6
330
A02
100
AcDbEntity
  8
Fusion
100
AcDbLine
 10
555.089111000
 20
-983.981873000
 30
0.000000000
 11
564.132568000
 21
-994.867508000
 31
0.000000000
  0
LINE
  5
AB7
330
A02
100
AcDbEntity
  8
Fusion
100
AcDbLine
 10
564.132568000
 20
-994.867508000
 30
0.000000000
 11
570.848694000
 21
-1004.794220000
 31
0.000000000
  0
LINE
  5
AB8
330
A02
100
AcDbEntity
  8
Fusion
100
AcDbLine
 10
570.848694000
 20
-1004.794220000
 30
0.000000000
 11
574.365601000
 21
-1016.014801000
 31
0.000000000
  0
LINE
  5
AB9
330
A02
100
AcDbEntity
  8
Fusion
100
AcDbLine
 10
574.365601000
 20
-1016.014801000
 30
0.000000000
 11
575.537903000
 21
-1026.398041000
 31
0.000000000
  0
LINE
  5
ABA
330
A02
100
AcDbEntity
  8
Fusion
100
AcDbLine
 10
575.537903000
 20
-1026.398041000
 30
0.000000000
 11
576.040283000
 21
-1034.101715000
 31
0.000000000
  0
LINE
  5
ABB
330
A02
100
AcDbEntity
  8
Fusion
100
AcDbLine
 10
576.040283000
 20
-1034.101715000
 30
0.000000000
 11
576.040283000
 21
-1041.302994000
 31
0.000000000
  0
LINE
  5
ABC
330
A02
100
AcDbEntity
  8
Fusion
100
AcDbLine
 10
576.040283000
 20
-1041.302994000
 30
0.000000000
 11
574.366394000
 21
-1053.244324000
 31
0.000000000
  0
LINE
  5
ABD
330
A02
100
AcDbEntity
  8
Fusion
100
AcDbLine
 10
574.366394000
 20
-1053.244324000
 30
0.000000000
 11
571.184387000
 21
-1062.455261000
 31
0.000000000
  0
LINE
  5
ABE
330
A02
100
AcDbEntity
  8
Fusion
100
AcDbLine
 10
571.184387000
 20
-1062.455261000
 30
0.000000000
 11
566.327759000
 21
-1072.503555000
 31
0.000000000
  0
LINE
  5
ABF
330
A02
100
AcDbEntity
  8
Fusion
100
AcDbLine
 10
566.327759000
 20
-1072.503555000
 30
0.000000000
 11
557.111755000
 21
-1086.621399000
 31
0.000000000
  0
LINE
  5
AC0
330
A02
100
AcDbEntity
  8
Fusion
100
AcDbLine
 10
557.111755000
 20
-1086.621399000
 30
0.000000000
 11
545.388733000
 21
-1100.521545000
 31
0.000000000
  0
LINE
  5
AC1
330
A02
100
AcDbEntity
  8
Fusion
100
AcDbLine
 10
545.388733000
 20
-1100.521545000
 30
0.000000000
 11
530.510620000
 21
-1114.580872000
 31
0.000000000
  0
LINE
  5
AC2
330
A02
100
AcDbEntity
  8
Fusion
100
AcDbLine
 10
530.510620000
 20
-1114.580872000
 30
0.000000000
 11
515.373901000
 21
-1126.853882000
 31
0.000000000
  0
LINE
  5
AC3
330
A02
100
AcDbEntity
  8
Fusion
100
AcDbLine
 10
515.373901000
 20
-1126.853882000
 30
0.000000000
 11
490.623352000
 21
-1143.217896000
 31
0.000000000
  0
LINE
  5
AC4
330
A02
100
AcDbEntity
  8
Fusion
100
AcDbLine
 10
490.623352000
 20
-1143.217896000
 30
0.000000000
 11
458.509003000
 21
-1160.604645000
 31
0.000000000
  0
LINE
  5
AC5
330
A02
100
AcDbEntity
  8
Fusion
100
AcDbLine
 10
458.509003000
 20
-1160.604645000
 30
0.000000000
 11
426.803741000
 21
-1173.900421000
 31
0.000000000
  0
LINE
  5
AC6
330
A02
100
AcDbEntity
  8
Fusion
100
AcDbLine
 10
426.803741000
 20
-1173.900421000
 30
0.000000000
 11
383.381439000
 21
-1189.542999000
 31
0.000000000
  0
LINE
  5
AC7
330
A02
100
AcDbEntity
  8
Fusion
100
AcDbLine
 10
383.381439000
 20
-1189.542999000
 30
0.000000000
 11
344.016693000
 21
-1199.613037000
 31
0.000000000
  0
LINE
  5
AC8
330
A02
100
AcDbEntity
  8
Fusion
100
AcDbLine
 10
344.016693000
 20
-1199.613037000
 30
0.000000000
 11
293.056183000
 21
-1208.767609000
 31
0.000000000
  0
LINE
  5
AC9
330
A02
100
AcDbEntity
  8
Fusion
100
AcDbLine
 10
293.056183000
 20
-1208.767609000
 30
0.000000000
 11
242.400803000
 21
-1213.955200000
 31
0.000000000
  0
LINE
  5
ACA
330
A02
100
AcDbEntity
  8
Fusion
100
AcDbLine
 10
242.400803000
 20
-1213.955200000
 30
0.000000000
 11
203.036102000
 21
-1216.396454000
 31
0.000000000
  0
LINE
  5
ACB
330
A02
100
AcDbEntity
  8
Fusion
100
AcDbLine
 10
203.036102000
 20
-1216.396454000
 30
0.000000000
 11
147.561127000
 21
-1216.396454000
 31
0.000000000
  0
LINE
  5
ACC
330
A02
100
AcDbEntity
  8
Fusion
100
AcDbLine
 10
147.561127000
 20
-1216.396454000
 30
0.000000000
 11
102.398521000
 21
-1213.046906000
 31
0.000000000
  0
LINE
  5
ACD
330
A02
100
AcDbEntity
  8
Fusion
100
AcDbLine
 10
102.398521000
 20
-1213.046906000
 30
0.000000000
 11
51.437984000
 21
-1207.554169000
 31
0.000000000
  0
LINE
  5
ACE
330
A02
100
AcDbEntity
  8
Fusion
100
AcDbLine
 10
51.437984000
 20
-1207.554169000
 30
0.000000000
 11
11.157810000
 21
-1200.535645000
 31
0.000000000
  0
LINE
  5
ACF
330
A02
100
AcDbEntity
  8
Fusion
100
AcDbLine
 10
11.157810000
 20
-1200.535645000
 30
0.000000000
 11
-34.615112000
 21
-1191.075897000
 31
0.000000000
  0
LINE
  5
AD0
330
A02
100
AcDbEntity
  8
Fusion
100
AcDbLine
 10
-34.615112000
 20
-1191.075897000
 30
0.000000000
 11
-76.811386000
 21
-1180.665283000
 31
0.000000000
  0
LINE
  5
AD1
330
A02
100
AcDbEntity
  8
Fusion
100
AcDbLine
 10
-76.811386000
 20
-1180.665283000
 30
0.000000000
 11
-125.635841000
 21
-1165.407654000
 31
0.000000000
  0
LINE
  5
AD2
330
A02
100
AcDbEntity
  8
Fusion
100
AcDbLine
 10
-125.635841000
 20
-1165.407654000
 30
0.000000000
 11
-163.779938000
 21
-1150.760315000
 31
0.000000000
  0
LINE
  5
AD3
330
A02
100
AcDbEntity
  8
Fusion
100
AcDbLine
 10
-163.779938000
 20
-1150.760315000
 30
0.000000000
 11
-208.779663000
 21
-1132.678345000
 31
0.000000000
  0
LINE
  5
AD4
330
A02
100
AcDbEntity
  8
Fusion
100
AcDbLine
 10
-208.779663000
 20
-1132.678345000
 30
0.000000000
 11
-261.876251000
 21
-1110.097015000
 31
0.000000000
  0
LINE
  5
AD5
330
A02
100
AcDbEntity
  8
Fusion
100
AcDbLine
 10
-261.876251000
 20
-1110.097015000
 30
0.000000000
 11
-302.156433000
 21
-1089.041473000
 31
0.000000000
  0
LINE
  5
AD6
330
A02
100
AcDbEntity
  8
Fusion
100
AcDbLine
 10
-302.156433000
 20
-1089.041473000
 30
0.000000000
 11
-340.713837000
 21
-1067.909821000
 31
0.000000000
  0
LINE
  5
AD7
330
A02
100
AcDbEntity
  8
Fusion
100
AcDbLine
 10
-340.713837000
 20
-1067.909821000
 30
0.000000000
 11
-385.266144000
 21
-1040.751221000
 31
0.000000000
  0
LINE
  5
AD8
330
A02
100
AcDbEntity
  8
Fusion
100
AcDbLine
 10
-385.266144000
 20
-1040.751221000
 30
0.000000000
 11
-420.479462000
 21
-1014.110245000
 31
0.000000000
  0
LINE
  5
AD9
330
A02
100
AcDbEntity
  8
Fusion
100
AcDbLine
 10
-420.479462000
 20
-1014.110245000
 30
0.000000000
 11
-450.384430000
 21
-988.477402000
 31
0.000000000
  0
LINE
  5
ADA
330
A02
100
AcDbEntity
  8
Fusion
100
AcDbLine
 10
-450.384430000
 20
-988.477402000
 30
0.000000000
 11
-483.340942000
 21
-958.877579000
 31
0.000000000
  0
LINE
  5
ADB
330
A02
100
AcDbEntity
  8
Fusion
100
AcDbLine
 10
-483.340942000
 20
-958.877579000
 30
0.000000000
 11
-512.940796000
 21
-924.700447000
 31
0.000000000
  0
LINE
  5
ADC
330
A02
100
AcDbEntity
  8
Fusion
100
AcDbLine
 10
-512.940796000
 20
-924.700447000
 30
0.000000000
 11
-534.911804000
 21
-898.152161000
 31
0.000000000
  0
LINE
  5
ADD
330
A02
100
AcDbEntity
  8
Fusion
100
AcDbLine
 10
-534.911804000
 20
-898.152161000
 30
0.000000000
 11
-549.935364000
 21
-874.809841000
 31
0.000000000
  0
LINE
  5
ADE
330
A02
100
AcDbEntity
  8
Fusion
100
AcDbLine
 10
-549.935364000
 20
-874.809841000
 30
0.000000000
 11
-565.193054000
 21
-846.430630000
 31
0.000000000
  0
LINE
  5
ADF
330
A02
100
AcDbEntity
  8
Fusion
100
AcDbLine
 10
-565.193054000
 20
-846.430630000
 30
0.000000000
 11
-575.263062000
 21
-825.375084000
 31
0.000000000
  0
LINE
  5
AE0
330
A02
100
AcDbEntity
  8
Fusion
100
AcDbLine
 10
-575.263062000
 20
-825.375084000
 30
0.000000000
 11
-582.891907000
 21
-799.437096000
 31
0.000000000
  0
LINE
  5
AE1
330
A02
100
AcDbEntity
  8
Fusion
100
AcDbLine
 10
-582.891907000
 20
-799.437096000
 30
0.000000000
 11
-587.469177000
 21
-774.719711000
 31
0.000000000
  0
LINE
  5
AE2
330
A02
100
AcDbEntity
  8
Fusion
100
AcDbLine
 10
-587.469177000
 20
-774.719711000
 30
0.000000000
 11
-589.308716000
 21
-753.547386000
 31
0.000000000
  0
LINE
  5
AE3
330
A02
100
AcDbEntity
  8
Fusion
100
AcDbLine
 10
-589.308716000
 20
-753.547386000
 30
0.000000000
 11
-588.088135000
 21
-730.050613000
 31
0.000000000
  0
LINE
  5
AE4
330
A02
100
AcDbEntity
  8
Fusion
100
AcDbLine
 10
-588.088135000
 20
-730.050613000
 30
0.000000000
 11
-585.646912000
 21
-710.215675000
 31
0.000000000
  0
LINE
  5
AE5
330
A02
100
AcDbEntity
  8
Fusion
100
AcDbLine
 10
-585.646912000
 20
-710.215675000
 30
0.000000000
 11
-579.695312000
 21
-683.267654000
 31
0.000000000
  0
LINE
  5
AE6
330
A02
100
AcDbEntity
  8
Fusion001
100
AcDbLine
 10
333.571259000
 20
128.994705000
 30
0.000000000
 11
334.547248036
 21
133.895718524
 31
0.000000000
  0
LINE
  5
AE7
330
A02
100
AcDbEntity
  8
Fusion001
100
AcDbLine
 10
332.112884877
 20
124.431110311
 30
0.000000000
 11
333.571259000
 21
128.994705000
 31
0.000000000
  0
LINE
  5
AE8
330
A02
100
AcDbEntity
  8
Fusion001
100
AcDbLine
 10
330.071100749
 20
119.869892296
 30
0.000000000
 11
332.112884877
 21
124.431110311
 31
0.000000000
  0
LINE
  5
AE9
330
A02
100
AcDbEntity
  8
Fusion001
100
AcDbLine
 10
327.538768310
 20
115.561417416
 30
0.000000000
 11
330.071100749
 21
119.869892296
 31
0.000000000
  0
LINE
  5
AEA
330
A02
100
AcDbEntity
  8
Fusion001
100
AcDbLine
 10
324.568003310
 20
111.542355925
 30
0.000000000
 11
327.538768310
 21
115.561417416
 31
0.000000000
  0
LINE
  5
AEB
330
A02
100
AcDbEntity
  8
Fusion001
100
AcDbLine
 10
321.215570616
 20
107.835292860
 30
0.000000000
 11
324.568003310
 21
111.542355925
 31
0.000000000
  0
LINE
  5
AEC
330
A02
100
AcDbEntity
  8
Fusion001
100
AcDbLine
 10
317.537760575
 20
104.450392059
 30
0.000000000
 11
321.215570616
 21
107.835292860
 31
0.000000000
  0
LINE
  5
AED
330
A02
100
AcDbEntity
  8
Fusion001
100
AcDbLine
 10
313.586938542
 20
101.388155546
 30
0.000000000
 11
317.537760575
 21
104.450392059
 31
0.000000000
  0
LINE
  5
AEE
330
A02
100
AcDbEntity
  8
Fusion001
100
AcDbLine
 10
309.409748764
 20
98.642344205
 30
0.000000000
 11
313.586938542
 21
101.388155546
 31
0.000000000
  0
LINE
  5
AEF
330
A02
100
AcDbEntity
  8
Fusion001
100
AcDbLine
 10
305.046566745
 20
96.202507922
 30
0.000000000
 11
309.409748764
 21
98.642344205
 31
0.000000000
  0
LINE
  5
AF0
330
A02
100
AcDbEntity
  8
Fusion001
100
AcDbLine
 10
300.531725508
 20
94.055924820
 30
0.000000000
 11
305.046566745
 21
96.202507922
 31
0.000000000
  0
LINE
  5
AF1
330
A02
100
AcDbEntity
  8
Fusion001
100
AcDbLine
 10
295.894134271
 20
92.188964187
 30
0.000000000
 11
300.531725508
 21
94.055924820
 31
0.000000000
  0
LINE
  5
AF2
330
A02
100
AcDbEntity
  8
Fusion001
100
AcDbLine
 10
291.158038440
 20
90.587979379
 30
0.000000000
 11
295.894134271
 21
92.188964187
 31
0.000000000
  0
LINE
  5
AF3
330
A02
100
AcDbEntity
  8
Fusion001
100
AcDbLine
 10
286.343778875
 20
89.239854327
 30
0.000000000
 11
291.158038440
 21
90.587979379
 31
0.000000000
  0
LINE
  5
AF4
330
A02
100
AcDbEntity
  8
Fusion001
100
AcDbLine
 10
281.468482133
 20
88.132311210
 30
0.000000000
 11
286.343778875
 21
89.239854327
 31
0.000000000
  0
LINE
  5
AF5
330
A02
100
AcDbEntity
  8
Fusion001
100
AcDbLine
 10
276.546656926
 20
87.254061516
 30
0.000000000
 11
281.468482133
 21
88.132311210
 31
0.000000000
  0
LINE
  5
AF6
330
A02
100
AcDbEntity
  8
Fusion001
100
AcDbLine
 10
271.590695021
 20
86.594858858
 30
0.000000000
 11
276.546656926
 21
87.254061516
 31
0.000000000
  0
LINE
  5
AF7
330
A02
100
AcDbEntity
  8
Fusion001
100
AcDbLine
 10
266.611285375
 20
86.145493000
 30
0.000000000
 11
271.590695021
 21
86.594858858
 31
0.000000000
  0
LINE
  5
AF8
330
A02
100
AcDbEntity
  8
Fusion001
100
AcDbLine
 10
261.617754103
 20
85.897750945
 30
0.000000000
 11
266.611285375
 21
86.145493000
 31
0.000000000
  0
LINE
  5
AF9
330
A02
100
AcDbEntity
  8
Fusion001
100
AcDbLine
 10
256.618343242
 20
85.844361478
 30
0.000000000
 11
261.617754103
 21
85.897750945
 31
0.000000000
  0
LINE
  5
AFA
330
A02
100
AcDbEntity
  8
Fusion001
100
AcDbLine
 10
251.620440158
 20
85.978933331
 30
0.000000000
 11
256.618343242
 21
85.844361478
 31
0.000000000
  0
LINE
  5
AFB
330
A02
100
AcDbEntity
  8
Fusion001
100
AcDbLine
 10
246.630767805
 20
86.295893038
 30
0.000000000
 11
251.620440158
 21
85.978933331
 31
0.000000000
  0
LINE
  5
AFC
330
A02
100
AcDbEntity
  8
Fusion001
100
AcDbLine
 10
241.655544372
 20
86.790425975
 30
0.000000000
 11
246.630767805
 21
86.295893038
 31
0.000000000
  0
LINE
  5
AFD
330
A02
100
AcDbEntity
  8
Fusion001
100
AcDbLine
 10
236.700619387
 20
87.458422424
 30
0.000000000
 11
241.655544372
 21
86.790425975
 31
0.000000000
  0
LINE
  5
AFE
330
A02
100
AcDbEntity
  8
Fusion001
100
AcDbLine
 10
231.771592076
 20
88.296429484
 30
0.000000000
 11
236.700619387
 21
87.458422424
 31
0.000000000
  0
LINE
  5
AFF
330
A02
100
AcDbEntity
  8
Fusion001
100
AcDbLine
 10
226.873916849
 20
89.301609071
 30
0.000000000
 11
231.771592076
 21
88.296429484
 31
0.000000000
  0
LINE
  5
B00
330
A02
100
AcDbEntity
  8
Fusion001
100
AcDbLine
 10
222.012999971
 20
90.471701815
 30
0.000000000
 11
226.873916849
 21
89.301609071
 31
0.000000000
  0
LINE
  5
B01
330
A02
100
AcDbEntity
  8
Fusion001
100
AcDbLine
 10
217.194291025
 20
91.804996477
 30
0.000000000
 11
222.012999971
 21
90.471701815
 31
0.000000000
  0
LINE
  5
B02
330
A02
100
AcDbEntity
  8
Fusion001
100
AcDbLine
 10
212.423372348
 20
93.300304317
 30
0.000000000
 11
217.194291025
 21
91.804996477
 31
0.000000000
  0
LINE
  5
B03
330
A02
100
AcDbEntity
  8
Fusion001
100
AcDbLine
 10
207.706049474
 20
94.956937725
 30
0.000000000
 11
212.423372348
 21
93.300304317
 31
0.000000000
  0
LINE
  5
B04
330
A02
100
AcDbEntity
  8
Fusion001
100
AcDbLine
 10
203.048445574
 20
96.774692249
 30
0.000000000
 11
207.706049474
 21
94.956937725
 31
0.000000000
  0
LINE
  5
B05
330
A02
100
AcDbEntity
  8
Fusion001
100
AcDbLine
 10
198.457102934
 20
98.753830982
 30
0.000000000
 11
203.048445574
 21
96.774692249
 31
0.000000000
  0
LINE
  5
B06
330
A02
100
AcDbEntity
  8
Fusion001
100
AcDbLine
 10
193.939094789
 20
100.895069921
 30
0.000000000
 11
198.457102934
 21
98.753830982
 31
0.000000000
  0
LINE
  5
B07
330
A02
100
AcDbEntity
  8
Fusion001
100
AcDbLine
 10
189.502151130
 20
103.199562493
 30
0.000000000
 11
193.939094789
 21
100.895069921
 31
0.000000000
  0
LINE
  5
B08
330
A02
100
AcDbEntity
  8
Fusion001
100
AcDbLine
 10
185.154802583
 20
105.668880755
 30
0.000000000
 11
189.502151130
 21
103.199562493
 31
0.000000000
  0
LINE
  5
B09
330
A02
100
AcDbEntity
  8
Fusion001
100
AcDbLine
 10
180.906546996
 20
108.304989770
 30
0.000000000
 11
185.154802583
 21
105.668880755
 31
0.000000000
  0
LINE
  5
B0A
330
A02
100
AcDbEntity
  8
Fusion001
100
AcDbLine
 10
176.768043975
 20
111.110210250
 30
0.000000000
 11
180.906546996
 21
108.304989770
 31
0.000000000
  0
LINE
  5
B0B
330
A02
100
AcDbEntity
  8
Fusion001
100
AcDbLine
 10
172.751343100
 20
114.087162384
 30
0.000000000
 11
176.768043975
 21
111.110210250
 31
0.000000000
  0
LINE
  5
B0C
330
A02
100
AcDbEntity
  8
Fusion001
100
AcDbLine
 10
168.870151794
 20
117.238680838
 30
0.000000000
 11
172.751343100
 21
114.087162384
 31
0.000000000
  0
LINE
  5
B0D
330
A02
100
AcDbEntity
  8
Fusion001
100
AcDbLine
 10
165.140148309
 20
120.567686579
 30
0.000000000
 11
168.870151794
 21
117.238680838
 31
0.000000000
  0
LINE
  5
B0E
330
A02
100
AcDbEntity
  8
Fusion001
100
AcDbLine
 10
161.579343372
 20
124.076995305
 30
0.000000000
 11
165.140148309
 21
120.567686579
 31
0.000000000
  0
LINE
  5
B0F
330
A02
100
AcDbEntity
  8
Fusion001
100
AcDbLine
 10
158.208489345
 20
127.769034369
 30
0.000000000
 11
161.579343372
 21
124.076995305
 31
0.000000000
  0
LINE
  5
B10
330
A02
100
AcDbEntity
  8
Fusion001
100
AcDbLine
 10
155.051526189
 20
131.645430084
 30
0.000000000
 11
158.208489345
 21
127.769034369
 31
0.000000000
  0
LINE
  5
B11
330
A02
100
AcDbEntity
  8
Fusion001
100
AcDbLine
 10
152.136035759
 20
135.706416007
 30
0.000000000
 11
155.051526189
 21
131.645430084
 31
0.000000000
  0
LINE
  5
B12
330
A02
100
AcDbEntity
  8
Fusion001
100
AcDbLine
 10
149.493645241
 20
139.950002866
 30
0.000000000
 11
152.136035759
 21
135.706416007
 31
0.000000000
  0
LINE
  5
B13
330
A02
100
AcDbEntity
  8
Fusion001
100
AcDbLine
 10
147.160271461
 20
144.370848970
 30
0.000000000
 11
149.493645241
 21
139.950002866
 31
0.000000000
  0
LINE
  5
B14
330
A02
100
AcDbEntity
  8
Fusion001
100
AcDbLine
 10
145.176026906
 20
148.958789851
 30
0.000000000
 11
147.160271461
 21
144.370848970
 31
0.000000000
  0
LINE
  5
B15
330
A02
100
AcDbEntity
  8
Fusion001
100
AcDbLine
 10
143.584521724
 20
153.697050301
 30
0.000000000
 11
145.176026906
 21
148.958789851
 31
0.000000000
  0
LINE
  5
B16
330
A02
100
AcDbEntity
  8
Fusion001
100
AcDbLine
 10
142.431223992
 20
158.560300213
 30
0.000000000
 11
143.584521724
 21
153.697050301
 31
0.000000000
  0
LINE
  5
B17
330
A02
100
AcDbEntity
  8
Fusion001
100
AcDbLine
 10
141.760554951
 20
163.512943553
 30
0.000000000
 11
142.431223992
 21
158.560300213
 31
0.000000000
  0
LINE
  5
B18
330
A02
100
AcDbEntity
  8
Fusion001
100
AcDbLine
 10
141.611610658
 20
168.508304415
 30
0.000000000
 11
141.760554951
 21
163.512943553
 31
0.000000000
  0
LINE
  5
B19
330
A02
100
AcDbEntity
  8
Fusion001
100
AcDbLine
 10
142.012907653
 20
173.489534922
 30
0.000000000
 11
141.611610658
 21
168.508304415
 31
0.000000000
  0
LINE
  5
B1A
330
A02
100
AcDbEntity
  8
Fusion001
100
AcDbLine
 10
142.977260366
 20
178.392852661
 30
0.000000000
 11
142.012907653
 21
173.489534922
 31
0.000000000
  0
LINE
  5
B1B
330
A02
100
AcDbEntity
  8
Fusion001
100
AcDbLine
 10
144.498410386
 20
183.152955438
 30
0.000000000
 11
142.977260366
 21
178.392852661
 31
0.000000000
  0
LINE
  5
B1C
330
A02
100
AcDbEntity
  8
Fusion001
100
AcDbLine
 10
146.550796270
 20
187.709416652
 30
0.000000000
 11
144.498410386
 21
183.152955438
 31
0.000000000
  0
LINE
  5
B1D
330
A02
100
AcDbEntity
  8
Fusion001
100
AcDbLine
 10
149.092740945
 20
192.012233264
 30
0.000000000
 11
146.550796270
 21
187.709416652
 31
0.000000000
  0
LINE
  5
B1E
330
A02
100
AcDbEntity
  8
Fusion001
100
AcDbLine
 10
152.071972294
 20
196.025030062
 30
0.000000000
 11
149.092740945
 21
192.012233264
 31
0.000000000
  0
LINE
  5
B1F
330
A02
100
AcDbEntity
  8
Fusion001
100
AcDbLine
 10
155.431688548
 20
199.725501143
 30
0.000000000
 11
152.071972294
 21
196.025030062
 31
0.000000000
  0
LINE
  5
B20
330
A02
100
AcDbEntity
  8
Fusion001
100
AcDbLine
 10
159.115651674
 20
203.103712134
 30
0.000000000
 11
155.431688548
 21
199.725501143
 31
0.000000000
  0
LINE
  5
B21
330
A02
100
AcDbEntity
  8
Fusion001
100
AcDbLine
 10
163.071601480
 20
206.159329160
 30
0.000000000
 11
159.115651674
 21
203.103712134
 31
0.000000000
  0
LINE
  5
B22
330
A02
100
AcDbEntity
  8
Fusion001
100
AcDbLine
 10
167.253021140
 20
208.898702052
 30
0.000000000
 11
163.071601480
 21
206.159329160
 31
0.000000000
  0
LINE
  5
B23
330
A02
100
AcDbEntity
  8
Fusion001
100
AcDbLine
 10
171.619664199
 20
211.332345377
 30
0.000000000
 11
167.253021140
 21
208.898702052
 31
0.000000000
  0
LINE
  5
B24
330
A02
100
AcDbEntity
  8
Fusion001
100
AcDbLine
 10
176.137316788
 20
213.473011748
 30
0.000000000
 11
171.619664199
 21
211.332345377
 31
0.000000000
  0
LINE
  5
B25
330
A02
100
AcDbEntity
  8
Fusion001
100
AcDbLine
 10
180.777173916
 20
215.334339844
 30
0.000000000
 11
176.137316788
 21
213.473011748
 31
0.000000000
  0
LINE
  5
B26
330
A02
100
AcDbEntity
  8
Fusion001
100
AcDbLine
 10
185.515078376
 20
216.929969886
 30
0.000000000
 11
180.777173916
 21
215.334339844
 31
0.000000000
  0
LINE
  5
B27
330
A02
100
AcDbEntity
  8
Fusion001
100
AcDbLine
 10
190.330762402
 20
218.273003074
 30
0.000000000
 11
185.515078376
 21
216.929969886
 31
0.000000000
  0
LINE
  5
B28
330
A02
100
AcDbEntity
  8
Fusion001
100
AcDbLine
 10
195.207159225
 20
219.375697896
 30
0.000000000
 11
190.330762402
 21
218.273003074
 31
0.000000000
  0
LINE
  5
B29
330
A02
100
AcDbEntity
  8
Fusion001
100
AcDbLine
 10
200.129808623
 20
220.249321605
 30
0.000000000
 11
195.207159225
 21
219.375697896
 31
0.000000000
  0
LINE
  5
B2A
330
A02
100
AcDbEntity
  8
Fusion001
100
AcDbLine
 10
205.086357924
 20
220.904098971
 30
0.000000000
 11
200.129808623
 21
220.249321605
 31
0.000000000
  0
LINE
  5
B2B
330
A02
100
AcDbEntity
  8
Fusion001
100
AcDbLine
 10
210.066149538
 20
221.349219151
 30
0.000000000
 11
205.086357924
 21
220.904098971
 31
0.000000000
  0
LINE
  5
B2C
330
A02
100
AcDbEntity
  8
Fusion001
100
AcDbLine
 10
215.059882379
 20
221.592875086
 30
0.000000000
 11
210.066149538
 21
221.349219151
 31
0.000000000
  0
LINE
  5
B2D
330
A02
100
AcDbEntity
  8
Fusion001
100
AcDbLine
 10
220.059334241
 20
221.642319174
 30
0.000000000
 11
215.059882379
 21
221.592875086
 31
0.000000000
  0
LINE
  5
B2E
330
A02
100
AcDbEntity
  8
Fusion001
100
AcDbLine
 10
225.057133290
 20
221.503925166
 30
0.000000000
 11
220.059334241
 21
221.642319174
 31
0.000000000
  0
LINE
  5
B2F
330
A02
100
AcDbEntity
  8
Fusion001
100
AcDbLine
 10
230.046568527
 20
221.183250265
 30
0.000000000
 11
225.057133290
 21
221.503925166
 31
0.000000000
  0
LINE
  5
B30
330
A02
100
AcDbEntity
  8
Fusion001
100
AcDbLine
 10
235.021430686
 20
220.685094003
 30
0.000000000
 11
230.046568527
 21
221.183250265
 31
0.000000000
  0
LINE
  5
B31
330
A02
100
AcDbEntity
  8
Fusion001
100
AcDbLine
 10
239.975876556
 20
220.013552065
 30
0.000000000
 11
235.021430686
 21
220.685094003
 31
0.000000000
  0
LINE
  5
B32
330
A02
100
AcDbEntity
  8
Fusion001
100
AcDbLine
 10
244.904310932
 20
219.172064242
 30
0.000000000
 11
239.975876556
 21
220.013552065
 31
0.000000000
  0
LINE
  5
B33
330
A02
100
AcDbEntity
  8
Fusion001
100
AcDbLine
 10
249.801281357
 20
218.163456315
 30
0.000000000
 11
244.904310932
 21
219.172064242
 31
0.000000000
  0
LINE
  5
B34
330
A02
100
AcDbEntity
  8
Fusion001
100
AcDbLine
 10
254.661381581
 20
216.989976038
 30
0.000000000
 11
249.801281357
 21
218.163456315
 31
0.000000000
  0
LINE
  5
B35
330
A02
100
AcDbEntity
  8
Fusion001
100
AcDbLine
 10
259.479160181
 20
215.653323611
 30
0.000000000
 11
254.661381581
 21
216.989976038
 31
0.000000000
  0
LINE
  5
B36
330
A02
100
AcDbEntity
  8
Fusion001
100
AcDbLine
 10
264.249031135
 20
214.154677216
 30
0.000000000
 11
259.479160181
 21
215.653323611
 31
0.000000000
  0
LINE
  5
B37
330
A02
100
AcDbEntity
  8
Fusion001
100
AcDbLine
 10
268.965183317
 20
212.494714309
 30
0.000000000
 11
264.249031135
 21
214.154677216
 31
0.000000000
  0
LINE
  5
B38
330
A02
100
AcDbEntity
  8
Fusion001
100
AcDbLine
 10
273.621485955
 20
210.673629530
 30
0.000000000
 11
268.965183317
 21
212.494714309
 31
0.000000000
  0
LINE
  5
B39
330
A02
100
AcDbEntity
  8
Fusion001
100
AcDbLine
 10
278.211386966
 20
208.691150279
 30
0.000000000
 11
273.621485955
 21
210.673629530
 31
0.000000000
  0
LINE
  5
B3A
330
A02
100
AcDbEntity
  8
Fusion001
100
AcDbLine
 10
282.727800871
 20
206.546551359
 30
0.000000000
 11
278.211386966
 21
208.691150279
 31
0.000000000
  0
LINE
  5
B3B
330
A02
100
AcDbEntity
  8
Fusion001
100
AcDbLine
 10
287.162982663
 20
204.238670486
 30
0.000000000
 11
282.727800871
 21
206.546551359
 31
0.000000000
  0
LINE
  5
B3C
330
A02
100
AcDbEntity
  8
Fusion001
100
AcDbLine
 10
291.508383504
 20
201.765927194
 30
0.000000000
 11
287.162982663
 21
204.238670486
 31
0.000000000
  0
LINE
  5
B3D
330
A02
100
AcDbEntity
  8
Fusion001
100
AcDbLine
 10
295.754483615
 20
199.126348639
 30
0.000000000
 11
291.508383504
 21
201.765927194
 31
0.000000000
  0
LINE
  5
B3E
330
A02
100
AcDbEntity
  8
Fusion001
100
AcDbLine
 10
299.890597108
 20
196.317607278
 30
0.000000000
 11
295.754483615
 21
199.126348639
 31
0.000000000
  0
LINE
  5
B3F
330
A02
100
AcDbEntity
  8
Fusion001
100
AcDbLine
 10
303.904643003
 20
193.337077506
 30
0.000000000
 11
299.890597108
 21
196.317607278
 31
0.000000000
  0
LINE
  5
B40
330
A02
100
AcDbEntity
  8
Fusion001
100
AcDbLine
 10
307.782876487
 20
190.181921400
 30
0.000000000
 11
303.904643003
 21
193.337077506
 31
0.000000000
  0
LINE
  5
B41
330
A02
100
AcDbEntity
  8
Fusion001
100
AcDbLine
 10
311.509574945
 20
186.849217968
 30
0.000000000
 11
307.782876487
 21
190.181921400
 31
0.000000000
  0
LINE
  5
B42
330
A02
100
AcDbEntity
  8
Fusion001
100
AcDbLine
 10
315.066675295
 20
183.336156299
 30
0.000000000
 11
311.509574945
 21
186.849217968
 31
0.000000000
  0
LINE
  5
B43
330
A02
100
AcDbEntity
  8
Fusion001
100
AcDbLine
 10
318.433363918
 20
179.640320891
 30
0.000000000
 11
315.066675295
 21
183.336156299
 31
0.000000000
  0
LINE
  5
B44
330
A02
100
AcDbEntity
  8
Fusion001
100
AcDbLine
 10
321.585630153
 20
175.760107506
 30
0.000000000
 11
318.433363918
 21
179.640320891
 31
0.000000000
  0
LINE
  5
B45
330
A02
100
AcDbEntity
  8
Fusion001
100
AcDbLine
 10
324.495812322
 20
171.695319188
 30
0.000000000
 11
321.585630153
 21
175.760107506
 31
0.000000000
  0
LINE
  5
B46
330
A02
100
AcDbEntity
  8
Fusion001
100
AcDbLine
 10
327.132196276
 20
167.448001920
 30
0.000000000
 11
324.495812322
 21
171.695319188
 31
0.000000000
  0
LINE
  5
B47
330
A02
100
AcDbEntity
  8
Fusion001
100
AcDbLine
 10
329.458775980
 20
163.023580964
 30
0.000000000
 11
327.132196276
 21
167.448001920
 31
0.000000000
  0
LINE
  5
B48
330
A02
100
AcDbEntity
  8
Fusion001
100
AcDbLine
 10
331.435356989
 20
158.432338352
 30
0.000000000
 11
329.458775980
 21
163.023580964
 31
0.000000000
  0
LINE
  5
B49
330
A02
100
AcDbEntity
  8
Fusion001
100
AcDbLine
 10
333.018270308
 20
153.691206335
 30
0.000000000
 11
331.435356989
 21
158.432338352
 31
0.000000000
  0
LINE
  5
B4A
330
A02
100
AcDbEntity
  8
Fusion001
100
AcDbLine
 10
334.162035317
 20
148.825711593
 30
0.000000000
 11
333.018270308
 21
153.691206335
 31
0.000000000
  0
LINE
  5
B4B
330
A02
100
AcDbEntity
  8
Fusion001
100
AcDbLine
 10
334.822293027
 20
143.871675358
 30
0.000000000
 11
334.162035317
 21
148.825711593
 31
0.000000000
  0
LINE
  5
B4C
330
A02
100
AcDbEntity
  8
Fusion001
100
AcDbLine
 10
334.960110877
 20
138.876000213
 30
0.000000000
 11
334.822293027
 21
143.871675358
 31
0.000000000
  0
LINE
  5
B4D
330
A02
100
AcDbEntity
  8
Fusion001
100
AcDbLine
 10
334.547248036
 20
133.895718524
 30
0.000000000
 11
334.960110877
 21
138.876000213
 31
0.000000000
  0
LINE
  5
B4E
330
A02
100
AcDbEntity
  8
Fusion001
100
AcDbLine
 10
-579.695312000
 20
136.732346000
 30
0.000000000
 11
-568.886597000
 21
161.704224000
 31
0.000000000
  0
LINE
  5
B4F
330
A02
100
AcDbEntity
  8
Fusion001
100
AcDbLine
 10
-568.886597000
 20
161.704224000
 30
0.000000000
 11
-550.623596000
 21
191.521393000
 31
0.000000000
  0
LINE
  5
B50
330
A02
100
AcDbEntity
  8
Fusion001
100
AcDbLine
 10
-550.623596000
 20
191.521393000
 30
0.000000000
 11
-529.378845000
 21
220.593109000
 31
0.000000000
  0
LINE
  5
B51
330
A02
100
AcDbEntity
  8
Fusion001
100
AcDbLine
 10
-529.378845000
 20
220.593109000
 30
0.000000000
 11
-501.425293000
 21
249.664856000
 31
0.000000000
  0
LINE
  5
B52
330
A02
100
AcDbEntity
  8
Fusion001
100
AcDbLine
 10
-501.425293000
 20
249.664856000
 30
0.000000000
 11
-467.508270000
 21
277.991150000
 31
0.000000000
  0
LINE
  5
B53
330
A02
100
AcDbEntity
  8
Fusion001
100
AcDbLine
 10
-467.508270000
 20
277.991150000
 30
0.000000000
 11
-432.845825000
 21
299.608612000
 31
0.000000000
  0
LINE
  5
B54
330
A02
100
AcDbEntity
  8
Fusion001
100
AcDbLine
 10
-432.845825000
 20
299.608612000
 30
0.000000000
 11
-393.532837000
 21
320.629242000
 31
0.000000000
  0
LINE
  5
B55
330
A02
100
AcDbEntity
  8
Fusion001
100
AcDbLine
 10
-393.532837000
 20
320.629242000
 30
0.000000000
 11
-335.016663000
 21
345.601105000
 31
0.000000000
  0
LINE
  5
B56
330
A02
100
AcDbEntity
  8
Fusion001
100
AcDbLine
 10
-335.016663000
 20
345.601105000
 30
0.000000000
 11
-278.736755000
 21
362.373260000
 31
0.000000000
  0
LINE
  5
B57
330
A02
100
AcDbEntity
  8
Fusion001
100
AcDbLine
 10
-278.736755000
 20
362.373260000
 30
0.000000000
 11
-235.874603000
 21
371.691132000
 31
0.000000000
  0
LINE
  5
B58
330
A02
100
AcDbEntity
  8
Fusion001
100
AcDbLine
 10
-235.874603000
 20
371.691132000
 30
0.000000000
 11
-196.586166000
 21
378.808136000
 31
0.000000000
  0
LINE
  5
B59
330
A02
100
AcDbEntity
  8
Fusion001
100
AcDbLine
 10
-196.586166000
 20
378.808136000
 30
0.000000000
 11
-145.524292000
 21
384.771576000
 31
0.000000000
  0
LINE
  5
B5A
330
A02
100
AcDbEntity
  8
Fusion001
100
AcDbLine
 10
-145.524292000
 20
384.771576000
 30
0.000000000
 11
-95.207817000
 21
388.498718000
 31
0.000000000
  0
LINE
  5
B5B
330
A02
100
AcDbEntity
  8
Fusion001
100
AcDbLine
 10
-95.207817000
 20
388.498718000
 30
0.000000000
 11
-53.091095000
 21
388.498718000
 31
0.000000000
  0
LINE
  5
B5C
330
A02
100
AcDbEntity
  8
Fusion001
100
AcDbLine
 10
-53.091095000
 20
388.498718000
 30
0.000000000
 11
-20.145432000
 21
388.498718000
 31
0.000000000
  0
LINE
  5
B5D
330
A02
100
AcDbEntity
  8
Fusion001
100
AcDbLine
 10
-20.145432000
 20
388.498718000
 30
0.000000000
 11
30.171043000
 21
385.540009000
 31
0.000000000
  0
LINE
  5
B5E
330
A02
100
AcDbEntity
  8
Fusion001
100
AcDbLine
 10
30.171043000
 20
385.540009000
 30
0.000000000
 11
90.923492000
 21
377.340271000
 31
0.000000000
  0
LINE
  5
B5F
330
A02
100
AcDbEntity
  8
Fusion001
100
AcDbLine
 10
90.923492000
 20
377.340271000
 30
0.000000000
 11
139.376373000
 21
368.767822000
 31
0.000000000
  0
LINE
  5
B60
330
A02
100
AcDbEntity
  8
Fusion001
100
AcDbLine
 10
139.376373000
 20
368.767822000
 30
0.000000000
 11
178.511429000
 21
359.822693000
 31
0.000000000
  0
LINE
  5
B61
330
A02
100
AcDbEntity
  8
Fusion001
100
AcDbLine
 10
178.511429000
 20
359.822693000
 30
0.000000000
 11
218.202362000
 21
349.354919000
 31
0.000000000
  0
LINE
  5
B62
330
A02
100
AcDbEntity
  8
Fusion001
100
AcDbLine
 10
218.202362000
 20
349.354919000
 30
0.000000000
 11
260.691803000
 21
335.937164000
 31
0.000000000
  0
LINE
  5
B63
330
A02
100
AcDbEntity
  8
Fusion001
100
AcDbLine
 10
260.691803000
 20
335.937164000
 30
0.000000000
 11
300.944977000
 21
321.401306000
 31
0.000000000
  0
LINE
  5
B64
330
A02
100
AcDbEntity
  8
Fusion001
100
AcDbLine
 10
300.944977000
 20
321.401306000
 30
0.000000000
 11
343.807129000
 21
303.138306000
 31
0.000000000
  0
LINE
  5
B65
330
A02
100
AcDbEntity
  8
Fusion001
100
AcDbLine
 10
343.807129000
 20
303.138306000
 30
0.000000000
 11
377.527649000
 21
286.625671000
 31
0.000000000
  0
LINE
  5
B66
330
A02
100
AcDbEntity
  8
Fusion001
100
AcDbLine
 10
377.527649000
 20
286.625671000
 30
0.000000000
 11
412.935547000
 21
265.008209000
 31
0.000000000
  0
LINE
  5
B67
330
A02
100
AcDbEntity
  8
Fusion001
100
AcDbLine
 10
412.935547000
 20
265.008209000
 30
0.000000000
 11
436.789276000
 21
247.863358000
 31
0.000000000
  0
LINE
  5
B68
330
A02
100
AcDbEntity
  8
Fusion001
100
AcDbLine
 10
436.789276000
 20
247.863358000
 30
0.000000000
 11
454.306854000
 21
233.327484000
 31
0.000000000
  0
LINE
  5
B69
330
A02
100
AcDbEntity
  8
Fusion001
100
AcDbLine
 10
454.306854000
 20
233.327484000
 30
0.000000000
 11
466.846710000
 21
221.178833000
 31
0.000000000
  0
LINE
  5
B6A
330
A02
100
AcDbEntity
  8
Fusion001
100
AcDbLine
 10
466.846710000
 20
221.178833000
 30
0.000000000
 11
480.551575000
 21
203.792068000
 31
0.000000000
  0
LINE
  5
B6B
330
A02
100
AcDbEntity
  8
Fusion001
100
AcDbLine
 10
480.551575000
 20
203.792068000
 30
0.000000000
 11
488.733582000
 21
191.519073000
 31
0.000000000
  0
LINE
  5
B6C
330
A02
100
AcDbEntity
  8
Fusion001
100
AcDbLine
 10
488.733582000
 20
191.519073000
 30
0.000000000
 11
494.665527000
 21
177.609665000
 31
0.000000000
  0
LINE
  5
B6D
330
A02
100
AcDbEntity
  8
Fusion001
100
AcDbLine
 10
494.665527000
 20
177.609665000
 30
0.000000000
 11
499.779266000
 21
160.018356000
 31
0.000000000
  0
LINE
  5
B6E
330
A02
100
AcDbEntity
  8
Fusion001
100
AcDbLine
 10
499.779266000
 20
160.018356000
 30
0.000000000
 11
501.415680000
 21
148.563553000
 31
0.000000000
  0
LINE
  5
B6F
330
A02
100
AcDbEntity
  8
Fusion001
100
AcDbLine
 10
501.415680000
 20
148.563553000
 30
0.000000000
 11
501.415680000
 21
133.338470000
 31
0.000000000
  0
LINE
  5
B70
330
A02
100
AcDbEntity
  8
Fusion001
100
AcDbLine
 10
501.415680000
 20
133.338470000
 30
0.000000000
 11
499.175812000
 21
120.860916000
 31
0.000000000
  0
LINE
  5
B71
330
A02
100
AcDbEntity
  8
Fusion001
100
AcDbLine
 10
499.175812000
 20
120.860916000
 30
0.000000000
 11
494.062073000
 21
107.156059000
 31
0.000000000
  0
LINE
  5
B72
330
A02
100
AcDbEntity
  8
Fusion001
100
AcDbLine
 10
494.062073000
 20
107.156059000
 30
0.000000000
 11
486.698273000
 21
95.905807000
 31
0.000000000
  0
LINE
  5
B73
330
A02
100
AcDbEntity
  8
Fusion001
100
AcDbLine
 10
486.698273000
 20
95.905807000
 30
0.000000000
 11
477.084412000
 21
85.064651000
 31
0.000000000
  0
LINE
  5
B74
330
A02
100
AcDbEntity
  8
Fusion001
100
AcDbLine
 10
477.084412000
 20
85.064651000
 30
0.000000000
 11
466.447815000
 21
76.473549000
 31
0.000000000
  0
LINE
  5
B75
330
A02
100
AcDbEntity
  8
Fusion001
100
AcDbLine
 10
466.447815000
 20
76.473549000
 30
0.000000000
 11
451.515656000
 21
67.064247000
 31
0.000000000
  0
LINE
  5
B76
330
A02
100
AcDbEntity
  8
Fusion001
100
AcDbLine
 10
451.515656000
 20
67.064247000
 30
0.000000000
 11
435.969849000
 21
58.882240000
 31
0.000000000
  0
LINE
  5
B77
330
A02
100
AcDbEntity
  8
Fusion001
100
AcDbLine
 10
435.969849000
 20
58.882240000
 30
0.000000000
 11
420.578613000
 21
53.291233000
 31
0.000000000
  0
LINE
  5
B78
330
A02
100
AcDbEntity
  8
Fusion001
100
AcDbLine
 10
420.578613000
 20
53.291233000
 30
0.000000000
 11
402.987305000
 21
45.518326000
 31
0.000000000
  0
LINE
  5
B79
330
A02
100
AcDbEntity
  8
Fusion001
100
AcDbLine
 10
402.987305000
 20
45.518326000
 30
0.000000000
 11
383.350494000
 21
36.927227000
 31
0.000000000
  0
LINE
  5
B7A
330
A02
100
AcDbEntity
  8
Fusion001
100
AcDbLine
 10
383.350494000
 20
36.927227000
 30
0.000000000
 11
369.441101000
 21
28.745224000
 31
0.000000000
  0
LINE
  5
B7B
330
A02
100
AcDbEntity
  8
Fusion001
100
AcDbLine
 10
369.441101000
 20
28.745224000
 30
0.000000000
 11
355.940796000
 21
17.904070000
 31
0.000000000
  0
LINE
  5
B7C
330
A02
100
AcDbEntity
  8
Fusion001
100
AcDbLine
 10
355.940796000
 20
17.904070000
 30
0.000000000
 11
345.672913000
 21
6.983109000
 31
0.000000000
  0
LINE
  5
B7D
330
A02
100
AcDbEntity
  8
Fusion001
100
AcDbLine
 10
345.672913000
 20
6.983109000
 30
0.000000000
 11
337.695465000
 21
-5.289896000
 31
0.000000000
  0
LINE
  5
B7E
330
A02
100
AcDbEntity
  8
Fusion001
100
AcDbLine
 10
337.695465000
 20
-5.289896000
 30
0.000000000
 11
332.786255000
 21
-17.358347000
 31
0.000000000
  0
LINE
  5
B7F
330
A02
100
AcDbEntity
  8
Fusion001
100
AcDbLine
 10
332.786255000
 20
-17.358347000
 30
0.000000000
 11
330.536224000
 21
-30.245003000
 31
0.000000000
  0
LINE
  5
B80
330
A02
100
AcDbEntity
  8
Fusion001
100
AcDbLine
 10
330.536224000
 20
-30.245003000
 30
0.000000000
 11
330.536224000
 21
-43.812485000
 31
0.000000000
  0
LINE
  5
B81
330
A02
100
AcDbEntity
  8
Fusion001
100
AcDbLine
 10
330.536224000
 20
-43.812485000
 30
0.000000000
 11
332.982544000
 21
-57.517342000
 31
0.000000000
  0
LINE
  5
B82
330
A02
100
AcDbEntity
  8
Fusion001
100
AcDbLine
 10
332.982544000
 20
-57.517342000
 30
0.000000000
 11
337.687195000
 21
-69.585800000
 31
0.000000000
  0
LINE
  5
B83
330
A02
100
AcDbEntity
  8
Fusion001
100
AcDbLine
 10
337.687195000
 20
-69.585800000
 30
0.000000000
 11
344.028259000
 21
-81.245148000
 31
0.000000000
  0
LINE
  5
B84
330
A02
100
AcDbEntity
  8
Fusion001
100
AcDbLine
 10
344.028259000
 20
-81.245148000
 30
0.000000000
 11
352.633392000
 21
-92.559288000
 31
0.000000000
  0
LINE
  5
B85
330
A02
100
AcDbEntity
  8
Fusion001
100
AcDbLine
 10
352.633392000
 20
-92.559288000
 30
0.000000000
 11
362.247253000
 21
-101.354942000
 31
0.000000000
  0
LINE
  5
B86
330
A02
100
AcDbEntity
  8
Fusion001
100
AcDbLine
 10
362.247253000
 20
-101.354942000
 30
0.000000000
 11
372.270203000
 21
-108.105095000
 31
0.000000000
  0
LINE
  5
B87
330
A02
100
AcDbEntity
  8
Fusion001
100
AcDbLine
 10
372.270203000
 20
-108.105095000
 30
0.000000000
 11
382.702240000
 21
-114.037041000
 31
0.000000000
  0
LINE
  5
B88
330
A02
100
AcDbEntity
  8
Fusion001
100
AcDbLine
 10
382.702240000
 20
-114.037041000
 30
0.000000000
 11
394.157043000
 21
-118.128044000
 31
0.000000000
  0
LINE
  5
B89
330
A02
100
AcDbEntity
  8
Fusion001
100
AcDbLine
 10
394.157043000
 20
-118.128044000
 30
0.000000000
 11
409.907410000
 21
-121.605400000
 31
0.000000000
  0
LINE
  5
B8A
330
A02
100
AcDbEntity
  8
Fusion001
100
AcDbLine
 10
409.907410000
 20
-121.605400000
 30
0.000000000
 11
424.635010000
 21
-123.446350000
 31
0.000000000
  0
LINE
  5
B8B
330
A02
100
AcDbEntity
  8
Fusion001
100
AcDbLine
 10
424.635010000
 20
-123.446350000
 30
0.000000000
 11
439.214203000
 21
-124.708755000
 31
0.000000000
  0
LINE
  5
B8C
330
A02
100
AcDbEntity
  8
Fusion001
100
AcDbLine
 10
439.214203000
 20
-124.708755000
 30
0.000000000
 11
454.350922000
 21
-126.345154000
 31
0.000000000
  0
LINE
  5
B8D
330
A02
100
AcDbEntity
  8
Fusion001
100
AcDbLine
 10
454.350922000
 20
-126.345154000
 30
0.000000000
 11
468.260315000
 21
-128.390656000
 31
0.000000000
  0
LINE
  5
B8E
330
A02
100
AcDbEntity
  8
Fusion001
100
AcDbLine
 10
468.260315000
 20
-128.390656000
 30
0.000000000
 11
484.853271000
 21
-131.446320000
 31
0.000000000
  0
LINE
  5
B8F
330
A02
100
AcDbEntity
  8
Fusion001
100
AcDbLine
 10
484.853271000
 20
-131.446320000
 30
0.000000000
 11
498.753387000
 21
-135.130692000
 31
0.000000000
  0
LINE
  5
B90
330
A02
100
AcDbEntity
  8
Fusion001
100
AcDbLine
 10
498.753387000
 20
-135.130692000
 30
0.000000000
 11
514.663147000
 21
-140.154831000
 31
0.000000000
  0
LINE
  5
B91
330
A02
100
AcDbEntity
  8
Fusion001
100
AcDbLine
 10
514.663147000
 20
-140.154831000
 30
0.000000000
 11
529.400635000
 21
-146.686218000
 31
0.000000000
  0
LINE
  5
B92
330
A02
100
AcDbEntity
  8
Fusion001
100
AcDbLine
 10
529.400635000
 20
-146.686218000
 30
0.000000000
 11
544.873352000
 21
-155.943237000
 31
0.000000000
  0
LINE
  5
B93
330
A02
100
AcDbEntity
  8
Fusion001
100
AcDbLine
 10
544.873352000
 20
-155.943237000
 30
0.000000000
 11
555.089111000
 21
-163.981873000
 31
0.000000000
  0
LINE
  5
B94
330
A02
100
AcDbEntity
  8
Fusion001
100
AcDbLine
 10
555.089111000
 20
-163.981873000
 30
0.000000000
 11
564.132568000
 21
-174.867508000
 31
0.000000000
  0
LINE
  5
B95
330
A02
100
AcDbEntity
  8
Fusion001
100
AcDbLine
 10
564.132568000
 20
-174.867508000
 30
0.000000000
 11
570.848694000
 21
-184.794220000
 31
0.000000000
  0
LINE
  5
B96
330
A02
100
AcDbEntity
  8
Fusion001
100
AcDbLine
 10
570.848694000
 20
-184.794220000
 30
0.000000000
 11
574.365601000
 21
-196.014801000
 31
0.000000000
  0
LINE
  5
B97
330
A02
100
AcDbEntity
  8
Fusion001
100
AcDbLine
 10
574.365601000
 20
-196.014801000
 30
0.000000000
 11
575.537903000
 21
-206.398041000
 31
0.000000000
  0
LINE
  5
B98
330
A02
100
AcDbEntity
  8
Fusion001
100
AcDbLine
 10
575.537903000
 20
-206.398041000
 30
0.000000000
 11
576.040283000
 21
-214.101715000
 31
0.000000000
  0
LINE
  5
B99
330
A02
100
AcDbEntity
  8
Fusion001
100
AcDbLine
 10
576.040283000
 20
-214.101715000
 30
0.000000000
 11
576.040283000
 21
-221.302994000
 31
0.000000000
  0
LINE
  5
B9A
330
A02
100
AcDbEntity
  8
Fusion001
100
AcDbLine
 10
576.040283000
 20
-221.302994000
 30
0.000000000
 11
574.366394000
 21
-233.244324000
 31
0.000000000
  0
LINE
  5
B9B
330
A02
100
AcDbEntity
  8
Fusion001
100
AcDbLine
 10
574.366394000
 20
-233.244324000
 30
0.000000000
 11
571.184387000
 21
-242.455261000
 31
0.000000000
  0
LINE
  5
B9C
330
A02
100
AcDbEntity
  8
Fusion001
100
AcDbLine
 10
571.184387000
 20
-242.455261000
 30
0.000000000
 11
566.327759000
 21
-252.503555000
 31
0.000000000
  0
LINE
  5
B9D
330
A02
100
AcDbEntity
  8
Fusion001
100
AcDbLine
 10
566.327759000
 20
-252.503555000
 30
0.000000000
 11
557.111755000
 21
-266.621399000
 31
0.000000000
  0
LINE
  5
B9E
330
A02
100
AcDbEntity
  8
Fusion001
100
AcDbLine
 10
557.111755000
 20
-266.621399000
 30
0.000000000
 11
545.388733000
 21
-280.521545000
 31
0.000000000
  0
LINE
  5
B9F
330
A02
100
AcDbEntity
  8
Fusion001
100
AcDbLine
 10
545.388733000
 20
-280.521545000
 30
0.000000000
 11
530.510620000
 21
-294.580872000
 31
0.000000000
  0
LINE
  5
BA0
330
A02
100
AcDbEntity
  8
Fusion001
100
AcDbLine
 10
530.510620000
 20
-294.580872000
 30
0.000000000
 11
515.373901000
 21
-306.853882000
 31
0.000000000
  0
LINE
  5
BA1
330
A02
100
AcDbEntity
  8
Fusion001
100
AcDbLine
 10
515.373901000
 20
-306.853882000
 30
0.000000000
 11
490.623352000
 21
-323.217896000
 31
0.000000000
  0
LINE
  5
BA2
330
A02
100
AcDbEntity
  8
Fusion001
100
AcDbLine
 10
490.623352000
 20
-323.217896000
 30
0.000000000
 11
458.509003000
 21
-340.604645000
 31
0.000000000
  0
LINE
  5
BA3
330
A02
100
AcDbEntity
  8
Fusion001
100
AcDbLine
 10
458.509003000
 20
-340.604645000
 30
0.000000000
 11
426.803741000
 21
-353.900421000
 31
0.000000000
  0
LINE
  5
BA4
330
A02
100
AcDbEntity
  8
Fusion001
100
AcDbLine
 10
426.803741000
 20
-353.900421000
 30
0.000000000
 11
383.381439000
 21
-369.542999000
 31
0.000000000
  0
LINE
  5
BA5
330
A02
100
AcDbEntity
  8
Fusion001
100
AcDbLine
 10
383.381439000
 20
-369.542999000
 30
0.000000000
 11
344.016693000
 21
-379.613037000
 31
0.000000000
  0
LINE
  5
BA6
330
A02
100
AcDbEntity
  8
Fusion001
100
AcDbLine
 10
344.016693000
 20
-379.613037000
 30
0.000000000
 11
293.056183000
 21
-388.767609000
 31
0.000000000
  0
LINE
  5
BA7
330
A02
100
AcDbEntity
  8
Fusion001
100
AcDbLine
 10
293.056183000
 20
-388.767609000
 30
0.000000000
 11
242.400803000
 21
-393.955200000
 31
0.000000000
  0
LINE
  5
BA8
330
A02
100
AcDbEntity
  8
Fusion001
100
AcDbLine
 10
242.400803000
 20
-393.955200000
 30
0.000000000
 11
203.036102000
 21
-396.396454000
 31
0.000000000
  0
LINE
  5
BA9
330
A02
100
AcDbEntity
  8
Fusion001
100
AcDbLine
 10
203.036102000
 20
-396.396454000
 30
0.000000000
 11
147.561127000
 21
-396.396454000
 31
0.000000000
  0
LINE
  5
BAA
330
A02
100
AcDbEntity
  8
Fusion001
100
AcDbLine
 10
147.561127000
 20
-396.396454000
 30
0.000000000
 11
102.398521000
 21
-393.046906000
 31
0.000000000
  0
LINE
  5
BAB
330
A02
100
AcDbEntity
  8
Fusion001
100
AcDbLine
 10
102.398521000
 20
-393.046906000
 30
0.000000000
 11
51.437984000
 21
-387.554169000
 31
0.000000000
  0
LINE
  5
BAC
330
A02
100
AcDbEntity
  8
Fusion001
100
AcDbLine
 10
51.437984000
 20
-387.554169000
 30
0.000000000
 11
11.157810000
 21
-380.535645000
 31
0.000000000
  0
LINE
  5
BAD
330
A02
100
AcDbEntity
  8
Fusion001
100
AcDbLine
 10
11.157810000
 20
-380.535645000
 30
0.000000000
 11
-34.615112000
 21
-371.075897000
 31
0.000000000
  0
LINE
  5
BAE
330
A02
100
AcDbEntity
  8
Fusion001
100
AcDbLine
 10
-34.615112000
 20
-371.075897000
 30
0.000000000
 11
-76.811386000
 21
-360.665283000
 31
0.000000000
  0
LINE
  5
BAF
330
A02
100
AcDbEntity
  8
Fusion001
100
AcDbLine
 10
-76.811386000
 20
-360.665283000
 30
0.000000000
 11
-125.635841000
 21
-345.407654000
 31
0.000000000
  0
LINE
  5
BB0
330
A02
100
AcDbEntity
  8
Fusion001
100
AcDbLine
 10
-125.635841000
 20
-345.407654000
 30
0.000000000
 11
-163.779938000
 21
-330.760315000
 31
0.000000000
  0
LINE
  5
BB1
330
A02
100
AcDbEntity
  8
Fusion001
100
AcDbLine
 10
-163.779938000
 20
-330.760315000
 30
0.000000000
 11
-208.779663000
 21
-312.678345000
 31
0.000000000
  0
LINE
  5
BB2
330
A02
100
AcDbEntity
  8
Fusion001
100
AcDbLine
 10
-208.779663000
 20
-312.678345000
 30
0.000000000
 11
-261.876251000
 21
-290.097015000
 31
0.000000000
  0
LINE
  5
BB3
330
A02
100
AcDbEntity
  8
Fusion001
100
AcDbLine
 10
-261.876251000
 20
-290.097015000
 30
0.000000000
 11
-302.156433000
 21
-269.041473000
 31
0.000000000
  0
LINE
  5
BB4
330
A02
100
AcDbEntity
  8
Fusion001
100
AcDbLine
 10
-302.156433000
 20
-269.041473000
 30
0.000000000
 11
-340.713837000
 21
-247.909821000
 31
0.000000000
  0
LINE
  5
BB5
330
A02
100
AcDbEntity
  8
Fusion001
100
AcDbLine
 10
-340.713837000
 20
-247.909821000
 30
0.000000000
 11
-385.266144000
 21
-220.751221000
 31
0.000000000
  0
LINE
  5
BB6
330
A02
100
AcDbEntity
  8
Fusion001
100
AcDbLine
 10
-385.266144000
 20
-220.751221000
 30
0.000000000
 11
-420.479462000
 21
-194.110245000
 31
0.000000000
  0
LINE
  5
BB7
330
A02
100
AcDbEntity
  8
Fusion001
100
AcDbLine
 10
-420.479462000
 20
-194.110245000
 30
0.000000000
 11
-450.384430000
 21
-168.477402000
 31
0.000000000
  0
LINE
  5
BB8
330
A02
100
AcDbEntity
  8
Fusion001
100
AcDbLine
 10
-450.384430000
 20
-168.477402000
 30
0.000000000
 11
-483.340942000
 21
-138.877579000
 31
0.000000000
  0
LINE
  5
BB9
330
A02
100
AcDbEntity
  8
Fusion001
100
AcDbLine
 10
-483.340942000
 20
-138.877579000
 30
0.000000000
 11
-512.940796000
 21
-104.700447000
 31
0.000000000
  0
LINE
  5
BBA
330
A02
100
AcDbEntity
  8
Fusion001
100
AcDbLine
 10
-512.940796000
 20
-104.700447000
 30
0.000000000
 11
-534.911804000
 21
-78.152161000
 31
0.000000000
  0
LINE
  5
BBB
330
A02
100
AcDbEntity
  8
Fusion001
100
AcDbLine
 10
-534.911804000
 20
-78.152161000
 30
0.000000000
 11
-549.935364000
 21
-54.809841000
 31
0.000000000
  0
LINE
  5
BBC
330
A02
100
AcDbEntity
  8
Fusion001
100
AcDbLine
 10
-549.935364000
 20
-54.809841000
 30
0.000000000
 11
-565.193054000
 21
-26.430630000
 31
0.000000000
  0
LINE
  5
BBD
330
A02
100
AcDbEntity
  8
Fusion001
100
AcDbLine
 10
-565.193054000
 20
-26.430630000
 30
0.000000000
 11
-575.263062000
 21
-5.375084000
 31
0.000000000
  0
LINE
  5
BBE
330
A02
100
AcDbEntity
  8
Fusion001
100
AcDbLine
 10
-575.263062000
 20
-5.375084000
 30
0.000000000
 11
-582.891907000
 21
20.562904000
 31
0.000000000
  0
LINE
  5
BBF
330
A02
100
AcDbEntity
  8
Fusion001
100
AcDbLine
 10
-582.891907000
 20
20.562904000
 30
0.000000000
 11
-587.469177000
 21
45.280289000
 31
0.000000000
  0
LINE
  5
BC0
330
A02
100
AcDbEntity
  8
Fusion001
100
AcDbLine
 10
-587.469177000
 20
45.280289000
 30
0.000000000
 11
-589.308716000
 21
66.452614000
 31
0.000000000
  0
LINE
  5
BC1
330
A02
100
AcDbEntity
  8
Fusion001
100
AcDbLine
 10
-589.308716000
 20
66.452614000
 30
0.000000000
 11
-588.088135000
 21
89.949387000
 31
0.000000000
  0
LINE
  5
BC2
330
A02
100
AcDbEntity
  8
Fusion001
100
AcDbLine
 10
-588.088135000
 20
89.949387000
 30
0.000000000
 11
-585.646912000
 21
109.784325000
 31
0.000000000
  0
LINE
  5
BC3
330
A02
100
AcDbEntity
  8
Fusion001
100
AcDbLine
 10
-585.646912000
 20
109.784325000
 30
0.000000000
 11
-579.695312000
 21
136.732346000
 31
0.000000000
  0
LINE
  5
BC4
330
A02
100
AcDbEntity
  8
Fusion002
100
AcDbLine
 10
333.571259000
 20
948.994705000
 30
0.000000000
 11
334.547248036
 21
953.895718524
 31
0.000000000
  0
LINE
  5
BC5
330
A02
100
AcDbEntity
  8
Fusion002
100
AcDbLine
 10
332.112884877
 20
944.431110311
 30
0.000000000
 11
333.571259000
 21
948.994705000
 31
0.000000000
  0
LINE
  5
BC6
330
A02
100
AcDbEntity
  8
Fusion002
100
AcDbLine
 10
330.071100749
 20
939.869892296
 30
0.000000000
 11
332.112884877
 21
944.431110311
 31
0.000000000
  0
LINE
  5
BC7
330
A02
100
AcDbEntity
  8
Fusion002
100
AcDbLine
 10
327.538768310
 20
935.561417416
 30
0.000000000
 11
330.071100749
 21
939.869892296
 31
0.000000000
  0
LINE
  5
BC8
330
A02
100
AcDbEntity
  8
Fusion002
100
AcDbLine
 10
324.568003310
 20
931.542355925
 30
0.000000000
 11
327.538768310
 21
935.561417416
 31
0.000000000
  0
LINE
  5
BC9
330
A02
100
AcDbEntity
  8
Fusion002
100
AcDbLine
 10
321.215570616
 20
927.835292860
 30
0.000000000
 11
324.568003310
 21
931.542355925
 31
0.000000000
  0
LINE
  5
BCA
330
A02
100
AcDbEntity
  8
Fusion002
100
AcDbLine
 10
317.537760575
 20
924.450392059
 30
0.000000000
 11
321.215570616
 21
927.835292860
 31
0.000000000
  0
LINE
  5
BCB
330
A02
100
AcDbEntity
  8
Fusion002
100
AcDbLine
 10
313.586938542
 20
921.388155546
 30
0.000000000
 11
317.537760575
 21
924.450392059
 31
0.000000000
  0
LINE
  5
BCC
330
A02
100
AcDbEntity
  8
Fusion002
100
AcDbLine
 10
309.409748764
 20
918.642344205
 30
0.000000000
 11
313.586938542
 21
921.388155546
 31
0.000000000
  0
LINE
  5
BCD
330
A02
100
AcDbEntity
  8
Fusion002
100
AcDbLine
 10
305.046566745
 20
916.202507922
 30
0.000000000
 11
309.409748764
 21
918.642344205
 31
0.000000000
  0
LINE
  5
BCE
330
A02
100
AcDbEntity
  8
Fusion002
100
AcDbLine
 10
300.531725508
 20
914.055924820
 30
0.000000000
 11
305.046566745
 21
916.202507922
 31
0.000000000
  0
LINE
  5
BCF
330
A02
100
AcDbEntity
  8
Fusion002
100
AcDbLine
 10
295.894134271
 20
912.188964187
 30
0.000000000
 11
300.531725508
 21
914.055924820
 31
0.000000000
  0
LINE
  5
BD0
330
A02
100
AcDbEntity
  8
Fusion002
100
AcDbLine
 10
291.158038440
 20
910.587979379
 30
0.000000000
 11
295.894134271
 21
912.188964187
 31
0.000000000
  0
LINE
  5
BD1
330
A02
100
AcDbEntity
  8
Fusion002
100
AcDbLine
 10
286.343778875
 20
909.239854327
 30
0.000000000
 11
291.158038440
 21
910.587979379
 31
0.000000000
  0
LINE
  5
BD2
330
A02
100
AcDbEntity
  8
Fusion002
100
AcDbLine
 10
281.468482133
 20
908.132311210
 30
0.000000000
 11
286.343778875
 21
909.239854327
 31
0.000000000
  0
LINE
  5
BD3
330
A02
100
AcDbEntity
  8
Fusion002
100
AcDbLine
 10
276.546656926
 20
907.254061516
 30
0.000000000
 11
281.468482133
 21
908.132311210
 31
0.000000000
  0
LINE
  5
BD4
330
A02
100
AcDbEntity
  8
Fusion002
100
AcDbLine
 10
271.590695021
 20
906.594858858
 30
0.000000000
 11
276.546656926
 21
907.254061516
 31
0.000000000
  0
LINE
  5
BD5
330
A02
100
AcDbEntity
  8
Fusion002
100
AcDbLine
 10
266.611285375
 20
906.145493000
 30
0.000000000
 11
271.590695021
 21
906.594858858
 31
0.000000000
  0
LINE
  5
BD6
330
A02
100
AcDbEntity
  8
Fusion002
100
AcDbLine
 10
261.617754103
 20
905.897750945
 30
0.000000000
 11
266.611285375
 21
906.145493000
 31
0.000000000
  0
LINE
  5
BD7
330
A02
100
AcDbEntity
  8
Fusion002
100
AcDbLine
 10
256.618343242
 20
905.844361478
 30
0.000000000
 11
261.617754103
 21
905.897750945
 31
0.000000000
  0
LINE
  5
BD8
330
A02
100
AcDbEntity
  8
Fusion002
100
AcDbLine
 10
251.620440158
 20
905.978933331
 30
0.000000000
 11
256.618343242
 21
905.844361478
 31
0.000000000
  0
LINE
  5
BD9
330
A02
100
AcDbEntity
  8
Fusion002
100
AcDbLine
 10
246.630767805
 20
906.295893038
 30
0.000000000
 11
251.620440158
 21
905.978933331
 31
0.000000000
  0
LINE
  5
BDA
330
A02
100
AcDbEntity
  8
Fusion002
100
AcDbLine
 10
241.655544372
 20
906.790425975
 30
0.000000000
 11
246.630767805
 21
906.295893038
 31
0.000000000
  0
LINE
  5
BDB
330
A02
100
AcDbEntity
  8
Fusion002
100
AcDbLine
 10
236.700619387
 20
907.458422424
 30
0.000000000
 11
241.655544372
 21
906.790425975
 31
0.000000000
  0
LINE
  5
BDC
330
A02
100
AcDbEntity
  8
Fusion002
100
AcDbLine
 10
231.771592076
 20
908.296429484
 30
0.000000000
 11
236.700619387
 21
907.458422424
 31
0.000000000
  0
LINE
  5
BDD
330
A02
100
AcDbEntity
  8
Fusion002
100
AcDbLine
 10
226.873916849
 20
909.301609071
 30
0.000000000
 11
231.771592076
 21
908.296429484
 31
0.000000000
  0
LINE
  5
BDE
330
A02
100
AcDbEntity
  8
Fusion002
100
AcDbLine
 10
222.012999971
 20
910.471701815
 30
0.000000000
 11
226.873916849
 21
909.301609071
 31
0.000000000
  0
LINE
  5
BDF
330
A02
100
AcDbEntity
  8
Fusion002
100
AcDbLine
 10
217.194291025
 20
911.804996477
 30
0.000000000
 11
222.012999971
 21
910.471701815
 31
0.000000000
  0
LINE
  5
BE0
330
A02
100
AcDbEntity
  8
Fusion002
100
AcDbLine
 10
212.423372348
 20
913.300304317
 30
0.000000000
 11
217.194291025
 21
911.804996477
 31
0.000000000
  0
LINE
  5
BE1
330
A02
100
AcDbEntity
  8
Fusion002
100
AcDbLine
 10
207.706049474
 20
914.956937725
 30
0.000000000
 11
212.423372348
 21
913.300304317
 31
0.000000000
  0
LINE
  5
BE2
330
A02
100
AcDbEntity
  8
Fusion002
100
AcDbLine
 10
203.048445574
 20
916.774692249
 30
0.000000000
 11
207.706049474
 21
914.956937725
 31
0.000000000
  0
LINE
  5
BE3
330
A02
100
AcDbEntity
  8
Fusion002
100
AcDbLine
 10
198.457102934
 20
918.753830982
 30
0.000000000
 11
203.048445574
 21
916.774692249
 31
0.000000000
  0
LINE
  5
BE4
330
A02
100
AcDbEntity
  8
Fusion002
100
AcDbLine
 10
193.939094789
 20
920.895069921
 30
0.000000000
 11
198.457102934
 21
918.753830982
 31
0.000000000
  0
LINE
  5
BE5
330
A02
100
AcDbEntity
  8
Fusion002
100
AcDbLine
 10
189.502151130
 20
923.199562493
 30
0.000000000
 11
193.939094789
 21
920.895069921
 31
0.000000000
  0
LINE
  5
BE6
330
A02
100
AcDbEntity
  8
Fusion002
100
AcDbLine
 10
185.154802583
 20
925.668880755
 30
0.000000000
 11
189.502151130
 21
923.199562493
 31
0.000000000
  0
LINE
  5
BE7
330
A02
100
AcDbEntity
  8
Fusion002
100
AcDbLine
 10
180.906546996
 20
928.304989770
 30
0.000000000
 11
185.154802583
 21
925.668880755
 31
0.000000000
  0
LINE
  5
BE8
330
A02
100
AcDbEntity
  8
Fusion002
100
AcDbLine
 10
176.768043975
 20
931.110210250
 30
0.000000000
 11
180.906546996
 21
928.304989770
 31
0.000000000
  0
LINE
  5
BE9
330
A02
100
AcDbEntity
  8
Fusion002
100
AcDbLine
 10
172.751343100
 20
934.087162384
 30
0.000000000
 11
176.768043975
 21
931.110210250
 31
0.000000000
  0
LINE
  5
BEA
330
A02
100
AcDbEntity
  8
Fusion002
100
AcDbLine
 10
168.870151794
 20
937.238680838
 30
0.000000000
 11
172.751343100
 21
934.087162384
 31
0.000000000
  0
LINE
  5
BEB
330
A02
100
AcDbEntity
  8
Fusion002
100
AcDbLine
 10
165.140148309
 20
940.567686579
 30
0.000000000
 11
168.870151794
 21
937.238680838
 31
0.000000000
  0
LINE
  5
BEC
330
A02
100
AcDbEntity
  8
Fusion002
100
AcDbLine
 10
161.579343372
 20
944.076995305
 30
0.000000000
 11
165.140148309
 21
940.567686579
 31
0.000000000
  0
LINE
  5
BED
330
A02
100
AcDbEntity
  8
Fusion002
100
AcDbLine
 10
158.208489345
 20
947.769034369
 30
0.000000000
 11
161.579343372
 21
944.076995305
 31
0.000000000
  0
LINE
  5
BEE
330
A02
100
AcDbEntity
  8
Fusion002
100
AcDbLine
 10
155.051526189
 20
951.645430084
 30
0.000000000
 11
158.208489345
 21
947.769034369
 31
0.000000000
  0
LINE
  5
BEF
330
A02
100
AcDbEntity
  8
Fusion002
100
AcDbLine
 10
152.136035759
 20
955.706416007
 30
0.000000000
 11
155.051526189
 21
951.645430084
 31
0.000000000
  0
LINE
  5
BF0
330
A02
100
AcDbEntity
  8
Fusion002
100
AcDbLine
 10
149.493645241
 20
959.950002866
 30
0.000000000
 11
152.136035759
 21
955.706416007
 31
0.000000000
  0
LINE
  5
BF1
330
A02
100
AcDbEntity
  8
Fusion002
100
AcDbLine
 10
147.160271461
 20
964.370848970
 30
0.000000000
 11
149.493645241
 21
959.950002866
 31
0.000000000
  0
LINE
  5
BF2
330
A02
100
AcDbEntity
  8
Fusion002
100
AcDbLine
 10
145.176026906
 20
968.958789851
 30
0.000000000
 11
147.160271461
 21
964.370848970
 31
0.000000000
  0
LINE
  5
BF3
330
A02
100
AcDbEntity
  8
Fusion002
100
AcDbLine
 10
143.584521724
 20
973.697050301
 30
0.000000000
 11
145.176026906
 21
968.958789851
 31
0.000000000
  0
LINE
  5
BF4
330
A02
100
AcDbEntity
  8
Fusion002
100
AcDbLine
 10
142.431223992
 20
978.560300213
 30
0.000000000
 11
143.584521724
 21
973.697050301
 31
0.000000000
  0
LINE
  5
BF5
330
A02
100
AcDbEntity
  8
Fusion002
100
AcDbLine
 10
141.760554951
 20
983.512943553
 30
0.000000000
 11
142.431223992
 21
978.560300213
 31
0.000000000
  0
LINE
  5
BF6
330
A02
100
AcDbEntity
  8
Fusion002
100
AcDbLine
 10
141.611610658
 20
988.508304415
 30
0.000000000
 11
141.760554951
 21
983.512943553
 31
0.000000000
  0
LINE
  5
BF7
330
A02
100
AcDbEntity
  8
Fusion002
100
AcDbLine
 10
142.012907653
 20
993.489534922
 30
0.000000000
 11
141.611610658
 21
988.508304415
 31
0.000000000
  0
LINE
  5
BF8
330
A02
100
AcDbEntity
  8
Fusion002
100
AcDbLine
 10
142.977260366
 20
998.392852661
 30
0.000000000
 11
142.012907653
 21
993.489534922
 31
0.000000000
  0
LINE
  5
BF9
330
A02
100
AcDbEntity
  8
Fusion002
100
AcDbLine
 10
144.498410386
 20
1003.152955438
 30
0.000000000
 11
142.977260366
 21
998.392852661
 31
0.000000000
  0
LINE
  5
BFA
330
A02
100
AcDbEntity
  8
Fusion002
100
AcDbLine
 10
146.550796270
 20
1007.709416652
 30
0.000000000
 11
144.498410386
 21
1003.152955438
 31
0.000000000
  0
LINE
  5
BFB
330
A02
100
AcDbEntity
  8
Fusion002
100
AcDbLine
 10
149.092740945
 20
1012.012233264
 30
0.000000000
 11
146.550796270
 21
1007.709416652
 31
0.000000000
  0
LINE
  5
BFC
330
A02
100
AcDbEntity
  8
Fusion002
100
AcDbLine
 10
152.071972294
 20
1016.025030062
 30
0.000000000
 11
149.092740945
 21
1012.012233264
 31
0.000000000
  0
LINE
  5
BFD
330
A02
100
AcDbEntity
  8
Fusion002
100
AcDbLine
 10
155.431688548
 20
1019.725501143
 30
0.000000000
 11
152.071972294
 21
1016.025030062
 31
0.000000000
  0
LINE
  5
BFE
330
A02
100
AcDbEntity
  8
Fusion002
100
AcDbLine
 10
159.115651674
 20
1023.103712134
 30
0.000000000
 11
155.431688548
 21
1019.725501143
 31
0.000000000
  0
LINE
  5
BFF
330
A02
100
AcDbEntity
  8
Fusion002
100
AcDbLine
 10
163.071601480
 20
1026.159329160
 30
0.000000000
 11
159.115651674
 21
1023.103712134
 31
0.000000000
  0
LINE
  5
C00
330
A02
100
AcDbEntity
  8
Fusion002
100
AcDbLine
 10
167.253021140
 20
1028.898702052
 30
0.000000000
 11
163.071601480
 21
1026.159329160
 31
0.000000000
  0
LINE
  5
C01
330
A02
100
AcDbEntity
  8
Fusion002
100
AcDbLine
 10
171.619664199
 20
1031.332345377
 30
0.000000000
 11
167.253021140
 21
1028.898702052
 31
0.000000000
  0
LINE
  5
C02
330
A02
100
AcDbEntity
  8
Fusion002
100
AcDbLine
 10
176.137316788
 20
1033.473011748
 30
0.000000000
 11
171.619664199
 21
1031.332345377
 31
0.000000000
  0
LINE
  5
C03
330
A02
100
AcDbEntity
  8
Fusion002
100
AcDbLine
 10
180.777173916
 20
1035.334339844
 30
0.000000000
 11
176.137316788
 21
1033.473011748
 31
0.000000000
  0
LINE
  5
C04
330
A02
100
AcDbEntity
  8
Fusion002
100
AcDbLine
 10
185.515078376
 20
1036.929969886
 30
0.000000000
 11
180.777173916
 21
1035.334339844
 31
0.000000000
  0
LINE
  5
C05
330
A02
100
AcDbEntity
  8
Fusion002
100
AcDbLine
 10
190.330762402
 20
1038.273003074
 30
0.000000000
 11
185.515078376
 21
1036.929969886
 31
0.000000000
  0
LINE
  5
C06
330
A02
100
AcDbEntity
  8
Fusion002
100
AcDbLine
 10
195.207159225
 20
1039.375697896
 30
0.000000000
 11
190.330762402
 21
1038.273003074
 31
0.000000000
  0
LINE
  5
C07
330
A02
100
AcDbEntity
  8
Fusion002
100
AcDbLine
 10
200.129808623
 20
1040.249321605
 30
0.000000000
 11
195.207159225
 21
1039.375697896
 31
0.000000000
  0
LINE
  5
C08
330
A02
100
AcDbEntity
  8
Fusion002
100
AcDbLine
 10
205.086357924
 20
1040.904098971
 30
0.000000000
 11
200.129808623
 21
1040.249321605
 31
0.000000000
  0
LINE
  5
C09
330
A02
100
AcDbEntity
  8
Fusion002
100
AcDbLine
 10
210.066149538
 20
1041.349219151
 30
0.000000000
 11
205.086357924
 21
1040.904098971
 31
0.000000000
  0
LINE
  5
C0A
330
A02
100
AcDbEntity
  8
Fusion002
100
AcDbLine
 10
215.059882379
 20
1041.592875086
 30
0.000000000
 11
210.066149538
 21
1041.349219151
 31
0.000000000
  0
LINE
  5
C0B
330
A02
100
AcDbEntity
  8
Fusion002
100
AcDbLine
 10
220.059334241
 20
1041.642319174
 30
0.000000000
 11
215.059882379
 21
1041.592875086
 31
0.000000000
  0
LINE
  5
C0C
330
A02
100
AcDbEntity
  8
Fusion002
100
AcDbLine
 10
225.057133290
 20
1041.503925166
 30
0.000000000
 11
220.059334241
 21
1041.642319174
 31
0.000000000
  0
LINE
  5
C0D
330
A02
100
AcDbEntity
  8
Fusion002
100
AcDbLine
 10
230.046568527
 20
1041.183250265
 30
0.000000000
 11
225.057133290
 21
1041.503925166
 31
0.000000000
  0
LINE
  5
C0E
330
A02
100
AcDbEntity
  8
Fusion002
100
AcDbLine
 10
235.021430686
 20
1040.685094003
 30
0.000000000
 11
230.046568527
 21
1041.183250265
 31
0.000000000
  0
LINE
  5
C0F
330
A02
100
AcDbEntity
  8
Fusion002
100
AcDbLine
 10
239.975876556
 20
1040.013552065
 30
0.000000000
 11
235.021430686
 21
1040.685094003
 31
0.000000000
  0
LINE
  5
C10
330
A02
100
AcDbEntity
  8
Fusion002
100
AcDbLine
 10
244.904310932
 20
1039.172064242
 30
0.000000000
 11
239.975876556
 21
1040.013552065
 31
0.000000000
  0
LINE
  5
C11
330
A02
100
AcDbEntity
  8
Fusion002
100
AcDbLine
 10
249.801281357
 20
1038.163456315
 30
0.000000000
 11
244.904310932
 21
1039.172064242
 31
0.000000000
  0
LINE
  5
C12
330
A02
100
AcDbEntity
  8
Fusion002
100
AcDbLine
 10
254.661381581
 20
1036.989976038
 30
0.000000000
 11
249.801281357
 21
1038.163456315
 31
0.000000000
  0
LINE
  5
C13
330
A02
100
AcDbEntity
  8
Fusion002
100
AcDbLine
 10
259.479160181
 20
1035.653323611
 30
0.000000000
 11
254.661381581
 21
1036.989976038
 31
0.000000000
  0
LINE
  5
C14
330
A02
100
AcDbEntity
  8
Fusion002
100
AcDbLine
 10
264.249031135
 20
1034.154677216
 30
0.000000000
 11
259.479160181
 21
1035.653323611
 31
0.000000000
  0
LINE
  5
C15
330
A02
100
AcDbEntity
  8
Fusion002
100
AcDbLine
 10
268.965183317
 20
1032.494714309
 30
0.000000000
 11
264.249031135
 21
1034.154677216
 31
0.000000000
  0
LINE
  5
C16
330
A02
100
AcDbEntity
  8
Fusion002
100
AcDbLine
 10
273.621485955
 20
1030.673629530
 30
0.000000000
 11
268.965183317
 21
1032.494714309
 31
0.000000000
  0
LINE
  5
C17
330
A02
100
AcDbEntity
  8
Fusion002
100
AcDbLine
 10
278.211386966
 20
1028.691150279
 30
0.000000000
 11
273.621485955
 21
1030.673629530
 31
0.000000000
  0
LINE
  5
C18
330
A02
100
AcDbEntity
  8
Fusion002
100
AcDbLine
 10
282.727800871
 20
1026.546551359
 30
0.000000000
 11
278.211386966
 21
1028.691150279
 31
0.000000000
  0
LINE
  5
C19
330
A02
100
AcDbEntity
  8
Fusion002
100
AcDbLine
 10
287.162982663
 20
1024.238670486
 30
0.000000000
 11
282.727800871
 21
1026.546551359
 31
0.000000000
  0
LINE
  5
C1A
330
A02
100
AcDbEntity
  8
Fusion002
100
AcDbLine
 10
291.508383504
 20
1021.765927194
 30
0.000000000
 11
287.162982663
 21
1024.238670486
 31
0.000000000
  0
LINE
  5
C1B
330
A02
100
AcDbEntity
  8
Fusion002
100
AcDbLine
 10
295.754483615
 20
1019.126348639
 30
0.000000000
 11
291.508383504
 21
1021.765927194
 31
0.000000000
  0
LINE
  5
C1C
330
A02
100
AcDbEntity
  8
Fusion002
100
AcDbLine
 10
299.890597108
 20
1016.317607278
 30
0.000000000
 11
295.754483615
 21
1019.126348639
 31
0.000000000
  0
LINE
  5
C1D
330
A02
100
AcDbEntity
  8
Fusion002
100
AcDbLine
 10
303.904643003
 20
1013.337077506
 30
0.000000000
 11
299.890597108
 21
1016.317607278
 31
0.000000000
  0
LINE
  5
C1E
330
A02
100
AcDbEntity
  8
Fusion002
100
AcDbLine
 10
307.782876487
 20
1010.181921400
 30
0.000000000
 11
303.904643003
 21
1013.337077506
 31
0.000000000
  0
LINE
  5
C1F
330
A02
100
AcDbEntity
  8
Fusion002
100
AcDbLine
 10
311.509574945
 20
1006.849217968
 30
0.000000000
 11
307.782876487
 21
1010.181921400
 31
0.000000000
  0
LINE
  5
C20
330
A02
100
AcDbEntity
  8
Fusion002
100
AcDbLine
 10
315.066675295
 20
1003.336156299
 30
0.000000000
 11
311.509574945
 21
1006.849217968
 31
0.000000000
  0
LINE
  5
C21
330
A02
100
AcDbEntity
  8
Fusion002
100
AcDbLine
 10
318.433363918
 20
999.640320891
 30
0.000000000
 11
315.066675295
 21
1003.336156299
 31
0.000000000
  0
LINE
  5
C22
330
A02
100
AcDbEntity
  8
Fusion002
100
AcDbLine
 10
321.585630153
 20
995.760107506
 30
0.000000000
 11
318.433363918
 21
999.640320891
 31
0.000000000
  0
LINE
  5
C23
330
A02
100
AcDbEntity
  8
Fusion002
100
AcDbLine
 10
324.495812322
 20
991.695319188
 30
0.000000000
 11
321.585630153
 21
995.760107506
 31
0.000000000
  0
LINE
  5
C24
330
A02
100
AcDbEntity
  8
Fusion002
100
AcDbLine
 10
327.132196276
 20
987.448001920
 30
0.000000000
 11
324.495812322
 21
991.695319188
 31
0.000000000
  0
LINE
  5
C25
330
A02
100
AcDbEntity
  8
Fusion002
100
AcDbLine
 10
329.458775980
 20
983.023580964
 30
0.000000000
 11
327.132196276
 21
987.448001920
 31
0.000000000
  0
LINE
  5
C26
330
A02
100
AcDbEntity
  8
Fusion002
100
AcDbLine
 10
331.435356989
 20
978.432338352
 30
0.000000000
 11
329.458775980
 21
983.023580964
 31
0.000000000
  0
LINE
  5
C27
330
A02
100
AcDbEntity
  8
Fusion002
100
AcDbLine
 10
333.018270308
 20
973.691206335
 30
0.000000000
 11
331.435356989
 21
978.432338352
 31
0.000000000
  0
LINE
  5
C28
330
A02
100
AcDbEntity
  8
Fusion002
100
AcDbLine
 10
334.162035317
 20
968.825711593
 30
0.000000000
 11
333.018270308
 21
973.691206335
 31
0.000000000
  0
LINE
  5
C29
330
A02
100
AcDbEntity
  8
Fusion002
100
AcDbLine
 10
334.822293027
 20
963.871675358
 30
0.000000000
 11
334.162035317
 21
968.825711593
 31
0.000000000
  0
LINE
  5
C2A
330
A02
100
AcDbEntity
  8
Fusion002
100
AcDbLine
 10
334.960110877
 20
958.876000213
 30
0.000000000
 11
334.822293027
 21
963.871675358
 31
0.000000000
  0
LINE
  5
C2B
330
A02
100
AcDbEntity
  8
Fusion002
100
AcDbLine
 10
334.547248036
 20
953.895718524
 30
0.000000000
 11
334.960110877
 21
958.876000213
 31
0.000000000
  0
LINE
  5
C2C
330
A02
100
AcDbEntity
  8
Fusion002
100
AcDbLine
 10
-579.695312000
 20
956.732346000
 30
0.000000000
 11
-568.886597000
 21
981.704224000
 31
0.000000000
  0
LINE
  5
C2D
330
A02
100
AcDbEntity
  8
Fusion002
100
AcDbLine
 10
-568.886597000
 20
981.704224000
 30
0.000000000
 11
-550.623596000
 21
1011.521393000
 31
0.000000000
  0
LINE
  5
C2E
330
A02
100
AcDbEntity
  8
Fusion002
100
AcDbLine
 10
-550.623596000
 20
1011.521393000
 30
0.000000000
 11
-529.378845000
 21
1040.593109000
 31
0.000000000
  0
LINE
  5
C2F
330
A02
100
AcDbEntity
  8
Fusion002
100
AcDbLine
 10
-529.378845000
 20
1040.593109000
 30
0.000000000
 11
-501.425293000
 21
1069.664856000
 31
0.000000000
  0
LINE
  5
C30
330
A02
100
AcDbEntity
  8
Fusion002
100
AcDbLine
 10
-501.425293000
 20
1069.664856000
 30
0.000000000
 11
-467.508270000
 21
1097.991150000
 31
0.000000000
  0
LINE
  5
C31
330
A02
100
AcDbEntity
  8
Fusion002
100
AcDbLine
 10
-467.508270000
 20
1097.991150000
 30
0.000000000
 11
-432.845825000
 21
1119.608612000
 31
0.000000000
  0
LINE
  5
C32
330
A02
100
AcDbEntity
  8
Fusion002
100
AcDbLine
 10
-432.845825000
 20
1119.608612000
 30
0.000000000
 11
-393.532837000
 21
1140.629242000
 31
0.000000000
  0
LINE
  5
C33
330
A02
100
AcDbEntity
  8
Fusion002
100
AcDbLine
 10
-393.532837000
 20
1140.629242000
 30
0.000000000
 11
-335.016663000
 21
1165.601105000
 31
0.000000000
  0
LINE
  5
C34
330
A02
100
AcDbEntity
  8
Fusion002
100
AcDbLine
 10
-335.016663000
 20
1165.601105000
 30
0.000000000
 11
-278.736755000
 21
1182.373260000
 31
0.000000000
  0
LINE
  5
C35
330
A02
100
AcDbEntity
  8
Fusion002
100
AcDbLine
 10
-278.736755000
 20
1182.373260000
 30
0.000000000
 11
-235.874603000
 21
1191.691132000
 31
0.000000000
  0
LINE
  5
C36
330
A02
100
AcDbEntity
  8
Fusion002
100
AcDbLine
 10
-235.874603000
 20
1191.691132000
 30
0.000000000
 11
-196.586166000
 21
1198.808136000
 31
0.000000000
  0
LINE
  5
C37
330
A02
100
AcDbEntity
  8
Fusion002
100
AcDbLine
 10
-196.586166000
 20
1198.808136000
 30
0.000000000
 11
-145.524292000
 21
1204.771576000
 31
0.000000000
  0
LINE
  5
C38
330
A02
100
AcDbEntity
  8
Fusion002
100
AcDbLine
 10
-145.524292000
 20
1204.771576000
 30
0.000000000
 11
-95.207817000
 21
1208.498718000
 31
0.000000000
  0
LINE
  5
C39
330
A02
100
AcDbEntity
  8
Fusion002
100
AcDbLine
 10
-95.207817000
 20
1208.498718000
 30
0.000000000
 11
-53.091095000
 21
1208.498718000
 31
0.000000000
  0
LINE
  5
C3A
330
A02
100
AcDbEntity
  8
Fusion002
100
AcDbLine
 10
-53.091095000
 20
1208.498718000
 30
0.000000000
 11
-20.145432000
 21
1208.498718000
 31
0.000000000
  0
LINE
  5
C3B
330
A02
100
AcDbEntity
  8
Fusion002
100
AcDbLine
 10
-20.145432000
 20
1208.498718000
 30
0.000000000
 11
30.171043000
 21
1205.540009000
 31
0.000000000
  0
LINE
  5
C3C
330
A02
100
AcDbEntity
  8
Fusion002
100
AcDbLine
 10
30.171043000
 20
1205.540009000
 30
0.000000000
 11
90.923492000
 21
1197.340271000
 31
0.000000000
  0
LINE
  5
C3D
330
A02
100
AcDbEntity
  8
Fusion002
100
AcDbLine
 10
90.923492000
 20
1197.340271000
 30
0.000000000
 11
139.376373000
 21
1188.767822000
 31
0.000000000
  0
LINE
  5
C3E
330
A02
100
AcDbEntity
  8
Fusion002
100
AcDbLine
 10
139.376373000
 20
1188.767822000
 30
0.000000000
 11
178.511429000
 21
1179.822693000
 31
0.000000000
  0
LINE
  5
C3F
330
A02
100
AcDbEntity
  8
Fusion002
100
AcDbLine
 10
178.511429000
 20
1179.822693000
 30
0.000000000
 11
218.202362000
 21
1169.354919000
 31
0.000000000
  0
LINE
  5
C40
330
A02
100
AcDbEntity
  8
Fusion002
100
AcDbLine
 10
218.202362000
 20
1169.354919000
 30
0.000000000
 11
260.691803000
 21
1155.937164000
 31
0.000000000
  0
LINE
  5
C41
330
A02
100
AcDbEntity
  8
Fusion002
100
AcDbLine
 10
260.691803000
 20
1155.937164000
 30
0.000000000
 11
300.944977000
 21
1141.401306000
 31
0.000000000
  0
LINE
  5
C42
330
A02
100
AcDbEntity
  8
Fusion002
100
AcDbLine
 10
300.944977000
 20
1141.401306000
 30
0.000000000
 11
343.807129000
 21
1123.138306000
 31
0.000000000
  0
LINE
  5
C43
330
A02
100
AcDbEntity
  8
Fusion002
100
AcDbLine
 10
343.807129000
 20
1123.138306000
 30
0.000000000
 11
377.527649000
 21
1106.625671000
 31
0.000000000
  0
LINE
  5
C44
330
A02
100
AcDbEntity
  8
Fusion002
100
AcDbLine
 10
377.527649000
 20
1106.625671000
 30
0.000000000
 11
412.935547000
 21
1085.008209000
 31
0.000000000
  0
LINE
  5
C45
330
A02
100
AcDbEntity
  8
Fusion002
100
AcDbLine
 10
412.935547000
 20
1085.008209000
 30
0.000000000
 11
436.789276000
 21
1067.863358000
 31
0.000000000
  0
LINE
  5
C46
330
A02
100
AcDbEntity
  8
Fusion002
100
AcDbLine
 10
436.789276000
 20
1067.863358000
 30
0.000000000
 11
454.306854000
 21
1053.327484000
 31
0.000000000
  0
LINE
  5
C47
330
A02
100
AcDbEntity
  8
Fusion002
100
AcDbLine
 10
454.306854000
 20
1053.327484000
 30
0.000000000
 11
466.846710000
 21
1041.178833000
 31
0.000000000
  0
LINE
  5
C48
330
A02
100
AcDbEntity
  8
Fusion002
100
AcDbLine
 10
466.846710000
 20
1041.178833000
 30
0.000000000
 11
480.551575000
 21
1023.792068000
 31
0.000000000
  0
LINE
  5
C49
330
A02
100
AcDbEntity
  8
Fusion002
100
AcDbLine
 10
480.551575000
 20
1023.792068000
 30
0.000000000
 11
488.733582000
 21
1011.519073000
 31
0.000000000
  0
LINE
  5
C4A
330
A02
100
AcDbEntity
  8
Fusion002
100
AcDbLine
 10
488.733582000
 20
1011.519073000
 30
0.000000000
 11
494.665527000
 21
997.609665000
 31
0.000000000
  0
LINE
  5
C4B
330
A02
100
AcDbEntity
  8
Fusion002
100
AcDbLine
 10
494.665527000
 20
997.609665000
 30
0.000000000
 11
499.779266000
 21
980.018356000
 31
0.000000000
  0
LINE
  5
C4C
330
A02
100
AcDbEntity
  8
Fusion002
100
AcDbLine
 10
499.779266000
 20
980.018356000
 30
0.000000000
 11
501.415680000
 21
968.563553000
 31
0.000000000
  0
LINE
  5
C4D
330
A02
100
AcDbEntity
  8
Fusion002
100
AcDbLine
 10
501.415680000
 20
968.563553000
 30
0.000000000
 11
501.415680000
 21
953.338470000
 31
0.000000000
  0
LINE
  5
C4E
330
A02
100
AcDbEntity
  8
Fusion002
100
AcDbLine
 10
501.415680000
 20
953.338470000
 30
0.000000000
 11
499.175812000
 21
940.860916000
 31
0.000000000
  0
LINE
  5
C4F
330
A02
100
AcDbEntity
  8
Fusion002
100
AcDbLine
 10
499.175812000
 20
940.860916000
 30
0.000000000
 11
494.062073000
 21
927.156059000
 31
0.000000000
  0
LINE
  5
C50
330
A02
100
AcDbEntity
  8
Fusion002
100
AcDbLine
 10
494.062073000
 20
927.156059000
 30
0.000000000
 11
486.698273000
 21
915.905807000
 31
0.000000000
  0
LINE
  5
C51
330
A02
100
AcDbEntity
  8
Fusion002
100
AcDbLine
 10
486.698273000
 20
915.905807000
 30
0.000000000
 11
477.084412000
 21
905.064651000
 31
0.000000000
  0
LINE
  5
C52
330
A02
100
AcDbEntity
  8
Fusion002
100
AcDbLine
 10
477.084412000
 20
905.064651000
 30
0.000000000
 11
466.447815000
 21
896.473549000
 31
0.000000000
  0
LINE
  5
C53
330
A02
100
AcDbEntity
  8
Fusion002
100
AcDbLine
 10
466.447815000
 20
896.473549000
 30
0.000000000
 11
451.515656000
 21
887.064247000
 31
0.000000000
  0
LINE
  5
C54
330
A02
100
AcDbEntity
  8
Fusion002
100
AcDbLine
 10
451.515656000
 20
887.064247000
 30
0.000000000
 11
435.969849000
 21
878.882240000
 31
0.000000000
  0
LINE
  5
C55
330
A02
100
AcDbEntity
  8
Fusion002
100
AcDbLine
 10
435.969849000
 20
878.882240000
 30
0.000000000
 11
420.578613000
 21
873.291233000
 31
0.000000000
  0
LINE
  5
C56
330
A02
100
AcDbEntity
  8
Fusion002
100
AcDbLine
 10
420.578613000
 20
873.291233000
 30
0.000000000
 11
402.987305000
 21
865.518326000
 31
0.000000000
  0
LINE
  5
C57
330
A02
100
AcDbEntity
  8
Fusion002
100
AcDbLine
 10
402.987305000
 20
865.518326000
 30
0.000000000
 11
383.350494000
 21
856.927227000
 31
0.000000000
  0
LINE
  5
C58
330
A02
100
AcDbEntity
  8
Fusion002
100
AcDbLine
 10
383.350494000
 20
856.927227000
 30
0.000000000
 11
369.441101000
 21
848.745224000
 31
0.000000000
  0
LINE
  5
C59
330
A02
100
AcDbEntity
  8
Fusion002
100
AcDbLine
 10
369.441101000
 20
848.745224000
 30
0.000000000
 11
355.940796000
 21
837.904070000
 31
0.000000000
  0
LINE
  5
C5A
330
A02
100
AcDbEntity
  8
Fusion002
100
AcDbLine
 10
355.940796000
 20
837.904070000
 30
0.000000000
 11
345.672913000
 21
826.983109000
 31
0.000000000
  0
LINE
  5
C5B
330
A02
100
AcDbEntity
  8
Fusion002
100
AcDbLine
 10
345.672913000
 20
826.983109000
 30
0.000000000
 11
337.695465000
 21
814.710104000
 31
0.000000000
  0
LINE
  5
C5C
330
A02
100
AcDbEntity
  8
Fusion002
100
AcDbLine
 10
337.695465000
 20
814.710104000
 30
0.000000000
 11
332.786255000
 21
802.641653000
 31
0.000000000
  0
LINE
  5
C5D
330
A02
100
AcDbEntity
  8
Fusion002
100
AcDbLine
 10
332.786255000
 20
802.641653000
 30
0.000000000
 11
330.536224000
 21
789.754997000
 31
0.000000000
  0
LINE
  5
C5E
330
A02
100
AcDbEntity
  8
Fusion002
100
AcDbLine
 10
330.536224000
 20
789.754997000
 30
0.000000000
 11
330.536224000
 21
776.187515000
 31
0.000000000
  0
LINE
  5
C5F
330
A02
100
AcDbEntity
  8
Fusion002
100
AcDbLine
 10
330.536224000
 20
776.187515000
 30
0.000000000
 11
332.982544000
 21
762.482658000
 31
0.000000000
  0
LINE
  5
C60
330
A02
100
AcDbEntity
  8
Fusion002
100
AcDbLine
 10
332.982544000
 20
762.482658000
 30
0.000000000
 11
337.687195000
 21
750.414200000
 31
0.000000000
  0
LINE
  5
C61
330
A02
100
AcDbEntity
  8
Fusion002
100
AcDbLine
 10
337.687195000
 20
750.414200000
 30
0.000000000
 11
344.028259000
 21
738.754852000
 31
0.000000000
  0
LINE
  5
C62
330
A02
100
AcDbEntity
  8
Fusion002
100
AcDbLine
 10
344.028259000
 20
738.754852000
 30
0.000000000
 11
352.633392000
 21
727.440712000
 31
0.000000000
  0
LINE
  5
C63
330
A02
100
AcDbEntity
  8
Fusion002
100
AcDbLine
 10
352.633392000
 20
727.440712000
 30
0.000000000
 11
362.247253000
 21
718.645058000
 31
0.000000000
  0
LINE
  5
C64
330
A02
100
AcDbEntity
  8
Fusion002
100
AcDbLine
 10
362.247253000
 20
718.645058000
 30
0.000000000
 11
372.270203000
 21
711.894905000
 31
0.000000000
  0
LINE
  5
C65
330
A02
100
AcDbEntity
  8
Fusion002
100
AcDbLine
 10
372.270203000
 20
711.894905000
 30
0.000000000
 11
382.702240000
 21
705.962959000
 31
0.000000000
  0
LINE
  5
C66
330
A02
100
AcDbEntity
  8
Fusion002
100
AcDbLine
 10
382.702240000
 20
705.962959000
 30
0.000000000
 11
394.157043000
 21
701.871956000
 31
0.000000000
  0
LINE
  5
C67
330
A02
100
AcDbEntity
  8
Fusion002
100
AcDbLine
 10
394.157043000
 20
701.871956000
 30
0.000000000
 11
409.907410000
 21
698.394600000
 31
0.000000000
  0
LINE
  5
C68
330
A02
100
AcDbEntity
  8
Fusion002
100
AcDbLine
 10
409.907410000
 20
698.394600000
 30
0.000000000
 11
424.635010000
 21
696.553650000
 31
0.000000000
  0
LINE
  5
C69
330
A02
100
AcDbEntity
  8
Fusion002
100
AcDbLine
 10
424.635010000
 20
696.553650000
 30
0.000000000
 11
439.214203000
 21
695.291245000
 31
0.000000000
  0
LINE
  5
C6A
330
A02
100
AcDbEntity
  8
Fusion002
100
AcDbLine
 10
439.214203000
 20
695.291245000
 30
0.000000000
 11
454.350922000
 21
693.654846000
 31
0.000000000
  0
LINE
  5
C6B
330
A02
100
AcDbEntity
  8
Fusion002
100
AcDbLine
 10
454.350922000
 20
693.654846000
 30
0.000000000
 11
468.260315000
 21
691.609344000
 31
0.000000000
  0
LINE
  5
C6C
330
A02
100
AcDbEntity
  8
Fusion002
100
AcDbLine
 10
468.260315000
 20
691.609344000
 30
0.000000000
 11
484.853271000
 21
688.553680000
 31
0.000000000
  0
LINE
  5
C6D
330
A02
100
AcDbEntity
  8
Fusion002
100
AcDbLine
 10
484.853271000
 20
688.553680000
 30
0.000000000
 11
498.753387000
 21
684.869308000
 31
0.000000000
  0
LINE
  5
C6E
330
A02
100
AcDbEntity
  8
Fusion002
100
AcDbLine
 10
498.753387000
 20
684.869308000
 30
0.000000000
 11
514.663147000
 21
679.845169000
 31
0.000000000
  0
LINE
  5
C6F
330
A02
100
AcDbEntity
  8
Fusion002
100
AcDbLine
 10
514.663147000
 20
679.845169000
 30
0.000000000
 11
529.400635000
 21
673.313782000
 31
0.000000000
  0
LINE
  5
C70
330
A02
100
AcDbEntity
  8
Fusion002
100
AcDbLine
 10
529.400635000
 20
673.313782000
 30
0.000000000
 11
544.873352000
 21
664.056763000
 31
0.000000000
  0
LINE
  5
C71
330
A02
100
AcDbEntity
  8
Fusion002
100
AcDbLine
 10
544.873352000
 20
664.056763000
 30
0.000000000
 11
555.089111000
 21
656.018127000
 31
0.000000000
  0
LINE
  5
C72
330
A02
100
AcDbEntity
  8
Fusion002
100
AcDbLine
 10
555.089111000
 20
656.018127000
 30
0.000000000
 11
564.132568000
 21
645.132492000
 31
0.000000000
  0
LINE
  5
C73
330
A02
100
AcDbEntity
  8
Fusion002
100
AcDbLine
 10
564.132568000
 20
645.132492000
 30
0.000000000
 11
570.848694000
 21
635.205780000
 31
0.000000000
  0
LINE
  5
C74
330
A02
100
AcDbEntity
  8
Fusion002
100
AcDbLine
 10
570.848694000
 20
635.205780000
 30
0.000000000
 11
574.365601000
 21
623.985199000
 31
0.000000000
  0
LINE
  5
C75
330
A02
100
AcDbEntity
  8
Fusion002
100
AcDbLine
 10
574.365601000
 20
623.985199000
 30
0.000000000
 11
575.537903000
 21
613.601959000
 31
0.000000000
  0
LINE
  5
C76
330
A02
100
AcDbEntity
  8
Fusion002
100
AcDbLine
 10
575.537903000
 20
613.601959000
 30
0.000000000
 11
576.040283000
 21
605.898285000
 31
0.000000000
  0
LINE
  5
C77
330
A02
100
AcDbEntity
  8
Fusion002
100
AcDbLine
 10
576.040283000
 20
605.898285000
 30
0.000000000
 11
576.040283000
 21
598.697006000
 31
0.000000000
  0
LINE
  5
C78
330
A02
100
AcDbEntity
  8
Fusion002
100
AcDbLine
 10
576.040283000
 20
598.697006000
 30
0.000000000
 11
574.366394000
 21
586.755676000
 31
0.000000000
  0
LINE
  5
C79
330
A02
100
AcDbEntity
  8
Fusion002
100
AcDbLine
 10
574.366394000
 20
586.755676000
 30
0.000000000
 11
571.184387000
 21
577.544739000
 31
0.000000000
  0
LINE
  5
C7A
330
A02
100
AcDbEntity
  8
Fusion002
100
AcDbLine
 10
571.184387000
 20
577.544739000
 30
0.000000000
 11
566.327759000
 21
567.496445000
 31
0.000000000
  0
LINE
  5
C7B
330
A02
100
AcDbEntity
  8
Fusion002
100
AcDbLine
 10
566.327759000
 20
567.496445000
 30
0.000000000
 11
557.111755000
 21
553.378601000
 31
0.000000000
  0
LINE
  5
C7C
330
A02
100
AcDbEntity
  8
Fusion002
100
AcDbLine
 10
557.111755000
 20
553.378601000
 30
0.000000000
 11
545.388733000
 21
539.478455000
 31
0.000000000
  0
LINE
  5
C7D
330
A02
100
AcDbEntity
  8
Fusion002
100
AcDbLine
 10
545.388733000
 20
539.478455000
 30
0.000000000
 11
530.510620000
 21
525.419128000
 31
0.000000000
  0
LINE
  5
C7E
330
A02
100
AcDbEntity
  8
Fusion002
100
AcDbLine
 10
530.510620000
 20
525.419128000
 30
0.000000000
 11
515.373901000
 21
513.146118000
 31
0.000000000
  0
LINE
  5
C7F
330
A02
100
AcDbEntity
  8
Fusion002
100
AcDbLine
 10
515.373901000
 20
513.146118000
 30
0.000000000
 11
490.623352000
 21
496.782104000
 31
0.000000000
  0
LINE
  5
C80
330
A02
100
AcDbEntity
  8
Fusion002
100
AcDbLine
 10
490.623352000
 20
496.782104000
 30
0.000000000
 11
458.509003000
 21
479.395355000
 31
0.000000000
  0
LINE
  5
C81
330
A02
100
AcDbEntity
  8
Fusion002
100
AcDbLine
 10
458.509003000
 20
479.395355000
 30
0.000000000
 11
426.803741000
 21
466.099579000
 31
0.000000000
  0
LINE
  5
C82
330
A02
100
AcDbEntity
  8
Fusion002
100
AcDbLine
 10
426.803741000
 20
466.099579000
 30
0.000000000
 11
383.381439000
 21
450.457001000
 31
0.000000000
  0
LINE
  5
C83
330
A02
100
AcDbEntity
  8
Fusion002
100
AcDbLine
 10
383.381439000
 20
450.457001000
 30
0.000000000
 11
344.016693000
 21
440.386963000
 31
0.000000000
  0
LINE
  5
C84
330
A02
100
AcDbEntity
  8
Fusion002
100
AcDbLine
 10
344.016693000
 20
440.386963000
 30
0.000000000
 11
293.056183000
 21
431.232391000
 31
0.000000000
  0
LINE
  5
C85
330
A02
100
AcDbEntity
  8
Fusion002
100
AcDbLine
 10
293.056183000
 20
431.232391000
 30
0.000000000
 11
242.400803000
 21
426.044800000
 31
0.000000000
  0
LINE
  5
C86
330
A02
100
AcDbEntity
  8
Fusion002
100
AcDbLine
 10
242.400803000
 20
426.044800000
 30
0.000000000
 11
203.036102000
 21
423.603546000
 31
0.000000000
  0
LINE
  5
C87
330
A02
100
AcDbEntity
  8
Fusion002
100
AcDbLine
 10
203.036102000
 20
423.603546000
 30
0.000000000
 11
147.561127000
 21
423.603546000
 31
0.000000000
  0
LINE
  5
C88
330
A02
100
AcDbEntity
  8
Fusion002
100
AcDbLine
 10
147.561127000
 20
423.603546000
 30
0.000000000
 11
102.398521000
 21
426.953094000
 31
0.000000000
  0
LINE
  5
C89
330
A02
100
AcDbEntity
  8
Fusion002
100
AcDbLine
 10
102.398521000
 20
426.953094000
 30
0.000000000
 11
51.437984000
 21
432.445831000
 31
0.000000000
  0
LINE
  5
C8A
330
A02
100
AcDbEntity
  8
Fusion002
100
AcDbLine
 10
51.437984000
 20
432.445831000
 30
0.000000000
 11
11.157810000
 21
439.464355000
 31
0.000000000
  0
LINE
  5
C8B
330
A02
100
AcDbEntity
  8
Fusion002
100
AcDbLine
 10
11.157810000
 20
439.464355000
 30
0.000000000
 11
-34.615112000
 21
448.924103000
 31
0.000000000
  0
LINE
  5
C8C
330
A02
100
AcDbEntity
  8
Fusion002
100
AcDbLine
 10
-34.615112000
 20
448.924103000
 30
0.000000000
 11
-76.811386000
 21
459.334717000
 31
0.000000000
  0
LINE
  5
C8D
330
A02
100
AcDbEntity
  8
Fusion002
100
AcDbLine
 10
-76.811386000
 20
459.334717000
 30
0.000000000
 11
-125.635841000
 21
474.592346000
 31
0.000000000
  0
LINE
  5
C8E
330
A02
100
AcDbEntity
  8
Fusion002
100
AcDbLine
 10
-125.635841000
 20
474.592346000
 30
0.000000000
 11
-163.779938000
 21
489.239685000
 31
0.000000000
  0
LINE
  5
C8F
330
A02
100
AcDbEntity
  8
Fusion002
100
AcDbLine
 10
-163.779938000
 20
489.239685000
 30
0.000000000
 11
-208.779663000
 21
507.321655000
 31
0.000000000
  0
LINE
  5
C90
330
A02
100
AcDbEntity
  8
Fusion002
100
AcDbLine
 10
-208.779663000
 20
507.321655000
 30
0.000000000
 11
-261.876251000
 21
529.902985000
 31
0.000000000
  0
LINE
  5
C91
330
A02
100
AcDbEntity
  8
Fusion002
100
AcDbLine
 10
-261.876251000
 20
529.902985000
 30
0.000000000
 11
-302.156433000
 21
550.958527000
 31
0.000000000
  0
LINE
  5
C92
330
A02
100
AcDbEntity
  8
Fusion002
100
AcDbLine
 10
-302.156433000
 20
550.958527000
 30
0.000000000
 11
-340.713837000
 21
572.090179000
 31
0.000000000
  0
LINE
  5
C93
330
A02
100
AcDbEntity
  8
Fusion002
100
AcDbLine
 10
-340.713837000
 20
572.090179000
 30
0.000000000
 11
-385.266144000
 21
599.248779000
 31
0.000000000
  0
LINE
  5
C94
330
A02
100
AcDbEntity
  8
Fusion002
100
AcDbLine
 10
-385.266144000
 20
599.248779000
 30
0.000000000
 11
-420.479462000
 21
625.889755000
 31
0.000000000
  0
LINE
  5
C95
330
A02
100
AcDbEntity
  8
Fusion002
100
AcDbLine
 10
-420.479462000
 20
625.889755000
 30
0.000000000
 11
-450.384430000
 21
651.522598000
 31
0.000000000
  0
LINE
  5
C96
330
A02
100
AcDbEntity
  8
Fusion002
100
AcDbLine
 10
-450.384430000
 20
651.522598000
 30
0.000000000
 11
-483.340942000
 21
681.122421000
 31
0.000000000
  0
LINE
  5
C97
330
A02
100
AcDbEntity
  8
Fusion002
100
AcDbLine
 10
-483.340942000
 20
681.122421000
 30
0.000000000
 11
-512.940796000
 21
715.299553000
 31
0.000000000
  0
LINE
  5
C98
330
A02
100
AcDbEntity
  8
Fusion002
100
AcDbLine
 10
-512.940796000
 20
715.299553000
 30
0.000000000
 11
-534.911804000
 21
741.847839000
 31
0.000000000
  0
LINE
  5
C99
330
A02
100
AcDbEntity
  8
Fusion002
100
AcDbLine
 10
-534.911804000
 20
741.847839000
 30
0.000000000
 11
-549.935364000
 21
765.190159000
 31
0.000000000
  0
LINE
  5
C9A
330
A02
100
AcDbEntity
  8
Fusion002
100
AcDbLine
 10
-549.935364000
 20
765.190159000
 30
0.000000000
 11
-565.193054000
 21
793.569370000
 31
0.000000000
  0
LINE
  5
C9B
330
A02
100
AcDbEntity
  8
Fusion002
100
AcDbLine
 10
-565.193054000
 20
793.569370000
 30
0.000000000
 11
-575.263062000
 21
814.624916000
 31
0.000000000
  0
LINE
  5
C9C
330
A02
100
AcDbEntity
  8
Fusion002
100
AcDbLine
 10
-575.263062000
 20
814.624916000
 30
0.000000000
 11
-582.891907000
 21
840.562904000
 31
0.000000000
  0
LINE
  5
C9D
330
A02
100
AcDbEntity
  8
Fusion002
100
AcDbLine
 10
-582.891907000
 20
840.562904000
 30
0.000000000
 11
-587.469177000
 21
865.280289000
 31
0.000000000
  0
LINE
  5
C9E
330
A02
100
AcDbEntity
  8
Fusion002
100
AcDbLine
 10
-587.469177000
 20
865.280289000
 30
0.000000000
 11
-589.308716000
 21
886.452614000
 31
0.000000000
  0
LINE
  5
C9F
330
A02
100
AcDbEntity
  8
Fusion002
100
AcDbLine
 10
-589.308716000
 20
886.452614000
 30
0.000000000
 11
-588.088135000
 21
909.949387000
 31
0.000000000
  0
LINE
  5
CA0
330
A02
100
AcDbEntity
  8
Fusion002
100
AcDbLine
 10
-588.088135000
 20
909.949387000
 30
0.000000000
 11
-585.646912000
 21
929.784325000
 31
0.000000000
  0
LINE
  5
CA1
330
A02
100
AcDbEntity
  8
Fusion002
100
AcDbLine
 10
-585.646912000
 20
929.784325000
 30
0.000000000
 11
-579.695312000
 21
956.732346000
 31
0.000000000
  0
LINE
  5
CA2
330
A02
100
AcDbEntity
  8
Rectangle
100
AcDbLine
 10
-610.000000000
 20
-1220.000000000
 30
0.000000000
 11
610.000000000
 21
-1220.000000000
 31
0.000000000
  0
LINE
  5
CA3
330
A02
100
AcDbEntity
  8
Rectangle
100
AcDbLine
 10
610.000000000
 20
-1220.000000000
 30
0.000000000
 11
610.000000000
 21
1220.000000000
 31
0.000000000
  0
LINE
  5
CA4
330
A02
100
AcDbEntity
  8
Rectangle
100
AcDbLine
 10
610.000000000
 20
1220.000000000
 30
0.000000000
 11
-610.000000000
 21
1220.000000000
 31
0.000000000
  0
LINE
  5
CA5
330
A02
100
AcDbEntity
  8
Rectangle
100
AcDbLine
 10
-610.000000000
 20
1220.000000000
 30
0.000000000
 11
-610.000000000
 21
-1220.000000000
 31
0.000000000
  0
ENDSEC
  0
SECTION
  2
OBJECTS
  0
DICTIONARY
  5
F000
330
0
100
AcDbDictionary
  3
ACAD_GROUP
350
F001
  0
DICTIONARY
  5
F001
330
F000
100
AcDbDictionary
  0
ENDSEC
  0
EOF