999
FreeCAD v1.1 20260725 (Git shallow)
  0
SECTION
  2
HEADER
  9
$ACADVER
  1
AC1014
  9
$ACADMAINTVER
 70
     9
  9
$DWGCODEPAGE
  3
ANSI_1252
  9
$TEXTSTYLE
  7
STANDARD
  9
$DIMSTYLE
  2
STANDARD
  9
$DIMTXSTY
  7
STANDARD
  9
$CMLSTYLE
  2
STANDARD
  9
$LUNITS
 70
2
  9
$INSUNITS
 70
4
  9
$PEXTMAX
 10
50
 20
50
 30
50
  9
$PEXTMIN
 10
0
 20
0
 30
0
  9
$HANDSEED
  5
FFFF
  0
ENDSEC
  0
SECTION
  2
CLASSES
  0
CLASS
  1
ACDBDICTIONARYWDFLT
  2
AcDbDictionaryWithDefault
  3
ObjectDBX Classes
 90
        0
280
     0
281
     0
  0
CLASS
  1
XRECORD
  2
AcDbXrecord
  3
ObjectDBX Classes
 90
        0
280
     0
281
     0
  0
CLASS
  1
LWPOLYLINE
  2
AcDbPolyline
  3
ObjectDBX Classes
 90
        0
280
     0
281
     1
  0
ENDSEC
  0
SECTION
  2
TABLES
  0
TABLE
  2
VPORT
  5
20
330
0
100
AcDbSymbolTable
 70
     1
  0
VPORT
  5
21
330
20
100
AcDbSymbolTableRecord
100
AcDbViewportTableRecord
  2
*ACTIVE
 70
     0
  0
ENDTAB
  0
TABLE
  2
LTYPE
  5
22
330
0
100
AcDbSymbolTable
 70
     1
  0
LTYPE
  5
23
330
21
100
AcDbSymbolTableRecord
100
AcDbLinetypeTableRecord
  2
BYBLOCK
 70
     0
  3

 72
    65
 73
     0
 40
0.0
  0
LTYPE
  5
24
330
21
100
AcDbSymbolTableRecord
100
AcDbLinetypeTableRecord
  2
BYLAYER
 70
     0
  3

 72
    65
 73
     0
 40
0.0
  0
LTYPE
  5
25
330
21
100
AcDbSymbolTableRecord
100
AcDbLinetypeTableRecord
  2
CONTINUOUS
 70
     0
  3
Solid line
 72
    65
 73
     0
 40
0.0
  0
ENDTAB
  0
TABLE
  2
LAYER
  5
A7F
330
0
100
AcDbSymbolTable
 70
3
  0
LAYER
  5
A80
330
A7F
100
AcDbSymbolTableRecord
100
AcDbLayerTableRecord
  2
0
 70
   0
 62
   7
  6
CONTINUOUS
  0
LAYER
  5
A81
330
A7F
100
AcDbSymbolTableRecord
100
AcDbLayerTableRecord
  2
none
 70
    0
 62
    7
  6
CONTINUOUS
  0
LAYER
  5
A82
330
A7F
100
AcDbSymbolTableRecord
100
AcDbLayerTableRecord
  2
Sketch001
 70
    0
 62
    7
  6
CONTINUOUS
  0
ENDTAB
  0
TABLE
  2
STYLE
  5
70
330
0
100
AcDbSymbolTable
 70
     2
  0
STYLE
  5
71
330
70
100
AcDbSymbolTableRecord
100
AcDbTextStyleTableRecord
  2
STANDARD
 70
     0
 40
0.0
 41
1.0
 50
0.0
 71
     0
 42
2.5
  3
arial.ttf
  4

  0
STYLE
  5
72
330
70
100
AcDbSymbolTableRecord
100
AcDbTextStyleTableRecord
  2
ANNOTATIVE
 70
     0
 40
0.0
 41
1.0
 50
0.0
 71
     0
 42
2.5
  3
arial.ttf
  4

  0
ENDTAB
  0
TABLE
  2
VIEW
  5
73
330
0
100
AcDbSymbolTable
 70
     0
  0
ENDTAB
  0
TABLE
  2
UCS
  5
74
330
0
100
AcDbSymbolTable
 70
     0
  0
ENDTAB
  0
TABLE
  2
APPID
  5
75
330
0
100
AcDbSymbolTable
 70
     2
  0
APPID
  5
76
330
75
100
AcDbSymbolTableRecord
100
AcDbRegAppTableRecord
  2
ACAD
 70
     0
  0
APPID
  5
77
330
75
100
AcDbSymbolTableRecord
100
AcDbRegAppTableRecord
  2
ACADANNOTATIVE
 70
     0
  0
ENDTAB
  0
TABLE
  2
DIMSTYLE
  5
78
330
0
100
AcDbSymbolTable
 70
     2
  0
DIMSTYLE
105
79
330
78
100
AcDbSymbolTableRecord
100
AcDbDimStyleTableRecord
  2
STANDARD
 70
     0
  3

  4

  5

  6

  7

 40
0.0
 41
2.5
 42
0.625
 43
3.75
 44
1.25
 45
0.0
 46
0.0
 47
0.0
 48
0.0
140
2.5
141
2.5
142
0.0
143
0.03937007874016
144
1.0
145
0.0
146
1.0
147
0.625
 71
     0
 72
     0
 73
     0
 74
     0
 75
     0
 76
     0
 77
     1
 78
     8
170
     0
171
     3
172
     1
173
     0
174
     0
175
     0
176
     0
177
     0
178
     0
270
     2
271
     2
272
     2
273
     2
274
     3
340
71
275
     0
280
     0
281
     0
282
     0
283
     0
284
     8
285
     0
286
     0
287
     3
288
     0
  0
ENDTAB
  0
TABLE
  2
BLOCK_RECORD
  5
A01
330
0
100
AcDbSymbolTable
  70
5
  0
BLOCK_RECORD
  5
A02
330
A01
100
AcDbSymbolTableRecord
100
AcDbBlockTableRecord
  2
*MODEL_SPACE
  0
BLOCK_RECORD
  5
A03
330
A01
100
AcDbSymbolTableRecord
100
AcDbBlockTableRecord
  2
*PAPER_SPACE
  0
ENDTAB
  0
ENDSEC
  0
SECTION
  2
BLOCKS
  0
BLOCK
  5
A04
330
A02
100
AcDbEntity
  8
0
100
AcDbBlockBegin
  2
*MODEL_SPACE
 70
   0
 10
0
 20
0
 30
0
  3
*MODEL_SPACE
  1
 
  0
ENDBLK
  5
A05
330
A02
100
AcDbEntity
  8
0
100
AcDbBlockEnd
  0
BLOCK
  5
A06
330
A03
100
AcDbEntity
 67
1
  8
0
100
AcDbBlockBegin
  2
*PAPER_SPACE
 70
   0
 10
0
 20
0
 30
0
  3
*PAPER_SPACE
  1
 
  0
ENDBLK
  5
A07
330
A03
100
AcDbEntity
 67
    1
  8
0
100
AcDbBlockEnd
  0
ENDSEC
  0
SECTION
  2
ENTITIES
  0
LINE
  5
A08
330
A02
100
AcDbEntity
  8
Sketch001
100
AcDbLine
 10
-579.695312000
 20
136.732346000
 30
0.000000000
 11
-568.886597000
 21
161.704224000
 31
0.000000000
  0
LINE
  5
A09
330
A02
100
AcDbEntity
  8
Sketch001
100
AcDbLine
 10
-568.886597000
 20
161.704224000
 30
0.000000000
 11
-550.623596000
 21
191.521393000
 31
0.000000000
  0
LINE
  5
A0A
330
A02
100
AcDbEntity
  8
Sketch001
100
AcDbLine
 10
-550.623596000
 20
191.521393000
 30
0.000000000
 11
-529.378845000
 21
220.593109000
 31
0.000000000
  0
LINE
  5
A0B
330
A02
100
AcDbEntity
  8
Sketch001
100
AcDbLine
 10
-529.378845000
 20
220.593109000
 30
0.000000000
 11
-501.425293000
 21
249.664856000
 31
0.000000000
  0
LINE
  5
A0C
330
A02
100
AcDbEntity
  8
Sketch001
100
AcDbLine
 10
-501.425293000
 20
249.664856000
 30
0.000000000
 11
-467.508270000
 21
277.991150000
 31
0.000000000
  0
LINE
  5
A0D
330
A02
100
AcDbEntity
  8
Sketch001
100
AcDbLine
 10
-467.508270000
 20
277.991150000
 30
0.000000000
 11
-432.845825000
 21
299.608612000
 31
0.000000000
  0
LINE
  5
A0E
330
A02
100
AcDbEntity
  8
Sketch001
100
AcDbLine
 10
-432.845825000
 20
299.608612000
 30
0.000000000
 11
-393.532837000
 21
320.629242000
 31
0.000000000
  0
LINE
  5
A0F
330
A02
100
AcDbEntity
  8
Sketch001
100
AcDbLine
 10
-393.532837000
 20
320.629242000
 30
0.000000000
 11
-335.016663000
 21
345.601105000
 31
0.000000000
  0
LINE
  5
A10
330
A02
100
AcDbEntity
  8
Sketch001
100
AcDbLine
 10
-335.016663000
 20
345.601105000
 30
0.000000000
 11
-278.736755000
 21
362.373260000
 31
0.000000000
  0
LINE
  5
A11
330
A02
100
AcDbEntity
  8
Sketch001
100
AcDbLine
 10
-278.736755000
 20
362.373260000
 30
0.000000000
 11
-235.874603000
 21
371.691132000
 31
0.000000000
  0
LINE
  5
A12
330
A02
100
AcDbEntity
  8
Sketch001
100
AcDbLine
 10
-235.874603000
 20
371.691132000
 30
0.000000000
 11
-196.586166000
 21
378.808136000
 31
0.000000000
  0
LINE
  5
A13
330
A02
100
AcDbEntity
  8
Sketch001
100
AcDbLine
 10
-196.586166000
 20
378.808136000
 30
0.000000000
 11
-145.524292000
 21
384.771576000
 31
0.000000000
  0
LINE
  5
A14
330
A02
100
AcDbEntity
  8
Sketch001
100
AcDbLine
 10
-145.524292000
 20
384.771576000
 30
0.000000000
 11
-95.207817000
 21
388.498718000
 31
0.000000000
  0
LINE
  5
A15
330
A02
100
AcDbEntity
  8
Sketch001
100
AcDbLine
 10
-95.207817000
 20
388.498718000
 30
0.000000000
 11
-53.091095000
 21
388.498718000
 31
0.000000000
  0
LINE
  5
A16
330
A02
100
AcDbEntity
  8
Sketch001
100
AcDbLine
 10
-53.091095000
 20
388.498718000
 30
0.000000000
 11
-20.145432000
 21
388.498718000
 31
0.000000000
  0
LINE
  5
A17
330
A02
100
AcDbEntity
  8
Sketch001
100
AcDbLine
 10
-20.145432000
 20
388.498718000
 30
0.000000000
 11
30.171043000
 21
385.540009000
 31
0.000000000
  0
LINE
  5
A18
330
A02
100
AcDbEntity
  8
Sketch001
100
AcDbLine
 10
30.171043000
 20
385.540009000
 30
0.000000000
 11
90.923492000
 21
377.340271000
 31
0.000000000
  0
LINE
  5
A19
330
A02
100
AcDbEntity
  8
Sketch001
100
AcDbLine
 10
90.923492000
 20
377.340271000
 30
0.000000000
 11
139.376373000
 21
368.767822000
 31
0.000000000
  0
LINE
  5
A1A
330
A02
100
AcDbEntity
  8
Sketch001
100
AcDbLine
 10
139.376373000
 20
368.767822000
 30
0.000000000
 11
178.511429000
 21
359.822693000
 31
0.000000000
  0
LINE
  5
A1B
330
A02
100
AcDbEntity
  8
Sketch001
100
AcDbLine
 10
178.511429000
 20
359.822693000
 30
0.000000000
 11
218.202362000
 21
349.354919000
 31
0.000000000
  0
LINE
  5
A1C
330
A02
100
AcDbEntity
  8
Sketch001
100
AcDbLine
 10
218.202362000
 20
349.354919000
 30
0.000000000
 11
260.691803000
 21
335.937164000
 31
0.000000000
  0
LINE
  5
A1D
330
A02
100
AcDbEntity
  8
Sketch001
100
AcDbLine
 10
260.691803000
 20
335.937164000
 30
0.000000000
 11
300.944977000
 21
321.401306000
 31
0.000000000
  0
LINE
  5
A1E
330
A02
100
AcDbEntity
  8
Sketch001
100
AcDbLine
 10
300.944977000
 20
321.401306000
 30
0.000000000
 11
343.807129000
 21
303.138306000
 31
0.000000000
  0
LINE
  5
A1F
330
A02
100
AcDbEntity
  8
Sketch001
100
AcDbLine
 10
343.807129000
 20
303.138306000
 30
0.000000000
 11
377.527649000
 21
286.625671000
 31
0.000000000
  0
LINE
  5
A20
330
A02
100
AcDbEntity
  8
Sketch001
100
AcDbLine
 10
377.527649000
 20
286.625671000
 30
0.000000000
 11
412.935547000
 21
265.008209000
 31
0.000000000
  0
LINE
  5
A21
330
A02
100
AcDbEntity
  8
Sketch001
100
AcDbLine
 10
412.935547000
 20
265.008209000
 30
0.000000000
 11
436.789276000
 21
247.863358000
 31
0.000000000
  0
LINE
  5
A22
330
A02
100
AcDbEntity
  8
Sketch001
100
AcDbLine
 10
436.789276000
 20
247.863358000
 30
0.000000000
 11
454.306854000
 21
233.327484000
 31
0.000000000
  0
LINE
  5
A23
330
A02
100
AcDbEntity
  8
Sketch001
100
AcDbLine
 10
454.306854000
 20
233.327484000
 30
0.000000000
 11
466.846710000
 21
221.178833000
 31
0.000000000
  0
LINE
  5
A24
330
A02
100
AcDbEntity
  8
Sketch001
100
AcDbLine
 10
466.846710000
 20
221.178833000
 30
0.000000000
 11
480.551575000
 21
203.792068000
 31
0.000000000
  0
LINE
  5
A25
330
A02
100
AcDbEntity
  8
Sketch001
100
AcDbLine
 10
480.551575000
 20
203.792068000
 30
0.000000000
 11
488.733582000
 21
191.519073000
 31
0.000000000
  0
LINE
  5
A26
330
A02
100
AcDbEntity
  8
Sketch001
100
AcDbLine
 10
488.733582000
 20
191.519073000
 30
0.000000000
 11
494.665527000
 21
177.609665000
 31
0.000000000
  0
LINE
  5
A27
330
A02
100
AcDbEntity
  8
Sketch001
100
AcDbLine
 10
494.665527000
 20
177.609665000
 30
0.000000000
 11
499.779266000
 21
160.018356000
 31
0.000000000
  0
LINE
  5
A28
330
A02
100
AcDbEntity
  8
Sketch001
100
AcDbLine
 10
499.779266000
 20
160.018356000
 30
0.000000000
 11
501.415680000
 21
148.563553000
 31
0.000000000
  0
LINE
  5
A29
330
A02
100
AcDbEntity
  8
Sketch001
100
AcDbLine
 10
501.415680000
 20
148.563553000
 30
0.000000000
 11
501.415680000
 21
133.338470000
 31
0.000000000
  0
LINE
  5
A2A
330
A02
100
AcDbEntity
  8
Sketch001
100
AcDbLine
 10
501.415680000
 20
133.338470000
 30
0.000000000
 11
499.175812000
 21
120.860916000
 31
0.000000000
  0
LINE
  5
A2B
330
A02
100
AcDbEntity
  8
Sketch001
100
AcDbLine
 10
499.175812000
 20
120.860916000
 30
0.000000000
 11
494.062073000
 21
107.156059000
 31
0.000000000
  0
LINE
  5
A2C
330
A02
100
AcDbEntity
  8
Sketch001
100
AcDbLine
 10
494.062073000
 20
107.156059000
 30
0.000000000
 11
486.698273000
 21
95.905807000
 31
0.000000000
  0
LINE
  5
A2D
330
A02
100
AcDbEntity
  8
Sketch001
100
AcDbLine
 10
486.698273000
 20
95.905807000
 30
0.000000000
 11
477.084412000
 21
85.064651000
 31
0.000000000
  0
LINE
  5
A2E
330
A02
100
AcDbEntity
  8
Sketch001
100
AcDbLine
 10
477.084412000
 20
85.064651000
 30
0.000000000
 11
466.447815000
 21
76.473549000
 31
0.000000000
  0
LINE
  5
A2F
330
A02
100
AcDbEntity
  8
Sketch001
100
AcDbLine
 10
466.447815000
 20
76.473549000
 30
0.000000000
 11
451.515656000
 21
67.064247000
 31
0.000000000
  0
LINE
  5
A30
330
A02
100
AcDbEntity
  8
Sketch001
100
AcDbLine
 10
451.515656000
 20
67.064247000
 30
0.000000000
 11
435.969849000
 21
58.882240000
 31
0.000000000
  0
LINE
  5
A31
330
A02
100
AcDbEntity
  8
Sketch001
100
AcDbLine
 10
435.969849000
 20
58.882240000
 30
0.000000000
 11
420.578613000
 21
53.291233000
 31
0.000000000
  0
LINE
  5
A32
330
A02
100
AcDbEntity
  8
Sketch001
100
AcDbLine
 10
420.578613000
 20
53.291233000
 30
0.000000000
 11
402.987305000
 21
45.518326000
 31
0.000000000
  0
LINE
  5
A33
330
A02
100
AcDbEntity
  8
Sketch001
100
AcDbLine
 10
402.987305000
 20
45.518326000
 30
0.000000000
 11
383.350494000
 21
36.927227000
 31
0.000000000
  0
LINE
  5
A34
330
A02
100
AcDbEntity
  8
Sketch001
100
AcDbLine
 10
383.350494000
 20
36.927227000
 30
0.000000000
 11
369.441101000
 21
28.745224000
 31
0.000000000
  0
LINE
  5
A35
330
A02
100
AcDbEntity
  8
Sketch001
100
AcDbLine
 10
369.441101000
 20
28.745224000
 30
0.000000000
 11
355.940796000
 21
17.904070000
 31
0.000000000
  0
LINE
  5
A36
330
A02
100
AcDbEntity
  8
Sketch001
100
AcDbLine
 10
355.940796000
 20
17.904070000
 30
0.000000000
 11
345.672913000
 21
6.983109000
 31
0.000000000
  0
LINE
  5
A37
330
A02
100
AcDbEntity
  8
Sketch001
100
AcDbLine
 10
345.672913000
 20
6.983109000
 30
0.000000000
 11
337.695465000
 21
-5.289896000
 31
0.000000000
  0
LINE
  5
A38
330
A02
100
AcDbEntity
  8
Sketch001
100
AcDbLine
 10
337.695465000
 20
-5.289896000
 30
0.000000000
 11
332.786255000
 21
-17.358347000
 31
0.000000000
  0
LINE
  5
A39
330
A02
100
AcDbEntity
  8
Sketch001
100
AcDbLine
 10
332.786255000
 20
-17.358347000
 30
0.000000000
 11
330.536224000
 21
-30.245003000
 31
0.000000000
  0
LINE
  5
A3A
330
A02
100
AcDbEntity
  8
Sketch001
100
AcDbLine
 10
330.536224000
 20
-30.245003000
 30
0.000000000
 11
330.536224000
 21
-43.812485000
 31
0.000000000
  0
LINE
  5
A3B
330
A02
100
AcDbEntity
  8
Sketch001
100
AcDbLine
 10
330.536224000
 20
-43.812485000
 30
0.000000000
 11
332.982544000
 21
-57.517342000
 31
0.000000000
  0
LINE
  5
A3C
330
A02
100
AcDbEntity
  8
Sketch001
100
AcDbLine
 10
332.982544000
 20
-57.517342000
 30
0.000000000
 11
337.687195000
 21
-69.585800000
 31
0.000000000
  0
LINE
  5
A3D
330
A02
100
AcDbEntity
  8
Sketch001
100
AcDbLine
 10
337.687195000
 20
-69.585800000
 30
0.000000000
 11
344.028259000
 21
-81.245148000
 31
0.000000000
  0
LINE
  5
A3E
330
A02
100
AcDbEntity
  8
Sketch001
100
AcDbLine
 10
344.028259000
 20
-81.245148000
 30
0.000000000
 11
352.633392000
 21
-92.559288000
 31
0.000000000
  0
LINE
  5
A3F
330
A02
100
AcDbEntity
  8
Sketch001
100
AcDbLine
 10
352.633392000
 20
-92.559288000
 30
0.000000000
 11
362.247253000
 21
-101.354942000
 31
0.000000000
  0
LINE
  5
A40
330
A02
100
AcDbEntity
  8
Sketch001
100
AcDbLine
 10
362.247253000
 20
-101.354942000
 30
0.000000000
 11
372.270203000
 21
-108.105095000
 31
0.000000000
  0
LINE
  5
A41
330
A02
100
AcDbEntity
  8
Sketch001
100
AcDbLine
 10
372.270203000
 20
-108.105095000
 30
0.000000000
 11
382.702240000
 21
-114.037041000
 31
0.000000000
  0
LINE
  5
A42
330
A02
100
AcDbEntity
  8
Sketch001
100
AcDbLine
 10
382.702240000
 20
-114.037041000
 30
0.000000000
 11
394.157043000
 21
-118.128044000
 31
0.000000000
  0
LINE
  5
A43
330
A02
100
AcDbEntity
  8
Sketch001
100
AcDbLine
 10
394.157043000
 20
-118.128044000
 30
0.000000000
 11
409.907410000
 21
-121.605400000
 31
0.000000000
  0
LINE
  5
A44
330
A02
100
AcDbEntity
  8
Sketch001
100
AcDbLine
 10
409.907410000
 20
-121.605400000
 30
0.000000000
 11
424.635010000
 21
-123.446350000
 31
0.000000000
  0
LINE
  5
A45
330
A02
100
AcDbEntity
  8
Sketch001
100
AcDbLine
 10
424.635010000
 20
-123.446350000
 30
0.000000000
 11
439.214203000
 21
-124.708755000
 31
0.000000000
  0
LINE
  5
A46
330
A02
100
AcDbEntity
  8
Sketch001
100
AcDbLine
 10
439.214203000
 20
-124.708755000
 30
0.000000000
 11
454.350922000
 21
-126.345154000
 31
0.000000000
  0
LINE
  5
A47
330
A02
100
AcDbEntity
  8
Sketch001
100
AcDbLine
 10
454.350922000
 20
-126.345154000
 30
0.000000000
 11
468.260315000
 21
-128.390656000
 31
0.000000000
  0
LINE
  5
A48
330
A02
100
AcDbEntity
  8
Sketch001
100
AcDbLine
 10
468.260315000
 20
-128.390656000
 30
0.000000000
 11
484.853271000
 21
-131.446320000
 31
0.000000000
  0
LINE
  5
A49
330
A02
100
AcDbEntity
  8
Sketch001
100
AcDbLine
 10
484.853271000
 20
-131.446320000
 30
0.000000000
 11
498.753387000
 21
-135.130692000
 31
0.000000000
  0
LINE
  5
A4A
330
A02
100
AcDbEntity
  8
Sketch001
100
AcDbLine
 10
498.753387000
 20
-135.130692000
 30
0.000000000
 11
514.663147000
 21
-140.154831000
 31
0.000000000
  0
LINE
  5
A4B
330
A02
100
AcDbEntity
  8
Sketch001
100
AcDbLine
 10
514.663147000
 20
-140.154831000
 30
0.000000000
 11
529.400635000
 21
-146.686218000
 31
0.000000000
  0
LINE
  5
A4C
330
A02
100
AcDbEntity
  8
Sketch001
100
AcDbLine
 10
529.400635000
 20
-146.686218000
 30
0.000000000
 11
544.873352000
 21
-155.943237000
 31
0.000000000
  0
LINE
  5
A4D
330
A02
100
AcDbEntity
  8
Sketch001
100
AcDbLine
 10
544.873352000
 20
-155.943237000
 30
0.000000000
 11
555.089111000
 21
-163.981873000
 31
0.000000000
  0
LINE
  5
A4E
330
A02
100
AcDbEntity
  8
Sketch001
100
AcDbLine
 10
555.089111000
 20
-163.981873000
 30
0.000000000
 11
564.132568000
 21
-174.867508000
 31
0.000000000
  0
LINE
  5
A4F
330
A02
100
AcDbEntity
  8
Sketch001
100
AcDbLine
 10
564.132568000
 20
-174.867508000
 30
0.000000000
 11
570.848694000
 21
-184.794220000
 31
0.000000000
  0
LINE
  5
A50
330
A02
100
AcDbEntity
  8
Sketch001
100
AcDbLine
 10
570.848694000
 20
-184.794220000
 30
0.000000000
 11
574.365601000
 21
-196.014801000
 31
0.000000000
  0
LINE
  5
A51
330
A02
100
AcDbEntity
  8
Sketch001
100
AcDbLine
 10
574.365601000
 20
-196.014801000
 30
0.000000000
 11
575.537903000
 21
-206.398041000
 31
0.000000000
  0
LINE
  5
A52
330
A02
100
AcDbEntity
  8
Sketch001
100
AcDbLine
 10
575.537903000
 20
-206.398041000
 30
0.000000000
 11
576.040283000
 21
-214.101715000
 31
0.000000000
  0
LINE
  5
A53
330
A02
100
AcDbEntity
  8
Sketch001
100
AcDbLine
 10
576.040283000
 20
-214.101715000
 30
0.000000000
 11
576.040283000
 21
-221.302994000
 31
0.000000000
  0
LINE
  5
A54
330
A02
100
AcDbEntity
  8
Sketch001
100
AcDbLine
 10
576.040283000
 20
-221.302994000
 30
0.000000000
 11
574.366394000
 21
-233.244324000
 31
0.000000000
  0
LINE
  5
A55
330
A02
100
AcDbEntity
  8
Sketch001
100
AcDbLine
 10
574.366394000
 20
-233.244324000
 30
0.000000000
 11
571.184387000
 21
-242.455261000
 31
0.000000000
  0
LINE
  5
A56
330
A02
100
AcDbEntity
  8
Sketch001
100
AcDbLine
 10
571.184387000
 20
-242.455261000
 30
0.000000000
 11
566.327759000
 21
-252.503555000
 31
0.000000000
  0
LINE
  5
A57
330
A02
100
AcDbEntity
  8
Sketch001
100
AcDbLine
 10
566.327759000
 20
-252.503555000
 30
0.000000000
 11
557.111755000
 21
-266.621399000
 31
0.000000000
  0
LINE
  5
A58
330
A02
100
AcDbEntity
  8
Sketch001
100
AcDbLine
 10
557.111755000
 20
-266.621399000
 30
0.000000000
 11
545.388733000
 21
-280.521545000
 31
0.000000000
  0
LINE
  5
A59
330
A02
100
AcDbEntity
  8
Sketch001
100
AcDbLine
 10
545.388733000
 20
-280.521545000
 30
0.000000000
 11
530.510620000
 21
-294.580872000
 31
0.000000000
  0
LINE
  5
A5A
330
A02
100
AcDbEntity
  8
Sketch001
100
AcDbLine
 10
530.510620000
 20
-294.580872000
 30
0.000000000
 11
515.373901000
 21
-306.853882000
 31
0.000000000
  0
LINE
  5
A5B
330
A02
100
AcDbEntity
  8
Sketch001
100
AcDbLine
 10
515.373901000
 20
-306.853882000
 30
0.000000000
 11
490.623352000
 21
-323.217896000
 31
0.000000000
  0
LINE
  5
A5C
330
A02
100
AcDbEntity
  8
Sketch001
100
AcDbLine
 10
490.623352000
 20
-323.217896000
 30
0.000000000
 11
458.509003000
 21
-340.604645000
 31
0.000000000
  0
LINE
  5
A5D
330
A02
100
AcDbEntity
  8
Sketch001
100
AcDbLine
 10
458.509003000
 20
-340.604645000
 30
0.000000000
 11
426.803741000
 21
-353.900421000
 31
0.000000000
  0
LINE
  5
A5E
330
A02
100
AcDbEntity
  8
Sketch001
100
AcDbLine
 10
426.803741000
 20
-353.900421000
 30
0.000000000
 11
383.381439000
 21
-369.542999000
 31
0.000000000
  0
LINE
  5
A5F
330
A02
100
AcDbEntity
  8
Sketch001
100
AcDbLine
 10
383.381439000
 20
-369.542999000
 30
0.000000000
 11
344.016693000
 21
-379.613037000
 31
0.000000000
  0
LINE
  5
A60
330
A02
100
AcDbEntity
  8
Sketch001
100
AcDbLine
 10
344.016693000
 20
-379.613037000
 30
0.000000000
 11
293.056183000
 21
-388.767609000
 31
0.000000000
  0
LINE
  5
A61
330
A02
100
AcDbEntity
  8
Sketch001
100
AcDbLine
 10
293.056183000
 20
-388.767609000
 30
0.000000000
 11
242.400803000
 21
-393.955200000
 31
0.000000000
  0
LINE
  5
A62
330
A02
100
AcDbEntity
  8
Sketch001
100
AcDbLine
 10
242.400803000
 20
-393.955200000
 30
0.000000000
 11
203.036102000
 21
-396.396454000
 31
0.000000000
  0
LINE
  5
A63
330
A02
100
AcDbEntity
  8
Sketch001
100
AcDbLine
 10
203.036102000
 20
-396.396454000
 30
0.000000000
 11
147.561127000
 21
-396.396454000
 31
0.000000000
  0
LINE
  5
A64
330
A02
100
AcDbEntity
  8
Sketch001
100
AcDbLine
 10
147.561127000
 20
-396.396454000
 30
0.000000000
 11
102.398521000
 21
-393.046906000
 31
0.000000000
  0
LINE
  5
A65
330
A02
100
AcDbEntity
  8
Sketch001
100
AcDbLine
 10
102.398521000
 20
-393.046906000
 30
0.000000000
 11
51.437984000
 21
-387.554169000
 31
0.000000000
  0
LINE
  5
A66
330
A02
100
AcDbEntity
  8
Sketch001
100
AcDbLine
 10
51.437984000
 20
-387.554169000
 30
0.000000000
 11
11.157810000
 21
-380.535645000
 31
0.000000000
  0
LINE
  5
A67
330
A02
100
AcDbEntity
  8
Sketch001
100
AcDbLine
 10
11.157810000
 20
-380.535645000
 30
0.000000000
 11
-34.615112000
 21
-371.075897000
 31
0.000000000
  0
LINE
  5
A68
330
A02
100
AcDbEntity
  8
Sketch001
100
AcDbLine
 10
-34.615112000
 20
-371.075897000
 30
0.000000000
 11
-76.811386000
 21
-360.665283000
 31
0.000000000
  0
LINE
  5
A69
330
A02
100
AcDbEntity
  8
Sketch001
100
AcDbLine
 10
-76.811386000
 20
-360.665283000
 30
0.000000000
 11
-125.635841000
 21
-345.407654000
 31
0.000000000
  0
LINE
  5
A6A
330
A02
100
AcDbEntity
  8
Sketch001
100
AcDbLine
 10
-125.635841000
 20
-345.407654000
 30
0.000000000
 11
-163.779938000
 21
-330.760315000
 31
0.000000000
  0
LINE
  5
A6B
330
A02
100
AcDbEntity
  8
Sketch001
100
AcDbLine
 10
-163.779938000
 20
-330.760315000
 30
0.000000000
 11
-208.779663000
 21
-312.678345000
 31
0.000000000
  0
LINE
  5
A6C
330
A02
100
AcDbEntity
  8
Sketch001
100
AcDbLine
 10
-208.779663000
 20
-312.678345000
 30
0.000000000
 11
-261.876251000
 21
-290.097015000
 31
0.000000000
  0
LINE
  5
A6D
330
A02
100
AcDbEntity
  8
Sketch001
100
AcDbLine
 10
-261.876251000
 20
-290.097015000
 30
0.000000000
 11
-302.156433000
 21
-269.041473000
 31
0.000000000
  0
LINE
  5
A6E
330
A02
100
AcDbEntity
  8
Sketch001
100
AcDbLine
 10
-302.156433000
 20
-269.041473000
 30
0.000000000
 11
-340.713837000
 21
-247.909821000
 31
0.000000000
  0
LINE
  5
A6F
330
A02
100
AcDbEntity
  8
Sketch001
100
AcDbLine
 10
-340.713837000
 20
-247.909821000
 30
0.000000000
 11
-385.266144000
 21
-220.751221000
 31
0.000000000
  0
LINE
  5
A70
330
A02
100
AcDbEntity
  8
Sketch001
100
AcDbLine
 10
-385.266144000
 20
-220.751221000
 30
0.000000000
 11
-420.479462000
 21
-194.110245000
 31
0.000000000
  0
LINE
  5
A71
330
A02
100
AcDbEntity
  8
Sketch001
100
AcDbLine
 10
-420.479462000
 20
-194.110245000
 30
0.000000000
 11
-450.384430000
 21
-168.477402000
 31
0.000000000
  0
LINE
  5
A72
330
A02
100
AcDbEntity
  8
Sketch001
100
AcDbLine
 10
-450.384430000
 20
-168.477402000
 30
0.000000000
 11
-483.340942000
 21
-138.877579000
 31
0.000000000
  0
LINE
  5
A73
330
A02
100
AcDbEntity
  8
Sketch001
100
AcDbLine
 10
-483.340942000
 20
-138.877579000
 30
0.000000000
 11
-512.940796000
 21
-104.700447000
 31
0.000000000
  0
LINE
  5
A74
330
A02
100
AcDbEntity
  8
Sketch001
100
AcDbLine
 10
-512.940796000
 20
-104.700447000
 30
0.000000000
 11
-534.911804000
 21
-78.152161000
 31
0.000000000
  0
LINE
  5
A75
330
A02
100
AcDbEntity
  8
Sketch001
100
AcDbLine
 10
-534.911804000
 20
-78.152161000
 30
0.000000000
 11
-549.935364000
 21
-54.809841000
 31
0.000000000
  0
LINE
  5
A76
330
A02
100
AcDbEntity
  8
Sketch001
100
AcDbLine
 10
-549.935364000
 20
-54.809841000
 30
0.000000000
 11
-565.193054000
 21
-26.430630000
 31
0.000000000
  0
LINE
  5
A77
330
A02
100
AcDbEntity
  8
Sketch001
100
AcDbLine
 10
-565.193054000
 20
-26.430630000
 30
0.000000000
 11
-575.263062000
 21
-5.375084000
 31
0.000000000
  0
LINE
  5
A78
330
A02
100
AcDbEntity
  8
Sketch001
100
AcDbLine
 10
-575.263062000
 20
-5.375084000
 30
0.000000000
 11
-582.891907000
 21
20.562904000
 31
0.000000000
  0
LINE
  5
A79
330
A02
100
AcDbEntity
  8
Sketch001
100
AcDbLine
 10
-582.891907000
 20
20.562904000
 30
0.000000000
 11
-587.469177000
 21
45.280289000
 31
0.000000000
  0
LINE
  5
A7A
330
A02
100
AcDbEntity
  8
Sketch001
100
AcDbLine
 10
-587.469177000
 20
45.280289000
 30
0.000000000
 11
-589.308716000
 21
66.452614000
 31
0.000000000
  0
LINE
  5
A7B
330
A02
100
AcDbEntity
  8
Sketch001
100
AcDbLine
 10
-589.308716000
 20
66.452614000
 30
0.000000000
 11
-588.088135000
 21
89.949387000
 31
0.000000000
  0
LINE
  5
A7C
330
A02
100
AcDbEntity
  8
Sketch001
100
AcDbLine
 10
-588.088135000
 20
89.949387000
 30
0.000000000
 11
-585.646912000
 21
109.784325000
 31
0.000000000
  0
LINE
  5
A7D
330
A02
100
AcDbEntity
  8
Sketch001
100
AcDbLine
 10
-585.646912000
 20
109.784325000
 30
0.000000000
 11
-579.695312000
 21
136.732346000
 31
0.000000000
  0
LWPOLYLINE
  5
A7E
330
A02
100
AcDbEntity
100
AcDbPolyline
  8
Sketch001
 90
104
 70
1
 43
0
 10
333.571259000
 20
128.994705000
 10
334.547248036
 20
133.895718524
 10
334.960110877
 20
138.876000213
 10
334.822293027
 20
143.871675358
 10
334.162035317
 20
148.825711593
 10
333.018270308
 20
153.691206335
 10
331.435356989
 20
158.432338352
 10
329.458775980
 20
163.023580964
 10
327.132196276
 20
167.448001920
 10
324.495812322
 20
171.695319188
 10
321.585630153
 20
175.760107506
 10
318.433363918
 20
179.640320891
 10
315.066675295
 20
183.336156299
 10
311.509574945
 20
186.849217968
 10
307.782876487
 20
190.181921400
 10
303.904643003
 20
193.337077506
 10
299.890597108
 20
196.317607278
 10
295.754483615
 20
199.126348639
 10
291.508383504
 20
201.765927194
 10
287.162982663
 20
204.238670486
 10
282.727800871
 20
206.546551359
 10
278.211386966
 20
208.691150279
 10
273.621485955
 20
210.673629530
 10
268.965183317
 20
212.494714309
 10
264.249031135
 20
214.154677216
 10
259.479160181
 20
215.653323611
 10
254.661381581
 20
216.989976038
 10
249.801281357
 20
218.163456315
 10
244.904310932
 20
219.172064242
 10
239.975876556
 20
220.013552065
 10
235.021430686
 20
220.685094003
 10
230.046568527
 20
221.183250265
 10
225.057133290
 20
221.503925166
 10
220.059334241
 20
221.642319174
 10
215.059882379
 20
221.592875086
 10
210.066149538
 20
221.349219151
 10
205.086357924
 20
220.904098971
 10
200.129808623
 20
220.249321605
 10
195.207159225
 20
219.375697896
 10
190.330762402
 20
218.273003074
 10
185.515078376
 20
216.929969886
 10
180.777173916
 20
215.334339844
 10
176.137316788
 20
213.473011748
 10
171.619664199
 20
211.332345377
 10
167.253021140
 20
208.898702052
 10
163.071601480
 20
206.159329160
 10
159.115651674
 20
203.103712134
 10
155.431688548
 20
199.725501143
 10
152.071972294
 20
196.025030062
 10
149.092740945
 20
192.012233264
 10
146.550796270
 20
187.709416652
 10
144.498410386
 20
183.152955438
 10
142.977260366
 20
178.392852661
 10
142.012907653
 20
173.489534922
 10
141.611610658
 20
168.508304415
 10
141.760554951
 20
163.512943553
 10
142.431223992
 20
158.560300213
 10
143.584521724
 20
153.697050301
 10
145.176026906
 20
148.958789851
 10
147.160271461
 20
144.370848970
 10
149.493645241
 20
139.950002866
 10
152.136035759
 20
135.706416007
 10
155.051526189
 20
131.645430084
 10
158.208489345
 20
127.769034369
 10
161.579343372
 20
124.076995305
 10
165.140148309
 20
120.567686579
 10
168.870151794
 20
117.238680838
 10
172.751343100
 20
114.087162384
 10
176.768043975
 20
111.110210250
 10
180.906546996
 20
108.304989770
 10
185.154802583
 20
105.668880755
 10
189.502151130
 20
103.199562493
 10
193.939094789
 20
100.895069921
 10
198.457102934
 20
98.753830982
 10
203.048445574
 20
96.774692249
 10
207.706049474
 20
94.956937725
 10
212.423372348
 20
93.300304317
 10
217.194291025
 20
91.804996477
 10
222.012999971
 20
90.471701815
 10
226.873916849
 20
89.301609071
 10
231.771592076
 20
88.296429484
 10
236.700619387
 20
87.458422424
 10
241.655544372
 20
86.790425975
 10
246.630767805
 20
86.295893038
 10
251.620440158
 20
85.978933331
 10
256.618343242
 20
85.844361478
 10
261.617754103
 20
85.897750945
 10
266.611285375
 20
86.145493000
 10
271.590695021
 20
86.594858858
 10
276.546656926
 20
87.254061516
 10
281.468482133
 20
88.132311210
 10
286.343778875
 20
89.239854327
 10
291.158038440
 20
90.587979379
 10
295.894134271
 20
92.188964187
 10
300.531725508
 20
94.055924820
 10
305.046566745
 20
96.202507922
 10
309.409748764
 20
98.642344205
 10
313.586938542
 20
101.388155546
 10
317.537760575
 20
104.450392059
 10
321.215570616
 20
107.835292860
 10
324.568003310
 20
111.542355925
 10
327.538768310
 20
115.561417416
 10
330.071100749
 20
119.869892296
 10
332.112884877
 20
124.431110311
  0
ENDSEC
  0
SECTION
  2
OBJECTS
  0
DICTIONARY
  5
F000
330
0
100
AcDbDictionary
  3
ACAD_GROUP
350
F001
  0
DICTIONARY
  5
F001
330
F000
100
AcDbDictionary
  0
ENDSEC
  0
EOF