  0
SECTION
  2
HEADER
  9
$ACADVER
  1
AC1009
  9
$INSBASE
 10
0.0
 20
0.0
 30
0.0
  9
$EXTMIN
 10
0.0
 20
0.0
 30
0.0
  9
$EXTMAX
 10
0.0
 20
0.0
 30
0.0
  0
ENDSEC
  0
SECTION
  2
TABLES
  0
TABLE
  2
VPORT
 70
1
  0
VPORT
  2
*ACTIVE
 70
0
 10
0.0
 20
0.0
 11
1.0
 21
1.0
 12
-5.0
 22
1.0
 13
0.0
 23
0.0
 14
0.1
 24
0.1
 15
0.1
 25
0.1
 16
0.0
 26
0.0
 36
1.0
 17
0.0
 27
0.0
 37
0.0
 40
10.0
 41
1.0
 42
50.0
 43
0.0
 44
0.0
 50
0.0
 51
0.0
 71
0
 72
100
 73
1
 74
1
 75
0
 76
0
 77
0
 78
0
  0
ENDTAB
  0
TABLE
  2
LTYPE
 70
8
  0
LTYPE
  2
CONTINUOUS
 70
0
  3
Solid line
 72
65
 73
0
 40
0.0
  0
LTYPE
  2
DOT
 70
0
  3
. . . . . . .
 72
65
 73
2
 40
0.25
 49
0.0
 49
-0.25
  0
LTYPE
  2
DASHED
 70
0
  3
__ __ __ __ __
 72
65
 73
2
 40
0.8
 49
0.5
 49
-0.3
  0
LTYPE
  2
DASHDOT
 70
0
  3
__ . __ . __ .
 72
65
 73
4
 40
1.0
 49
0.5
 49
-0.25
 49
0.0
 49
-0.25
  0
LTYPE
  2
DIVIDE
 70
0
  3
____ . . ____ . . 
 72
65
 73
6
 40
1.25
 49
0.5
 49
-0.25
 49
0.0
 49
-0.25
 49
0.0
 49
-0.25
  0
LTYPE
  2
BORDER
 70
0
  3
__ __ . __ __ . 
 72
65
 73
6
 40
1.75
 49
0.5
 49
-0.25
 49
0.5
 49
-0.25
 49
0.0
 49
-0.25
  0
LTYPE
  2
HIDDEN
 70
0
  3
__ __ __ __ __
 72
65
 73
2
 40
0.4
 49
0.25
 49
-0.25
  0
LTYPE
  2
CENTER
 70
0
  3
____ _ ____ _ __
 72
65
 73
4
 40
2.0
 49
1.25
 49
-0.25
 49
0.25
 49
-0.25
  0
ENDTAB
  0
TABLE
  2
LAYER
 70
1
  0
LAYER
  2
PYDXF
 70
64
 62
7
  6
continuous
  0
ENDTAB
  0
TABLE
  2
STYLE
 70
1
  0
STYLE
  2
STANDARD
 70
0
 40
0
 41
1.0
 50
0.0
 71
0
 42
1
 3
ARIAL.TTF
 4

  0
ENDTAB
  0
TABLE
  2
VIEW
 70
1
  0
VIEW
  2
BF_TOPVIEW
 70
0
 40
120.0
 10
0.0
 20
0.0
 41
200.0
 11
0.0
 21
0.0
 31
1.0
 12
0.0
 22
0.0
 32
0.0
 42
50.0
 43
0.0
 44
0.0
 50
0.0
 71
0
  0
ENDTAB
  0
ENDSEC
  0
SECTION
  2
BLOCKS
  0
ENDSEC
  0
SECTION
  2
ENTITIES
  0
LINE
  8
0
 10
-122.0
 20
-61.0
 30
0.0
 11
-122.0
 21
61.000003814697266
 31
0.0
  0
LINE
  8
0
 10
-122.0
 20
-61.0
 30
0.0
 11
122.0
 21
-61.000003814697266
 31
0.0
  0
LINE
  8
0
 10
122.0
 20
-61.000003814697266
 30
0.0
 11
122.0
 21
61.0
 31
0.0
  0
LINE
  8
0
 10
-122.0
 20
61.000003814697266
 30
0.0
 11
122.0
 21
61.0
 31
0.0
  0
LINE
  8
0
 10
78.20000457763672
 20
-8.5
 30
1.862645149230957e-06
 11
78.20000457763672
 21
-12.25
 31
1.862645149230957e-06
  0
LINE
  8
0
 10
78.20000457763672
 20
-18.500001907348633
 30
1.862645149230957e-06
 11
78.20000457763672
 21
-14.75000286102295
 31
1.862645149230957e-06
  0
LINE
  8
0
 10
78.20000457763672
 20
-14.75000286102295
 30
1.862645149230957e-06
 11
69.70000457763672
 21
-14.75000286102295
 31
1.862645149230957e-06
  0
LINE
  8
0
 10
78.20000457763672
 20
-12.25
 30
1.862645149230957e-06
 11
69.70000457763672
 21
-12.25
 31
1.862645149230957e-06
  0
LINE
  8
0
 10
78.20000457763672
 20
-8.5
 30
1.862645149230957e-06
 11
8.200007438659668
 21
-8.500003814697266
 31
1.862645149230957e-06
  0
LINE
  8
0
 10
69.70000457763672
 20
-14.75000286102295
 30
1.862645149230957e-06
 11
69.70000457763672
 21
-12.25
 31
1.862645149230957e-06
  0
LINE
  8
0
 10
78.20000457763672
 20
-18.500001907348633
 30
1.862645149230957e-06
 11
8.200008392333984
 21
-18.5000057220459
 31
1.862645149230957e-06
  0
LINE
  8
0
 10
8.200008392333984
 20
-18.5000057220459
 30
1.862645149230957e-06
 11
8.200007438659668
 21
-8.500003814697266
 31
1.862645149230957e-06
  0
LINE
  8
0
 10
-121.49999237060547
 20
-60.5
 30
0.0
 11
7.700019836425781
 21
-60.499996185302734
 31
0.0
  0
LINE
  8
0
 10
-121.49999237060547
 20
-60.5
 30
0.0
 11
-121.49999237060547
 21
49.20000076293945
 31
0.0
  0
LINE
  8
0
 10
-121.49999237060547
 20
49.20000076293945
 30
0.0
 11
7.700014591217041
 21
49.20000457763672
 31
0.0
  0
LINE
  8
0
 10
7.700019836425781
 20
-60.499996185302734
 30
0.0
 11
7.700014591217041
 21
49.20000457763672
 31
0.0
  0
LINE
  8
0
 10
-89.79998779296875
 20
17.500003814697266
 30
0.0
 11
-89.79998779296875
 21
-28.800003051757812
 31
0.0
  0
LINE
  8
0
 10
-89.79998779296875
 20
17.500003814697266
 30
0.0
 11
-23.99998664855957
 21
17.5
 31
0.0
  0
LINE
  8
0
 10
-23.99998664855957
 20
17.5
 30
0.0
 11
-23.999984741210938
 21
-28.80000114440918
 31
0.0
  0
LINE
  8
0
 10
-89.79998779296875
 20
-28.800003051757812
 30
0.0
 11
-23.999984741210938
 21
-28.80000114440918
 31
0.0
  0
LINE
  8
0
 10
78.20000457763672
 20
-60.499996185302734
 30
1.862645149230957e-06
 11
8.200007438659668
 21
-60.5
 31
1.862645149230957e-06
  0
LINE
  8
0
 10
78.20000457763672
 20
-60.499996185302734
 30
1.862645149230957e-06
 11
78.20000457763672
 21
-56.749996185302734
 31
1.862645149230957e-06
  0
LINE
  8
0
 10
78.20000457763672
 20
-56.749996185302734
 30
1.862645149230957e-06
 11
69.70000457763672
 21
-56.749996185302734
 31
1.862645149230957e-06
  0
LINE
  8
0
 10
69.70000457763672
 20
-56.749996185302734
 30
1.862645149230957e-06
 11
69.70000457763672
 21
-54.249996185302734
 31
1.862645149230957e-06
  0
LINE
  8
0
 10
69.70000457763672
 20
-54.249996185302734
 30
1.862645149230957e-06
 11
78.20000457763672
 21
-54.249996185302734
 31
1.862645149230957e-06
  0
LINE
  8
0
 10
78.20000457763672
 20
-54.249996185302734
 30
1.862645149230957e-06
 11
78.20000457763672
 21
-50.499996185302734
 31
1.862645149230957e-06
  0
LINE
  8
0
 10
78.20000457763672
 20
-50.499996185302734
 30
1.862645149230957e-06
 11
8.200006484985352
 21
-50.5
 31
1.862645149230957e-06
  0
LINE
  8
0
 10
8.200007438659668
 20
-60.5
 30
1.862645149230957e-06
 11
8.200006484985352
 21
-50.5
 31
1.862645149230957e-06
  0
LINE
  8
0
 10
78.20000457763672
 20
-50.000003814697266
 30
1.862645149230957e-06
 11
8.200006484985352
 21
-50.00000762939453
 31
1.862645149230957e-06
  0
LINE
  8
0
 10
78.20000457763672
 20
-50.000003814697266
 30
1.862645149230957e-06
 11
78.20000457763672
 21
-40.0
 31
1.862645149230957e-06
  0
LINE
  8
0
 10
78.20000457763672
 20
-40.0
 30
1.862645149230957e-06
 11
8.200006484985352
 21
-40.000003814697266
 31
1.862645149230957e-06
  0
LINE
  8
0
 10
8.200006484985352
 20
-50.00000762939453
 30
1.862645149230957e-06
 11
8.200006484985352
 21
-40.000003814697266
 31
1.862645149230957e-06
  0
LINE
  8
0
 10
78.20000457763672
 20
-39.5
 30
1.862645149230957e-06
 11
78.20000457763672
 21
-35.750003814697266
 31
1.862645149230957e-06
  0
LINE
  8
0
 10
78.20000457763672
 20
-39.5
 30
1.862645149230957e-06
 11
8.200006484985352
 21
-39.500003814697266
 31
1.862645149230957e-06
  0
LINE
  8
0
 10
8.200006484985352
 20
-39.500003814697266
 30
1.862645149230957e-06
 11
8.200005531311035
 21
-29.500001907348633
 31
1.862645149230957e-06
  0
LINE
  8
0
 10
8.200005531311035
 20
-29.500001907348633
 30
1.862645149230957e-06
 11
78.20000457763672
 21
-29.499998092651367
 31
1.862645149230957e-06
  0
LINE
  8
0
 10
78.20000457763672
 20
-29.499998092651367
 30
1.862645149230957e-06
 11
78.20000457763672
 21
-33.25
 31
1.862645149230957e-06
  0
LINE
  8
0
 10
78.20000457763672
 20
-33.25
 30
1.862645149230957e-06
 11
69.70000457763672
 21
-33.25
 31
1.862645149230957e-06
  0
LINE
  8
0
 10
69.70000457763672
 20
-33.25
 30
1.862645149230957e-06
 11
69.70000457763672
 21
-35.75
 31
1.862645149230957e-06
  0
LINE
  8
0
 10
78.20000457763672
 20
-35.750003814697266
 30
1.862645149230957e-06
 11
69.70000457763672
 21
-35.75
 31
1.862645149230957e-06
  0
LINE
  8
0
 10
78.20000457763672
 20
-28.999998092651367
 30
1.862645149230957e-06
 11
8.200008392333984
 21
-29.000001907348633
 31
1.862645149230957e-06
  0
LINE
  8
0
 10
78.20000457763672
 20
-28.999998092651367
 30
1.862645149230957e-06
 11
78.20000457763672
 21
-18.999996185302734
 31
1.862645149230957e-06
  0
LINE
  8
0
 10
78.20000457763672
 20
-18.999996185302734
 30
1.862645149230957e-06
 11
8.200008392333984
 21
-19.0
 31
1.862645149230957e-06
  0
LINE
  8
0
 10
8.200008392333984
 20
-29.000001907348633
 30
1.862645149230957e-06
 11
8.200008392333984
 21
-19.0
 31
1.862645149230957e-06
  0
LINE
  8
0
 10
78.20000457763672
 20
-8.0
 30
1.862645149230957e-06
 11
8.200007438659668
 21
-8.000003814697266
 31
1.862645149230957e-06
  0
LINE
  8
0
 10
78.20000457763672
 20
-8.0
 30
1.862645149230957e-06
 11
78.20000457763672
 21
2.0000014305114746
 31
1.862645149230957e-06
  0
LINE
  8
0
 10
78.20000457763672
 20
2.0000014305114746
 30
1.862645149230957e-06
 11
8.200007438659668
 21
1.9999984502792358
 31
1.862645149230957e-06
  0
LINE
  8
0
 10
8.200007438659668
 20
-8.000003814697266
 30
1.862645149230957e-06
 11
8.200007438659668
 21
1.9999984502792358
 31
1.862645149230957e-06
  0
LINE
  8
0
 10
78.20000457763672
 20
2.499994993209839
 30
1.862645149230957e-06
 11
78.20000457763672
 21
6.249994277954102
 31
1.862645149230957e-06
  0
LINE
  8
0
 10
78.20000457763672
 20
2.499994993209839
 30
1.862645149230957e-06
 11
8.200007438659668
 21
2.4999921321868896
 31
1.862645149230957e-06
  0
LINE
  8
0
 10
8.200007438659668
 20
2.4999921321868896
 30
1.862645149230957e-06
 11
8.200006484985352
 21
12.499994277954102
 31
1.862645149230957e-06
  0
LINE
  8
0
 10
8.200006484985352
 20
12.499994277954102
 30
1.862645149230957e-06
 11
78.20000457763672
 21
12.499998092651367
 31
1.862645149230957e-06
  0
LINE
  8
0
 10
78.20000457763672
 20
12.499998092651367
 30
1.862645149230957e-06
 11
78.20000457763672
 21
8.749998092651367
 31
1.862645149230957e-06
  0
LINE
  8
0
 10
78.20000457763672
 20
8.749998092651367
 30
1.862645149230957e-06
 11
69.70000457763672
 21
8.74999713897705
 31
1.862645149230957e-06
  0
LINE
  8
0
 10
69.70000457763672
 20
8.74999713897705
 30
1.862645149230957e-06
 11
69.70000457763672
 21
6.249995231628418
 31
1.862645149230957e-06
  0
LINE
  8
0
 10
78.20000457763672
 20
6.249994277954102
 30
1.862645149230957e-06
 11
69.70000457763672
 21
6.249995231628418
 31
1.862645149230957e-06
  0
LINE
  8
0
 10
78.20000457763672
 20
12.99999713897705
 30
1.862645149230957e-06
 11
8.200006484985352
 21
12.999993324279785
 31
1.862645149230957e-06
  0
LINE
  8
0
 10
78.20000457763672
 20
12.99999713897705
 30
1.862645149230957e-06
 11
78.20000457763672
 21
23.0
 31
1.862645149230957e-06
  0
LINE
  8
0
 10
78.20000457763672
 20
23.0
 30
1.862645149230957e-06
 11
8.200006484985352
 21
22.999996185302734
 31
1.862645149230957e-06
  0
LINE
  8
0
 10
8.200006484985352
 20
12.999993324279785
 30
1.862645149230957e-06
 11
8.200006484985352
 21
22.999996185302734
 31
1.862645149230957e-06
  0
LINE
  8
0
 10
78.20000457763672
 20
23.49999237060547
 30
1.862645149230957e-06
 11
8.200006484985352
 21
23.499988555908203
 31
1.862645149230957e-06
  0
LINE
  8
0
 10
78.20000457763672
 20
23.49999237060547
 30
1.862645149230957e-06
 11
78.20000457763672
 21
27.24999237060547
 31
1.862645149230957e-06
  0
LINE
  8
0
 10
78.20000457763672
 20
27.24999237060547
 30
1.862645149230957e-06
 11
69.70000457763672
 21
27.24999237060547
 31
1.862645149230957e-06
  0
LINE
  8
0
 10
69.70000457763672
 20
27.24999237060547
 30
1.862645149230957e-06
 11
69.70000457763672
 21
29.749996185302734
 31
1.862645149230957e-06
  0
LINE
  8
0
 10
69.70000457763672
 20
29.749996185302734
 30
1.862645149230957e-06
 11
78.20000457763672
 21
29.749996185302734
 31
1.862645149230957e-06
  0
LINE
  8
0
 10
78.20000457763672
 20
29.749996185302734
 30
1.862645149230957e-06
 11
78.20000457763672
 21
33.499996185302734
 31
1.862645149230957e-06
  0
LINE
  8
0
 10
78.20000457763672
 20
33.499996185302734
 30
1.862645149230957e-06
 11
8.200005531311035
 21
33.49999237060547
 31
1.862645149230957e-06
  0
LINE
  8
0
 10
8.200006484985352
 20
23.499988555908203
 30
1.862645149230957e-06
 11
8.200005531311035
 21
33.49999237060547
 31
1.862645149230957e-06
  0
LINE
  8
0
 10
78.20000457763672
 20
33.999996185302734
 30
1.862645149230957e-06
 11
8.200008392333984
 21
33.99999237060547
 31
1.862645149230957e-06
  0
LINE
  8
0
 10
78.20000457763672
 20
33.999996185302734
 30
1.862645149230957e-06
 11
78.20000457763672
 21
43.999996185302734
 31
1.862645149230957e-06
  0
LINE
  8
0
 10
78.20000457763672
 20
43.999996185302734
 30
1.862645149230957e-06
 11
8.200008392333984
 21
43.99999237060547
 31
1.862645149230957e-06
  0
LINE
  8
0
 10
8.200008392333984
 20
33.99999237060547
 30
1.862645149230957e-06
 11
8.200008392333984
 21
43.99999237060547
 31
1.862645149230957e-06
  0
LINE
  8
0
 10
-51.500003814697266
 20
49.70000076293945
 30
1.862645149230957e-06
 11
-51.500003814697266
 21
53.45000076293945
 31
1.862645149230957e-06
  0
LINE
  8
0
 10
-51.500003814697266
 20
49.70000076293945
 30
1.862645149230957e-06
 11
-121.5
 21
49.70000076293945
 31
1.862645149230957e-06
  0
LINE
  8
0
 10
-121.5
 20
49.70000076293945
 30
1.862645149230957e-06
 11
-121.5
 21
59.70000076293945
 31
1.862645149230957e-06
  0
LINE
  8
0
 10
-121.5
 20
59.70000076293945
 30
1.862645149230957e-06
 11
-51.500003814697266
 21
59.70000076293945
 31
1.862645149230957e-06
  0
LINE
  8
0
 10
-51.500003814697266
 20
59.70000076293945
 30
1.862645149230957e-06
 11
-51.500003814697266
 21
55.95000076293945
 31
1.862645149230957e-06
  0
LINE
  8
0
 10
-51.500003814697266
 20
55.95000076293945
 30
1.862645149230957e-06
 11
-60.00000762939453
 21
55.95000076293945
 31
1.862645149230957e-06
  0
LINE
  8
0
 10
-60.00000762939453
 20
55.95000076293945
 30
1.862645149230957e-06
 11
-60.00000762939453
 21
53.45000076293945
 31
1.862645149230957e-06
  0
LINE
  8
0
 10
-51.500003814697266
 20
53.45000076293945
 30
1.862645149230957e-06
 11
-60.00000762939453
 21
53.45000076293945
 31
1.862645149230957e-06
  0
LINE
  8
0
 10
19.000003814697266
 20
49.69999694824219
 30
1.862645149230957e-06
 11
-51.000003814697266
 21
49.69999313354492
 31
1.862645149230957e-06
  0
LINE
  8
0
 10
19.000003814697266
 20
49.69999694824219
 30
1.862645149230957e-06
 11
19.000003814697266
 21
59.70000076293945
 31
1.862645149230957e-06
  0
LINE
  8
0
 10
19.000003814697266
 20
59.70000076293945
 30
1.862645149230957e-06
 11
-51.000003814697266
 21
59.69999694824219
 31
1.862645149230957e-06
  0
LINE
  8
0
 10
-51.000003814697266
 20
49.69999313354492
 30
1.862645149230957e-06
 11
-51.000003814697266
 21
59.69999694824219
 31
1.862645149230957e-06
  0
LINE
  8
0
 10
89.50000762939453
 20
49.70000076293945
 30
1.862645149230957e-06
 11
89.50000762939453
 21
53.45000457763672
 31
1.862645149230957e-06
  0
LINE
  8
0
 10
89.50000762939453
 20
49.70000076293945
 30
1.862645149230957e-06
 11
19.500003814697266
 21
49.69999694824219
 31
1.862645149230957e-06
  0
LINE
  8
0
 10
19.500003814697266
 20
49.69999694824219
 30
1.862645149230957e-06
 11
19.500003814697266
 21
59.70000076293945
 31
1.862645149230957e-06
  0
LINE
  8
0
 10
19.500003814697266
 20
59.70000076293945
 30
1.862645149230957e-06
 11
89.50000762939453
 21
59.70000457763672
 31
1.862645149230957e-06
  0
LINE
  8
0
 10
89.50000762939453
 20
59.70000457763672
 30
1.862645149230957e-06
 11
89.50000762939453
 21
55.95000076293945
 31
1.862645149230957e-06
  0
LINE
  8
0
 10
89.50000762939453
 20
55.95000076293945
 30
1.862645149230957e-06
 11
81.00000762939453
 21
55.95000076293945
 31
1.862645149230957e-06
  0
LINE
  8
0
 10
81.00000762939453
 20
55.95000076293945
 30
1.862645149230957e-06
 11
81.00000762939453
 21
53.45000457763672
 31
1.862645149230957e-06
  0
LINE
  8
0
 10
89.50000762939453
 20
53.45000457763672
 30
1.862645149230957e-06
 11
81.00000762939453
 21
53.45000457763672
 31
1.862645149230957e-06
  0
LINE
  8
0
 10
87.20001220703125
 20
10.00000286102295
 30
0.0
 11
93.20001220703125
 21
10.00000286102295
 31
0.0
  0
LINE
  8
0
 10
87.20001220703125
 20
10.00000286102295
 30
0.0
 11
87.20001220703125
 21
12.000003814697266
 31
0.0
  0
LINE
  8
0
 10
87.20001220703125
 20
12.000003814697266
 30
0.0
 11
80.70000457763672
 21
12.000003814697266
 31
0.0
  0
LINE
  8
0
 10
80.70000457763672
 20
12.000003814697266
 30
0.0
 11
80.70000457763672
 21
18.500001907348633
 31
0.0
  0
LINE
  8
0
 10
80.70000457763672
 20
18.500001907348633
 30
0.0
 11
78.70000457763672
 21
18.500001907348633
 31
0.0
  0
LINE
  8
0
 10
78.70000457763672
 20
18.500001907348633
 30
0.0
 11
78.70000457763672
 21
24.50000762939453
 31
0.0
  0
LINE
  8
0
 10
78.70000457763672
 20
24.50000762939453
 30
0.0
 11
80.70000457763672
 21
24.50000762939453
 31
0.0
  0
LINE
  8
0
 10
80.70000457763672
 20
24.50000762939453
 30
0.0
 11
80.70000457763672
 21
31.000003814697266
 31
0.0
  0
LINE
  8
0
 10
80.70000457763672
 20
31.000003814697266
 30
0.0
 11
87.20001220703125
 21
31.000003814697266
 31
0.0
  0
LINE
  8
0
 10
87.20001220703125
 20
31.000003814697266
 30
0.0
 11
87.20001220703125
 21
33.000003814697266
 31
0.0
  0
LINE
  8
0
 10
87.20001220703125
 20
33.000003814697266
 30
0.0
 11
93.20001220703125
 21
33.000003814697266
 31
0.0
  0
LINE
  8
0
 10
93.20001220703125
 20
33.000003814697266
 30
0.0
 11
93.20001220703125
 21
31.000003814697266
 31
0.0
  0
LINE
  8
0
 10
93.20001220703125
 20
31.000003814697266
 30
0.0
 11
99.70001220703125
 21
31.000003814697266
 31
0.0
  0
LINE
  8
0
 10
99.70001220703125
 20
31.000003814697266
 30
0.0
 11
99.70001220703125
 21
24.50000762939453
 31
0.0
  0
LINE
  8
0
 10
99.70001220703125
 20
24.50000762939453
 30
0.0
 11
101.70000457763672
 21
24.50000762939453
 31
0.0
  0
LINE
  8
0
 10
101.70000457763672
 20
24.50000762939453
 30
0.0
 11
101.70000457763672
 21
18.500001907348633
 31
0.0
  0
LINE
  8
0
 10
101.70000457763672
 20
18.500001907348633
 30
0.0
 11
99.70001220703125
 21
18.500001907348633
 31
0.0
  0
LINE
  8
0
 10
99.70001220703125
 20
18.500001907348633
 30
0.0
 11
99.70001220703125
 21
12.000004768371582
 31
0.0
  0
LINE
  8
0
 10
99.70001220703125
 20
12.000004768371582
 30
0.0
 11
93.20001220703125
 21
12.000003814697266
 31
0.0
  0
LINE
  8
0
 10
93.20001220703125
 20
10.00000286102295
 30
0.0
 11
93.20001220703125
 21
12.000003814697266
 31
0.0
  0
LINE
  8
0
 10
87.20001220703125
 20
-60.499996185302734
 30
0.0
 11
93.20001220703125
 21
-60.499996185302734
 31
0.0
  0
LINE
  8
0
 10
87.20001220703125
 20
-60.499996185302734
 30
0.0
 11
87.20001220703125
 21
-58.5
 31
0.0
  0
LINE
  8
0
 10
87.20001220703125
 20
-58.5
 30
0.0
 11
80.70000457763672
 21
-58.5
 31
0.0
  0
LINE
  8
0
 10
80.70000457763672
 20
-58.5
 30
0.0
 11
80.70000457763672
 21
-52.0
 31
0.0
  0
LINE
  8
0
 10
80.70000457763672
 20
-52.0
 30
0.0
 11
78.70000457763672
 21
-52.0
 31
0.0
  0
LINE
  8
0
 10
78.70000457763672
 20
-52.0
 30
0.0
 11
78.70000457763672
 21
-45.99999237060547
 31
0.0
  0
LINE
  8
0
 10
78.70000457763672
 20
-45.99999237060547
 30
0.0
 11
80.70000457763672
 21
-45.99999237060547
 31
0.0
  0
LINE
  8
0
 10
80.70000457763672
 20
-45.99999237060547
 30
0.0
 11
80.70000457763672
 21
-39.499996185302734
 31
0.0
  0
LINE
  8
0
 10
80.70000457763672
 20
-39.499996185302734
 30
0.0
 11
87.20001220703125
 21
-39.499996185302734
 31
0.0
  0
LINE
  8
0
 10
87.20001220703125
 20
-39.499996185302734
 30
0.0
 11
87.20001220703125
 21
-37.499996185302734
 31
0.0
  0
LINE
  8
0
 10
87.20001220703125
 20
-37.499996185302734
 30
0.0
 11
93.20001220703125
 21
-37.499996185302734
 31
0.0
  0
LINE
  8
0
 10
93.20001220703125
 20
-37.499996185302734
 30
0.0
 11
93.20001220703125
 21
-39.499996185302734
 31
0.0
  0
LINE
  8
0
 10
93.20001220703125
 20
-39.499996185302734
 30
0.0
 11
99.70001220703125
 21
-39.499996185302734
 31
0.0
  0
LINE
  8
0
 10
99.70001220703125
 20
-39.499996185302734
 30
0.0
 11
99.70001220703125
 21
-45.99999237060547
 31
0.0
  0
LINE
  8
0
 10
99.70001220703125
 20
-45.99999237060547
 30
0.0
 11
101.70000457763672
 21
-45.99999237060547
 31
0.0
  0
LINE
  8
0
 10
101.70000457763672
 20
-45.99999237060547
 30
0.0
 11
101.70000457763672
 21
-52.0
 31
0.0
  0
LINE
  8
0
 10
101.70000457763672
 20
-52.0
 30
0.0
 11
99.70001220703125
 21
-52.0
 31
0.0
  0
LINE
  8
0
 10
99.70001220703125
 20
-52.0
 30
0.0
 11
99.70001220703125
 21
-58.5
 31
0.0
  0
LINE
  8
0
 10
99.70001220703125
 20
-58.5
 30
0.0
 11
93.20001220703125
 21
-58.5
 31
0.0
  0
LINE
  8
0
 10
93.20001220703125
 20
-60.499996185302734
 30
0.0
 11
93.20001220703125
 21
-58.5
 31
0.0
  0
LINE
  8
0
 10
87.20001220703125
 20
-36.999996185302734
 30
0.0
 11
93.20001220703125
 21
-36.999996185302734
 31
0.0
  0
LINE
  8
0
 10
87.20001220703125
 20
-36.999996185302734
 30
0.0
 11
87.20001220703125
 21
-35.0
 31
0.0
  0
LINE
  8
0
 10
87.20001220703125
 20
-35.0
 30
0.0
 11
80.70000457763672
 21
-35.0
 31
0.0
  0
LINE
  8
0
 10
80.70000457763672
 20
-35.0
 30
0.0
 11
80.70000457763672
 21
-28.499998092651367
 31
0.0
  0
LINE
  8
0
 10
80.70000457763672
 20
-28.499998092651367
 30
0.0
 11
78.70000457763672
 21
-28.499998092651367
 31
0.0
  0
LINE
  8
0
 10
78.70000457763672
 20
-28.499998092651367
 30
0.0
 11
78.70000457763672
 21
-22.4999942779541
 31
0.0
  0
LINE
  8
0
 10
78.70000457763672
 20
-22.4999942779541
 30
0.0
 11
80.70000457763672
 21
-22.4999942779541
 31
0.0
  0
LINE
  8
0
 10
80.70000457763672
 20
-22.4999942779541
 30
0.0
 11
80.70000457763672
 21
-15.999996185302734
 31
0.0
  0
LINE
  8
0
 10
80.70000457763672
 20
-15.999996185302734
 30
0.0
 11
87.20001220703125
 21
-15.999996185302734
 31
0.0
  0
LINE
  8
0
 10
87.20001220703125
 20
-15.999996185302734
 30
0.0
 11
87.20001220703125
 21
-13.999996185302734
 31
0.0
  0
LINE
  8
0
 10
87.20001220703125
 20
-13.999996185302734
 30
0.0
 11
93.20001220703125
 21
-13.999996185302734
 31
0.0
  0
LINE
  8
0
 10
93.20001220703125
 20
-13.999996185302734
 30
0.0
 11
93.20001220703125
 21
-15.999996185302734
 31
0.0
  0
LINE
  8
0
 10
93.20001220703125
 20
-15.999996185302734
 30
0.0
 11
99.70001220703125
 21
-15.999995231628418
 31
0.0
  0
LINE
  8
0
 10
99.70001220703125
 20
-15.999995231628418
 30
0.0
 11
99.70001220703125
 21
-22.4999942779541
 31
0.0
  0
LINE
  8
0
 10
99.70001220703125
 20
-22.4999942779541
 30
0.0
 11
101.70000457763672
 21
-22.4999942779541
 31
0.0
  0
LINE
  8
0
 10
101.70000457763672
 20
-22.4999942779541
 30
0.0
 11
101.70000457763672
 21
-28.499998092651367
 31
0.0
  0
LINE
  8
0
 10
101.70000457763672
 20
-28.499998092651367
 30
0.0
 11
99.70001220703125
 21
-28.499998092651367
 31
0.0
  0
LINE
  8
0
 10
99.70001220703125
 20
-28.499998092651367
 30
0.0
 11
99.70001220703125
 21
-35.0
 31
0.0
  0
LINE
  8
0
 10
99.70001220703125
 20
-35.0
 30
0.0
 11
93.20001220703125
 21
-35.0
 31
0.0
  0
LINE
  8
0
 10
93.20001220703125
 20
-36.999996185302734
 30
0.0
 11
93.20001220703125
 21
-35.0
 31
0.0
  0
LINE
  8
0
 10
87.20001220703125
 20
-13.49999713897705
 30
0.0
 11
93.20001220703125
 21
-13.49999713897705
 31
0.0
  0
LINE
  8
0
 10
87.20001220703125
 20
-13.49999713897705
 30
0.0
 11
87.20001220703125
 21
-11.49999713897705
 31
0.0
  0
LINE
  8
0
 10
87.20001220703125
 20
-11.49999713897705
 30
0.0
 11
80.70000457763672
 21
-11.49999713897705
 31
0.0
  0
LINE
  8
0
 10
80.70000457763672
 20
-11.49999713897705
 30
0.0
 11
80.70000457763672
 21
-4.999999523162842
 31
0.0
  0
LINE
  8
0
 10
80.70000457763672
 20
-4.999999523162842
 30
0.0
 11
78.70000457763672
 21
-4.999999523162842
 31
0.0
  0
LINE
  8
0
 10
78.70000457763672
 20
-4.999999523162842
 30
0.0
 11
78.70000457763672
 21
1.0000070333480835
 31
0.0
  0
LINE
  8
0
 10
78.70000457763672
 20
1.0000070333480835
 30
0.0
 11
80.70000457763672
 21
1.000007152557373
 31
0.0
  0
LINE
  8
0
 10
80.70000457763672
 20
1.000007152557373
 30
0.0
 11
80.70000457763672
 21
7.50000524520874
 31
0.0
  0
LINE
  8
0
 10
80.70000457763672
 20
7.50000524520874
 30
0.0
 11
87.20001220703125
 21
7.500005722045898
 31
0.0
  0
LINE
  8
0
 10
87.20001220703125
 20
7.500005722045898
 30
0.0
 11
87.20001220703125
 21
9.500004768371582
 31
0.0
  0
LINE
  8
0
 10
87.20001220703125
 20
9.500004768371582
 30
0.0
 11
93.20001220703125
 21
9.500004768371582
 31
0.0
  0
LINE
  8
0
 10
93.20001220703125
 20
9.500004768371582
 30
0.0
 11
93.20001220703125
 21
7.500006198883057
 31
0.0
  0
LINE
  8
0
 10
93.20001220703125
 20
7.500006198883057
 30
0.0
 11
99.70001220703125
 21
7.500006198883057
 31
0.0
  0
LINE
  8
0
 10
99.70001220703125
 20
7.500006198883057
 30
0.0
 11
99.70001220703125
 21
1.0000079870224
 31
0.0
  0
LINE
  8
0
 10
99.70001220703125
 20
1.0000079870224
 30
0.0
 11
101.70000457763672
 21
1.0000079870224
 31
0.0
  0
LINE
  8
0
 10
101.70000457763672
 20
1.0000079870224
 30
0.0
 11
101.70000457763672
 21
-4.999998569488525
 31
0.0
  0
LINE
  8
0
 10
101.70000457763672
 20
-4.999998569488525
 30
0.0
 11
99.70001220703125
 21
-4.999998569488525
 31
0.0
  0
LINE
  8
0
 10
99.70001220703125
 20
-4.999998569488525
 30
0.0
 11
99.70001220703125
 21
-11.499996185302734
 31
0.0
  0
LINE
  8
0
 10
99.70001220703125
 20
-11.499996185302734
 30
0.0
 11
93.20001220703125
 21
-11.49999713897705
 31
0.0
  0
LINE
  8
0
 10
93.20001220703125
 20
-13.49999713897705
 30
0.0
 11
93.20001220703125
 21
-11.49999713897705
 31
0.0
  0
LINE
  8
0
 10
-66.20000457763672
 20
16.799997329711914
 30
-9.313225746154785e-07
 11
-65.09598541259766
 21
16.772897720336914
 31
-9.313225746154785e-07
  0
LINE
  8
0
 10
-66.20000457763672
 20
16.799997329711914
 30
-9.313225746154785e-07
 11
-67.30402374267578
 21
16.77289581298828
 31
-9.313225746154785e-07
  0
LINE
  8
0
 10
-67.30402374267578
 20
16.77289581298828
 30
-9.313225746154785e-07
 11
-68.40538787841797
 21
16.691654205322266
 31
-9.313225746154785e-07
  0
LINE
  8
0
 10
-68.40538787841797
 20
16.691654205322266
 30
-9.313225746154785e-07
 11
-69.50143432617188
 21
16.556467056274414
 31
-9.313225746154785e-07
  0
LINE
  8
0
 10
-69.50143432617188
 20
16.556467056274414
 30
-9.313225746154785e-07
 11
-70.58953857421875
 21
16.367664337158203
 31
-9.313225746154785e-07
  0
LINE
  8
0
 10
-70.58953857421875
 20
16.367664337158203
 30
-9.313225746154785e-07
 11
-71.66706085205078
 21
16.12569808959961
 31
-9.313225746154785e-07
  0
LINE
  8
0
 10
-71.66706085205078
 20
16.12569808959961
 30
-9.313225746154785e-07
 11
-72.73141479492188
 21
15.831157684326172
 31
-9.313225746154785e-07
  0
LINE
  8
0
 10
-72.73141479492188
 20
15.831157684326172
 30
-9.313225746154785e-07
 11
-73.78002166748047
 21
15.4847412109375
 31
-9.313225746154785e-07
  0
LINE
  8
0
 10
-73.78002166748047
 20
15.4847412109375
 30
-9.313225746154785e-07
 11
-74.81038665771484
 21
15.087285995483398
 31
-9.313225746154785e-07
  0
LINE
  8
0
 10
-74.81038665771484
 20
15.087285995483398
 30
-9.313225746154785e-07
 11
-75.81999206542969
 21
14.639756202697754
 31
-9.313225746154785e-07
  0
LINE
  8
0
 10
-75.81999206542969
 20
14.639756202697754
 30
-9.313225746154785e-07
 11
-76.80643463134766
 21
14.143224716186523
 31
-9.313225746154785e-07
  0
LINE
  8
0
 10
-76.80643463134766
 20
14.143224716186523
 30
-9.313225746154785e-07
 11
-77.7673110961914
 21
13.598891258239746
 31
-9.313225746154785e-07
  0
LINE
  8
0
 10
-77.7673110961914
 20
13.598891258239746
 30
-9.313225746154785e-07
 11
-78.7003402709961
 21
13.008063316345215
 31
-9.313225746154785e-07
  0
LINE
  8
0
 10
-78.7003402709961
 20
13.008063316345215
 30
-9.313225746154785e-07
 11
-79.60324096679688
 21
12.372167587280273
 31
-9.313225746154785e-07
  0
LINE
  8
0
 10
-79.60324096679688
 20
12.372167587280273
 30
-9.313225746154785e-07
 11
-80.4738540649414
 21
11.692731857299805
 31
-9.313225746154785e-07
  0
LINE
  8
0
 10
-80.4738540649414
 20
11.692731857299805
 30
-9.313225746154785e-07
 11
-81.3100814819336
 21
10.971397399902344
 31
-9.313225746154785e-07
  0
LINE
  8
0
 10
-81.3100814819336
 20
10.971397399902344
 30
-9.313225746154785e-07
 11
-82.10990142822266
 21
10.209898948669434
 31
-9.313225746154785e-07
  0
LINE
  8
0
 10
-82.10990142822266
 20
10.209898948669434
 30
-9.313225746154785e-07
 11
-82.87139892578125
 21
9.410075187683105
 31
-9.313225746154785e-07
  0
LINE
  8
0
 10
-82.87139892578125
 20
9.410075187683105
 30
-9.313225746154785e-07
 11
-83.59273529052734
 21
8.573848724365234
 31
-9.313225746154785e-07
  0
LINE
  8
0
 10
-83.59273529052734
 20
8.573848724365234
 30
-9.313225746154785e-07
 11
-84.27217102050781
 21
7.703233242034912
 31
-9.313225746154785e-07
  0
LINE
  8
0
 10
-84.27217102050781
 20
7.703233242034912
 30
-9.313225746154785e-07
 11
-84.90806579589844
 21
6.80033016204834
 31
-9.313225746154785e-07
  0
LINE
  8
0
 10
-84.90806579589844
 20
6.80033016204834
 30
-9.313225746154785e-07
 11
-85.49889373779297
 21
5.867310523986816
 31
-9.313225746154785e-07
  0
LINE
  8
0
 10
-85.49889373779297
 20
5.867310523986816
 30
-9.313225746154785e-07
 11
-86.04322814941406
 21
4.906425476074219
 31
-9.313225746154785e-07
  0
LINE
  8
0
 10
-86.04322814941406
 20
4.906425476074219
 30
-9.313225746154785e-07
 11
-86.5397720336914
 21
3.9199881553649902
 31
-9.313225746154785e-07
  0
LINE
  8
0
 10
-86.5397720336914
 20
3.9199881553649902
 30
-9.313225746154785e-07
 11
-86.98728942871094
 21
2.9103763103485107
 31
-9.313225746154785e-07
  0
LINE
  8
0
 10
-86.98728942871094
 20
2.9103763103485107
 30
-9.313225746154785e-07
 11
-87.38475036621094
 21
1.8800206184387207
 31
-9.313225746154785e-07
  0
LINE
  8
0
 10
-87.38475036621094
 20
1.8800206184387207
 30
-9.313225746154785e-07
 11
-87.73115539550781
 21
0.8314034938812256
 31
-9.313225746154785e-07
  0
LINE
  8
0
 10
-87.73115539550781
 20
0.8314034938812256
 30
-9.313225746154785e-07
 11
-88.02571105957031
 21
-0.2329462468624115
 31
-9.313225746154785e-07
  0
LINE
  8
0
 10
-88.02571105957031
 20
-0.2329462468624115
 30
-9.313225746154785e-07
 11
-88.26766967773438
 21
-1.3104685544967651
 31
-9.313225746154785e-07
  0
LINE
  8
0
 10
-88.26766967773438
 20
-1.3104685544967651
 30
-9.313225746154785e-07
 11
-88.45647430419922
 21
-2.3985655307769775
 31
-9.313225746154785e-07
  0
LINE
  8
0
 10
-88.45647430419922
 20
-2.3985655307769775
 30
-9.313225746154785e-07
 11
-88.59165954589844
 21
-3.494615077972412
 31
-9.313225746154785e-07
  0
LINE
  8
0
 10
-88.59165954589844
 20
-3.494615077972412
 30
-9.313225746154785e-07
 11
-88.67289733886719
 21
-4.595977783203125
 31
-9.313225746154785e-07
  0
LINE
  8
0
 10
-88.67289733886719
 20
-4.595977783203125
 30
-9.313225746154785e-07
 11
-88.70001220703125
 21
-5.700001239776611
 31
-9.313225746154785e-07
  0
LINE
  8
0
 10
-88.70001220703125
 20
-5.700001239776611
 30
-9.313225746154785e-07
 11
-88.67289733886719
 21
-6.804023742675781
 31
-9.313225746154785e-07
  0
LINE
  8
0
 10
-88.67289733886719
 20
-6.804023742675781
 30
-9.313225746154785e-07
 11
-88.59165954589844
 21
-7.905386447906494
 31
-9.313225746154785e-07
  0
LINE
  8
0
 10
-88.59165954589844
 20
-7.905386447906494
 30
-9.313225746154785e-07
 11
-88.45647430419922
 21
-9.001436233520508
 31
-9.313225746154785e-07
  0
LINE
  8
0
 10
-88.45647430419922
 20
-9.001436233520508
 30
-9.313225746154785e-07
 11
-88.26766967773438
 21
-10.089532852172852
 31
-9.313225746154785e-07
  0
LINE
  8
0
 10
-88.26766967773438
 20
-10.089532852172852
 30
-9.313225746154785e-07
 11
-88.02571105957031
 21
-11.167055130004883
 31
-9.313225746154785e-07
  0
LINE
  8
0
 10
-88.02571105957031
 20
-11.167055130004883
 30
-9.313225746154785e-07
 11
-87.73115539550781
 21
-12.231406211853027
 31
-9.313225746154785e-07
  0
LINE
  8
0
 10
-87.73115539550781
 20
-12.231406211853027
 30
-9.313225746154785e-07
 11
-87.38475036621094
 21
-13.280022621154785
 31
-9.313225746154785e-07
  0
LINE
  8
0
 10
-87.38475036621094
 20
-13.280022621154785
 30
-9.313225746154785e-07
 11
-86.98728942871094
 21
-14.310379028320312
 31
-9.313225746154785e-07
  0
LINE
  8
0
 10
-86.98728942871094
 20
-14.310379028320312
 30
-9.313225746154785e-07
 11
-86.5397720336914
 21
-15.319990158081055
 31
-9.313225746154785e-07
  0
LINE
  8
0
 10
-86.5397720336914
 20
-15.319990158081055
 30
-9.313225746154785e-07
 11
-86.04322814941406
 21
-16.306427001953125
 31
-9.313225746154785e-07
  0
LINE
  8
0
 10
-86.04322814941406
 20
-16.306427001953125
 30
-9.313225746154785e-07
 11
-85.49889373779297
 21
-17.26731300354004
 31
-9.313225746154785e-07
  0
LINE
  8
0
 10
-85.49889373779297
 20
-17.26731300354004
 30
-9.313225746154785e-07
 11
-84.90806579589844
 21
-18.20033073425293
 31
-9.313225746154785e-07
  0
LINE
  8
0
 10
-84.90806579589844
 20
-18.20033073425293
 30
-9.313225746154785e-07
 11
-84.27217102050781
 21
-19.103235244750977
 31
-9.313225746154785e-07
  0
LINE
  8
0
 10
-84.27217102050781
 20
-19.103235244750977
 30
-9.313225746154785e-07
 11
-83.59273529052734
 21
-19.97385025024414
 31
-9.313225746154785e-07
  0
LINE
  8
0
 10
-83.59273529052734
 20
-19.97385025024414
 30
-9.313225746154785e-07
 11
-82.87139892578125
 21
-20.81007957458496
 31
-9.313225746154785e-07
  0
LINE
  8
0
 10
-82.87139892578125
 20
-20.81007957458496
 30
-9.313225746154785e-07
 11
-82.10990142822266
 21
-21.60990333557129
 31
-9.313225746154785e-07
  0
LINE
  8
0
 10
-82.10990142822266
 20
-21.60990333557129
 30
-9.313225746154785e-07
 11
-81.3100814819336
 21
-22.371400833129883
 31
-9.313225746154785e-07
  0
LINE
  8
0
 10
-81.3100814819336
 20
-22.371400833129883
 30
-9.313225746154785e-07
 11
-80.4738540649414
 21
-23.092735290527344
 31
-9.313225746154785e-07
  0
LINE
  8
0
 10
-80.4738540649414
 20
-23.092735290527344
 30
-9.313225746154785e-07
 11
-79.60324096679688
 21
-23.772171020507812
 31
-9.313225746154785e-07
  0
LINE
  8
0
 10
-79.60324096679688
 20
-23.772171020507812
 30
-9.313225746154785e-07
 11
-78.7003402709961
 21
-24.40806770324707
 31
-9.313225746154785e-07
  0
LINE
  8
0
 10
-78.7003402709961
 20
-24.40806770324707
 30
-9.313225746154785e-07
 11
-77.7673110961914
 21
-24.9988956451416
 31
-9.313225746154785e-07
  0
LINE
  8
0
 10
-77.7673110961914
 20
-24.9988956451416
 30
-9.313225746154785e-07
 11
-76.80643463134766
 21
-25.543228149414062
 31
-9.313225746154785e-07
  0
LINE
  8
0
 10
-76.80643463134766
 20
-25.543228149414062
 30
-9.313225746154785e-07
 11
-75.81999206542969
 21
-26.039758682250977
 31
-9.313225746154785e-07
  0
LINE
  8
0
 10
-75.81999206542969
 20
-26.039758682250977
 30
-9.313225746154785e-07
 11
-74.81038665771484
 21
-26.487289428710938
 31
-9.313225746154785e-07
  0
LINE
  8
0
 10
-74.81038665771484
 20
-26.487289428710938
 30
-9.313225746154785e-07
 11
-73.78002166748047
 21
-26.88474464416504
 31
-9.313225746154785e-07
  0
LINE
  8
0
 10
-73.78002166748047
 20
-26.88474464416504
 30
-9.313225746154785e-07
 11
-72.73141479492188
 21
-27.23116111755371
 31
-9.313225746154785e-07
  0
LINE
  8
0
 10
-72.73141479492188
 20
-27.23116111755371
 30
-9.313225746154785e-07
 11
-71.66706085205078
 21
-27.52570343017578
 31
-9.313225746154785e-07
  0
LINE
  8
0
 10
-71.66706085205078
 20
-27.52570343017578
 30
-9.313225746154785e-07
 11
-70.58953857421875
 21
-27.767667770385742
 31
-9.313225746154785e-07
  0
LINE
  8
0
 10
-70.58953857421875
 20
-27.767667770385742
 30
-9.313225746154785e-07
 11
-69.50144958496094
 21
-27.956472396850586
 31
-9.313225746154785e-07
  0
LINE
  8
0
 10
-69.50144958496094
 20
-27.956472396850586
 30
-9.313225746154785e-07
 11
-68.40538787841797
 21
-28.091657638549805
 31
-9.313225746154785e-07
  0
LINE
  8
0
 10
-68.40538787841797
 20
-28.091657638549805
 30
-9.313225746154785e-07
 11
-67.30402374267578
 21
-28.17289924621582
 31
-9.313225746154785e-07
  0
LINE
  8
0
 10
-67.30402374267578
 20
-28.17289924621582
 30
-9.313225746154785e-07
 11
-66.20000457763672
 21
-28.200000762939453
 31
-9.313225746154785e-07
  0
LINE
  8
0
 10
-66.20000457763672
 20
-28.200000762939453
 30
-9.313225746154785e-07
 11
-65.09598541259766
 21
-28.172897338867188
 31
-9.313225746154785e-07
  0
LINE
  8
0
 10
-65.09598541259766
 20
-28.172897338867188
 30
-9.313225746154785e-07
 11
-63.99462127685547
 21
-28.091655731201172
 31
-9.313225746154785e-07
  0
LINE
  8
0
 10
-63.99462127685547
 20
-28.091655731201172
 30
-9.313225746154785e-07
 11
-62.89857482910156
 21
-27.956470489501953
 31
-9.313225746154785e-07
  0
LINE
  8
0
 10
-62.89857482910156
 20
-27.956470489501953
 30
-9.313225746154785e-07
 11
-61.81047058105469
 21
-27.76766586303711
 31
-9.313225746154785e-07
  0
LINE
  8
0
 10
-61.81047058105469
 20
-27.76766586303711
 30
-9.313225746154785e-07
 11
-60.732948303222656
 21
-27.52570152282715
 31
-9.313225746154785e-07
  0
LINE
  8
0
 10
-60.732948303222656
 20
-27.52570152282715
 30
-9.313225746154785e-07
 11
-59.668601989746094
 21
-27.231159210205078
 31
-9.313225746154785e-07
  0
LINE
  8
0
 10
-59.668601989746094
 20
-27.231159210205078
 30
-9.313225746154785e-07
 11
-58.61998748779297
 21
-26.884742736816406
 31
-9.313225746154785e-07
  0
LINE
  8
0
 10
-58.61998748779297
 20
-26.884742736816406
 30
-9.313225746154785e-07
 11
-57.58962631225586
 21
-26.487287521362305
 31
-9.313225746154785e-07
  0
LINE
  8
0
 10
-57.58962631225586
 20
-26.487287521362305
 30
-9.313225746154785e-07
 11
-56.58001708984375
 21
-26.039756774902344
 31
-9.313225746154785e-07
  0
LINE
  8
0
 10
-56.58001708984375
 20
-26.039756774902344
 30
-9.313225746154785e-07
 11
-55.59357452392578
 21
-25.54322624206543
 31
-9.313225746154785e-07
  0
LINE
  8
0
 10
-55.59357452392578
 20
-25.54322624206543
 30
-9.313225746154785e-07
 11
-54.632686614990234
 21
-24.99889373779297
 31
-9.313225746154785e-07
  0
LINE
  8
0
 10
-54.632686614990234
 20
-24.99889373779297
 30
-9.313225746154785e-07
 11
-53.69967269897461
 21
-24.408065795898438
 31
-9.313225746154785e-07
  0
LINE
  8
0
 10
-53.69967269897461
 20
-24.408065795898438
 30
-9.313225746154785e-07
 11
-52.79676818847656
 21
-23.77216911315918
 31
-9.313225746154785e-07
  0
LINE
  8
0
 10
-52.79676818847656
 20
-23.77216911315918
 30
-9.313225746154785e-07
 11
-51.9261589050293
 21
-23.09273338317871
 31
-9.313225746154785e-07
  0
LINE
  8
0
 10
-51.9261589050293
 20
-23.09273338317871
 30
-9.313225746154785e-07
 11
-51.08993148803711
 21
-22.37139892578125
 31
-9.313225746154785e-07
  0
LINE
  8
0
 10
-51.08993148803711
 20
-22.37139892578125
 30
-9.313225746154785e-07
 11
-50.29010772705078
 21
-21.609901428222656
 31
-9.313225746154785e-07
  0
LINE
  8
0
 10
-50.29010772705078
 20
-21.609901428222656
 30
-9.313225746154785e-07
 11
-49.528602600097656
 21
-20.810077667236328
 31
-9.313225746154785e-07
  0
LINE
  8
0
 10
-49.528602600097656
 20
-20.810077667236328
 30
-9.313225746154785e-07
 11
-48.807273864746094
 21
-19.97385025024414
 31
-9.313225746154785e-07
  0
LINE
  8
0
 10
-48.807273864746094
 20
-19.97385025024414
 30
-9.313225746154785e-07
 11
-48.12783432006836
 21
-19.103235244750977
 31
-9.313225746154785e-07
  0
LINE
  8
0
 10
-48.12783432006836
 20
-19.103235244750977
 30
-9.313225746154785e-07
 11
-47.491939544677734
 21
-18.200332641601562
 31
-9.313225746154785e-07
  0
LINE
  8
0
 10
-47.491939544677734
 20
-18.200332641601562
 30
-9.313225746154785e-07
 11
-46.9011116027832
 21
-17.26731300354004
 31
-9.313225746154785e-07
  0
LINE
  8
0
 10
-46.9011116027832
 20
-17.26731300354004
 30
-9.313225746154785e-07
 11
-46.35677719116211
 21
-16.306427001953125
 31
-9.313225746154785e-07
  0
LINE
  8
0
 10
-46.35677719116211
 20
-16.306427001953125
 30
-9.313225746154785e-07
 11
-45.86024475097656
 21
-15.319990158081055
 31
-9.313225746154785e-07
  0
LINE
  8
0
 10
-45.86024475097656
 20
-15.319990158081055
 30
-9.313225746154785e-07
 11
-45.412715911865234
 21
-14.310378074645996
 31
-9.313225746154785e-07
  0
LINE
  8
0
 10
-45.412715911865234
 20
-14.310378074645996
 30
-9.313225746154785e-07
 11
-45.0152587890625
 21
-13.280022621154785
 31
-9.313225746154785e-07
  0
LINE
  8
0
 10
-45.0152587890625
 20
-13.280022621154785
 30
-9.313225746154785e-07
 11
-44.668846130371094
 21
-12.231406211853027
 31
-9.313225746154785e-07
  0
LINE
  8
0
 10
-44.668846130371094
 20
-12.231406211853027
 30
-9.313225746154785e-07
 11
-44.37430191040039
 21
-11.1670560836792
 31
-9.313225746154785e-07
  0
LINE
  8
0
 10
-44.37430191040039
 20
-11.1670560836792
 30
-9.313225746154785e-07
 11
-44.1323356628418
 21
-10.089533805847168
 31
-9.313225746154785e-07
  0
LINE
  8
0
 10
-44.1323356628418
 20
-10.089533805847168
 30
-9.313225746154785e-07
 11
-43.94353485107422
 21
-9.001436233520508
 31
-9.313225746154785e-07
  0
LINE
  8
0
 10
-43.94353485107422
 20
-9.001436233520508
 30
-9.313225746154785e-07
 11
-43.808349609375
 21
-7.905386924743652
 31
-9.313225746154785e-07
  0
LINE
  8
0
 10
-43.808349609375
 20
-7.905386924743652
 30
-9.313225746154785e-07
 11
-43.727108001708984
 21
-6.8040242195129395
 31
-9.313225746154785e-07
  0
LINE
  8
0
 10
-43.727108001708984
 20
-6.8040242195129395
 30
-9.313225746154785e-07
 11
-43.70000076293945
 21
-5.700000762939453
 31
-9.313225746154785e-07
  0
LINE
  8
0
 10
-43.70000076293945
 20
-5.700000762939453
 30
-9.313225746154785e-07
 11
-43.727108001708984
 21
-4.595978260040283
 31
-9.313225746154785e-07
  0
LINE
  8
0
 10
-43.727108001708984
 20
-4.595978260040283
 30
-9.313225746154785e-07
 11
-43.808349609375
 21
-3.4946155548095703
 31
-9.313225746154785e-07
  0
LINE
  8
0
 10
-43.808349609375
 20
-3.4946155548095703
 30
-9.313225746154785e-07
 11
-43.94353485107422
 21
-2.3985657691955566
 31
-9.313225746154785e-07
  0
LINE
  8
0
 10
-43.94353485107422
 20
-2.3985657691955566
 30
-9.313225746154785e-07
 11
-44.1323356628418
 21
-1.3104689121246338
 31
-9.313225746154785e-07
  0
LINE
  8
0
 10
-44.1323356628418
 20
-1.3104689121246338
 30
-9.313225746154785e-07
 11
-44.37430191040039
 21
-0.23294731974601746
 31
-9.313225746154785e-07
  0
LINE
  8
0
 10
-44.37430191040039
 20
-0.23294731974601746
 30
-9.313225746154785e-07
 11
-44.668846130371094
 21
0.8314053416252136
 31
-9.313225746154785e-07
  0
LINE
  8
0
 10
-44.668846130371094
 20
0.8314053416252136
 30
-9.313225746154785e-07
 11
-45.0152587890625
 21
1.8800208568572998
 31
-9.313225746154785e-07
  0
LINE
  8
0
 10
-45.0152587890625
 20
1.8800208568572998
 30
-9.313225746154785e-07
 11
-45.412715911865234
 21
2.91037654876709
 31
-9.313225746154785e-07
  0
LINE
  8
0
 10
-45.412715911865234
 20
2.91037654876709
 30
-9.313225746154785e-07
 11
-45.86024475097656
 21
3.9199883937835693
 31
-9.313225746154785e-07
  0
LINE
  8
0
 10
-45.86024475097656
 20
3.9199883937835693
 30
-9.313225746154785e-07
 11
-46.35677719116211
 21
4.906425952911377
 31
-9.313225746154785e-07
  0
LINE
  8
0
 10
-46.35677719116211
 20
4.906425952911377
 30
-9.313225746154785e-07
 11
-46.9011116027832
 21
5.867311000823975
 31
-9.313225746154785e-07
  0
LINE
  8
0
 10
-46.9011116027832
 20
5.867311000823975
 30
-9.313225746154785e-07
 11
-47.491939544677734
 21
6.800329208374023
 31
-9.313225746154785e-07
  0
LINE
  8
0
 10
-47.491939544677734
 20
6.800329208374023
 30
-9.313225746154785e-07
 11
-48.12783432006836
 21
7.703232288360596
 31
-9.313225746154785e-07
  0
LINE
  8
0
 10
-48.12783432006836
 20
7.703232288360596
 30
-9.313225746154785e-07
 11
-48.807273864746094
 21
8.573847770690918
 31
-9.313225746154785e-07
  0
LINE
  8
0
 10
-48.807273864746094
 20
8.573847770690918
 30
-9.313225746154785e-07
 11
-49.528602600097656
 21
9.410077095031738
 31
-9.313225746154785e-07
  0
LINE
  8
0
 10
-49.528602600097656
 20
9.410077095031738
 30
-9.313225746154785e-07
 11
-50.29010772705078
 21
10.209900856018066
 31
-9.313225746154785e-07
  0
LINE
  8
0
 10
-50.29010772705078
 20
10.209900856018066
 30
-9.313225746154785e-07
 11
-51.08993148803711
 21
10.971399307250977
 31
-9.313225746154785e-07
  0
LINE
  8
0
 10
-51.08993148803711
 20
10.971399307250977
 30
-9.313225746154785e-07
 11
-51.9261474609375
 21
11.692733764648438
 31
-9.313225746154785e-07
  0
LINE
  8
0
 10
-51.9261474609375
 20
11.692733764648438
 30
-9.313225746154785e-07
 11
-52.79676818847656
 21
12.372169494628906
 31
-9.313225746154785e-07
  0
LINE
  8
0
 10
-52.79676818847656
 20
12.372169494628906
 30
-9.313225746154785e-07
 11
-53.69967269897461
 21
13.008065223693848
 31
-9.313225746154785e-07
  0
LINE
  8
0
 10
-53.69967269897461
 20
13.008065223693848
 30
-9.313225746154785e-07
 11
-54.632686614990234
 21
13.598892211914062
 31
-9.313225746154785e-07
  0
LINE
  8
0
 10
-54.632686614990234
 20
13.598892211914062
 30
-9.313225746154785e-07
 11
-55.59357452392578
 21
14.14322566986084
 31
-9.313225746154785e-07
  0
LINE
  8
0
 10
-55.59357452392578
 20
14.14322566986084
 30
-9.313225746154785e-07
 11
-56.58001708984375
 21
14.639756202697754
 31
-9.313225746154785e-07
  0
LINE
  8
0
 10
-56.58001708984375
 20
14.639756202697754
 30
-9.313225746154785e-07
 11
-57.58962631225586
 21
15.087285995483398
 31
-9.313225746154785e-07
  0
LINE
  8
0
 10
-57.58962631225586
 20
15.087285995483398
 30
-9.313225746154785e-07
 11
-58.61998748779297
 21
15.4847412109375
 31
-9.313225746154785e-07
  0
LINE
  8
0
 10
-58.61998748779297
 20
15.4847412109375
 30
-9.313225746154785e-07
 11
-59.668601989746094
 21
15.831157684326172
 31
-9.313225746154785e-07
  0
LINE
  8
0
 10
-59.668601989746094
 20
15.831157684326172
 30
-9.313225746154785e-07
 11
-60.732948303222656
 21
16.125699996948242
 31
-9.313225746154785e-07
  0
LINE
  8
0
 10
-60.732948303222656
 20
16.125699996948242
 30
-9.313225746154785e-07
 11
-61.81047058105469
 21
16.367666244506836
 31
-9.313225746154785e-07
  0
LINE
  8
0
 10
-61.81047058105469
 20
16.367666244506836
 30
-9.313225746154785e-07
 11
-62.898563385009766
 21
16.556468963623047
 31
-9.313225746154785e-07
  0
LINE
  8
0
 10
-62.898563385009766
 20
16.556468963623047
 30
-9.313225746154785e-07
 11
-63.99462127685547
 21
16.6916561126709
 31
-9.313225746154785e-07
  0
LINE
  8
0
 10
-65.09598541259766
 20
16.772897720336914
 30
-9.313225746154785e-07
 11
-63.99462127685547
 21
16.6916561126709
 31
-9.313225746154785e-07
  0
ENDSEC
  0
EOF
