<?xml version="1.0" encoding="UTF-8"?>
<svg version="1.1" xmlns="http://www.w3.org/2000/svg" width="1430" height="1430">
<path d="M0 0 C471.9 0 943.8 0 1430 0 C1430 471.9 1430 943.8 1430 1430 C958.1 1430 486.2 1430 0 1430 C0 958.1 0 486.2 0 0 Z " fill="#FEFEFE" transform="translate(0,0)"/>
<path d="M0 0 C1.15628906 0.45761719 2.31257812 0.91523438 3.50390625 1.38671875 C6.35526028 2.55175052 9.1812199 3.75866123 12 5 C13.155 5.495 14.31 5.99 15.5 6.5 C16.655 6.995 17.81 7.49 19 8 C22.03516966 9.26743348 25.07231567 10.53007096 28.109375 11.79296875 C31.41591051 13.17367074 34.71040405 14.57949266 38 16 C38 16.66 38 17.32 38 18 C38.55945313 18.11472656 39.11890625 18.22945312 39.6953125 18.34765625 C56.69987406 23.16081181 73.86985943 39.56905936 85.7890625 51.7890625 C87.53389643 53.53389643 89.25514934 55.10161245 91.1875 56.625 C94.21929114 59.18517919 96.65719221 61.95809566 99.22265625 64.97265625 C100.86880511 66.85035132 102.57735116 68.58127698 104.375 70.3125 C113.50825628 79.32288737 121.80950298 89.7841297 126.91333008 101.578125 C128.73165188 105.63064181 130.84255789 109.52287818 132.9375 113.4375 C133.82600234 115.11693285 134.71402893 116.79661748 135.6015625 118.4765625 C136.92437382 120.97429952 138.25142968 123.46941797 139.5859375 125.9609375 C145.61497832 137.5197992 150.71560921 150.76122962 150 164 C150.66 164 151.32 164 152 164 C153.45099874 204.89584137 153.45099874 204.89584137 139.20703125 220.74609375 C138.47871094 221.48988281 137.75039063 222.23367188 137 223 C136.17048828 223.85271484 136.17048828 223.85271484 135.32421875 224.72265625 C128.95771375 230.64682343 116.7377808 240 108 240 C108 240.66 108 241.32 108 242 C104.71067885 243.27696114 101.41813073 244.54539916 98.125 245.8125 C97.2071875 246.16892578 96.289375 246.52535156 95.34375 246.89257812 C90.09168962 248.90833369 84.83913162 250.71265502 79.4375 252.28295898 C75.40633609 253.46880919 71.42376242 254.79735779 67.4375 256.125 C66.63248047 256.38925781 65.82746094 256.65351562 64.99804688 256.92578125 C61.20608385 257.93684779 61.20608385 257.93684779 58 260 C61.2765324 260.9386664 64.42395174 261.26162155 67.8203125 261.5 C68.98240234 261.58169434 70.14449219 261.66338867 71.34179688 261.74755859 C72.59025391 261.83086426 73.83871094 261.91416992 75.125 262 C76.41728516 262.08975098 77.70957031 262.17950195 79.04101562 262.27197266 C86.4465106 262.77350342 93.84216589 263.11044995 101.26318359 263.29150391 C130.68368772 264.05042776 158.48801326 272.99236846 186.26904297 282.12353516 C188.97314388 282.99138088 191.68878265 283.80302485 194.4140625 284.6015625 C197.69263029 285.57616648 200.78533305 286.64064044 203.875 288.125 C207.39641793 289.7938243 210.92792553 291.40825683 214.51171875 292.9375 C226.34332809 298.03130937 237.20882302 303.97755373 248 311 C248.87374268 311.56315918 248.87374268 311.56315918 249.76513672 312.13769531 C263.52694896 321.02767006 276.55411078 330.80773312 288.64453125 341.8671875 C290.66311204 343.69495717 292.72228353 345.44346194 294.8125 347.1875 C310.0347684 360.50698485 322.1641364 377.04866589 333 394 C333.36754395 394.57137695 333.73508789 395.14275391 334.11376953 395.73144531 C338.93641235 403.2614984 343.11451029 410.9530625 347 419 C347.89441889 420.75072334 348.79018069 422.50076147 349.6875 424.25 C351.43869615 427.74683294 352.89595213 431.2360985 354.203125 434.91796875 C355.10028904 437.2620297 356.16571956 439.48638857 357.25 441.75 C363.08226148 454.57046667 367.17667922 467.76710359 370.25 481.5 C370.48388428 482.5415625 370.71776855 483.583125 370.95874023 484.65625 C371.69449623 488.09557341 372.35786848 491.54195277 373 495 C373.13343811 495.68630493 373.26687622 496.37260986 373.40435791 497.07971191 C376.36271527 512.60818853 376.47567878 527.98297965 376.375 543.75 C376.37001495 545.05902283 376.36502991 546.36804565 376.3598938 547.71673584 C376.27246697 567.29347126 375.91559847 586.60899148 373 606 C372.87886841 606.80973267 372.75773682 607.61946533 372.63293457 608.45373535 C371.66046341 614.89437872 370.62949728 621.32437649 369.5625 627.75 C369.4174704 628.62803284 369.2724408 629.50606567 369.12301636 630.41070557 C366.91801771 643.57430706 363.60588411 655.55158097 358.3203125 667.84765625 C357.43497236 669.96147131 356.59659217 672.09552911 355.8046875 674.24609375 C346.26216321 699.87377125 330.7443351 723.5268251 314 745 C313.30390625 745.91007812 312.6078125 746.82015625 311.890625 747.7578125 C299.04523952 764.26572525 283.66909696 780.37119662 267 793 C266.17580566 793.63881104 266.17580566 793.63881104 265.33496094 794.29052734 C243.46306749 811.21335001 217.8635817 822.72526471 192.01220703 832.2409668 C189.75845385 833.09111465 187.52883082 833.99264176 185.296875 834.8984375 C179.37941047 837.27864354 173.38238755 839.42164615 167.375 841.5625 C165.21596702 842.33413529 163.05710884 843.10625986 160.8984375 843.87890625 C159.8767749 844.24411377 158.8551123 844.60932129 157.80249023 844.9855957 C155.48149633 845.82571502 153.17473388 846.69202026 150.87109375 847.578125 C136.10924517 853.13760923 120.60417553 856.69086441 105.25 860.1875 C104.54007904 860.34962982 103.83015808 860.51175964 103.09872437 860.67880249 C98.80895533 861.65417551 94.51326514 862.59786279 90.21170044 863.51977539 C88.0078935 863.99828609 85.80983376 864.49883069 83.61108398 865 C68.47274434 868.3448843 53.1144659 869.82093846 37.7164917 871.40301514 C32.00794397 871.99132343 26.30109809 872.59589123 20.59428215 873.20072556 C18.6357616 873.40676617 16.67672128 873.60784753 14.71766663 873.80874634 C7.74853798 874.53721019 0.83415255 875.42521459 -6.08432007 876.53852844 C-23.50300956 879.29542562 -40.88439125 880.38079615 -58.48901367 880.70922852 C-59.1874086 880.72304062 -59.88580353 880.73685272 -60.60536194 880.75108337 C-62.49870135 880.78655027 -64.39217394 880.81469683 -66.28564453 880.84228516 C-70.0496231 880.95117639 -70.0496231 880.95117639 -73.95922852 881.49609375 C-80.94860247 882.31598794 -87.99135294 882.22753803 -95.01953125 882.2734375 C-96.18091393 882.28142302 -96.18091393 882.28142302 -97.3657589 882.28956985 C-101.49212012 882.31623276 -105.61845233 882.33559916 -109.74487305 882.35009766 C-113.07524477 882.3632125 -116.40497054 882.39064118 -119.73510742 882.43212891 C-143.61890671 882.72264382 -166.44186404 880.89167575 -190 877 C-197.7297111 875.74947542 -205.41631216 874.66432638 -213.21875 874 C-214.12395386 873.91878906 -215.02915771 873.83757813 -215.96179199 873.75390625 C-218.80753061 873.49869406 -221.65368069 873.24864622 -224.5 873 C-248.09965818 870.93840215 -248.09965818 870.93840215 -259 869 C-260.04559082 868.81469727 -261.09118164 868.62939453 -262.16845703 868.43847656 C-281.44098196 864.93225968 -300.12126037 860.33825386 -318.8984375 854.79296875 C-323.65686928 853.38887829 -328.42459153 852.02226503 -333.19946289 850.67529297 C-343.87063397 847.66227989 -354.46111212 844.447085 -365 841 C-365.70543945 840.77376953 -366.41087891 840.54753906 -367.13769531 840.31445312 C-397.96545423 830.37001476 -423.67062911 812.99885339 -448.10473633 792.13916016 C-451.59661646 789.1622899 -455.1517266 786.28592342 -458.75 783.4375 C-468.15897843 775.74171706 -475.39047451 766.14584366 -482.77783203 756.57763672 C-483.81075618 755.24428558 -484.85527557 753.91992921 -485.90234375 752.59765625 C-502.57124684 731.53600693 -517.73148066 708.017292 -526.7265625 682.59765625 C-527.81226376 679.53038368 -528.96353208 676.51390598 -530.1875 673.5 C-531.40728512 670.49627914 -532.5709679 667.48112355 -533.6875 664.4375 C-534.65043665 661.21344133 -534.65043665 661.21344133 -536 660 C-536.28595838 657.8439646 -536.44752485 655.68729607 -536.62109375 653.51953125 C-537.07116751 650.52677275 -538.03992194 647.86964509 -539 645 C-539.56649743 642.45753783 -540.0892783 639.93390254 -540.5625 637.375 C-540.93568359 635.43753906 -540.93568359 635.43753906 -541.31640625 633.4609375 C-543.053349 623.03449274 -543.25732992 612.41954613 -543.5625 601.875 C-543.58268188 601.18390137 -543.60286377 600.49280273 -543.62365723 599.78076172 C-543.76465087 594.85417807 -543.88596892 589.92727254 -544 585 C-544.03013184 583.76024414 -544.06026367 582.52048828 -544.09130859 581.24316406 C-544.347018 569.40886779 -544.39439413 558.12867683 -541.7734375 546.55078125 C-541.00468317 543.0215 -540.60642164 539.5919381 -540.25 536 C-539.36689522 528.98754935 -537.58716866 522.34687791 -535.625 515.5625 C-535.33270508 514.54349609 -535.04041016 513.52449219 -534.73925781 512.47460938 C-533.18240685 507.26455368 -531.41237016 502.47213055 -528.86132812 497.66918945 C-527.79960287 495.61164536 -527.08954291 493.53108627 -526.4375 491.3125 C-525.339722 487.84210503 -523.89933231 485.11490498 -522 482 C-521.33291451 480.40455387 -520.68951186 478.79911643 -520.0625 477.1875 C-518.59257261 473.41561086 -516.96907066 469.82656745 -515.1171875 466.23046875 C-513.7581369 463.51711948 -512.50703838 460.76208704 -511.25 458 C-501.56539486 437.00861835 -490.36886511 412.90219204 -472 398 C-471.34 398 -470.68 398 -470 398 C-470 397.34 -470 396.68 -470 396 C-468.7421875 394.6953125 -468.7421875 394.6953125 -466.875 393.125 C-466.14667969 392.50496094 -465.41835938 391.88492187 -464.66796875 391.24609375 C-463.78753906 390.50488281 -462.90710938 389.76367188 -462 389 C-459.72557047 387.06669966 -457.456345 385.12734864 -455.1875 383.1875 C-454.57946533 382.66953857 -453.97143066 382.15157715 -453.3449707 381.61791992 C-449.6676581 378.47326788 -446.09348014 375.24713511 -442.5625 371.9375 C-425.21891552 356.1383807 -404.88355329 345.01452301 -382.2265625 338.89453125 C-380.24610821 338.34547068 -378.27721781 337.74882789 -376.3359375 337.07421875 C-348.59490346 328.14121598 -318.54832061 329.33650054 -289.74377441 329.03253174 C-287.20753941 329.0024607 -284.67174435 328.96282481 -282.13574219 328.91748047 C-260.26915895 328.52741071 -238.74651216 329.67698507 -217 332 C-216.29774292 332.07496704 -215.59548584 332.14993408 -214.87194824 332.22717285 C-199.21632277 333.91935308 -183.82797204 336.21297162 -168.484375 339.78125 C-162.77587417 341.09260698 -157.02854913 342.05483837 -151.25 343 C-140.96831264 344.70898317 -131.02431508 347.17316161 -121 350 C-112.80756339 352.27290162 -104.62892083 354.36467994 -96.3125 356.125 C-95.56484375 356.28363525 -94.8171875 356.44227051 -94.046875 356.60571289 C-89.76741901 357.49090906 -85.49309443 358.23007519 -81.171875 358.8828125 C-74.87227846 359.91881511 -68.97363457 361.70013965 -62.9375 363.75 C-61.93912109 364.07226562 -60.94074219 364.39453125 -59.91210938 364.7265625 C-52.8020376 367.10735227 -46.4926289 370.27684584 -40 374 C-33.21048748 377.64414109 -26.37773408 380.94345714 -19.125 383.5625 C-13.56347533 385.6405062 -9.44178572 388.09903051 -5 392 C-4.19949219 392.6703125 -3.39898438 393.340625 -2.57421875 394.03125 C2.63115013 398.51781984 6.90199872 403.23199235 11.08203125 408.671875 C12.87015529 410.84238809 14.66003778 412.57618776 16.8125 414.375 C27.12206102 423.00012487 36.41596055 433.87126628 42.10546875 446.09765625 C42.96971764 447.99770049 42.96971764 447.99770049 43.98828125 449.74609375 C47.67805369 456.37058867 49.19845953 463.69775598 51 471 C51.21785156 471.825 51.43570313 472.65 51.66015625 473.5 C53.55820914 480.69854131 54.17080364 487.68611914 54.23828125 495.08984375 C54.246353 495.95203018 54.25442474 496.81421661 54.26274109 497.70252991 C54.27651435 499.52375318 54.28726643 501.34500154 54.29516602 503.16625977 C54.30662171 504.99771897 54.32697037 506.8291465 54.35668945 508.66040039 C54.55254756 520.7653066 53.64326379 531.43435991 50 543 C49.7218042 543.90790283 49.4436084 544.81580566 49.15698242 545.7512207 C48.46284992 547.91670752 47.71809067 550.05192174 46.9375 552.1875 C46.69451172 552.88423828 46.45152344 553.58097656 46.20117188 554.29882812 C44.81980825 558.15711964 43.17190529 561.53471291 41 565 C40.28856912 566.98451771 39.61008664 568.98202112 39 571 C38.34 571 37.68 571 37 571 C36.7525 571.71800781 36.505 572.43601562 36.25 573.17578125 C25.98065669 596.37807879 -4.00851442 612.84513636 -25 625 C-26.55074219 626.04994141 -26.55074219 626.04994141 -28.1328125 627.12109375 C-32.68593825 629.70233126 -37.12043221 629.58870798 -42.25 629.625 C-44.30478688 629.67860893 -46.35947621 629.73606205 -48.4140625 629.796875 C-49.48817383 629.82587891 -50.56228516 629.85488281 -51.66894531 629.88476562 C-66.63781618 630.40259816 -81.58787721 631.6739902 -96.37939453 634.03466797 C-100.64120531 634.71115969 -104.66517928 635.15356853 -109 635 C-109 635.66 -109 636.32 -109 637 C-113.47882774 637.64819804 -117.95812016 638.29312928 -122.4375 638.9375 C-123.69755859 639.11990234 -124.95761719 639.30230469 -126.25585938 639.49023438 C-135.88618599 640.87317945 -145.25795267 642.15463567 -155 642 C-153.82744291 638.66272214 -152.81131596 636.22562513 -150 634 C-149.34 634 -148.68 634 -148 634 C-147.67 633.01 -147.34 632.02 -147 631 C-144.90745434 629.28764925 -142.83971418 627.72555226 -140.625 626.1875 C-139.9952124 625.74535156 -139.3654248 625.30320312 -138.71655273 624.84765625 C-125.74180744 615.8730884 -125.74180744 615.8730884 -118.25 614.125 C-114.10624417 612.69062298 -112.6395754 610.55446841 -109.9375 607.20703125 C-107.15959645 604.04268547 -103.92503259 601.63378092 -100.60546875 599.0625 C-97.09157425 596.28088636 -93.79697466 593.29006473 -90.48828125 590.26953125 C-88.87236637 588.79567482 -87.24528766 587.3339325 -85.60546875 585.88671875 C-74.19398657 575.80258183 -63.910561 565.35882605 -55 553 C-53.90171875 551.58847656 -53.90171875 551.58847656 -52.78125 550.1484375 C-45.53980035 540.34005607 -42.79615251 528.91132714 -41 517 C-40.34 517 -39.68 517 -39 517 C-39.18265894 499.58464082 -39.18265894 499.58464082 -44 483 C-44.3609375 482.02289062 -44.721875 481.04578125 -45.09375 480.0390625 C-48.44111776 471.24091346 -53.26022694 463.53325535 -59.24609375 456.27734375 C-61 454 -61 454 -61 452 C-61.66 452 -62.32 452 -63 452 C-64.38780817 450.39983325 -65.70965704 448.74225003 -67 447.0625 C-83.14657746 426.98212262 -105.17075827 415.28430656 -130 410 C-131.00998047 409.78214844 -132.01996094 409.56429688 -133.06054688 409.33984375 C-173.93333491 400.70648478 -217.51855211 400.58036324 -259 405 C-260.0199707 405.10763672 -261.03994141 405.21527344 -262.09082031 405.32617188 C-278.94076638 407.26093701 -294.41819832 412.40857803 -310.28637695 418.14550781 C-313 419 -313 419 -316 419 C-316 419.66 -316 420.32 -316 421 C-316.58523438 421.23332031 -317.17046875 421.46664063 -317.7734375 421.70703125 C-325.29869833 424.90470214 -332.07814573 428.97705847 -338.97998047 433.34106445 C-339.73037598 433.8124585 -340.48077148 434.28385254 -341.25390625 434.76953125 C-342.26432983 435.41305542 -342.26432983 435.41305542 -343.29516602 436.06958008 C-345 437 -345 437 -347 437 C-347.33 437.99 -347.66 438.98 -348 440 C-349.64480944 440.71890481 -351.31566412 441.3793271 -353 442 C-360.48278261 446.68356649 -365.66323038 453.08557221 -371 460 C-371.66515625 460.81210937 -372.3303125 461.62421875 -373.015625 462.4609375 C-376.54440503 466.80519191 -379.0934024 470.7288184 -381 476 C-381.66 476 -382.32 476 -383 476 C-384.07525194 478.65228812 -385.09456151 481.28368454 -386 484 C-386.66 484 -387.32 484 -388 484 C-388.33 485.98 -388.66 487.96 -389 490 C-389.66 490 -390.32 490 -391 490 C-391.103125 490.886875 -391.20625 491.77375 -391.3125 492.6875 C-392 496 -392 496 -393.4140625 498.2109375 C-395.37007021 501.65081312 -396.2137739 505.11299352 -397.0625 508.9375 C-397.22298828 509.60845703 -397.38347656 510.27941406 -397.54882812 510.97070312 C-398.08472712 513.30584532 -398.5511585 515.64654239 -399 518 C-399.18312744 518.92989746 -399.36625488 519.85979492 -399.55493164 520.81787109 C-401.40357635 531.6455293 -401.33752826 542.47333079 -401.31567383 553.4296875 C-401.31251959 556.7295049 -401.33602513 560.02841812 -401.36132812 563.328125 C-401.96677692 583.12495162 -401.96677692 583.12495162 -397 602 C-396.62935463 604.77115328 -396.297175 607.53344944 -396 610.3125 C-395.25625551 617.19496547 -395.25625551 617.19496547 -394 624 C-393.01 624.33 -392.02 624.66 -391 625 C-389.29466783 628.32091002 -389 630.18492784 -389 634 C-388.34 634 -387.68 634 -387 634 C-386.67 637.63 -386.34 641.26 -386 645 C-385.34 645 -384.68 645 -384 645 C-383.69707031 645.56847656 -383.39414062 646.13695312 -383.08203125 646.72265625 C-380.66724536 651.1732924 -378.14339867 655.36818805 -375.125 659.43359375 C-374 661 -374 661 -372.375 663.8125 C-371.03850682 666.26989717 -371.03850682 666.26989717 -368 668 C-367.2265625 669.485 -367.2265625 669.485 -366.4375 671 C-361.26108347 680.5198465 -350.85791546 688.70604125 -342 694.8125 C-341.01 695.534375 -340.02 696.25625 -339 697 C-339 697.66 -339 698.32 -339 699 C-338.4225 699.2475 -337.845 699.495 -337.25 699.75 C-335 701 -335 701 -333.3125 702.8125 C-329.96156103 705.98230713 -326.0586044 707.85520906 -322 710 C-316.3960419 713.03060353 -310.90051067 716.22380254 -305.4375 719.5 C-304.78160889 719.8930835 -304.12571777 720.28616699 -303.44995117 720.69116211 C-300.15481914 722.67456293 -296.90294613 724.70154654 -293.6875 726.8125 C-290.02872191 729.13642718 -286.1474642 730.6749516 -282.1015625 732.203125 C-280 733 -280 733 -278 734 C-276.27392556 734.27052615 -274.54394983 734.51633606 -272.8125 734.75 C-267.12198162 735.65173881 -261.85476226 737.28037099 -256.43994141 739.17822266 C-252.142828 740.66810985 -247.95344553 741.73824726 -243.47753906 742.50219727 C-241.03393473 742.99318162 -238.74306918 743.66443978 -236.37109375 744.42578125 C-231.09302145 746.03543029 -225.80619787 747.11347168 -220.375 748.0625 C-219.42802246 748.23168945 -218.48104492 748.40087891 -217.50537109 748.57519531 C-209.36640957 749.9996165 -201.21363311 751.10567892 -193 752 C-193 752.66 -193 753.32 -193 754 C-188.44942593 754.85381088 -183.96479179 755.23335624 -179.34765625 755.4296875 C-177.8466554 755.50152884 -176.34567967 755.57389651 -174.84472656 755.64672852 C-174.06488403 755.68371857 -173.2850415 755.72070862 -172.48156738 755.75881958 C-161.49713272 756.28636844 -150.62428361 756.84721122 -139.75 758.5625 C-122.65867903 761.1208255 -105.24400815 760.82356439 -88 761 C-87.03060486 761.01095703 -86.06120972 761.02191406 -85.06243896 761.03320312 C-62.08130846 761.28867947 -39.20443939 761.21617425 -16.265625 759.71606445 C-3.50129674 758.88938539 9.21013829 758.77640102 22 759 C22 758.34 22 757.68 22 757 C28.20800925 755.42070574 34.4386647 753.9707873 40.6875 752.5625 C48.44312274 750.81794501 48.44312274 750.81794501 56.18359375 749.0078125 C57.31925781 748.73710938 58.45492187 748.46640625 59.625 748.1875 C60.58664062 747.95417969 61.54828125 747.72085938 62.5390625 747.48046875 C65 747 65 747 69 747 C69 746.34 69 745.68 69 745 C69.95519531 744.74605469 70.91039062 744.49210937 71.89453125 744.23046875 C72.82471069 743.9828479 72.82471069 743.9828479 73.77368164 743.73022461 C75.1464703 743.36479422 76.51935638 742.99972961 77.89233398 742.63500977 C81.79079806 741.59726947 85.67908072 740.53043836 89.5625 739.4375 C93.74188013 738.28349205 97.94017861 737.37020491 102.1875 736.5 C107.40823897 735.40688999 112.07885844 734.03633444 117 732 C121.1281036 730.33200242 124.46211917 729 129 729 C129 728.34 129 727.68 129 727 C129.69867187 726.80664062 130.39734375 726.61328125 131.1171875 726.4140625 C132.48230469 726.02347656 132.48230469 726.02347656 133.875 725.625 C135.23238281 725.24214844 135.23238281 725.24214844 136.6171875 724.8515625 C139.14569726 724.1395685 139.14569726 724.1395685 141 722 C142.56488252 721.33014021 144.1518214 720.71099882 145.75 720.125 C149.91634895 718.51840789 153.32803 716.56183954 157 714 C157.804375 713.690625 158.60875 713.38125 159.4375 713.0625 C162.39272193 711.83716408 164.63360544 710.17506693 167.19140625 708.27734375 C169 707 169 707 172.3125 705.1875 C177.32096356 702.40252474 181.61717071 698.66274359 186 695 C187.02287109 694.14728516 187.02287109 694.14728516 188.06640625 693.27734375 C195.59347815 686.84511867 202.81737541 680.03799622 208.55859375 671.94140625 C210.16906777 669.77228541 211.93182838 667.80987539 213.75 665.8125 C216.28962491 662.96723095 217.72824973 660.61959692 219 657 C219.639375 656.2575 220.27875 655.515 220.9375 654.75 C223.66472168 651.11370443 224.7545569 647.33074533 226 643 C226.66 643 227.32 643 228 643 C228.268125 641.865625 228.53625 640.73125 228.8125 639.5625 C229.204375 638.386875 229.59625 637.21125 230 636 C230.99 635.67 231.98 635.34 233 635 C233.12375 633.88625 233.2475 632.7725 233.375 631.625 C234 628 234 628 236 626 C236.73222547 624.3358512 237.4597464 622.669309 238.15234375 620.98828125 C239.9036148 616.88046113 242.01246826 612.93793822 244.0390625 608.9609375 C244.37679687 608.29320312 244.71453125 607.62546875 245.0625 606.9375 C245.36285156 606.34839844 245.66320313 605.75929688 245.97265625 605.15234375 C248.54237045 599.76864594 250.38077636 595.14697495 250.94921875 589.171875 C251.01192459 588.52226303 251.07463043 587.87265106 251.13923645 587.20335388 C251.3387499 585.05332997 251.51591807 582.90242563 251.6875 580.75 C251.7803125 579.62218613 251.7803125 579.62218613 251.875 578.47158813 C256.86922995 528.85286037 256.86922995 528.85286037 244.91015625 481.72387695 C243.55582452 479.15871162 242.87049397 476.4813274 242.125 473.6875 C239.94504916 466.26877403 236.46530581 459.99086634 232.421875 453.4453125 C231.15920559 451.27379863 230.18315778 449.22439401 229.3125 446.875 C229.06113281 446.21242188 228.80976562 445.54984375 228.55078125 444.8671875 C228 443 228 443 228 440 C227.34 440 226.68 440 226 440 C225.67 438.02 225.34 436.04 225 434 C224.34 434 223.68 434 223 434 C221.18807047 431.96157927 220.0697464 430.18931166 219.125 427.625 C218.04833469 424.76743309 218.04833469 424.76743309 215.5 422 C213 419 213 419 212.12890625 416.6953125 C210.72371803 413.34036486 208.6811311 410.69845543 206.4375 407.875 C205.99422363 407.31022949 205.55094727 406.74545898 205.09423828 406.16357422 C204.17934667 405.00180192 203.26136807 403.84245403 202.34033203 402.68554688 C201.0915923 401.11518273 199.85581195 399.53453748 198.62109375 397.953125 C194.79284344 393.13285852 190.95774748 388.79299692 186.21484375 384.8671875 C183.99844126 382.99868593 181.88588708 381.03974372 179.7746582 379.05395508 C165.90977201 366.05937078 149.25532876 353.04145683 131.12109375 346.765625 C128.57200745 345.84551282 126.11151257 344.76532987 123.625 343.6875 C106.07589057 336.34597558 87.48472577 330.90794741 68.74609375 327.67578125 C65.98631024 327.17792666 63.29363098 326.61633191 60.56640625 325.98046875 C56.22526172 325.00148837 51.9259782 324.42782033 47.5 324 C46.27325562 323.87492065 46.27325562 323.87492065 45.02172852 323.74731445 C40.57935345 323.30668998 36.13621993 322.9260059 31.68359375 322.60546875 C19.64846587 321.73667312 7.69231031 320.5363708 -4.28201294 319.06765747 C-43.7081921 314.23769879 -83.02506665 309.51874556 -122.77738953 309.11430359 C-137.33572807 308.93113605 -151.78702149 307.28515672 -166.22875977 305.56420898 C-171.37965435 304.95198629 -176.5333327 304.3651911 -181.6875 303.78125 C-182.60982925 303.67666977 -183.53215851 303.57208954 -184.48243713 303.46434021 C-187.32159336 303.14261553 -190.16078955 302.82124582 -193 302.5 C-199.47841095 301.76699253 -205.95649973 301.03131075 -212.43408203 300.29101562 C-214.89176008 300.01227612 -217.35006031 299.7398256 -219.80859375 299.46875 C-226.48612173 298.72260644 -233.07024072 297.8796534 -239.64550781 296.46435547 C-244.34898061 295.53673153 -249.11094334 295.06833271 -253.875 294.5625 C-255.04973877 294.43544678 -256.22447754 294.30839355 -257.43481445 294.17749023 C-268.04054809 293.08825998 -278.66142834 292.40873742 -289.30090332 291.74334717 C-308.76149271 290.52412853 -327.5596335 288.31430593 -346.68652344 284.45336914 C-349.88516839 283.82653465 -353.09948253 283.29779314 -356.3125 282.75 C-374.36955923 279.44538285 -396.63298138 275.11184295 -409.3984375 261.015625 C-413.32550046 253.62125279 -413.38679609 244.72261294 -413.375 236.5 C-413.37628906 235.53892334 -413.37757813 234.57784668 -413.37890625 233.58764648 C-413.2057355 221.25415007 -411.10691983 209.12739689 -409 197 C-406 198 -406 198 -404 201 C-404.04125 202.299375 -404.0825 203.59875 -404.125 204.9375 C-404.31411485 217.965412 -396.17119749 230.84804852 -387.4375 240.0625 C-364.93314644 260.47461207 -329.79071021 259.38871613 -301.5 260.125 C-296.44778577 260.26911108 -291.39576329 260.41934123 -286.34375 260.5703125 C-285.14642242 260.60492584 -283.94909485 260.63953918 -282.71548462 260.67520142 C-275.57379789 260.89015263 -268.47353095 261.25153346 -261.34863281 261.78564453 C-255.51822539 262.15886542 -249.67919926 262.22134809 -243.83917236 262.33157349 C-233.53703787 262.53362902 -223.26602776 262.80721318 -213 263.73046875 C-211.86841713 263.831567 -211.86841713 263.831567 -210.713974 263.93470764 C-209.94718826 264.00322433 -209.18040253 264.07174103 -208.39038086 264.14233398 C-188.2092494 265.93782873 -168.09579112 266.30784298 -147.84844208 266.31141281 C-145.61202208 266.31247645 -143.37563448 266.31715056 -141.13922119 266.32254028 C-124.9959336 266.35199379 -108.90684492 266.03472824 -92.7890625 265.09375 C-91.75358623 265.03447799 -91.75358623 265.03447799 -90.69719124 264.97400856 C-69.33985864 263.72241683 -48.3949368 260.48241822 -27.57226562 255.59375 C-25.10027358 255.02314591 -22.62375048 254.48852115 -20.140625 253.96875 C-5.87615259 250.96941474 7.62888389 246.87188286 21 241 C22.25567117 240.47974063 23.51223376 239.96162919 24.76953125 239.4453125 C51.00132654 228.53647072 74.64754699 212.41559274 88.16015625 186.80078125 C93.06815063 170.4331907 87.5978018 152.40936215 80.36328125 137.6640625 C72.74095237 124.78177301 60.40053693 113.26702462 48 105 C48 104.34 48 103.68 48 103 C47.071875 102.7834375 47.071875 102.7834375 46.125 102.5625 C44 102 44 102 42 101 C42 100.34 42 99.68 42 99 C41.34 99 40.68 99 40 99 C39.67 98.34 39.34 97.68 39 97 C37.69456713 96.22198532 36.35451753 95.50151673 35 94.8125 C30.56701342 92.43641919 26.74736711 89.61691159 22.84765625 86.453125 C21.05747341 84.94481951 21.05747341 84.94481951 19 84 C19 83.34 19 82.68 19 82 C18.278125 81.896875 17.55625 81.79375 16.8125 81.6875 C13.71413759 80.93012252 11.72631277 79.63976768 9 78 C5.05531626 76.19720041 1.0295388 74.60288304 -3 73 C-3.90234375 72.63519531 -4.8046875 72.27039063 -5.734375 71.89453125 C-11.7018677 69.5905141 -17.63228 68.11286843 -23.8984375 66.85546875 C-29.87545108 65.64228269 -35.79165614 64.15675626 -41.71630859 62.71313477 C-49.21905495 60.90059429 -56.41780272 59.80250251 -64.125 59.4375 C-64.98939697 59.3964917 -65.85379395 59.3554834 -66.74438477 59.31323242 C-73.14093848 59.03436831 -79.53511608 58.86528971 -85.9375 58.8125 C-86.77104004 58.79952881 -87.60458008 58.78655762 -88.46337891 58.77319336 C-92.8706331 58.76640182 -95.92029801 59.21641169 -100 61 C-102.11842346 61.23597628 -104.24587524 61.39885393 -106.375 61.5 C-111.2368985 61.73207153 -115.33216826 62.64930826 -120 64 C-123.11247162 64.58623656 -126.24104113 65.04442451 -129.375 65.5 C-140.71744545 66.72095242 -140.71744545 66.72095242 -151 71 C-152.82261974 71.4612803 -154.65831191 71.87196929 -156.5 72.25 C-171.92050928 76.00343331 -185.03169274 87.24307456 -196.890625 97.3828125 C-199 99 -199 99 -201 99 C-201 99.66 -201 100.32 -201 101 C-202.25540777 101.98552542 -203.55728249 102.91198371 -204.875 103.8125 C-213.59080201 110.40451481 -221.69301157 120.24621699 -223.3359375 131.25 C-223.78472658 137.91772342 -221.67452693 143.23333658 -219.09375 149.3125 C-218 152 -218 152 -218 154 C-217.1646875 154.3403125 -217.1646875 154.3403125 -216.3125 154.6875 C-214 156 -214 156 -211.6875 158.4375 C-208.53859315 161.43994606 -206.03807624 162.49561865 -202 164 C-202 164.66 -202 165.32 -202 166 C-199.66893061 166.67544464 -197.33555949 167.34036656 -195 168 C-193.94184082 168.30574951 -193.94184082 168.30574951 -192.86230469 168.61767578 C-174.55477949 173.73451519 -156.42337463 173.91249824 -137.57177734 173.98822021 C-134.96184105 174.00017478 -132.35206037 174.01986747 -129.7421875 174.04150391 C-118.31320152 174.13179464 -106.88742634 174.11925862 -95.45855713 174.01959229 C-93.06921206 174.00055155 -90.6799235 173.98850192 -88.29052734 173.97802734 C-66.11166301 174.07150631 -66.11166301 174.07150631 -45 168 C-44.06027344 167.60554687 -43.12054687 167.21109375 -42.15234375 166.8046875 C-29.80213989 161.17910444 -21.04309372 151.73060022 -13.4453125 140.75390625 C-12.72988281 139.88572266 -12.72988281 139.88572266 -12 139 C-11.34 139 -10.68 139 -10 139 C-3.05027589 146.06295791 1.66591694 154.15565164 6 163 C6.36222656 163.69222656 6.72445312 164.38445312 7.09765625 165.09765625 C9.55635386 170.11797369 9.89349241 174.99601689 8.3203125 180.28515625 C7.60624296 182.21314401 6.80988813 184.11026104 6 186 C5.34 186 4.68 186 4 186 C3.72671875 186.60199219 3.4534375 187.20398438 3.171875 187.82421875 C-1.07264074 195.70486965 -11.06070924 199.75091731 -19 203 C-21.89453125 203.640625 -21.89453125 203.640625 -24.5625 204 C-28.92724294 204.58949114 -31.78780654 205.86221333 -35.5625 208.125 C-58.30192575 221.03477999 -88.66087817 226.17567283 -114.359375 229.38671875 C-118.63944389 229.92392543 -122.83720765 230.70321746 -127.0625 231.5625 C-135.28507902 233.15879441 -143.52723479 233.98643563 -151.86791992 234.69702148 C-154.20809439 234.92339583 -156.5438682 235.19613165 -158.8762207 235.49243164 C-174.23052735 237.37570393 -189.58770339 237.34069389 -205.03051758 237.31567383 C-208.11204767 237.31107694 -211.19317976 237.31784832 -214.2746582 237.33618164 C-246.95883993 237.52881738 -279.11364663 235.56736562 -310.9375 227.6875 C-312.06397949 227.41583008 -313.19045898 227.14416016 -314.35107422 226.86425781 C-328.10767271 223.31167373 -341.82627269 216.22238139 -349.51098633 203.83105469 C-352.78656377 198.12712369 -355.53579709 192.62723731 -356 186 C-356.09152344 184.75347656 -356.18304688 183.50695312 -356.27734375 182.22265625 C-356.98118707 167.23403164 -354.34367685 150.84371814 -347.2109375 137.51171875 C-346.1307832 135.27126966 -345.44224638 133.21608165 -344.73046875 130.84375 C-342.93563522 125.32219147 -340.04653515 120.68531905 -336.9375 115.8125 C-336.35895264 114.89339844 -335.78040527 113.97429687 -335.18432617 113.02734375 C-327.45492102 100.84961317 -318.9145245 89.33034651 -310 78 C-309.57734863 77.46084961 -309.15469727 76.92169922 -308.71923828 76.36621094 C-307.48727615 74.80048451 -306.2438471 73.24380149 -305 71.6875 C-304.278125 70.78386719 -303.55625 69.88023437 -302.8125 68.94921875 C-302.214375 68.30597656 -301.61625 67.66273438 -301 67 C-300.34 67 -299.68 67 -299 67 C-298.64421875 66.14148438 -298.64421875 66.14148438 -298.28125 65.265625 C-296.72406762 62.5120708 -294.87507203 60.83204366 -292.5 58.75 C-291.7059375 58.04359375 -290.911875 57.3371875 -290.09375 56.609375 C-288 55 -288 55 -286 55 C-286 54.34 -286 53.68 -286 53 C-284.01402351 51.38123026 -282.03480011 49.90053261 -279.9375 48.4375 C-279.31496338 47.99784912 -278.69242676 47.55819824 -278.05102539 47.10522461 C-271.25176196 42.37025047 -264.15419146 38.16972542 -257 34 C-256.17886719 33.4946875 -255.35773438 32.989375 -254.51171875 32.46875 C-251.37465966 30.63432665 -248.13598804 29.035944 -244.875 27.4375 C-240.27324463 25.17476435 -235.71302867 22.86510773 -231.21875 20.39453125 C-210.41791051 9 -210.41791051 9 -200 9 C-200 8.34 -200 7.68 -200 7 C-199.17274414 6.79842285 -198.34548828 6.5968457 -197.49316406 6.38916016 C-194.41343507 5.63630869 -191.33480087 4.87916935 -188.25683594 4.11914062 C-186.92652758 3.79158051 -185.59580099 3.46571396 -184.26464844 3.14160156 C-182.34720529 2.67442184 -180.43139247 2.20056682 -178.515625 1.7265625 C-177.36352539 1.44377441 -176.21142578 1.16098633 -175.02441406 0.86962891 C-172.07783195 0.12474343 -172.07783195 0.12474343 -169.82714844 -1.10009766 C-166.95212925 -2.51609455 -164.14291423 -2.12088132 -161 -2 C-161 -2.66 -161 -3.32 -161 -4 C-143.83196402 -8.46187037 -127.11793463 -11.62679534 -109.375 -12.4375 C-108.6065274 -12.47292908 -107.83805481 -12.50835815 -107.04629517 -12.54486084 C-71.74394725 -14.08091684 -33.22057193 -13.35415321 0 0 Z " fill="#010101" transform="translate(823,509)"/>
<path d="M0 0 C3.59083214 3.59083214 6.12389549 7.52896062 8.8125 11.8125 C9.555 12.864375 10.2975 13.91625 11.0625 15 C15.1571213 21.58064138 15.39113348 28.24662999 15.8125 35.8125 C15.90144531 36.7715625 15.99039063 37.730625 16.08203125 38.71875 C16.45339071 44.86777177 15.53530039 48.79360234 11.7890625 53.73828125 C6.63371603 59.14833852 0.92457663 62.62416873 -6.1875 64.8125 C-6.6825 66.2975 -6.6825 66.2975 -7.1875 67.8125 C-9.41796875 68.84765625 -9.41796875 68.84765625 -12.1875 69.8125 C-13.96228694 70.61632727 -15.73301768 71.42915872 -17.5 72.25 C-22.00873909 74.31373158 -26.53384303 76.10615911 -31.1875 77.8125 C-32.3425 78.3075 -33.4975 78.8025 -34.6875 79.3125 C-38.1875 80.8125 -38.1875 80.8125 -41.75 82 C-47.6266038 84.17400372 -52.93822356 87.55607519 -58.32324219 90.71875 C-61.35188247 92.49563692 -64.39297167 94.25051047 -67.4375 96 C-68.02700439 96.34095703 -68.61650879 96.68191406 -69.22387695 97.03320312 C-72.42213566 98.86667411 -75.63637788 100.49746829 -79 102 C-94.21825902 109.44508526 -105.9397003 121.73567027 -115.328125 135.52734375 C-117.183936 137.80811988 -118.47849286 138.76365874 -121.1875 139.8125 C-121.1875 140.4725 -121.1875 141.1325 -121.1875 141.8125 C-122.81074086 142.03412329 -124.436221 142.23939803 -126.0625 142.4375 C-126.96742188 142.55351562 -127.87234375 142.66953125 -128.8046875 142.7890625 C-129.59101562 142.79679688 -130.37734375 142.80453125 -131.1875 142.8125 C-134.41376279 139.58623721 -133.62031893 135.38242527 -133.63012695 131.04541016 C-133.38016148 119.74884843 -129.72406239 109.05950615 -125.1875 98.8125 C-124.55616675 97.2316813 -123.93052062 95.6485706 -123.3125 94.0625 C-121.87793985 90.4432471 -120.32911364 86.90497288 -118.6875 83.375 C-117.02747915 79.79416953 -115.62099573 76.24347615 -114.375 72.5 C-110.42988363 61.4093114 -103.90215978 51.62925404 -96.1875 42.8125 C-95.38054688 41.884375 -94.57359375 40.95625 -93.7421875 40 C-89.46580144 35.18743098 -85.11838715 30.70824707 -80.1953125 26.5625 C-75.4258982 22.40550077 -70.99841606 17.80915105 -66.75 13.125 C-62.93351564 9.68085558 -58.66506402 7.3097147 -54.1875 4.8125 C-53.30698975 4.3179834 -53.30698975 4.3179834 -52.40869141 3.81347656 C-48.04991096 1.37778689 -43.64770077 -0.94253228 -39.1875 -3.1875 C-38.03507813 -3.76951172 -38.03507813 -3.76951172 -36.859375 -4.36328125 C-24.77624513 -9.38206157 -10.42721892 -7.15593455 0 0 Z " fill="#020202" transform="translate(804.1875,348.1875)"/>
<path d="M0 0 C0.33 0 0.66 0 1 0 C1.12699111 7.36548431 1.12699111 7.36548431 0.5065918 10.46533203 C-0.1837069 15.28178723 -0.18259853 20.03052212 -0.203125 24.890625 C-0.20882507 25.94924744 -0.21452515 27.00786987 -0.22039795 28.09857178 C-0.22982949 30.34109506 -0.23637458 32.58363208 -0.24023438 34.82617188 C-0.24984847 38.19687451 -0.28085157 41.56694266 -0.3125 44.9375 C-0.98750148 64.92782191 -0.98750148 64.92782191 4 84 C4.06950541 85.54023996 4.08452357 87.08334988 4.0625 88.625 C4.05347656 89.44226562 4.04445313 90.25953125 4.03515625 91.1015625 C4.02355469 91.72804688 4.01195312 92.35453125 4 93 C1.64357481 89.46536221 1.17209579 86.22404577 0.5 82.125 C-0.34445169 76.72483724 -0.34445169 76.72483724 -2.0546875 71.5546875 C-3.46197043 67.75153447 -3.47898342 64.0282947 -3.625 60 C-3.66149658 59.10224854 -3.69799316 58.20449707 -3.7355957 57.27954102 C-4.02712245 49.16799711 -4.13653942 41.05375197 -4.1875 32.9375 C-4.20055176 31.73802734 -4.21360352 30.53855469 -4.22705078 29.30273438 C-4.23682831 19.21791116 -3.06197711 9.62335664 0 0 Z " fill="#626262" transform="translate(422,1027)"/>
<path d="M0 0 C7.89828086 -0.19678616 15.68884779 0.46414855 23.54614258 1.171875 C25.79652977 1.37356865 28.04757209 1.56609073 30.29882812 1.7578125 C38.60797949 2.4841645 46.79435614 3.45543154 55 5 C55 5.33 55 5.66 55 6 C54.27546631 5.93868896 53.55093262 5.87737793 52.80444336 5.81420898 C46.22755765 5.28086538 39.65652221 4.85822586 33.06640625 4.53515625 C32.29307953 4.49635345 31.51975281 4.45755066 30.72299194 4.41757202 C27.52198995 4.25715706 24.32104171 4.09729271 21.11938477 3.95043945 C18.74710829 3.84056108 16.37556846 3.71999698 14.00390625 3.59765625 C12.9303463 3.55222435 12.9303463 3.55222435 11.83509827 3.50587463 C7.58228668 3.27601767 3.97317529 2.53005471 0 1 C0 0.67 0 0.34 0 0 Z " fill="#B3B3B3" transform="translate(630,1262)"/>
<path d="M0 0 C0.66 0.33 1.32 0.66 2 1 C-4.27 7.27 -10.54 13.54 -17 20 C-17.66 19.67 -18.32 19.34 -19 19 C-18.04882866 17.8274869 -17.08882991 16.66212985 -16.125 15.5 C-15.59132813 14.8503125 -15.05765625 14.200625 -14.5078125 13.53125 C-13.76144531 12.77328125 -13.76144531 12.77328125 -13 12 C-12.34 12 -11.68 12 -11 12 C-10.76539063 11.42765625 -10.53078125 10.8553125 -10.2890625 10.265625 C-8.70593415 7.48315699 -6.8008475 5.82929786 -4.375 3.75 C-3.55773437 3.04359375 -2.74046875 2.3371875 -1.8984375 1.609375 C-1.27195312 1.07828125 -0.64546875 0.5471875 0 0 Z " fill="#2F2F2F" transform="translate(535,564)"/>
<path d="M0 0 C0.33 0 0.66 0 1 0 C1.20496094 1.27617188 1.40992188 2.55234375 1.62109375 3.8671875 C1.89305815 5.53648621 2.16520291 7.20575553 2.4375 8.875 C2.57220703 9.71675781 2.70691406 10.55851562 2.84570312 11.42578125 C2.97783203 12.23144531 3.10996094 13.03710938 3.24609375 13.8671875 C3.36654053 14.61081543 3.4869873 15.35444336 3.61108398 16.12060547 C3.93247105 18.07884647 3.93247105 18.07884647 5 20 C5.06950541 21.54023996 5.08452357 23.08334988 5.0625 24.625 C5.05347656 25.44226562 5.04445313 26.25953125 5.03515625 27.1015625 C5.02355469 27.72804688 5.01195312 28.35453125 5 29 C2.70434181 25.55651271 2.0954911 22.42621241 1.375 18.4375 C1.24311279 17.72529297 1.11122559 17.01308594 0.9753418 16.27929688 C0.02034955 10.82219831 -0.35966455 5.54149823 0 0 Z " fill="#999999" transform="translate(421,1091)"/>
<path d="M0 0 C0.66 0.33 1.32 0.66 2 1 C-1.96 4.96 -5.92 8.92 -10 13 C-7.03 13.495 -7.03 13.495 -4 14 C-4 14.33 -4 14.66 -4 15 C-6.97 15 -9.94 15 -13 15 C-11.82744291 11.66272214 -10.81131596 9.22562513 -8 7 C-7.34 7 -6.68 7 -6 7 C-5.67 6.01 -5.34 5.02 -5 4 C-3.37667033 2.61423077 -1.71275535 1.27358732 0 0 Z " fill="#383838" transform="translate(681,1136)"/>
<path d="M0 0 C0.66 0.33 1.32 0.66 2 1 C-0.13677139 3.34171046 -2.31377795 5.64196684 -4.5 7.9375 C-5.10070312 8.59685547 -5.70140625 9.25621094 -6.3203125 9.93554688 C-9.53153296 13.26633406 -11.77417335 15.35458417 -16.46875 15.94140625 C-18.21671875 15.97041016 -18.21671875 15.97041016 -20 16 C-19.67 15.34 -19.34 14.68 -19 14 C-17.96875 13.79375 -16.9375 13.5875 -15.875 13.375 C-11.43001759 12.24553726 -9.43897643 9.44596396 -6.64453125 5.9765625 C-4.68001585 3.61541097 -2.47899866 1.80290812 0 0 Z " fill="#313131" transform="translate(720,1110)"/>
<path d="M0 0 C-1.52524036 3.60286506 -3.67485437 5.94299983 -6.4375 8.6875 C-7.21996094 9.47511719 -8.00242187 10.26273438 -8.80859375 11.07421875 C-11 13 -11 13 -14 14 C-12.57910701 10.84717276 -10.84968149 8.46222036 -8.5625 5.875 C-7.96566406 5.19179688 -7.36882812 4.50859375 -6.75390625 3.8046875 C-3.05627706 0 -3.05627706 0 0 0 Z " fill="#C4C4C4" transform="translate(468,953)"/>
<path d="M0 0 C0 0.33 0 0.66 0 1 C-3.01982884 1.50682442 -6.04062817 2.00563335 -9.0625 2.5 C-9.91005859 2.64308594 -10.75761719 2.78617188 -11.63085938 2.93359375 C-16.49272389 3.72200421 -21.07528186 4.16037074 -26 4 C-17.5270192 -0.2364904 -9.367878 -0.15759047 0 0 Z " fill="#707070" transform="translate(714,1145)"/>
<path d="M0 0 C7.52719602 -0.25515919 14.58851545 0.71702277 22 2 C22 2.33 22 2.66 22 3 C19.4580411 3.05434116 16.91726318 3.0938339 14.375 3.125 C13.66214844 3.14175781 12.94929687 3.15851563 12.21484375 3.17578125 C7.7387836 3.21684602 4.22050722 2.69086567 0 1 C0 0.67 0 0.34 0 0 Z " fill="#646464" transform="translate(630,1262)"/>
<path d="M0 0 C-2.93163286 1.55403686 -5.83365224 2.69801632 -9 3.6875 C-9.845625 3.95949219 -10.69125 4.23148438 -11.5625 4.51171875 C-14.1232068 5.02468085 -15.55828998 4.84216387 -18 4 C-12.23759526 0.15839684 -6.70842135 -0.23538321 0 0 Z " fill="#929292" transform="translate(939,1242)"/>
<path d="M0 0 C2 1 2 1 3.125 3.3125 C4 6 4 6 4 10 C4.66 10 5.32 10 6 10 C6.33 12.31 6.66 14.62 7 17 C4.44971017 15.72485508 4.06918289 14.59658703 3 12 C3 11.01 3 10.02 3 9 C2.34 9 1.68 9 1 9 C0.67 6.03 0.34 3.06 0 0 Z " fill="#7F7F7F" transform="translate(430,1133)"/>
<path d="M0 0 C3 1 3 1 5 4 C4.625 7.6875 4.625 7.6875 4 11 C3.67 11 3.34 11 3 11 C3 8.69 3 6.38 3 4 C2.34 4 1.68 4 1 4 C0.67 5.98 0.34 7.96 0 10 C-1.2380014 6.42355152 -0.74926071 3.66305234 0 0 Z " fill="#757575" transform="translate(414,706)"/>
<path d="M0 0 C-5.11356021 2.98291012 -11.10482642 4.36844835 -17 4 C-12.1655758 -0.44767026 -6.26523716 -0.15281066 0 0 Z " fill="#898989" transform="translate(892,1255)"/>
<path d="M0 0 C0.66 0.33 1.32 0.66 2 1 C-0.97 4.3 -3.94 7.6 -7 11 C-7.66 10.67 -8.32 10.34 -9 10 C-6.03 6.7 -3.06 3.4 0 0 Z " fill="#C6C6C6" transform="translate(705,463)"/>
<path d="M0 0 C2.8045156 1.4022578 3.0442118 3.06070622 4.1875 5.9375 C4.55230469 6.83339844 4.91710938 7.72929688 5.29296875 8.65234375 C6 11 6 11 5 13 C1.68441485 8.61487125 0.45003347 5.62541841 0 0 Z " fill="#9F9F9F" transform="translate(1060,971)"/>
<path d="M0 0 C2.44710376 1.86977097 2.96931493 2.82502483 3.51171875 5.91796875 C3.56972656 6.99691406 3.62773438 8.07585938 3.6875 9.1875 C3.75324219 10.27417969 3.81898437 11.36085938 3.88671875 12.48046875 C3.92410156 13.31191406 3.96148438 14.14335938 4 15 C2.25674553 12.3851183 1.58412043 10.9946567 0.875 8.0625 C0.70742187 7.39347656 0.53984375 6.72445312 0.3671875 6.03515625 C0 4 0 4 0 0 Z " fill="#878787" transform="translate(1069,994)"/>
<path d="M0 0 C-1.7015625 0.680625 -1.7015625 0.680625 -3.4375 1.375 C-7.04721692 2.57095806 -7.04721692 2.57095806 -8 5 C-9.65 4.67 -11.3 4.34 -13 4 C-10.81006393 1.81006393 -9.4012702 1.27802011 -6.5 0.3125 C-5.7059375 0.04050781 -4.911875 -0.23148438 -4.09375 -0.51171875 C-2 -1 -2 -1 0 0 Z " fill="#B8B8B8" transform="translate(893,765)"/>
<path d="M0 0 C4.571279 0.54855348 8.67435795 1.41744803 13 3 C13 3.33 13 3.66 13 4 C7.73946963 4.31563182 4.55426184 3.66590937 0 1 C0 0.67 0 0.34 0 0 Z " fill="#666666" transform="translate(550,1244)"/>
<path d="M0 0 C0 3 0 3 -2.5 5.6875 C-3.325 6.450625 -4.15 7.21375 -5 8 C-5.66 7.67 -6.32 7.34 -7 7 C-2.25 1.125 -2.25 1.125 0 0 Z " fill="#CACACA" transform="translate(617,613)"/>
</svg>
