  0
SECTION
  2
HEADER
  9
$ACADVER
  1
AC1009
  9
$INSBASE
 10
0.0
 20
0.0
 30
0.0
  9
$EXTMIN
 10
0.0
 20
0.0
 30
0.0
  9
$EXTMAX
 10
0.0
 20
0.0
 30
0.0
  0
ENDSEC
  0
SECTION
  2
TABLES
  0
TABLE
  2
VPORT
 70
1
  0
VPORT
  2
*ACTIVE
 70
0
 10
0.0
 20
0.0
 11
1.0
 21
1.0
 12
-5.0
 22
1.0
 13
0.0
 23
0.0
 14
0.1
 24
0.1
 15
0.1
 25
0.1
 16
0.0
 26
0.0
 36
1.0
 17
0.0
 27
0.0
 37
0.0
 40
10.0
 41
1.0
 42
50.0
 43
0.0
 44
0.0
 50
0.0
 51
0.0
 71
0
 72
100
 73
1
 74
1
 75
0
 76
0
 77
0
 78
0
  0
ENDTAB
  0
TABLE
  2
LTYPE
 70
8
  0
LTYPE
  2
CONTINUOUS
 70
0
  3
Solid line
 72
65
 73
0
 40
0.0
  0
LTYPE
  2
DOT
 70
0
  3
. . . . . . .
 72
65
 73
2
 40
0.25
 49
0.0
 49
-0.25
  0
LTYPE
  2
DASHED
 70
0
  3
__ __ __ __ __
 72
65
 73
2
 40
0.8
 49
0.5
 49
-0.3
  0
LTYPE
  2
DASHDOT
 70
0
  3
__ . __ . __ .
 72
65
 73
4
 40
1.0
 49
0.5
 49
-0.25
 49
0.0
 49
-0.25
  0
LTYPE
  2
DIVIDE
 70
0
  3
____ . . ____ . . 
 72
65
 73
6
 40
1.25
 49
0.5
 49
-0.25
 49
0.0
 49
-0.25
 49
0.0
 49
-0.25
  0
LTYPE
  2
BORDER
 70
0
  3
__ __ . __ __ . 
 72
65
 73
6
 40
1.75
 49
0.5
 49
-0.25
 49
0.5
 49
-0.25
 49
0.0
 49
-0.25
  0
LTYPE
  2
HIDDEN
 70
0
  3
__ __ __ __ __
 72
65
 73
2
 40
0.4
 49
0.25
 49
-0.25
  0
LTYPE
  2
CENTER
 70
0
  3
____ _ ____ _ __
 72
65
 73
4
 40
2.0
 49
1.25
 49
-0.25
 49
0.25
 49
-0.25
  0
ENDTAB
  0
TABLE
  2
LAYER
 70
1
  0
LAYER
  2
PYDXF
 70
64
 62
7
  6
continuous
  0
ENDTAB
  0
TABLE
  2
STYLE
 70
1
  0
STYLE
  2
STANDARD
 70
0
 40
0
 41
1.0
 50
0.0
 71
0
 42
1
 3
ARIAL.TTF
 4

  0
ENDTAB
  0
TABLE
  2
VIEW
 70
1
  0
VIEW
  2
BF_TOPVIEW
 70
0
 40
120.0
 10
0.0
 20
0.0
 41
200.0
 11
0.0
 21
0.0
 31
1.0
 12
0.0
 22
0.0
 32
0.0
 42
50.0
 43
0.0
 44
0.0
 50
0.0
 71
0
  0
ENDTAB
  0
ENDSEC
  0
SECTION
  2
BLOCKS
  0
ENDSEC
  0
SECTION
  2
ENTITIES
  0
3DFACE
  8
0
 10
-114.50003051757812
 20
206.0
 30
0.005001408513635397
 11
-114.50004577636719
 21
240.0
 31
0.005001408513635397
 12
-98.29148864746094
 22
240.00001525878906
 32
0.005001408513635397
 13
-98.29148864746094
 23
240.00001525878906
 33
0.005001408513635397
  0
3DFACE
  8
0
 10
-114.50003051757812
 20
206.0
 30
0.005001408513635397
 11
-98.29148864746094
 21
240.00001525878906
 31
0.005001408513635397
 12
-98.29148864746094
 22
214.4444580078125
 32
0.005001408513635397
 13
-98.29148864746094
 23
214.4444580078125
 33
0.005001408513635397
  0
3DFACE
  8
0
 10
-180.0
 20
239.99998474121094
 30
0.005001408513635397
 11
-135.50003051757812
 21
240.0
 31
0.005001408513635397
 12
-135.50003051757812
 22
206.0
 32
0.005001408513635397
 13
-135.50003051757812
 23
206.0
 33
0.005001408513635397
  0
3DFACE
  8
0
 10
-114.50003051757812
 20
206.0
 30
0.005001408513635397
 11
-98.29148864746094
 21
214.4444580078125
 31
0.005001408513635397
 12
-80.29148864746094
 22
214.4444580078125
 32
0.005001408513635397
 13
-80.29148864746094
 23
214.4444580078125
 33
0.005001408513635397
  0
3DFACE
  8
0
 10
-179.99998474121094
 20
199.99996948242188
 30
0.005001408513635397
 11
-180.0
 21
239.99998474121094
 31
0.005001408513635397
 12
-135.50003051757812
 22
206.0
 32
0.005001408513635397
 13
-135.50003051757812
 23
206.0
 33
0.005001408513635397
  0
3DFACE
  8
0
 10
-179.99998474121094
 20
199.99996948242188
 30
0.005001408513635397
 11
-135.50003051757812
 21
206.0
 31
0.005001408513635397
 12
-114.50003051757812
 22
206.0
 32
0.005001408513635397
 13
-114.50003051757812
 23
206.0
 33
0.005001408513635397
  0
3DFACE
  8
0
 10
-135.5
 20
200.0
 30
0.005001408513635397
 11
-179.99998474121094
 21
199.99996948242188
 31
0.005001408513635397
 12
-114.50003051757812
 22
206.0
 32
0.005001408513635397
 13
-114.50003051757812
 23
206.0
 33
0.005001408513635397
  0
3DFACE
  8
0
 10
-80.29148864746094
 20
214.4444580078125
 30
0.005001408513635397
 11
-80.29149627685547
 21
240.00001525878906
 31
0.005001408513635397
 12
-61.29147720336914
 22
240.00001525878906
 32
0.005001408513635397
 13
-61.29147720336914
 23
240.00001525878906
 33
0.005001408513635397
  0
3DFACE
  8
0
 10
-135.5
 20
200.0
 30
0.005001408513635397
 11
-114.50003051757812
 21
206.0
 31
0.005001408513635397
 12
-80.29148864746094
 22
214.4444580078125
 32
0.005001408513635397
 13
-80.29148864746094
 23
214.4444580078125
 33
0.005001408513635397
  0
3DFACE
  8
0
 10
-114.50001525878906
 20
200.0
 30
0.005001408513635397
 11
-135.5
 21
200.0
 31
0.005001408513635397
 12
-80.29148864746094
 22
214.4444580078125
 32
0.005001408513635397
 13
-80.29148864746094
 23
214.4444580078125
 33
0.005001408513635397
  0
3DFACE
  8
0
 10
-80.29148864746094
 20
214.4444580078125
 30
0.005001408513635397
 11
-61.29147720336914
 21
240.00001525878906
 31
0.005001408513635397
 12
-61.291465759277344
 22
214.4444580078125
 32
0.005001408513635397
 13
-61.291465759277344
 23
214.4444580078125
 33
0.005001408513635397
  0
3DFACE
  8
0
 10
-43.29146957397461
 20
214.4444580078125
 30
0.005001408513635397
 11
-43.29147720336914
 21
240.00003051757812
 31
0.005001408513635397
 12
-31.210159301757812
 22
240.00003051757812
 32
0.005001408513635397
 13
-31.210159301757812
 23
240.00003051757812
 33
0.005001408513635397
  0
3DFACE
  8
0
 10
-114.50001525878906
 20
200.0
 30
0.005001408513635397
 11
-80.29148864746094
 21
214.4444580078125
 31
0.005001408513635397
 12
-61.291465759277344
 22
214.4444580078125
 32
0.005001408513635397
 13
-61.291465759277344
 23
214.4444580078125
 33
0.005001408513635397
  0
3DFACE
  8
0
 10
-43.29146957397461
 20
214.4444580078125
 30
0.005001408513635397
 11
-31.210159301757812
 21
240.00003051757812
 31
0.005001408513635397
 12
-31.21015167236328
 22
219.44447326660156
 32
0.005001408513635397
 13
-31.21015167236328
 23
219.44447326660156
 33
0.005001408513635397
  0
3DFACE
  8
0
 10
-114.50001525878906
 20
200.0
 30
0.005001408513635397
 11
-61.291465759277344
 21
214.4444580078125
 31
0.005001408513635397
 12
-43.29146957397461
 22
214.4444580078125
 32
0.005001408513635397
 13
-43.29146957397461
 23
214.4444580078125
 33
0.005001408513635397
  0
3DFACE
  8
0
 10
-61.291446685791016
 20
200.00003051757812
 30
0.005001408513635397
 11
-80.29147338867188
 21
200.0
 31
0.005001408513635397
 12
-98.29145812988281
 22
200.0
 32
0.005001408513635397
 13
-98.29145812988281
 23
200.0
 33
0.005001408513635397
  0
3DFACE
  8
0
 10
-98.29145812988281
 20
200.0
 30
0.005001408513635397
 11
-114.50001525878906
 21
200.0
 31
0.005001408513635397
 12
-43.29146957397461
 22
214.4444580078125
 32
0.005001408513635397
 13
-43.29146957397461
 23
214.4444580078125
 33
0.005001408513635397
  0
3DFACE
  8
0
 10
-43.29146957397461
 20
214.4444580078125
 30
0.005001408513635397
 11
-31.21015167236328
 21
219.44447326660156
 31
0.005001408513635397
 12
-21.210155487060547
 22
219.44447326660156
 32
0.005001408513635397
 13
-21.210155487060547
 23
219.44447326660156
 33
0.005001408513635397
  0
3DFACE
  8
0
 10
-21.210155487060547
 20
219.44447326660156
 30
0.005001408513635397
 11
-21.210163116455078
 21
240.00003051757812
 31
0.005001408513635397
 12
-1.52587890625e-05
 22
240.0000457763672
 32
0.005001408513635397
 13
-1.52587890625e-05
 23
240.0000457763672
 33
0.005001408513635397
  0
3DFACE
  8
0
 10
-1.52587890625e-05
 20
240.0000457763672
 30
0.005001408513635397
 11
0.0
 21
200.00003051757812
 31
0.005001408513635397
 12
-21.210140228271484
 22
200.00003051757812
 32
0.005001408513635397
 13
-21.210140228271484
 23
200.00003051757812
 33
0.005001408513635397
  0
3DFACE
  8
0
 10
-1.52587890625e-05
 20
240.0000457763672
 30
0.005001408513635397
 11
-21.210140228271484
 21
200.00003051757812
 31
0.005001408513635397
 12
-31.210140228271484
 22
200.00003051757812
 32
0.005001408513635397
 13
-31.210140228271484
 23
200.00003051757812
 33
0.005001408513635397
  0
3DFACE
  8
0
 10
-98.29145812988281
 20
200.0
 30
0.005001408513635397
 11
-43.29146957397461
 21
214.4444580078125
 31
0.005001408513635397
 12
-21.210155487060547
 22
219.44447326660156
 32
0.005001408513635397
 13
-21.210155487060547
 23
219.44447326660156
 33
0.005001408513635397
  0
3DFACE
  8
0
 10
-21.210155487060547
 20
219.44447326660156
 30
0.005001408513635397
 11
-1.52587890625e-05
 21
240.0000457763672
 31
0.005001408513635397
 12
-31.210140228271484
 22
200.00003051757812
 32
0.005001408513635397
 13
-31.210140228271484
 23
200.00003051757812
 33
0.005001408513635397
  0
3DFACE
  8
0
 10
-21.210155487060547
 20
219.44447326660156
 30
0.005001408513635397
 11
-31.210140228271484
 21
200.00003051757812
 31
0.005001408513635397
 12
-43.29145431518555
 22
200.00003051757812
 32
0.005001408513635397
 13
-43.29145431518555
 23
200.00003051757812
 33
0.005001408513635397
  0
3DFACE
  8
0
 10
-61.291446685791016
 20
200.00003051757812
 30
0.005001408513635397
 11
-98.29145812988281
 21
200.0
 31
0.005001408513635397
 12
-21.210155487060547
 22
219.44447326660156
 32
0.005001408513635397
 13
-21.210155487060547
 23
219.44447326660156
 33
0.005001408513635397
  0
3DFACE
  8
0
 10
-21.210155487060547
 20
219.44447326660156
 30
0.005001408513635397
 11
-43.29145431518555
 21
200.00003051757812
 31
0.005001408513635397
 12
-61.291446685791016
 22
200.00003051757812
 32
0.005001408513635397
 13
-61.291446685791016
 23
200.00003051757812
 33
0.005001408513635397
  0
3DFACE
  8
0
 10
-135.50003051757812
 20
206.0
 30
0.005001408513635397
 11
-135.50003051757812
 21
240.0
 31
0.005001408513635397
 12
-180.0
 22
239.99998474121094
 32
0.005001408513635397
 13
-180.0
 23
239.99998474121094
 33
0.005001408513635397
  0
3DFACE
  8
0
 10
-180.0
 20
239.99998474121094
 30
0.005001408513635397
 11
-179.99998474121094
 21
199.99996948242188
 31
0.005001408513635397
 12
-135.5
 22
200.0
 32
0.005001408513635397
 13
-135.5
 23
200.0
 33
0.005001408513635397
  0
3DFACE
  8
0
 10
-135.50003051757812
 20
206.0
 30
0.005001408513635397
 11
-180.0
 21
239.99998474121094
 31
0.005001408513635397
 12
-135.5
 22
200.0
 32
0.005001408513635397
 13
-135.5
 23
200.0
 33
0.005001408513635397
  0
3DFACE
  8
0
 10
-98.29148864746094
 20
240.0
 30
0.005001408513635397
 11
-114.50004577636719
 21
240.0
 31
0.005001408513635397
 12
-114.50003051757812
 22
206.0
 32
0.005001408513635397
 13
-114.50003051757812
 23
206.0
 33
0.005001408513635397
  0
3DFACE
  8
0
 10
-114.50003051757812
 20
206.0
 30
0.005001408513635397
 11
-135.50003051757812
 21
206.0
 31
0.005001408513635397
 12
-135.5
 22
200.0
 32
0.005001408513635397
 13
-135.5
 23
200.0
 33
0.005001408513635397
  0
3DFACE
  8
0
 10
-114.50003051757812
 20
206.0
 30
0.005001408513635397
 11
-135.5
 21
200.0
 31
0.005001408513635397
 12
-114.50001525878906
 22
200.0
 32
0.005001408513635397
 13
-114.50001525878906
 23
200.0
 33
0.005001408513635397
  0
3DFACE
  8
0
 10
-98.29148864746094
 20
214.4444580078125
 30
0.005001408513635397
 11
-98.29148864746094
 21
240.0
 31
0.005001408513635397
 12
-114.50003051757812
 22
206.0
 32
0.005001408513635397
 13
-114.50003051757812
 23
206.0
 33
0.005001408513635397
  0
3DFACE
  8
0
 10
-61.29147720336914
 20
240.00001525878906
 30
0.005001408513635397
 11
-80.29150390625
 21
240.00001525878906
 31
0.005001408513635397
 12
-80.29148864746094
 22
214.4444580078125
 32
0.005001408513635397
 13
-80.29148864746094
 23
214.4444580078125
 33
0.005001408513635397
  0
3DFACE
  8
0
 10
-80.29148864746094
 20
214.4444580078125
 30
0.005001408513635397
 11
-98.29148864746094
 21
214.4444580078125
 31
0.005001408513635397
 12
-114.50003051757812
 22
206.0
 32
0.005001408513635397
 13
-114.50003051757812
 23
206.0
 33
0.005001408513635397
  0
3DFACE
  8
0
 10
-114.50003051757812
 20
206.0
 30
0.005001408513635397
 11
-114.50001525878906
 21
200.0
 31
0.005001408513635397
 12
-98.29145812988281
 22
200.0
 32
0.005001408513635397
 13
-98.29145812988281
 23
200.0
 33
0.005001408513635397
  0
3DFACE
  8
0
 10
-98.29145812988281
 20
200.0
 30
0.005001408513635397
 11
-80.29147338867188
 21
200.0
 31
0.005001408513635397
 12
-61.29145050048828
 22
200.00003051757812
 32
0.005001408513635397
 13
-61.29145050048828
 23
200.00003051757812
 33
0.005001408513635397
  0
3DFACE
  8
0
 10
-114.50003051757812
 20
206.0
 30
0.005001408513635397
 11
-98.29145812988281
 21
200.0
 31
0.005001408513635397
 12
-61.29145050048828
 22
200.00003051757812
 32
0.005001408513635397
 13
-61.29145050048828
 23
200.00003051757812
 33
0.005001408513635397
  0
3DFACE
  8
0
 10
-61.29146957397461
 20
214.4444580078125
 30
0.005001408513635397
 11
-61.29147720336914
 21
240.00001525878906
 31
0.005001408513635397
 12
-80.29148864746094
 22
214.4444580078125
 32
0.005001408513635397
 13
-80.29148864746094
 23
214.4444580078125
 33
0.005001408513635397
  0
3DFACE
  8
0
 10
-80.29148864746094
 20
214.4444580078125
 30
0.005001408513635397
 11
-114.50003051757812
 21
206.0
 31
0.005001408513635397
 12
-61.29145050048828
 22
200.00003051757812
 32
0.005001408513635397
 13
-61.29145050048828
 23
200.00003051757812
 33
0.005001408513635397
  0
3DFACE
  8
0
 10
-80.29148864746094
 20
214.4444580078125
 30
0.005001408513635397
 11
-61.29145050048828
 21
200.00003051757812
 31
0.005001408513635397
 12
-43.29145431518555
 22
200.00003051757812
 32
0.005001408513635397
 13
-43.29145431518555
 23
200.00003051757812
 33
0.005001408513635397
  0
3DFACE
  8
0
 10
-61.29146957397461
 20
214.4444580078125
 30
0.005001408513635397
 11
-80.29148864746094
 21
214.4444580078125
 31
0.005001408513635397
 12
-43.29145431518555
 22
200.00003051757812
 32
0.005001408513635397
 13
-43.29145431518555
 23
200.00003051757812
 33
0.005001408513635397
  0
3DFACE
  8
0
 10
-61.29146957397461
 20
214.4444580078125
 30
0.005001408513635397
 11
-43.29145431518555
 21
200.00003051757812
 31
0.005001408513635397
 12
-31.210140228271484
 22
200.00003051757812
 32
0.005001408513635397
 13
-31.210140228271484
 23
200.00003051757812
 33
0.005001408513635397
  0
3DFACE
  8
0
 10
-31.210159301757812
 20
240.00003051757812
 30
0.005001408513635397
 11
-43.29147720336914
 21
240.00003051757812
 31
0.005001408513635397
 12
-43.29146957397461
 22
214.4444580078125
 32
0.005001408513635397
 13
-43.29146957397461
 23
214.4444580078125
 33
0.005001408513635397
  0
3DFACE
  8
0
 10
-43.29146957397461
 20
214.4444580078125
 30
0.005001408513635397
 11
-61.29146957397461
 21
214.4444580078125
 31
0.005001408513635397
 12
-31.210140228271484
 22
200.00003051757812
 32
0.005001408513635397
 13
-31.210140228271484
 23
200.00003051757812
 33
0.005001408513635397
  0
3DFACE
  8
0
 10
-21.210140228271484
 20
200.00003051757812
 30
0.005001408513635397
 11
0.0
 21
200.00003051757812
 31
0.005001408513635397
 12
-1.52587890625e-05
 22
240.0000457763672
 32
0.005001408513635397
 13
-1.52587890625e-05
 23
240.0000457763672
 33
0.005001408513635397
  0
3DFACE
  8
0
 10
-43.29146957397461
 20
214.4444580078125
 30
0.005001408513635397
 11
-31.210140228271484
 21
200.00003051757812
 31
0.005001408513635397
 12
-21.210140228271484
 22
200.00003051757812
 32
0.005001408513635397
 13
-21.210140228271484
 23
200.00003051757812
 33
0.005001408513635397
  0
3DFACE
  8
0
 10
-31.21015167236328
 20
219.44447326660156
 30
0.005001408513635397
 11
-31.210159301757812
 21
240.00003051757812
 31
0.005001408513635397
 12
-43.29146957397461
 22
214.4444580078125
 32
0.005001408513635397
 13
-43.29146957397461
 23
214.4444580078125
 33
0.005001408513635397
  0
3DFACE
  8
0
 10
-1.52587890625e-05
 20
240.0000457763672
 30
0.005001408513635397
 11
-21.210163116455078
 21
240.00003051757812
 31
0.005001408513635397
 12
-21.210155487060547
 22
219.44447326660156
 32
0.005001408513635397
 13
-21.210155487060547
 23
219.44447326660156
 33
0.005001408513635397
  0
3DFACE
  8
0
 10
-21.210155487060547
 20
219.44447326660156
 30
0.005001408513635397
 11
-31.21015167236328
 21
219.44447326660156
 31
0.005001408513635397
 12
-43.29146957397461
 22
214.4444580078125
 32
0.005001408513635397
 13
-43.29146957397461
 23
214.4444580078125
 33
0.005001408513635397
  0
3DFACE
  8
0
 10
-21.210140228271484
 20
200.00003051757812
 30
0.005001408513635397
 11
-1.52587890625e-05
 21
240.0000457763672
 31
0.005001408513635397
 12
-21.210155487060547
 22
219.44447326660156
 32
0.005001408513635397
 13
-21.210155487060547
 23
219.44447326660156
 33
0.005001408513635397
  0
3DFACE
  8
0
 10
-21.210140228271484
 20
200.00003051757812
 30
0.005001408513635397
 11
-21.210155487060547
 21
219.44447326660156
 31
0.005001408513635397
 12
-43.29146957397461
 22
214.4444580078125
 32
0.005001408513635397
 13
-43.29146957397461
 23
214.4444580078125
 33
0.005001408513635397
  0
3DFACE
  8
0
 10
-179.99998474121094
 20
199.99996948242188
 30
0.005001408513635397
 11
-135.5
 21
200.0
 31
0.005001408513635397
 12
-135.5
 22
200.0
 32
0.005001408513635397
 13
-135.5
 23
200.0
 33
0.005001408513635397
  0
3DFACE
  8
0
 10
-179.99998474121094
 20
199.99996948242188
 30
0.005001408513635397
 11
-135.5
 21
200.0
 31
0.005001408513635397
 12
-179.99998474121094
 22
199.99996948242188
 32
0.005001408513635397
 13
-179.99998474121094
 23
199.99996948242188
 33
0.005001408513635397
  0
3DFACE
  8
0
 10
-114.50003051757812
 20
206.0
 30
0.005001408513635397
 11
-135.50003051757812
 21
206.0
 31
0.005001408513635397
 12
-135.50003051757812
 22
206.0
 32
0.005001408513635397
 13
-135.50003051757812
 23
206.0
 33
0.005001408513635397
  0
3DFACE
  8
0
 10
-114.50003051757812
 20
206.0
 30
0.005001408513635397
 11
-135.50003051757812
 21
206.0
 31
0.005001408513635397
 12
-114.50003051757812
 22
206.0
 32
0.005001408513635397
 13
-114.50003051757812
 23
206.0
 33
0.005001408513635397
  0
3DFACE
  8
0
 10
-135.5
 20
200.0
 30
0.005001408513635397
 11
-114.50001525878906
 21
200.0
 31
0.005001408513635397
 12
-114.50001525878906
 22
200.0
 32
0.005001408513635397
 13
-114.50001525878906
 23
200.0
 33
0.005001408513635397
  0
3DFACE
  8
0
 10
-135.5
 20
200.0
 30
0.005001408513635397
 11
-114.50001525878906
 21
200.0
 31
0.005001408513635397
 12
-135.5
 22
200.0
 32
0.005001408513635397
 13
-135.5
 23
200.0
 33
0.005001408513635397
  0
3DFACE
  8
0
 10
-135.50003051757812
 20
206.0
 30
0.005001408513635397
 11
-135.50003051757812
 21
240.0
 31
0.005001408513635397
 12
-135.50003051757812
 22
240.0
 32
0.005001408513635397
 13
-135.50003051757812
 23
240.0
 33
0.005001408513635397
  0
3DFACE
  8
0
 10
-135.50003051757812
 20
206.0
 30
0.005001408513635397
 11
-135.50003051757812
 21
240.0
 31
0.005001408513635397
 12
-135.50003051757812
 22
206.0
 32
0.005001408513635397
 13
-135.50003051757812
 23
206.0
 33
0.005001408513635397
  0
3DFACE
  8
0
 10
-114.50001525878906
 20
200.0
 30
0.005001408513635397
 11
-98.29145812988281
 21
200.0
 31
0.005001408513635397
 12
-98.29145812988281
 22
200.0
 32
0.005001408513635397
 13
-98.29145812988281
 23
200.0
 33
0.005001408513635397
  0
3DFACE
  8
0
 10
-114.50001525878906
 20
200.0
 30
0.005001408513635397
 11
-98.29145812988281
 21
200.0
 31
0.005001408513635397
 12
-114.50001525878906
 22
200.0
 32
0.005001408513635397
 13
-114.50001525878906
 23
200.0
 33
0.005001408513635397
  0
3DFACE
  8
0
 10
-80.29148864746094
 20
214.4444580078125
 30
0.005001408513635397
 11
-98.29148864746094
 21
214.4444580078125
 31
0.005001408513635397
 12
-98.29148864746094
 22
214.4444580078125
 32
0.005001408513635397
 13
-98.29148864746094
 23
214.4444580078125
 33
0.005001408513635397
  0
3DFACE
  8
0
 10
-80.29148864746094
 20
214.4444580078125
 30
0.005001408513635397
 11
-98.29148864746094
 21
214.4444580078125
 31
0.005001408513635397
 12
-80.29148864746094
 22
214.4444580078125
 32
0.005001408513635397
 13
-80.29148864746094
 23
214.4444580078125
 33
0.005001408513635397
  0
3DFACE
  8
0
 10
-98.29145812988281
 20
200.0
 30
0.005001408513635397
 11
-80.29147338867188
 21
200.0
 31
0.005001408513635397
 12
-80.29147338867188
 22
200.0
 32
0.005001408513635397
 13
-80.29147338867188
 23
200.0
 33
0.005001408513635397
  0
3DFACE
  8
0
 10
-98.29145812988281
 20
200.0
 30
0.005001408513635397
 11
-80.29147338867188
 21
200.0
 31
0.005001408513635397
 12
-98.29145812988281
 22
200.0
 32
0.005001408513635397
 13
-98.29145812988281
 23
200.0
 33
0.005001408513635397
  0
3DFACE
  8
0
 10
-43.29146957397461
 20
214.4444580078125
 30
0.005001408513635397
 11
-61.291465759277344
 21
214.4444580078125
 31
0.005001408513635397
 12
-61.29146957397461
 22
214.4444580078125
 32
0.005001408513635397
 13
-61.29146957397461
 23
214.4444580078125
 33
0.005001408513635397
  0
3DFACE
  8
0
 10
-43.29146957397461
 20
214.4444580078125
 30
0.005001408513635397
 11
-61.29146957397461
 21
214.4444580078125
 31
0.005001408513635397
 12
-43.29146957397461
 22
214.4444580078125
 32
0.005001408513635397
 13
-43.29146957397461
 23
214.4444580078125
 33
0.005001408513635397
  0
3DFACE
  8
0
 10
-80.29147338867188
 20
200.0
 30
0.005001408513635397
 11
-61.291446685791016
 21
200.00003051757812
 31
0.005001408513635397
 12
-61.29145050048828
 22
200.00003051757812
 32
0.005001408513635397
 13
-61.29145050048828
 23
200.00003051757812
 33
0.005001408513635397
  0
3DFACE
  8
0
 10
-80.29147338867188
 20
200.0
 30
0.005001408513635397
 11
-61.29145050048828
 21
200.00003051757812
 31
0.005001408513635397
 12
-80.29147338867188
 22
200.0
 32
0.005001408513635397
 13
-80.29147338867188
 23
200.0
 33
0.005001408513635397
  0
3DFACE
  8
0
 10
-98.29148864746094
 20
214.4444580078125
 30
0.005001408513635397
 11
-98.29148864746094
 21
240.00001525878906
 31
0.005001408513635397
 12
-98.29148864746094
 22
240.0
 32
0.005001408513635397
 13
-98.29148864746094
 23
240.0
 33
0.005001408513635397
  0
3DFACE
  8
0
 10
-98.29148864746094
 20
214.4444580078125
 30
0.005001408513635397
 11
-98.29148864746094
 21
240.0
 31
0.005001408513635397
 12
-98.29148864746094
 22
214.4444580078125
 32
0.005001408513635397
 13
-98.29148864746094
 23
214.4444580078125
 33
0.005001408513635397
  0
3DFACE
  8
0
 10
-61.291446685791016
 20
200.00003051757812
 30
0.005001408513635397
 11
-43.29145431518555
 21
200.00003051757812
 31
0.005001408513635397
 12
-43.29145431518555
 22
200.00003051757812
 32
0.005001408513635397
 13
-43.29145431518555
 23
200.00003051757812
 33
0.005001408513635397
  0
3DFACE
  8
0
 10
-61.291446685791016
 20
200.00003051757812
 30
0.005001408513635397
 11
-43.29145431518555
 21
200.00003051757812
 31
0.005001408513635397
 12
-61.29145050048828
 22
200.00003051757812
 32
0.005001408513635397
 13
-61.29145050048828
 23
200.00003051757812
 33
0.005001408513635397
  0
3DFACE
  8
0
 10
-21.210163116455078
 20
240.00003051757812
 30
0.005001408513635397
 11
-21.210155487060547
 21
219.44447326660156
 31
0.005001408513635397
 12
-21.210155487060547
 22
219.44447326660156
 32
0.005001408513635397
 13
-21.210155487060547
 23
219.44447326660156
 33
0.005001408513635397
  0
3DFACE
  8
0
 10
-21.210163116455078
 20
240.00003051757812
 30
0.005001408513635397
 11
-21.210155487060547
 21
219.44447326660156
 31
0.005001408513635397
 12
-21.210163116455078
 22
240.00003051757812
 32
0.005001408513635397
 13
-21.210163116455078
 23
240.00003051757812
 33
0.005001408513635397
  0
3DFACE
  8
0
 10
-43.29145431518555
 20
200.00003051757812
 30
0.005001408513635397
 11
-31.210140228271484
 21
200.00003051757812
 31
0.005001408513635397
 12
-31.210140228271484
 22
200.00003051757812
 32
0.005001408513635397
 13
-31.210140228271484
 23
200.00003051757812
 33
0.005001408513635397
  0
3DFACE
  8
0
 10
-43.29145431518555
 20
200.00003051757812
 30
0.005001408513635397
 11
-31.210140228271484
 21
200.00003051757812
 31
0.005001408513635397
 12
-43.29145431518555
 22
200.00003051757812
 32
0.005001408513635397
 13
-43.29145431518555
 23
200.00003051757812
 33
0.005001408513635397
  0
3DFACE
  8
0
 10
-31.21015167236328
 20
219.44447326660156
 30
0.005001408513635397
 11
-31.210159301757812
 21
240.00003051757812
 31
0.005001408513635397
 12
-31.210159301757812
 22
240.00003051757812
 32
0.005001408513635397
 13
-31.210159301757812
 23
240.00003051757812
 33
0.005001408513635397
  0
3DFACE
  8
0
 10
-31.21015167236328
 20
219.44447326660156
 30
0.005001408513635397
 11
-31.210159301757812
 21
240.00003051757812
 31
0.005001408513635397
 12
-31.21015167236328
 22
219.44447326660156
 32
0.005001408513635397
 13
-31.21015167236328
 23
219.44447326660156
 33
0.005001408513635397
  0
3DFACE
  8
0
 10
-31.210140228271484
 20
200.00003051757812
 30
0.005001408513635397
 11
-21.210140228271484
 21
200.00003051757812
 31
0.005001408513635397
 12
-21.210140228271484
 22
200.00003051757812
 32
0.005001408513635397
 13
-21.210140228271484
 23
200.00003051757812
 33
0.005001408513635397
  0
3DFACE
  8
0
 10
-31.210140228271484
 20
200.00003051757812
 30
0.005001408513635397
 11
-21.210140228271484
 21
200.00003051757812
 31
0.005001408513635397
 12
-31.210140228271484
 22
200.00003051757812
 32
0.005001408513635397
 13
-31.210140228271484
 23
200.00003051757812
 33
0.005001408513635397
  0
3DFACE
  8
0
 10
0.0
 20
200.00003051757812
 30
0.005001408513635397
 11
-1.52587890625e-05
 21
240.0000457763672
 31
0.005001408513635397
 12
-1.52587890625e-05
 22
240.0000457763672
 32
0.005001408513635397
 13
-1.52587890625e-05
 23
240.0000457763672
 33
0.005001408513635397
  0
3DFACE
  8
0
 10
0.0
 20
200.00003051757812
 30
0.005001408513635397
 11
-1.52587890625e-05
 21
240.0000457763672
 31
0.005001408513635397
 12
0.0
 22
200.00003051757812
 32
0.005001408513635397
 13
0.0
 23
200.00003051757812
 33
0.005001408513635397
  0
3DFACE
  8
0
 10
-21.210155487060547
 20
219.44447326660156
 30
0.005001408513635397
 11
-31.21015167236328
 21
219.44447326660156
 31
0.005001408513635397
 12
-31.21015167236328
 22
219.44447326660156
 32
0.005001408513635397
 13
-31.21015167236328
 23
219.44447326660156
 33
0.005001408513635397
  0
3DFACE
  8
0
 10
-21.210155487060547
 20
219.44447326660156
 30
0.005001408513635397
 11
-31.21015167236328
 21
219.44447326660156
 31
0.005001408513635397
 12
-21.210155487060547
 22
219.44447326660156
 32
0.005001408513635397
 13
-21.210155487060547
 23
219.44447326660156
 33
0.005001408513635397
  0
3DFACE
  8
0
 10
-1.52587890625e-05
 20
240.0000457763672
 30
0.005001408513635397
 11
-21.210163116455078
 21
240.00003051757812
 31
0.005001408513635397
 12
-21.210163116455078
 22
240.00003051757812
 32
0.005001408513635397
 13
-21.210163116455078
 23
240.00003051757812
 33
0.005001408513635397
  0
3DFACE
  8
0
 10
-1.52587890625e-05
 20
240.0000457763672
 30
0.005001408513635397
 11
-21.210163116455078
 21
240.00003051757812
 31
0.005001408513635397
 12
-1.52587890625e-05
 22
240.0000457763672
 32
0.005001408513635397
 13
-1.52587890625e-05
 23
240.0000457763672
 33
0.005001408513635397
  0
3DFACE
  8
0
 10
-21.210140228271484
 20
200.00003051757812
 30
0.005001408513635397
 11
0.0
 21
200.00003051757812
 31
0.005001408513635397
 12
0.0
 22
200.00003051757812
 32
0.005001408513635397
 13
0.0
 23
200.00003051757812
 33
0.005001408513635397
  0
3DFACE
  8
0
 10
-21.210140228271484
 20
200.00003051757812
 30
0.005001408513635397
 11
0.0
 21
200.00003051757812
 31
0.005001408513635397
 12
-21.210140228271484
 22
200.00003051757812
 32
0.005001408513635397
 13
-21.210140228271484
 23
200.00003051757812
 33
0.005001408513635397
  0
3DFACE
  8
0
 10
-31.210159301757812
 20
240.00003051757812
 30
0.005001408513635397
 11
-43.29147720336914
 21
240.00003051757812
 31
0.005001408513635397
 12
-43.29147720336914
 22
240.00003051757812
 32
0.005001408513635397
 13
-43.29147720336914
 23
240.00003051757812
 33
0.005001408513635397
  0
3DFACE
  8
0
 10
-31.210159301757812
 20
240.00003051757812
 30
0.005001408513635397
 11
-43.29147720336914
 21
240.00003051757812
 31
0.005001408513635397
 12
-31.210159301757812
 22
240.00003051757812
 32
0.005001408513635397
 13
-31.210159301757812
 23
240.00003051757812
 33
0.005001408513635397
  0
3DFACE
  8
0
 10
-135.50003051757812
 20
240.0
 30
0.005001408513635397
 11
-180.0
 21
239.99998474121094
 31
0.005001408513635397
 12
-180.0
 22
239.99998474121094
 32
0.005001408513635397
 13
-180.0
 23
239.99998474121094
 33
0.005001408513635397
  0
3DFACE
  8
0
 10
-135.50003051757812
 20
240.0
 30
0.005001408513635397
 11
-180.0
 21
239.99998474121094
 31
0.005001408513635397
 12
-135.50003051757812
 22
240.0
 32
0.005001408513635397
 13
-135.50003051757812
 23
240.0
 33
0.005001408513635397
  0
3DFACE
  8
0
 10
-61.29147720336914
 20
240.00001525878906
 30
0.005001408513635397
 11
-80.29149627685547
 21
240.00001525878906
 31
0.005001408513635397
 12
-80.29150390625
 22
240.00001525878906
 32
0.005001408513635397
 13
-80.29150390625
 23
240.00001525878906
 33
0.005001408513635397
  0
3DFACE
  8
0
 10
-61.29147720336914
 20
240.00001525878906
 30
0.005001408513635397
 11
-80.29150390625
 21
240.00001525878906
 31
0.005001408513635397
 12
-61.29147720336914
 22
240.00001525878906
 32
0.005001408513635397
 13
-61.29147720336914
 23
240.00001525878906
 33
0.005001408513635397
  0
3DFACE
  8
0
 10
-180.0
 20
239.99998474121094
 30
0.005001408513635397
 11
-179.99998474121094
 21
199.99996948242188
 31
0.005001408513635397
 12
-179.99998474121094
 22
199.99996948242188
 32
0.005001408513635397
 13
-179.99998474121094
 23
199.99996948242188
 33
0.005001408513635397
  0
3DFACE
  8
0
 10
-180.0
 20
239.99998474121094
 30
0.005001408513635397
 11
-179.99998474121094
 21
199.99996948242188
 31
0.005001408513635397
 12
-180.0
 22
239.99998474121094
 32
0.005001408513635397
 13
-180.0
 23
239.99998474121094
 33
0.005001408513635397
  0
3DFACE
  8
0
 10
-43.29147720336914
 20
240.00003051757812
 30
0.005001408513635397
 11
-43.29146957397461
 21
214.4444580078125
 31
0.005001408513635397
 12
-43.29146957397461
 22
214.4444580078125
 32
0.005001408513635397
 13
-43.29146957397461
 23
214.4444580078125
 33
0.005001408513635397
  0
3DFACE
  8
0
 10
-43.29147720336914
 20
240.00003051757812
 30
0.005001408513635397
 11
-43.29146957397461
 21
214.4444580078125
 31
0.005001408513635397
 12
-43.29147720336914
 22
240.00003051757812
 32
0.005001408513635397
 13
-43.29147720336914
 23
240.00003051757812
 33
0.005001408513635397
  0
3DFACE
  8
0
 10
-114.50004577636719
 20
240.0
 30
0.005001408513635397
 11
-114.50003051757812
 21
206.0
 31
0.005001408513635397
 12
-114.50003051757812
 22
206.0
 32
0.005001408513635397
 13
-114.50003051757812
 23
206.0
 33
0.005001408513635397
  0
3DFACE
  8
0
 10
-114.50004577636719
 20
240.0
 30
0.005001408513635397
 11
-114.50003051757812
 21
206.0
 31
0.005001408513635397
 12
-114.50004577636719
 22
240.0
 32
0.005001408513635397
 13
-114.50004577636719
 23
240.0
 33
0.005001408513635397
  0
3DFACE
  8
0
 10
-98.29148864746094
 20
240.00001525878906
 30
0.005001408513635397
 11
-114.50004577636719
 21
240.0
 31
0.005001408513635397
 12
-114.50004577636719
 22
240.0
 32
0.005001408513635397
 13
-114.50004577636719
 23
240.0
 33
0.005001408513635397
  0
3DFACE
  8
0
 10
-98.29148864746094
 20
240.00001525878906
 30
0.005001408513635397
 11
-114.50004577636719
 21
240.0
 31
0.005001408513635397
 12
-98.29148864746094
 22
240.0
 32
0.005001408513635397
 13
-98.29148864746094
 23
240.0
 33
0.005001408513635397
  0
3DFACE
  8
0
 10
-80.29149627685547
 20
240.00001525878906
 30
0.005001408513635397
 11
-80.29148864746094
 21
214.4444580078125
 31
0.005001408513635397
 12
-80.29148864746094
 22
214.4444580078125
 32
0.005001408513635397
 13
-80.29148864746094
 23
214.4444580078125
 33
0.005001408513635397
  0
3DFACE
  8
0
 10
-80.29149627685547
 20
240.00001525878906
 30
0.005001408513635397
 11
-80.29148864746094
 21
214.4444580078125
 31
0.005001408513635397
 12
-80.29150390625
 22
240.00001525878906
 32
0.005001408513635397
 13
-80.29150390625
 23
240.00001525878906
 33
0.005001408513635397
  0
3DFACE
  8
0
 10
-61.291465759277344
 20
214.4444580078125
 30
0.005001408513635397
 11
-61.29147720336914
 21
240.00001525878906
 31
0.005001408513635397
 12
-61.29147720336914
 22
240.00001525878906
 32
0.005001408513635397
 13
-61.29147720336914
 23
240.00001525878906
 33
0.005001408513635397
  0
3DFACE
  8
0
 10
-61.291465759277344
 20
214.4444580078125
 30
0.005001408513635397
 11
-61.29147720336914
 21
240.00001525878906
 31
0.005001408513635397
 12
-61.29146957397461
 22
214.4444580078125
 32
0.005001408513635397
 13
-61.29146957397461
 23
214.4444580078125
 33
0.005001408513635397
  0
3DFACE
  8
0
 10
-70.0000228881836
 20
260.64068603515625
 30
0.005012585315853357
 11
-70.00003051757812
 21
280.0
 31
0.005012585315853357
 12
-32.000030517578125
 22
280.00006103515625
 32
0.005012585315853357
 13
-32.000030517578125
 23
280.00006103515625
 33
0.005012585315853357
  0
3DFACE
  8
0
 10
-70.0000228881836
 20
260.64068603515625
 30
0.005012585315853357
 11
-32.000030517578125
 21
280.00006103515625
 31
0.005012585315853357
 12
-32.000022888183594
 22
254.44448852539062
 32
0.005012585315853357
 13
-32.000022888183594
 23
254.44448852539062
 33
0.005012585315853357
  0
3DFACE
  8
0
 10
-70.0000228881836
 20
250.0
 30
0.005012585315853357
 11
-70.0000228881836
 21
260.64068603515625
 31
0.005012585315853357
 12
-32.000022888183594
 22
254.44448852539062
 32
0.005012585315853357
 13
-32.000022888183594
 23
254.44448852539062
 33
0.005012585315853357
  0
3DFACE
  8
0
 10
-10.000022888183594
 20
254.44448852539062
 30
0.005012585315853357
 11
-10.000030517578125
 21
280.00006103515625
 31
0.005012585315853357
 12
-2.6702880859375e-05
 22
280.00006103515625
 32
0.005012585315853357
 13
-2.6702880859375e-05
 23
280.00006103515625
 33
0.005012585315853357
  0
3DFACE
  8
0
 10
-70.0000228881836
 20
250.0
 30
0.005012585315853357
 11
-32.000022888183594
 21
254.44448852539062
 31
0.005012585315853357
 12
-10.000022888183594
 22
254.44448852539062
 32
0.005012585315853357
 13
-10.000022888183594
 23
254.44448852539062
 33
0.005012585315853357
  0
3DFACE
  8
0
 10
-80.00003814697266
 20
280.0
 30
0.005012585315853357
 11
-80.00003051757812
 21
260.64068603515625
 31
0.005012585315853357
 12
-80.00003051757812
 22
250.0
 32
0.005012585315853357
 13
-80.00003051757812
 23
250.0
 33
0.005012585315853357
  0
3DFACE
  8
0
 10
-130.00001525878906
 20
280.0
 30
0.005012585315853357
 11
-80.00003814697266
 21
280.0
 31
0.005012585315853357
 12
-80.00003051757812
 22
250.0
 32
0.005012585315853357
 13
-80.00003051757812
 23
250.0
 33
0.005012585315853357
  0
3DFACE
  8
0
 10
-80.0000228881836
 20
240.00001525878906
 30
0.005012585315853357
 11
-130.0
 21
239.99998474121094
 31
0.005012585315853357
 12
-130.00001525878906
 22
280.0
 32
0.005012585315853357
 13
-130.00001525878906
 23
280.0
 33
0.005012585315853357
  0
3DFACE
  8
0
 10
-32.00001525878906
 20
240.00003051757812
 30
0.005012585315853357
 11
-70.00001525878906
 21
240.00001525878906
 31
0.005012585315853357
 12
-80.0000228881836
 22
240.00001525878906
 32
0.005012585315853357
 13
-80.0000228881836
 23
240.00001525878906
 33
0.005012585315853357
  0
3DFACE
  8
0
 10
-1.1444091796875e-05
 20
240.0000457763672
 30
0.005012585315853357
 11
-10.000015258789062
 21
240.00003051757812
 31
0.005012585315853357
 12
-32.00001525878906
 22
240.00003051757812
 32
0.005012585315853357
 13
-32.00001525878906
 23
240.00003051757812
 33
0.005012585315853357
  0
3DFACE
  8
0
 10
-10.000022888183594
 20
254.44448852539062
 30
0.005012585315853357
 11
-2.6702880859375e-05
 21
280.00006103515625
 31
0.005012585315853357
 12
-1.1444091796875e-05
 22
240.0000457763672
 32
0.005012585315853357
 13
-1.1444091796875e-05
 23
240.0000457763672
 33
0.005012585315853357
  0
3DFACE
  8
0
 10
-70.0000228881836
 20
250.0
 30
0.005012585315853357
 11
-10.000022888183594
 21
254.44448852539062
 31
0.005012585315853357
 12
-1.1444091796875e-05
 22
240.0000457763672
 32
0.005012585315853357
 13
-1.1444091796875e-05
 23
240.0000457763672
 33
0.005012585315853357
  0
3DFACE
  8
0
 10
-1.1444091796875e-05
 20
240.0000457763672
 30
0.005012585315853357
 11
-32.00001525878906
 21
240.00003051757812
 31
0.005012585315853357
 12
-80.0000228881836
 22
240.00001525878906
 32
0.005012585315853357
 13
-80.0000228881836
 23
240.00001525878906
 33
0.005012585315853357
  0
3DFACE
  8
0
 10
-80.0000228881836
 20
240.00001525878906
 30
0.005012585315853357
 11
-130.00001525878906
 21
280.0
 31
0.005012585315853357
 12
-80.00003051757812
 22
250.0
 32
0.005012585315853357
 13
-80.00003051757812
 23
250.0
 33
0.005012585315853357
  0
3DFACE
  8
0
 10
-80.00003051757812
 20
250.0
 30
0.005012585315853357
 11
-70.0000228881836
 21
250.0
 31
0.005012585315853357
 12
-1.1444091796875e-05
 22
240.0000457763672
 32
0.005012585315853357
 13
-1.1444091796875e-05
 23
240.0000457763672
 33
0.005012585315853357
  0
3DFACE
  8
0
 10
-80.00003051757812
 20
250.0
 30
0.005012585315853357
 11
-1.1444091796875e-05
 21
240.0000457763672
 31
0.005012585315853357
 12
-80.0000228881836
 22
240.00001525878906
 32
0.005012585315853357
 13
-80.0000228881836
 23
240.00001525878906
 33
0.005012585315853357
  0
3DFACE
  8
0
 10
-80.00003051757812
 20
250.0
 30
0.005012585315853357
 11
-80.00003051757812
 21
260.6406555175781
 31
0.005012585315853357
 12
-80.00003814697266
 22
280.0
 32
0.005012585315853357
 13
-80.00003814697266
 23
280.0
 33
0.005012585315853357
  0
3DFACE
  8
0
 10
-80.00003814697266
 20
280.0
 30
0.005012585315853357
 11
-130.00001525878906
 21
280.0
 31
0.005012585315853357
 12
-130.0
 22
239.99998474121094
 32
0.005012585315853357
 13
-130.0
 23
239.99998474121094
 33
0.005012585315853357
  0
3DFACE
  8
0
 10
-80.0000228881836
 20
240.00001525878906
 30
0.005012585315853357
 11
-70.00001525878906
 21
240.00001525878906
 31
0.005012585315853357
 12
-32.00001907348633
 22
240.00003051757812
 32
0.005012585315853357
 13
-32.00001907348633
 23
240.00003051757812
 33
0.005012585315853357
  0
3DFACE
  8
0
 10
-80.00003051757812
 20
250.0
 30
0.005012585315853357
 11
-80.00003814697266
 21
280.0
 31
0.005012585315853357
 12
-130.0
 22
239.99998474121094
 32
0.005012585315853357
 13
-130.0
 23
239.99998474121094
 33
0.005012585315853357
  0
3DFACE
  8
0
 10
-70.0000228881836
 20
250.0
 30
0.005012585315853357
 11
-80.00003051757812
 21
250.0
 31
0.005012585315853357
 12
-130.0
 22
239.99998474121094
 32
0.005012585315853357
 13
-130.0
 23
239.99998474121094
 33
0.005012585315853357
  0
3DFACE
  8
0
 10
-70.0000228881836
 20
250.0
 30
0.005012585315853357
 11
-130.0
 21
239.99998474121094
 31
0.005012585315853357
 12
-80.0000228881836
 22
240.00001525878906
 32
0.005012585315853357
 13
-80.0000228881836
 23
240.00001525878906
 33
0.005012585315853357
  0
3DFACE
  8
0
 10
-32.000030517578125
 20
280.00006103515625
 30
0.005012585315853357
 11
-70.00003051757812
 21
280.0
 31
0.005012585315853357
 12
-70.0000228881836
 22
260.6406555175781
 32
0.005012585315853357
 13
-70.0000228881836
 23
260.6406555175781
 33
0.005012585315853357
  0
3DFACE
  8
0
 10
-70.0000228881836
 20
250.0
 30
0.005012585315853357
 11
-80.0000228881836
 21
240.00001525878906
 31
0.005012585315853357
 12
-32.00001907348633
 22
240.00003051757812
 32
0.005012585315853357
 13
-32.00001907348633
 23
240.00003051757812
 33
0.005012585315853357
  0
3DFACE
  8
0
 10
-32.000030517578125
 20
280.00006103515625
 30
0.005012585315853357
 11
-70.0000228881836
 21
260.6406555175781
 31
0.005012585315853357
 12
-70.0000228881836
 22
250.0
 32
0.005012585315853357
 13
-70.0000228881836
 23
250.0
 33
0.005012585315853357
  0
3DFACE
  8
0
 10
-32.000022888183594
 20
254.4444580078125
 30
0.005012585315853357
 11
-32.000030517578125
 21
280.00006103515625
 31
0.005012585315853357
 12
-70.0000228881836
 22
250.0
 32
0.005012585315853357
 13
-70.0000228881836
 23
250.0
 33
0.005012585315853357
  0
3DFACE
  8
0
 10
-70.0000228881836
 20
250.0
 30
0.005012585315853357
 11
-32.00001907348633
 21
240.00003051757812
 31
0.005012585315853357
 12
-10.000015258789062
 22
240.00003051757812
 32
0.005012585315853357
 13
-10.000015258789062
 23
240.00003051757812
 33
0.005012585315853357
  0
3DFACE
  8
0
 10
-10.000015258789062
 20
240.00003051757812
 30
0.005012585315853357
 11
-1.1444091796875e-05
 21
240.00003051757812
 31
0.005012585315853357
 12
-2.6702880859375e-05
 22
280.00006103515625
 32
0.005012585315853357
 13
-2.6702880859375e-05
 23
280.00006103515625
 33
0.005012585315853357
  0
3DFACE
  8
0
 10
-2.6702880859375e-05
 20
280.00006103515625
 30
0.005012585315853357
 11
-10.000030517578125
 21
280.00006103515625
 31
0.005012585315853357
 12
-10.000022888183594
 22
254.44448852539062
 32
0.005012585315853357
 13
-10.000022888183594
 23
254.44448852539062
 33
0.005012585315853357
  0
3DFACE
  8
0
 10
-10.000022888183594
 20
254.44448852539062
 30
0.005012585315853357
 11
-32.000022888183594
 21
254.4444580078125
 31
0.005012585315853357
 12
-70.0000228881836
 22
250.0
 32
0.005012585315853357
 13
-70.0000228881836
 23
250.0
 33
0.005012585315853357
  0
3DFACE
  8
0
 10
-10.000015258789062
 20
240.00003051757812
 30
0.005012585315853357
 11
-2.6702880859375e-05
 21
280.00006103515625
 31
0.005012585315853357
 12
-10.000022888183594
 22
254.44448852539062
 32
0.005012585315853357
 13
-10.000022888183594
 23
254.44448852539062
 33
0.005012585315853357
  0
3DFACE
  8
0
 10
-10.000015258789062
 20
240.00003051757812
 30
0.005012585315853357
 11
-10.000022888183594
 21
254.44448852539062
 31
0.005012585315853357
 12
-70.0000228881836
 22
250.0
 32
0.005012585315853357
 13
-70.0000228881836
 23
250.0
 33
0.005012585315853357
  0
3DFACE
  8
0
 10
-10.000015258789062
 20
240.00003051757812
 30
0.005012585315853357
 11
-1.1444091796875e-05
 21
240.0000457763672
 31
0.005012585315853357
 12
-1.1444091796875e-05
 22
240.00003051757812
 32
0.005012585315853357
 13
-1.1444091796875e-05
 23
240.00003051757812
 33
0.005012585315853357
  0
3DFACE
  8
0
 10
-10.000015258789062
 20
240.00003051757812
 30
0.005012585315853357
 11
-1.1444091796875e-05
 21
240.00003051757812
 31
0.005012585315853357
 12
-10.000015258789062
 22
240.00003051757812
 32
0.005012585315853357
 13
-10.000015258789062
 23
240.00003051757812
 33
0.005012585315853357
  0
3DFACE
  8
0
 10
-10.000030517578125
 20
280.00006103515625
 30
0.005012585315853357
 11
-10.000022888183594
 21
254.44448852539062
 31
0.005012585315853357
 12
-10.000022888183594
 22
254.44448852539062
 32
0.005012585315853357
 13
-10.000022888183594
 23
254.44448852539062
 33
0.005012585315853357
  0
3DFACE
  8
0
 10
-10.000030517578125
 20
280.00006103515625
 30
0.005012585315853357
 11
-10.000022888183594
 21
254.44448852539062
 31
0.005012585315853357
 12
-10.000030517578125
 22
280.00006103515625
 32
0.005012585315853357
 13
-10.000030517578125
 23
280.00006103515625
 33
0.005012585315853357
  0
3DFACE
  8
0
 10
-32.00001525878906
 20
240.00003051757812
 30
0.005012585315853357
 11
-10.000015258789062
 21
240.00003051757812
 31
0.005012585315853357
 12
-10.000015258789062
 22
240.00003051757812
 32
0.005012585315853357
 13
-10.000015258789062
 23
240.00003051757812
 33
0.005012585315853357
  0
3DFACE
  8
0
 10
-32.00001525878906
 20
240.00003051757812
 30
0.005012585315853357
 11
-10.000015258789062
 21
240.00003051757812
 31
0.005012585315853357
 12
-32.00001907348633
 22
240.00003051757812
 32
0.005012585315853357
 13
-32.00001907348633
 23
240.00003051757812
 33
0.005012585315853357
  0
3DFACE
  8
0
 10
-80.00003814697266
 20
280.0
 30
0.005012585315853357
 11
-130.00001525878906
 21
280.0
 31
0.005012585315853357
 12
-130.00001525878906
 22
280.0
 32
0.005012585315853357
 13
-130.00001525878906
 23
280.0
 33
0.005012585315853357
  0
3DFACE
  8
0
 10
-80.00003814697266
 20
280.0
 30
0.005012585315853357
 11
-130.00001525878906
 21
280.0
 31
0.005012585315853357
 12
-80.00003814697266
 22
280.0
 32
0.005012585315853357
 13
-80.00003814697266
 23
280.0
 33
0.005012585315853357
  0
3DFACE
  8
0
 10
-10.000022888183594
 20
254.44448852539062
 30
0.005012585315853357
 11
-32.000022888183594
 21
254.44448852539062
 31
0.005012585315853357
 12
-32.000022888183594
 22
254.4444580078125
 32
0.005012585315853357
 13
-32.000022888183594
 23
254.4444580078125
 33
0.005012585315853357
  0
3DFACE
  8
0
 10
-10.000022888183594
 20
254.44448852539062
 30
0.005012585315853357
 11
-32.000022888183594
 21
254.4444580078125
 31
0.005012585315853357
 12
-10.000022888183594
 22
254.44448852539062
 32
0.005012585315853357
 13
-10.000022888183594
 23
254.44448852539062
 33
0.005012585315853357
  0
3DFACE
  8
0
 10
-2.6702880859375e-05
 20
280.00006103515625
 30
0.005012585315853357
 11
-10.000030517578125
 21
280.00006103515625
 31
0.005012585315853357
 12
-10.000030517578125
 22
280.00006103515625
 32
0.005012585315853357
 13
-10.000030517578125
 23
280.00006103515625
 33
0.005012585315853357
  0
3DFACE
  8
0
 10
-2.6702880859375e-05
 20
280.00006103515625
 30
0.005012585315853357
 11
-10.000030517578125
 21
280.00006103515625
 31
0.005012585315853357
 12
-2.6702880859375e-05
 22
280.00006103515625
 32
0.005012585315853357
 13
-2.6702880859375e-05
 23
280.00006103515625
 33
0.005012585315853357
  0
3DFACE
  8
0
 10
-130.00001525878906
 20
280.0
 30
0.005012585315853357
 11
-130.0
 21
239.99998474121094
 31
0.005012585315853357
 12
-130.0
 22
239.99998474121094
 32
0.005012585315853357
 13
-130.0
 23
239.99998474121094
 33
0.005012585315853357
  0
3DFACE
  8
0
 10
-130.00001525878906
 20
280.0
 30
0.005012585315853357
 11
-130.0
 21
239.99998474121094
 31
0.005012585315853357
 12
-130.00001525878906
 22
280.0
 32
0.005012585315853357
 13
-130.00001525878906
 23
280.0
 33
0.005012585315853357
  0
3DFACE
  8
0
 10
-70.0000228881836
 20
250.0
 30
0.005012585315853357
 11
-80.00003051757812
 21
250.0
 31
0.005012585315853357
 12
-80.00003051757812
 22
250.0
 32
0.005012585315853357
 13
-80.00003051757812
 23
250.0
 33
0.005012585315853357
  0
3DFACE
  8
0
 10
-70.0000228881836
 20
250.0
 30
0.005012585315853357
 11
-80.00003051757812
 21
250.0
 31
0.005012585315853357
 12
-70.0000228881836
 22
250.0
 32
0.005012585315853357
 13
-70.0000228881836
 23
250.0
 33
0.005012585315853357
  0
3DFACE
  8
0
 10
-130.0
 20
239.99998474121094
 30
0.005012585315853357
 11
-80.0000228881836
 21
240.00001525878906
 31
0.005012585315853357
 12
-80.0000228881836
 22
240.00001525878906
 32
0.005012585315853357
 13
-80.0000228881836
 23
240.00001525878906
 33
0.005012585315853357
  0
3DFACE
  8
0
 10
-130.0
 20
239.99998474121094
 30
0.005012585315853357
 11
-80.0000228881836
 21
240.00001525878906
 31
0.005012585315853357
 12
-130.0
 22
239.99998474121094
 32
0.005012585315853357
 13
-130.0
 23
239.99998474121094
 33
0.005012585315853357
  0
3DFACE
  8
0
 10
-70.0000228881836
 20
260.64068603515625
 30
0.005012585315853357
 11
-70.0000228881836
 21
250.0
 31
0.005012585315853357
 12
-70.0000228881836
 22
250.0
 32
0.005012585315853357
 13
-70.0000228881836
 23
250.0
 33
0.005012585315853357
  0
3DFACE
  8
0
 10
-70.0000228881836
 20
260.64068603515625
 30
0.005012585315853357
 11
-70.0000228881836
 21
250.0
 31
0.005012585315853357
 12
-70.0000228881836
 22
260.6406555175781
 32
0.005012585315853357
 13
-70.0000228881836
 23
260.6406555175781
 33
0.005012585315853357
  0
3DFACE
  8
0
 10
-80.00003051757812
 20
260.64068603515625
 30
0.005012585315853357
 11
-80.00003814697266
 21
280.0
 31
0.005012585315853357
 12
-80.00003814697266
 22
280.0
 32
0.005012585315853357
 13
-80.00003814697266
 23
280.0
 33
0.005012585315853357
  0
3DFACE
  8
0
 10
-80.00003051757812
 20
260.64068603515625
 30
0.005012585315853357
 11
-80.00003814697266
 21
280.0
 31
0.005012585315853357
 12
-80.00003051757812
 22
260.6406555175781
 32
0.005012585315853357
 13
-80.00003051757812
 23
260.6406555175781
 33
0.005012585315853357
  0
3DFACE
  8
0
 10
-70.00003051757812
 20
280.0
 30
0.005012585315853357
 11
-70.0000228881836
 21
260.64068603515625
 31
0.005012585315853357
 12
-70.0000228881836
 22
260.6406555175781
 32
0.005012585315853357
 13
-70.0000228881836
 23
260.6406555175781
 33
0.005012585315853357
  0
3DFACE
  8
0
 10
-70.00003051757812
 20
280.0
 30
0.005012585315853357
 11
-70.0000228881836
 21
260.6406555175781
 31
0.005012585315853357
 12
-70.00003051757812
 22
280.0
 32
0.005012585315853357
 13
-70.00003051757812
 23
280.0
 33
0.005012585315853357
  0
3DFACE
  8
0
 10
-80.0000228881836
 20
240.00001525878906
 30
0.005012585315853357
 11
-70.00001525878906
 21
240.00001525878906
 31
0.005012585315853357
 12
-70.00001525878906
 22
240.00001525878906
 32
0.005012585315853357
 13
-70.00001525878906
 23
240.00001525878906
 33
0.005012585315853357
  0
3DFACE
  8
0
 10
-80.0000228881836
 20
240.00001525878906
 30
0.005012585315853357
 11
-70.00001525878906
 21
240.00001525878906
 31
0.005012585315853357
 12
-80.0000228881836
 22
240.00001525878906
 32
0.005012585315853357
 13
-80.0000228881836
 23
240.00001525878906
 33
0.005012585315853357
  0
3DFACE
  8
0
 10
-80.00003051757812
 20
250.0
 30
0.005012585315853357
 11
-80.00003051757812
 21
260.64068603515625
 31
0.005012585315853357
 12
-80.00003051757812
 22
260.6406555175781
 32
0.005012585315853357
 13
-80.00003051757812
 23
260.6406555175781
 33
0.005012585315853357
  0
3DFACE
  8
0
 10
-80.00003051757812
 20
250.0
 30
0.005012585315853357
 11
-80.00003051757812
 21
260.6406555175781
 31
0.005012585315853357
 12
-80.00003051757812
 22
250.0
 32
0.005012585315853357
 13
-80.00003051757812
 23
250.0
 33
0.005012585315853357
  0
3DFACE
  8
0
 10
-32.000030517578125
 20
280.00006103515625
 30
0.005012585315853357
 11
-70.00003051757812
 21
280.0
 31
0.005012585315853357
 12
-70.00003051757812
 22
280.0
 32
0.005012585315853357
 13
-70.00003051757812
 23
280.0
 33
0.005012585315853357
  0
3DFACE
  8
0
 10
-32.000030517578125
 20
280.00006103515625
 30
0.005012585315853357
 11
-70.00003051757812
 21
280.0
 31
0.005012585315853357
 12
-32.000030517578125
 22
280.00006103515625
 32
0.005012585315853357
 13
-32.000030517578125
 23
280.00006103515625
 33
0.005012585315853357
  0
3DFACE
  8
0
 10
-1.1444091796875e-05
 20
240.0000457763672
 30
0.005012585315853357
 11
-2.6702880859375e-05
 21
280.00006103515625
 31
0.005012585315853357
 12
-2.6702880859375e-05
 22
280.00006103515625
 32
0.005012585315853357
 13
-2.6702880859375e-05
 23
280.00006103515625
 33
0.005012585315853357
  0
3DFACE
  8
0
 10
-1.1444091796875e-05
 20
240.0000457763672
 30
0.005012585315853357
 11
-2.6702880859375e-05
 21
280.00006103515625
 31
0.005012585315853357
 12
-1.1444091796875e-05
 22
240.00003051757812
 32
0.005012585315853357
 13
-1.1444091796875e-05
 23
240.00003051757812
 33
0.005012585315853357
  0
3DFACE
  8
0
 10
-32.000022888183594
 20
254.44448852539062
 30
0.005012585315853357
 11
-32.000030517578125
 21
280.00006103515625
 31
0.005012585315853357
 12
-32.000030517578125
 22
280.00006103515625
 32
0.005012585315853357
 13
-32.000030517578125
 23
280.00006103515625
 33
0.005012585315853357
  0
3DFACE
  8
0
 10
-32.000022888183594
 20
254.44448852539062
 30
0.005012585315853357
 11
-32.000030517578125
 21
280.00006103515625
 31
0.005012585315853357
 12
-32.000022888183594
 22
254.4444580078125
 32
0.005012585315853357
 13
-32.000022888183594
 23
254.4444580078125
 33
0.005012585315853357
  0
3DFACE
  8
0
 10
-70.00001525878906
 20
240.00001525878906
 30
0.005012585315853357
 11
-32.00001525878906
 21
240.00003051757812
 31
0.005012585315853357
 12
-32.00001907348633
 22
240.00003051757812
 32
0.005012585315853357
 13
-32.00001907348633
 23
240.00003051757812
 33
0.005012585315853357
  0
3DFACE
  8
0
 10
-70.00001525878906
 20
240.00001525878906
 30
0.005012585315853357
 11
-32.00001907348633
 21
240.00003051757812
 31
0.005012585315853357
 12
-70.00001525878906
 22
240.00001525878906
 32
0.005012585315853357
 13
-70.00001525878906
 23
240.00001525878906
 33
0.005012585315853357
  0
3DFACE
  8
0
 10
-48.903446197509766
 20
130.0000457763672
 30
0.004993958864361048
 11
-48.903446197509766
 21
160.00003051757812
 31
0.004993958864361048
 12
-27.403417587280273
 22
160.00003051757812
 32
0.004993958864361048
 13
-27.403417587280273
 23
160.00003051757812
 33
0.004993958864361048
  0
3DFACE
  8
0
 10
-48.903446197509766
 20
130.0000457763672
 30
0.004993958864361048
 11
-27.403417587280273
 21
160.00003051757812
 31
0.004993958864361048
 12
-27.403417587280273
 22
141.6945037841797
 32
0.004993958864361048
 13
-27.403417587280273
 23
141.6945037841797
 33
0.004993958864361048
  0
3DFACE
  8
0
 10
-80.00003051757812
 20
140.00006103515625
 30
0.004993958864361048
 11
-53.93164825439453
 21
140.00006103515625
 31
0.004993958864361048
 12
-53.93164825439453
 22
130.00003051757812
 32
0.004993958864361048
 13
-53.93164825439453
 23
130.00003051757812
 33
0.004993958864361048
  0
3DFACE
  8
0
 10
-48.903446197509766
 20
130.0000457763672
 30
0.004993958864361048
 11
-27.403417587280273
 21
141.6945037841797
 31
0.004993958864361048
 12
-25.40342140197754
 22
141.6945037841797
 32
0.004993958864361048
 13
-25.40342140197754
 23
141.6945037841797
 33
0.004993958864361048
  0
3DFACE
  8
0
 10
-80.00003051757812
 20
120.00004577636719
 30
0.004993958864361048
 11
-80.00003051757812
 21
140.00006103515625
 31
0.004993958864361048
 12
-53.93164825439453
 22
130.00003051757812
 32
0.004993958864361048
 13
-53.93164825439453
 23
130.00003051757812
 33
0.004993958864361048
  0
3DFACE
  8
0
 10
-80.00003051757812
 20
120.00004577636719
 30
0.004993958864361048
 11
-53.93164825439453
 21
130.00003051757812
 31
0.004993958864361048
 12
-48.903446197509766
 22
130.0000457763672
 32
0.004993958864361048
 13
-48.903446197509766
 23
130.0000457763672
 33
0.004993958864361048
  0
3DFACE
  8
0
 10
-53.931640625
 20
120.00004577636719
 30
0.004993958864361048
 11
-80.00003051757812
 21
120.00004577636719
 31
0.004993958864361048
 12
-48.903446197509766
 22
130.0000457763672
 32
0.004993958864361048
 13
-48.903446197509766
 23
130.0000457763672
 33
0.004993958864361048
  0
3DFACE
  8
0
 10
-25.40342140197754
 20
141.6945037841797
 30
0.004993958864361048
 11
-25.40342140197754
 21
160.00003051757812
 31
0.004993958864361048
 12
-1.9073486328125e-05
 22
160.0000457763672
 32
0.004993958864361048
 13
-1.9073486328125e-05
 23
160.0000457763672
 33
0.004993958864361048
  0
3DFACE
  8
0
 10
-53.931640625
 20
120.00004577636719
 30
0.004993958864361048
 11
-48.903446197509766
 21
130.0000457763672
 31
0.004993958864361048
 12
-25.40342140197754
 22
141.6945037841797
 32
0.004993958864361048
 13
-25.40342140197754
 23
141.6945037841797
 33
0.004993958864361048
  0
3DFACE
  8
0
 10
-1.9073486328125e-05
 20
160.0000457763672
 30
0.004993958864361048
 11
-1.9073486328125e-05
 21
120.00004577636719
 31
0.004993958864361048
 12
-48.90343475341797
 22
120.00004577636719
 32
0.004993958864361048
 13
-48.90343475341797
 23
120.00004577636719
 33
0.004993958864361048
  0
3DFACE
  8
0
 10
-48.90343475341797
 20
120.00004577636719
 30
0.004993958864361048
 11
-53.931640625
 21
120.00004577636719
 31
0.004993958864361048
 12
-25.40342140197754
 22
141.6945037841797
 32
0.004993958864361048
 13
-25.40342140197754
 23
141.6945037841797
 33
0.004993958864361048
  0
3DFACE
  8
0
 10
-25.40342140197754
 20
141.6945037841797
 30
0.004993958864361048
 11
-1.9073486328125e-05
 21
160.0000457763672
 31
0.004993958864361048
 12
-48.90343475341797
 22
120.00004577636719
 32
0.004993958864361048
 13
-48.90343475341797
 23
120.00004577636719
 33
0.004993958864361048
  0
3DFACE
  8
0
 10
-53.93164825439453
 20
130.00003051757812
 30
0.004993958864361048
 11
-53.93164825439453
 21
140.0000457763672
 31
0.004993958864361048
 12
-80.00003051757812
 22
140.0000457763672
 32
0.004993958864361048
 13
-80.00003051757812
 23
140.0000457763672
 33
0.004993958864361048
  0
3DFACE
  8
0
 10
-80.00003051757812
 20
140.0000457763672
 30
0.004993958864361048
 11
-80.00003051757812
 21
120.00004577636719
 31
0.004993958864361048
 12
-53.931640625
 22
120.00004577636719
 32
0.004993958864361048
 13
-53.931640625
 23
120.00004577636719
 33
0.004993958864361048
  0
3DFACE
  8
0
 10
-48.903438568115234
 20
120.00004577636719
 30
0.004993958864361048
 11
-1.9073486328125e-05
 21
120.00004577636719
 31
0.004993958864361048
 12
-1.9073486328125e-05
 22
160.0000457763672
 32
0.004993958864361048
 13
-1.9073486328125e-05
 23
160.0000457763672
 33
0.004993958864361048
  0
3DFACE
  8
0
 10
-80.00003051757812
 20
140.0000457763672
 30
0.004993958864361048
 11
-53.931640625
 21
120.00004577636719
 31
0.004993958864361048
 12
-48.903438568115234
 22
120.00004577636719
 32
0.004993958864361048
 13
-48.903438568115234
 23
120.00004577636719
 33
0.004993958864361048
  0
3DFACE
  8
0
 10
-53.93164825439453
 20
130.00003051757812
 30
0.004993958864361048
 11
-80.00003051757812
 21
140.0000457763672
 31
0.004993958864361048
 12
-48.903438568115234
 22
120.00004577636719
 32
0.004993958864361048
 13
-48.903438568115234
 23
120.00004577636719
 33
0.004993958864361048
  0
3DFACE
  8
0
 10
-1.9073486328125e-05
 20
160.0000457763672
 30
0.004993958864361048
 11
-25.40342140197754
 21
160.00003051757812
 31
0.004993958864361048
 12
-25.40342140197754
 22
141.6945037841797
 32
0.004993958864361048
 13
-25.40342140197754
 23
141.6945037841797
 33
0.004993958864361048
  0
3DFACE
  8
0
 10
-27.403417587280273
 20
141.6945037841797
 30
0.004993958864361048
 11
-27.403417587280273
 21
160.00003051757812
 31
0.004993958864361048
 12
-48.903446197509766
 22
160.00003051757812
 32
0.004993958864361048
 13
-48.903446197509766
 23
160.00003051757812
 33
0.004993958864361048
  0
3DFACE
  8
0
 10
-48.903438568115234
 20
120.00004577636719
 30
0.004993958864361048
 11
-1.9073486328125e-05
 21
160.0000457763672
 31
0.004993958864361048
 12
-25.40342140197754
 22
141.6945037841797
 32
0.004993958864361048
 13
-25.40342140197754
 23
141.6945037841797
 33
0.004993958864361048
  0
3DFACE
  8
0
 10
-27.403417587280273
 20
141.6945037841797
 30
0.004993958864361048
 11
-48.903446197509766
 21
160.00003051757812
 31
0.004993958864361048
 12
-48.903446197509766
 22
130.0000457763672
 32
0.004993958864361048
 13
-48.903446197509766
 23
130.0000457763672
 33
0.004993958864361048
  0
3DFACE
  8
0
 10
-48.903438568115234
 20
120.00004577636719
 30
0.004993958864361048
 11
-25.40342140197754
 21
141.6945037841797
 31
0.004993958864361048
 12
-27.403417587280273
 22
141.6945037841797
 32
0.004993958864361048
 13
-27.403417587280273
 23
141.6945037841797
 33
0.004993958864361048
  0
3DFACE
  8
0
 10
-48.903446197509766
 20
130.0000457763672
 30
0.004993958864361048
 11
-53.93164825439453
 21
130.00003051757812
 31
0.004993958864361048
 12
-48.903438568115234
 22
120.00004577636719
 32
0.004993958864361048
 13
-48.903438568115234
 23
120.00004577636719
 33
0.004993958864361048
  0
3DFACE
  8
0
 10
-48.903438568115234
 20
120.00004577636719
 30
0.004993958864361048
 11
-27.403417587280273
 21
141.6945037841797
 31
0.004993958864361048
 12
-48.903446197509766
 22
130.0000457763672
 32
0.004993958864361048
 13
-48.903446197509766
 23
130.0000457763672
 33
0.004993958864361048
  0
3DFACE
  8
0
 10
-1.9073486328125e-05
 20
120.00004577636719
 30
0.004993958864361048
 11
-1.9073486328125e-05
 21
160.0000457763672
 31
0.004993958864361048
 12
-1.9073486328125e-05
 22
160.0000457763672
 32
0.004993958864361048
 13
-1.9073486328125e-05
 23
160.0000457763672
 33
0.004993958864361048
  0
3DFACE
  8
0
 10
-1.9073486328125e-05
 20
120.00004577636719
 30
0.004993958864361048
 11
-1.9073486328125e-05
 21
160.0000457763672
 31
0.004993958864361048
 12
-1.9073486328125e-05
 22
120.00004577636719
 32
0.004993958864361048
 13
-1.9073486328125e-05
 23
120.00004577636719
 33
0.004993958864361048
  0
3DFACE
  8
0
 10
-48.903446197509766
 20
160.00003051757812
 30
0.004993958864361048
 11
-48.903446197509766
 21
130.0000457763672
 31
0.004993958864361048
 12
-48.903446197509766
 22
130.0000457763672
 32
0.004993958864361048
 13
-48.903446197509766
 23
130.0000457763672
 33
0.004993958864361048
  0
3DFACE
  8
0
 10
-48.903446197509766
 20
160.00003051757812
 30
0.004993958864361048
 11
-48.903446197509766
 21
130.0000457763672
 31
0.004993958864361048
 12
-48.903446197509766
 22
160.00003051757812
 32
0.004993958864361048
 13
-48.903446197509766
 23
160.00003051757812
 33
0.004993958864361048
  0
3DFACE
  8
0
 10
-53.93164825439453
 20
140.00006103515625
 30
0.004993958864361048
 11
-80.00003051757812
 21
140.00006103515625
 31
0.004993958864361048
 12
-80.00003051757812
 22
140.0000457763672
 32
0.004993958864361048
 13
-80.00003051757812
 23
140.0000457763672
 33
0.004993958864361048
  0
3DFACE
  8
0
 10
-53.93164825439453
 20
140.00006103515625
 30
0.004993958864361048
 11
-80.00003051757812
 21
140.0000457763672
 31
0.004993958864361048
 12
-53.93164825439453
 22
140.0000457763672
 32
0.004993958864361048
 13
-53.93164825439453
 23
140.0000457763672
 33
0.004993958864361048
  0
3DFACE
  8
0
 10
-1.9073486328125e-05
 20
160.0000457763672
 30
0.004993958864361048
 11
-25.40342140197754
 21
160.00003051757812
 31
0.004993958864361048
 12
-25.40342140197754
 22
160.00003051757812
 32
0.004993958864361048
 13
-25.40342140197754
 23
160.00003051757812
 33
0.004993958864361048
  0
3DFACE
  8
0
 10
-1.9073486328125e-05
 20
160.0000457763672
 30
0.004993958864361048
 11
-25.40342140197754
 21
160.00003051757812
 31
0.004993958864361048
 12
-1.9073486328125e-05
 22
160.0000457763672
 32
0.004993958864361048
 13
-1.9073486328125e-05
 23
160.0000457763672
 33
0.004993958864361048
  0
3DFACE
  8
0
 10
-80.00003051757812
 20
140.00006103515625
 30
0.004993958864361048
 11
-80.00003051757812
 21
120.00004577636719
 31
0.004993958864361048
 12
-80.00003051757812
 22
120.00004577636719
 32
0.004993958864361048
 13
-80.00003051757812
 23
120.00004577636719
 33
0.004993958864361048
  0
3DFACE
  8
0
 10
-80.00003051757812
 20
140.00006103515625
 30
0.004993958864361048
 11
-80.00003051757812
 21
120.00004577636719
 31
0.004993958864361048
 12
-80.00003051757812
 22
140.0000457763672
 32
0.004993958864361048
 13
-80.00003051757812
 23
140.0000457763672
 33
0.004993958864361048
  0
3DFACE
  8
0
 10
-25.40342140197754
 20
141.6945037841797
 30
0.004993958864361048
 11
-27.403417587280273
 21
141.6945037841797
 31
0.004993958864361048
 12
-27.403417587280273
 22
141.6945037841797
 32
0.004993958864361048
 13
-27.403417587280273
 23
141.6945037841797
 33
0.004993958864361048
  0
3DFACE
  8
0
 10
-25.40342140197754
 20
141.6945037841797
 30
0.004993958864361048
 11
-27.403417587280273
 21
141.6945037841797
 31
0.004993958864361048
 12
-25.40342140197754
 22
141.6945037841797
 32
0.004993958864361048
 13
-25.40342140197754
 23
141.6945037841797
 33
0.004993958864361048
  0
3DFACE
  8
0
 10
-80.00003051757812
 20
120.00004577636719
 30
0.004993958864361048
 11
-53.931640625
 21
120.00004577636719
 31
0.004993958864361048
 12
-53.931640625
 22
120.00004577636719
 32
0.004993958864361048
 13
-53.931640625
 23
120.00004577636719
 33
0.004993958864361048
  0
3DFACE
  8
0
 10
-80.00003051757812
 20
120.00004577636719
 30
0.004993958864361048
 11
-53.931640625
 21
120.00004577636719
 31
0.004993958864361048
 12
-80.00003051757812
 22
120.00004577636719
 32
0.004993958864361048
 13
-80.00003051757812
 23
120.00004577636719
 33
0.004993958864361048
  0
3DFACE
  8
0
 10
-25.40342140197754
 20
160.00003051757812
 30
0.004993958864361048
 11
-25.40342140197754
 21
141.6945037841797
 31
0.004993958864361048
 12
-25.40342140197754
 22
141.6945037841797
 32
0.004993958864361048
 13
-25.40342140197754
 23
141.6945037841797
 33
0.004993958864361048
  0
3DFACE
  8
0
 10
-25.40342140197754
 20
160.00003051757812
 30
0.004993958864361048
 11
-25.40342140197754
 21
141.6945037841797
 31
0.004993958864361048
 12
-25.40342140197754
 22
160.00003051757812
 32
0.004993958864361048
 13
-25.40342140197754
 23
160.00003051757812
 33
0.004993958864361048
  0
3DFACE
  8
0
 10
-53.931640625
 20
120.00004577636719
 30
0.004993958864361048
 11
-48.90343475341797
 21
120.00004577636719
 31
0.004993958864361048
 12
-48.903438568115234
 22
120.00004577636719
 32
0.004993958864361048
 13
-48.903438568115234
 23
120.00004577636719
 33
0.004993958864361048
  0
3DFACE
  8
0
 10
-53.931640625
 20
120.00004577636719
 30
0.004993958864361048
 11
-48.903438568115234
 21
120.00004577636719
 31
0.004993958864361048
 12
-53.931640625
 22
120.00004577636719
 32
0.004993958864361048
 13
-53.931640625
 23
120.00004577636719
 33
0.004993958864361048
  0
3DFACE
  8
0
 10
-27.403417587280273
 20
141.6945037841797
 30
0.004993958864361048
 11
-27.403417587280273
 21
160.00003051757812
 31
0.004993958864361048
 12
-27.403417587280273
 22
160.00003051757812
 32
0.004993958864361048
 13
-27.403417587280273
 23
160.00003051757812
 33
0.004993958864361048
  0
3DFACE
  8
0
 10
-27.403417587280273
 20
141.6945037841797
 30
0.004993958864361048
 11
-27.403417587280273
 21
160.00003051757812
 31
0.004993958864361048
 12
-27.403417587280273
 22
141.6945037841797
 32
0.004993958864361048
 13
-27.403417587280273
 23
141.6945037841797
 33
0.004993958864361048
  0
3DFACE
  8
0
 10
-27.403417587280273
 20
160.00003051757812
 30
0.004993958864361048
 11
-48.903446197509766
 21
160.00003051757812
 31
0.004993958864361048
 12
-48.903446197509766
 22
160.00003051757812
 32
0.004993958864361048
 13
-48.903446197509766
 23
160.00003051757812
 33
0.004993958864361048
  0
3DFACE
  8
0
 10
-27.403417587280273
 20
160.00003051757812
 30
0.004993958864361048
 11
-48.903446197509766
 21
160.00003051757812
 31
0.004993958864361048
 12
-27.403417587280273
 22
160.00003051757812
 32
0.004993958864361048
 13
-27.403417587280273
 23
160.00003051757812
 33
0.004993958864361048
  0
3DFACE
  8
0
 10
-53.93164825439453
 20
130.00003051757812
 30
0.004993958864361048
 11
-53.93164825439453
 21
140.00006103515625
 31
0.004993958864361048
 12
-53.93164825439453
 22
140.0000457763672
 32
0.004993958864361048
 13
-53.93164825439453
 23
140.0000457763672
 33
0.004993958864361048
  0
3DFACE
  8
0
 10
-53.93164825439453
 20
130.00003051757812
 30
0.004993958864361048
 11
-53.93164825439453
 21
140.0000457763672
 31
0.004993958864361048
 12
-53.93164825439453
 22
130.00003051757812
 32
0.004993958864361048
 13
-53.93164825439453
 23
130.00003051757812
 33
0.004993958864361048
  0
3DFACE
  8
0
 10
-48.90343475341797
 20
120.00004577636719
 30
0.004993958864361048
 11
-1.9073486328125e-05
 21
120.00004577636719
 31
0.004993958864361048
 12
-1.9073486328125e-05
 22
120.00004577636719
 32
0.004993958864361048
 13
-1.9073486328125e-05
 23
120.00004577636719
 33
0.004993958864361048
  0
3DFACE
  8
0
 10
-48.90343475341797
 20
120.00004577636719
 30
0.004993958864361048
 11
-1.9073486328125e-05
 21
120.00004577636719
 31
0.004993958864361048
 12
-48.903438568115234
 22
120.00004577636719
 32
0.004993958864361048
 13
-48.903438568115234
 23
120.00004577636719
 33
0.004993958864361048
  0
3DFACE
  8
0
 10
-48.903446197509766
 20
130.0000457763672
 30
0.004993958864361048
 11
-53.93164825439453
 21
130.00003051757812
 31
0.004993958864361048
 12
-53.93164825439453
 22
130.00003051757812
 32
0.004993958864361048
 13
-53.93164825439453
 23
130.00003051757812
 33
0.004993958864361048
  0
3DFACE
  8
0
 10
-48.903446197509766
 20
130.0000457763672
 30
0.004993958864361048
 11
-53.93164825439453
 21
130.00003051757812
 31
0.004993958864361048
 12
-48.903446197509766
 22
130.0000457763672
 32
0.004993958864361048
 13
-48.903446197509766
 23
130.0000457763672
 33
0.004993958864361048
  0
3DFACE
  8
0
 10
-3.814697265625e-06
 20
120.0000228881836
 30
0.005000010598450899
 11
-3.814697265625e-06
 21
80.0000228881836
 31
0.005000010598450899
 12
-25.403404235839844
 22
80.0000228881836
 32
0.005000010598450899
 13
-25.403404235839844
 23
80.0000228881836
 33
0.005000010598450899
  0
3DFACE
  8
0
 10
-3.814697265625e-06
 20
120.0000228881836
 30
0.005000010598450899
 11
-25.403404235839844
 21
80.0000228881836
 31
0.005000010598450899
 12
-27.40340805053711
 22
80.0000228881836
 32
0.005000010598450899
 13
-27.40340805053711
 23
80.0000228881836
 33
0.005000010598450899
  0
3DFACE
  8
0
 10
-25.403404235839844
 20
101.69447326660156
 30
0.005000010598450899
 11
-25.403404235839844
 21
120.0000228881836
 31
0.005000010598450899
 12
-3.814697265625e-06
 22
120.0000228881836
 32
0.005000010598450899
 13
-3.814697265625e-06
 23
120.0000228881836
 33
0.005000010598450899
  0
3DFACE
  8
0
 10
-48.90342712402344
 20
120.0000228881836
 30
0.005000010598450899
 11
-27.40340805053711
 21
120.0000228881836
 31
0.005000010598450899
 12
-27.40340805053711
 22
101.69447326660156
 32
0.005000010598450899
 13
-27.40340805053711
 23
101.69447326660156
 33
0.005000010598450899
  0
3DFACE
  8
0
 10
-25.403404235839844
 20
101.69447326660156
 30
0.005000010598450899
 11
-3.814697265625e-06
 21
120.0000228881836
 31
0.005000010598450899
 12
-27.40340805053711
 22
80.0000228881836
 32
0.005000010598450899
 13
-27.40340805053711
 23
80.0000228881836
 33
0.005000010598450899
  0
3DFACE
  8
0
 10
-48.90342712402344
 20
90.0000228881836
 30
0.005000010598450899
 11
-48.90342712402344
 21
120.0000228881836
 31
0.005000010598450899
 12
-27.40340805053711
 22
101.69447326660156
 32
0.005000010598450899
 13
-27.40340805053711
 23
101.69447326660156
 33
0.005000010598450899
  0
3DFACE
  8
0
 10
-27.40340805053711
 20
101.69447326660156
 30
0.005000010598450899
 11
-25.403404235839844
 21
101.69447326660156
 31
0.005000010598450899
 12
-27.40340805053711
 22
80.0000228881836
 32
0.005000010598450899
 13
-27.40340805053711
 23
80.0000228881836
 33
0.005000010598450899
  0
3DFACE
  8
0
 10
-27.40340805053711
 20
101.69447326660156
 30
0.005000010598450899
 11
-27.40340805053711
 21
80.0000228881836
 31
0.005000010598450899
 12
-48.903419494628906
 22
80.0000228881836
 32
0.005000010598450899
 13
-48.903419494628906
 23
80.0000228881836
 33
0.005000010598450899
  0
3DFACE
  8
0
 10
-48.90342712402344
 20
90.0000228881836
 30
0.005000010598450899
 11
-27.40340805053711
 21
101.69447326660156
 31
0.005000010598450899
 12
-48.903419494628906
 22
80.0000228881836
 32
0.005000010598450899
 13
-48.903419494628906
 23
80.0000228881836
 33
0.005000010598450899
  0
3DFACE
  8
0
 10
-55.06025314331055
 20
80.0000228881836
 30
0.005000010598450899
 11
-80.00000762939453
 21
80.0000228881836
 31
0.005000010598450899
 12
-80.00001525878906
 22
100.0000228881836
 32
0.005000010598450899
 13
-80.00001525878906
 23
100.0000228881836
 33
0.005000010598450899
  0
3DFACE
  8
0
 10
-48.90342712402344
 20
90.0000228881836
 30
0.005000010598450899
 11
-48.903419494628906
 21
80.0000228881836
 31
0.005000010598450899
 12
-55.06025314331055
 22
80.0000228881836
 32
0.005000010598450899
 13
-55.06025314331055
 23
80.0000228881836
 33
0.005000010598450899
  0
3DFACE
  8
0
 10
-80.00001525878906
 20
100.0000228881836
 30
0.005000010598450899
 11
-55.06026077270508
 21
100.0000228881836
 31
0.005000010598450899
 12
-55.06026077270508
 22
90.0000228881836
 32
0.005000010598450899
 13
-55.06026077270508
 23
90.0000228881836
 33
0.005000010598450899
  0
3DFACE
  8
0
 10
-55.06026077270508
 20
90.0000228881836
 30
0.005000010598450899
 11
-48.90342712402344
 21
90.0000228881836
 31
0.005000010598450899
 12
-55.06025314331055
 22
80.0000228881836
 32
0.005000010598450899
 13
-55.06025314331055
 23
80.0000228881836
 33
0.005000010598450899
  0
3DFACE
  8
0
 10
-55.06025314331055
 20
80.0000228881836
 30
0.005000010598450899
 11
-80.00001525878906
 21
100.0000228881836
 31
0.005000010598450899
 12
-55.06026077270508
 22
90.0000228881836
 32
0.005000010598450899
 13
-55.06026077270508
 23
90.0000228881836
 33
0.005000010598450899
  0
3DFACE
  8
0
 10
-25.403404235839844
 20
80.0000228881836
 30
0.005000010598450899
 11
-3.814697265625e-06
 21
80.0000228881836
 31
0.005000010598450899
 12
-3.814697265625e-06
 22
120.0000228881836
 32
0.005000010598450899
 13
-3.814697265625e-06
 23
120.0000228881836
 33
0.005000010598450899
  0
3DFACE
  8
0
 10
-3.814697265625e-06
 20
120.0000228881836
 30
0.005000010598450899
 11
-25.403404235839844
 21
120.0000228881836
 31
0.005000010598450899
 12
-25.403404235839844
 22
101.69447326660156
 32
0.005000010598450899
 13
-25.403404235839844
 23
101.69447326660156
 33
0.005000010598450899
  0
3DFACE
  8
0
 10
-27.40340805053711
 20
101.69447326660156
 30
0.005000010598450899
 11
-27.40340805053711
 21
120.0000228881836
 31
0.005000010598450899
 12
-48.9034309387207
 22
120.0000228881836
 32
0.005000010598450899
 13
-48.9034309387207
 23
120.0000228881836
 33
0.005000010598450899
  0
3DFACE
  8
0
 10
-25.403404235839844
 20
80.0000228881836
 30
0.005000010598450899
 11
-3.814697265625e-06
 21
120.0000228881836
 31
0.005000010598450899
 12
-25.403404235839844
 22
101.69447326660156
 32
0.005000010598450899
 13
-25.403404235839844
 23
101.69447326660156
 33
0.005000010598450899
  0
3DFACE
  8
0
 10
-27.40340805053711
 20
101.69447326660156
 30
0.005000010598450899
 11
-48.9034309387207
 21
120.0000228881836
 31
0.005000010598450899
 12
-48.90342712402344
 22
90.0000228881836
 32
0.005000010598450899
 13
-48.90342712402344
 23
90.0000228881836
 33
0.005000010598450899
  0
3DFACE
  8
0
 10
-25.403404235839844
 20
80.0000228881836
 30
0.005000010598450899
 11
-25.403404235839844
 21
101.69447326660156
 31
0.005000010598450899
 12
-27.40340805053711
 22
101.69447326660156
 32
0.005000010598450899
 13
-27.40340805053711
 23
101.69447326660156
 33
0.005000010598450899
  0
3DFACE
  8
0
 10
-27.40340805053711
 20
80.0000228881836
 30
0.005000010598450899
 11
-25.403404235839844
 21
80.0000228881836
 31
0.005000010598450899
 12
-27.40340805053711
 22
101.69447326660156
 32
0.005000010598450899
 13
-27.40340805053711
 23
101.69447326660156
 33
0.005000010598450899
  0
3DFACE
  8
0
 10
-27.40340805053711
 20
80.0000228881836
 30
0.005000010598450899
 11
-27.40340805053711
 21
101.69447326660156
 31
0.005000010598450899
 12
-48.90342712402344
 22
90.0000228881836
 32
0.005000010598450899
 13
-48.90342712402344
 23
90.0000228881836
 33
0.005000010598450899
  0
3DFACE
  8
0
 10
-48.903419494628906
 20
80.0000228881836
 30
0.005000010598450899
 11
-27.40340805053711
 21
80.0000228881836
 31
0.005000010598450899
 12
-48.90342712402344
 22
90.0000228881836
 32
0.005000010598450899
 13
-48.90342712402344
 23
90.0000228881836
 33
0.005000010598450899
  0
3DFACE
  8
0
 10
-55.060264587402344
 20
90.0000228881836
 30
0.005000010598450899
 11
-55.060264587402344
 21
100.0000228881836
 31
0.005000010598450899
 12
-80.00001525878906
 22
100.0000228881836
 32
0.005000010598450899
 13
-80.00001525878906
 23
100.0000228881836
 33
0.005000010598450899
  0
3DFACE
  8
0
 10
-48.903419494628906
 20
80.0000228881836
 30
0.005000010598450899
 11
-48.90342712402344
 21
90.0000228881836
 31
0.005000010598450899
 12
-55.060264587402344
 22
90.0000228881836
 32
0.005000010598450899
 13
-55.060264587402344
 23
90.0000228881836
 33
0.005000010598450899
  0
3DFACE
  8
0
 10
-80.00001525878906
 20
100.0000228881836
 30
0.005000010598450899
 11
-80.00000762939453
 21
80.0000228881836
 31
0.005000010598450899
 12
-55.06025695800781
 22
80.0000228881836
 32
0.005000010598450899
 13
-55.06025695800781
 23
80.0000228881836
 33
0.005000010598450899
  0
3DFACE
  8
0
 10
-55.06025695800781
 20
80.0000228881836
 30
0.005000010598450899
 11
-48.903419494628906
 21
80.0000228881836
 31
0.005000010598450899
 12
-55.060264587402344
 22
90.0000228881836
 32
0.005000010598450899
 13
-55.060264587402344
 23
90.0000228881836
 33
0.005000010598450899
  0
3DFACE
  8
0
 10
-55.060264587402344
 20
90.0000228881836
 30
0.005000010598450899
 11
-80.00001525878906
 21
100.0000228881836
 31
0.005000010598450899
 12
-55.06025695800781
 22
80.0000228881836
 32
0.005000010598450899
 13
-55.06025695800781
 23
80.0000228881836
 33
0.005000010598450899
  0
3DFACE
  8
0
 10
-55.06026077270508
 20
100.0000228881836
 30
0.005000010598450899
 11
-80.00001525878906
 21
100.0000228881836
 31
0.005000010598450899
 12
-80.00001525878906
 22
100.0000228881836
 32
0.005000010598450899
 13
-80.00001525878906
 23
100.0000228881836
 33
0.005000010598450899
  0
3DFACE
  8
0
 10
-55.06026077270508
 20
100.0000228881836
 30
0.005000010598450899
 11
-80.00001525878906
 21
100.0000228881836
 31
0.005000010598450899
 12
-55.060264587402344
 22
100.0000228881836
 32
0.005000010598450899
 13
-55.060264587402344
 23
100.0000228881836
 33
0.005000010598450899
  0
3DFACE
  8
0
 10
-80.00000762939453
 20
80.0000228881836
 30
0.005000010598450899
 11
-55.06025314331055
 21
80.0000228881836
 31
0.005000010598450899
 12
-55.06025695800781
 22
80.0000228881836
 32
0.005000010598450899
 13
-55.06025695800781
 23
80.0000228881836
 33
0.005000010598450899
  0
3DFACE
  8
0
 10
-80.00000762939453
 20
80.0000228881836
 30
0.005000010598450899
 11
-55.06025695800781
 21
80.0000228881836
 31
0.005000010598450899
 12
-80.00000762939453
 22
80.0000228881836
 32
0.005000010598450899
 13
-80.00000762939453
 23
80.0000228881836
 33
0.005000010598450899
  0
3DFACE
  8
0
 10
-80.00001525878906
 20
100.0000228881836
 30
0.005000010598450899
 11
-80.00000762939453
 21
80.0000228881836
 31
0.005000010598450899
 12
-80.00000762939453
 22
80.0000228881836
 32
0.005000010598450899
 13
-80.00000762939453
 23
80.0000228881836
 33
0.005000010598450899
  0
3DFACE
  8
0
 10
-80.00001525878906
 20
100.0000228881836
 30
0.005000010598450899
 11
-80.00000762939453
 21
80.0000228881836
 31
0.005000010598450899
 12
-80.00001525878906
 22
100.0000228881836
 32
0.005000010598450899
 13
-80.00001525878906
 23
100.0000228881836
 33
0.005000010598450899
  0
3DFACE
  8
0
 10
-55.06025314331055
 20
80.0000228881836
 30
0.005000010598450899
 11
-48.903419494628906
 21
80.0000228881836
 31
0.005000010598450899
 12
-48.903419494628906
 22
80.0000228881836
 32
0.005000010598450899
 13
-48.903419494628906
 23
80.0000228881836
 33
0.005000010598450899
  0
3DFACE
  8
0
 10
-55.06025314331055
 20
80.0000228881836
 30
0.005000010598450899
 11
-48.903419494628906
 21
80.0000228881836
 31
0.005000010598450899
 12
-55.06025695800781
 22
80.0000228881836
 32
0.005000010598450899
 13
-55.06025695800781
 23
80.0000228881836
 33
0.005000010598450899
  0
3DFACE
  8
0
 10
-25.403404235839844
 20
101.69447326660156
 30
0.005000010598450899
 11
-27.40340805053711
 21
101.69447326660156
 31
0.005000010598450899
 12
-27.40340805053711
 22
101.69447326660156
 32
0.005000010598450899
 13
-27.40340805053711
 23
101.69447326660156
 33
0.005000010598450899
  0
3DFACE
  8
0
 10
-25.403404235839844
 20
101.69447326660156
 30
0.005000010598450899
 11
-27.40340805053711
 21
101.69447326660156
 31
0.005000010598450899
 12
-25.403404235839844
 22
101.69447326660156
 32
0.005000010598450899
 13
-25.403404235839844
 23
101.69447326660156
 33
0.005000010598450899
  0
3DFACE
  8
0
 10
-48.903419494628906
 20
80.0000228881836
 30
0.005000010598450899
 11
-27.40340805053711
 21
80.0000228881836
 31
0.005000010598450899
 12
-27.40340805053711
 22
80.0000228881836
 32
0.005000010598450899
 13
-27.40340805053711
 23
80.0000228881836
 33
0.005000010598450899
  0
3DFACE
  8
0
 10
-48.903419494628906
 20
80.0000228881836
 30
0.005000010598450899
 11
-27.40340805053711
 21
80.0000228881836
 31
0.005000010598450899
 12
-48.903419494628906
 22
80.0000228881836
 32
0.005000010598450899
 13
-48.903419494628906
 23
80.0000228881836
 33
0.005000010598450899
  0
3DFACE
  8
0
 10
-25.403404235839844
 20
120.0000228881836
 30
0.005000010598450899
 11
-25.403404235839844
 21
101.69447326660156
 31
0.005000010598450899
 12
-25.403404235839844
 22
101.69447326660156
 32
0.005000010598450899
 13
-25.403404235839844
 23
101.69447326660156
 33
0.005000010598450899
  0
3DFACE
  8
0
 10
-25.403404235839844
 20
120.0000228881836
 30
0.005000010598450899
 11
-25.403404235839844
 21
101.69447326660156
 31
0.005000010598450899
 12
-25.403404235839844
 22
120.0000228881836
 32
0.005000010598450899
 13
-25.403404235839844
 23
120.0000228881836
 33
0.005000010598450899
  0
3DFACE
  8
0
 10
-27.40340805053711
 20
80.0000228881836
 30
0.005000010598450899
 11
-25.403404235839844
 21
80.0000228881836
 31
0.005000010598450899
 12
-25.403404235839844
 22
80.0000228881836
 32
0.005000010598450899
 13
-25.403404235839844
 23
80.0000228881836
 33
0.005000010598450899
  0
3DFACE
  8
0
 10
-27.40340805053711
 20
80.0000228881836
 30
0.005000010598450899
 11
-25.403404235839844
 21
80.0000228881836
 31
0.005000010598450899
 12
-27.40340805053711
 22
80.0000228881836
 32
0.005000010598450899
 13
-27.40340805053711
 23
80.0000228881836
 33
0.005000010598450899
  0
3DFACE
  8
0
 10
-27.40340805053711
 20
101.69447326660156
 30
0.005000010598450899
 11
-27.40340805053711
 21
120.0000228881836
 31
0.005000010598450899
 12
-27.40340805053711
 22
120.0000228881836
 32
0.005000010598450899
 13
-27.40340805053711
 23
120.0000228881836
 33
0.005000010598450899
  0
3DFACE
  8
0
 10
-27.40340805053711
 20
101.69447326660156
 30
0.005000010598450899
 11
-27.40340805053711
 21
120.0000228881836
 31
0.005000010598450899
 12
-27.40340805053711
 22
101.69447326660156
 32
0.005000010598450899
 13
-27.40340805053711
 23
101.69447326660156
 33
0.005000010598450899
  0
3DFACE
  8
0
 10
-3.814697265625e-06
 20
120.0000228881836
 30
0.005000010598450899
 11
-25.403404235839844
 21
120.0000228881836
 31
0.005000010598450899
 12
-25.403404235839844
 22
120.0000228881836
 32
0.005000010598450899
 13
-25.403404235839844
 23
120.0000228881836
 33
0.005000010598450899
  0
3DFACE
  8
0
 10
-3.814697265625e-06
 20
120.0000228881836
 30
0.005000010598450899
 11
-25.403404235839844
 21
120.0000228881836
 31
0.005000010598450899
 12
-3.814697265625e-06
 22
120.0000228881836
 32
0.005000010598450899
 13
-3.814697265625e-06
 23
120.0000228881836
 33
0.005000010598450899
  0
3DFACE
  8
0
 10
-48.90342712402344
 20
120.0000228881836
 30
0.005000010598450899
 11
-48.90342712402344
 21
90.0000228881836
 31
0.005000010598450899
 12
-48.90342712402344
 22
90.0000228881836
 32
0.005000010598450899
 13
-48.90342712402344
 23
90.0000228881836
 33
0.005000010598450899
  0
3DFACE
  8
0
 10
-48.90342712402344
 20
120.0000228881836
 30
0.005000010598450899
 11
-48.90342712402344
 21
90.0000228881836
 31
0.005000010598450899
 12
-48.9034309387207
 22
120.0000228881836
 32
0.005000010598450899
 13
-48.9034309387207
 23
120.0000228881836
 33
0.005000010598450899
  0
3DFACE
  8
0
 10
-27.40340805053711
 20
120.0000228881836
 30
0.005000010598450899
 11
-48.90342712402344
 21
120.0000228881836
 31
0.005000010598450899
 12
-48.9034309387207
 22
120.0000228881836
 32
0.005000010598450899
 13
-48.9034309387207
 23
120.0000228881836
 33
0.005000010598450899
  0
3DFACE
  8
0
 10
-27.40340805053711
 20
120.0000228881836
 30
0.005000010598450899
 11
-48.9034309387207
 21
120.0000228881836
 31
0.005000010598450899
 12
-27.40340805053711
 22
120.0000228881836
 32
0.005000010598450899
 13
-27.40340805053711
 23
120.0000228881836
 33
0.005000010598450899
  0
3DFACE
  8
0
 10
-25.403404235839844
 20
80.0000228881836
 30
0.005000010598450899
 11
-3.814697265625e-06
 21
80.0000228881836
 31
0.005000010598450899
 12
-3.814697265625e-06
 22
80.0000228881836
 32
0.005000010598450899
 13
-3.814697265625e-06
 23
80.0000228881836
 33
0.005000010598450899
  0
3DFACE
  8
0
 10
-25.403404235839844
 20
80.0000228881836
 30
0.005000010598450899
 11
-3.814697265625e-06
 21
80.0000228881836
 31
0.005000010598450899
 12
-25.403404235839844
 22
80.0000228881836
 32
0.005000010598450899
 13
-25.403404235839844
 23
80.0000228881836
 33
0.005000010598450899
  0
3DFACE
  8
0
 10
-48.90342712402344
 20
90.0000228881836
 30
0.005000010598450899
 11
-55.06026077270508
 21
90.0000228881836
 31
0.005000010598450899
 12
-55.060264587402344
 22
90.0000228881836
 32
0.005000010598450899
 13
-55.060264587402344
 23
90.0000228881836
 33
0.005000010598450899
  0
3DFACE
  8
0
 10
-48.90342712402344
 20
90.0000228881836
 30
0.005000010598450899
 11
-55.060264587402344
 21
90.0000228881836
 31
0.005000010598450899
 12
-48.90342712402344
 22
90.0000228881836
 32
0.005000010598450899
 13
-48.90342712402344
 23
90.0000228881836
 33
0.005000010598450899
  0
3DFACE
  8
0
 10
-55.06026077270508
 20
90.0000228881836
 30
0.005000010598450899
 11
-55.06026077270508
 21
100.0000228881836
 31
0.005000010598450899
 12
-55.060264587402344
 22
100.0000228881836
 32
0.005000010598450899
 13
-55.060264587402344
 23
100.0000228881836
 33
0.005000010598450899
  0
3DFACE
  8
0
 10
-55.06026077270508
 20
90.0000228881836
 30
0.005000010598450899
 11
-55.060264587402344
 21
100.0000228881836
 31
0.005000010598450899
 12
-55.060264587402344
 22
90.0000228881836
 32
0.005000010598450899
 13
-55.060264587402344
 23
90.0000228881836
 33
0.005000010598450899
  0
3DFACE
  8
0
 10
-3.814697265625e-06
 20
80.0000228881836
 30
0.005000010598450899
 11
-3.814697265625e-06
 21
120.0000228881836
 31
0.005000010598450899
 12
-3.814697265625e-06
 22
120.0000228881836
 32
0.005000010598450899
 13
-3.814697265625e-06
 23
120.0000228881836
 33
0.005000010598450899
  0
3DFACE
  8
0
 10
-3.814697265625e-06
 20
80.0000228881836
 30
0.005000010598450899
 11
-3.814697265625e-06
 21
120.0000228881836
 31
0.005000010598450899
 12
-3.814697265625e-06
 22
80.0000228881836
 32
0.005000010598450899
 13
-3.814697265625e-06
 23
80.0000228881836
 33
0.005000010598450899
  0
3DFACE
  8
0
 10
0.0
 20
3.0517578125e-05
 30
0.004997684620320797
 11
-25.710105895996094
 21
3.0517578125e-05
 31
0.004997684620320797
 12
-25.710132598876953
 22
40.000030517578125
 32
0.004997684620320797
 13
-25.710132598876953
 23
40.000030517578125
 33
0.004997684620320797
  0
3DFACE
  8
0
 10
0.0
 20
3.0517578125e-05
 30
0.004997684620320797
 11
-25.710132598876953
 21
40.000030517578125
 31
0.004997684620320797
 12
-1.52587890625e-05
 22
40.00004577636719
 32
0.004997684620320797
 13
-1.52587890625e-05
 23
40.00004577636719
 33
0.004997684620320797
  0
3DFACE
  8
0
 10
-90.00001525878906
 20
20.000015258789062
 30
0.004997684620320797
 11
-90.00001525878906
 21
40.00001525878906
 31
0.004997684620320797
 12
-51.21011734008789
 22
40.000030517578125
 32
0.004997684620320797
 13
-51.21011734008789
 23
40.000030517578125
 33
0.004997684620320797
  0
3DFACE
  8
0
 10
-90.00001525878906
 20
20.000015258789062
 30
0.004997684620320797
 11
-51.21011734008789
 21
40.000030517578125
 31
0.004997684620320797
 12
-51.210113525390625
 22
19.444473266601562
 32
0.004997684620320797
 13
-51.210113525390625
 23
19.444473266601562
 33
0.004997684620320797
  0
3DFACE
  8
0
 10
-110.0000228881836
 20
40.0
 30
0.004997684620320797
 11
-101.70648193359375
 21
40.00001525878906
 31
0.004997684620320797
 12
-101.70648193359375
 22
20.00000762939453
 32
0.004997684620320797
 13
-101.70648193359375
 23
20.00000762939453
 33
0.004997684620320797
  0
3DFACE
  8
0
 10
-101.70648193359375
 20
20.00000762939453
 30
0.004997684620320797
 11
-90.00001525878906
 21
20.000015258789062
 31
0.004997684620320797
 12
-51.210113525390625
 22
19.444473266601562
 32
0.004997684620320797
 13
-51.210113525390625
 23
19.444473266601562
 33
0.004997684620320797
  0
3DFACE
  8
0
 10
-41.21013641357422
 20
19.444473266601562
 30
0.004997684620320797
 11
-41.21014404296875
 21
40.000030517578125
 31
0.004997684620320797
 12
-26.710121154785156
 22
40.000030517578125
 32
0.004997684620320797
 13
-26.710121154785156
 23
40.000030517578125
 33
0.004997684620320797
  0
3DFACE
  8
0
 10
-41.21013641357422
 20
19.444473266601562
 30
0.004997684620320797
 11
-26.710121154785156
 21
40.000030517578125
 31
0.004997684620320797
 12
-26.71009063720703
 22
3.0517578125e-05
 32
0.004997684620320797
 13
-26.71009063720703
 23
3.0517578125e-05
 33
0.004997684620320797
  0
3DFACE
  8
0
 10
-41.21013641357422
 20
19.444473266601562
 30
0.004997684620320797
 11
-26.71009063720703
 21
3.0517578125e-05
 31
0.004997684620320797
 12
-41.21010208129883
 22
3.0517578125e-05
 32
0.004997684620320797
 13
-41.21010208129883
 23
3.0517578125e-05
 33
0.004997684620320797
  0
3DFACE
  8
0
 10
-51.210113525390625
 20
19.444473266601562
 30
0.004997684620320797
 11
-41.21013641357422
 21
19.444473266601562
 31
0.004997684620320797
 12
-41.21010208129883
 22
3.0517578125e-05
 32
0.004997684620320797
 13
-41.21010208129883
 23
3.0517578125e-05
 33
0.004997684620320797
  0
3DFACE
  8
0
 10
-51.21009063720703
 20
3.0517578125e-05
 30
0.004997684620320797
 11
-90.0
 21
0.0
 31
0.004997684620320797
 12
-101.70646667480469
 22
0.0
 32
0.004997684620320797
 13
-101.70646667480469
 23
0.0
 33
0.004997684620320797
  0
3DFACE
  8
0
 10
-51.210113525390625
 20
19.444473266601562
 30
0.004997684620320797
 11
-41.21010208129883
 21
3.0517578125e-05
 31
0.004997684620320797
 12
-51.21009063720703
 22
3.0517578125e-05
 32
0.004997684620320797
 13
-51.21009063720703
 23
3.0517578125e-05
 33
0.004997684620320797
  0
3DFACE
  8
0
 10
-110.00000762939453
 20
0.0
 30
0.004997684620320797
 11
-110.0000228881836
 21
40.0
 31
0.004997684620320797
 12
-101.70648193359375
 22
20.00000762939453
 32
0.004997684620320797
 13
-101.70648193359375
 23
20.00000762939453
 33
0.004997684620320797
  0
3DFACE
  8
0
 10
-101.70648193359375
 20
20.00000762939453
 30
0.004997684620320797
 11
-51.210113525390625
 21
19.444473266601562
 31
0.004997684620320797
 12
-51.21009063720703
 22
3.0517578125e-05
 32
0.004997684620320797
 13
-51.21009063720703
 23
3.0517578125e-05
 33
0.004997684620320797
  0
3DFACE
  8
0
 10
-51.21009063720703
 20
3.0517578125e-05
 30
0.004997684620320797
 11
-101.70646667480469
 21
0.0
 31
0.004997684620320797
 12
-110.00000762939453
 22
0.0
 32
0.004997684620320797
 13
-110.00000762939453
 23
0.0
 33
0.004997684620320797
  0
3DFACE
  8
0
 10
-101.70648193359375
 20
20.00000762939453
 30
0.004997684620320797
 11
-51.21009063720703
 21
3.0517578125e-05
 31
0.004997684620320797
 12
-110.00000762939453
 22
0.0
 32
0.004997684620320797
 13
-110.00000762939453
 23
0.0
 33
0.004997684620320797
  0
3DFACE
  8
0
 10
0.0
 20
3.0517578125e-05
 30
0.004997684620320797
 11
-1.52587890625e-05
 21
40.000038146972656
 31
0.004997684620320797
 12
-25.710132598876953
 22
40.000030517578125
 32
0.004997684620320797
 13
-25.710132598876953
 23
40.000030517578125
 33
0.004997684620320797
  0
3DFACE
  8
0
 10
0.0
 20
3.0517578125e-05
 30
0.004997684620320797
 11
-25.710132598876953
 21
40.000030517578125
 31
0.004997684620320797
 12
-25.710105895996094
 22
3.0517578125e-05
 32
0.004997684620320797
 13
-25.710105895996094
 23
3.0517578125e-05
 33
0.004997684620320797
  0
3DFACE
  8
0
 10
-101.70648193359375
 20
20.0
 30
0.004997684620320797
 11
-101.70648193359375
 21
40.00001525878906
 31
0.004997684620320797
 12
-110.0000228881836
 22
40.0
 32
0.004997684620320797
 13
-110.0000228881836
 23
40.0
 33
0.004997684620320797
  0
3DFACE
  8
0
 10
-110.0000228881836
 20
40.0
 30
0.004997684620320797
 11
-110.00000762939453
 21
0.0
 31
0.004997684620320797
 12
-101.70646667480469
 22
0.0
 32
0.004997684620320797
 13
-101.70646667480469
 23
0.0
 33
0.004997684620320797
  0
3DFACE
  8
0
 10
-101.70646667480469
 20
0.0
 30
0.004997684620320797
 11
-90.0
 21
0.0
 31
0.004997684620320797
 12
-51.21009063720703
 22
1.52587890625e-05
 32
0.004997684620320797
 13
-51.21009063720703
 23
1.52587890625e-05
 33
0.004997684620320797
  0
3DFACE
  8
0
 10
-51.21009063720703
 20
1.52587890625e-05
 30
0.004997684620320797
 11
-41.21010208129883
 21
1.52587890625e-05
 31
0.004997684620320797
 12
-26.71009063720703
 22
3.0517578125e-05
 32
0.004997684620320797
 13
-26.71009063720703
 23
3.0517578125e-05
 33
0.004997684620320797
  0
3DFACE
  8
0
 10
-26.71009063720703
 20
3.0517578125e-05
 30
0.004997684620320797
 11
-26.710121154785156
 21
40.000030517578125
 31
0.004997684620320797
 12
-41.210147857666016
 22
40.000030517578125
 32
0.004997684620320797
 13
-41.210147857666016
 23
40.000030517578125
 33
0.004997684620320797
  0
3DFACE
  8
0
 10
-26.71009063720703
 20
3.0517578125e-05
 30
0.004997684620320797
 11
-41.210147857666016
 21
40.000030517578125
 31
0.004997684620320797
 12
-41.210140228271484
 22
19.444473266601562
 32
0.004997684620320797
 13
-41.210140228271484
 23
19.444473266601562
 33
0.004997684620320797
  0
3DFACE
  8
0
 10
-101.70646667480469
 20
0.0
 30
0.004997684620320797
 11
-51.21009063720703
 21
1.52587890625e-05
 31
0.004997684620320797
 12
-26.71009063720703
 22
3.0517578125e-05
 32
0.004997684620320797
 13
-26.71009063720703
 23
3.0517578125e-05
 33
0.004997684620320797
  0
3DFACE
  8
0
 10
-101.70648193359375
 20
20.0
 30
0.004997684620320797
 11
-110.0000228881836
 21
40.0
 31
0.004997684620320797
 12
-101.70646667480469
 22
0.0
 32
0.004997684620320797
 13
-101.70646667480469
 23
0.0
 33
0.004997684620320797
  0
3DFACE
  8
0
 10
-51.210121154785156
 20
40.000030517578125
 30
0.004997684620320797
 11
-90.0000228881836
 21
40.00001525878906
 31
0.004997684620320797
 12
-90.00001525878906
 22
20.000015258789062
 32
0.004997684620320797
 13
-90.00001525878906
 23
20.000015258789062
 33
0.004997684620320797
  0
3DFACE
  8
0
 10
-90.00001525878906
 20
20.000015258789062
 30
0.004997684620320797
 11
-101.70648193359375
 21
20.0
 31
0.004997684620320797
 12
-101.70646667480469
 22
0.0
 32
0.004997684620320797
 13
-101.70646667480469
 23
0.0
 33
0.004997684620320797
  0
3DFACE
  8
0
 10
-101.70646667480469
 20
0.0
 30
0.004997684620320797
 11
-26.71009063720703
 21
3.0517578125e-05
 31
0.004997684620320797
 12
-41.210140228271484
 22
19.444473266601562
 32
0.004997684620320797
 13
-41.210140228271484
 23
19.444473266601562
 33
0.004997684620320797
  0
3DFACE
  8
0
 10
-51.210113525390625
 20
19.444473266601562
 30
0.004997684620320797
 11
-51.210121154785156
 21
40.000030517578125
 31
0.004997684620320797
 12
-90.00001525878906
 22
20.000015258789062
 32
0.004997684620320797
 13
-90.00001525878906
 23
20.000015258789062
 33
0.004997684620320797
  0
3DFACE
  8
0
 10
-101.70646667480469
 20
0.0
 30
0.004997684620320797
 11
-41.210140228271484
 21
19.444473266601562
 31
0.004997684620320797
 12
-51.210113525390625
 22
19.444473266601562
 32
0.004997684620320797
 13
-51.210113525390625
 23
19.444473266601562
 33
0.004997684620320797
  0
3DFACE
  8
0
 10
-101.70646667480469
 20
0.0
 30
0.004997684620320797
 11
-51.210113525390625
 21
19.444473266601562
 31
0.004997684620320797
 12
-90.00001525878906
 22
20.000015258789062
 32
0.004997684620320797
 13
-90.00001525878906
 23
20.000015258789062
 33
0.004997684620320797
  0
3DFACE
  8
0
 10
0.0
 20
3.0517578125e-05
 30
0.004997684620320797
 11
-1.52587890625e-05
 21
40.00004577636719
 31
0.004997684620320797
 12
-1.52587890625e-05
 22
40.000038146972656
 32
0.004997684620320797
 13
-1.52587890625e-05
 23
40.000038146972656
 33
0.004997684620320797
  0
3DFACE
  8
0
 10
0.0
 20
3.0517578125e-05
 30
0.004997684620320797
 11
-1.52587890625e-05
 21
40.000038146972656
 31
0.004997684620320797
 12
0.0
 22
3.0517578125e-05
 32
0.004997684620320797
 13
0.0
 23
3.0517578125e-05
 33
0.004997684620320797
  0
3DFACE
  8
0
 10
-41.21013641357422
 20
19.444473266601562
 30
0.004997684620320797
 11
-51.210113525390625
 21
19.444473266601562
 31
0.004997684620320797
 12
-51.210113525390625
 22
19.444473266601562
 32
0.004997684620320797
 13
-51.210113525390625
 23
19.444473266601562
 33
0.004997684620320797
  0
3DFACE
  8
0
 10
-41.21013641357422
 20
19.444473266601562
 30
0.004997684620320797
 11
-51.210113525390625
 21
19.444473266601562
 31
0.004997684620320797
 12
-41.210140228271484
 22
19.444473266601562
 32
0.004997684620320797
 13
-41.210140228271484
 23
19.444473266601562
 33
0.004997684620320797
  0
3DFACE
  8
0
 10
-25.710105895996094
 20
3.0517578125e-05
 30
0.004997684620320797
 11
0.0
 21
3.0517578125e-05
 31
0.004997684620320797
 12
0.0
 22
3.0517578125e-05
 32
0.004997684620320797
 13
0.0
 23
3.0517578125e-05
 33
0.004997684620320797
  0
3DFACE
  8
0
 10
-25.710105895996094
 20
3.0517578125e-05
 30
0.004997684620320797
 11
0.0
 21
3.0517578125e-05
 31
0.004997684620320797
 12
-25.710105895996094
 22
3.0517578125e-05
 32
0.004997684620320797
 13
-25.710105895996094
 23
3.0517578125e-05
 33
0.004997684620320797
  0
3DFACE
  8
0
 10
-41.21014404296875
 20
40.000030517578125
 30
0.004997684620320797
 11
-41.21013641357422
 21
19.444473266601562
 31
0.004997684620320797
 12
-41.210140228271484
 22
19.444473266601562
 32
0.004997684620320797
 13
-41.210140228271484
 23
19.444473266601562
 33
0.004997684620320797
  0
3DFACE
  8
0
 10
-41.21014404296875
 20
40.000030517578125
 30
0.004997684620320797
 11
-41.210140228271484
 21
19.444473266601562
 31
0.004997684620320797
 12
-41.210147857666016
 22
40.000030517578125
 32
0.004997684620320797
 13
-41.210147857666016
 23
40.000030517578125
 33
0.004997684620320797
  0
3DFACE
  8
0
 10
-101.70648193359375
 20
40.00001525878906
 30
0.004997684620320797
 11
-110.0000228881836
 21
40.0
 31
0.004997684620320797
 12
-110.0000228881836
 22
40.0
 32
0.004997684620320797
 13
-110.0000228881836
 23
40.0
 33
0.004997684620320797
  0
3DFACE
  8
0
 10
-101.70648193359375
 20
40.00001525878906
 30
0.004997684620320797
 11
-110.0000228881836
 21
40.0
 31
0.004997684620320797
 12
-101.70648193359375
 22
40.00001525878906
 32
0.004997684620320797
 13
-101.70648193359375
 23
40.00001525878906
 33
0.004997684620320797
  0
3DFACE
  8
0
 10
-51.210113525390625
 20
19.444473266601562
 30
0.004997684620320797
 11
-51.21011734008789
 21
40.000030517578125
 31
0.004997684620320797
 12
-51.210121154785156
 22
40.000030517578125
 32
0.004997684620320797
 13
-51.210121154785156
 23
40.000030517578125
 33
0.004997684620320797
  0
3DFACE
  8
0
 10
-51.210113525390625
 20
19.444473266601562
 30
0.004997684620320797
 11
-51.210121154785156
 21
40.000030517578125
 31
0.004997684620320797
 12
-51.210113525390625
 22
19.444473266601562
 32
0.004997684620320797
 13
-51.210113525390625
 23
19.444473266601562
 33
0.004997684620320797
  0
3DFACE
  8
0
 10
-1.52587890625e-05
 20
40.00004577636719
 30
0.004997684620320797
 11
-25.710132598876953
 21
40.000030517578125
 31
0.004997684620320797
 12
-25.710132598876953
 22
40.000030517578125
 32
0.004997684620320797
 13
-25.710132598876953
 23
40.000030517578125
 33
0.004997684620320797
  0
3DFACE
  8
0
 10
-1.52587890625e-05
 20
40.00004577636719
 30
0.004997684620320797
 11
-25.710132598876953
 21
40.000030517578125
 31
0.004997684620320797
 12
-1.52587890625e-05
 22
40.000038146972656
 32
0.004997684620320797
 13
-1.52587890625e-05
 23
40.000038146972656
 33
0.004997684620320797
  0
3DFACE
  8
0
 10
-110.0000228881836
 20
40.0
 30
0.004997684620320797
 11
-110.00000762939453
 21
0.0
 31
0.004997684620320797
 12
-110.00000762939453
 22
0.0
 32
0.004997684620320797
 13
-110.00000762939453
 23
0.0
 33
0.004997684620320797
  0
3DFACE
  8
0
 10
-110.0000228881836
 20
40.0
 30
0.004997684620320797
 11
-110.00000762939453
 21
0.0
 31
0.004997684620320797
 12
-110.0000228881836
 22
40.0
 32
0.004997684620320797
 13
-110.0000228881836
 23
40.0
 33
0.004997684620320797
  0
3DFACE
  8
0
 10
-101.70648193359375
 20
20.00000762939453
 30
0.004997684620320797
 11
-101.70648193359375
 21
40.00001525878906
 31
0.004997684620320797
 12
-101.70648193359375
 22
40.00001525878906
 32
0.004997684620320797
 13
-101.70648193359375
 23
40.00001525878906
 33
0.004997684620320797
  0
3DFACE
  8
0
 10
-101.70648193359375
 20
20.00000762939453
 30
0.004997684620320797
 11
-101.70648193359375
 21
40.00001525878906
 31
0.004997684620320797
 12
-101.70648193359375
 22
20.0
 32
0.004997684620320797
 13
-101.70648193359375
 23
20.0
 33
0.004997684620320797
  0
3DFACE
  8
0
 10
-26.710121154785156
 20
40.000030517578125
 30
0.004997684620320797
 11
-41.21014404296875
 21
40.000030517578125
 31
0.004997684620320797
 12
-41.210147857666016
 22
40.000030517578125
 32
0.004997684620320797
 13
-41.210147857666016
 23
40.000030517578125
 33
0.004997684620320797
  0
3DFACE
  8
0
 10
-26.710121154785156
 20
40.000030517578125
 30
0.004997684620320797
 11
-41.210147857666016
 21
40.000030517578125
 31
0.004997684620320797
 12
-26.710121154785156
 22
40.000030517578125
 32
0.004997684620320797
 13
-26.710121154785156
 23
40.000030517578125
 33
0.004997684620320797
  0
3DFACE
  8
0
 10
-90.00001525878906
 20
40.00001525878906
 30
0.004997684620320797
 11
-90.00001525878906
 21
20.000015258789062
 31
0.004997684620320797
 12
-90.00001525878906
 22
20.000015258789062
 32
0.004997684620320797
 13
-90.00001525878906
 23
20.000015258789062
 33
0.004997684620320797
  0
3DFACE
  8
0
 10
-90.00001525878906
 20
40.00001525878906
 30
0.004997684620320797
 11
-90.00001525878906
 21
20.000015258789062
 31
0.004997684620320797
 12
-90.0000228881836
 22
40.00001525878906
 32
0.004997684620320797
 13
-90.0000228881836
 23
40.00001525878906
 33
0.004997684620320797
  0
3DFACE
  8
0
 10
-90.00001525878906
 20
20.000015258789062
 30
0.004997684620320797
 11
-101.70648193359375
 21
20.00000762939453
 31
0.004997684620320797
 12
-101.70648193359375
 22
20.0
 32
0.004997684620320797
 13
-101.70648193359375
 23
20.0
 33
0.004997684620320797
  0
3DFACE
  8
0
 10
-90.00001525878906
 20
20.000015258789062
 30
0.004997684620320797
 11
-101.70648193359375
 21
20.0
 31
0.004997684620320797
 12
-90.00001525878906
 22
20.000015258789062
 32
0.004997684620320797
 13
-90.00001525878906
 23
20.000015258789062
 33
0.004997684620320797
  0
3DFACE
  8
0
 10
-51.21011734008789
 20
40.000030517578125
 30
0.004997684620320797
 11
-90.00001525878906
 21
40.00001525878906
 31
0.004997684620320797
 12
-90.0000228881836
 22
40.00001525878906
 32
0.004997684620320797
 13
-90.0000228881836
 23
40.00001525878906
 33
0.004997684620320797
  0
3DFACE
  8
0
 10
-51.21011734008789
 20
40.000030517578125
 30
0.004997684620320797
 11
-90.0000228881836
 21
40.00001525878906
 31
0.004997684620320797
 12
-51.210121154785156
 22
40.000030517578125
 32
0.004997684620320797
 13
-51.210121154785156
 23
40.000030517578125
 33
0.004997684620320797
  0
3DFACE
  8
0
 10
-25.710132598876953
 20
40.000030517578125
 30
0.004997684620320797
 11
-25.710105895996094
 21
3.0517578125e-05
 31
0.004997684620320797
 12
-25.710105895996094
 22
3.0517578125e-05
 32
0.004997684620320797
 13
-25.710105895996094
 23
3.0517578125e-05
 33
0.004997684620320797
  0
3DFACE
  8
0
 10
-25.710132598876953
 20
40.000030517578125
 30
0.004997684620320797
 11
-25.710105895996094
 21
3.0517578125e-05
 31
0.004997684620320797
 12
-25.710132598876953
 22
40.000030517578125
 32
0.004997684620320797
 13
-25.710132598876953
 23
40.000030517578125
 33
0.004997684620320797
  0
3DFACE
  8
0
 10
-26.71009063720703
 20
3.0517578125e-05
 30
0.004997684620320797
 11
-26.710121154785156
 21
40.000030517578125
 31
0.004997684620320797
 12
-26.710121154785156
 22
40.000030517578125
 32
0.004997684620320797
 13
-26.710121154785156
 23
40.000030517578125
 33
0.004997684620320797
  0
3DFACE
  8
0
 10
-26.71009063720703
 20
3.0517578125e-05
 30
0.004997684620320797
 11
-26.710121154785156
 21
40.000030517578125
 31
0.004997684620320797
 12
-26.71009063720703
 22
3.0517578125e-05
 32
0.004997684620320797
 13
-26.71009063720703
 23
3.0517578125e-05
 33
0.004997684620320797
  0
3DFACE
  8
0
 10
-90.0
 20
0.0
 30
0.004997684620320797
 11
-51.21009063720703
 21
3.0517578125e-05
 31
0.004997684620320797
 12
-41.21010208129883
 22
3.0517578125e-05
 32
0.004997684620320797
 13
-41.21010208129883
 23
3.0517578125e-05
 33
0.004997684620320797
  0
3DFACE
  8
0
 10
-26.71009063720703
 20
3.0517578125e-05
 30
0.004997684620320797
 11
-26.71009063720703
 21
3.0517578125e-05
 31
0.004997684620320797
 12
-41.21010208129883
 22
1.52587890625e-05
 32
0.004997684620320797
 13
-41.21010208129883
 23
1.52587890625e-05
 33
0.004997684620320797
  0
3DFACE
  8
0
 10
-90.0
 20
0.0
 30
0.004997684620320797
 11
-41.21010208129883
 21
3.0517578125e-05
 31
0.004997684620320797
 12
-26.71009063720703
 22
3.0517578125e-05
 32
0.004997684620320797
 13
-26.71009063720703
 23
3.0517578125e-05
 33
0.004997684620320797
  0
3DFACE
  8
0
 10
-26.71009063720703
 20
3.0517578125e-05
 30
0.004997684620320797
 11
-41.21010208129883
 21
1.52587890625e-05
 31
0.004997684620320797
 12
-51.21009063720703
 22
1.52587890625e-05
 32
0.004997684620320797
 13
-51.21009063720703
 23
1.52587890625e-05
 33
0.004997684620320797
  0
3DFACE
  8
0
 10
-90.0
 20
0.0
 30
0.004997684620320797
 11
-26.71009063720703
 21
3.0517578125e-05
 31
0.004997684620320797
 12
-51.21009063720703
 22
1.52587890625e-05
 32
0.004997684620320797
 13
-51.21009063720703
 23
1.52587890625e-05
 33
0.004997684620320797
  0
3DFACE
  8
0
 10
-90.0
 20
0.0
 30
0.004997684620320797
 11
-51.21009063720703
 21
1.52587890625e-05
 31
0.004997684620320797
 12
-90.0
 22
0.0
 32
0.004997684620320797
 13
-90.0
 23
0.0
 33
0.004997684620320797
  0
3DFACE
  8
0
 10
-101.70646667480469
 20
0.0
 30
0.004997684620320797
 11
-110.00000762939453
 21
0.0
 31
0.004997684620320797
 12
-110.00000762939453
 22
0.0
 32
0.004997684620320797
 13
-110.00000762939453
 23
0.0
 33
0.004997684620320797
  0
3DFACE
  8
0
 10
-101.70646667480469
 20
0.0
 30
0.004997684620320797
 11
-110.00000762939453
 21
0.0
 31
0.004997684620320797
 12
-101.70646667480469
 22
0.0
 32
0.004997684620320797
 13
-101.70646667480469
 23
0.0
 33
0.004997684620320797
  0
3DFACE
  8
0
 10
-101.70646667480469
 20
0.0
 30
0.004997684620320797
 11
-101.70646667480469
 21
0.0
 31
0.004997684620320797
 12
-90.0
 22
0.0
 32
0.004997684620320797
 13
-90.0
 23
0.0
 33
0.004997684620320797
  0
3DFACE
  8
0
 10
-90.0
 20
0.0
 30
0.004997684620320797
 11
-101.70646667480469
 21
0.0
 31
0.004997684620320797
 12
-90.0
 22
0.0
 32
0.004997684620320797
 13
-90.0
 23
0.0
 33
0.004997684620320797
  0
3DFACE
  8
0
 10
-3.0517578125e-05
 20
200.00003051757812
 30
0.004997684620320797
 11
-3.0517578125e-05
 21
160.00003051757812
 31
0.004997684620320797
 12
-19.403465270996094
 22
160.00003051757812
 32
0.004997684620320797
 13
-19.403465270996094
 23
160.00003051757812
 33
0.004997684620320797
  0
3DFACE
  8
0
 10
-3.0517578125e-05
 20
200.00003051757812
 30
0.004997684620320797
 11
-19.403465270996094
 21
160.00003051757812
 31
0.004997684620320797
 12
-29.403472900390625
 22
160.00003051757812
 32
0.004997684620320797
 13
-29.403472900390625
 23
160.00003051757812
 33
0.004997684620320797
  0
3DFACE
  8
0
 10
-19.403465270996094
 20
179.44447326660156
 30
0.004997684620320797
 11
-19.403465270996094
 21
200.00003051757812
 31
0.004997684620320797
 12
-3.0517578125e-05
 22
200.00003051757812
 32
0.004997684620320797
 13
-3.0517578125e-05
 23
200.00003051757812
 33
0.004997684620320797
  0
3DFACE
  8
0
 10
-50.52510452270508
 20
200.00003051757812
 30
0.004997684620320797
 11
-29.403472900390625
 21
200.00003051757812
 31
0.004997684620320797
 12
-29.403472900390625
 22
179.44447326660156
 32
0.004997684620320797
 13
-29.403472900390625
 23
179.44447326660156
 33
0.004997684620320797
  0
3DFACE
  8
0
 10
-19.403465270996094
 20
179.44447326660156
 30
0.004997684620320797
 11
-3.0517578125e-05
 21
200.00003051757812
 31
0.004997684620320797
 12
-29.403472900390625
 22
160.00003051757812
 32
0.004997684620320797
 13
-29.403472900390625
 23
160.00003051757812
 33
0.004997684620320797
  0
3DFACE
  8
0
 10
-50.52510452270508
 20
170.00003051757812
 30
0.004997684620320797
 11
-50.52510452270508
 21
200.00003051757812
 31
0.004997684620320797
 12
-29.403472900390625
 22
179.44447326660156
 32
0.004997684620320797
 13
-29.403472900390625
 23
179.44447326660156
 33
0.004997684620320797
  0
3DFACE
  8
0
 10
-29.403472900390625
 20
179.44447326660156
 30
0.004997684620320797
 11
-19.403465270996094
 21
179.44447326660156
 31
0.004997684620320797
 12
-29.403472900390625
 22
160.00003051757812
 32
0.004997684620320797
 13
-29.403472900390625
 23
160.00003051757812
 33
0.004997684620320797
  0
3DFACE
  8
0
 10
-29.403472900390625
 20
179.44447326660156
 30
0.004997684620320797
 11
-29.403472900390625
 21
160.00003051757812
 31
0.004997684620320797
 12
-50.52510070800781
 22
160.00003051757812
 32
0.004997684620320797
 13
-50.52510070800781
 23
160.00003051757812
 33
0.004997684620320797
  0
3DFACE
  8
0
 10
-50.52510452270508
 20
170.00003051757812
 30
0.004997684620320797
 11
-29.403472900390625
 21
179.44447326660156
 31
0.004997684620320797
 12
-50.52510070800781
 22
160.00003051757812
 32
0.004997684620320797
 13
-50.52510070800781
 23
160.00003051757812
 33
0.004997684620320797
  0
3DFACE
  8
0
 10
-50.52510452270508
 20
170.00003051757812
 30
0.004997684620320797
 11
-50.52510070800781
 21
160.00003051757812
 31
0.004997684620320797
 12
-58.02510070800781
 22
160.00003051757812
 32
0.004997684620320797
 13
-58.02510070800781
 23
160.00003051757812
 33
0.004997684620320797
  0
3DFACE
  8
0
 10
-81.21455383300781
 20
200.00003051757812
 30
0.004997684620320797
 11
-58.025108337402344
 21
200.00003051757812
 31
0.004997684620320797
 12
-58.025108337402344
 22
170.00003051757812
 32
0.004997684620320797
 13
-58.025108337402344
 23
170.00003051757812
 33
0.004997684620320797
  0
3DFACE
  8
0
 10
-58.025108337402344
 20
170.00003051757812
 30
0.004997684620320797
 11
-50.52510452270508
 21
170.00003051757812
 31
0.004997684620320797
 12
-58.02510070800781
 22
160.00003051757812
 32
0.004997684620320797
 13
-58.02510070800781
 23
160.00003051757812
 33
0.004997684620320797
  0
3DFACE
  8
0
 10
-58.025108337402344
 20
170.00003051757812
 30
0.004997684620320797
 11
-58.02510070800781
 21
160.00003051757812
 31
0.004997684620320797
 12
-81.21455383300781
 22
160.00003051757812
 32
0.004997684620320797
 13
-81.21455383300781
 23
160.00003051757812
 33
0.004997684620320797
  0
3DFACE
  8
0
 10
-81.21455383300781
 20
181.44447326660156
 30
0.004997684620320797
 11
-81.21455383300781
 21
200.00003051757812
 31
0.004997684620320797
 12
-58.025108337402344
 22
170.00003051757812
 32
0.004997684620320797
 13
-58.025108337402344
 23
170.00003051757812
 33
0.004997684620320797
  0
3DFACE
  8
0
 10
-120.55555725097656
 20
200.00003051757812
 30
0.004997684620320797
 11
-96.46245574951172
 21
200.00003051757812
 31
0.004997684620320797
 12
-96.46245574951172
 22
181.44447326660156
 32
0.004997684620320797
 13
-96.46245574951172
 23
181.44447326660156
 33
0.004997684620320797
  0
3DFACE
  8
0
 10
-96.46245574951172
 20
181.44447326660156
 30
0.004997684620320797
 11
-81.21455383300781
 21
181.44447326660156
 31
0.004997684620320797
 12
-58.025108337402344
 22
170.00003051757812
 32
0.004997684620320797
 13
-58.025108337402344
 23
170.00003051757812
 33
0.004997684620320797
  0
3DFACE
  8
0
 10
-58.025108337402344
 20
170.00003051757812
 30
0.004997684620320797
 11
-81.21455383300781
 21
160.00003051757812
 31
0.004997684620320797
 12
-96.46245574951172
 22
160.00003051757812
 32
0.004997684620320797
 13
-96.46245574951172
 23
160.00003051757812
 33
0.004997684620320797
  0
3DFACE
  8
0
 10
-120.55555725097656
 20
160.00003051757812
 30
0.004997684620320797
 11
-145.0
 21
160.00003051757812
 31
0.004997684620320797
 12
-145.0
 22
200.00003051757812
 32
0.004997684620320797
 13
-145.0
 23
200.00003051757812
 33
0.004997684620320797
  0
3DFACE
  8
0
 10
-58.025108337402344
 20
170.00003051757812
 30
0.004997684620320797
 11
-96.46245574951172
 21
160.00003051757812
 31
0.004997684620320797
 12
-120.55555725097656
 22
160.00003051757812
 32
0.004997684620320797
 13
-120.55555725097656
 23
160.00003051757812
 33
0.004997684620320797
  0
3DFACE
  8
0
 10
-145.0
 20
200.00003051757812
 30
0.004997684620320797
 11
-120.55555725097656
 21
200.00003051757812
 31
0.004997684620320797
 12
-96.46245574951172
 22
181.44447326660156
 32
0.004997684620320797
 13
-96.46245574951172
 23
181.44447326660156
 33
0.004997684620320797
  0
3DFACE
  8
0
 10
-96.46245574951172
 20
181.44447326660156
 30
0.004997684620320797
 11
-58.025108337402344
 21
170.00003051757812
 31
0.004997684620320797
 12
-120.55555725097656
 22
160.00003051757812
 32
0.004997684620320797
 13
-120.55555725097656
 23
160.00003051757812
 33
0.004997684620320797
  0
3DFACE
  8
0
 10
-120.55555725097656
 20
160.00003051757812
 30
0.004997684620320797
 11
-145.0
 21
200.00003051757812
 31
0.004997684620320797
 12
-96.46245574951172
 22
181.44447326660156
 32
0.004997684620320797
 13
-96.46245574951172
 23
181.44447326660156
 33
0.004997684620320797
  0
3DFACE
  8
0
 10
-19.403465270996094
 20
160.00003051757812
 30
0.004997684620320797
 11
-3.0517578125e-05
 21
160.00003051757812
 31
0.004997684620320797
 12
-3.0517578125e-05
 22
200.00003051757812
 32
0.004997684620320797
 13
-3.0517578125e-05
 23
200.00003051757812
 33
0.004997684620320797
  0
3DFACE
  8
0
 10
-3.0517578125e-05
 20
200.00003051757812
 30
0.004997684620320797
 11
-19.403465270996094
 21
200.00003051757812
 31
0.004997684620320797
 12
-19.403465270996094
 22
179.44447326660156
 32
0.004997684620320797
 13
-19.403465270996094
 23
179.44447326660156
 33
0.004997684620320797
  0
3DFACE
  8
0
 10
-29.403472900390625
 20
179.44447326660156
 30
0.004997684620320797
 11
-29.403472900390625
 21
200.00003051757812
 31
0.004997684620320797
 12
-50.525108337402344
 22
200.00003051757812
 32
0.004997684620320797
 13
-50.525108337402344
 23
200.00003051757812
 33
0.004997684620320797
  0
3DFACE
  8
0
 10
-19.403465270996094
 20
160.00003051757812
 30
0.004997684620320797
 11
-3.0517578125e-05
 21
200.00003051757812
 31
0.004997684620320797
 12
-19.403465270996094
 22
179.44447326660156
 32
0.004997684620320797
 13
-19.403465270996094
 23
179.44447326660156
 33
0.004997684620320797
  0
3DFACE
  8
0
 10
-29.403472900390625
 20
179.44447326660156
 30
0.004997684620320797
 11
-50.525108337402344
 21
200.00003051757812
 31
0.004997684620320797
 12
-50.52510452270508
 22
170.00003051757812
 32
0.004997684620320797
 13
-50.52510452270508
 23
170.00003051757812
 33
0.004997684620320797
  0
3DFACE
  8
0
 10
-19.403465270996094
 20
160.00003051757812
 30
0.004997684620320797
 11
-19.403465270996094
 21
179.44447326660156
 31
0.004997684620320797
 12
-29.403472900390625
 22
179.44447326660156
 32
0.004997684620320797
 13
-29.403472900390625
 23
179.44447326660156
 33
0.004997684620320797
  0
3DFACE
  8
0
 10
-29.403472900390625
 20
160.00003051757812
 30
0.004997684620320797
 11
-19.403465270996094
 21
160.00003051757812
 31
0.004997684620320797
 12
-29.403472900390625
 22
179.44447326660156
 32
0.004997684620320797
 13
-29.403472900390625
 23
179.44447326660156
 33
0.004997684620320797
  0
3DFACE
  8
0
 10
-29.403472900390625
 20
160.00003051757812
 30
0.004997684620320797
 11
-29.403472900390625
 21
179.44447326660156
 31
0.004997684620320797
 12
-50.52510452270508
 22
170.00003051757812
 32
0.004997684620320797
 13
-50.52510452270508
 23
170.00003051757812
 33
0.004997684620320797
  0
3DFACE
  8
0
 10
-50.52510070800781
 20
160.00003051757812
 30
0.004997684620320797
 11
-29.403472900390625
 21
160.00003051757812
 31
0.004997684620320797
 12
-50.52510452270508
 22
170.00003051757812
 32
0.004997684620320797
 13
-50.52510452270508
 23
170.00003051757812
 33
0.004997684620320797
  0
3DFACE
  8
0
 10
-58.025108337402344
 20
170.00003051757812
 30
0.004997684620320797
 11
-58.025108337402344
 21
200.00003051757812
 31
0.004997684620320797
 12
-81.21456909179688
 22
200.00003051757812
 32
0.004997684620320797
 13
-81.21456909179688
 23
200.00003051757812
 33
0.004997684620320797
  0
3DFACE
  8
0
 10
-50.52510070800781
 20
160.00003051757812
 30
0.004997684620320797
 11
-50.52510452270508
 21
170.00003051757812
 31
0.004997684620320797
 12
-58.025108337402344
 22
170.00003051757812
 32
0.004997684620320797
 13
-58.025108337402344
 23
170.00003051757812
 33
0.004997684620320797
  0
3DFACE
  8
0
 10
-58.02510070800781
 20
160.00003051757812
 30
0.004997684620320797
 11
-50.52510070800781
 21
160.00003051757812
 31
0.004997684620320797
 12
-58.025108337402344
 22
170.00003051757812
 32
0.004997684620320797
 13
-58.025108337402344
 23
170.00003051757812
 33
0.004997684620320797
  0
3DFACE
  8
0
 10
-58.025108337402344
 20
170.00003051757812
 30
0.004997684620320797
 11
-81.21456909179688
 21
200.00003051757812
 31
0.004997684620320797
 12
-81.21456909179688
 22
181.4444580078125
 32
0.004997684620320797
 13
-81.21456909179688
 23
181.4444580078125
 33
0.004997684620320797
  0
3DFACE
  8
0
 10
-96.46245574951172
 20
181.4444580078125
 30
0.004997684620320797
 11
-96.46245574951172
 21
200.00003051757812
 31
0.004997684620320797
 12
-120.55555725097656
 22
200.00003051757812
 32
0.004997684620320797
 13
-120.55555725097656
 23
200.00003051757812
 33
0.004997684620320797
  0
3DFACE
  8
0
 10
-58.025108337402344
 20
170.00003051757812
 30
0.004997684620320797
 11
-81.21456909179688
 21
181.4444580078125
 31
0.004997684620320797
 12
-96.46245574951172
 22
181.4444580078125
 32
0.004997684620320797
 13
-96.46245574951172
 23
181.4444580078125
 33
0.004997684620320797
  0
3DFACE
  8
0
 10
-81.21455383300781
 20
160.00003051757812
 30
0.004997684620320797
 11
-58.02510070800781
 21
160.00003051757812
 31
0.004997684620320797
 12
-58.025108337402344
 22
170.00003051757812
 32
0.004997684620320797
 13
-58.025108337402344
 23
170.00003051757812
 33
0.004997684620320797
  0
3DFACE
  8
0
 10
-96.46245574951172
 20
160.00003051757812
 30
0.004997684620320797
 11
-81.21455383300781
 21
160.00003051757812
 31
0.004997684620320797
 12
-58.025108337402344
 22
170.00003051757812
 32
0.004997684620320797
 13
-58.025108337402344
 23
170.00003051757812
 33
0.004997684620320797
  0
3DFACE
  8
0
 10
-96.46245574951172
 20
181.4444580078125
 30
0.004997684620320797
 11
-120.55555725097656
 21
200.00003051757812
 31
0.004997684620320797
 12
-145.0
 22
200.00003051757812
 32
0.004997684620320797
 13
-145.0
 23
200.00003051757812
 33
0.004997684620320797
  0
3DFACE
  8
0
 10
-96.46245574951172
 20
160.00003051757812
 30
0.004997684620320797
 11
-58.025108337402344
 21
170.00003051757812
 31
0.004997684620320797
 12
-96.46245574951172
 22
181.4444580078125
 32
0.004997684620320797
 13
-96.46245574951172
 23
181.4444580078125
 33
0.004997684620320797
  0
3DFACE
  8
0
 10
-145.0
 20
200.00003051757812
 30
0.004997684620320797
 11
-145.0
 21
160.00003051757812
 31
0.004997684620320797
 12
-120.55555725097656
 22
160.00003051757812
 32
0.004997684620320797
 13
-120.55555725097656
 23
160.00003051757812
 33
0.004997684620320797
  0
3DFACE
  8
0
 10
-120.55555725097656
 20
160.00003051757812
 30
0.004997684620320797
 11
-96.46245574951172
 21
160.00003051757812
 31
0.004997684620320797
 12
-96.46245574951172
 22
181.4444580078125
 32
0.004997684620320797
 13
-96.46245574951172
 23
181.4444580078125
 33
0.004997684620320797
  0
3DFACE
  8
0
 10
-96.46245574951172
 20
181.4444580078125
 30
0.004997684620320797
 11
-145.0
 21
200.00003051757812
 31
0.004997684620320797
 12
-120.55555725097656
 22
160.00003051757812
 32
0.004997684620320797
 13
-120.55555725097656
 23
160.00003051757812
 33
0.004997684620320797
  0
3DFACE
  8
0
 10
-81.21455383300781
 20
200.00003051757812
 30
0.004997684620320797
 11
-81.21455383300781
 21
181.44447326660156
 31
0.004997684620320797
 12
-81.21456909179688
 22
181.4444580078125
 32
0.004997684620320797
 13
-81.21456909179688
 23
181.4444580078125
 33
0.004997684620320797
  0
3DFACE
  8
0
 10
-81.21455383300781
 20
200.00003051757812
 30
0.004997684620320797
 11
-81.21456909179688
 21
181.4444580078125
 31
0.004997684620320797
 12
-81.21456909179688
 22
200.00003051757812
 32
0.004997684620320797
 13
-81.21456909179688
 23
200.00003051757812
 33
0.004997684620320797
  0
3DFACE
  8
0
 10
-3.0517578125e-05
 20
200.00003051757812
 30
0.004997684620320797
 11
-19.403465270996094
 21
200.00003051757812
 31
0.004997684620320797
 12
-19.403465270996094
 22
200.00003051757812
 32
0.004997684620320797
 13
-19.403465270996094
 23
200.00003051757812
 33
0.004997684620320797
  0
3DFACE
  8
0
 10
-3.0517578125e-05
 20
200.00003051757812
 30
0.004997684620320797
 11
-19.403465270996094
 21
200.00003051757812
 31
0.004997684620320797
 12
-3.0517578125e-05
 22
200.00003051757812
 32
0.004997684620320797
 13
-3.0517578125e-05
 23
200.00003051757812
 33
0.004997684620320797
  0
3DFACE
  8
0
 10
-145.0
 20
160.00003051757812
 30
0.004997684620320797
 11
-120.55555725097656
 21
160.00003051757812
 31
0.004997684620320797
 12
-120.55555725097656
 22
160.00003051757812
 32
0.004997684620320797
 13
-120.55555725097656
 23
160.00003051757812
 33
0.004997684620320797
  0
3DFACE
  8
0
 10
-145.0
 20
160.00003051757812
 30
0.004997684620320797
 11
-120.55555725097656
 21
160.00003051757812
 31
0.004997684620320797
 12
-145.0
 22
160.00003051757812
 32
0.004997684620320797
 13
-145.0
 23
160.00003051757812
 33
0.004997684620320797
  0
3DFACE
  8
0
 10
-145.0
 20
200.00003051757812
 30
0.004997684620320797
 11
-145.0
 21
160.00003051757812
 31
0.004997684620320797
 12
-145.0
 22
160.00003051757812
 32
0.004997684620320797
 13
-145.0
 23
160.00003051757812
 33
0.004997684620320797
  0
3DFACE
  8
0
 10
-145.0
 20
200.00003051757812
 30
0.004997684620320797
 11
-145.0
 21
160.00003051757812
 31
0.004997684620320797
 12
-145.0
 22
200.00003051757812
 32
0.004997684620320797
 13
-145.0
 23
200.00003051757812
 33
0.004997684620320797
  0
3DFACE
  8
0
 10
-29.403472900390625
 20
200.00003051757812
 30
0.004997684620320797
 11
-50.52510452270508
 21
200.00003051757812
 31
0.004997684620320797
 12
-50.525108337402344
 22
200.00003051757812
 32
0.004997684620320797
 13
-50.525108337402344
 23
200.00003051757812
 33
0.004997684620320797
  0
3DFACE
  8
0
 10
-29.403472900390625
 20
200.00003051757812
 30
0.004997684620320797
 11
-50.525108337402344
 21
200.00003051757812
 31
0.004997684620320797
 12
-29.403472900390625
 22
200.00003051757812
 32
0.004997684620320797
 13
-29.403472900390625
 23
200.00003051757812
 33
0.004997684620320797
  0
3DFACE
  8
0
 10
-120.55555725097656
 20
160.00003051757812
 30
0.004997684620320797
 11
-96.46245574951172
 21
160.00003051757812
 31
0.004997684620320797
 12
-96.46245574951172
 22
160.00003051757812
 32
0.004997684620320797
 13
-96.46245574951172
 23
160.00003051757812
 33
0.004997684620320797
  0
3DFACE
  8
0
 10
-120.55555725097656
 20
160.00003051757812
 30
0.004997684620320797
 11
-96.46245574951172
 21
160.00003051757812
 31
0.004997684620320797
 12
-120.55555725097656
 22
160.00003051757812
 32
0.004997684620320797
 13
-120.55555725097656
 23
160.00003051757812
 33
0.004997684620320797
  0
3DFACE
  8
0
 10
-19.403465270996094
 20
179.44447326660156
 30
0.004997684620320797
 11
-29.403472900390625
 21
179.44447326660156
 31
0.004997684620320797
 12
-29.403472900390625
 22
179.44447326660156
 32
0.004997684620320797
 13
-29.403472900390625
 23
179.44447326660156
 33
0.004997684620320797
  0
3DFACE
  8
0
 10
-19.403465270996094
 20
179.44447326660156
 30
0.004997684620320797
 11
-29.403472900390625
 21
179.44447326660156
 31
0.004997684620320797
 12
-19.403465270996094
 22
179.44447326660156
 32
0.004997684620320797
 13
-19.403465270996094
 23
179.44447326660156
 33
0.004997684620320797
  0
3DFACE
  8
0
 10
-58.025108337402344
 20
200.00003051757812
 30
0.004997684620320797
 11
-81.21455383300781
 21
200.00003051757812
 31
0.004997684620320797
 12
-81.21456909179688
 22
200.00003051757812
 32
0.004997684620320797
 13
-81.21456909179688
 23
200.00003051757812
 33
0.004997684620320797
  0
3DFACE
  8
0
 10
-58.025108337402344
 20
200.00003051757812
 30
0.004997684620320797
 11
-81.21456909179688
 21
200.00003051757812
 31
0.004997684620320797
 12
-58.025108337402344
 22
200.00003051757812
 32
0.004997684620320797
 13
-58.025108337402344
 23
200.00003051757812
 33
0.004997684620320797
  0
3DFACE
  8
0
 10
-96.46245574951172
 20
160.00003051757812
 30
0.004997684620320797
 11
-81.21455383300781
 21
160.00003051757812
 31
0.004997684620320797
 12
-81.21455383300781
 22
160.00003051757812
 32
0.004997684620320797
 13
-81.21455383300781
 23
160.00003051757812
 33
0.004997684620320797
  0
3DFACE
  8
0
 10
-96.46245574951172
 20
160.00003051757812
 30
0.004997684620320797
 11
-81.21455383300781
 21
160.00003051757812
 31
0.004997684620320797
 12
-96.46245574951172
 22
160.00003051757812
 32
0.004997684620320797
 13
-96.46245574951172
 23
160.00003051757812
 33
0.004997684620320797
  0
3DFACE
  8
0
 10
-19.403465270996094
 20
200.00003051757812
 30
0.004997684620320797
 11
-19.403465270996094
 21
179.44447326660156
 31
0.004997684620320797
 12
-19.403465270996094
 22
179.44447326660156
 32
0.004997684620320797
 13
-19.403465270996094
 23
179.44447326660156
 33
0.004997684620320797
  0
3DFACE
  8
0
 10
-19.403465270996094
 20
200.00003051757812
 30
0.004997684620320797
 11
-19.403465270996094
 21
179.44447326660156
 31
0.004997684620320797
 12
-19.403465270996094
 22
200.00003051757812
 32
0.004997684620320797
 13
-19.403465270996094
 23
200.00003051757812
 33
0.004997684620320797
  0
3DFACE
  8
0
 10
-96.46245574951172
 20
200.00003051757812
 30
0.004997684620320797
 11
-120.55555725097656
 21
200.00003051757812
 31
0.004997684620320797
 12
-120.55555725097656
 22
200.00003051757812
 32
0.004997684620320797
 13
-120.55555725097656
 23
200.00003051757812
 33
0.004997684620320797
  0
3DFACE
  8
0
 10
-96.46245574951172
 20
200.00003051757812
 30
0.004997684620320797
 11
-120.55555725097656
 21
200.00003051757812
 31
0.004997684620320797
 12
-96.46245574951172
 22
200.00003051757812
 32
0.004997684620320797
 13
-96.46245574951172
 23
200.00003051757812
 33
0.004997684620320797
  0
3DFACE
  8
0
 10
-81.21455383300781
 20
160.00003051757812
 30
0.004997684620320797
 11
-58.02510070800781
 21
160.00003051757812
 31
0.004997684620320797
 12
-58.02510070800781
 22
160.00003051757812
 32
0.004997684620320797
 13
-58.02510070800781
 23
160.00003051757812
 33
0.004997684620320797
  0
3DFACE
  8
0
 10
-81.21455383300781
 20
160.00003051757812
 30
0.004997684620320797
 11
-58.02510070800781
 21
160.00003051757812
 31
0.004997684620320797
 12
-81.21455383300781
 22
160.00003051757812
 32
0.004997684620320797
 13
-81.21455383300781
 23
160.00003051757812
 33
0.004997684620320797
  0
3DFACE
  8
0
 10
-29.403472900390625
 20
179.44447326660156
 30
0.004997684620320797
 11
-29.403472900390625
 21
200.00003051757812
 31
0.004997684620320797
 12
-29.403472900390625
 22
200.00003051757812
 32
0.004997684620320797
 13
-29.403472900390625
 23
200.00003051757812
 33
0.004997684620320797
  0
3DFACE
  8
0
 10
-29.403472900390625
 20
179.44447326660156
 30
0.004997684620320797
 11
-29.403472900390625
 21
200.00003051757812
 31
0.004997684620320797
 12
-29.403472900390625
 22
179.44447326660156
 32
0.004997684620320797
 13
-29.403472900390625
 23
179.44447326660156
 33
0.004997684620320797
  0
3DFACE
  8
0
 10
-120.55555725097656
 20
200.00003051757812
 30
0.004997684620320797
 11
-145.0
 21
200.00003051757812
 31
0.004997684620320797
 12
-145.0
 22
200.00003051757812
 32
0.004997684620320797
 13
-145.0
 23
200.00003051757812
 33
0.004997684620320797
  0
3DFACE
  8
0
 10
-120.55555725097656
 20
200.00003051757812
 30
0.004997684620320797
 11
-145.0
 21
200.00003051757812
 31
0.004997684620320797
 12
-120.55555725097656
 22
200.00003051757812
 32
0.004997684620320797
 13
-120.55555725097656
 23
200.00003051757812
 33
0.004997684620320797
  0
3DFACE
  8
0
 10
-58.02510070800781
 20
160.00003051757812
 30
0.004997684620320797
 11
-50.52510070800781
 21
160.00003051757812
 31
0.004997684620320797
 12
-50.52510070800781
 22
160.00003051757812
 32
0.004997684620320797
 13
-50.52510070800781
 23
160.00003051757812
 33
0.004997684620320797
  0
3DFACE
  8
0
 10
-58.02510070800781
 20
160.00003051757812
 30
0.004997684620320797
 11
-50.52510070800781
 21
160.00003051757812
 31
0.004997684620320797
 12
-58.02510070800781
 22
160.00003051757812
 32
0.004997684620320797
 13
-58.02510070800781
 23
160.00003051757812
 33
0.004997684620320797
  0
3DFACE
  8
0
 10
-50.52510452270508
 20
200.00003051757812
 30
0.004997684620320797
 11
-50.52510452270508
 21
170.00003051757812
 31
0.004997684620320797
 12
-50.52510452270508
 22
170.00003051757812
 32
0.004997684620320797
 13
-50.52510452270508
 23
170.00003051757812
 33
0.004997684620320797
  0
3DFACE
  8
0
 10
-50.52510452270508
 20
200.00003051757812
 30
0.004997684620320797
 11
-50.52510452270508
 21
170.00003051757812
 31
0.004997684620320797
 12
-50.525108337402344
 22
200.00003051757812
 32
0.004997684620320797
 13
-50.525108337402344
 23
200.00003051757812
 33
0.004997684620320797
  0
3DFACE
  8
0
 10
-96.46245574951172
 20
181.44447326660156
 30
0.004997684620320797
 11
-96.46245574951172
 21
200.00003051757812
 31
0.004997684620320797
 12
-96.46245574951172
 22
200.00003051757812
 32
0.004997684620320797
 13
-96.46245574951172
 23
200.00003051757812
 33
0.004997684620320797
  0
3DFACE
  8
0
 10
-96.46245574951172
 20
181.44447326660156
 30
0.004997684620320797
 11
-96.46245574951172
 21
200.00003051757812
 31
0.004997684620320797
 12
-96.46245574951172
 22
181.4444580078125
 32
0.004997684620320797
 13
-96.46245574951172
 23
181.4444580078125
 33
0.004997684620320797
  0
3DFACE
  8
0
 10
-50.52510070800781
 20
160.00003051757812
 30
0.004997684620320797
 11
-29.403472900390625
 21
160.00003051757812
 31
0.004997684620320797
 12
-29.403472900390625
 22
160.00003051757812
 32
0.004997684620320797
 13
-29.403472900390625
 23
160.00003051757812
 33
0.004997684620320797
  0
3DFACE
  8
0
 10
-50.52510070800781
 20
160.00003051757812
 30
0.004997684620320797
 11
-29.403472900390625
 21
160.00003051757812
 31
0.004997684620320797
 12
-50.52510070800781
 22
160.00003051757812
 32
0.004997684620320797
 13
-50.52510070800781
 23
160.00003051757812
 33
0.004997684620320797
  0
3DFACE
  8
0
 10
-50.52510452270508
 20
170.00003051757812
 30
0.004997684620320797
 11
-58.025108337402344
 21
170.00003051757812
 31
0.004997684620320797
 12
-58.025108337402344
 22
170.00003051757812
 32
0.004997684620320797
 13
-58.025108337402344
 23
170.00003051757812
 33
0.004997684620320797
  0
3DFACE
  8
0
 10
-50.52510452270508
 20
170.00003051757812
 30
0.004997684620320797
 11
-58.025108337402344
 21
170.00003051757812
 31
0.004997684620320797
 12
-50.52510452270508
 22
170.00003051757812
 32
0.004997684620320797
 13
-50.52510452270508
 23
170.00003051757812
 33
0.004997684620320797
  0
3DFACE
  8
0
 10
-19.403465270996094
 20
160.00003051757812
 30
0.004997684620320797
 11
-3.0517578125e-05
 21
160.00003051757812
 31
0.004997684620320797
 12
-3.0517578125e-05
 22
160.00003051757812
 32
0.004997684620320797
 13
-3.0517578125e-05
 23
160.00003051757812
 33
0.004997684620320797
  0
3DFACE
  8
0
 10
-19.403465270996094
 20
160.00003051757812
 30
0.004997684620320797
 11
-3.0517578125e-05
 21
160.00003051757812
 31
0.004997684620320797
 12
-19.403465270996094
 22
160.00003051757812
 32
0.004997684620320797
 13
-19.403465270996094
 23
160.00003051757812
 33
0.004997684620320797
  0
3DFACE
  8
0
 10
-58.025108337402344
 20
170.00003051757812
 30
0.004997684620320797
 11
-58.025108337402344
 21
200.00003051757812
 31
0.004997684620320797
 12
-58.025108337402344
 22
200.00003051757812
 32
0.004997684620320797
 13
-58.025108337402344
 23
200.00003051757812
 33
0.004997684620320797
  0
3DFACE
  8
0
 10
-58.025108337402344
 20
170.00003051757812
 30
0.004997684620320797
 11
-58.025108337402344
 21
200.00003051757812
 31
0.004997684620320797
 12
-58.025108337402344
 22
170.00003051757812
 32
0.004997684620320797
 13
-58.025108337402344
 23
170.00003051757812
 33
0.004997684620320797
  0
3DFACE
  8
0
 10
-29.403472900390625
 20
160.00003051757812
 30
0.004997684620320797
 11
-19.403465270996094
 21
160.00003051757812
 31
0.004997684620320797
 12
-19.403465270996094
 22
160.00003051757812
 32
0.004997684620320797
 13
-19.403465270996094
 23
160.00003051757812
 33
0.004997684620320797
  0
3DFACE
  8
0
 10
-29.403472900390625
 20
160.00003051757812
 30
0.004997684620320797
 11
-19.403465270996094
 21
160.00003051757812
 31
0.004997684620320797
 12
-29.403472900390625
 22
160.00003051757812
 32
0.004997684620320797
 13
-29.403472900390625
 23
160.00003051757812
 33
0.004997684620320797
  0
3DFACE
  8
0
 10
-81.21455383300781
 20
181.44447326660156
 30
0.004997684620320797
 11
-96.46245574951172
 21
181.44447326660156
 31
0.004997684620320797
 12
-96.46245574951172
 22
181.4444580078125
 32
0.004997684620320797
 13
-96.46245574951172
 23
181.4444580078125
 33
0.004997684620320797
  0
3DFACE
  8
0
 10
-81.21455383300781
 20
181.44447326660156
 30
0.004997684620320797
 11
-96.46245574951172
 21
181.4444580078125
 31
0.004997684620320797
 12
-81.21456909179688
 22
181.4444580078125
 32
0.004997684620320797
 13
-81.21456909179688
 23
181.4444580078125
 33
0.004997684620320797
  0
3DFACE
  8
0
 10
-3.0517578125e-05
 20
160.00003051757812
 30
0.004997684620320797
 11
-3.0517578125e-05
 21
200.00003051757812
 31
0.004997684620320797
 12
-3.0517578125e-05
 22
200.00003051757812
 32
0.004997684620320797
 13
-3.0517578125e-05
 23
200.00003051757812
 33
0.004997684620320797
  0
3DFACE
  8
0
 10
-3.0517578125e-05
 20
160.00003051757812
 30
0.004997684620320797
 11
-3.0517578125e-05
 21
200.00003051757812
 31
0.004997684620320797
 12
-3.0517578125e-05
 22
160.00003051757812
 32
0.004997684620320797
 13
-3.0517578125e-05
 23
160.00003051757812
 33
0.004997684620320797
  0
3DFACE
  8
0
 10
-3.814697265625e-06
 20
80.00004577636719
 30
0.004994422663003206
 11
-3.814697265625e-06
 21
40.000038146972656
 31
0.004994422663003206
 12
-19.403453826904297
 22
40.000038146972656
 32
0.004994422663003206
 13
-19.403453826904297
 23
40.000038146972656
 33
0.004994422663003206
  0
3DFACE
  8
0
 10
-3.814697265625e-06
 20
80.00004577636719
 30
0.004994422663003206
 11
-19.403453826904297
 21
40.000038146972656
 31
0.004994422663003206
 12
-29.403461456298828
 22
40.000038146972656
 32
0.004994422663003206
 13
-29.403461456298828
 23
40.000038146972656
 33
0.004994422663003206
  0
3DFACE
  8
0
 10
-19.403453826904297
 20
59.444488525390625
 30
0.004994422663003206
 11
-19.403453826904297
 21
80.00004577636719
 31
0.004994422663003206
 12
-3.814697265625e-06
 22
80.00004577636719
 32
0.004994422663003206
 13
-3.814697265625e-06
 23
80.00004577636719
 33
0.004994422663003206
  0
3DFACE
  8
0
 10
-50.190956115722656
 20
80.00004577636719
 30
0.004994422663003206
 11
-29.403461456298828
 21
80.00004577636719
 31
0.004994422663003206
 12
-29.403461456298828
 22
59.44447326660156
 32
0.004994422663003206
 13
-29.403461456298828
 23
59.44447326660156
 33
0.004994422663003206
  0
3DFACE
  8
0
 10
-19.403453826904297
 20
59.444488525390625
 30
0.004994422663003206
 11
-3.814697265625e-06
 21
80.00004577636719
 31
0.004994422663003206
 12
-29.403461456298828
 22
40.000038146972656
 32
0.004994422663003206
 13
-29.403461456298828
 23
40.000038146972656
 33
0.004994422663003206
  0
3DFACE
  8
0
 10
-50.190956115722656
 20
50.00004577636719
 30
0.004994422663003206
 11
-50.190956115722656
 21
80.00004577636719
 31
0.004994422663003206
 12
-29.403461456298828
 22
59.44447326660156
 32
0.004994422663003206
 13
-29.403461456298828
 23
59.44447326660156
 33
0.004994422663003206
  0
3DFACE
  8
0
 10
-29.403461456298828
 20
59.44447326660156
 30
0.004994422663003206
 11
-19.403453826904297
 21
59.444488525390625
 31
0.004994422663003206
 12
-29.403461456298828
 22
40.000038146972656
 32
0.004994422663003206
 13
-29.403461456298828
 23
40.000038146972656
 33
0.004994422663003206
  0
3DFACE
  8
0
 10
-29.403461456298828
 20
59.44447326660156
 30
0.004994422663003206
 11
-29.403461456298828
 21
40.000038146972656
 31
0.004994422663003206
 12
-50.19095230102539
 22
40.000038146972656
 32
0.004994422663003206
 13
-50.19095230102539
 23
40.000038146972656
 33
0.004994422663003206
  0
3DFACE
  8
0
 10
-50.190956115722656
 20
50.00004577636719
 30
0.004994422663003206
 11
-29.403461456298828
 21
59.44447326660156
 31
0.004994422663003206
 12
-50.19095230102539
 22
40.000038146972656
 32
0.004994422663003206
 13
-50.19095230102539
 23
40.000038146972656
 33
0.004994422663003206
  0
3DFACE
  8
0
 10
-50.190956115722656
 20
50.00004577636719
 30
0.004994422663003206
 11
-50.19095230102539
 21
40.000038146972656
 31
0.004994422663003206
 12
-58.02509307861328
 22
40.000038146972656
 32
0.004994422663003206
 13
-58.02509307861328
 23
40.000038146972656
 33
0.004994422663003206
  0
3DFACE
  8
0
 10
-78.83850860595703
 20
80.00004577636719
 30
0.004994422663003206
 11
-58.02510070800781
 21
80.00004577636719
 31
0.004994422663003206
 12
-58.02510070800781
 22
50.000030517578125
 32
0.004994422663003206
 13
-58.02510070800781
 23
50.000030517578125
 33
0.004994422663003206
  0
3DFACE
  8
0
 10
-58.02510070800781
 20
50.000030517578125
 30
0.004994422663003206
 11
-50.190956115722656
 21
50.00004577636719
 31
0.004994422663003206
 12
-58.02509307861328
 22
40.000038146972656
 32
0.004994422663003206
 13
-58.02509307861328
 23
40.000038146972656
 33
0.004994422663003206
  0
3DFACE
  8
0
 10
-58.02510070800781
 20
50.000030517578125
 30
0.004994422663003206
 11
-58.02509307861328
 21
40.000038146972656
 31
0.004994422663003206
 12
-78.8385009765625
 22
40.000038146972656
 32
0.004994422663003206
 13
-78.8385009765625
 23
40.000038146972656
 33
0.004994422663003206
  0
3DFACE
  8
0
 10
-78.83850860595703
 20
55.444480895996094
 30
0.004994422663003206
 11
-78.83850860595703
 21
80.00004577636719
 31
0.004994422663003206
 12
-58.02510070800781
 22
50.000030517578125
 32
0.004994422663003206
 13
-58.02510070800781
 23
50.000030517578125
 33
0.004994422663003206
  0
3DFACE
  8
0
 10
-120.55555725097656
 20
80.00004577636719
 30
0.004994422663003206
 11
-98.8385009765625
 21
80.00004577636719
 31
0.004994422663003206
 12
-98.8385009765625
 22
55.444480895996094
 32
0.004994422663003206
 13
-98.8385009765625
 23
55.444480895996094
 33
0.004994422663003206
  0
3DFACE
  8
0
 10
-98.8385009765625
 20
55.444480895996094
 30
0.004994422663003206
 11
-78.83850860595703
 21
55.444480895996094
 31
0.004994422663003206
 12
-58.02510070800781
 22
50.000030517578125
 32
0.004994422663003206
 13
-58.02510070800781
 23
50.000030517578125
 33
0.004994422663003206
  0
3DFACE
  8
0
 10
-58.02510070800781
 20
50.000030517578125
 30
0.004994422663003206
 11
-78.8385009765625
 21
40.000038146972656
 31
0.004994422663003206
 12
-98.8385009765625
 22
40.000038146972656
 32
0.004994422663003206
 13
-98.8385009765625
 23
40.000038146972656
 33
0.004994422663003206
  0
3DFACE
  8
0
 10
-120.5555419921875
 20
40.000038146972656
 30
0.004994422663003206
 11
-145.00001525878906
 21
40.000038146972656
 31
0.004994422663003206
 12
-145.00001525878906
 22
80.00003051757812
 32
0.004994422663003206
 13
-145.00001525878906
 23
80.00003051757812
 33
0.004994422663003206
  0
3DFACE
  8
0
 10
-58.02510070800781
 20
50.000030517578125
 30
0.004994422663003206
 11
-98.8385009765625
 21
40.000038146972656
 31
0.004994422663003206
 12
-120.5555419921875
 22
40.000038146972656
 32
0.004994422663003206
 13
-120.5555419921875
 23
40.000038146972656
 33
0.004994422663003206
  0
3DFACE
  8
0
 10
-145.00001525878906
 20
80.00003051757812
 30
0.004994422663003206
 11
-120.55555725097656
 21
80.00004577636719
 31
0.004994422663003206
 12
-98.8385009765625
 22
55.444480895996094
 32
0.004994422663003206
 13
-98.8385009765625
 23
55.444480895996094
 33
0.004994422663003206
  0
3DFACE
  8
0
 10
-98.8385009765625
 20
55.444480895996094
 30
0.004994422663003206
 11
-58.02510070800781
 21
50.000030517578125
 31
0.004994422663003206
 12
-120.5555419921875
 22
40.000038146972656
 32
0.004994422663003206
 13
-120.5555419921875
 23
40.000038146972656
 33
0.004994422663003206
  0
3DFACE
  8
0
 10
-120.5555419921875
 20
40.000038146972656
 30
0.004994422663003206
 11
-145.00001525878906
 21
80.00003051757812
 31
0.004994422663003206
 12
-98.8385009765625
 22
55.444480895996094
 32
0.004994422663003206
 13
-98.8385009765625
 23
55.444480895996094
 33
0.004994422663003206
  0
3DFACE
  8
0
 10
-19.403453826904297
 20
40.000038146972656
 30
0.004994422663003206
 11
-3.814697265625e-06
 21
40.000038146972656
 31
0.004994422663003206
 12
-3.814697265625e-06
 22
80.00004577636719
 32
0.004994422663003206
 13
-3.814697265625e-06
 23
80.00004577636719
 33
0.004994422663003206
  0
3DFACE
  8
0
 10
-3.814697265625e-06
 20
80.00004577636719
 30
0.004994422663003206
 11
-19.403453826904297
 21
80.00003051757812
 31
0.004994422663003206
 12
-19.403453826904297
 22
59.444488525390625
 32
0.004994422663003206
 13
-19.403453826904297
 23
59.444488525390625
 33
0.004994422663003206
  0
3DFACE
  8
0
 10
-29.403461456298828
 20
59.44447326660156
 30
0.004994422663003206
 11
-29.403461456298828
 21
80.00003051757812
 31
0.004994422663003206
 12
-50.19095993041992
 22
80.00003051757812
 32
0.004994422663003206
 13
-50.19095993041992
 23
80.00003051757812
 33
0.004994422663003206
  0
3DFACE
  8
0
 10
-19.403453826904297
 20
40.000038146972656
 30
0.004994422663003206
 11
-3.814697265625e-06
 21
80.00004577636719
 31
0.004994422663003206
 12
-19.403453826904297
 22
59.444488525390625
 32
0.004994422663003206
 13
-19.403453826904297
 23
59.444488525390625
 33
0.004994422663003206
  0
3DFACE
  8
0
 10
-29.403461456298828
 20
59.44447326660156
 30
0.004994422663003206
 11
-50.19095993041992
 21
80.00003051757812
 31
0.004994422663003206
 12
-50.190956115722656
 22
50.00004577636719
 32
0.004994422663003206
 13
-50.190956115722656
 23
50.00004577636719
 33
0.004994422663003206
  0
3DFACE
  8
0
 10
-19.403453826904297
 20
40.000038146972656
 30
0.004994422663003206
 11
-19.403453826904297
 21
59.444488525390625
 31
0.004994422663003206
 12
-29.403461456298828
 22
59.44447326660156
 32
0.004994422663003206
 13
-29.403461456298828
 23
59.44447326660156
 33
0.004994422663003206
  0
3DFACE
  8
0
 10
-29.403461456298828
 20
40.000038146972656
 30
0.004994422663003206
 11
-19.403453826904297
 21
40.000038146972656
 31
0.004994422663003206
 12
-29.403461456298828
 22
59.44447326660156
 32
0.004994422663003206
 13
-29.403461456298828
 23
59.44447326660156
 33
0.004994422663003206
  0
3DFACE
  8
0
 10
-29.403461456298828
 20
40.000038146972656
 30
0.004994422663003206
 11
-29.403461456298828
 21
59.44447326660156
 31
0.004994422663003206
 12
-50.190956115722656
 22
50.00004577636719
 32
0.004994422663003206
 13
-50.190956115722656
 23
50.00004577636719
 33
0.004994422663003206
  0
3DFACE
  8
0
 10
-50.19095230102539
 20
40.000038146972656
 30
0.004994422663003206
 11
-29.403461456298828
 21
40.000038146972656
 31
0.004994422663003206
 12
-50.190956115722656
 22
50.00004577636719
 32
0.004994422663003206
 13
-50.190956115722656
 23
50.00004577636719
 33
0.004994422663003206
  0
3DFACE
  8
0
 10
-58.02510070800781
 20
50.000030517578125
 30
0.004994422663003206
 11
-58.02510070800781
 21
80.00003051757812
 31
0.004994422663003206
 12
-78.83850860595703
 22
80.00003051757812
 32
0.004994422663003206
 13
-78.83850860595703
 23
80.00003051757812
 33
0.004994422663003206
  0
3DFACE
  8
0
 10
-50.19095230102539
 20
40.000038146972656
 30
0.004994422663003206
 11
-50.190956115722656
 21
50.00004577636719
 31
0.004994422663003206
 12
-58.02510070800781
 22
50.000030517578125
 32
0.004994422663003206
 13
-58.02510070800781
 23
50.000030517578125
 33
0.004994422663003206
  0
3DFACE
  8
0
 10
-58.02509307861328
 20
40.000038146972656
 30
0.004994422663003206
 11
-50.19095230102539
 21
40.000038146972656
 31
0.004994422663003206
 12
-58.02510070800781
 22
50.000030517578125
 32
0.004994422663003206
 13
-58.02510070800781
 23
50.000030517578125
 33
0.004994422663003206
  0
3DFACE
  8
0
 10
-58.02510070800781
 20
50.000030517578125
 30
0.004994422663003206
 11
-78.83850860595703
 21
80.00003051757812
 31
0.004994422663003206
 12
-78.83850860595703
 22
55.444480895996094
 32
0.004994422663003206
 13
-78.83850860595703
 23
55.444480895996094
 33
0.004994422663003206
  0
3DFACE
  8
0
 10
-98.8385009765625
 20
55.444480895996094
 30
0.004994422663003206
 11
-98.8385009765625
 21
80.00003051757812
 31
0.004994422663003206
 12
-120.55555725097656
 22
80.00003051757812
 32
0.004994422663003206
 13
-120.55555725097656
 23
80.00003051757812
 33
0.004994422663003206
  0
3DFACE
  8
0
 10
-58.02510070800781
 20
50.000030517578125
 30
0.004994422663003206
 11
-78.83850860595703
 21
55.444480895996094
 31
0.004994422663003206
 12
-98.8385009765625
 22
55.444480895996094
 32
0.004994422663003206
 13
-98.8385009765625
 23
55.444480895996094
 33
0.004994422663003206
  0
3DFACE
  8
0
 10
-78.8385009765625
 20
40.000038146972656
 30
0.004994422663003206
 11
-58.02509307861328
 21
40.000038146972656
 31
0.004994422663003206
 12
-58.02510070800781
 22
50.000030517578125
 32
0.004994422663003206
 13
-58.02510070800781
 23
50.000030517578125
 33
0.004994422663003206
  0
3DFACE
  8
0
 10
-98.8385009765625
 20
40.000038146972656
 30
0.004994422663003206
 11
-78.8385009765625
 21
40.000038146972656
 31
0.004994422663003206
 12
-58.02510070800781
 22
50.000030517578125
 32
0.004994422663003206
 13
-58.02510070800781
 23
50.000030517578125
 33
0.004994422663003206
  0
3DFACE
  8
0
 10
-98.8385009765625
 20
55.444480895996094
 30
0.004994422663003206
 11
-120.55555725097656
 21
80.00003051757812
 31
0.004994422663003206
 12
-145.00001525878906
 22
80.00003051757812
 32
0.004994422663003206
 13
-145.00001525878906
 23
80.00003051757812
 33
0.004994422663003206
  0
3DFACE
  8
0
 10
-98.8385009765625
 20
40.000038146972656
 30
0.004994422663003206
 11
-58.02510070800781
 21
50.000030517578125
 31
0.004994422663003206
 12
-98.8385009765625
 22
55.444480895996094
 32
0.004994422663003206
 13
-98.8385009765625
 23
55.444480895996094
 33
0.004994422663003206
  0
3DFACE
  8
0
 10
-145.00001525878906
 20
80.00003051757812
 30
0.004994422663003206
 11
-145.00001525878906
 21
40.000038146972656
 31
0.004994422663003206
 12
-120.5555419921875
 22
40.000038146972656
 32
0.004994422663003206
 13
-120.5555419921875
 23
40.000038146972656
 33
0.004994422663003206
  0
3DFACE
  8
0
 10
-120.5555419921875
 20
40.000038146972656
 30
0.004994422663003206
 11
-98.8385009765625
 21
40.000038146972656
 31
0.004994422663003206
 12
-98.8385009765625
 22
55.444480895996094
 32
0.004994422663003206
 13
-98.8385009765625
 23
55.444480895996094
 33
0.004994422663003206
  0
3DFACE
  8
0
 10
-98.8385009765625
 20
55.444480895996094
 30
0.004994422663003206
 11
-145.00001525878906
 21
80.00003051757812
 31
0.004994422663003206
 12
-120.5555419921875
 22
40.000038146972656
 32
0.004994422663003206
 13
-120.5555419921875
 23
40.000038146972656
 33
0.004994422663003206
  0
3DFACE
  8
0
 10
-145.00001525878906
 20
40.000038146972656
 30
0.004994422663003206
 11
-120.5555419921875
 21
40.000038146972656
 31
0.004994422663003206
 12
-120.5555419921875
 22
40.000038146972656
 32
0.004994422663003206
 13
-120.5555419921875
 23
40.000038146972656
 33
0.004994422663003206
  0
3DFACE
  8
0
 10
-145.00001525878906
 20
40.000038146972656
 30
0.004994422663003206
 11
-120.5555419921875
 21
40.000038146972656
 31
0.004994422663003206
 12
-145.00001525878906
 22
40.000038146972656
 32
0.004994422663003206
 13
-145.00001525878906
 23
40.000038146972656
 33
0.004994422663003206
  0
3DFACE
  8
0
 10
-145.00001525878906
 20
80.00003051757812
 30
0.004994422663003206
 11
-145.00001525878906
 21
40.000038146972656
 31
0.004994422663003206
 12
-145.00001525878906
 22
40.000038146972656
 32
0.004994422663003206
 13
-145.00001525878906
 23
40.000038146972656
 33
0.004994422663003206
  0
3DFACE
  8
0
 10
-145.00001525878906
 20
80.00003051757812
 30
0.004994422663003206
 11
-145.00001525878906
 21
40.000038146972656
 31
0.004994422663003206
 12
-145.00001525878906
 22
80.00003051757812
 32
0.004994422663003206
 13
-145.00001525878906
 23
80.00003051757812
 33
0.004994422663003206
  0
3DFACE
  8
0
 10
-29.403461456298828
 20
80.00004577636719
 30
0.004994422663003206
 11
-50.190956115722656
 21
80.00004577636719
 31
0.004994422663003206
 12
-50.19095993041992
 22
80.00003051757812
 32
0.004994422663003206
 13
-50.19095993041992
 23
80.00003051757812
 33
0.004994422663003206
  0
3DFACE
  8
0
 10
-29.403461456298828
 20
80.00004577636719
 30
0.004994422663003206
 11
-50.19095993041992
 21
80.00003051757812
 31
0.004994422663003206
 12
-29.403461456298828
 22
80.00003051757812
 32
0.004994422663003206
 13
-29.403461456298828
 23
80.00003051757812
 33
0.004994422663003206
  0
3DFACE
  8
0
 10
-120.5555419921875
 20
40.000038146972656
 30
0.004994422663003206
 11
-98.8385009765625
 21
40.000038146972656
 31
0.004994422663003206
 12
-98.8385009765625
 22
40.000038146972656
 32
0.004994422663003206
 13
-98.8385009765625
 23
40.000038146972656
 33
0.004994422663003206
  0
3DFACE
  8
0
 10
-120.5555419921875
 20
40.000038146972656
 30
0.004994422663003206
 11
-98.8385009765625
 21
40.000038146972656
 31
0.004994422663003206
 12
-120.5555419921875
 22
40.000038146972656
 32
0.004994422663003206
 13
-120.5555419921875
 23
40.000038146972656
 33
0.004994422663003206
  0
3DFACE
  8
0
 10
-19.403453826904297
 20
59.444488525390625
 30
0.004994422663003206
 11
-29.403461456298828
 21
59.44447326660156
 31
0.004994422663003206
 12
-29.403461456298828
 22
59.44447326660156
 32
0.004994422663003206
 13
-29.403461456298828
 23
59.44447326660156
 33
0.004994422663003206
  0
3DFACE
  8
0
 10
-19.403453826904297
 20
59.444488525390625
 30
0.004994422663003206
 11
-29.403461456298828
 21
59.44447326660156
 31
0.004994422663003206
 12
-19.403453826904297
 22
59.444488525390625
 32
0.004994422663003206
 13
-19.403453826904297
 23
59.444488525390625
 33
0.004994422663003206
  0
3DFACE
  8
0
 10
-58.02510070800781
 20
80.00004577636719
 30
0.004994422663003206
 11
-78.83850860595703
 21
80.00004577636719
 31
0.004994422663003206
 12
-78.83850860595703
 22
80.00003051757812
 32
0.004994422663003206
 13
-78.83850860595703
 23
80.00003051757812
 33
0.004994422663003206
  0
3DFACE
  8
0
 10
-58.02510070800781
 20
80.00004577636719
 30
0.004994422663003206
 11
-78.83850860595703
 21
80.00003051757812
 31
0.004994422663003206
 12
-58.02510070800781
 22
80.00003051757812
 32
0.004994422663003206
 13
-58.02510070800781
 23
80.00003051757812
 33
0.004994422663003206
  0
3DFACE
  8
0
 10
-98.8385009765625
 20
40.000038146972656
 30
0.004994422663003206
 11
-78.8385009765625
 21
40.000038146972656
 31
0.004994422663003206
 12
-78.8385009765625
 22
40.000038146972656
 32
0.004994422663003206
 13
-78.8385009765625
 23
40.000038146972656
 33
0.004994422663003206
  0
3DFACE
  8
0
 10
-98.8385009765625
 20
40.000038146972656
 30
0.004994422663003206
 11
-78.8385009765625
 21
40.000038146972656
 31
0.004994422663003206
 12
-98.8385009765625
 22
40.000038146972656
 32
0.004994422663003206
 13
-98.8385009765625
 23
40.000038146972656
 33
0.004994422663003206
  0
3DFACE
  8
0
 10
-19.403453826904297
 20
80.00004577636719
 30
0.004994422663003206
 11
-19.403453826904297
 21
59.444488525390625
 31
0.004994422663003206
 12
-19.403453826904297
 22
59.444488525390625
 32
0.004994422663003206
 13
-19.403453826904297
 23
59.444488525390625
 33
0.004994422663003206
  0
3DFACE
  8
0
 10
-19.403453826904297
 20
80.00004577636719
 30
0.004994422663003206
 11
-19.403453826904297
 21
59.444488525390625
 31
0.004994422663003206
 12
-19.403453826904297
 22
80.00003051757812
 32
0.004994422663003206
 13
-19.403453826904297
 23
80.00003051757812
 33
0.004994422663003206
  0
3DFACE
  8
0
 10
-98.8385009765625
 20
80.00004577636719
 30
0.004994422663003206
 11
-120.55555725097656
 21
80.00004577636719
 31
0.004994422663003206
 12
-120.55555725097656
 22
80.00003051757812
 32
0.004994422663003206
 13
-120.55555725097656
 23
80.00003051757812
 33
0.004994422663003206
  0
3DFACE
  8
0
 10
-98.8385009765625
 20
80.00004577636719
 30
0.004994422663003206
 11
-120.55555725097656
 21
80.00003051757812
 31
0.004994422663003206
 12
-98.8385009765625
 22
80.00003051757812
 32
0.004994422663003206
 13
-98.8385009765625
 23
80.00003051757812
 33
0.004994422663003206
  0
3DFACE
  8
0
 10
-78.8385009765625
 20
40.000038146972656
 30
0.004994422663003206
 11
-58.02509307861328
 21
40.000038146972656
 31
0.004994422663003206
 12
-58.02509307861328
 22
40.000038146972656
 32
0.004994422663003206
 13
-58.02509307861328
 23
40.000038146972656
 33
0.004994422663003206
  0
3DFACE
  8
0
 10
-78.8385009765625
 20
40.000038146972656
 30
0.004994422663003206
 11
-58.02509307861328
 21
40.000038146972656
 31
0.004994422663003206
 12
-78.8385009765625
 22
40.000038146972656
 32
0.004994422663003206
 13
-78.8385009765625
 23
40.000038146972656
 33
0.004994422663003206
  0
3DFACE
  8
0
 10
-29.403461456298828
 20
59.44447326660156
 30
0.004994422663003206
 11
-29.403461456298828
 21
80.00004577636719
 31
0.004994422663003206
 12
-29.403461456298828
 22
80.00003051757812
 32
0.004994422663003206
 13
-29.403461456298828
 23
80.00003051757812
 33
0.004994422663003206
  0
3DFACE
  8
0
 10
-29.403461456298828
 20
59.44447326660156
 30
0.004994422663003206
 11
-29.403461456298828
 21
80.00003051757812
 31
0.004994422663003206
 12
-29.403461456298828
 22
59.44447326660156
 32
0.004994422663003206
 13
-29.403461456298828
 23
59.44447326660156
 33
0.004994422663003206
  0
3DFACE
  8
0
 10
-120.55555725097656
 20
80.00004577636719
 30
0.004994422663003206
 11
-145.00001525878906
 21
80.00003051757812
 31
0.004994422663003206
 12
-145.00001525878906
 22
80.00003051757812
 32
0.004994422663003206
 13
-145.00001525878906
 23
80.00003051757812
 33
0.004994422663003206
  0
3DFACE
  8
0
 10
-120.55555725097656
 20
80.00004577636719
 30
0.004994422663003206
 11
-145.00001525878906
 21
80.00003051757812
 31
0.004994422663003206
 12
-120.55555725097656
 22
80.00003051757812
 32
0.004994422663003206
 13
-120.55555725097656
 23
80.00003051757812
 33
0.004994422663003206
  0
3DFACE
  8
0
 10
-58.02509307861328
 20
40.000038146972656
 30
0.004994422663003206
 11
-50.19095230102539
 21
40.000038146972656
 31
0.004994422663003206
 12
-50.19095230102539
 22
40.000038146972656
 32
0.004994422663003206
 13
-50.19095230102539
 23
40.000038146972656
 33
0.004994422663003206
  0
3DFACE
  8
0
 10
-58.02509307861328
 20
40.000038146972656
 30
0.004994422663003206
 11
-50.19095230102539
 21
40.000038146972656
 31
0.004994422663003206
 12
-58.02509307861328
 22
40.000038146972656
 32
0.004994422663003206
 13
-58.02509307861328
 23
40.000038146972656
 33
0.004994422663003206
  0
3DFACE
  8
0
 10
-50.190956115722656
 20
80.00004577636719
 30
0.004994422663003206
 11
-50.190956115722656
 21
50.00004577636719
 31
0.004994422663003206
 12
-50.190956115722656
 22
50.00004577636719
 32
0.004994422663003206
 13
-50.190956115722656
 23
50.00004577636719
 33
0.004994422663003206
  0
3DFACE
  8
0
 10
-50.190956115722656
 20
80.00004577636719
 30
0.004994422663003206
 11
-50.190956115722656
 21
50.00004577636719
 31
0.004994422663003206
 12
-50.19095993041992
 22
80.00003051757812
 32
0.004994422663003206
 13
-50.19095993041992
 23
80.00003051757812
 33
0.004994422663003206
  0
3DFACE
  8
0
 10
-98.8385009765625
 20
55.444480895996094
 30
0.004994422663003206
 11
-98.8385009765625
 21
80.00004577636719
 31
0.004994422663003206
 12
-98.8385009765625
 22
80.00003051757812
 32
0.004994422663003206
 13
-98.8385009765625
 23
80.00003051757812
 33
0.004994422663003206
  0
3DFACE
  8
0
 10
-98.8385009765625
 20
55.444480895996094
 30
0.004994422663003206
 11
-98.8385009765625
 21
80.00003051757812
 31
0.004994422663003206
 12
-98.8385009765625
 22
55.444480895996094
 32
0.004994422663003206
 13
-98.8385009765625
 23
55.444480895996094
 33
0.004994422663003206
  0
3DFACE
  8
0
 10
-50.19095230102539
 20
40.000038146972656
 30
0.004994422663003206
 11
-29.403461456298828
 21
40.000038146972656
 31
0.004994422663003206
 12
-29.403461456298828
 22
40.000038146972656
 32
0.004994422663003206
 13
-29.403461456298828
 23
40.000038146972656
 33
0.004994422663003206
  0
3DFACE
  8
0
 10
-50.19095230102539
 20
40.000038146972656
 30
0.004994422663003206
 11
-29.403461456298828
 21
40.000038146972656
 31
0.004994422663003206
 12
-50.19095230102539
 22
40.000038146972656
 32
0.004994422663003206
 13
-50.19095230102539
 23
40.000038146972656
 33
0.004994422663003206
  0
3DFACE
  8
0
 10
-50.190956115722656
 20
50.00004577636719
 30
0.004994422663003206
 11
-58.02510070800781
 21
50.000030517578125
 31
0.004994422663003206
 12
-58.02510070800781
 22
50.000030517578125
 32
0.004994422663003206
 13
-58.02510070800781
 23
50.000030517578125
 33
0.004994422663003206
  0
3DFACE
  8
0
 10
-50.190956115722656
 20
50.00004577636719
 30
0.004994422663003206
 11
-58.02510070800781
 21
50.000030517578125
 31
0.004994422663003206
 12
-50.190956115722656
 22
50.00004577636719
 32
0.004994422663003206
 13
-50.190956115722656
 23
50.00004577636719
 33
0.004994422663003206
  0
3DFACE
  8
0
 10
-19.403453826904297
 20
40.000038146972656
 30
0.004994422663003206
 11
-3.814697265625e-06
 21
40.000038146972656
 31
0.004994422663003206
 12
-3.814697265625e-06
 22
40.000038146972656
 32
0.004994422663003206
 13
-3.814697265625e-06
 23
40.000038146972656
 33
0.004994422663003206
  0
3DFACE
  8
0
 10
-19.403453826904297
 20
40.000038146972656
 30
0.004994422663003206
 11
-3.814697265625e-06
 21
40.000038146972656
 31
0.004994422663003206
 12
-19.403453826904297
 22
40.000038146972656
 32
0.004994422663003206
 13
-19.403453826904297
 23
40.000038146972656
 33
0.004994422663003206
  0
3DFACE
  8
0
 10
-58.02510070800781
 20
50.000030517578125
 30
0.004994422663003206
 11
-58.02510070800781
 21
80.00004577636719
 31
0.004994422663003206
 12
-58.02510070800781
 22
80.00003051757812
 32
0.004994422663003206
 13
-58.02510070800781
 23
80.00003051757812
 33
0.004994422663003206
  0
3DFACE
  8
0
 10
-58.02510070800781
 20
50.000030517578125
 30
0.004994422663003206
 11
-58.02510070800781
 21
80.00003051757812
 31
0.004994422663003206
 12
-58.02510070800781
 22
50.000030517578125
 32
0.004994422663003206
 13
-58.02510070800781
 23
50.000030517578125
 33
0.004994422663003206
  0
3DFACE
  8
0
 10
-29.403461456298828
 20
40.000038146972656
 30
0.004994422663003206
 11
-19.403453826904297
 21
40.000038146972656
 31
0.004994422663003206
 12
-19.403453826904297
 22
40.000038146972656
 32
0.004994422663003206
 13
-19.403453826904297
 23
40.000038146972656
 33
0.004994422663003206
  0
3DFACE
  8
0
 10
-29.403461456298828
 20
40.000038146972656
 30
0.004994422663003206
 11
-19.403453826904297
 21
40.000038146972656
 31
0.004994422663003206
 12
-29.403461456298828
 22
40.000038146972656
 32
0.004994422663003206
 13
-29.403461456298828
 23
40.000038146972656
 33
0.004994422663003206
  0
3DFACE
  8
0
 10
-78.83850860595703
 20
55.444480895996094
 30
0.004994422663003206
 11
-98.8385009765625
 21
55.444480895996094
 31
0.004994422663003206
 12
-98.8385009765625
 22
55.444480895996094
 32
0.004994422663003206
 13
-98.8385009765625
 23
55.444480895996094
 33
0.004994422663003206
  0
3DFACE
  8
0
 10
-78.83850860595703
 20
55.444480895996094
 30
0.004994422663003206
 11
-98.8385009765625
 21
55.444480895996094
 31
0.004994422663003206
 12
-78.83850860595703
 22
55.444480895996094
 32
0.004994422663003206
 13
-78.83850860595703
 23
55.444480895996094
 33
0.004994422663003206
  0
3DFACE
  8
0
 10
-3.814697265625e-06
 20
40.000038146972656
 30
0.004994422663003206
 11
-3.814697265625e-06
 21
80.00004577636719
 31
0.004994422663003206
 12
-3.814697265625e-06
 22
80.00004577636719
 32
0.004994422663003206
 13
-3.814697265625e-06
 23
80.00004577636719
 33
0.004994422663003206
  0
3DFACE
  8
0
 10
-3.814697265625e-06
 20
40.000038146972656
 30
0.004994422663003206
 11
-3.814697265625e-06
 21
80.00004577636719
 31
0.004994422663003206
 12
-3.814697265625e-06
 22
40.000038146972656
 32
0.004994422663003206
 13
-3.814697265625e-06
 23
40.000038146972656
 33
0.004994422663003206
  0
3DFACE
  8
0
 10
-78.83850860595703
 20
80.00004577636719
 30
0.004994422663003206
 11
-78.83850860595703
 21
55.444480895996094
 31
0.004994422663003206
 12
-78.83850860595703
 22
55.444480895996094
 32
0.004994422663003206
 13
-78.83850860595703
 23
55.444480895996094
 33
0.004994422663003206
  0
3DFACE
  8
0
 10
-78.83850860595703
 20
80.00004577636719
 30
0.004994422663003206
 11
-78.83850860595703
 21
55.444480895996094
 31
0.004994422663003206
 12
-78.83850860595703
 22
80.00003051757812
 32
0.004994422663003206
 13
-78.83850860595703
 23
80.00003051757812
 33
0.004994422663003206
  0
3DFACE
  8
0
 10
-3.814697265625e-06
 20
80.00004577636719
 30
0.004994422663003206
 11
-19.403453826904297
 21
80.00004577636719
 31
0.004994422663003206
 12
-19.403453826904297
 22
80.00003051757812
 32
0.004994422663003206
 13
-19.403453826904297
 23
80.00003051757812
 33
0.004994422663003206
  0
3DFACE
  8
0
 10
-3.814697265625e-06
 20
80.00004577636719
 30
0.004994422663003206
 11
-19.403453826904297
 21
80.00003051757812
 31
0.004994422663003206
 12
-3.814697265625e-06
 22
80.00004577636719
 32
0.004994422663003206
 13
-3.814697265625e-06
 23
80.00004577636719
 33
0.004994422663003206
  0
ENDSEC
  0
EOF
